<svg width="113" height="113" viewBox="0 0 113 113" fill="none" xmlns="http://www.w3.org/2000/svg">
<path d="M94.5 56.5C94.5 77.4868 77.4868 94.5 56.5 94.5C35.5132 94.5 18.5 77.4868 18.5 56.5C18.5 35.5132 35.5132 18.5 56.5 18.5C77.4868 18.5 94.5 35.5132 94.5 56.5Z" stroke="url(#paint0_radial_7856_732)"/>
<path d="M100.5 56.5C100.5 80.8005 80.8005 100.5 56.5 100.5C32.1995 100.5 12.5 80.8005 12.5 56.5C12.5 32.1995 32.1995 12.5 56.5 12.5C80.8005 12.5 100.5 32.1995 100.5 56.5Z" stroke="url(#paint1_radial_7856_732)"/>
<path d="M106.5 56.5C106.5 84.1142 84.1142 106.5 56.5 106.5C28.8858 106.5 6.5 84.1142 6.5 56.5C6.5 28.8858 28.8858 6.5 56.5 6.5C84.1142 6.5 106.5 28.8858 106.5 56.5Z" stroke="url(#paint2_radial_7856_732)"/>
<path d="M112.5 56.5C112.5 87.4279 87.4279 112.5 56.5 112.5C25.5721 112.5 0.5 87.4279 0.5 56.5C0.5 25.5721 25.5721 0.5 56.5 0.5C87.4279 0.5 112.5 25.5721 112.5 56.5Z" stroke="url(#paint3_radial_7856_732)"/>
<g clip-path="url(#clip0_7856_732)">
<path d="M24.5 56.5C24.5 38.8269 38.8269 24.5 56.5 24.5V24.5C74.1731 24.5 88.5 38.8269 88.5 56.5V56.5C88.5 74.1731 74.1731 88.5 56.5 88.5V88.5C38.8269 88.5 24.5 74.1731 24.5 56.5V56.5Z" fill="url(#paint4_radial_7856_732)"/>
<circle cx="24.5" cy="24.5" r="50" fill="url(#paint5_radial_7856_732)"/>
<mask id="mask0_7856_732" style="mask-type:alpha" maskUnits="userSpaceOnUse" x="40" y="43" width="33" height="27">
<path d="M41.5 55V45.4C41.5 44.9029 41.9029 44.5 42.4 44.5H51.6671C51.8819 44.5 52.0897 44.5769 52.2528 44.7167L56.9973 48.7833C57.1603 48.9231 57.3681 49 57.583 49H70.6C71.0971 49 71.5 49.4029 71.5 49.9V55M41.5 55V67.6C41.5 68.0971 41.9029 68.5 42.4 68.5H70.6C71.0971 68.5 71.5 68.0971 71.5 67.6V55" stroke="black" stroke-width="2" stroke-linecap="round" stroke-linejoin="round"/>
</mask>
<g mask="url(#mask0_7856_732)">
<rect width="40" height="40" transform="translate(36.5 36.5)" fill="url(#paint6_radial_7856_732)"/>
</g>
</g>
<path d="M56.5 25C73.897 25 88 39.103 88 56.5C88 73.897 73.897 88 56.5 88C39.103 88 25 73.897 25 56.5C25 39.103 39.103 25 56.5 25Z" stroke="url(#paint7_linear_7856_732)"/>
<path d="M1.5 87.5C1.5 82.5294 5.52944 78.5 10.5 78.5V78.5C15.4706 78.5 19.5 82.5294 19.5 87.5V87.5C19.5 92.4706 15.4706 96.5 10.5 96.5V96.5C5.52944 96.5 1.5 92.4706 1.5 87.5V87.5Z" fill="url(#paint8_linear_7856_732)"/>
<mask id="mask1_7856_732" style="mask-type:alpha" maskUnits="userSpaceOnUse" x="5" y="83" width="11" height="9">
<path d="M11.2144 84.5238L9.54769 90.4762M7.88102 85.7143L6.21436 87.381L7.88102 89.0476M13.1191 85.7143L14.7858 87.381L13.1191 89.0476" stroke="black" stroke-width="1.2" stroke-linecap="round" stroke-linejoin="round"/>
</mask>
<g mask="url(#mask1_7856_732)">
<rect width="12" height="12" transform="translate(4.5 81.5)" fill="url(#paint9_linear_7856_732)"/>
</g>
<path d="M93.5 25.5C93.5 20.5294 97.5294 16.5 102.5 16.5V16.5C107.471 16.5 111.5 20.5294 111.5 25.5V25.5C111.5 30.4706 107.471 34.5 102.5 34.5V34.5C97.5294 34.5 93.5 30.4706 93.5 25.5V25.5Z" fill="url(#paint10_linear_7856_732)"/>
<mask id="mask2_7856_732" style="mask-type:alpha" maskUnits="userSpaceOnUse" x="98" y="21" width="9" height="9">
<path d="M98.6428 25.5H102.5M102.5 25.5H106.357M102.5 25.5V21.6429M102.5 25.5V29.3571" stroke="white" stroke-width="1.2" stroke-linecap="round" stroke-linejoin="round"/>
</mask>
<g mask="url(#mask2_7856_732)">
<rect width="12" height="12" transform="translate(96.5 19.5)" fill="url(#paint11_linear_7856_732)"/>
</g>
<defs>
<radialGradient id="paint0_radial_7856_732" cx="0" cy="0" r="1" gradientUnits="userSpaceOnUse" gradientTransform="translate(56.5 56.5) rotate(90) scale(56 68.1429)">
<stop stop-color="#CED1D7"/>
<stop offset="1" stop-color="white"/>
</radialGradient>
<radialGradient id="paint1_radial_7856_732" cx="0" cy="0" r="1" gradientUnits="userSpaceOnUse" gradientTransform="translate(56.5 56.5) rotate(90) scale(56 68.1429)">
<stop stop-color="#CED1D7"/>
<stop offset="1" stop-color="white"/>
</radialGradient>
<radialGradient id="paint2_radial_7856_732" cx="0" cy="0" r="1" gradientUnits="userSpaceOnUse" gradientTransform="translate(56.5 56.5) rotate(90) scale(56 68.1429)">
<stop stop-color="#CED1D7"/>
<stop offset="1" stop-color="white"/>
</radialGradient>
<radialGradient id="paint3_radial_7856_732" cx="0" cy="0" r="1" gradientUnits="userSpaceOnUse" gradientTransform="translate(56.5 56.5) rotate(90) scale(56 68.1429)">
<stop stop-color="#CED1D7"/>
<stop offset="1" stop-color="white"/>
</radialGradient>
<radialGradient id="paint4_radial_7856_732" cx="0" cy="0" r="1" gradientUnits="userSpaceOnUse" gradientTransform="translate(56.5 89.5) rotate(-90) scale(53 34.617)">
<stop stop-color="#FCFCFC"/>
<stop offset="0.273948" stop-color="#FCFCFC"/>
<stop offset="0.457415" stop-color="white"/>
<stop offset="0.631041" stop-color="white"/>
<stop offset="0.836773" stop-color="#FCFCFC"/>
<stop offset="1" stop-color="#F6F6F6"/>
</radialGradient>
<radialGradient id="paint5_radial_7856_732" cx="0" cy="0" r="1" gradientUnits="userSpaceOnUse" gradientTransform="translate(24.5 24.5) scale(50)">
<stop stop-color="#69BFFF" stop-opacity="0.6"/>
<stop offset="1" stop-color="white" stop-opacity="0"/>
</radialGradient>
<radialGradient id="paint6_radial_7856_732" cx="0" cy="0" r="1" gradientUnits="userSpaceOnUse" gradientTransform="translate(20 25.5) rotate(-90) scale(21 12.5457)">
<stop stop-color="#BEC3CE"/>
<stop offset="0.379808" stop-color="#B5BBC7"/>
<stop offset="1" stop-color="#989EA8"/>
</radialGradient>
<linearGradient id="paint7_linear_7856_732" x1="56.5" y1="24.5" x2="56.5" y2="88.5" gradientUnits="userSpaceOnUse">
<stop stop-color="#0F1013" stop-opacity="0.1"/>
<stop offset="1" stop-color="#0F1013" stop-opacity="0.02"/>
</linearGradient>
<linearGradient id="paint8_linear_7856_732" x1="1.8088" y1="96.5" x2="19.1912" y2="78.5" gradientUnits="userSpaceOnUse">
<stop offset="0.11" stop-color="#D9D9DB"/>
<stop offset="0.71" stop-color="#F6F6F6"/>
</linearGradient>
<linearGradient id="paint9_linear_7856_732" x1="12" y1="0" x2="0" y2="12" gradientUnits="userSpaceOnUse">
<stop offset="0.08" stop-color="#BEC3CE"/>
<stop offset="0.92" stop-color="#848892"/>
</linearGradient>
<linearGradient id="paint10_linear_7856_732" x1="93.8088" y1="34.5" x2="111.191" y2="16.5" gradientUnits="userSpaceOnUse">
<stop offset="0.11" stop-color="#F6F6F6"/>
<stop offset="0.71" stop-color="#D9D9DB"/>
</linearGradient>
<linearGradient id="paint11_linear_7856_732" x1="12" y1="0" x2="0" y2="12" gradientUnits="userSpaceOnUse">
<stop offset="0.08" stop-color="#848892"/>
<stop offset="0.92" stop-color="#BEC3CE"/>
</linearGradient>
<clipPath id="clip0_7856_732">
<path d="M24.5 56.5C24.5 38.8269 38.8269 24.5 56.5 24.5V24.5C74.1731 24.5 88.5 38.8269 88.5 56.5V56.5C88.5 74.1731 74.1731 88.5 56.5 88.5V88.5C38.8269 88.5 24.5 74.1731 24.5 56.5V56.5Z" fill="white"/>
</clipPath>
</defs>
</svg>
