<svg width="113" height="113" viewBox="0 0 113 113" fill="none" xmlns="http://www.w3.org/2000/svg">
<path d="M94.5 56.5C94.5 77.4868 77.4868 94.5 56.5 94.5C35.5132 94.5 18.5 77.4868 18.5 56.5C18.5 35.5132 35.5132 18.5 56.5 18.5C77.4868 18.5 94.5 35.5132 94.5 56.5Z" stroke="url(#paint0_radial_6432_415)"/>
<path d="M100.5 56.5C100.5 80.8005 80.8005 100.5 56.5 100.5C32.1995 100.5 12.5 80.8005 12.5 56.5C12.5 32.1995 32.1995 12.5 56.5 12.5C80.8005 12.5 100.5 32.1995 100.5 56.5Z" stroke="url(#paint1_radial_6432_415)"/>
<path d="M106.5 56.5C106.5 84.1142 84.1142 106.5 56.5 106.5C28.8858 106.5 6.5 84.1142 6.5 56.5C6.5 28.8858 28.8858 6.5 56.5 6.5C84.1142 6.5 106.5 28.8858 106.5 56.5Z" stroke="url(#paint2_radial_6432_415)"/>
<path d="M112.5 56.5C112.5 87.4279 87.4279 112.5 56.5 112.5C25.5721 112.5 0.5 87.4279 0.5 56.5C0.5 25.5721 25.5721 0.5 56.5 0.5C87.4279 0.5 112.5 25.5721 112.5 56.5Z" stroke="url(#paint3_radial_6432_415)"/>
<path d="M56.5 25C73.897 25 88 39.103 88 56.5C88 73.897 73.897 88 56.5 88C39.103 88 25 73.897 25 56.5C25 39.103 39.103 25 56.5 25Z" fill="url(#paint4_radial_6432_415)"/>
<path d="M56.5 25C73.897 25 88 39.103 88 56.5C88 73.897 73.897 88 56.5 88C39.103 88 25 73.897 25 56.5C25 39.103 39.103 25 56.5 25Z" stroke="url(#paint5_linear_6432_415)"/>
<mask id="mask0_6432_415" style="mask-type:alpha" maskUnits="userSpaceOnUse" x="43" y="40" width="27" height="33">
<path d="M44.2419 64.0867V45.0663C44.2419 43.0967 45.8386 41.5 47.8082 41.5H66.2766C66.8675 41.5 67.3465 41.979 67.3465 42.5699V64.0867M44.2419 64.0867H67.3465M44.2419 64.0867V66.344C44.2419 68.3136 45.8386 69.9103 47.8082 69.9103H60.2862M67.3465 69.9103V64.0867M65.9348 70.0883C65.9348 70.868 66.5669 71.5 67.3465 71.5C68.1261 71.5 68.7582 70.868 68.7582 70.0883C68.7582 69.3087 68.1261 68.6767 67.3465 68.6767C66.5669 68.6767 65.9348 69.3087 65.9348 70.0883Z" stroke="black" stroke-width="2" stroke-linecap="round" stroke-linejoin="round"/>
</mask>
<g mask="url(#mask0_6432_415)">
<rect width="40" height="40" transform="translate(36.5 36.5)" fill="url(#paint6_radial_6432_415)"/>
</g>
<defs>
<radialGradient id="paint0_radial_6432_415" cx="0" cy="0" r="1" gradientUnits="userSpaceOnUse" gradientTransform="translate(56.5 56.5) rotate(90) scale(56 68.1429)">
<stop stop-color="#343A47"/>
<stop offset="1" stop-color="#1A1B1E"/>
</radialGradient>
<radialGradient id="paint1_radial_6432_415" cx="0" cy="0" r="1" gradientUnits="userSpaceOnUse" gradientTransform="translate(56.5 56.5) rotate(90) scale(56 68.1429)">
<stop stop-color="#343A47"/>
<stop offset="1" stop-color="#1A1B1E"/>
</radialGradient>
<radialGradient id="paint2_radial_6432_415" cx="0" cy="0" r="1" gradientUnits="userSpaceOnUse" gradientTransform="translate(56.5 56.5) rotate(90) scale(56 68.1429)">
<stop stop-color="#343A47"/>
<stop offset="1" stop-color="#1A1B1E"/>
</radialGradient>
<radialGradient id="paint3_radial_6432_415" cx="0" cy="0" r="1" gradientUnits="userSpaceOnUse" gradientTransform="translate(56.5 56.5) rotate(90) scale(56 68.1429)">
<stop stop-color="#343A47"/>
<stop offset="1" stop-color="#1A1B1E"/>
</radialGradient>
<radialGradient id="paint4_radial_6432_415" cx="0" cy="0" r="1" gradientUnits="userSpaceOnUse" gradientTransform="translate(56.5 89.5) rotate(-90) scale(53 34.617)">
<stop stop-color="#848892"/>
<stop offset="0.273948" stop-color="#6B6F79"/>
<stop offset="0.457415" stop-color="#484D5B"/>
<stop offset="0.631041" stop-color="#343A47"/>
<stop offset="0.836773" stop-color="#242730"/>
<stop offset="1" stop-color="#1A1B1E"/>
</radialGradient>
<linearGradient id="paint5_linear_6432_415" x1="56.5" y1="24.5" x2="56.5" y2="88.5" gradientUnits="userSpaceOnUse">
<stop stop-color="white" stop-opacity="0.12"/>
<stop offset="1" stop-color="white" stop-opacity="0.01"/>
</linearGradient>
<radialGradient id="paint6_radial_6432_415" cx="0" cy="0" r="1" gradientUnits="userSpaceOnUse" gradientTransform="translate(20 25.5) rotate(-90) scale(21 12.5457)">
<stop stop-color="#E7E8E9"/>
<stop offset="0.379808" stop-color="#CED1D7"/>
<stop offset="1" stop-color="#989EA8"/>
</radialGradient>
</defs>
</svg>
