<svg width="114" height="114" viewBox="0 0 114 114" fill="none"
    xmlns="http://www.w3.org/2000/svg">
    <path d="M95 57C95 77.9868 77.9868 95 57 95C36.0132 95 19 77.9868 19 57C19 36.0132 36.0132 19 57 19C77.9868 19 95 36.0132 95 57Z" stroke="url(#paint0_radial_11804_70923)" style=""/>
    <path d="M101 57C101 81.3005 81.3005 101 57 101C32.6995 101 13 81.3005 13 57C13 32.6995 32.6995 13 57 13C81.3005 13 101 32.6995 101 57Z" stroke="url(#paint1_radial_11804_70923)" style=""/>
    <path d="M107 57C107 84.6142 84.6142 107 57 107C29.3858 107 7 84.6142 7 57C7 29.3858 29.3858 7 57 7C84.6142 7 107 29.3858 107 57Z" stroke="url(#paint2_radial_11804_70923)" style=""/>
    <path d="M113 57C113 87.9279 87.9279 113 57 113C26.0721 113 1 87.9279 1 57C1 26.0721 26.0721 1 57 1C87.9279 1 113 26.0721 113 57Z" stroke="url(#paint3_radial_11804_70923)" style=""/>
    <path d="M57 25.5C74.397 25.5 88.5 39.603 88.5 57C88.5 74.397 74.397 88.5 57 88.5C39.603 88.5 25.5 74.397 25.5 57C25.5 39.603 39.603 25.5 57 25.5Z" fill="url(#paint4_radial_11804_70923)" style=""/>
    <path d="M57 25.5C74.397 25.5 88.5 39.603 88.5 57C88.5 74.397 74.397 88.5 57 88.5C39.603 88.5 25.5 74.397 25.5 57C25.5 39.603 39.603 25.5 57 25.5Z" stroke="url(#paint5_linear_11804_70923)" style=""/>
    <mask id="mask0_11804_70923" style="mask-type:alpha" maskUnits="userSpaceOnUse" x="41" y="44" width="32" height="26">
        <path d="M42 55.5V45.9C42 45.4029 42.4029 45 42.9 45H52.1671C52.3819 45 52.5897 45.0769 52.7528 45.2167L57.4973 49.2833C57.6603 49.4231 57.8681 49.5 58.083 49.5H71.1C71.5971 49.5 72 49.9029 72 50.4V55.5M42 55.5V68.1C42 68.5971 42.4029 69 42.9 69H71.1C71.5971 69 72 68.5971 72 68.1V55.5" stroke="black" style="stroke:black;stroke-opacity:1;" stroke-width="2" stroke-linecap="round" stroke-linejoin="round"/>
    </mask>
    <g mask="url(#mask0_11804_70923)">
        <rect width="40" height="40" transform="translate(37 37)" fill="url(#paint6_radial_11804_70923)" style=""/>
    </g>
    <defs>
        <radialGradient id="paint0_radial_11804_70923" cx="0" cy="0" r="1" gradientUnits="userSpaceOnUse" gradientTransform="translate(57 57) rotate(90) scale(56 68.1429)">
            <stop stop-color="#CACACE" style="stop-color:#CACACE;stop-color:color(display-p3 0.7922 0.7922 0.8078);stop-opacity:1;"/>
            <stop offset="1" stop-color="white" style="stop-color:white;stop-opacity:1;"/>
        </radialGradient>
        <radialGradient id="paint1_radial_11804_70923" cx="0" cy="0" r="1" gradientUnits="userSpaceOnUse" gradientTransform="translate(57 57) rotate(90) scale(56 68.1429)">
            <stop stop-color="#CACACE" style="stop-color:#CACACE;stop-color:color(display-p3 0.7922 0.7922 0.8078);stop-opacity:1;"/>
            <stop offset="1" stop-color="white" style="stop-color:white;stop-opacity:1;"/>
        </radialGradient>
        <radialGradient id="paint2_radial_11804_70923" cx="0" cy="0" r="1" gradientUnits="userSpaceOnUse" gradientTransform="translate(57 57) rotate(90) scale(56 68.1429)">
            <stop stop-color="#CACACE" style="stop-color:#CACACE;stop-color:color(display-p3 0.7922 0.7922 0.8078);stop-opacity:1;"/>
            <stop offset="1" stop-color="white" style="stop-color:white;stop-opacity:1;"/>
        </radialGradient>
        <radialGradient id="paint3_radial_11804_70923" cx="0" cy="0" r="1" gradientUnits="userSpaceOnUse" gradientTransform="translate(57 57) rotate(90) scale(56 68.1429)">
            <stop stop-color="#CACACE" style="stop-color:#CACACE;stop-color:color(display-p3 0.7922 0.7922 0.8078);stop-opacity:1;"/>
            <stop offset="1" stop-color="white" style="stop-color:white;stop-opacity:1;"/>
        </radialGradient>
        <radialGradient id="paint4_radial_11804_70923" cx="0" cy="0" r="1" gradientUnits="userSpaceOnUse" gradientTransform="translate(57 90) rotate(-90) scale(53 34.617)">
            <stop stop-color="white" style="stop-color:white;stop-opacity:1;"/>
            <stop offset="0.273948" stop-color="white" style="stop-color:white;stop-opacity:1;"/>
            <stop offset="0.457415" stop-color="#FBFBFB" style="stop-color:#FBFBFB;stop-color:color(display-p3 0.9843 0.9843 0.9843);stop-opacity:1;"/>
            <stop offset="0.631041" stop-color="#FBFBFB" style="stop-color:#FBFBFB;stop-color:color(display-p3 0.9843 0.9843 0.9843);stop-opacity:1;"/>
            <stop offset="0.836773" stop-color="#F6F6F7" style="stop-color:#F6F6F7;stop-color:color(display-p3 0.9647 0.9647 0.9686);stop-opacity:1;"/>
            <stop offset="1" stop-color="#E9E9EB" style="stop-color:#E9E9EB;stop-color:color(display-p3 0.9137 0.9137 0.9216);stop-opacity:1;"/>
        </radialGradient>
        <linearGradient id="paint5_linear_11804_70923" x1="57" y1="25" x2="57" y2="89" gradientUnits="userSpaceOnUse">
            <stop stop-color="#131316" stop-opacity="0.1" style="stop-color:#131316;stop-color:color(display-p3 0.0745 0.0745 0.0863);stop-opacity:0.1;"/>
            <stop offset="1" stop-color="#131316" stop-opacity="0.02" style="stop-color:#131316;stop-color:color(display-p3 0.0745 0.0745 0.0863);stop-opacity:0.02;"/>
        </linearGradient>
        <radialGradient id="paint6_radial_11804_70923" cx="0" cy="0" r="1" gradientUnits="userSpaceOnUse" gradientTransform="translate(20 25.5) rotate(-90) scale(21 12.5457)">
            <stop stop-color="#CACACE" style="stop-color:#CACACE;stop-color:color(display-p3 0.7922 0.7922 0.8078);stop-opacity:1;"/>
            <stop offset="0.379808" stop-color="#B5B5BB" style="stop-color:#B5B5BB;stop-color:color(display-p3 0.7098 0.7098 0.7333);stop-opacity:1;"/>
            <stop offset="1" stop-color="#A1A1A9" style="stop-color:#A1A1A9;stop-color:color(display-p3 0.6314 0.6314 0.6627);stop-opacity:1;"/>
        </radialGradient>
    </defs>
</svg>
