<svg xmlns="http://www.w3.org/2000/svg" width="114" height="114" fill="none"><path stroke="url(#a)" d="M95 57c0 20.987-17.013 38-38 38S19 77.987 19 57s17.013-38 38-38 38 17.013 38 38Z"/><path stroke="url(#b)" d="M101 57c0 24.3-19.7 44-44 44S13 81.3 13 57s19.7-44 44-44 44 19.7 44 44Z"/><path stroke="url(#c)" d="M107 57c0 27.614-22.386 50-50 50S7 84.614 7 57 29.386 7 57 7s50 22.386 50 50Z"/><path stroke="url(#d)" d="M113 57c0 30.928-25.072 56-56 56S1 87.928 1 57 26.072 1 57 1s56 25.072 56 56Z"/><path fill="url(#e)" d="M57 25.5c17.397 0 31.5 14.103 31.5 31.5S74.397 88.5 57 88.5 25.5 74.397 25.5 57 39.603 25.5 57 25.5Z"/><path stroke="url(#f)" d="M57 25.5c17.397 0 31.5 14.103 31.5 31.5S74.397 88.5 57 88.5 25.5 74.397 25.5 57 39.603 25.5 57 25.5Z"/><mask id="g" width="32" height="32" x="41" y="41" maskUnits="userSpaceOnUse" style="mask-type:alpha"><path fill="#000" d="M50.125 49.188a.937.937 0 1 1-1.875 0 .937.937 0 0 1 1.875 0Z" style="fill:#000;fill-opacity:1"/><path fill="#000" d="M42 42v-1a1 1 0 0 0-1 1h1Zm13.636 0 .707-.707a1 1 0 0 0-.707-.293v1ZM70.8 57.166l-.707.707.707-.707Zm0 5.784-.706-.708.706.708Zm-13.635 7.851.707-.706-.707.706ZM42 55.636h-1a1 1 0 0 0 .293.707l.707-.707ZM42 42v1h13.636v-2H42v1Zm13.636 0-.707.707 15.165 15.166.707-.707.707-.707-15.165-15.166-.707.707ZM70.8 57.166l-.707.707a3.089 3.089 0 0 1 0 4.37l.707.707.707.708a5.089 5.089 0 0 0 0-7.2l-.707.708Zm0 5.784-.707-.707-7.851 7.851.707.707.707.707 7.852-7.85-.708-.708Zm-7.851 7.851-.707-.707a3.089 3.089 0 0 1-4.37 0l-.707.707-.708.707a5.089 5.089 0 0 0 7.2 0l-.708-.707Zm-5.784 0 .707-.707L42.707 54.93l-.707.707-.707.707 15.166 15.165.707-.707ZM42 55.636h1V42h-2v13.636h1Zm8.125-6.449h-1c0-.034.028-.062.063-.062v2c1.07 0 1.937-.867 1.937-1.938h-1Zm-.938.938v-1c.035 0 .063.028.063.063h-2c0 1.07.867 1.937 1.938 1.937v-1Zm-.937-.938h1a.063.063 0 0 1-.063.063v-2c-1.07 0-1.937.867-1.937 1.938h1Zm.938-.937v1a.063.063 0 0 1-.063-.063h2c0-1.07-.867-1.937-1.938-1.937v1Z" style="fill:#000;fill-opacity:1"/></mask><g mask="url(#g)"><path fill="url(#h)" d="M0 0h40v40H0z" transform="translate(37 37)"/></g><defs><radialGradient id="a" cx="0" cy="0" r="1" gradientTransform="matrix(0 56 -68.1429 0 57 57)" gradientUnits="userSpaceOnUse"><stop stop-color="#232327" style="stop-color:#232327;stop-color:color(display-p3 .1373 .1373 .1529);stop-opacity:1"/><stop offset="1" stop-color="#0F0F11" style="stop-color:#0f0f11;stop-color:color(display-p3 .0588 .0588 .0667);stop-opacity:1"/></radialGradient><radialGradient id="b" cx="0" cy="0" r="1" gradientTransform="matrix(0 56 -68.1429 0 57 57)" gradientUnits="userSpaceOnUse"><stop stop-color="#232327" style="stop-color:#232327;stop-color:color(display-p3 .1373 .1373 .1529);stop-opacity:1"/><stop offset="1" stop-color="#0F0F11" style="stop-color:#0f0f11;stop-color:color(display-p3 .0588 .0588 .0667);stop-opacity:1"/></radialGradient><radialGradient id="c" cx="0" cy="0" r="1" gradientTransform="matrix(0 56 -68.1429 0 57 57)" gradientUnits="userSpaceOnUse"><stop stop-color="#232327" style="stop-color:#232327;stop-color:color(display-p3 .1373 .1373 .1529);stop-opacity:1"/><stop offset="1" stop-color="#0F0F11" style="stop-color:#0f0f11;stop-color:color(display-p3 .0588 .0588 .0667);stop-opacity:1"/></radialGradient><radialGradient id="d" cx="0" cy="0" r="1" gradientTransform="matrix(0 56 -68.1429 0 57 57)" gradientUnits="userSpaceOnUse"><stop stop-color="#232327" style="stop-color:#232327;stop-color:color(display-p3 .1373 .1373 .1529);stop-opacity:1"/><stop offset="1" stop-color="#0F0F11" style="stop-color:#0f0f11;stop-color:color(display-p3 .0588 .0588 .0667);stop-opacity:1"/></radialGradient><radialGradient id="e" cx="0" cy="0" r="1" gradientTransform="matrix(0 -53 34.617 0 57 90)" gradientUnits="userSpaceOnUse"><stop stop-color="#74747D" style="stop-color:#74747d;stop-color:color(display-p3 .4549 .4549 .4902);stop-opacity:1"/><stop offset=".274" stop-color="#47474D" style="stop-color:#47474d;stop-color:color(display-p3 .2784 .2784 .302);stop-opacity:1"/><stop offset=".457" stop-color="#313135" style="stop-color:#313135;stop-color:color(display-p3 .1922 .1922 .2078);stop-opacity:1"/><stop offset=".631" stop-color="#232327" style="stop-color:#232327;stop-color:color(display-p3 .1373 .1373 .1529);stop-opacity:1"/><stop offset=".837" stop-color="#18181B" style="stop-color:#18181b;stop-color:color(display-p3 .0941 .0941 .1059);stop-opacity:1"/><stop offset="1" stop-color="#141416" style="stop-color:#141416;stop-color:color(display-p3 .0784 .0784 .0863);stop-opacity:1"/></radialGradient><radialGradient id="h" cx="0" cy="0" r="1" gradientTransform="matrix(0 -21 12.5457 0 20 25.5)" gradientUnits="userSpaceOnUse"><stop stop-color="#E7E7E9" style="stop-color:#e7e7e9;stop-color:color(display-p3 .9059 .9059 .9137);stop-opacity:1"/><stop offset=".38" stop-color="#CACACE" style="stop-color:#cacace;stop-color:color(display-p3 .7922 .7922 .8078);stop-opacity:1"/><stop offset="1" stop-color="#94949C" style="stop-color:#94949c;stop-color:color(display-p3 .5804 .5804 .6118);stop-opacity:1"/></radialGradient><linearGradient id="f" x1="57" x2="57" y1="25" y2="89" gradientUnits="userSpaceOnUse"><stop stop-color="#fff" stop-opacity=".1" style="stop-color:white;stop-opacity:.1"/><stop offset="1" stop-color="#fff" stop-opacity=".01" style="stop-color:white;stop-opacity:.01"/></linearGradient></defs></svg>