<svg width="113" height="113" viewBox="0 0 113 113" fill="none" xmlns="http://www.w3.org/2000/svg">
<path d="M94.5 56.5C94.5 77.4868 77.4868 94.5 56.5 94.5C35.5132 94.5 18.5 77.4868 18.5 56.5C18.5 35.5132 35.5132 18.5 56.5 18.5C77.4868 18.5 94.5 35.5132 94.5 56.5Z" stroke="url(#paint0_radial_6432_424)"/>
<path d="M100.5 56.5C100.5 80.8005 80.8005 100.5 56.5 100.5C32.1995 100.5 12.5 80.8005 12.5 56.5C12.5 32.1995 32.1995 12.5 56.5 12.5C80.8005 12.5 100.5 32.1995 100.5 56.5Z" stroke="url(#paint1_radial_6432_424)"/>
<path d="M106.5 56.5C106.5 84.1142 84.1142 106.5 56.5 106.5C28.8858 106.5 6.5 84.1142 6.5 56.5C6.5 28.8858 28.8858 6.5 56.5 6.5C84.1142 6.5 106.5 28.8858 106.5 56.5Z" stroke="url(#paint2_radial_6432_424)"/>
<path d="M112.5 56.5C112.5 87.4279 87.4279 112.5 56.5 112.5C25.5721 112.5 0.5 87.4279 0.5 56.5C0.5 25.5721 25.5721 0.5 56.5 0.5C87.4279 0.5 112.5 25.5721 112.5 56.5Z" stroke="url(#paint3_radial_6432_424)"/>
<path d="M56.5 25C73.897 25 88 39.103 88 56.5C88 73.897 73.897 88 56.5 88C39.103 88 25 73.897 25 56.5C25 39.103 39.103 25 56.5 25Z" fill="url(#paint4_radial_6432_424)"/>
<path d="M56.5 25C73.897 25 88 39.103 88 56.5C88 73.897 73.897 88 56.5 88C39.103 88 25 73.897 25 56.5C25 39.103 39.103 25 56.5 25Z" stroke="url(#paint5_linear_6432_424)"/>
<mask id="mask0_6432_424" style="mask-type:alpha" maskUnits="userSpaceOnUse" x="39" y="39" width="35" height="35">
<path d="M41.7273 72.7517C40.9114 72.7517 40.25 72.0903 40.25 71.2744C40.25 70.4586 40.9114 69.7972 41.7273 69.7972C42.5431 69.7972 43.2045 70.4586 43.2045 71.2744C43.2045 72.0903 42.5431 72.7517 41.7273 72.7517Z" fill="black"/>
<path d="M56.5 72.7517C55.6841 72.7517 55.0227 72.0903 55.0227 71.2744C55.0227 70.4586 55.6841 69.7972 56.5 69.7972C57.3159 69.7972 57.9773 70.4586 57.9773 71.2744C57.9773 72.0903 57.3159 72.7517 56.5 72.7517Z" fill="black"/>
<path d="M71.2727 72.7517C70.4569 72.7517 69.7955 72.0903 69.7955 71.2744C69.7955 70.4586 70.4569 69.7972 71.2727 69.7972C72.0886 69.7972 72.75 70.4586 72.75 71.2744C72.75 72.0903 72.0886 72.7517 71.2727 72.7517Z" fill="black"/>
<path d="M41.7273 71.2744V60.9335C41.7273 60.1177 42.3887 59.4563 43.2045 59.4563H69.7955C70.6113 59.4563 71.2727 60.1177 71.2727 60.9335V71.2744M56.5 59.4563V69.7972M56.5 69.7972C55.6841 69.7972 55.0227 70.4586 55.0227 71.2744C55.0227 72.0903 55.6841 72.7517 56.5 72.7517C57.3159 72.7517 57.9773 72.0903 57.9773 71.2744C57.9773 70.4586 57.3159 69.7972 56.5 69.7972ZM41.7273 72.7517C40.9114 72.7517 40.25 72.0903 40.25 71.2744C40.25 70.4586 40.9114 69.7972 41.7273 69.7972C42.5431 69.7972 43.2045 70.4586 43.2045 71.2744C43.2045 72.0903 42.5431 72.7517 41.7273 72.7517ZM71.2727 72.7517C70.4569 72.7517 69.7955 72.0903 69.7955 71.2744C69.7955 70.4586 70.4569 69.7972 71.2727 69.7972C72.0886 69.7972 72.75 70.4586 72.75 71.2744C72.75 72.0903 72.0886 72.7517 71.2727 72.7517ZM51.1818 52.0699H61.8182C62.1445 52.0699 62.4091 51.8053 62.4091 51.479V40.8426C62.4091 40.5163 62.1445 40.2517 61.8182 40.2517H51.1818C50.8555 40.2517 50.5909 40.5163 50.5909 40.8426V51.479C50.5909 51.8053 50.8555 52.0699 51.1818 52.0699Z" stroke="black" stroke-width="2"/>
</mask>
<g mask="url(#mask0_6432_424)">
<rect width="40" height="40" transform="translate(36.5 36.5)" fill="url(#paint6_radial_6432_424)"/>
</g>
<defs>
<radialGradient id="paint0_radial_6432_424" cx="0" cy="0" r="1" gradientUnits="userSpaceOnUse" gradientTransform="translate(56.5 56.5) rotate(90) scale(56 68.1429)">
<stop stop-color="#343A47"/>
<stop offset="1" stop-color="#1A1B1E"/>
</radialGradient>
<radialGradient id="paint1_radial_6432_424" cx="0" cy="0" r="1" gradientUnits="userSpaceOnUse" gradientTransform="translate(56.5 56.5) rotate(90) scale(56 68.1429)">
<stop stop-color="#343A47"/>
<stop offset="1" stop-color="#1A1B1E"/>
</radialGradient>
<radialGradient id="paint2_radial_6432_424" cx="0" cy="0" r="1" gradientUnits="userSpaceOnUse" gradientTransform="translate(56.5 56.5) rotate(90) scale(56 68.1429)">
<stop stop-color="#343A47"/>
<stop offset="1" stop-color="#1A1B1E"/>
</radialGradient>
<radialGradient id="paint3_radial_6432_424" cx="0" cy="0" r="1" gradientUnits="userSpaceOnUse" gradientTransform="translate(56.5 56.5) rotate(90) scale(56 68.1429)">
<stop stop-color="#343A47"/>
<stop offset="1" stop-color="#1A1B1E"/>
</radialGradient>
<radialGradient id="paint4_radial_6432_424" cx="0" cy="0" r="1" gradientUnits="userSpaceOnUse" gradientTransform="translate(56.5 89.5) rotate(-90) scale(53 34.617)">
<stop stop-color="#848892"/>
<stop offset="0.273948" stop-color="#6B6F79"/>
<stop offset="0.457415" stop-color="#484D5B"/>
<stop offset="0.631041" stop-color="#343A47"/>
<stop offset="0.836773" stop-color="#242730"/>
<stop offset="1" stop-color="#1A1B1E"/>
</radialGradient>
<linearGradient id="paint5_linear_6432_424" x1="56.5" y1="24.5" x2="56.5" y2="88.5" gradientUnits="userSpaceOnUse">
<stop stop-color="white" stop-opacity="0.12"/>
<stop offset="1" stop-color="white" stop-opacity="0.01"/>
</linearGradient>
<radialGradient id="paint6_radial_6432_424" cx="0" cy="0" r="1" gradientUnits="userSpaceOnUse" gradientTransform="translate(20 25.5) rotate(-90) scale(21 12.5457)">
<stop stop-color="#E7E8E9"/>
<stop offset="0.379808" stop-color="#CED1D7"/>
<stop offset="1" stop-color="#989EA8"/>
</radialGradient>
</defs>
</svg>
