<svg width="113" height="113" viewBox="0 0 113 113" fill="none" xmlns="http://www.w3.org/2000/svg">
<path d="M94.5 56.5C94.5 77.4868 77.4868 94.5 56.5 94.5C35.5132 94.5 18.5 77.4868 18.5 56.5C18.5 35.5132 35.5132 18.5 56.5 18.5C77.4868 18.5 94.5 35.5132 94.5 56.5Z" stroke="url(#paint0_radial_6432_427)"/>
<path d="M100.5 56.5C100.5 80.8005 80.8005 100.5 56.5 100.5C32.1995 100.5 12.5 80.8005 12.5 56.5C12.5 32.1995 32.1995 12.5 56.5 12.5C80.8005 12.5 100.5 32.1995 100.5 56.5Z" stroke="url(#paint1_radial_6432_427)"/>
<path d="M106.5 56.5C106.5 84.1142 84.1142 106.5 56.5 106.5C28.8858 106.5 6.5 84.1142 6.5 56.5C6.5 28.8858 28.8858 6.5 56.5 6.5C84.1142 6.5 106.5 28.8858 106.5 56.5Z" stroke="url(#paint2_radial_6432_427)"/>
<path d="M112.5 56.5C112.5 87.4279 87.4279 112.5 56.5 112.5C25.5721 112.5 0.5 87.4279 0.5 56.5C0.5 25.5721 25.5721 0.5 56.5 0.5C87.4279 0.5 112.5 25.5721 112.5 56.5Z" stroke="url(#paint3_radial_6432_427)"/>
<path d="M56.5 25C73.897 25 88 39.103 88 56.5C88 73.897 73.897 88 56.5 88C39.103 88 25 73.897 25 56.5C25 39.103 39.103 25 56.5 25Z" fill="url(#paint4_radial_6432_427)"/>
<path d="M56.5 25C73.897 25 88 39.103 88 56.5C88 73.897 73.897 88 56.5 88C39.103 88 25 73.897 25 56.5C25 39.103 39.103 25 56.5 25Z" stroke="url(#paint5_linear_6432_427)"/>
<mask id="mask0_6432_427" style="mask-type:alpha" maskUnits="userSpaceOnUse" x="40" y="40" width="33" height="33">
<path d="M49.625 48.6875C49.625 49.2053 49.2053 49.625 48.6875 49.625C48.1697 49.625 47.75 49.2053 47.75 48.6875C47.75 48.1697 48.1697 47.75 48.6875 47.75C49.2053 47.75 49.625 48.1697 49.625 48.6875Z" fill="black"/>
<path d="M41.5 41.5V40.5C40.9477 40.5 40.5 40.9477 40.5 41.5H41.5ZM55.1357 41.5L55.8429 40.7929C55.6553 40.6054 55.401 40.5 55.1357 40.5V41.5ZM70.3014 56.6657L69.5943 57.3728V57.3728L70.3014 56.6657ZM70.3014 62.45L69.5949 61.7422L69.5943 61.7429L70.3014 62.45ZM56.6657 70.3014L57.3734 69.5949L57.3728 69.5943L56.6657 70.3014ZM41.5 55.1357H40.5C40.5 55.401 40.6054 55.6553 40.7929 55.8429L41.5 55.1357ZM41.5 41.5V42.5H55.1357V41.5V40.5H41.5V41.5ZM55.1357 41.5L54.4286 42.2071L69.5943 57.3728L70.3014 56.6657L71.0085 55.9586L55.8429 40.7929L55.1357 41.5ZM70.3014 56.6657L69.5943 57.3728C70.8022 58.5807 70.8014 60.5379 69.5949 61.7422L70.3014 62.45L71.0079 63.1577C72.9977 61.1713 72.9968 57.9469 71.0085 55.9586L70.3014 56.6657ZM70.3014 62.45L69.5943 61.7429L61.7429 69.5943L62.45 70.3014L63.1571 71.0085L71.0085 63.1571L70.3014 62.45ZM62.45 70.3014L61.7429 69.5943C60.5349 70.8022 58.5778 70.8014 57.3734 69.5949L56.6657 70.3014L55.958 71.0079C57.9443 72.9977 61.1688 72.9968 63.1571 71.0085L62.45 70.3014ZM56.6657 70.3014L57.3728 69.5943L42.2071 54.4286L41.5 55.1357L40.7929 55.8429L55.9586 71.0085L56.6657 70.3014ZM41.5 55.1357H42.5V41.5H41.5H40.5V55.1357H41.5ZM49.625 48.6875H48.625C48.625 48.653 48.653 48.625 48.6875 48.625V49.625V50.625C49.7576 50.625 50.625 49.7576 50.625 48.6875H49.625ZM48.6875 49.625V48.625C48.722 48.625 48.75 48.653 48.75 48.6875H47.75H46.75C46.75 49.7576 47.6174 50.625 48.6875 50.625V49.625ZM47.75 48.6875H48.75C48.75 48.722 48.722 48.75 48.6875 48.75V47.75V46.75C47.6174 46.75 46.75 47.6174 46.75 48.6875H47.75ZM48.6875 47.75V48.75C48.653 48.75 48.625 48.722 48.625 48.6875H49.625H50.625C50.625 47.6174 49.7576 46.75 48.6875 46.75V47.75Z" fill="black"/>
</mask>
<g mask="url(#mask0_6432_427)">
<rect width="40" height="40" transform="translate(36.5 36.5)" fill="url(#paint6_radial_6432_427)"/>
</g>
<defs>
<radialGradient id="paint0_radial_6432_427" cx="0" cy="0" r="1" gradientUnits="userSpaceOnUse" gradientTransform="translate(56.5 56.5) rotate(90) scale(56 68.1429)">
<stop stop-color="#343A47"/>
<stop offset="1" stop-color="#1A1B1E"/>
</radialGradient>
<radialGradient id="paint1_radial_6432_427" cx="0" cy="0" r="1" gradientUnits="userSpaceOnUse" gradientTransform="translate(56.5 56.5) rotate(90) scale(56 68.1429)">
<stop stop-color="#343A47"/>
<stop offset="1" stop-color="#1A1B1E"/>
</radialGradient>
<radialGradient id="paint2_radial_6432_427" cx="0" cy="0" r="1" gradientUnits="userSpaceOnUse" gradientTransform="translate(56.5 56.5) rotate(90) scale(56 68.1429)">
<stop stop-color="#343A47"/>
<stop offset="1" stop-color="#1A1B1E"/>
</radialGradient>
<radialGradient id="paint3_radial_6432_427" cx="0" cy="0" r="1" gradientUnits="userSpaceOnUse" gradientTransform="translate(56.5 56.5) rotate(90) scale(56 68.1429)">
<stop stop-color="#343A47"/>
<stop offset="1" stop-color="#1A1B1E"/>
</radialGradient>
<radialGradient id="paint4_radial_6432_427" cx="0" cy="0" r="1" gradientUnits="userSpaceOnUse" gradientTransform="translate(56.5 89.5) rotate(-90) scale(53 34.617)">
<stop stop-color="#848892"/>
<stop offset="0.273948" stop-color="#6B6F79"/>
<stop offset="0.457415" stop-color="#484D5B"/>
<stop offset="0.631041" stop-color="#343A47"/>
<stop offset="0.836773" stop-color="#242730"/>
<stop offset="1" stop-color="#1A1B1E"/>
</radialGradient>
<linearGradient id="paint5_linear_6432_427" x1="56.5" y1="24.5" x2="56.5" y2="88.5" gradientUnits="userSpaceOnUse">
<stop stop-color="white" stop-opacity="0.12"/>
<stop offset="1" stop-color="white" stop-opacity="0.01"/>
</linearGradient>
<radialGradient id="paint6_radial_6432_427" cx="0" cy="0" r="1" gradientUnits="userSpaceOnUse" gradientTransform="translate(20 25.5) rotate(-90) scale(21 12.5457)">
<stop stop-color="#E7E8E9"/>
<stop offset="0.379808" stop-color="#CED1D7"/>
<stop offset="1" stop-color="#989EA8"/>
</radialGradient>
</defs>
</svg>
