<svg width="113" height="113" viewBox="0 0 113 113" fill="none" xmlns="http://www.w3.org/2000/svg">
<path d="M94.5 56.5C94.5 77.4868 77.4868 94.5 56.5 94.5C35.5132 94.5 18.5 77.4868 18.5 56.5C18.5 35.5132 35.5132 18.5 56.5 18.5C77.4868 18.5 94.5 35.5132 94.5 56.5Z" stroke="url(#paint0_radial_3396_465)"/>
<path d="M100.5 56.5C100.5 80.8005 80.8005 100.5 56.5 100.5C32.1995 100.5 12.5 80.8005 12.5 56.5C12.5 32.1995 32.1995 12.5 56.5 12.5C80.8005 12.5 100.5 32.1995 100.5 56.5Z" stroke="url(#paint1_radial_3396_465)"/>
<path d="M106.5 56.5C106.5 84.1142 84.1142 106.5 56.5 106.5C28.8858 106.5 6.5 84.1142 6.5 56.5C6.5 28.8858 28.8858 6.5 56.5 6.5C84.1142 6.5 106.5 28.8858 106.5 56.5Z" stroke="url(#paint2_radial_3396_465)"/>
<path d="M112.5 56.5C112.5 87.4279 87.4279 112.5 56.5 112.5C25.5721 112.5 0.5 87.4279 0.5 56.5C0.5 25.5721 25.5721 0.5 56.5 0.5C87.4279 0.5 112.5 25.5721 112.5 56.5Z" stroke="url(#paint3_radial_3396_465)"/>
<path d="M56.5 25C73.897 25 88 39.103 88 56.5C88 73.897 73.897 88 56.5 88C39.103 88 25 73.897 25 56.5C25 39.103 39.103 25 56.5 25Z" fill="url(#paint4_radial_3396_465)"/>
<path d="M56.5 25C73.897 25 88 39.103 88 56.5C88 73.897 73.897 88 56.5 88C39.103 88 25 73.897 25 56.5C25 39.103 39.103 25 56.5 25Z" stroke="url(#paint5_linear_3396_465)"/>
<mask id="mask0_3396_465" style="mask-type:alpha" maskUnits="userSpaceOnUse" x="40" y="40" width="33" height="33">
<path d="M67.125 62.75C64.7088 62.75 62.75 64.7088 62.75 67.125C62.75 69.5412 64.7088 71.5 67.125 71.5C69.5412 71.5 71.5 69.5412 71.5 67.125C71.5 64.7088 69.5412 62.75 67.125 62.75ZM67.125 62.75V48.4792C67.125 47.0409 65.9591 45.875 64.5208 45.875L57.75 45.875M60.875 42.125L57.125 45.875L60.875 49.625M45.875 50.25C48.2912 50.25 50.25 48.2912 50.25 45.875C50.25 43.4588 48.2912 41.5 45.875 41.5C43.4588 41.5 41.5 43.4588 41.5 45.875C41.5 48.2912 43.4588 50.25 45.875 50.25ZM45.875 50.25V64.5208C45.875 65.9591 47.0409 67.125 48.4792 67.125H55.25M52.125 70.875L55.875 67.125L52.125 63.375" stroke="black" stroke-width="2" stroke-linecap="round" stroke-linejoin="round"/>
</mask>
<g mask="url(#mask0_3396_465)">
<rect width="40" height="40" transform="translate(36.5 36.5)" fill="url(#paint6_radial_3396_465)"/>
</g>
<defs>
<radialGradient id="paint0_radial_3396_465" cx="0" cy="0" r="1" gradientUnits="userSpaceOnUse" gradientTransform="translate(56.5 56.5) rotate(90) scale(56 68.1429)">
<stop stop-color="#CED1D7"/>
<stop offset="1" stop-color="white"/>
</radialGradient>
<radialGradient id="paint1_radial_3396_465" cx="0" cy="0" r="1" gradientUnits="userSpaceOnUse" gradientTransform="translate(56.5 56.5) rotate(90) scale(56 68.1429)">
<stop stop-color="#CED1D7"/>
<stop offset="1" stop-color="white"/>
</radialGradient>
<radialGradient id="paint2_radial_3396_465" cx="0" cy="0" r="1" gradientUnits="userSpaceOnUse" gradientTransform="translate(56.5 56.5) rotate(90) scale(56 68.1429)">
<stop stop-color="#CED1D7"/>
<stop offset="1" stop-color="white"/>
</radialGradient>
<radialGradient id="paint3_radial_3396_465" cx="0" cy="0" r="1" gradientUnits="userSpaceOnUse" gradientTransform="translate(56.5 56.5) rotate(90) scale(56 68.1429)">
<stop stop-color="#CED1D7"/>
<stop offset="1" stop-color="white"/>
</radialGradient>
<radialGradient id="paint4_radial_3396_465" cx="0" cy="0" r="1" gradientUnits="userSpaceOnUse" gradientTransform="translate(56.5 89.5) rotate(-90) scale(53 34.617)">
<stop stop-color="#FCFCFC"/>
<stop offset="0.273948" stop-color="#FCFCFC"/>
<stop offset="0.457415" stop-color="white"/>
<stop offset="0.631041" stop-color="white"/>
<stop offset="0.836773" stop-color="#FCFCFC"/>
<stop offset="1" stop-color="#F6F6F6"/>
</radialGradient>
<linearGradient id="paint5_linear_3396_465" x1="56.5" y1="24.5" x2="56.5" y2="88.5" gradientUnits="userSpaceOnUse">
<stop stop-color="#0F1013" stop-opacity="0.1"/>
<stop offset="1" stop-color="#0F1013" stop-opacity="0.02"/>
</linearGradient>
<radialGradient id="paint6_radial_3396_465" cx="0" cy="0" r="1" gradientUnits="userSpaceOnUse" gradientTransform="translate(20 25.5) rotate(-90) scale(21 12.5457)">
<stop stop-color="#BEC3CE"/>
<stop offset="0.379808" stop-color="#B5BBC7"/>
<stop offset="1" stop-color="#989EA8"/>
</radialGradient>
</defs>
</svg>
