<svg width="113" height="113" viewBox="0 0 113 113" fill="none" xmlns="http://www.w3.org/2000/svg">
<path d="M94.5 56.5C94.5 77.4868 77.4868 94.5 56.5 94.5C35.5132 94.5 18.5 77.4868 18.5 56.5C18.5 35.5132 35.5132 18.5 56.5 18.5C77.4868 18.5 94.5 35.5132 94.5 56.5Z" stroke="url(#paint0_radial_3396_457)"/>
<path d="M100.5 56.5C100.5 80.8005 80.8005 100.5 56.5 100.5C32.1995 100.5 12.5 80.8005 12.5 56.5C12.5 32.1995 32.1995 12.5 56.5 12.5C80.8005 12.5 100.5 32.1995 100.5 56.5Z" stroke="url(#paint1_radial_3396_457)"/>
<path d="M106.5 56.5C106.5 84.1142 84.1142 106.5 56.5 106.5C28.8858 106.5 6.5 84.1142 6.5 56.5C6.5 28.8858 28.8858 6.5 56.5 6.5C84.1142 6.5 106.5 28.8858 106.5 56.5Z" stroke="url(#paint2_radial_3396_457)"/>
<path d="M112.5 56.5C112.5 87.4279 87.4279 112.5 56.5 112.5C25.5721 112.5 0.5 87.4279 0.5 56.5C0.5 25.5721 25.5721 0.5 56.5 0.5C87.4279 0.5 112.5 25.5721 112.5 56.5Z" stroke="url(#paint3_radial_3396_457)"/>
<path d="M56.5 25C73.897 25 88 39.103 88 56.5C88 73.897 73.897 88 56.5 88C39.103 88 25 73.897 25 56.5C25 39.103 39.103 25 56.5 25Z" fill="url(#paint4_radial_3396_457)"/>
<path d="M56.5 25C73.897 25 88 39.103 88 56.5C88 73.897 73.897 88 56.5 88C39.103 88 25 73.897 25 56.5C25 39.103 39.103 25 56.5 25Z" stroke="url(#paint5_linear_3396_457)"/>
<mask id="mask0_3396_457" style="mask-type:alpha" maskUnits="userSpaceOnUse" x="40" y="42" width="33" height="29">
<path d="M56.5 52.0114V57.984M56.5 63.9715L56.5149 63.9549M68.5092 69.9291H44.4907C42.1942 69.9291 40.7572 67.4451 41.9019 65.4543L53.9112 44.5686C55.0594 42.5716 57.9406 42.5716 59.0888 44.5686L71.0982 65.4543C72.2428 67.4451 70.8058 69.9291 68.5092 69.9291Z" stroke="white" stroke-width="2" stroke-linecap="round"/>
</mask>
<g mask="url(#mask0_3396_457)">
<rect width="40" height="40" transform="translate(36.5 36.5)" fill="url(#paint6_radial_3396_457)"/>
</g>
<defs>
<radialGradient id="paint0_radial_3396_457" cx="0" cy="0" r="1" gradientUnits="userSpaceOnUse" gradientTransform="translate(56.5 56.5) rotate(90) scale(56 68.1429)">
<stop stop-color="#CED1D7"/>
<stop offset="1" stop-color="white"/>
</radialGradient>
<radialGradient id="paint1_radial_3396_457" cx="0" cy="0" r="1" gradientUnits="userSpaceOnUse" gradientTransform="translate(56.5 56.5) rotate(90) scale(56 68.1429)">
<stop stop-color="#CED1D7"/>
<stop offset="1" stop-color="white"/>
</radialGradient>
<radialGradient id="paint2_radial_3396_457" cx="0" cy="0" r="1" gradientUnits="userSpaceOnUse" gradientTransform="translate(56.5 56.5) rotate(90) scale(56 68.1429)">
<stop stop-color="#CED1D7"/>
<stop offset="1" stop-color="white"/>
</radialGradient>
<radialGradient id="paint3_radial_3396_457" cx="0" cy="0" r="1" gradientUnits="userSpaceOnUse" gradientTransform="translate(56.5 56.5) rotate(90) scale(56 68.1429)">
<stop stop-color="#CED1D7"/>
<stop offset="1" stop-color="white"/>
</radialGradient>
<radialGradient id="paint4_radial_3396_457" cx="0" cy="0" r="1" gradientUnits="userSpaceOnUse" gradientTransform="translate(56.5 89.5) rotate(-90) scale(53 34.617)">
<stop stop-color="#FCFCFC"/>
<stop offset="0.273948" stop-color="#FCFCFC"/>
<stop offset="0.457415" stop-color="white"/>
<stop offset="0.631041" stop-color="white"/>
<stop offset="0.836773" stop-color="#FCFCFC"/>
<stop offset="1" stop-color="#F6F6F6"/>
</radialGradient>
<linearGradient id="paint5_linear_3396_457" x1="56.5" y1="24.5" x2="56.5" y2="88.5" gradientUnits="userSpaceOnUse">
<stop stop-color="#0F1013" stop-opacity="0.1"/>
<stop offset="1" stop-color="#0F1013" stop-opacity="0.02"/>
</linearGradient>
<radialGradient id="paint6_radial_3396_457" cx="0" cy="0" r="1" gradientUnits="userSpaceOnUse" gradientTransform="translate(20 25.5) rotate(-90) scale(21 12.5457)">
<stop stop-color="#BEC3CE"/>
<stop offset="0.379808" stop-color="#B5BBC7"/>
<stop offset="1" stop-color="#989EA8"/>
</radialGradient>
</defs>
</svg>
