<svg xmlns="http://www.w3.org/2000/svg" width="114" height="114" fill="none"><path stroke="url(#a)" d="M95 57c0 20.987-17.013 38-38 38S19 77.987 19 57s17.013-38 38-38 38 17.013 38 38Z"/><path stroke="url(#b)" d="M101 57c0 24.3-19.7 44-44 44S13 81.3 13 57s19.7-44 44-44 44 19.7 44 44Z"/><path stroke="url(#c)" d="M107 57c0 27.614-22.386 50-50 50S7 84.614 7 57 29.386 7 57 7s50 22.386 50 50Z"/><path stroke="url(#d)" d="M113 57c0 30.928-25.072 56-56 56S1 87.928 1 57 26.072 1 57 1s56 25.072 56 56Z"/><path fill="url(#e)" d="M57 25.5c17.397 0 31.5 14.103 31.5 31.5S74.397 88.5 57 88.5 25.5 74.397 25.5 57 39.603 25.5 57 25.5Z"/><path stroke="url(#f)" d="M57 25.5c17.397 0 31.5 14.103 31.5 31.5S74.397 88.5 57 88.5 25.5 74.397 25.5 57 39.603 25.5 57 25.5Z"/><mask id="g" width="32" height="24" x="41" y="45" maskUnits="userSpaceOnUse" style="mask-type:alpha"><path stroke="#000" stroke-width="2" d="M42 66.06V47.94c0-.556.45-1.007 1.007-1.007h21.946c.336 0 .65.168.837.449l6.04 9.06c.226.339.226.78 0 1.117l-6.04 9.061c-.187.28-.5.449-.837.449H43.007c-.556 0-1.007-.451-1.007-1.007Z" style="stroke:#000;stroke-opacity:1"/></mask><g mask="url(#g)"><path fill="url(#h)" d="M0 0h40v40H0z" transform="translate(37 37)"/></g><defs><radialGradient id="a" cx="0" cy="0" r="1" gradientTransform="matrix(0 56 -68.1429 0 57 57)" gradientUnits="userSpaceOnUse"><stop stop-color="#CACACE" style="stop-color:#cacace;stop-color:color(display-p3 .7922 .7922 .8078);stop-opacity:1"/><stop offset="1" stop-color="#fff" style="stop-color:white;stop-opacity:1"/></radialGradient><radialGradient id="b" cx="0" cy="0" r="1" gradientTransform="matrix(0 56 -68.1429 0 57 57)" gradientUnits="userSpaceOnUse"><stop stop-color="#CACACE" style="stop-color:#cacace;stop-color:color(display-p3 .7922 .7922 .8078);stop-opacity:1"/><stop offset="1" stop-color="#fff" style="stop-color:white;stop-opacity:1"/></radialGradient><radialGradient id="c" cx="0" cy="0" r="1" gradientTransform="matrix(0 56 -68.1429 0 57 57)" gradientUnits="userSpaceOnUse"><stop stop-color="#CACACE" style="stop-color:#cacace;stop-color:color(display-p3 .7922 .7922 .8078);stop-opacity:1"/><stop offset="1" stop-color="#fff" style="stop-color:white;stop-opacity:1"/></radialGradient><radialGradient id="d" cx="0" cy="0" r="1" gradientTransform="matrix(0 56 -68.1429 0 57 57)" gradientUnits="userSpaceOnUse"><stop stop-color="#CACACE" style="stop-color:#cacace;stop-color:color(display-p3 .7922 .7922 .8078);stop-opacity:1"/><stop offset="1" stop-color="#fff" style="stop-color:white;stop-opacity:1"/></radialGradient><radialGradient id="e" cx="0" cy="0" r="1" gradientTransform="matrix(0 -53 34.617 0 57 90)" gradientUnits="userSpaceOnUse"><stop stop-color="#fff" style="stop-color:white;stop-opacity:1"/><stop offset=".274" stop-color="#fff" style="stop-color:white;stop-opacity:1"/><stop offset=".457" stop-color="#FBFBFB" style="stop-color:#fbfbfb;stop-color:color(display-p3 .9843 .9843 .9843);stop-opacity:1"/><stop offset=".631" stop-color="#FBFBFB" style="stop-color:#fbfbfb;stop-color:color(display-p3 .9843 .9843 .9843);stop-opacity:1"/><stop offset=".837" stop-color="#F6F6F7" style="stop-color:#f6f6f7;stop-color:color(display-p3 .9647 .9647 .9686);stop-opacity:1"/><stop offset="1" stop-color="#E9E9EB" style="stop-color:#e9e9eb;stop-color:color(display-p3 .9137 .9137 .9216);stop-opacity:1"/></radialGradient><radialGradient id="h" cx="0" cy="0" r="1" gradientTransform="matrix(0 -21 12.5457 0 20 25.5)" gradientUnits="userSpaceOnUse"><stop stop-color="#CACACE" style="stop-color:#cacace;stop-color:color(display-p3 .7922 .7922 .8078);stop-opacity:1"/><stop offset=".38" stop-color="#B5B5BB" style="stop-color:#b5b5bb;stop-color:color(display-p3 .7098 .7098 .7333);stop-opacity:1"/><stop offset="1" stop-color="#94949C" style="stop-color:#94949c;stop-color:color(display-p3 .5804 .5804 .6118);stop-opacity:1"/></radialGradient><linearGradient id="f" x1="57" x2="57" y1="25" y2="89" gradientUnits="userSpaceOnUse"><stop stop-color="#0F0F11" stop-opacity=".1" style="stop-color:#0f0f11;stop-color:color(display-p3 .0588 .0588 .0667);stop-opacity:.1"/><stop offset="1" stop-color="#0F0F11" stop-opacity=".02" style="stop-color:#0f0f11;stop-color:color(display-p3 .0588 .0588 .0667);stop-opacity:.02"/></linearGradient></defs></svg>