<svg width="113" height="113" viewBox="0 0 113 113" fill="none" xmlns="http://www.w3.org/2000/svg">
<path d="M94.5 56.5C94.5 77.4868 77.4868 94.5 56.5 94.5C35.5132 94.5 18.5 77.4868 18.5 56.5C18.5 35.5132 35.5132 18.5 56.5 18.5C77.4868 18.5 94.5 35.5132 94.5 56.5Z" stroke="url(#paint0_radial_6432_422)"/>
<path d="M100.5 56.5C100.5 80.8005 80.8005 100.5 56.5 100.5C32.1995 100.5 12.5 80.8005 12.5 56.5C12.5 32.1995 32.1995 12.5 56.5 12.5C80.8005 12.5 100.5 32.1995 100.5 56.5Z" stroke="url(#paint1_radial_6432_422)"/>
<path d="M106.5 56.5C106.5 84.1142 84.1142 106.5 56.5 106.5C28.8858 106.5 6.5 84.1142 6.5 56.5C6.5 28.8858 28.8858 6.5 56.5 6.5C84.1142 6.5 106.5 28.8858 106.5 56.5Z" stroke="url(#paint2_radial_6432_422)"/>
<path d="M112.5 56.5C112.5 87.4279 87.4279 112.5 56.5 112.5C25.5721 112.5 0.5 87.4279 0.5 56.5C0.5 25.5721 25.5721 0.5 56.5 0.5C87.4279 0.5 112.5 25.5721 112.5 56.5Z" stroke="url(#paint3_radial_6432_422)"/>
<path d="M56.5 25C73.897 25 88 39.103 88 56.5C88 73.897 73.897 88 56.5 88C39.103 88 25 73.897 25 56.5C25 39.103 39.103 25 56.5 25Z" fill="url(#paint4_radial_6432_422)"/>
<path d="M56.5 25C73.897 25 88 39.103 88 56.5C88 73.897 73.897 88 56.5 88C39.103 88 25 73.897 25 56.5C25 39.103 39.103 25 56.5 25Z" stroke="url(#paint5_linear_6432_422)"/>
<mask id="mask0_6432_422" style="mask-type:alpha" maskUnits="userSpaceOnUse" x="39" y="40" width="35" height="33">
<path d="M56.5 48.7135C55.7521 48.7135 55.1458 48.1073 55.1458 47.3594C55.1458 46.6115 55.7521 46.0052 56.5 46.0052C57.2479 46.0052 57.8542 46.6115 57.8542 47.3594C57.8542 48.1073 57.2479 48.7135 56.5 48.7135Z" fill="black"/>
<path d="M46.3438 66.9948C45.5959 66.9948 44.9896 66.3885 44.9896 65.6406C44.9896 64.8927 45.5959 64.2865 46.3438 64.2865C47.0916 64.2865 47.6979 64.8927 47.6979 65.6406C47.6979 66.3885 47.0916 66.9948 46.3438 66.9948Z" fill="black"/>
<path d="M66.6563 66.9948C65.9084 66.9948 65.3021 66.3885 65.3021 65.6406C65.3021 64.8927 65.9084 64.2865 66.6563 64.2865C67.4041 64.2865 68.0104 64.8927 68.0104 65.6406C68.0104 66.3885 67.4041 66.9948 66.6563 66.9948Z" fill="black"/>
<path d="M62.5065 48.3725C62.918 45.9355 61.8108 43.3909 59.5449 42.0826C56.632 40.4008 52.9072 41.3989 51.2255 44.3119C49.5437 47.225 50.5417 50.9499 53.4547 52.6317L46.9619 64.4355M62.9211 70.4419C64.8189 71.9153 67.4948 72.1812 69.7039 70.9057C72.6168 69.2238 73.6148 65.4989 71.933 62.5859C70.2513 59.6728 66.5265 58.6747 63.6136 60.3566L57.2036 48.5166M43.924 60.0515C41.7624 60.9868 40.25 63.1387 40.25 65.6438C40.25 69.0076 42.9767 71.7344 46.3403 71.7344C49.7038 71.7344 52.4272 68.994 52.4272 65.6303L65.3021 65.6406M65.3021 65.6406C65.3021 66.3885 65.9084 66.9948 66.6563 66.9948C67.4041 66.9948 68.0104 66.3885 68.0104 65.6406C68.0104 64.8927 67.4041 64.2865 66.6563 64.2865C65.9084 64.2865 65.3021 64.8927 65.3021 65.6406ZM56.5 48.7135C55.7521 48.7135 55.1458 48.1073 55.1458 47.3594C55.1458 46.6115 55.7521 46.0052 56.5 46.0052C57.2479 46.0052 57.8542 46.6115 57.8542 47.3594C57.8542 48.1073 57.2479 48.7135 56.5 48.7135ZM46.3438 66.9948C45.5959 66.9948 44.9896 66.3885 44.9896 65.6406C44.9896 64.8927 45.5959 64.2865 46.3438 64.2865C47.0916 64.2865 47.6979 64.8927 47.6979 65.6406C47.6979 66.3885 47.0916 66.9948 46.3438 66.9948Z" stroke="black" stroke-width="2" stroke-linecap="round" stroke-linejoin="round"/>
</mask>
<g mask="url(#mask0_6432_422)">
<rect width="40" height="40" transform="translate(36.5 36.5)" fill="url(#paint6_radial_6432_422)"/>
</g>
<defs>
<radialGradient id="paint0_radial_6432_422" cx="0" cy="0" r="1" gradientUnits="userSpaceOnUse" gradientTransform="translate(56.5 56.5) rotate(90) scale(56 68.1429)">
<stop stop-color="#343A47"/>
<stop offset="1" stop-color="#1A1B1E"/>
</radialGradient>
<radialGradient id="paint1_radial_6432_422" cx="0" cy="0" r="1" gradientUnits="userSpaceOnUse" gradientTransform="translate(56.5 56.5) rotate(90) scale(56 68.1429)">
<stop stop-color="#343A47"/>
<stop offset="1" stop-color="#1A1B1E"/>
</radialGradient>
<radialGradient id="paint2_radial_6432_422" cx="0" cy="0" r="1" gradientUnits="userSpaceOnUse" gradientTransform="translate(56.5 56.5) rotate(90) scale(56 68.1429)">
<stop stop-color="#343A47"/>
<stop offset="1" stop-color="#1A1B1E"/>
</radialGradient>
<radialGradient id="paint3_radial_6432_422" cx="0" cy="0" r="1" gradientUnits="userSpaceOnUse" gradientTransform="translate(56.5 56.5) rotate(90) scale(56 68.1429)">
<stop stop-color="#343A47"/>
<stop offset="1" stop-color="#1A1B1E"/>
</radialGradient>
<radialGradient id="paint4_radial_6432_422" cx="0" cy="0" r="1" gradientUnits="userSpaceOnUse" gradientTransform="translate(56.5 89.5) rotate(-90) scale(53 34.617)">
<stop stop-color="#848892"/>
<stop offset="0.273948" stop-color="#6B6F79"/>
<stop offset="0.457415" stop-color="#484D5B"/>
<stop offset="0.631041" stop-color="#343A47"/>
<stop offset="0.836773" stop-color="#242730"/>
<stop offset="1" stop-color="#1A1B1E"/>
</radialGradient>
<linearGradient id="paint5_linear_6432_422" x1="56.5" y1="24.5" x2="56.5" y2="88.5" gradientUnits="userSpaceOnUse">
<stop stop-color="white" stop-opacity="0.12"/>
<stop offset="1" stop-color="white" stop-opacity="0.01"/>
</linearGradient>
<radialGradient id="paint6_radial_6432_422" cx="0" cy="0" r="1" gradientUnits="userSpaceOnUse" gradientTransform="translate(20 25.5) rotate(-90) scale(21 12.5457)">
<stop stop-color="#E7E8E9"/>
<stop offset="0.379808" stop-color="#CED1D7"/>
<stop offset="1" stop-color="#989EA8"/>
</radialGradient>
</defs>
</svg>
