<svg width="113" height="113" viewBox="0 0 113 113" fill="none" xmlns="http://www.w3.org/2000/svg">
<path d="M94.5 56.5C94.5 77.4868 77.4868 94.5 56.5 94.5C35.5132 94.5 18.5 77.4868 18.5 56.5C18.5 35.5132 35.5132 18.5 56.5 18.5C77.4868 18.5 94.5 35.5132 94.5 56.5Z" stroke="url(#paint0_radial_3396_144)"/>
<path d="M100.5 56.5C100.5 80.8005 80.8005 100.5 56.5 100.5C32.1995 100.5 12.5 80.8005 12.5 56.5C12.5 32.1995 32.1995 12.5 56.5 12.5C80.8005 12.5 100.5 32.1995 100.5 56.5Z" stroke="url(#paint1_radial_3396_144)"/>
<path d="M106.5 56.5C106.5 84.1142 84.1142 106.5 56.5 106.5C28.8858 106.5 6.5 84.1142 6.5 56.5C6.5 28.8858 28.8858 6.5 56.5 6.5C84.1142 6.5 106.5 28.8858 106.5 56.5Z" stroke="url(#paint2_radial_3396_144)"/>
<path d="M112.5 56.5C112.5 87.4279 87.4279 112.5 56.5 112.5C25.5721 112.5 0.5 87.4279 0.5 56.5C0.5 25.5721 25.5721 0.5 56.5 0.5C87.4279 0.5 112.5 25.5721 112.5 56.5Z" stroke="url(#paint3_radial_3396_144)"/>
<path d="M56.5 25C73.897 25 88 39.103 88 56.5C88 73.897 73.897 88 56.5 88C39.103 88 25 73.897 25 56.5C25 39.103 39.103 25 56.5 25Z" fill="url(#paint4_radial_3396_144)"/>
<path d="M56.5 25C73.897 25 88 39.103 88 56.5C88 73.897 73.897 88 56.5 88C39.103 88 25 73.897 25 56.5C25 39.103 39.103 25 56.5 25Z" stroke="url(#paint5_linear_3396_144)"/>
<mask id="mask0_3396_144" style="mask-type:alpha" maskUnits="userSpaceOnUse" x="41" y="40" width="31" height="33">
<path d="M67.3989 56.5C67.3876 55.578 67.2576 54.6614 67.012 53.7727L70.4998 50.7727L68.4562 47.2273L64.1537 48.7436C62.8252 47.4418 61.1853 46.5028 59.3908 46.0164L58.5434 41.5H54.4562L53.6087 46.0273C51.8142 46.5137 50.1743 47.4527 48.8458 48.7545L44.5434 47.2273L42.4998 50.7727L45.9875 53.7727C45.7419 54.6614 45.6119 55.578 45.6006 56.5C45.6119 57.422 45.7419 58.3386 45.9875 59.2273L42.4998 62.2273L44.5434 65.7727L48.8458 64.2591C50.1743 65.5609 51.8142 66.5 53.6087 66.9864L54.4562 71.5H58.5434L59.3908 66.9727C61.1853 66.4863 62.8252 65.5473 64.1537 64.2455L68.4562 65.7591L70.4998 62.2136L67.012 59.2273C67.2576 58.3386 67.3876 57.422 67.3989 56.5Z" stroke="white" stroke-width="2" stroke-linecap="round" stroke-linejoin="round"/>
<path d="M56.4999 60.9999C58.9852 60.9999 60.9999 58.9852 60.9999 56.4999C60.9999 54.0145 58.9852 51.9999 56.4999 51.9999C54.0145 51.9999 51.9999 54.0145 51.9999 56.4999C51.9999 58.9852 54.0145 60.9999 56.4999 60.9999Z" stroke="white" stroke-width="2" stroke-linecap="round" stroke-linejoin="round"/>
</mask>
<g mask="url(#mask0_3396_144)">
<rect width="40" height="40" transform="translate(36.5 36.5)" fill="url(#paint6_radial_3396_144)"/>
</g>
<defs>
<radialGradient id="paint0_radial_3396_144" cx="0" cy="0" r="1" gradientUnits="userSpaceOnUse" gradientTransform="translate(56.5 56.5) rotate(90) scale(56 68.1429)">
<stop stop-color="#CED1D7"/>
<stop offset="1" stop-color="white"/>
</radialGradient>
<radialGradient id="paint1_radial_3396_144" cx="0" cy="0" r="1" gradientUnits="userSpaceOnUse" gradientTransform="translate(56.5 56.5) rotate(90) scale(56 68.1429)">
<stop stop-color="#CED1D7"/>
<stop offset="1" stop-color="white"/>
</radialGradient>
<radialGradient id="paint2_radial_3396_144" cx="0" cy="0" r="1" gradientUnits="userSpaceOnUse" gradientTransform="translate(56.5 56.5) rotate(90) scale(56 68.1429)">
<stop stop-color="#CED1D7"/>
<stop offset="1" stop-color="white"/>
</radialGradient>
<radialGradient id="paint3_radial_3396_144" cx="0" cy="0" r="1" gradientUnits="userSpaceOnUse" gradientTransform="translate(56.5 56.5) rotate(90) scale(56 68.1429)">
<stop stop-color="#CED1D7"/>
<stop offset="1" stop-color="white"/>
</radialGradient>
<radialGradient id="paint4_radial_3396_144" cx="0" cy="0" r="1" gradientUnits="userSpaceOnUse" gradientTransform="translate(56.5 89.5) rotate(-90) scale(53 34.617)">
<stop stop-color="#FCFCFC"/>
<stop offset="0.273948" stop-color="#FCFCFC"/>
<stop offset="0.457415" stop-color="white"/>
<stop offset="0.631041" stop-color="white"/>
<stop offset="0.836773" stop-color="#FCFCFC"/>
<stop offset="1" stop-color="#F6F6F6"/>
</radialGradient>
<linearGradient id="paint5_linear_3396_144" x1="56.5" y1="24.5" x2="56.5" y2="88.5" gradientUnits="userSpaceOnUse">
<stop stop-color="#0F1013" stop-opacity="0.1"/>
<stop offset="1" stop-color="#0F1013" stop-opacity="0.02"/>
</linearGradient>
<radialGradient id="paint6_radial_3396_144" cx="0" cy="0" r="1" gradientUnits="userSpaceOnUse" gradientTransform="translate(20 25.5) rotate(-90) scale(21 12.5457)">
<stop stop-color="#BEC3CE"/>
<stop offset="0.379808" stop-color="#B5BBC7"/>
<stop offset="1" stop-color="#989EA8"/>
</radialGradient>
</defs>
</svg>
