<svg width="384" height="160" viewBox="0 0 384 160" fill="none" xmlns="http://www.w3.org/2000/svg">
<g clip-path="url(#clip0_5_8133)">
<path d="M0 8C0 3.58172 3.58172 0 8 0L376 0C380.418 0 384 3.58172 384 8V152C384 156.418 380.418 160 376 160H7.99999C3.58171 160 0 156.418 0 152L0 8Z" fill="#131314" style="fill:#131314;fill:color(display-p3 0.0745 0.0745 0.0784);fill-opacity:1;"/>
<path d="M0 8C0 3.58172 3.58172 0 8 0L376 0C380.418 0 384 3.58172 384 8V152C384 156.418 380.418 160 376 160H7.99999C3.58171 160 0 156.418 0 152L0 8Z" fill="url(#paint0_radial_5_8133)" fill-opacity="0.7" style=""/>
<g opacity="0.5">
<path d="M355.542 129.041C333.062 129.041 314.985 111.622 314.985 89.1941C314.985 111.622 296.909 129.041 274.429 129.041C296.909 129.041 314.985 146.801 314.985 168.888C314.985 146.801 333.062 129.041 355.542 129.041Z" fill="url(#paint1_linear_5_8133)" fill-opacity="0.5" style=""/>
<path d="M392.042 77.2401C376.747 77.2401 367.708 68.5876 367.708 53.332C367.708 68.5876 358.67 77.2401 343.375 77.2401C358.67 77.2401 367.708 86.1202 367.708 101.148C367.708 86.1202 376.747 77.2401 392.042 77.2401Z" fill="url(#paint2_linear_5_8133)" fill-opacity="0.5" style=""/>
</g>
<path d="M24.125 8.88756C19.0701 8.88756 16.0831 6.02807 16.0831 0.986328C16.0831 6.02807 13.0961 8.88756 8.04123 8.88756C13.0961 8.88756 16.0831 11.8223 16.0831 16.7888C16.0831 11.8223 19.0701 8.88756 24.125 8.88756Z" fill="url(#paint3_linear_5_8133)" fill-opacity="0.2" style=""/>
<path d="M332.732 45.4305C327.678 45.4305 324.691 42.571 324.691 37.5293C324.691 42.571 321.704 45.4305 316.649 45.4305C321.704 45.4305 324.691 48.3653 324.691 53.3318C324.691 48.3653 327.678 45.4305 332.732 45.4305Z" fill="url(#paint4_linear_5_8133)" fill-opacity="0.05" style=""/>
<path d="M392.042 169.382C377.193 169.382 368.419 160.982 368.419 146.172C368.419 160.982 359.645 169.382 344.796 169.382C359.645 169.382 368.419 178.003 368.419 192.592C368.419 178.003 377.193 169.382 392.042 169.382Z" fill="url(#paint5_linear_5_8133)" fill-opacity="0.1" style=""/>
<g filter="url(#filter0_f_5_8133)">
<path d="M352.352 103.941C311.812 103.941 279.213 72.5279 279.213 32.0808C279.213 72.5279 246.613 103.941 206.073 103.941C246.613 103.941 279.213 135.97 279.213 175.802C279.213 135.97 311.812 103.941 352.352 103.941Z" fill="url(#paint6_linear_5_8133)" fill-opacity="0.06" style=""/>
<path d="M418.178 10.5227C390.594 10.5227 374.294 -5.08125 374.294 -32.5935C374.294 -5.08125 357.994 10.5227 330.41 10.5227C357.994 10.5227 374.294 26.5373 374.294 53.6389C374.294 26.5373 390.594 10.5227 418.178 10.5227Z" fill="url(#paint7_linear_5_8133)" fill-opacity="0.06" style=""/>
</g>
<g opacity="0.2">
<path d="M28.7702 93.5209C45.8701 93.5209 59.6205 106.771 59.6205 123.832C59.6205 106.771 73.371 93.5209 90.4709 93.5209C73.371 93.5209 59.6205 80.0109 59.6205 63.2101C59.6205 80.0109 45.8701 93.5209 28.7702 93.5209Z" fill="#131314" style="fill:#131314;fill:color(display-p3 0.0745 0.0745 0.0784);fill-opacity:1;"/>
<path d="M1.00489 132.925C12.6399 132.925 19.5151 139.507 19.5151 151.111C19.5151 139.507 26.3903 132.925 38.0253 132.925C26.3903 132.925 19.5151 126.17 19.5151 114.738C19.5151 126.17 12.6399 132.925 1.00489 132.925Z" fill="#131314" style="fill:#131314;fill:color(display-p3 0.0745 0.0745 0.0784);fill-opacity:1;"/>
</g>
<g opacity="0.3" filter="url(#filter1_f_5_8133)">
<path d="M104.163 31.2982C121.263 31.2982 135.013 44.5484 135.013 61.609C135.013 44.5484 148.764 31.2982 165.863 31.2982C148.764 31.2982 135.013 17.7883 135.013 0.987444C135.013 17.7883 121.263 31.2982 104.163 31.2982Z" fill="#131314" style="fill:#131314;fill:color(display-p3 0.0745 0.0745 0.0784);fill-opacity:1;"/>
<path d="M76.3975 70.7022C88.0324 70.7022 94.9077 77.284 94.9077 88.8887C94.9077 77.284 101.783 70.7022 113.418 70.7022C101.783 70.7022 94.9077 63.9472 94.9077 52.5158C94.9077 63.9472 88.0324 70.7022 76.3975 70.7022Z" fill="#131314" style="fill:#131314;fill:color(display-p3 0.0745 0.0745 0.0784);fill-opacity:1;"/>
</g>
</g>
<path d="M8 0.5L376 0.5C380.142 0.5 383.5 3.85786 383.5 8V152C383.5 156.142 380.142 159.5 376 159.5H8C3.85787 159.5 0.5 156.142 0.5 152L0.5 8C0.500001 3.85787 3.85787 0.5 8 0.5Z" stroke="url(#paint8_linear_5_8133)" style=""/>
<defs>
<filter id="filter0_f_5_8133" x="200.073" y="-38.5935" width="224.104" height="220.395" filterUnits="userSpaceOnUse" color-interpolation-filters="sRGB">
<feFlood flood-opacity="0" result="BackgroundImageFix"/>
<feBlend mode="normal" in="SourceGraphic" in2="BackgroundImageFix" result="shape"/>
<feGaussianBlur stdDeviation="3" result="effect1_foregroundBlur_5_8133"/>
</filter>
<filter id="filter1_f_5_8133" x="72.3975" y="-3.01245" width="97.4658" height="95.9011" filterUnits="userSpaceOnUse" color-interpolation-filters="sRGB">
<feFlood flood-opacity="0" result="BackgroundImageFix"/>
<feBlend mode="normal" in="SourceGraphic" in2="BackgroundImageFix" result="shape"/>
<feGaussianBlur stdDeviation="2" result="effect1_foregroundBlur_5_8133"/>
</filter>
<radialGradient id="paint0_radial_5_8133" cx="0" cy="0" r="1" gradientTransform="matrix(221.152 134.5 -100.127 104.688 -18.5968 -30.5)" gradientUnits="userSpaceOnUse">
<stop stop-color="#9537AA" style="stop-color:#9537AA;stop-color:color(display-p3 0.5843 0.2157 0.6667);stop-opacity:1;"/>
<stop offset="0.998651" stop-color="#009AE7" stop-opacity="0" style="stop-color:none;stop-opacity:0;"/>
</radialGradient>
<linearGradient id="paint1_linear_5_8133" x1="333.236" y1="53.332" x2="333.236" y2="168.888" gradientUnits="userSpaceOnUse">
<stop stop-color="#B035CC" style="stop-color:#B035CC;stop-color:color(display-p3 0.6902 0.2078 0.8000);stop-opacity:1;"/>
<stop offset="1" stop-color="#62B9FF" style="stop-color:#62B9FF;stop-color:color(display-p3 0.3843 0.7255 1.0000);stop-opacity:1;"/>
</linearGradient>
<linearGradient id="paint2_linear_5_8133" x1="333.236" y1="53.332" x2="333.236" y2="168.888" gradientUnits="userSpaceOnUse">
<stop stop-color="#B035CC" style="stop-color:#B035CC;stop-color:color(display-p3 0.6902 0.2078 0.8000);stop-opacity:1;"/>
<stop offset="1" stop-color="#62B9FF" style="stop-color:#62B9FF;stop-color:color(display-p3 0.3843 0.7255 1.0000);stop-opacity:1;"/>
</linearGradient>
<linearGradient id="paint3_linear_5_8133" x1="4.69045" y1="0.986328" x2="4.69045" y2="39.1756" gradientUnits="userSpaceOnUse">
<stop stop-color="#B035CC" style="stop-color:#B035CC;stop-color:color(display-p3 0.6902 0.2078 0.8000);stop-opacity:1;"/>
<stop offset="1" stop-color="#62B9FF" style="stop-color:#62B9FF;stop-color:color(display-p3 0.3843 0.7255 1.0000);stop-opacity:1;"/>
</linearGradient>
<linearGradient id="paint4_linear_5_8133" x1="313.298" y1="37.5293" x2="313.298" y2="75.7186" gradientUnits="userSpaceOnUse">
<stop stop-color="#B035CC" style="stop-color:#B035CC;stop-color:color(display-p3 0.6902 0.2078 0.8000);stop-opacity:1;"/>
<stop offset="1" stop-color="#62B9FF" style="stop-color:#62B9FF;stop-color:color(display-p3 0.3843 0.7255 1.0000);stop-opacity:1;"/>
</linearGradient>
<linearGradient id="paint5_linear_5_8133" x1="334.953" y1="146.172" x2="334.953" y2="258.353" gradientUnits="userSpaceOnUse">
<stop stop-color="#B035CC" style="stop-color:#B035CC;stop-color:color(display-p3 0.6902 0.2078 0.8000);stop-opacity:1;"/>
<stop offset="1" stop-color="#62B9FF" style="stop-color:#62B9FF;stop-color:color(display-p3 0.3843 0.7255 1.0000);stop-opacity:1;"/>
</linearGradient>
<linearGradient id="paint6_linear_5_8133" x1="312.125" y1="-32.5935" x2="312.125" y2="175.802" gradientUnits="userSpaceOnUse">
<stop stop-color="#B035CC" style="stop-color:#B035CC;stop-color:color(display-p3 0.6902 0.2078 0.8000);stop-opacity:1;"/>
<stop offset="1" stop-color="#62B9FF" style="stop-color:#62B9FF;stop-color:color(display-p3 0.3843 0.7255 1.0000);stop-opacity:1;"/>
</linearGradient>
<linearGradient id="paint7_linear_5_8133" x1="312.125" y1="-32.5935" x2="312.125" y2="175.802" gradientUnits="userSpaceOnUse">
<stop stop-color="#B035CC" style="stop-color:#B035CC;stop-color:color(display-p3 0.6902 0.2078 0.8000);stop-opacity:1;"/>
<stop offset="1" stop-color="#62B9FF" style="stop-color:#62B9FF;stop-color:color(display-p3 0.3843 0.7255 1.0000);stop-opacity:1;"/>
</linearGradient>
<linearGradient id="paint8_linear_5_8133" x1="0" y1="0" x2="120.597" y2="287.075" gradientUnits="userSpaceOnUse">
<stop stop-color="#1C1C1F" style="stop-color:#1C1C1F;stop-color:color(display-p3 0.1098 0.1098 0.1216);stop-opacity:1;"/>
<stop offset="0.490385" stop-color="#292A2F" style="stop-color:#292A2F;stop-color:color(display-p3 0.1608 0.1647 0.1843);stop-opacity:1;"/>
<stop offset="1" stop-color="#05293D" style="stop-color:#05293D;stop-color:color(display-p3 0.0196 0.1608 0.2392);stop-opacity:1;"/>
</linearGradient>
<clipPath id="clip0_5_8133">
<path d="M0 8C0 3.58172 3.58172 0 8 0L376 0C380.418 0 384 3.58172 384 8V152C384 156.418 380.418 160 376 160H7.99999C3.58171 160 0 156.418 0 152L0 8Z" fill="white" style="fill:white;fill-opacity:1;"/>
</clipPath>
</defs>
</svg>
