<svg width="384" height="160" viewBox="0 0 384 160" fill="none" xmlns="http://www.w3.org/2000/svg">
<g clip-path="url(#clip0_4_11175)">
<path d="M0 8C0 3.58172 3.58172 0 8 0L376 0C380.418 0 384 3.58172 384 8V152C384 156.418 380.418 160 376 160H7.99999C3.58171 160 0 156.418 0 152L0 8Z" fill="#FCFCFC" style="fill:#FCFCFC;fill:color(display-p3 0.9882 0.9882 0.9882);fill-opacity:1;"/>
<path d="M0 8C0 3.58172 3.58172 0 8 0L376 0C380.418 0 384 3.58172 384 8V152C384 156.418 380.418 160 376 160H7.99999C3.58171 160 0 156.418 0 152L0 8Z" fill="url(#paint0_radial_4_11175)" fill-opacity="0.3" style=""/>
<g opacity="0.5">
<path d="M355.542 129.043C333.062 129.043 314.985 111.624 314.985 89.196C314.985 111.624 296.909 129.043 274.429 129.043C296.909 129.043 314.985 146.803 314.985 168.89C314.985 146.803 333.062 129.043 355.542 129.043Z" fill="url(#paint1_linear_4_11175)" fill-opacity="0.5" style=""/>
<path d="M392.042 77.242C376.747 77.242 367.708 68.5896 367.708 53.334C367.708 68.5896 358.67 77.242 343.375 77.242C358.67 77.242 367.708 86.1222 367.708 101.15C367.708 86.1222 376.747 77.242 392.042 77.242Z" fill="url(#paint2_linear_4_11175)" fill-opacity="0.5" style=""/>
</g>
<path d="M24.125 8.88951C19.0701 8.88951 16.0831 6.03002 16.0831 0.988281C16.0831 6.03002 13.0961 8.88951 8.04123 8.88951C13.0961 8.88951 16.0831 11.8243 16.0831 16.7908C16.0831 11.8243 19.0701 8.88951 24.125 8.88951Z" fill="url(#paint3_linear_4_11175)" fill-opacity="0.2" style=""/>
<path d="M332.732 45.4325C327.678 45.4325 324.691 42.573 324.691 37.5312C324.691 42.573 321.704 45.4325 316.649 45.4325C321.704 45.4325 324.691 48.3672 324.691 53.3337C324.691 48.3672 327.678 45.4325 332.732 45.4325Z" fill="url(#paint4_linear_4_11175)" fill-opacity="0.05" style=""/>
<path d="M392.042 169.384C377.193 169.384 368.419 160.984 368.419 146.174C368.419 160.984 359.645 169.384 344.796 169.384C359.645 169.384 368.419 178.005 368.419 192.594C368.419 178.005 377.193 169.384 392.042 169.384Z" fill="url(#paint5_linear_4_11175)" fill-opacity="0.1" style=""/>
<g filter="url(#filter0_f_4_11175)">
<path d="M352.352 103.943C311.812 103.943 279.213 72.5296 279.213 32.0825C279.213 72.5296 246.613 103.943 206.073 103.943C246.613 103.943 279.213 135.972 279.213 175.803C279.213 135.972 311.812 103.943 352.352 103.943Z" fill="url(#paint6_linear_4_11175)" fill-opacity="0.06" style=""/>
<path d="M418.178 10.5244C390.594 10.5244 374.294 -5.07954 374.294 -32.5918C374.294 -5.07954 357.994 10.5244 330.41 10.5244C357.994 10.5244 374.294 26.539 374.294 53.6406C374.294 26.539 390.594 10.5244 418.178 10.5244Z" fill="url(#paint7_linear_4_11175)" fill-opacity="0.06" style=""/>
</g>
<g opacity="0.2">
<path d="M28.7702 93.5209C45.8701 93.5209 59.6205 106.771 59.6205 123.832C59.6205 106.771 73.371 93.5209 90.4709 93.5209C73.371 93.5209 59.6205 80.0109 59.6205 63.2101C59.6205 80.0109 45.8701 93.5209 28.7702 93.5209Z" fill="white" style="fill:white;fill-opacity:1;"/>
<path d="M1.00489 132.925C12.6399 132.925 19.5151 139.507 19.5151 151.111C19.5151 139.507 26.3903 132.925 38.0253 132.925C26.3903 132.925 19.5151 126.17 19.5151 114.738C19.5151 126.17 12.6399 132.925 1.00489 132.925Z" fill="white" style="fill:white;fill-opacity:1;"/>
</g>
<g opacity="0.3" filter="url(#filter1_f_4_11175)">
<path d="M104.163 31.2982C121.263 31.2982 135.013 44.5484 135.013 61.609C135.013 44.5484 148.764 31.2982 165.863 31.2982C148.764 31.2982 135.013 17.7883 135.013 0.987444C135.013 17.7883 121.263 31.2982 104.163 31.2982Z" fill="white" style="fill:white;fill-opacity:1;"/>
<path d="M76.3975 70.7022C88.0324 70.7022 94.9077 77.284 94.9077 88.8887C94.9077 77.284 101.783 70.7022 113.418 70.7022C101.783 70.7022 94.9077 63.9472 94.9077 52.5158C94.9077 63.9472 88.0324 70.7022 76.3975 70.7022Z" fill="white" style="fill:white;fill-opacity:1;"/>
</g>
</g>
<path d="M8 0.5L376 0.5C380.142 0.5 383.5 3.85786 383.5 8V152C383.5 156.142 380.142 159.5 376 159.5H8C3.85787 159.5 0.5 156.142 0.5 152L0.5 8C0.500001 3.85787 3.85787 0.5 8 0.5Z" stroke="url(#paint8_linear_4_11175)" style=""/>
<defs>
<filter id="filter0_f_4_11175" x="200.073" y="-38.5918" width="224.104" height="220.395" filterUnits="userSpaceOnUse" color-interpolation-filters="sRGB">
<feFlood flood-opacity="0" result="BackgroundImageFix"/>
<feBlend mode="normal" in="SourceGraphic" in2="BackgroundImageFix" result="shape"/>
<feGaussianBlur stdDeviation="3" result="effect1_foregroundBlur_4_11175"/>
</filter>
<filter id="filter1_f_4_11175" x="72.3975" y="-3.01245" width="97.4658" height="95.9011" filterUnits="userSpaceOnUse" color-interpolation-filters="sRGB">
<feFlood flood-opacity="0" result="BackgroundImageFix"/>
<feBlend mode="normal" in="SourceGraphic" in2="BackgroundImageFix" result="shape"/>
<feGaussianBlur stdDeviation="2" result="effect1_foregroundBlur_4_11175"/>
</filter>
<radialGradient id="paint0_radial_4_11175" cx="0" cy="0" r="1" gradientTransform="matrix(202.555 156 -109.777 92.0199 1.06306e-05 -52)" gradientUnits="userSpaceOnUse">
<stop stop-color="#E56BFF" style="stop-color:#E56BFF;stop-color:color(display-p3 0.8980 0.4196 1.0000);stop-opacity:1;"/>
<stop offset="0.998651" stop-color="#29ADFF" stop-opacity="0.05" style="stop-color:#29ADFF;stop-color:color(display-p3 0.1608 0.6784 1.0000);stop-opacity:0.05;"/>
</radialGradient>
<linearGradient id="paint1_linear_4_11175" x1="333.236" y1="53.334" x2="333.236" y2="168.89" gradientUnits="userSpaceOnUse">
<stop stop-color="#B035CC" style="stop-color:#B035CC;stop-color:color(display-p3 0.6902 0.2078 0.8000);stop-opacity:1;"/>
<stop offset="1" stop-color="#006DEA" style="stop-color:#006DEA;stop-color:color(display-p3 0.0000 0.4275 0.9176);stop-opacity:1;"/>
</linearGradient>
<linearGradient id="paint2_linear_4_11175" x1="333.236" y1="53.334" x2="333.236" y2="168.89" gradientUnits="userSpaceOnUse">
<stop stop-color="#B035CC" style="stop-color:#B035CC;stop-color:color(display-p3 0.6902 0.2078 0.8000);stop-opacity:1;"/>
<stop offset="1" stop-color="#006DEA" style="stop-color:#006DEA;stop-color:color(display-p3 0.0000 0.4275 0.9176);stop-opacity:1;"/>
</linearGradient>
<linearGradient id="paint3_linear_4_11175" x1="4.69045" y1="0.988281" x2="4.69045" y2="39.1776" gradientUnits="userSpaceOnUse">
<stop stop-color="#B035CC" style="stop-color:#B035CC;stop-color:color(display-p3 0.6902 0.2078 0.8000);stop-opacity:1;"/>
<stop offset="1" stop-color="#006DEA" style="stop-color:#006DEA;stop-color:color(display-p3 0.0000 0.4275 0.9176);stop-opacity:1;"/>
</linearGradient>
<linearGradient id="paint4_linear_4_11175" x1="313.298" y1="37.5313" x2="313.298" y2="75.7206" gradientUnits="userSpaceOnUse">
<stop stop-color="#B035CC" style="stop-color:#B035CC;stop-color:color(display-p3 0.6902 0.2078 0.8000);stop-opacity:1;"/>
<stop offset="1" stop-color="#006DEA" style="stop-color:#006DEA;stop-color:color(display-p3 0.0000 0.4275 0.9176);stop-opacity:1;"/>
</linearGradient>
<linearGradient id="paint5_linear_4_11175" x1="334.953" y1="146.174" x2="334.953" y2="258.355" gradientUnits="userSpaceOnUse">
<stop stop-color="#B035CC" style="stop-color:#B035CC;stop-color:color(display-p3 0.6902 0.2078 0.8000);stop-opacity:1;"/>
<stop offset="1" stop-color="#006DEA" style="stop-color:#006DEA;stop-color:color(display-p3 0.0000 0.4275 0.9176);stop-opacity:1;"/>
</linearGradient>
<linearGradient id="paint6_linear_4_11175" x1="312.125" y1="-32.5918" x2="312.125" y2="175.803" gradientUnits="userSpaceOnUse">
<stop stop-color="#B035CC" style="stop-color:#B035CC;stop-color:color(display-p3 0.6902 0.2078 0.8000);stop-opacity:1;"/>
<stop offset="1" stop-color="#006DEA" style="stop-color:#006DEA;stop-color:color(display-p3 0.0000 0.4275 0.9176);stop-opacity:1;"/>
</linearGradient>
<linearGradient id="paint7_linear_4_11175" x1="312.125" y1="-32.5918" x2="312.125" y2="175.803" gradientUnits="userSpaceOnUse">
<stop stop-color="#B035CC" style="stop-color:#B035CC;stop-color:color(display-p3 0.6902 0.2078 0.8000);stop-opacity:1;"/>
<stop offset="1" stop-color="#006DEA" style="stop-color:#006DEA;stop-color:color(display-p3 0.0000 0.4275 0.9176);stop-opacity:1;"/>
</linearGradient>
<linearGradient id="paint8_linear_4_11175" x1="-13.5707" y1="-7.22222" x2="110.638" y2="290.465" gradientUnits="userSpaceOnUse">
<stop stop-color="#F5F5F5" style="stop-color:#F5F5F5;stop-color:color(display-p3 0.9608 0.9608 0.9608);stop-opacity:1;"/>
<stop offset="0.490385" stop-color="#E7E8EA" style="stop-color:#E7E8EA;stop-color:color(display-p3 0.9059 0.9098 0.9176);stop-opacity:1;"/>
<stop offset="1" stop-color="#D3E9FD" style="stop-color:#D3E9FD;stop-color:color(display-p3 0.8290 0.9143 0.9910);stop-opacity:1;"/>
</linearGradient>
<clipPath id="clip0_4_11175">
<path d="M0 8C0 3.58172 3.58172 0 8 0L376 0C380.418 0 384 3.58172 384 8V152C384 156.418 380.418 160 376 160H7.99999C3.58171 160 0 156.418 0 152L0 8Z" fill="white" style="fill:white;fill-opacity:1;"/>
</clipPath>
</defs>
</svg>
