<svg viewBox="0 0 32 32" fill="none" xmlns="http://www.w3.org/2000/svg">
<path d="M0 8C0 3.58172 3.58172 0 8 0H24C28.4183 0 32 3.58172 32 8V24C32 28.4183 28.4183 32 24 32H8C3.58172 32 0 28.4183 0 24V8Z" fill="var(--cn-set-danger-secondary-bg)"/>
<path d="M23 11C23 10.4477 23.4477 10 24 10C24.5523 10 25 10.4477 25 11V21C25 21.5523 24.5523 22 24 22C23.4477 22 23 21.5523 23 21V11Z" fill="var(--cn-set-danger-secondary-text)"/>
<path d="M19 13C19 12.4477 19.4477 12 20 12C20.5523 12 21 12.4477 21 13V21C21 21.5523 20.5523 22 20 22C19.4477 22 19 21.5523 19 21V13Z" fill="var(--cn-set-danger-secondary-text)"/>
<path d="M7 19C7 18.4477 7.44772 18 8 18C8.55228 18 9 18.4477 9 19V21C9 21.5523 8.55228 22 8 22C7.44772 22 7 21.5523 7 21V19Z" fill="var(--cn-set-danger-secondary-text)"/>
<path d="M11 17C11 16.4477 11.4477 16 12 16C12.5523 16 13 16.4477 13 17V21C13 21.5523 12.5523 22 12 22C11.4477 22 11 21.5523 11 21V17Z" fill="var(--cn-set-danger-secondary-text)"/>
<path d="M15 15C15 14.4477 15.4477 14 16 14C16.5523 14 17 14.4477 17 15V21C17 21.5523 16.5523 22 16 22C15.4477 22 15 21.5523 15 21V15Z" fill="var(--cn-set-danger-secondary-text)"/>
</svg>
