<svg width="111" height="159" viewBox="0 0 111 159" fill="none" xmlns="http://www.w3.org/2000/svg">
<g opacity="0.4" filter="url(#filter0_d_10997_43317)">
<path d="M52.1128 79.5673C53.904 79.5673 55.356 78.1153 55.356 76.3241V15.453C55.356 12.1722 51.0423 10.9657 49.3402 13.7704L12.3997 74.6415C11.088 76.8029 12.6441 79.5673 15.1723 79.5673H52.1128Z" fill="#29ADFF" style="fill:#29ADFF;fill:color(display-p3 0.1608 0.6784 1.0000);fill-opacity:1;"/>
</g>
<g opacity="0.2" filter="url(#filter1_d_10997_43317)">
<path d="M58.1492 79.3604C56.358 79.3604 54.9059 80.8124 54.9059 82.6036V143.475C54.9059 146.756 59.2197 147.962 60.9218 145.157L97.8623 84.2862C99.1739 82.1248 97.6179 79.3604 95.0897 79.3604H58.1492Z" fill="#29ADFF" style="fill:#29ADFF;fill:color(display-p3 0.1608 0.6784 1.0000);fill-opacity:1;"/>
</g>
<g opacity="0.2" filter="url(#filter2_d_10997_43317)">
<path d="M52.8187 79.5502C54.1994 79.5502 55.3187 78.431 55.3187 77.0502V25.3797C55.3187 22.8508 51.9935 21.9207 50.6815 24.0827L19.3245 75.7532C18.3135 77.4193 19.5129 79.5502 21.4618 79.5502H52.8187Z" fill="#29ADFF" style="fill:#29ADFF;fill:color(display-p3 0.1608 0.6784 1.0000);fill-opacity:1;"/>
</g>
<g opacity="0.2" filter="url(#filter3_d_10997_43317)">
<path d="M57.4437 79.3785C56.063 79.3785 54.9437 80.4978 54.9437 81.8785V133.549C54.9437 136.078 58.2689 137.008 59.581 134.846L90.9379 83.1755C91.949 81.5094 90.7495 79.3785 88.8007 79.3785H57.4437Z" fill="#29ADFF" style="fill:#29ADFF;fill:color(display-p3 0.1608 0.6784 1.0000);fill-opacity:1;"/>
</g>
<g opacity="0.2" filter="url(#filter4_d_10997_43317)">
<path d="M53.2796 79.5316C54.3842 79.5316 55.2796 78.6362 55.2796 77.5316V37.1438C55.2796 35.1207 52.6195 34.3766 51.5699 36.1062L27.06 76.494C26.2511 77.8268 27.2107 79.5316 28.7698 79.5316H53.2796Z" fill="#29ADFF" style="fill:#29ADFF;fill:color(display-p3 0.1608 0.6784 1.0000);fill-opacity:1;"/>
</g>
<g opacity="0.2" filter="url(#filter5_d_10997_43317)">
<path d="M56.9838 79.3961C55.8792 79.3961 54.9838 80.2916 54.9838 81.3961V121.784C54.9838 123.807 57.644 124.551 58.6936 122.822L83.2035 82.4337C84.0123 81.1009 83.0528 79.3961 81.4937 79.3961H56.9838Z" fill="#29ADFF" style="fill:#29ADFF;fill:color(display-p3 0.1608 0.6784 1.0000);fill-opacity:1;"/>
</g>
<g opacity="0.2" filter="url(#filter6_d_10997_43317)">
<path d="M54.2386 79.513C54.7909 79.513 55.2386 79.0652 55.2386 78.513V47.1203C55.2386 46.1087 53.9085 45.7367 53.3837 46.6014L34.3326 77.9942C33.9282 78.6606 34.4079 79.513 35.1875 79.513H54.2386Z" fill="#29ADFF" style="fill:#29ADFF;fill:color(display-p3 0.1608 0.6784 1.0000);fill-opacity:1;"/>
</g>
<g opacity="0.2" filter="url(#filter7_d_10997_43317)">
<path d="M56.0219 79.4148C55.4696 79.4148 55.0219 79.8625 55.0219 80.4148V111.807C55.0219 112.819 56.352 113.191 56.8768 112.326L75.9279 80.9336C76.3323 80.2672 75.8526 79.4148 75.073 79.4148H56.0219Z" fill="#29ADFF" style="fill:#29ADFF;fill:color(display-p3 0.1608 0.6784 1.0000);fill-opacity:1;"/>
</g>
<path d="M74.1088 71.2625L63.0244 60.1639C61.7117 58.9229 60.1482 57.9778 58.4392 57.3926C54.6522 56.1317 50.8833 57.1159 47.831 60.1639L36.7194 71.2625C35.4785 72.5753 34.5335 74.139 33.9483 75.848C32.683 79.6353 33.6671 83.4044 36.7194 86.4523L47.8174 97.551C49.128 98.7925 50.6902 99.7376 52.3981 100.322C53.4327 100.672 54.517 100.853 55.6091 100.857C58.2714 100.857 60.8202 99.7326 63.0063 97.551L74.0997 86.4523C75.3423 85.14 76.2888 83.5763 76.8753 81.8668C78.1362 78.0796 77.152 74.315 74.0997 71.2625H74.1088Z" fill="#1F1F22" style="fill:#1F1F22;fill:color(display-p3 0.1216 0.1216 0.1333);fill-opacity:1;"/>
<path d="M74.1019 71.2625L63.0176 60.1639C61.7049 58.9229 60.1413 57.9778 58.4323 57.3926C54.6453 56.1317 50.8765 57.1159 47.8242 60.1639L36.7126 71.2625C35.4716 72.5753 34.5267 74.139 33.9415 75.848C32.6761 79.6353 33.6603 83.4044 36.7126 86.4523L47.8106 97.551C49.1211 98.7925 50.6834 99.7376 52.3913 100.322C53.4259 100.672 54.5101 100.853 55.6023 100.857C58.2645 100.857 60.8134 99.7326 62.9994 97.551L74.0929 86.4523C75.3355 85.14 76.282 83.5763 76.8685 81.8668C78.1293 78.0796 77.1452 74.315 74.0929 71.2625H74.1019ZM56.2599 63.3842C57.0983 63.653 57.8709 64.0949 58.5276 64.6814L61.8066 67.9651L55.4118 74.3558L49.017 67.9606L52.3142 64.6587C53.1986 63.7788 54.4458 62.8444 56.269 63.3796L56.2599 63.3842ZM39.9417 77.9979C40.2114 77.1589 40.6549 76.3861 41.2434 75.7301L44.5224 72.4509L50.9173 78.8461L44.5179 85.2413L41.2207 81.9394C40.3363 81.0595 39.4066 79.8122 39.9372 77.9889L39.9417 77.9979ZM54.5546 94.3171C53.7152 94.0507 52.9421 93.6084 52.2869 93.0199L49.017 89.7769L55.4118 83.3772L61.8066 89.7724L58.5094 93.0743C57.625 93.9542 56.3824 94.8886 54.5546 94.3534V94.3171ZM70.8819 79.7351C70.6123 80.5732 70.1705 81.3456 69.5847 82.0029L66.3057 85.2413L59.9109 78.8461L66.3057 72.4509L69.6029 75.7483C70.4873 76.6282 71.417 77.8755 70.8864 79.6988" fill="#009AE7" style="fill:#009AE7;fill:color(display-p3 0.0000 0.6039 0.9059);fill-opacity:1;"/>
<defs>
<filter id="filter0_d_10997_43317" x="0.000144958" y="-0.000388741" width="67.2797" height="91.2111" filterUnits="userSpaceOnUse" color-interpolation-filters="sRGB">
<feFlood flood-opacity="0" result="BackgroundImageFix"/>
<feColorMatrix in="SourceAlpha" type="matrix" values="0 0 0 0 0 0 0 0 0 0 0 0 0 0 0 0 0 0 127 0" result="hardAlpha"/>
<feOffset dy="-0.280563"/>
<feGaussianBlur stdDeviation="5.96196"/>
<feComposite in2="hardAlpha" operator="out"/>
<feColorMatrix type="matrix" values="0 0 0 0 0 0 0 0 0 0.678431 0 0 0 0 0.894118 0 0 0 1 0"/>
<feBlend mode="normal" in2="BackgroundImageFix" result="effect1_dropShadow_10997_43317"/>
<feBlend mode="normal" in="SourceGraphic" in2="effect1_dropShadow_10997_43317" result="shape"/>
</filter>
<filter id="filter1_d_10997_43317" x="42.9821" y="67.1559" width="67.2797" height="91.2111" filterUnits="userSpaceOnUse" color-interpolation-filters="sRGB">
<feFlood flood-opacity="0" result="BackgroundImageFix"/>
<feColorMatrix in="SourceAlpha" type="matrix" values="0 0 0 0 0 0 0 0 0 0 0 0 0 0 0 0 0 0 127 0" result="hardAlpha"/>
<feOffset dy="-0.280563"/>
<feGaussianBlur stdDeviation="5.96196"/>
<feComposite in2="hardAlpha" operator="out"/>
<feColorMatrix type="matrix" values="0 0 0 0 0 0 0 0 0 0.678431 0 0 0 0 0.894118 0 0 0 1 0"/>
<feBlend mode="normal" in2="BackgroundImageFix" result="effect1_dropShadow_10997_43317"/>
<feBlend mode="normal" in="SourceGraphic" in2="effect1_dropShadow_10997_43317" result="shape"/>
</filter>
<filter id="filter2_d_10997_43317" x="7.03384" y="10.6705" width="60.2089" height="80.5227" filterUnits="userSpaceOnUse" color-interpolation-filters="sRGB">
<feFlood flood-opacity="0" result="BackgroundImageFix"/>
<feColorMatrix in="SourceAlpha" type="matrix" values="0 0 0 0 0 0 0 0 0 0 0 0 0 0 0 0 0 0 127 0" result="hardAlpha"/>
<feOffset dy="-0.280563"/>
<feGaussianBlur stdDeviation="5.96196"/>
<feComposite in2="hardAlpha" operator="out"/>
<feColorMatrix type="matrix" values="0 0 0 0 0 0 0 0 0 0.678431 0 0 0 0 0.894118 0 0 0 1 0"/>
<feBlend mode="normal" in2="BackgroundImageFix" result="effect1_dropShadow_10997_43317"/>
<feBlend mode="normal" in="SourceGraphic" in2="effect1_dropShadow_10997_43317" result="shape"/>
</filter>
<filter id="filter3_d_10997_43317" x="43.0197" y="67.1744" width="60.2089" height="80.5227" filterUnits="userSpaceOnUse" color-interpolation-filters="sRGB">
<feFlood flood-opacity="0" result="BackgroundImageFix"/>
<feColorMatrix in="SourceAlpha" type="matrix" values="0 0 0 0 0 0 0 0 0 0 0 0 0 0 0 0 0 0 127 0" result="hardAlpha"/>
<feOffset dy="-0.280563"/>
<feGaussianBlur stdDeviation="5.96196"/>
<feComposite in2="hardAlpha" operator="out"/>
<feColorMatrix type="matrix" values="0 0 0 0 0 0 0 0 0 0.678431 0 0 0 0 0.894118 0 0 0 1 0"/>
<feBlend mode="normal" in2="BackgroundImageFix" result="effect1_dropShadow_10997_43317"/>
<feBlend mode="normal" in="SourceGraphic" in2="effect1_dropShadow_10997_43317" result="shape"/>
</filter>
<filter id="filter4_d_10997_43317" x="14.8427" y="22.9361" width="52.3608" height="68.2385" filterUnits="userSpaceOnUse" color-interpolation-filters="sRGB">
<feFlood flood-opacity="0" result="BackgroundImageFix"/>
<feColorMatrix in="SourceAlpha" type="matrix" values="0 0 0 0 0 0 0 0 0 0 0 0 0 0 0 0 0 0 127 0" result="hardAlpha"/>
<feOffset dy="-0.280563"/>
<feGaussianBlur stdDeviation="5.96196"/>
<feComposite in2="hardAlpha" operator="out"/>
<feColorMatrix type="matrix" values="0 0 0 0 0 0 0 0 0 0.678431 0 0 0 0 0.894118 0 0 0 1 0"/>
<feBlend mode="normal" in2="BackgroundImageFix" result="effect1_dropShadow_10997_43317"/>
<feBlend mode="normal" in="SourceGraphic" in2="effect1_dropShadow_10997_43317" result="shape"/>
</filter>
<filter id="filter5_d_10997_43317" x="43.06" y="67.192" width="52.3608" height="68.2385" filterUnits="userSpaceOnUse" color-interpolation-filters="sRGB">
<feFlood flood-opacity="0" result="BackgroundImageFix"/>
<feColorMatrix in="SourceAlpha" type="matrix" values="0 0 0 0 0 0 0 0 0 0 0 0 0 0 0 0 0 0 127 0" result="hardAlpha"/>
<feOffset dy="-0.280563"/>
<feGaussianBlur stdDeviation="5.96196"/>
<feComposite in2="hardAlpha" operator="out"/>
<feColorMatrix type="matrix" values="0 0 0 0 0 0 0 0 0 0.678431 0 0 0 0 0.894118 0 0 0 1 0"/>
<feBlend mode="normal" in2="BackgroundImageFix" result="effect1_dropShadow_10997_43317"/>
<feBlend mode="normal" in="SourceGraphic" in2="effect1_dropShadow_10997_43317" result="shape"/>
</filter>
<filter id="filter6_d_10997_43317" x="22.2621" y="33.9137" width="44.9003" height="57.2424" filterUnits="userSpaceOnUse" color-interpolation-filters="sRGB">
<feFlood flood-opacity="0" result="BackgroundImageFix"/>
<feColorMatrix in="SourceAlpha" type="matrix" values="0 0 0 0 0 0 0 0 0 0 0 0 0 0 0 0 0 0 127 0" result="hardAlpha"/>
<feOffset dy="-0.280563"/>
<feGaussianBlur stdDeviation="5.96196"/>
<feComposite in2="hardAlpha" operator="out"/>
<feColorMatrix type="matrix" values="0 0 0 0 0 0 0 0 0 0.678431 0 0 0 0 0.894118 0 0 0 1 0"/>
<feBlend mode="normal" in2="BackgroundImageFix" result="effect1_dropShadow_10997_43317"/>
<feBlend mode="normal" in="SourceGraphic" in2="effect1_dropShadow_10997_43317" result="shape"/>
</filter>
<filter id="filter7_d_10997_43317" x="43.098" y="67.2105" width="44.9003" height="57.2424" filterUnits="userSpaceOnUse" color-interpolation-filters="sRGB">
<feFlood flood-opacity="0" result="BackgroundImageFix"/>
<feColorMatrix in="SourceAlpha" type="matrix" values="0 0 0 0 0 0 0 0 0 0 0 0 0 0 0 0 0 0 127 0" result="hardAlpha"/>
<feOffset dy="-0.280563"/>
<feGaussianBlur stdDeviation="5.96196"/>
<feComposite in2="hardAlpha" operator="out"/>
<feColorMatrix type="matrix" values="0 0 0 0 0 0 0 0 0 0.678431 0 0 0 0 0.894118 0 0 0 1 0"/>
<feBlend mode="normal" in2="BackgroundImageFix" result="effect1_dropShadow_10997_43317"/>
<feBlend mode="normal" in="SourceGraphic" in2="effect1_dropShadow_10997_43317" result="shape"/>
</filter>
</defs>
</svg>
