<svg xmlns="http://www.w3.org/2000/svg" viewBox="0 0 100 125" fill="none" x="0px" y="0px"><path fill-rule="evenodd" clip-rule="evenodd" d="M68.5 28.5C80.3741 28.5 90 38.1259 90 50C90 61.8741 80.3741 71.5 68.5 71.5H31.5C19.6259 71.5 10 61.8741 10 50C10 38.1259 19.6259 28.5 31.5 28.5H68.5ZM31.5 64.5C23.4919 64.5 17 58.0081 17 50C17 41.9919 23.4919 35.5 31.5 35.5C39.5081 35.5 46 41.9919 46 50C46 58.0081 39.5081 64.5 31.5 64.5Z" fill="black"/><text x="0" y="115" fill="#000000" font-size="5px" font-weight="bold" font-family="'Helvetica Neue', Helvetica, Arial-Unicode, Arial, Sans-serif"></text><text x="0" y="120" fill="#000000" font-size="5px" font-weight="bold" font-family="'Helvetica Neue', Helvetica, Arial-Unicode, Arial, Sans-serif"></text></svg>