<svg width="18" height="18" viewBox="0 0 18 18" fill="none" xmlns="http://www.w3.org/2000/svg">
    <path
        d="M16.5476 5.83671L12.04 1.33972C11.5062 0.836878 10.8704 0.453979 10.1754 0.216852C8.63535 -0.294044 7.1027 0.104747 5.86146 1.33972L1.34281 5.83671C0.838168 6.36862 0.453893 7.0022 0.215917 7.69469C-0.298655 9.22922 0.101568 10.7564 1.34281 11.9914L5.85592 16.4884C6.38889 16.9914 7.02418 17.3743 7.71871 17.6112C8.13946 17.7529 8.58038 17.8262 9.02451 17.8281C10.1071 17.8281 11.1437 17.3723 12.0326 16.4884L16.5439 11.9914C17.0492 11.4596 17.4341 10.826 17.6726 10.1334C18.1854 8.59886 17.7852 7.07352 16.5439 5.83671H16.5476ZM9.29194 2.64453C9.63288 2.75345 9.94705 2.93251 10.2141 3.17013L11.5476 4.50066L8.94705 7.09006L6.34652 4.49883L7.68736 3.16094C8.04701 2.80441 8.5542 2.42583 9.29563 2.64269L9.29194 2.64453ZM2.65598 8.56578C2.76564 8.22582 2.946 7.91271 3.18531 7.6469L4.51877 6.3182L7.1193 8.90944L4.51693 11.5007L3.17609 10.1628C2.81644 9.80627 2.43835 9.30089 2.65414 8.56211L2.65598 8.56578ZM8.59847 15.178C8.2571 15.0701 7.94273 14.8909 7.67629 14.6524L6.34652 13.3384L8.94705 10.7454L11.5476 13.3366L10.2067 14.6745C9.84709 15.031 9.34174 15.4096 8.59847 15.1927V15.178ZM15.2381 9.26964C15.1285 9.60923 14.9488 9.92222 14.7106 10.1885L13.3772 11.5007L10.7766 8.90944L13.3772 6.3182L14.718 7.65426C15.0777 8.01078 15.4557 8.51616 15.24 9.25494"
        fill="#1CAAD6" />
</svg>