<svg width="82" height="18" viewBox="0 0 82 18" fill="none" xmlns="http://www.w3.org/2000/svg">
    <path
        d="M16.5224 5.83671L12.0217 1.33972C11.4887 0.836878 10.8538 0.453979 10.1599 0.216852C8.62221 -0.294044 7.09189 0.104747 5.85253 1.33972L1.34076 5.83671C0.836888 6.36862 0.453198 7.0022 0.215584 7.69469C-0.298205 9.22922 0.101409 10.7564 1.34076 11.9914L5.84701 16.4884C6.37916 16.9914 7.01348 17.3743 7.70696 17.6112C8.12707 17.7529 8.56731 17.8262 9.01077 17.8281C10.0918 17.8281 11.1267 17.3723 12.0143 16.4884L16.5187 11.9914C17.0233 11.4596 17.4076 10.826 17.6457 10.1334C18.1577 8.59886 17.7581 7.07352 16.5187 5.83671H16.5224ZM9.27779 2.64453C9.61821 2.75345 9.93191 2.93251 10.1986 3.17013L11.53 4.50066L8.93342 7.09006L6.33686 4.49883L7.67565 3.16094C8.03475 2.80441 8.54118 2.42583 9.28148 2.64269L9.27779 2.64453ZM2.65194 8.56578C2.76142 8.22582 2.94152 7.91271 3.18046 7.6469L4.51189 6.3182L7.10846 8.90944L4.51005 11.5007L3.17125 10.1628C2.81215 9.80627 2.43464 9.30089 2.6501 8.56211L2.65194 8.56578ZM8.58537 15.178C8.24453 15.0701 7.93064 14.8909 7.6646 14.6524L6.33686 13.3384L8.93342 10.7454L11.53 13.3366L10.1912 14.6745C9.8321 15.031 9.32751 15.4096 8.58537 15.1927V15.178ZM15.2149 9.26964C15.1055 9.60923 14.9261 9.92222 14.6882 10.1885L13.3568 11.5007L10.7602 8.90944L13.3568 6.3182L14.6956 7.65426C15.0547 8.01078 15.4322 8.51616 15.2168 9.25494"
        fill="#1CAAD6" />
    <path
        d="M26.2401 15.2461H28.5659V8.80471C28.5659 6.8181 27.3561 5.35157 25.2917 5.35157C24.2862 5.35157 23.2089 5.79631 22.6491 6.61411V1.83594H20.3251V15.2405H22.6491V10.1591C22.6491 8.97195 23.2457 7.48704 24.6398 7.48704C25.8681 7.48704 26.2401 8.17252 26.2401 9.28804V15.2461ZM35.6319 11.4364C35.6319 12.8533 34.6172 13.627 33.179 13.627C32.459 13.627 31.8126 13.1676 31.8126 12.4306C31.8126 11.6569 32.4958 11.2342 33.1974 11.1791L35.6319 10.9953V11.4364ZM37.5692 15.3949C37.9662 15.4078 38.3598 15.3193 38.7128 15.1376V13.4432C38.6162 13.4659 38.5174 13.4782 38.4182 13.48C38.0314 13.48 37.8841 13.3146 37.8841 12.8717V9.31929C37.9132 8.66318 37.8188 8.00744 37.606 7.38596C37.0536 5.94884 35.6503 5.43426 34.0095 5.43426C31.8678 5.43426 30.1515 6.39174 30.0226 8.54559H32.2564C32.3116 7.66163 32.9378 7.18381 34.0095 7.18381C35.3189 7.18381 35.6319 7.79027 35.6319 8.69261V9.28253L32.807 9.47917C30.9802 9.60781 29.5604 10.6572 29.5604 12.4802C29.5604 14.046 30.7408 15.4813 33.0298 15.4813C34.3944 15.4813 35.5012 14.8197 35.945 14.046C36.0186 14.7646 36.5711 15.3894 37.5674 15.3894L37.5692 15.3949ZM44.8157 7.71125C44.9388 7.71214 45.0618 7.72012 45.184 7.73514V5.56658C45.0845 5.56658 44.9851 5.54453 44.8875 5.54453C43.7605 5.54453 42.6169 6.00397 42.1749 7.10846L41.9705 5.67318H40.0129V15.2479H42.3388V10.4238C42.3388 8.87639 43.1878 7.71676 44.8101 7.71676L44.8157 7.71125ZM52.0934 15.2516H54.4009V8.85801C54.4009 6.86955 53.2002 5.43426 51.1524 5.43426C50.0475 5.43426 48.902 5.8937 48.3293 6.90447L48.1636 5.67134H46.2318V15.2461H48.5374V11.3445C48.5374 10.534 48.519 9.53982 48.8523 8.7845C49.1654 8.08431 49.7013 7.56974 50.5097 7.56974C51.727 7.56974 52.0953 8.25155 52.0953 9.37442L52.0934 15.2516ZM61.9733 9.50674H57.8261C57.816 8.9669 57.9922 8.44 58.3252 8.01448C58.517 7.77557 58.762 7.58469 59.0408 7.45706C59.3196 7.32943 59.6245 7.26858 59.931 7.27937C60.1989 7.26509 60.4668 7.30675 60.7176 7.40168C60.9684 7.49662 61.1967 7.64274 61.3877 7.8307C61.756 8.23685 61.9604 8.78817 61.9788 9.50674H61.9733ZM64.2844 10.5377C64.3212 9.34134 64.1555 8.25522 63.4539 7.20403C62.662 6.00765 61.3693 5.43794 59.955 5.43794C59.3882 5.42144 58.824 5.52068 58.2971 5.72957C57.7702 5.93846 57.2916 6.25259 56.8906 6.6527C55.9699 7.59179 55.5076 8.95357 55.5076 10.4826C55.5076 12.0484 56.0233 13.3918 56.9809 14.3125C57.3813 14.7003 57.8555 15.0043 58.3754 15.2066C58.8953 15.4089 59.4505 15.5054 60.0084 15.4905C61.2256 15.4905 62.4245 15.1045 63.2366 14.1471C63.6049 13.7042 63.9935 12.9507 64.0487 12.3792H61.8388C61.7613 12.6861 61.6015 12.9663 61.3766 13.1896C61.0451 13.5204 60.64 13.649 59.9752 13.649C59.4423 13.6473 58.9315 13.436 58.5535 13.061C58.3147 12.812 58.1292 12.517 58.0086 12.1941C57.888 11.8711 57.8346 11.527 57.8519 11.1828H64.266C64.266 10.9788 64.2844 10.5377 64.2844 10.5377ZM67.3819 8.34711C67.3874 8.12372 67.4608 7.90727 67.5923 7.72644C67.7239 7.5456 67.9074 7.40892 68.1185 7.33451C68.4364 7.21556 68.776 7.16544 69.1148 7.18749C69.5731 7.17475 70.0198 7.33188 70.3689 7.62855C70.61 7.86798 70.7487 8.19147 70.7556 8.53089H72.9525C72.925 7.79168 72.6223 7.08926 72.1036 6.56081C71.4038 5.80365 70.2418 5.4361 69.0982 5.4361C67.8975 5.4361 66.8883 5.78528 66.183 6.39357C65.8681 6.65599 65.6166 6.98597 65.4473 7.35891C65.278 7.73185 65.1952 8.13812 65.2052 8.54743C65.2052 9.76218 66.091 10.8299 67.4003 11.1074C68.2492 11.2912 69.2087 11.3463 70.0576 11.475C70.6469 11.5669 71.0171 11.9344 71.0171 12.4876C71.0171 13.5369 69.8366 13.7023 69.0614 13.7023C68.3966 13.7023 67.973 13.5737 67.6029 13.2797C67.3478 13.0517 67.1767 12.745 67.1167 12.4086H64.9437C65.0329 13.1638 65.3863 13.8635 65.9418 14.3841C66.7355 15.1395 67.8238 15.4868 69.0429 15.4868C70.3523 15.4868 71.5511 15.156 72.3264 14.3841C72.6018 14.1094 72.818 13.7813 72.9615 13.4201C73.1049 13.0588 73.1727 12.672 73.1606 12.2836C73.1606 10.773 72.0557 9.81548 70.5401 9.57657C69.5991 9.42955 69.3597 9.41117 68.4923 9.30091C67.9767 9.2274 67.3874 9.02341 67.3874 8.34344L67.3819 8.34711ZM79.6079 8.52721H81.7974C81.7699 7.788 81.4672 7.08559 80.9485 6.55714C80.2469 5.80366 79.0849 5.4361 77.9486 5.4361C76.7498 5.4361 75.7388 5.78528 75.0335 6.39357C74.7185 6.65599 74.467 6.98597 74.2977 7.35891C74.1284 7.73185 74.0456 8.13812 74.0556 8.54743C74.0556 9.76218 74.9414 10.8299 76.2507 11.1074C77.0997 11.2912 78.0591 11.3463 78.9081 11.475C79.4974 11.5669 79.8675 11.9344 79.8675 12.4876C79.8675 13.5369 78.6852 13.7023 77.9118 13.7023C77.247 13.7023 76.8234 13.5737 76.4533 13.2797C76.1983 13.0517 76.0271 12.745 75.9671 12.4086H73.7868C73.8758 13.1643 74.2301 13.8641 74.7867 14.3841C75.5786 15.1395 76.6669 15.4868 77.886 15.4868C79.1953 15.4868 80.3942 15.156 81.1695 14.3841C81.4442 14.1091 81.6597 13.7809 81.8025 13.4196C81.9454 13.0584 82.0126 12.6718 82 12.2836C82 10.773 80.8951 9.81548 79.3795 9.57657C78.4385 9.42955 78.1991 9.41117 77.3317 9.30091C76.8161 9.2274 76.2268 9.02341 76.2268 8.34344C76.2323 8.12005 76.3057 7.9036 76.4372 7.72276C76.5688 7.54193 76.7523 7.40525 76.9634 7.33083C77.2813 7.21188 77.6209 7.16177 77.9597 7.18381C78.418 7.17107 78.8647 7.3282 79.2138 7.62487C79.4554 7.86412 79.5947 8.18758 79.6023 8.52721"
        fill="#F9F9F9" />
</svg>