<svg viewBox="0 0 16 16" fill="none" xmlns="http://www.w3.org/2000/svg">
    <path
        d="M13.0752 8.625C12.73 8.625 12.4502 8.34518 12.4502 8C12.4502 7.65482 12.73 7.375 13.0752 7.375C13.4204 7.375 13.7002 7.65482 13.7002 8C13.7002 8.34518 13.4204 8.625 13.0752 8.625Z"
        fill="currentColor" />
    <path
        d="M7.9952 8.625C7.65002 8.625 7.3702 8.34518 7.3702 8C7.3702 7.65482 7.65002 7.375 7.9952 7.375C8.34037 7.375 8.6202 7.65482 8.6202 8C8.6202 8.34518 8.34037 8.625 7.9952 8.625Z"
        fill="currentColor" />
    <path
        d="M2.9252 8.625C2.58002 8.625 2.3002 8.34518 2.3002 8C2.3002 7.65482 2.58002 7.375 2.9252 7.375C3.27037 7.375 3.5502 7.65482 3.5502 8C3.5502 8.34518 3.27037 8.625 2.9252 8.625Z"
        fill="currentColor" />
    <path
        d="M13.0752 8.625C12.73 8.625 12.4502 8.34518 12.4502 8C12.4502 7.65482 12.73 7.375 13.0752 7.375C13.4204 7.375 13.7002 7.65482 13.7002 8C13.7002 8.34518 13.4204 8.625 13.0752 8.625Z"
        stroke="currentColor" stroke-linecap="round" stroke-linejoin="round" />
    <path
        d="M7.9952 8.625C7.65002 8.625 7.3702 8.34518 7.3702 8C7.3702 7.65482 7.65002 7.375 7.9952 7.375C8.34037 7.375 8.6202 7.65482 8.6202 8C8.6202 8.34518 8.34037 8.625 7.9952 8.625Z"
        stroke="currentColor" stroke-linecap="round" stroke-linejoin="round" />
    <path
        d="M2.9252 8.625C2.58002 8.625 2.3002 8.34518 2.3002 8C2.3002 7.65482 2.58002 7.375 2.9252 7.375C3.27037 7.375 3.5502 7.65482 3.5502 8C3.5502 8.34518 3.27037 8.625 2.9252 8.625Z"
        stroke="currentColor" stroke-linecap="round" stroke-linejoin="round" />
</svg>