<svg width="42" height="43" viewBox="0 0 42 43" fill="none" xmlns="http://www.w3.org/2000/svg">
<g filter="url(#filter0_f_26269_86843)">
<circle cx="20" cy="22" r="8" fill="#0C0187" fill-opacity="0.5" style="fill:#0C0187;fill:color(display-p3 0.0471 0.0039 0.5294);fill-opacity:0.5;"/>
</g>
<g opacity="0.8" clip-path="url(#clip0_26269_86843)" filter="url(#filter1_f_26269_86843)">
<path fill-rule="evenodd" clip-rule="evenodd" d="M24.1903 19.9191C24.3222 20.0509 24.501 20.125 24.6875 20.125C24.874 20.125 25.0528 20.0509 25.1847 19.9191C25.3165 19.7872 25.3906 19.6084 25.3906 19.4219C25.3906 19.0489 25.5388 18.6912 25.8025 18.4275C26.0662 18.1638 26.4239 18.0156 26.7969 18.0156C26.9834 18.0156 27.1622 17.9415 27.2941 17.8097C27.4259 17.6778 27.5 17.499 27.5 17.3125C27.5 17.126 27.4259 16.9472 27.2941 16.8153C27.1622 16.6835 26.9834 16.6094 26.7969 16.6094C26.4239 16.6094 26.0662 16.4612 25.8025 16.1975C25.5388 15.9338 25.3906 15.5761 25.3906 15.2031C25.3906 15.0166 25.3165 14.8378 25.1847 14.7059C25.0528 14.5741 24.874 14.5 24.6875 14.5C24.501 14.5 24.3222 14.5741 24.1903 14.7059C24.0585 14.8378 23.9844 15.0166 23.9844 15.2031C23.9844 15.5761 23.8362 15.9338 23.5725 16.1975C23.3088 16.4612 22.9511 16.6094 22.5781 16.6094C22.3916 16.6094 22.2128 16.6835 22.0809 16.8153C21.9491 16.9472 21.875 17.126 21.875 17.3125C21.875 17.499 21.9491 17.6778 22.0809 17.8097C22.2128 17.9415 22.3916 18.0156 22.5781 18.0156C22.9511 18.0156 23.3088 18.1638 23.5725 18.4275C23.8362 18.6912 23.9844 19.0489 23.9844 19.4219C23.9844 19.6084 24.0585 19.7872 24.1903 19.9191ZM17.4621 29.2254C17.6379 29.4012 17.8764 29.5 18.125 29.5C18.3736 29.5 18.6121 29.4012 18.7879 29.2254C18.9637 29.0496 19.0625 28.8111 19.0625 28.5625C19.0625 27.5679 19.4576 26.6141 20.1608 25.9108C20.8641 25.2076 21.8179 24.8125 22.8125 24.8125C23.0611 24.8125 23.2996 24.7137 23.4754 24.5379C23.6512 24.3621 23.75 24.1236 23.75 23.875C23.75 23.6264 23.6512 23.3879 23.4754 23.2121C23.2996 23.0363 23.0611 22.9375 22.8125 22.9375C21.8179 22.9375 20.8641 22.5424 20.1608 21.8392C19.4576 21.1359 19.0625 20.1821 19.0625 19.1875C19.0625 18.9389 18.9637 18.7004 18.7879 18.5246C18.6121 18.3488 18.3736 18.25 18.125 18.25C17.8764 18.25 17.6379 18.3488 17.4621 18.5246C17.2863 18.7004 17.1875 18.9389 17.1875 19.1875C17.1875 20.1821 16.7924 21.1359 16.0892 21.8392C15.3859 22.5424 14.4321 22.9375 13.4375 22.9375C13.1889 22.9375 12.9504 23.0363 12.7746 23.2121C12.5988 23.3879 12.5 23.6264 12.5 23.875C12.5 24.1236 12.5988 24.3621 12.7746 24.5379C12.9504 24.7137 13.1889 24.8125 13.4375 24.8125C14.4321 24.8125 15.3859 25.2076 16.0892 25.9108C16.7924 26.6141 17.1875 27.5679 17.1875 28.5625C17.1875 28.8111 17.2863 29.0496 17.4621 29.2254Z" fill="url(#paint0_radial_26269_86843)" style=""/>
</g>
<g clip-path="url(#clip1_26269_86843)">
<path fill-rule="evenodd" clip-rule="evenodd" d="M24.1903 19.9191C24.3222 20.0509 24.501 20.125 24.6875 20.125C24.874 20.125 25.0528 20.0509 25.1847 19.9191C25.3165 19.7872 25.3906 19.6084 25.3906 19.4219C25.3906 19.0489 25.5388 18.6912 25.8025 18.4275C26.0662 18.1638 26.4239 18.0156 26.7969 18.0156C26.9834 18.0156 27.1622 17.9415 27.2941 17.8097C27.4259 17.6778 27.5 17.499 27.5 17.3125C27.5 17.126 27.4259 16.9472 27.2941 16.8153C27.1622 16.6835 26.9834 16.6094 26.7969 16.6094C26.4239 16.6094 26.0662 16.4612 25.8025 16.1975C25.5388 15.9338 25.3906 15.5761 25.3906 15.2031C25.3906 15.0166 25.3165 14.8378 25.1847 14.7059C25.0528 14.5741 24.874 14.5 24.6875 14.5C24.501 14.5 24.3222 14.5741 24.1903 14.7059C24.0585 14.8378 23.9844 15.0166 23.9844 15.2031C23.9844 15.5761 23.8362 15.9338 23.5725 16.1975C23.3088 16.4612 22.9511 16.6094 22.5781 16.6094C22.3916 16.6094 22.2128 16.6835 22.0809 16.8153C21.9491 16.9472 21.875 17.126 21.875 17.3125C21.875 17.499 21.9491 17.6778 22.0809 17.8097C22.2128 17.9415 22.3916 18.0156 22.5781 18.0156C22.9511 18.0156 23.3088 18.1638 23.5725 18.4275C23.8362 18.6912 23.9844 19.0489 23.9844 19.4219C23.9844 19.6084 24.0585 19.7872 24.1903 19.9191ZM17.4621 29.2254C17.6379 29.4012 17.8764 29.5 18.125 29.5C18.3736 29.5 18.6121 29.4012 18.7879 29.2254C18.9637 29.0496 19.0625 28.8111 19.0625 28.5625C19.0625 27.5679 19.4576 26.6141 20.1608 25.9108C20.8641 25.2076 21.8179 24.8125 22.8125 24.8125C23.0611 24.8125 23.2996 24.7137 23.4754 24.5379C23.6512 24.3621 23.75 24.1236 23.75 23.875C23.75 23.6264 23.6512 23.3879 23.4754 23.2121C23.2996 23.0363 23.0611 22.9375 22.8125 22.9375C21.8179 22.9375 20.8641 22.5424 20.1608 21.8392C19.4576 21.1359 19.0625 20.1821 19.0625 19.1875C19.0625 18.9389 18.9637 18.7004 18.7879 18.5246C18.6121 18.3488 18.3736 18.25 18.125 18.25C17.8764 18.25 17.6379 18.3488 17.4621 18.5246C17.2863 18.7004 17.1875 18.9389 17.1875 19.1875C17.1875 20.1821 16.7924 21.1359 16.0892 21.8392C15.3859 22.5424 14.4321 22.9375 13.4375 22.9375C13.1889 22.9375 12.9504 23.0363 12.7746 23.2121C12.5988 23.3879 12.5 23.6264 12.5 23.875C12.5 24.1236 12.5988 24.3621 12.7746 24.5379C12.9504 24.7137 13.1889 24.8125 13.4375 24.8125C14.4321 24.8125 15.3859 25.2076 16.0892 25.9108C16.7924 26.6141 17.1875 27.5679 17.1875 28.5625C17.1875 28.8111 17.2863 29.0496 17.4621 29.2254Z" fill="url(#paint1_radial_26269_86843)" style=""/>
</g>
<defs>
<filter id="filter0_f_26269_86843" x="-2" y="0" width="44" height="44" filterUnits="userSpaceOnUse" color-interpolation-filters="sRGB">
<feFlood flood-opacity="0" result="BackgroundImageFix"/>
<feBlend mode="normal" in="SourceGraphic" in2="BackgroundImageFix" result="shape"/>
<feGaussianBlur stdDeviation="7" result="effect1_foregroundBlur_26269_86843"/>
</filter>
<filter id="filter1_f_26269_86843" x="6" y="8" width="28" height="28" filterUnits="userSpaceOnUse" color-interpolation-filters="sRGB">
<feFlood flood-opacity="0" result="BackgroundImageFix"/>
<feBlend mode="normal" in="SourceGraphic" in2="BackgroundImageFix" result="shape"/>
<feGaussianBlur stdDeviation="3" result="effect1_foregroundBlur_26269_86843"/>
</filter>
<radialGradient id="paint0_radial_26269_86843" cx="0" cy="0" r="1" gradientUnits="userSpaceOnUse" gradientTransform="translate(28 23) rotate(180) scale(16)">
<stop offset="0.270831" stop-color="#FFC9B2" style="stop-color:#FFC9B2;stop-color:color(display-p3 1.0000 0.7882 0.6980);stop-opacity:1;"/>
<stop offset="0.5776" stop-color="#FFBDFF" style="stop-color:#FFBDFF;stop-color:color(display-p3 1.0000 0.7400 1.0000);stop-opacity:1;"/>
<stop offset="0.772746" stop-color="#8D8DE2" style="stop-color:#8D8DE2;stop-color:color(display-p3 0.5529 0.5529 0.8863);stop-opacity:1;"/>
</radialGradient>
<radialGradient id="paint1_radial_26269_86843" cx="0" cy="0" r="1" gradientUnits="userSpaceOnUse" gradientTransform="translate(28 23) rotate(180) scale(16)">
<stop offset="0.270831" stop-color="#FFC9B2" style="stop-color:#FFC9B2;stop-color:color(display-p3 1.0000 0.7882 0.6980);stop-opacity:1;"/>
<stop offset="0.5776" stop-color="#FFBDFF" style="stop-color:#FFBDFF;stop-color:color(display-p3 1.0000 0.7400 1.0000);stop-opacity:1;"/>
<stop offset="0.772746" stop-color="#8D8DE2" style="stop-color:#8D8DE2;stop-color:color(display-p3 0.5529 0.5529 0.8863);stop-opacity:1;"/>
</radialGradient>
<clipPath id="clip0_26269_86843">
<rect width="16" height="16" fill="white" style="fill:white;fill-opacity:1;" transform="translate(12 14)"/>
</clipPath>
<clipPath id="clip1_26269_86843">
<rect width="16" height="16" fill="white" style="fill:white;fill-opacity:1;" transform="translate(12 14)"/>
</clipPath>
</defs>
</svg>
