<svg width="241" height="131" viewBox="0 0 241 131" fill="none" xmlns="http://www.w3.org/2000/svg">
<rect width="241" height="131" fill="#111114"/>
<mask id="mask0_57_436" style="mask-type:alpha" maskUnits="userSpaceOnUse" x="0" y="0" width="241" height="131">
<rect width="241" height="131" fill="url(#paint0_linear_57_436)"/>
</mask>
<g mask="url(#mask0_57_436)">
<g filter="url(#filter0_d_57_436)">
<rect x="17" y="18" width="207" height="136" rx="6" fill="#18181B"/>
<rect x="17.5" y="18.5" width="206" height="135" rx="5.5" stroke="#212126"/>
</g>
<path d="M76.9588 53V44.2727H80.0696C80.7457 44.2727 81.3068 44.3892 81.7528 44.6222C82.2017 44.8551 82.5369 45.1776 82.7585 45.5895C82.9801 45.9986 83.0909 46.4716 83.0909 47.0085C83.0909 47.5426 82.9787 48.0128 82.7543 48.419C82.5327 48.8224 82.1974 49.1364 81.7486 49.3608C81.3026 49.5852 80.7415 49.6974 80.0653 49.6974H77.7088V48.5639H79.946C80.3722 48.5639 80.7188 48.5028 80.9858 48.3807C81.2557 48.2585 81.4531 48.081 81.5781 47.848C81.7031 47.6151 81.7656 47.3352 81.7656 47.0085C81.7656 46.679 81.7017 46.3935 81.5739 46.152C81.4489 45.9105 81.2514 45.7259 80.9815 45.598C80.7145 45.4673 80.3636 45.402 79.929 45.402H78.2756V53H76.9588ZM81.267 49.0625L83.4233 53H81.9233L79.8097 49.0625H81.267ZM87.0899 53.1321C86.445 53.1321 85.8896 52.9943 85.4237 52.7188C84.9606 52.4403 84.6027 52.0497 84.3498 51.5469C84.0998 51.0412 83.9748 50.4489 83.9748 49.7699C83.9748 49.0994 84.0998 48.5085 84.3498 47.9972C84.6027 47.4858 84.955 47.0866 85.4067 46.7997C85.8612 46.5128 86.3925 46.3693 87.0004 46.3693C87.3697 46.3693 87.7277 46.4304 88.0743 46.5526C88.4209 46.6747 88.7319 46.8665 89.0075 47.1278C89.2831 47.3892 89.5004 47.7287 89.6595 48.1463C89.8186 48.5611 89.8981 49.0653 89.8981 49.6591V50.1108H84.695V49.1562H88.6496C88.6496 48.821 88.5814 48.5241 88.445 48.2656C88.3087 48.0043 88.1169 47.7983 87.8697 47.6477C87.6254 47.4972 87.3385 47.4219 87.0089 47.4219C86.651 47.4219 86.3385 47.5099 86.0714 47.6861C85.8072 47.8594 85.6027 48.0866 85.4578 48.3679C85.3158 48.6463 85.2447 48.9489 85.2447 49.2756V50.0213C85.2447 50.4588 85.3214 50.831 85.4748 51.1378C85.6311 51.4446 85.8484 51.679 86.1268 51.8409C86.4052 52 86.7305 52.0795 87.1027 52.0795C87.3442 52.0795 87.5643 52.0455 87.7632 51.9773C87.9621 51.9062 88.1339 51.8011 88.2788 51.6619C88.4237 51.5227 88.5345 51.3509 88.6112 51.1463L89.8172 51.3636C89.7206 51.7187 89.5473 52.0298 89.2973 52.2969C89.0501 52.5611 88.739 52.767 88.364 52.9148C87.9919 53.0597 87.5672 53.1321 87.0899 53.1321ZM91.0718 55.4545V46.4545H92.3162V47.5156H92.4227C92.4966 47.3793 92.6031 47.2216 92.7423 47.0426C92.8815 46.8636 93.0747 46.7074 93.3218 46.5739C93.569 46.4375 93.8957 46.3693 94.302 46.3693C94.8304 46.3693 95.302 46.5028 95.7167 46.7699C96.1315 47.0369 96.4568 47.4219 96.6926 47.9247C96.9312 48.4276 97.0505 49.0327 97.0505 49.7401C97.0505 50.4474 96.9326 51.054 96.6968 51.5597C96.4611 52.0625 96.1372 52.4503 95.7253 52.723C95.3133 52.9929 94.8432 53.1278 94.3147 53.1278C93.917 53.1278 93.5917 53.0611 93.3389 52.9276C93.0889 52.794 92.8929 52.6378 92.7508 52.4588C92.6088 52.2798 92.4994 52.1207 92.4227 51.9815H92.346V55.4545H91.0718ZM92.3204 49.7273C92.3204 50.1875 92.3872 50.5909 92.5207 50.9375C92.6542 51.2841 92.8474 51.5554 93.1003 51.7514C93.3531 51.9446 93.6628 52.0412 94.0292 52.0412C94.4099 52.0412 94.7281 51.9403 94.9838 51.7386C95.2395 51.5341 95.4326 51.2571 95.5633 50.9077C95.6968 50.5582 95.7636 50.1648 95.7636 49.7273C95.7636 49.2955 95.6983 48.9077 95.5676 48.5639C95.4397 48.2202 95.2466 47.9489 94.988 47.75C94.7324 47.5511 94.4128 47.4517 94.0292 47.4517C93.6599 47.4517 93.3474 47.5469 93.0917 47.7372C92.8389 47.9276 92.6471 48.1932 92.5164 48.5341C92.3858 48.875 92.3204 49.2727 92.3204 49.7273ZM100.995 53.1321C100.382 53.1321 99.8461 52.9915 99.3887 52.7102C98.9313 52.429 98.5762 52.0355 98.3233 51.5298C98.0705 51.0241 97.9441 50.4332 97.9441 49.7571C97.9441 49.0781 98.0705 48.4844 98.3233 47.9759C98.5762 47.4673 98.9313 47.0724 99.3887 46.7912C99.8461 46.5099 100.382 46.3693 100.995 46.3693C101.609 46.3693 102.144 46.5099 102.602 46.7912C103.059 47.0724 103.414 47.4673 103.667 47.9759C103.92 48.4844 104.046 49.0781 104.046 49.7571C104.046 50.4332 103.92 51.0241 103.667 51.5298C103.414 52.0355 103.059 52.429 102.602 52.7102C102.144 52.9915 101.609 53.1321 100.995 53.1321ZM100.999 52.0625C101.397 52.0625 101.727 51.9574 101.988 51.7472C102.249 51.5369 102.443 51.2571 102.568 50.9077C102.695 50.5582 102.759 50.1733 102.759 49.7528C102.759 49.3352 102.695 48.9517 102.568 48.6023C102.443 48.25 102.249 47.9673 101.988 47.7543C101.727 47.5412 101.397 47.4347 100.999 47.4347C100.599 47.4347 100.267 47.5412 100.002 47.7543C99.7409 47.9673 99.5463 48.25 99.4185 48.6023C99.2935 48.9517 99.231 49.3352 99.231 49.7528C99.231 50.1733 99.2935 50.5582 99.4185 50.9077C99.5463 51.2571 99.7409 51.5369 100.002 51.7472C100.267 51.9574 100.599 52.0625 100.999 52.0625ZM110.133 48.0526L108.979 48.2571C108.93 48.1094 108.854 47.9687 108.748 47.8352C108.646 47.7017 108.507 47.5923 108.331 47.5071C108.155 47.4219 107.935 47.3793 107.67 47.3793C107.31 47.3793 107.008 47.4602 106.767 47.6222C106.525 47.7812 106.405 47.9872 106.405 48.2401C106.405 48.4588 106.486 48.6349 106.648 48.7685C106.81 48.902 107.071 49.0114 107.432 49.0966L108.471 49.3352C109.074 49.4744 109.523 49.6889 109.818 49.9787C110.114 50.2685 110.261 50.6449 110.261 51.108C110.261 51.5 110.148 51.8494 109.92 52.1562C109.696 52.4602 109.382 52.6989 108.979 52.8722C108.578 53.0455 108.114 53.1321 107.585 53.1321C106.852 53.1321 106.254 52.9759 105.791 52.6634C105.328 52.348 105.044 51.9006 104.939 51.321L106.17 51.1335C106.247 51.4545 106.405 51.6974 106.643 51.8622C106.882 52.0241 107.193 52.1051 107.577 52.1051C107.994 52.1051 108.328 52.0185 108.578 51.8452C108.828 51.669 108.953 51.4545 108.953 51.2017C108.953 50.9972 108.876 50.8253 108.723 50.6861C108.572 50.5469 108.341 50.4418 108.028 50.3707L106.92 50.1278C106.31 49.9886 105.858 49.767 105.565 49.4631C105.275 49.1591 105.131 48.7741 105.131 48.3082C105.131 47.9219 105.239 47.5838 105.454 47.294C105.67 47.0043 105.969 46.7784 106.349 46.6165C106.73 46.4517 107.166 46.3693 107.658 46.3693C108.365 46.3693 108.922 46.5227 109.328 46.8295C109.734 47.1335 110.003 47.5412 110.133 48.0526ZM111.422 53V46.4545H112.696V53H111.422ZM112.066 45.4446C111.844 45.4446 111.654 45.3707 111.495 45.223C111.338 45.0724 111.26 44.8935 111.26 44.6861C111.26 44.4759 111.338 44.2969 111.495 44.1491C111.654 43.9986 111.844 43.9233 112.066 43.9233C112.287 43.9233 112.476 43.9986 112.632 44.1491C112.791 44.2969 112.871 44.4759 112.871 44.6861C112.871 44.8935 112.791 45.0724 112.632 45.223C112.476 45.3707 112.287 45.4446 112.066 45.4446ZM117.226 46.4545V47.4773H113.651V46.4545H117.226ZM114.609 44.8864H115.884V51.0781C115.884 51.3253 115.92 51.5114 115.994 51.6364C116.068 51.7585 116.163 51.8423 116.28 51.8878C116.399 51.9304 116.528 51.9517 116.668 51.9517C116.77 51.9517 116.859 51.9446 116.936 51.9304C117.013 51.9162 117.072 51.9048 117.115 51.8963L117.345 52.9489C117.271 52.9773 117.166 53.0057 117.03 53.0341C116.893 53.0653 116.723 53.0824 116.518 53.0852C116.183 53.0909 115.871 53.0312 115.581 52.9062C115.291 52.7812 115.057 52.5881 114.878 52.3267C114.699 52.0653 114.609 51.7372 114.609 51.3423V44.8864ZM121.082 53.1321C120.468 53.1321 119.933 52.9915 119.476 52.7102C119.018 52.429 118.663 52.0355 118.41 51.5298C118.157 51.0241 118.031 50.4332 118.031 49.7571C118.031 49.0781 118.157 48.4844 118.41 47.9759C118.663 47.4673 119.018 47.0724 119.476 46.7912C119.933 46.5099 120.468 46.3693 121.082 46.3693C121.696 46.3693 122.231 46.5099 122.689 46.7912C123.146 47.0724 123.501 47.4673 123.754 47.9759C124.007 48.4844 124.133 49.0781 124.133 49.7571C124.133 50.4332 124.007 51.0241 123.754 51.5298C123.501 52.0355 123.146 52.429 122.689 52.7102C122.231 52.9915 121.696 53.1321 121.082 53.1321ZM121.086 52.0625C121.484 52.0625 121.814 51.9574 122.075 51.7472C122.336 51.5369 122.53 51.2571 122.655 50.9077C122.782 50.5582 122.846 50.1733 122.846 49.7528C122.846 49.3352 122.782 48.9517 122.655 48.6023C122.53 48.25 122.336 47.9673 122.075 47.7543C121.814 47.5412 121.484 47.4347 121.086 47.4347C120.686 47.4347 120.353 47.5412 120.089 47.7543C119.828 47.9673 119.633 48.25 119.505 48.6023C119.38 48.9517 119.318 49.3352 119.318 49.7528C119.318 50.1733 119.38 50.5582 119.505 50.9077C119.633 51.2571 119.828 51.5369 120.089 51.7472C120.353 51.9574 120.686 52.0625 121.086 52.0625ZM125.315 53V46.4545H126.547V47.4943H126.615C126.734 47.142 126.945 46.8651 127.246 46.6634C127.55 46.4588 127.894 46.3565 128.277 46.3565C128.357 46.3565 128.45 46.3594 128.558 46.3651C128.669 46.3707 128.756 46.3778 128.818 46.3864V47.6051C128.767 47.5909 128.676 47.5753 128.546 47.5582C128.415 47.5384 128.284 47.5284 128.154 47.5284C127.852 47.5284 127.584 47.5923 127.348 47.7202C127.115 47.8452 126.93 48.0199 126.794 48.2443C126.658 48.4659 126.59 48.7187 126.59 49.0028V53H125.315ZM129.681 53V46.4545H130.955V53H129.681ZM130.324 45.4446C130.103 45.4446 129.912 45.3707 129.753 45.223C129.597 45.0724 129.519 44.8935 129.519 44.6861C129.519 44.4759 129.597 44.2969 129.753 44.1491C129.912 43.9986 130.103 43.9233 130.324 43.9233C130.546 43.9233 130.735 43.9986 130.891 44.1491C131.05 44.2969 131.13 44.4759 131.13 44.6861C131.13 44.8935 131.05 45.0724 130.891 45.223C130.735 45.3707 130.546 45.4446 130.324 45.4446ZM135.25 53.1321C134.605 53.1321 134.05 52.9943 133.584 52.7188C133.121 52.4403 132.763 52.0497 132.51 51.5469C132.26 51.0412 132.135 50.4489 132.135 49.7699C132.135 49.0994 132.26 48.5085 132.51 47.9972C132.763 47.4858 133.115 47.0866 133.567 46.7997C134.022 46.5128 134.553 46.3693 135.161 46.3693C135.53 46.3693 135.888 46.4304 136.235 46.5526C136.581 46.6747 136.892 46.8665 137.168 47.1278C137.443 47.3892 137.661 47.7287 137.82 48.1463C137.979 48.5611 138.058 49.0653 138.058 49.6591V50.1108H132.855V49.1562H136.81C136.81 48.821 136.742 48.5241 136.605 48.2656C136.469 48.0043 136.277 47.7983 136.03 47.6477C135.786 47.4972 135.499 47.4219 135.169 47.4219C134.811 47.4219 134.499 47.5099 134.232 47.6861C133.968 47.8594 133.763 48.0866 133.618 48.3679C133.476 48.6463 133.405 48.9489 133.405 49.2756V50.0213C133.405 50.4588 133.482 50.831 133.635 51.1378C133.791 51.4446 134.009 51.679 134.287 51.8409C134.566 52 134.891 52.0795 135.263 52.0795C135.504 52.0795 135.725 52.0455 135.924 51.9773C136.122 51.9062 136.294 51.8011 136.439 51.6619C136.584 51.5227 136.695 51.3509 136.772 51.1463L137.977 51.3636C137.881 51.7187 137.708 52.0298 137.458 52.2969C137.21 52.5611 136.899 52.767 136.524 52.9148C136.152 53.0597 135.727 53.1321 135.25 53.1321ZM144.137 48.0526L142.982 48.2571C142.934 48.1094 142.857 47.9687 142.752 47.8352C142.65 47.7017 142.511 47.5923 142.334 47.5071C142.158 47.4219 141.938 47.3793 141.674 47.3793C141.313 47.3793 141.012 47.4602 140.771 47.6222C140.529 47.7812 140.408 47.9872 140.408 48.2401C140.408 48.4588 140.489 48.6349 140.651 48.7685C140.813 48.902 141.074 49.0114 141.435 49.0966L142.475 49.3352C143.077 49.4744 143.526 49.6889 143.822 49.9787C144.117 50.2685 144.265 50.6449 144.265 51.108C144.265 51.5 144.151 51.8494 143.924 52.1562C143.699 52.4602 143.386 52.6989 142.982 52.8722C142.582 53.0455 142.117 53.1321 141.589 53.1321C140.856 53.1321 140.258 52.9759 139.795 52.6634C139.332 52.348 139.048 51.9006 138.942 51.321L140.174 51.1335C140.251 51.4545 140.408 51.6974 140.647 51.8622C140.886 52.0241 141.197 52.1051 141.58 52.1051C141.998 52.1051 142.332 52.0185 142.582 51.8452C142.832 51.669 142.957 51.4545 142.957 51.2017C142.957 50.9972 142.88 50.8253 142.726 50.6861C142.576 50.5469 142.344 50.4418 142.032 50.3707L140.924 50.1278C140.313 49.9886 139.861 49.767 139.569 49.4631C139.279 49.1591 139.134 48.7741 139.134 48.3082C139.134 47.9219 139.242 47.5838 139.458 47.294C139.674 47.0043 139.972 46.7784 140.353 46.6165C140.734 46.4517 141.17 46.3693 141.661 46.3693C142.369 46.3693 142.925 46.5227 143.332 46.8295C143.738 47.1335 144.006 47.5412 144.137 48.0526Z" fill="#C9C9CF"/>
<path d="M23 49C23 47.8954 23.8954 47 25 47H59C60.1046 47 61 47.8954 61 49V49C61 50.1046 60.1046 51 59 51H25C23.8954 51 23 50.1046 23 49V49Z" fill="#242429"/>
<path d="M73 25C73 23.8954 73.8954 23 75 23H100C101.105 23 102 23.8954 102 25V25C102 26.1046 101.105 27 100 27H75C73.8954 27 73 26.1046 73 25V25Z" fill="#242429"/>
<path d="M107 25C107 23.8954 107.895 23 109 23H134C135.105 23 136 23.8954 136 25V25C136 26.1046 135.105 27 134 27H109C107.895 27 107 26.1046 107 25V25Z" fill="#242429"/>
<path d="M76 66C76 64.8954 76.8954 64 78 64H155C156.105 64 157 64.8954 157 66V66C157 67.1046 156.105 68 155 68H78C76.8954 68 76 67.1046 76 66V66Z" fill="#303036"/>
<rect opacity="0.8" x="76" y="76" width="138" height="69" rx="4" fill="#242429"/>
<rect x="23" y="27" width="38" height="6" rx="3" fill="#484851"/>
<path d="M23 59C23 57.8954 23.8954 57 25 57H59C60.1046 57 61 57.8954 61 59V59C61 60.1046 60.1046 61 59 61H25C23.8954 61 23 60.1046 23 59V59Z" fill="#242429"/>
<path d="M23 69C23 67.8954 23.8954 67 25 67H59C60.1046 67 61 67.8954 61 69V69C61 70.1046 60.1046 71 59 71H25C23.8954 71 23 70.1046 23 69V69Z" fill="#242429"/>
<path d="M23 79C23 77.8954 23.8954 77 25 77H59C60.1046 77 61 77.8954 61 79V79C61 80.1046 60.1046 81 59 81H25C23.8954 81 23 80.1046 23 79V79Z" fill="#242429"/>
<path d="M23 89C23 87.8954 23.8954 87 25 87H59C60.1046 87 61 87.8954 61 89V89C61 90.1046 60.1046 91 59 91H25C23.8954 91 23 90.1046 23 89V89Z" fill="#242429"/>
<path d="M67 19V130" stroke="#212126"/>
<path d="M224 32L67 32" stroke="#212126"/>
</g>
<defs>
<filter id="filter0_d_57_436" x="-3" y="-6" width="247" height="176" filterUnits="userSpaceOnUse" color-interpolation-filters="sRGB">
<feFlood flood-opacity="0" result="BackgroundImageFix"/>
<feColorMatrix in="SourceAlpha" type="matrix" values="0 0 0 0 0 0 0 0 0 0 0 0 0 0 0 0 0 0 127 0" result="hardAlpha"/>
<feOffset dy="-4"/>
<feGaussianBlur stdDeviation="10"/>
<feComposite in2="hardAlpha" operator="out"/>
<feColorMatrix type="matrix" values="0 0 0 0 0 0 0 0 0 0 0 0 0 0 0 0 0 0 0.25 0"/>
<feBlend mode="normal" in2="BackgroundImageFix" result="effect1_dropShadow_57_436"/>
<feBlend mode="normal" in="SourceGraphic" in2="effect1_dropShadow_57_436" result="shape"/>
</filter>
<linearGradient id="paint0_linear_57_436" x1="120.5" y1="0" x2="120.5" y2="131" gradientUnits="userSpaceOnUse">
<stop offset="0.7" stop-color="#161619"/>
<stop offset="1" stop-color="#161619" stop-opacity="0.3"/>
</linearGradient>
</defs>
</svg>
