<svg xmlns="http://www.w3.org/2000/svg" fill="none" viewBox="0 0 18 18"><rect width="100%" height="100%" rx="2px" ry="2px" fill="#0052CC"/><g transform="translate(9, 9) scale(0.5625) translate(-9, -9)"><g clip-path="url(#a)"><path fill="#fff" d="M1.067 13.46c-.177.272-.378.624-.544.887a.545.545 0 0 0 .182.742l3.539 2.176a.543.543 0 0 0 .754-.185c.142-.237.324-.544.523-.87 1.402-2.315 2.811-2.034 5.351-.817l3.533 1.666a.543.543 0 0 0 .733-.273l1.685-3.81a.545.545 0 0 0-.272-.713 429 429 0 0 1-3.54-1.683c-4.787-2.314-8.84-2.16-11.944 2.88m15.867-8.92c.178-.288.379-.623.545-.89a.544.544 0 0 0-.183-.738L13.758.735a.545.545 0 0 0-.754.185c-.139.239-.322.544-.523.873-1.402 2.314-2.812 2.032-5.352.817L3.61.941a.545.545 0 0 0-.731.273l-1.685 3.81a.545.545 0 0 0 .272.713c.74.35 2.213 1.046 3.539 1.683 4.774 2.313 8.833 2.159 11.93-2.88"/></g><defs><clipPath id="a"><path fill="#fff" d="M0 0h18v18H0z"/></clipPath></defs></g></svg>