<svg xmlns="http://www.w3.org/2000/svg" fill="none" viewBox="0 0 18 18"><rect width="100%" height="100%" rx="2px" ry="2px" fill="#DE4C36"/><g transform="translate(9, 9) scale(0.5625) translate(-9, -9)"><path fill="#fff" d="m16.713 8.3-7-6.865a1.047 1.047 0 0 0-1.46 0L6.802 2.861l1.843 1.808c.429-.142.92-.047 1.261.288.344.337.44.823.292 1.245l1.777 1.743c.43-.146.925-.052 1.269.286.48.47.48 1.233 0 1.704s-1.258.47-1.738 0a1.19 1.19 0 0 1-.267-1.31L9.58 6.998v4.277q.177.085.324.228c.48.47.48 1.233 0 1.704s-1.257.47-1.737 0a1.19 1.19 0 0 1 0-1.704c.119-.116.256-.204.402-.263V6.924a1.2 1.2 0 0 1-.402-.263 1.19 1.19 0 0 1-.264-1.317L6.086 3.56 1.287 8.268a1 1 0 0 0 0 1.432l7 6.865a1.047 1.047 0 0 0 1.46 0l6.966-6.833a1 1 0 0 0 0-1.432"/></g></svg>