<svg xmlns="http://www.w3.org/2000/svg" fill="none" viewBox="0 0 18 18"><rect width="100%" height="100%" rx="2px" ry="2px" fill="#FC6D26"/><g transform="translate(9, 9) scale(0.5625) translate(-9, -9)"><path fill="#fff" d="m16.737 7.395-.023-.058-2.178-5.685a.57.57 0 0 0-.563-.357.6.6 0 0 0-.328.123.6.6 0 0 0-.194.293l-1.47 4.5H6.023l-1.47-4.5a.572.572 0 0 0-1.085-.06L1.286 7.334l-.021.058a4.045 4.045 0 0 0 1.341 4.675l.008.006.02.014 3.318 2.485 1.642 1.243 1 .755a.67.67 0 0 0 .814 0l1-.755 1.642-1.243 3.338-2.5.009-.007a4.05 4.05 0 0 0 1.34-4.67"/></g></svg>