<svg xmlns="http://www.w3.org/2000/svg" fill="none" viewBox="0 0 18 18"><rect width="100%" height="100%" rx="2px" ry="2px" fill="#4285F4"/><g transform="translate(9, 9) scale(0.5625) translate(-9, -9)"><path fill="#fff" d="M9.34 7.735v2.323h5.553c-.17 1.304-.604 2.258-1.266 2.928-.812.812-2.077 1.7-4.287 1.7-3.42 0-6.092-2.758-6.092-6.177S5.921 2.333 9.34 2.333c1.842 0 3.193.727 4.184 1.662l1.634-1.634C13.78 1.02 11.928 0 9.34 0 4.656 0 .717 3.816.717 8.5S4.656 17 9.34 17c2.53 0 4.44-.83 5.93-2.38 1.53-1.53 2.012-3.692 2.012-5.43a7.5 7.5 0 0 0-.122-1.455z"/></g></svg>