<svg xmlns="http://www.w3.org/2000/svg" fill="none" viewBox="0 0 18 18"><rect width="100%" height="100%" rx="2px" ry="2px" fill="#5158BE"/><g transform="translate(9, 9) scale(0.5625) translate(-9, -9)"><path fill="#fff" fill-rule="evenodd" d="M8.5 4.934c.38 0 .687.304.687.678v6.776a.683.683 0 0 1-.687.678H5.54a4.5 4.5 0 0 0 .227.739h3.484a.7.7 0 0 0 .26-.052.68.68 0 0 0 .427-.625V7.152h6.413c.394 0 .713.314.713.702v3.74c0 1.425-1.173 2.58-2.62 2.58h-.012c-.398 0-.774-.09-1.111-.246a4.23 4.23 0 0 1-3.758 2.464c-2.008-.048-3.653-1.467-4.04-3.326h-3.9a.683.683 0 0 1-.687-.678V5.612c0-.374.308-.678.687-.678zm-5.248 2.58H4.62v3.689h.877v-3.69H6.87v-.716h-3.62z" clip-rule="evenodd"/><path fill="#fff" d="M15.001 3.087c.932 0 1.688.744 1.688 1.663 0 .918-.756 1.662-1.688 1.662a1.675 1.675 0 0 1-1.687-1.662c0-.919.755-1.663 1.687-1.663M9.75 1.608c1.347 0 2.438 1.076 2.438 2.402 0 1.265-.992 2.298-2.25 2.393V5.24a.684.684 0 0 0-.687-.676h-1.87a2.4 2.4 0 0 1-.069-.555c0-1.326 1.092-2.402 2.439-2.402"/></g></svg>