<svg xmlns="http://www.w3.org/2000/svg" fill="none" viewBox="0 0 18 18"><rect width="100%" height="100%" rx="2px" ry="2px" fill="#FFDA18"/><g transform="translate(9, 9) scale(0.5625) translate(-9, -9)"><path fill="#0F0F11" d="m7.763 16.665-.023-.011-5.72-3.145a1.15 1.15 0 0 1-.595-1.006V5.497c0-.418.228-.804.595-1.006L8.447.958a1.15 1.15 0 0 1 1.106 0l5.667 3.115.015.009.004.001h-.002l.743.408c.367.202.595.588.595 1.006v7.006c0 .419-.228.804-.595 1.006l-5.72 3.145-.02.01-.687.378a1.15 1.15 0 0 1-1.106 0zm.406-.783.009.004a.265.265 0 0 0 .38-.23V9.416a.27.27 0 0 0-.137-.232l-5.72-3.144a.265.265 0 0 0-.393.232v6.23c0 .096.052.186.137.232zM6.82 12.385l-.003.002-1.336-.703-.002-.003v-.007c.016-.208.105-.358.237-.431s.307-.069.49.028c.186.097.347.27.458.471s.172.428.156.638zm-2.11-1.218-.003.001-1.337-.703-.001-.003v-.007c.016-.207.104-.357.237-.43.132-.074.306-.07.49.028.185.097.347.27.458.47.11.201.172.429.156.638zM14.927 5.03l-.002-.013a.26.26 0 0 0-.13-.17L9.128 1.732a.27.27 0 0 0-.256 0L3.205 4.847a.265.265 0 0 0-.007.46l5.674 3.119c.08.043.176.043.256 0l5.674-3.119a.26.26 0 0 0 .125-.277M3.08 5.14l-.004-.004-.002-.002zM2.76 4.076l-.002.002.004.004zm.005.005h-.003z"/></g></svg>