<svg xmlns="http://www.w3.org/2000/svg" fill="none" viewBox="0 0 18 18"><rect width="100%" height="100%" rx="2px" ry="2px" fill="#06AC38"/><g transform="translate(9, 9) scale(0.5625) translate(-9, -9)"><path fill="#fff" d="M12.502 1.37C11.176.652 10.248.536 8.072.536H3.167v10.261h4.884c1.935 0 3.385-.115 4.662-.966 1.393-.919 2.118-2.457 2.118-4.236 0-1.916-.89-3.452-2.33-4.227m-3.88 7.282H5.655v-5.92l2.804-.018c2.553-.02 3.83.87 3.83 2.91 0 2.196-1.586 3.028-3.665 3.028m-5.454 4.304h2.486v4.507H3.168z"/></g></svg>