<svg xmlns="http://www.w3.org/2000/svg" fill="none" viewBox="0 0 18 18"><rect width="100%" height="100%" rx="2px" ry="2px" fill="#0075A8"/><g transform="translate(9, 9) scale(0.5625) translate(-9, -9)"><g clip-path="url(#a)"><path fill="#fff" d="M17.045 6.755a.534.534 0 0 1-.544.641h-1.157v-.798h.351a.66.66 0 0 0 .657-.656v-.29c0-.359.09-.657.201-.657.104 0 .246.291.305.649zm-2.617-.94c.364 0 .655.291.67.664v3.417a.66.66 0 0 1-.656.656h-1.768a.66.66 0 0 1-.656-.656V8.553a.65.65 0 0 0-.261.522v1.127c0 .357.298.656.656.656h1.149v1.745a.4.4 0 0 1-.403.404h-2.163a.4.4 0 0 1-.403-.404v-1.626a.403.403 0 0 0-.403-.403h-5.4a.4.4 0 0 0-.403.403v1.626a.4.4 0 0 1-.403.404H1.821a.4.4 0 0 1-.403-.404V7.935l-.977.767c-.045.03-.105.03-.142-.015L.023 8.36a.1.1 0 0 1-.007-.12l1.432-2.185a.4.4 0 0 1 .366-.239h7.623a.405.405 0 0 1 .396.47l-.158.933a.405.405 0 0 0 .396.47h1.53a.4.4 0 0 0 .394-.328 1 1 0 0 1-.313.045h-1.089a.54.54 0 0 1-.552-.65l.187-1.111c.06-.358.193-.649.305-.649.113 0 .202.298.202.656v.172q.024-.01.06-.008zm2.737-.402c0-.291.216-.418.417-.418.202 0 .418.127.418.418 0 .283-.216.41-.418.41-.2 0-.417-.128-.417-.41m.738 0c0-.231-.15-.329-.313-.329-.165 0-.321.098-.321.329 0 .223.157.328.32.328.165-.007.314-.105.314-.328m-.455-.21h.15c.074 0 .149.023.149.128 0 .06-.046.097-.098.112l.098.17h-.09l-.09-.163h-.037v.164h-.082zm.15.188c.037 0 .067-.022.067-.06 0-.045-.038-.053-.068-.053h-.075v.113z"/></g><defs><clipPath id="a"><path fill="#fff" d="M0 0h18v18H0z"/></clipPath></defs></g></svg>