<svg xmlns="http://www.w3.org/2000/svg" fill="none" viewBox="0 0 18 18"><rect width="100%" height="100%" rx="2px" ry="2px" fill="#62d84e"/><g transform="translate(9, 9) scale(0.5625) translate(-9, -9)"><path fill="#0F0F11" fill-rule="evenodd" d="M9.068 1.764C4.618 1.764.954 5.373.9 9.823c0 2.36.95 4.505 2.55 5.997.57.543 1.466.597 2.09.109.923-.733 2.117-1.14 3.474-1.14 1.356 0 2.55.434 3.473 1.14.624.488 1.52.434 2.09-.136A8.09 8.09 0 0 0 17.1 9.877c0-4.477-3.61-8.113-8.06-8.14m-.054 12.21c-2.415 0-4.043-1.817-4.043-4.043s1.655-4.097 4.043-4.097 4.044 1.845 4.044 4.097-1.656 4.044-4.044 4.044" clip-rule="evenodd"/></g></svg>