<svg xmlns="http://www.w3.org/2000/svg" fill="none" viewBox="0 0 16 16"><path fill="currentColor" d="M9.287 6.14a.3.3 0 0 1 .424.424 1.8 1.8 0 0 0 0 2.543.3.3 0 0 1-.425.424 1.8 1.8 0 0 0-2.542 0 .3.3 0 0 1-.423-.424 1.8 1.8 0 0 0 0-2.543.299.299 0 1 1 .423-.424c.703.702 1.841.702 2.543 0"/><path fill="currentColor" fill-rule="evenodd" d="M5.931 2.857a2.927 2.927 0 0 1 4.139 0l3.073 3.074a2.926 2.926 0 0 1 0 4.138l-3.073 3.074a2.927 2.927 0 0 1-4.139 0l-3.074-3.074a2.926 2.926 0 0 1 0-4.138zM8.887 4.04a1.254 1.254 0 0 0-1.773 0L4.039 7.114c-.49.49-.49 1.283 0 1.773l3.075 3.074c.49.49 1.283.49 1.773 0l3.074-3.074c.49-.49.49-1.284 0-1.773z" clip-rule="evenodd"/></svg>