<svg xmlns="http://www.w3.org/2000/svg" fill="none" viewBox="0 0 16 16"><path fill="currentColor" fill-rule="evenodd" d="M8 1a7 7 0 1 1 0 14A7 7 0 0 1 8 1M3.737 4.663a.4.4 0 0 0-.566.565l1.048 1.047a4.16 4.16 0 0 0 .852 4.654 4.16 4.16 0 0 0 3.715 1.144.74.74 0 0 0 1.071-1.013l-.05-.056-.057-.05a.74.74 0 0 0-.934 0l-.055.05a.74.74 0 0 0-.178.293 3.36 3.36 0 0 1-2.946-.934 3.37 3.37 0 0 1-.581-3.977.4.4 0 0 0-.069-.473zm7.22.38a4.16 4.16 0 0 0-4.485-.922.74.74 0 0 0-.847.058l-.056.05a.74.74 0 0 0 1.045 1.046.74.74 0 0 0 .208-.434 3.361 3.361 0 0 1 3.834 5.222l-.966-.966a2.01 2.01 0 0 0-.047-2.294A2.014 2.014 0 0 0 6.1 8.607a2.01 2.01 0 0 0 2.228 1.367.401.401 0 0 0-.125-.791 1.22 1.22 0 0 1-.823-.163 1.214 1.214 0 0 1 .083-2.115 1.214 1.214 0 0 1 1.759 1.176 1.2 1.2 0 0 1-.251.648l-.066.078a.47.47 0 0 0 .013.649l2.423 2.423a.4.4 0 0 0 .565-.566l-.681-.681a4.16 4.16 0 0 0-.269-5.589" clip-rule="evenodd"/></svg>