<svg xmlns="http://www.w3.org/2000/svg" fill="none" viewBox="0 0 16 16"><path fill="currentColor" fill-rule="evenodd" d="M7.05 1.19a2.04 2.04 0 0 1 1.9 0l4.208 2.205a2.19 2.19 0 0 1 1.157 1.949v5.254c0 .823-.448 1.577-1.157 1.949L8.95 14.752a2.04 2.04 0 0 1-1.898 0l-4.21-2.205a2.2 2.2 0 0 1-1.155-1.95V5.345c0-.824.447-1.577 1.156-1.949zm1.463 2.3a1.02 1.02 0 0 0-1.026 0l-1.615.942a.4.4 0 0 0 .402.691l1.617-.942a.22.22 0 0 1 .218 0l3.237 1.888c.066.04.108.11.108.188v3.787a.22.22 0 0 1-.108.187L8.728 11.76a.218.218 0 0 1-.328-.188V8.393l1.178-.61a.7.7 0 0 0 .35.094.73.73 0 0 0 .148-1.444L9.93 6.42a.727.727 0 0 0-.723.654l-1.195.62-2.735-1.595a1.018 1.018 0 0 0-1.53.88v3.066c0 .361.193.697.505.879l1.563.91a.4.4 0 0 0 .404-.69l-1.564-.912a.22.22 0 0 1-.107-.187V6.977c0-.167.182-.272.327-.187L7.6 8.38v3.191c0 .785.853 1.274 1.53.88l2.619-1.528c.312-.182.505-.518.505-.88V6.258c0-.362-.193-.697-.505-.88z" clip-rule="evenodd"/></svg>