<svg xmlns="http://www.w3.org/2000/svg" fill="none" viewBox="0 0 16 16"><path fill="currentColor" d="M14.5 6.91a.5.5 0 0 0-1 0zm-1 2.18a.5.5 0 0 0 1 0zM7.437 6.607a.5.5 0 1 0-.874-.485zM6.091 8l-.437-.243a.5.5 0 0 0 .437.743zm2.182 0 .437.243a.5.5 0 0 0-.437-.743zM6.927 9.394a.5.5 0 0 0 .874.485zM14 6.909h-.5v2.182h1V6.909zM2 10.182h.5V5.818h-1v4.364zm0-4.364h.5a.59.59 0 0 1 .59-.59v-1a1.59 1.59 0 0 0-1.59 1.59zm1.09-1.09v.5h8.183v-1H3.09zm8.183 0v.5a.59.59 0 0 1 .59.59h1a1.59 1.59 0 0 0-1.59-1.59zm1.09 1.09h-.5v4.364h1V5.818zm0 4.364h-.5a.59.59 0 0 1-.59.59v1a1.59 1.59 0 0 0 1.59-1.59zm-1.09 1.09v-.5H3.09v1h8.182zm-8.182 0v-.5a.59.59 0 0 1-.591-.59h-1c0 .878.712 1.59 1.59 1.59zM7 6.365l-.437-.243-.91 1.636.438.243.437.243.91-1.637zM6.09 8v.5h2.183v-1H6.09zm2.183 0-.437-.243-.91 1.637.438.242.437.243.909-1.636z"/></svg>