<svg xmlns="http://www.w3.org/2000/svg" fill="none" viewBox="0 0 16 16"><path stroke="currentColor" d="M2.457 3.848c1.583 1.642 9.503 1.642 11.086 0m-6.159 8.007 1.848-2.156m-1.848 2.156L5.662 10.42a.37.37 0 0 0-.288-.082l-1.994.285m4.004 1.232 1.848 1.848m0-4.004 3.08 1.54M9.232 9.7l3.696-1.848M9.232 9.7 7.664 8.393a.37.37 0 0 0-.517.043l-1.61 1.88M2.48 3.412a.31.31 0 0 1 .118-.295C3.028 2.813 4.498 2 8 2s4.972.813 5.4 1.118c.095.067.134.18.12.295l-1.047 7.85a2.46 2.46 0 0 1-1.22 1.813l-.197.112a6.16 6.16 0 0 1-6.112 0l-.197-.112a2.46 2.46 0 0 1-1.22-1.814z"/></svg>