<svg xmlns="http://www.w3.org/2000/svg" fill="none" viewBox="0 0 16 16"><path stroke="currentColor" stroke-linecap="round" stroke-linejoin="round" d="M14.054 14.456c.182 0 .273 0 .343-.035a.33.33 0 0 0 .142-.142c.035-.07.035-.16.035-.343v-6.76c0-.181 0-.272-.035-.342a.33.33 0 0 0-.142-.142c-.07-.035-.16-.035-.343-.035h-1.56c-.182 0-.273 0-.342.035a.33.33 0 0 0-.142.142c-.036.07-.036.16-.036.343v1.56c0 .182 0 .273-.035.342a.33.33 0 0 1-.142.142c-.07.036-.16.036-.343.036h-1.56c-.181 0-.272 0-.342.035a.33.33 0 0 0-.142.142c-.035.07-.035.16-.035.343v1.56c0 .182 0 .273-.036.342a.32.32 0 0 1-.142.142c-.07.036-.16.036-.342.036h-1.56c-.182 0-.273 0-.343.035a.32.32 0 0 0-.142.142c-.035.07-.035.16-.035.342v1.56c0 .182 0 .273.035.343.031.061.081.11.142.142.07.035.16.035.343.035z"/><path stroke="currentColor" stroke-linecap="round" stroke-linejoin="round" d="M14.054 14.456c.182 0 .273 0 .343-.035a.33.33 0 0 0 .142-.142c.035-.07.035-.16.035-.343v-6.76c0-.181 0-.272-.035-.342a.33.33 0 0 0-.142-.142c-.07-.035-.16-.035-.343-.035h-1.56c-.182 0-.273 0-.342.035a.33.33 0 0 0-.142.142c-.036.07-.036.16-.036.343v1.56c0 .182 0 .273-.035.342a.33.33 0 0 1-.142.142c-.07.036-.16.036-.343.036h-1.56c-.181 0-.272 0-.342.035a.33.33 0 0 0-.142.142c-.035.07-.035.16-.035.343v1.56c0 .182 0 .273-.036.342a.32.32 0 0 1-.142.142c-.07.036-.16.036-.342.036h-1.56c-.182 0-.273 0-.343.035a.32.32 0 0 0-.142.142c-.035.07-.035.16-.035.342v1.56c0 .182 0 .273.035.343.031.061.081.11.142.142.07.035.16.035.343.035zM6.775 4.577c0-.182 0-.273.035-.342a.33.33 0 0 1 .142-.142c.07-.036.16-.036.343-.036h1.56c.182 0 .273 0 .342.036.061.03.111.08.142.142.036.07.036.16.036.342v1.56c0 .182 0 .273-.036.343a.33.33 0 0 1-.142.142c-.07.035-.16.035-.342.035h-1.56c-.182 0-.273 0-.343-.035a.33.33 0 0 1-.142-.143c-.035-.069-.035-.16-.035-.342zM2.225 8.477c0-.182 0-.273.036-.343a.33.33 0 0 1 .142-.142c.07-.035.16-.035.342-.035h1.56c.182 0 .273 0 .343.035.06.031.11.081.142.142.035.07.035.16.035.343v1.56c0 .182 0 .273-.035.342a.32.32 0 0 1-.142.142c-.07.036-.161.036-.343.036h-1.56c-.182 0-.273 0-.342-.036a.32.32 0 0 1-.142-.142c-.036-.07-.036-.16-.036-.342zM1.575 1.977c0-.182 0-.273.036-.342a.33.33 0 0 1 .142-.142c.07-.036.16-.036.342-.036h1.56c.182 0 .273 0 .343.036.06.03.11.08.142.142.035.07.035.16.035.342v1.56c0 .182 0 .273-.035.343a.33.33 0 0 1-.142.142c-.07.035-.161.035-.343.035h-1.56c-.182 0-.273 0-.342-.035a.33.33 0 0 1-.142-.142c-.036-.07-.036-.16-.036-.343z"/></svg>