<svg xmlns="http://www.w3.org/2000/svg" fill="none" viewBox="0 0 16 16"><path fill="currentColor" d="M6.298 6.785a3.237 3.237 0 0 0 .398 1.935 1 1 0 0 0-.038.123l-.014.147.014.147a.731.731 0 1 0 .863-.862l-.148-.015-.016.001a2.44 2.44 0 0 1-.252-1.47 2.24 2.24 0 1 1-.807-.006"/><path fill="currentColor" fill-rule="evenodd" d="M8 1a7 7 0 1 1 0 14.001A7 7 0 0 1 8 1m1.32 2.971c-1.29 0-2.376.829-2.822 1.985a3.04 3.04 0 0 0 .182 6.072 3.039 3.039 0 0 0 .66-6.004c.38-.75 1.13-1.252 1.98-1.252 1.22 0 2.238 1.038 2.238 2.356 0 .599-.212 1.143-.56 1.557a.4.4 0 0 0 .614.515 3.22 3.22 0 0 0 .746-2.072c0-1.727-1.344-3.156-3.039-3.157" clip-rule="evenodd"/></svg>