<svg xmlns="http://www.w3.org/2000/svg" fill="none" viewBox="0 0 16 16"><path fill="currentColor" d="M9.636 4.773a.5.5 0 1 0 0 1zm2.182 1a.5.5 0 0 0 0-1zM9.636 9.409a.5.5 0 0 0 0 1zm2.182 1a.5.5 0 0 0 0-1zm-2.182.636a.5.5 0 1 0 0 1zm2.182 1a.5.5 0 0 0 0-1zM4.182 4.774a.5.5 0 1 0 0 1zm2.182 1a.5.5 0 0 0 0-1zm-.591-1.591a.5.5 0 0 0-1 0zm-1 2.182a.5.5 0 1 0 1 0zm-.625 4.781a.5.5 0 1 0 .707.707zm2.25-.836a.5.5 0 1 0-.707-.707zm-1.543-.707a.5.5 0 0 0-.707.707zm.836 2.25a.5.5 0 1 0 .707-.707zM2 12.91h.5V3.091h-1v9.818zm0-9.818h.5a.59.59 0 0 1 .59-.591v-1A1.59 1.59 0 0 0 1.5 3.09zM3.09 2v.5h9.82v-1H3.09zm9.82 0v.5a.59.59 0 0 1 .59.59h1a1.59 1.59 0 0 0-1.59-1.59zM14 3.09h-.5v9.82h1V3.09zm0 9.82h-.5a.59.59 0 0 1-.59.59v1a1.59 1.59 0 0 0 1.59-1.59zM12.91 14v-.5H3.09v1h9.82zm-9.82 0v-.5a.59.59 0 0 1-.59-.59h-1c0 .878.712 1.59 1.59 1.59zm1.092-8.727v.5h1.09v-1h-1.09zm2.182 0v-.5H5.273v1h1.09zm-1.091 0h.5V4.182h-1v1.09zm0 0h-.5v1.09h1v-1.09zm-.771 6.226.353.353.771-.771-.353-.354-.354-.353-.771.771zm1.542-1.543-.353-.354-.772.772.354.353.353.354.772-.772zm-.771.771.353-.353-.77-.772-.354.354-.354.353.771.772zm0 0-.354.354.772.771.353-.353.354-.354-.772-.771zm4.363-5.454v.5h2.182v-1H9.636zm0 4.636v.5h2.182v-1H9.636zm0 1.636v.5h2.182v-1H9.636z"/></svg>