<svg xmlns="http://www.w3.org/2000/svg" fill="none" viewBox="0 0 16 16"><path stroke="currentColor" stroke-linecap="round" stroke-linejoin="round" d="M6.5 13.4h-3a1.2 1.2 0 0 1-1.2-1.2V6.8m0 0h10.8V4.4a1.2 1.2 0 0 0-1.2-1.2h-.3M2.3 6.8V4.4a1.2 1.2 0 0 1 1.2-1.2h1.2m4.8 0V2m0 1.2v1.2m0-1.2H6.8M4.7 2v2.4m8.8 6.4c-.371-.942-1.219-1.6-2.206-1.6-1.055 0-1.951.753-2.276 1.8m3.48-.137h.842a.36.36 0 0 0 .36-.36V9.53M9.1 12.4c.372.942 1.22 1.6 2.206 1.6 1.055 0 1.952-.753 2.276-1.8m-3.479.137H9.26a.36.36 0 0 0-.36.36v.973"/></svg>