<svg xmlns="http://www.w3.org/2000/svg" fill="none" viewBox="0 0 16 16"><g clip-path="url(#a)"><path stroke="currentColor" stroke-linecap="round" stroke-linejoin="round" d="M4.182 11.19C2.33 10.927 1 9.54 1 7.585c0-1.63.924-2.864 2.304-3.382C3.65 2.27 5.16 1.005 7.25 1h.225c2.21.006 3.77 1.417 3.996 3.538a4 4 0 0 1 .187-.004C13.655 4.534 15 5.89 15 7.906c0 1.416-.663 2.507-1.75 3.031m-2.725-2.176c.18-.452-.083-.94-.564-.978a13 13 0 0 0-1.006-.037c-.546 0-.975.03-1.286.063a1.05 1.05 0 0 0-.863.688 25 25 0 0 0-.895 2.841.466.466 0 0 0 .457.58c.35 0 .821 0 1.314.004 0 0-.247 1.308-.494 2.708-.05.29.276.485.498.294 1.522-1.314 2.977-2.906 3.788-3.833a.466.466 0 0 0-.352-.775H9.909z"/></g><defs><clipPath id="a"><path fill="currentColor" d="M0 0h16v16H0z"/></clipPath></defs></svg>