<svg xmlns="http://www.w3.org/2000/svg" fill="none" viewBox="0 0 16 16"><path fill="currentColor" d="M8.509 3.026a.5.5 0 0 0 0-1v1m-6.4 10.667-.438-.24zm4.42-8.072-.439-.24zm3.978 0-.44.238zm4.385 8.075-.44.239zM14.115 15v-.5H2.885v1h11.23zM6.583 5.41h.5V2.525h-1v2.883zm3.87-2.875h-.5V5.41h1V2.535zm.75-.01v-.5h-.74v1h.74zm-4.62 0v-.5h-.768v1h.768zm0 0v.5h1.926v-1H6.583zM2.11 13.694l.438.24 4.42-8.072-.44-.24-.438-.24-4.419 8.072zm8.397-8.072-.44.238 4.385 8.075.44-.238.44-.239-4.386-8.075zM5.815 2.526v-.5a.263.263 0 0 1-.264-.263h-1c0 .698.566 1.263 1.264 1.263zm6.152-.763h-.5a.263.263 0 0 1-.264.263v1c.698 0 1.264-.565 1.264-1.263zm-1.514.772h.5a.49.49 0 0 1-.49.49v-1a.51.51 0 0 0-.51.51zM6.583 5.41h-.5q0-.015.007-.028l.439.24.438.24a.94.94 0 0 0 .116-.452zm3.87.001h-.5c0 .157.04.311.115.45l.439-.24.44-.238a.1.1 0 0 1 .006.028zM2.885 15v-.5a.383.383 0 0 1-.337-.567l-.438-.24-.439-.24A1.383 1.383 0 0 0 2.885 15.5zm11.23 0v.5a1.383 1.383 0 0 0 1.216-2.043l-.44.239-.439.239a.383.383 0 0 1-.337.565zM11.967 1.763h.5c0-.698-.566-1.263-1.264-1.263v1c.146 0 .264.118.264.263zm-6.916 0h.5c0-.145.117-.263.264-.263v-1c-.698 0-1.264.565-1.264 1.263zm4.388 7.6.344.363.724-.69-.344-.362-.345-.362-.724.69zm.462.87-.001.5.917.002v-.5l.001-.5-.916-.002zm-.42.913-.345.362.682.65.345-.362.344-.362-.681-.65zm-.957.335h-.5v.955h1v-.955zm-1.637.315.344.362.682-.65-.345-.362-.345-.362-.681.65zm-.71-1.57-.001.5 1.01.002v-.5l.002-.5-1.01-.002zm.71-1.552-.345.362.681.65.345-.363.345-.362-.682-.65zm1.637-.653h-.5v1.058h1V8.02zm1.327 2.21h-.5c0 .412-.359.788-.854.788v1c1 0 1.854-.777 1.854-1.788zM8.497 11.52v-.5c-.495 0-.854-.376-.854-.788h-1c0 1.011.854 1.788 1.854 1.788zm-1.354-1.288h.5c0-.411.359-.787.854-.787v-1c-1 0-1.854.777-1.854 1.787zm1.354-1.287v.5c.495 0 .854.376.854.787h1c0-1.01-.854-1.787-1.854-1.787zM5.815 1v.5h5.388v-1H5.815z"/></svg>