<svg xmlns="http://www.w3.org/2000/svg" fill="none" viewBox="0 0 16 16"><path fill="currentColor" d="M8 9.25a1.25 1.25 0 1 0 0-2.5 1.25 1.25 0 0 0 0 2.5"/><path stroke="currentColor" stroke-linecap="round" stroke-linejoin="round" d="M8 2.167v11.666m5.052-8.75L2.948 10.917m10.104 0L2.948 5.083m3.885-2.041L8 1.875l1.167 1.167m2.49 1.458 1.593.427-.427 1.594M11.656 11.5l1.594-.427-.427-1.594M4.343 4.5l-1.593.427.427 1.594M4.344 11.5l-1.594-.427.427-1.594m3.656 3.48L8 14.124l1.167-1.167M9.25 8a1.25 1.25 0 1 1-2.5 0 1.25 1.25 0 0 1 2.5 0"/></svg>