<svg xmlns="http://www.w3.org/2000/svg" fill="none" viewBox="0 0 16 16"><path fill="currentColor" d="M11 8.3a.3.3 0 1 0 0-.6.3.3 0 0 0 0 .6M8 8.3a.3.3 0 1 0 0-.6.3.3 0 0 0 0 .6M5 8.3a.3.3 0 1 0 0-.6.3.3 0 0 0 0 .6"/><path stroke="currentColor" stroke-linecap="round" stroke-linejoin="round" d="M11 8.3a.3.3 0 1 0 0-.6.3.3 0 0 0 0 .6M8 8.3a.3.3 0 1 0 0-.6.3.3 0 0 0 0 .6M5 8.3a.3.3 0 1 0 0-.6.3.3 0 0 0 0 .6"/><path stroke="currentColor" stroke-linecap="round" stroke-linejoin="round" d="M8 14a6 6 0 1 0-5.197-3L2.3 13.7l2.7-.503c.883.51 1.907.803 3 .803"/></svg>