<svg viewBox="0 0 16 16" fill="none" xmlns="http://www.w3.org/2000/svg">
<path d="M8 2C11.3137 2 14 4.68629 14 8C14 11.3137 11.3137 14 8 14C4.68629 14 2 11.3137 2 8C2 4.68629 4.68629 2 8 2ZM11.3535 5.54688C11.1827 5.37601 10.9187 5.35426 10.7246 5.48242L10.6465 5.54688L6.7998 9.39355L5.35352 7.94727L5.27539 7.88281C5.0813 7.75452 4.8174 7.77635 4.64648 7.94727C4.47609 8.11802 4.45426 8.3813 4.58203 8.5752L4.64648 8.6543L6.44629 10.4541C6.53999 10.5477 6.66735 10.6005 6.7998 10.6006C6.93223 10.6006 7.05959 10.5476 7.15332 10.4541L11.3535 6.25391L11.418 6.17578C11.5461 5.98177 11.5242 5.71774 11.3535 5.54688Z" fill="currentColor"/>
</svg>
