<svg viewBox="0 0 16 16" fill="none" xmlns="http://www.w3.org/2000/svg">
<path fill-rule="evenodd" clip-rule="evenodd" d="M8 2C11.3137 2 14 4.68629 14 8C14 11.3137 11.3137 14 8 14C4.68629 14 2 11.3137 2 8C2 4.68629 4.68629 2 8 2ZM8 3.90039C7.72386 3.90039 7.5 4.12425 7.5 4.40039V8C7.5002 8.27597 7.72398 8.5 8 8.5H11.5996L11.7012 8.49023C11.9287 8.44349 12.0994 8.24133 12.0996 8C12.0994 7.75873 11.9286 7.55753 11.7012 7.51074L11.5996 7.5H8.5V4.40039C8.5 4.12425 8.27614 3.90039 8 3.90039Z" fill="currentColor"/>
</svg>
