<svg xmlns="http://www.w3.org/2000/svg" fill="none" viewBox="0 0 16 16"><path stroke="currentColor" stroke-linecap="round" stroke-linejoin="round" d="M12.364 10.513C13.178 10.193 14 9.467 14 8c0-2.182-1.818-2.727-2.727-2.727C11.273 4.182 11.273 2 8 2S4.727 4.182 4.727 5.273C3.818 5.273 2 5.818 2 8c0 1.467.822 2.194 1.636 2.513m6.775 1.026-.964.964a2.18 2.18 0 0 1-3.086 0l-.193-.193m4.243-.771-.193 1.35-1.157-1.157zm-4.822-1.41.965-.965a2.18 2.18 0 0 1 3.085 0l.193.193m-4.243.771.193-1.35L6.94 9.935z"/></svg>