<svg xmlns="http://www.w3.org/2000/svg" fill="none" viewBox="0 0 16 16"><path fill="currentColor" d="M5.818 7.333v.5a.5.5 0 0 0 .5-.5zm4.364 0h-.5a.5.5 0 0 0 .5.5zM2 13.6h.5V2.4h-1v11.2zM2 2.4h.5a.1.1 0 0 1-.1.1v-1a.9.9 0 0 0-.9.9zm.4-.4v.5h11.2v-1H2.4zm11.2 0v.5a.1.1 0 0 1-.1-.1h1a.9.9 0 0 0-.9-.9zm.4.4h-.5v11.2h1V2.4zm0 11.2h-.5a.1.1 0 0 1 .1-.1v1a.9.9 0 0 0 .9-.9zm-.4.4v-.5H2.4v1h11.2zM2.4 14v-.5a.1.1 0 0 1 .1.1h-1a.9.9 0 0 0 .9.9zM8 5.333v-.5c-1.195 0-1.932.372-2.327.976-.366.56-.355 1.209-.355 1.524h1c0-.35.011-.701.191-.976.15-.228.504-.524 1.491-.524zm-2.182 2v-.5c-.375 0-.932.1-1.412.416C3.9 7.584 3.5 8.151 3.5 9h1c0-.485.207-.75.457-.916.278-.183.63-.25.861-.25zM4 9h-.5c0 .849.4 1.416.906 1.75.48.317 1.037.417 1.412.417v-1c-.231 0-.583-.068-.86-.251C4.706 9.751 4.5 9.485 4.5 9zm1.818 1.667v.5h4.364v-1H5.818zm4.364 0v.5c.375 0 .932-.1 1.412-.416.507-.335.906-.902.906-1.751h-1c0 .485-.207.75-.457.916-.278.183-.63.25-.861.25zM12 9h.5c0-.849-.4-1.416-.906-1.75a2.66 2.66 0 0 0-1.412-.417v1c.231 0 .583.068.86.251.252.165.458.431.458.916zm-1.818-1.667h.5c0-.315.011-.965-.355-1.523-.395-.605-1.132-.977-2.327-.977v1c.987 0 1.341.296 1.49.524.18.275.192.625.192.976z"/></svg>