<svg xmlns="http://www.w3.org/2000/svg" fill="none" viewBox="0 0 16 16"><path stroke="currentColor" d="M8.871 5.372c-.93 0-1.683.74-1.683 1.651q0 .19.042.369m1.641-2.02V3.976m0 1.396c.83 0 1.518.588 1.658 1.362M8.87 3.976a1.25 1.25 0 0 0 1.262-1.238A1.25 1.25 0 0 0 8.872 1.5a1.25 1.25 0 0 0-1.262 1.238A1.25 1.25 0 0 0 8.87 3.976Zm1.052 4.336a1.7 1.7 0 0 1-1.513.3m1.513-.3a1.64 1.64 0 0 0 .606-1.578m-.606 1.578 1.473 1.724m0 0a1.207 1.207 0 0 1 1.683 0 1.15 1.15 0 0 1 0 1.651 1.207 1.207 0 0 1-1.683 0 1.15 1.15 0 0 1 0-1.651ZM7.23 7.392l-1.305.343-.008-.005m1.313-.338a1.67 1.67 0 0 0 1.18 1.22M5.917 7.73a1.74 1.74 0 0 0-2.096-1.187c-.95.232-1.524 1.207-1.254 2.131a1.74 1.74 0 0 0 2.096 1.187c.95-.232 1.525-1.207 1.254-2.131Zm4.612-.996h1.288m0 0c0 .456.377.826.841.826.465 0 .842-.37.842-.826a.834.834 0 0 0-.842-.825.834.834 0 0 0-.841.825ZM8.41 8.611l-.91 2.94m0 0c-.828-.265-1.724.164-2 .957s.172 1.65 1 1.914 1.724-.164 2-.957-.172-1.65-1-1.915Z"/></svg>