<svg xmlns="http://www.w3.org/2000/svg" fill="none" viewBox="0 0 16 16"><path stroke="currentColor" stroke-linecap="round" stroke-linejoin="round" d="m9 6.6-1.4 5m-1.4-4L4.8 9l1.4 1.4m4.4-2.8L12 9l-1.4 1.4M4.5 14h9a.5.5 0 0 0 .5-.5v-11a.5.5 0 0 0-.5-.5h-1.922a.105.105 0 0 0-.1.074C11.364 2.436 10.768 4 9 4S6.636 2.436 6.522 2.074a.105.105 0 0 0-.1-.074H4.5a.5.5 0 0 0-.5.5v3.922c0 .046-.03.086-.074.1C3.564 6.636 2 7.232 2 9s1.564 2.364 1.926 2.478a.105.105 0 0 1 .074.1V13.5a.5.5 0 0 0 .5.5"/></svg>