<svg xmlns="http://www.w3.org/2000/svg" fill="none" viewBox="0 0 16 16"><path fill="currentColor" d="M7.083 9.533v1.476H4.991V9.533zM11.009 8.411v2.598H8.971V8.41zM7.083 4.991v2.653H4.991V4.991zM11.009 4.991v1.532H8.971V4.99z"/><path fill="currentColor" fill-rule="evenodd" d="M10.623 1.697a2.19 2.19 0 0 1 1.945 1.155l2.2 4.2a2.04 2.04 0 0 1 0 1.895l-2.2 4.201a2.19 2.19 0 0 1-1.945 1.155H5.382a2.19 2.19 0 0 1-1.945-1.155l-2.2-4.201a2.03 2.03 0 0 1 0-1.894l2.2-4.201a2.19 2.19 0 0 1 1.945-1.155zM4.86 8.822a.58.58 0 0 0-.58.58v1.739c0 .32.26.58.58.58h2.356c.32 0 .58-.26.58-.58V9.4a.58.58 0 0 0-.58-.579zM8.841 7.7a.58.58 0 0 0-.58.58v2.86c0 .32.26.58.58.58h2.3c.32 0 .58-.26.58-.58V8.28a.58.58 0 0 0-.58-.58zM4.859 4.28a.58.58 0 0 0-.58.58v2.916c0 .32.26.58.58.58h2.356c.32 0 .58-.26.58-.58V4.859a.58.58 0 0 0-.58-.58zm3.982 0a.58.58 0 0 0-.58.58v1.794c0 .32.26.58.58.58h2.3c.32 0 .58-.26.58-.58V4.86a.58.58 0 0 0-.58-.58z" clip-rule="evenodd"/></svg>