<svg xmlns="http://www.w3.org/2000/svg" fill="none" viewBox="0 0 16 16"><path stroke="currentColor" stroke-linecap="round" stroke-linejoin="round" d="M2.316 3.895v3.79m0-3.79s0 1.894 4.421 1.894 4.421-1.894 4.421-1.894m-8.842 0S2.316 2 6.737 2s4.421 1.895 4.421 1.895m-8.842 3.79s0 1.894 4.421 1.894 4.421-1.895 4.421-1.895v-3.79m-8.842 3.79v3.79s0 1.894 4.421 1.894m3.982-2.454.575-1.218a.197.197 0 0 1 .36 0l.574 1.218 1.284.196c.165.025.23.237.111.359l-.929.947.22 1.338c.028.172-.144.303-.292.221l-1.148-.632-1.149.632c-.147.082-.32-.05-.291-.221l.22-1.338-.93-.947c-.119-.122-.053-.334.111-.359z"/></svg>