<svg xmlns="http://www.w3.org/2000/svg" fill="none" viewBox="0 0 16 16"><path stroke="currentColor" stroke-linecap="round" stroke-linejoin="round" d="M11.42 10.25h1.2c.039 0 .075.02.097.051l.763 1.135a.12.12 0 0 1 0 .128l-.763 1.135a.12.12 0 0 1-.097.051h-1.04a.3.3 0 0 1-.249-.133L10.58 11.5m.842-1.25-.842 1.25m.842-1.25-.807-1.199A.12.12 0 0 0 10.517 9H9.38a.12.12 0 0 0-.097.051l-.763 1.135a.12.12 0 0 0 0 .128l.709 1.053a.3.3 0 0 0 .248.133h1.102M2.5 3.8v3.6m0-3.6s0 1.8 4.2 1.8 4.2-1.8 4.2-1.8m-8.4 0S2.5 2 6.7 2s4.2 1.8 4.2 1.8M2.5 7.4V11s0 1.8 4.2 1.8M2.5 7.4s1 1.6 4 1.6m4.4-5.2v3.017m.477 5.997-.763 1.135a.12.12 0 0 1-.097.051H9.38a.12.12 0 0 1-.097-.051l-.763-1.135a.12.12 0 0 1 0-.128l.763-1.135a.12.12 0 0 1 .097-.051h1.137c.039 0 .075.02.097.051l.763 1.135a.11.11 0 0 1 0 .128"/></svg>