<svg xmlns="http://www.w3.org/2000/svg" fill="none" viewBox="0 0 16 16"><path fill="currentColor" d="M8.9 5.6v-.5a.5.5 0 0 0-.5.5zm0 4.8h-.5a.5.5 0 0 0 .5.5zM4.1 5.6v-.5a.5.5 0 0 0-.5.5zm0 4.8h-.5a.5.5 0 0 0 .5.5zM2 9.8h.5V6.2h-1v3.6zm0-3.6h.5a3.1 3.1 0 0 1 3.1-3.1v-1a4.1 4.1 0 0 0-4.1 4.1zm3.6-3.6v.5h4.8v-1H5.6zm4.8 0v.5a3.1 3.1 0 0 1 3.1 3.1h1a4.1 4.1 0 0 0-4.1-4.1zM14 6.2h-.5v3.6h1V6.2zm0 3.6h-.5a3.1 3.1 0 0 1-3.1 3.1v1a4.1 4.1 0 0 0 4.1-4.1zm-3.6 3.6v-.5H5.6v1h4.8zm-4.8 0v-.5a3.1 3.1 0 0 1-3.1-3.1h-1a4.1 4.1 0 0 0 4.1 4.1zM10.614 8v.5c.196 0 .65.01 1.048-.214.46-.258.738-.749.738-1.486h-1c0 .463-.151.572-.226.614-.137.076-.327.086-.56.086zM11.9 6.8h.5c0-.737-.277-1.228-.738-1.486-.399-.224-.852-.214-1.048-.214v1c.233 0 .423.01.56.086.075.042.226.151.226.614zm-1.286-1.2v-.5H8.9v1h1.714zM8.9 5.6h-.5V8h1V5.6zM10.614 8v-.5H8.9v1h1.714zm0 0v.5c.233 0 .423.01.56.086.075.042.226.151.226.614h1c0-.737-.277-1.228-.738-1.486-.399-.224-.852-.214-1.048-.214zM11.9 9.2h-.5c0 .463-.151.572-.226.614-.137.076-.327.086-.56.086v1c.196 0 .65.01 1.048-.214.46-.258.738-.749.738-1.486zm-1.286 1.2v-.5H8.9v1h1.714zm-1.714 0h.5V8h-1v2.4zM5.814 5.6v-.5H4.1v1h1.714zM4.1 10.4v.5h1.714v-1H4.1zm1.714 0v.5c.196 0 .65.01 1.048-.214.46-.258.738-.749.738-1.486h-1c0 .463-.151.572-.226.614-.137.076-.327.086-.56.086zM7.1 9.2h.5V6.8h-1v2.4zm0-2.4h.5c0-.737-.277-1.228-.738-1.486C6.463 5.09 6.01 5.1 5.814 5.1v1c.233 0 .423.01.56.086.075.042.226.151.226.614zm-3-1.2h-.5v4.8h1V5.6z"/></svg>