<svg xmlns="http://www.w3.org/2000/svg" fill="none" viewBox="0 0 16 16"><path fill="currentColor" d="M8.501 6.925a.5.5 0 0 0-1 0zm-1 4.105a.5.5 0 1 0 1 0zm-4.87 0a.5.5 0 0 0 1 0zm.5-1.641v-.5a.5.5 0 0 0-.5.5zm9.737 0h.5a.5.5 0 0 0-.5-.5zm-.5 1.642a.5.5 0 0 0 1 0zM6.378 2v-.5a.5.5 0 0 0-.5.5zm3.245 0h.5a.5.5 0 0 0-.5-.5zm0 3.284v.5a.5.5 0 0 0 .5-.5zm-3.246 0h-.5a.5.5 0 0 0 .5.5zm1.624 1.641h-.5v4.105h1V6.925zm-4.87 4.106h.5V9.389h-1v1.642zm0-1.642v.5h9.737v-1H3.131zm9.737 0h-.5v1.642h1V9.389zM6.378 2v.5h3.245v-1H6.377zm3.245 0h-.5v3.284h1V2zm0 3.284v-.5H6.377v1h3.246zm-3.246 0h.5V2h-1v3.284zm6.995 8.209h-.5v.004l-.002.003h-.001.002v1c.558 0 1-.457 1-1.007zM12.87 14v-.5h.001l-.002-.003v-.004h-1c0 .55.442 1.007 1 1.007zm-.502-.507h.5l.001-.005.002-.002q0-.001 0 0h-.001v-1c-.559 0-1.002.456-1.002 1.007zm.502-.507v.5h-.002q0-.002 0 0l.002.002v.005h1c0-.55-.442-1.007-1-1.007zm-4.37.507h-.5v.004l-.002.003H8v1c.559 0 1.002-.457 1.002-1.007zm-.5.507v-.5h.001L8 13.497v-.004H7c0 .55.442 1.007 1 1.007zm-.502-.507H8v-.005l.003-.002q0-.001 0 0H8v-1c-.558 0-1 .456-1 1.007zM8 12.986v.5H8q0-.002 0 0l.002.002v.005h1c0-.55-.442-1.007-1-1.007zm-4.368.507h-.5v.004l-.002.003h.001v1c.559 0 1.001-.457 1.001-1.007zm-.5.507v-.5q.001 0 0 0l-.001-.003-.001-.004h-1c0 .55.443 1.007 1.001 1.007zm-.502-.507h.5v-.005l.002-.002q.001-.001 0 0v-1c-.56 0-1.002.456-1.002 1.007zm.501-.507v.5H3.13q0-.002 0 0 .002 0 .003.002v.005h1c0-.55-.442-1.007-1-1.007z"/></svg>