<svg xmlns="http://www.w3.org/2000/svg" fill="none" viewBox="0 0 16 16"><path fill="currentColor" fill-rule="evenodd" d="M6.797 4.299c2.532-2.292 5.57-2.337 6.479-2.29l.254.02.077.016a.46.46 0 0 1 .325.388c.029.238.606 3.819-2.2 6.772l-.05.05.083.467a2.85 2.85 0 0 1-1.154 2.825l.001.001-1.923 1.367a.46.46 0 0 1-.695-.541l.001-.006.011-.032q.015-.045.043-.14c.035-.126.081-.315.12-.553.055-.34.093-.78.067-1.289-.419.138-.748.218-.93.268a.46.46 0 0 1-.447-.119L4.49 9.125a.46.46 0 0 1-.118-.449c.05-.185.117-.515.245-.933a6 6 0 0 0-1.263.07 5 5 0 0 0-.692.162l-.032.012-.006.001a.46.46 0 0 1-.526-.148.46.46 0 0 1-.012-.55l1.36-1.927a2.84 2.84 0 0 1 2.821-1.159zm3.089.636c-.635 0-1.15.517-1.15 1.154s.515 1.154 1.15 1.154 1.15-.517 1.15-1.154-.515-1.154-1.15-1.154" clip-rule="evenodd"/><path fill="currentColor" d="M3.56 10.136a.46.46 0 0 1 .501.757l1 1.077a.46.46 0 0 1 .79.464c-.27.6-.875 1.021-1.577 1.021H3.003a.46.46 0 0 1-.46-.462V11.72c0-.704.417-1.311 1.018-1.583"/></svg>