<svg xmlns="http://www.w3.org/2000/svg" fill="none" viewBox="0 0 16 16"><path fill="currentColor" d="M6.34 8a.5.5 0 1 1-1 0 .5.5 0 0 1 1 0"/><path fill="currentColor" d="m6.985 5.468-.305.396zm2.877 2.846a.5.5 0 1 0 .61-.792l-.305.396zM4.42 11.229l-.068.496h.007zm3.485-1.431.403.296.003-.005zm1.18.735.307-.394zm0-5.066-.307-.395-.005.004zm1.947-.715.018.5zM6.141 7.606a.5.5 0 0 0-.615.788L5.833 8zM7.99 9.68l.307-.395zM6.984 5.468l-.305.396 1.07.824.305-.397.305-.396-1.07-.823zm1.07.823-.305.397 2.112 1.626.305-.396.305-.396L8.36 5.895zm-1.07-.823.305-.396C4.78 3.139 1 4.83 1 8.006h1c0-2.274 2.77-3.613 4.68-2.142zM4.421 11.23l.067-.495C3.136 10.549 2 9.474 2 8.006H1c0 2.046 1.587 3.477 3.353 3.719zm0 0-.06.497c.437.053 1.128.03 1.85-.19.729-.22 1.517-.653 2.098-1.442l-.403-.296-.403-.297c-.422.574-1.004.903-1.583 1.08a3.7 3.7 0 0 1-1.439.152zm4.665-.696-.307.395C11.269 12.867 15 11.162 15 8h-1c0 2.278-2.733 3.598-4.607 2.139zm0-5.066.307.394c.514-.4 1.09-.59 1.658-.61l-.018-.499-.017-.5a3.84 3.84 0 0 0-2.237.82zm1.947-.715.018.5c1.525-.054 2.95 1.098 2.95 2.748h1c0-2.295-1.977-3.818-3.985-3.748zm-1.947.715-.312-.39-1.032.824.313.39.312.391 1.031-.825zM5.833 8l-.307.394 2.157 1.68.307-.394.308-.395-2.157-1.68zM7.99 9.68l-.307.394 1.096.854.307-.395.307-.394-1.095-.854zm-.084.118.406.291.085-.118-.407-.291-.406-.292-.084.118zM6.34 8h-.5v1a1 1 0 0 0 1-1zm-.5.5V8h-1a1 1 0 0 0 1 1zm-.5-.5h.5V7a1 1 0 0 0-1 1zm.5-.5V8h1a1 1 0 0 0-1-1z"/></svg>