<svg xmlns="http://www.w3.org/2000/svg" fill="none" viewBox="0 0 16 16"><path stroke="currentColor" stroke-linecap="round" stroke-linejoin="round" d="M12.5 8V4.25a.36.36 0 0 0-.105-.255l-1.89-1.89A.36.36 0 0 0 10.251 2H3.26a.36.36 0 0 0-.36.36v11.28c0 .199.161.36.36.36H7.1m3-12v2.04c0 .199.161.36.36.36h2.04m-2.217 6.668.546-1.157a.187.187 0 0 1 .342 0l.546 1.157 1.22.187c.156.023.218.225.105.34l-.883.9.209 1.271c.027.163-.137.288-.277.21l-1.091-.6-1.091.6c-.14.078-.304-.047-.277-.21l.208-1.271-.882-.9c-.113-.115-.051-.317.105-.34z"/></svg>