<svg xmlns="http://www.w3.org/2000/svg" fill="none" viewBox="0 0 16 16"><path fill="currentColor" d="M2 4.5a.5.5 0 1 0 0 1zm12 1a.5.5 0 0 0 0-1zM3.428 3.471a.5.5 0 1 0 .744.67zm.75.663a.5.5 0 1 0-.744-.67zm1.05-.663a.5.5 0 0 0 .744.67zm.75.663a.5.5 0 0 0-.744-.67zm1.05-.663a.5.5 0 0 0 .744.67zm.75.663a.5.5 0 0 0-.744-.67zm.46 3.509a.5.5 0 1 0-.875-.486zM6.8 9.2l-.437-.243A.5.5 0 0 0 6.8 9.7zm2.4 0 .437.243A.5.5 0 0 0 9.2 8.7zm-1.437 1.557a.5.5 0 0 0 .874.486zM2 12.2h.5V3.8h-1v8.4zm0-8.4h.5a.7.7 0 0 1 .7-.7v-1a1.7 1.7 0 0 0-1.7 1.7zm1.2-1.2v.5h9.6v-1H3.2zm9.6 0v.5a.7.7 0 0 1 .7.7h1a1.7 1.7 0 0 0-1.7-1.7zM14 3.8h-.5v8.4h1V3.8zm0 8.4h-.5a.7.7 0 0 1-.7.7v1a1.7 1.7 0 0 0 1.7-1.7zm-1.2 1.2v-.5H3.2v1h9.6zm-9.6 0v-.5a.7.7 0 0 1-.7-.7h-1a1.7 1.7 0 0 0 1.7 1.7zM2 5v.5h12v-1H2zm1.8-1.194.372.334.006-.006-.372-.335-.372-.334-.006.006zm1.8 0 .372.334.006-.006-.372-.335-.372-.334-.006.006zm1.8 0 .372.334.006-.006-.372-.335-.372-.334-.006.006zM7.8 7.4l-.437-.243-1 1.8.437.243.437.243 1-1.8zm-1 1.8v.5h2.4v-1H6.8zm2.4 0-.437-.243-1 1.8L8.2 11l.437.243 1-1.8z"/></svg>