<svg xmlns="http://www.w3.org/2000/svg" fill="none" viewBox="0 0 16 16"><path fill="currentColor" d="m8.157 1.54.24-.439zm5.675 3.094.24-.439zm0 6.732-.24-.44zM8.157 14.46l.24.439zm-.314 0-.24.439zm-5.675-3.094.24-.44zm0-6.732.24.44zM7.843 1.54l.24.439zm.267 2.706.252-.432zm3.056 1.782-.252.432zm-.215 4.07.252.431zM8.11 11.754l-.252-.432zm-.22 0-.252.432zM4.834 9.972l.252-.432zm0-3.944.252.432zM7.89 4.246l-.252-.432zm3.06 5.475.253-.432zM8 8l.252-.432-.51.86zm2.774-.545a.5.5 0 1 0 1 0h-1M8.157 1.54l-.24.439 5.675 3.094.24-.439.24-.439-5.676-3.094zm5.845 3.382h-.5v6.157h1V4.922zm-.17 6.444-.24-.44-5.675 3.095.24.439.24.439 5.674-3.094zM7.843 14.46l.24-.439-5.675-3.094-.24.439-.24.439 5.676 3.094zm-5.845-3.382h.5V4.923h-1v6.157zm.17-6.444.24.44 5.675-3.095-.24-.439-.24-.439L1.93 4.195zm-.17.288h.5a.17.17 0 0 1-.09.151l-.24-.439-.24-.439a.83.83 0 0 0-.43.727zm.17 6.444.24-.44c.055.031.09.09.09.152h-1c0 .303.165.582.43.727zm5.989 3.094-.24-.439a.17.17 0 0 1 .166 0l-.24.439-.24.439a.83.83 0 0 0 .793 0zm5.845-3.382h-.5c0-.063.035-.121.09-.151l.24.439.24.439a.83.83 0 0 0 .43-.726zm-.17-6.444-.24.44a.17.17 0 0 1-.09-.152h1a.83.83 0 0 0-.43-.727zM8.157 1.54l.24-.439a.83.83 0 0 0-.793 0l.24.439.239.439a.17.17 0 0 1-.166 0zM8.11 4.246l-.252.432 3.056 1.782.252-.432.252-.432-3.056-1.782zm2.84 5.852-.251-.432-2.84 1.656.25.432.253.432 2.84-1.656zm-3.06 1.656.252-.432L5.086 9.54l-.252.432-.252.432 3.056 1.782zm-3.164-1.97h.5V6.216h-1v3.568zm.108-3.756.252.432 3.056-1.782-.252-.432-.252-.432-3.056 1.782zm6.117 3.693.252-.432-2.951-1.72L8 8l-.252.432 2.95 1.72zm.323-3.505h-.5v1.239h1V6.216zm-6.548 0h.5c0 .1-.053.193-.14.244l-.252-.432-.252-.432a.72.72 0 0 0-.356.62zm.108 3.756.252-.432c.087.05.14.143.14.244h-1c0 .255.136.491.356.62zm3.276 1.782-.252-.432a.28.28 0 0 1 .284 0l-.252.432-.252.432c.224.13.5.13.724 0zm2.84-1.656.253.431a.718.718 0 0 0 0-1.24l-.252.432-.252.432a.282.282 0 0 1 0-.487zm.216-4.07-.252.432a.28.28 0 0 1-.14-.244h1a.72.72 0 0 0-.356-.62zM8.11 4.246l.252-.432a.72.72 0 0 0-.724 0l.252.432.252.432a.28.28 0 0 1-.284 0zM8 8.546v-.5A.046.046 0 0 1 7.954 8h-1c0 .578.469 1.045 1.046 1.045zM7.454 8h.5c0-.025.02-.045.046-.045v-1c-.577 0-1.046.467-1.046 1.045zM8 7.455v.5c.025 0 .046.02.046.045h1c0-.578-.469-1.045-1.046-1.045zM8.546 8h-.5c0 .025-.02.045-.046.045v1c.577 0 1.046-.467 1.046-1.045zm2.182 1.636.258-.428L8.256 7.57 8 8l-.257.429 2.728 1.636z"/></svg>