<svg xmlns="http://www.w3.org/2000/svg" fill="none" viewBox="0 0 16 16"><path fill="currentColor" d="M6.881 14.204a.5.5 0 0 0 .797-.605zm.797-11.803a.5.5 0 0 0-.797-.605zm.482 11.198a.5.5 0 0 0 .797.605zm.797-11.803a.5.5 0 1 0-.797.605zM7.279 13.902l.399-.302-.002-.003-.011-.015-.05-.07a6 6 0 0 1-.186-.291 9 9 0 0 1-.58-1.134A10.35 10.35 0 0 1 6 8H5c0 1.863.466 3.406.93 4.483.233.54.467.964.644 1.256a7 7 0 0 0 .307.464zM5.5 8H6c0-1.696.424-3.103.849-4.087a9 9 0 0 1 .58-1.134 6 6 0 0 1 .247-.376l.002-.003-.399-.302-.398-.302-.001.001-.002.003-.024.033-.064.09a7 7 0 0 0-.216.338c-.177.292-.41.716-.643 1.256A11.35 11.35 0 0 0 5 8zm3.059 5.902.398.302.001-.002.002-.002.005-.007a2 2 0 0 0 .083-.116c.053-.079.128-.192.216-.338.177-.292.41-.716.643-1.256.465-1.077.93-2.62.93-4.483h-1c0 1.696-.423 3.103-.848 4.087a9 9 0 0 1-.58 1.134 6 6 0 0 1-.247.376l-.002.003zM10.338 8h.5c0-1.863-.466-3.406-.93-4.483-.233-.54-.467-.964-.644-1.256A7 7 0 0 0 8.96 1.8l-.002-.003h-.001l-.398.301-.399.302.002.003.06.085q.068.097.187.291c.157.259.368.642.58 1.134.425.984.849 2.391.849 4.087zM2.5 6v.5h11v-1h-11zm0 4v.5h11v-1h-11zM14 8h-.5A5.5 5.5 0 0 1 8 13.5v1A6.5 6.5 0 0 0 14.5 8zm-6 6v-.5A5.5 5.5 0 0 1 2.5 8h-1A6.5 6.5 0 0 0 8 14.5zM2 8h.5A5.5 5.5 0 0 1 8 2.5v-1A6.5 6.5 0 0 0 1.5 8zm6-6v.5A5.5 5.5 0 0 1 13.5 8h1A6.5 6.5 0 0 0 8 1.5z"/></svg>