<svg xmlns="http://www.w3.org/2000/svg" fill="none" viewBox="0 0 16 16"><path fill="currentColor" d="M5.292 11.792a.542.542 0 1 1 0-1.084.542.542 0 0 1 0 1.084"/><path fill="currentColor" d="m7.006 14.367-.416-.278zm5.416-3.25-.416-.278zm1.967-2.95.416.277zM7.006 1.633l-.416.277zM1.61 4.916l.416-.277zm12.778 2.918.416-.278zm-1.967-2.95-.416.277zm-10.811-.3.416.277zm1.967-2.95-.416-.278zm-1.967 9.45-.416-.278zm2.417 2.693-.447-.224zm-2.417-2.36-.416.277zm.286 1.33a.5.5 0 1 0 .832-.556l-.416.278zM4.475 14.5v.5h2.281v-1h-2.28zm2.53-.133.417.277 2.077-3.117-.416-.277-.416-.277-2.077 3.116zm2.078-3.117v.5h3.09v-1h-3.09zm3.34-.133.415.277 1.967-2.95-.416-.278-.416-.277-1.967 2.95zm-.25-6.367v-.5h-3.09v1h3.09zm-3.09 0-.416-.277-2.166 3.25.416.277.416.277 2.166-3.25zM6.917 8l-.416.277 2.166 3.25.416-.277.416-.277-2.166-3.25zm-3.25 0v.5h3.25v-1h-3.25zm5.416-3.25.416-.277-2.077-3.117-.416.278-.416.277 2.077 3.116zM6.756 1.5V1H3.827v1h2.93zM1.611 4.916l-.416.278L3.25 8.277 3.667 8l.416-.277-2.056-3.084zm12.778 2.918.416-.278-1.967-2.95-.416.278-.416.277 1.967 2.95zM1.611 4.584l.416.277 1.967-2.95-.416-.277-.416-.278-1.967 2.95zm0 6.5.416.277 2.056-3.084L3.667 8l-.416-.277-2.056 3.083zm2.417 2.693.447.223 1.264-2.526-.447-.224-.448-.224-1.263 2.527zM3.828 1.5V1a.8.8 0 0 0-.666.356l.416.278.416.277A.2.2 0 0 1 3.827 2zm3.178.134.416-.278A.8.8 0 0 0 6.756 1v1a.2.2 0 0 1-.166-.09zm5.167 3.116v.5a.2.2 0 0 1-.167-.09l.416-.276.416-.278a.8.8 0 0 0-.665-.356zm0 6.5v.5a.8.8 0 0 0 .665-.356l-.416-.277-.416-.278a.2.2 0 0 1 .167-.089zM6.756 14.5v.5a.8.8 0 0 0 .666-.356l-.416-.277-.416-.278A.2.2 0 0 1 6.756 14zm-2.28 0V14l-.448-.223-.447-.224A1 1 0 0 0 4.475 15zm9.913-6.334.416.278a.8.8 0 0 0 0-.888l-.416.278-.416.277a.2.2 0 0 1 0-.222zM1.611 4.916l.416-.277a.2.2 0 0 1 0 .222l-.416-.277-.416-.278a.8.8 0 0 0 0 .888zm0 6.168-.416-.278a.8.8 0 0 0 0 .888l.416-.278.416-.277a.2.2 0 0 1 0 .222zm3.68.708v-.5a.04.04 0 0 1-.04-.042h-1c0 .575.465 1.042 1.04 1.042zm-.54-.542h.5c0-.023.018-.042.04-.042v-1c-.575 0-1.04.467-1.04 1.042zm.54-.542v.5c.024 0 .042.019.042.042h1c0-.575-.466-1.042-1.041-1.042zm.542.542h-.5a.04.04 0 0 1-.041.042v1c.575 0 1.041-.467 1.041-1.042zm-4.222.166-.416.278.702 1.052.416-.277.416-.278-.702-1.052z"/></svg>