<svg xmlns="http://www.w3.org/2000/svg" fill="none" viewBox="0 0 16 16"><path fill="currentColor" d="M5.06 13.888a.505.505 0 1 1-1.01 0 .505.505 0 0 1 1.01 0"/><path stroke="currentColor" stroke-linecap="round" d="m13.864 4.92-.341 1.709m0 0-.897 5.044a.08.08 0 0 1-.094.064l-7.19-1.365a.08.08 0 0 1-.064-.094m8.245-3.65L6.25 5.399a.08.08 0 0 0-.092.064l-.607 3.444-.274 1.372m0 0-.722 3.61m8.397-10.675L3.948 1.608a.08.08 0 0 0-.093.064l-1.719 9.511m2.924 2.705a.505.505 0 1 1-1.01 0 .505.505 0 0 1 1.01 0Z"/></svg>