<svg xmlns="http://www.w3.org/2000/svg" fill="none" viewBox="0 0 16 16"><path fill="currentColor" d="M6.2 13.6a.5.5 0 0 0 0-1zm7.3-6.5a.5.5 0 0 0 1 0zm-6 6a.5.5 0 0 0 1 0zm1.134-3.468a.5.5 0 1 0-.927-.375zM13.5 13.1a.5.5 0 0 0 1 0zm1-1.91a.5.5 0 0 0-1 0zM9.081 7.708a.5.5 0 1 0 .504.863zm4.327 2.038a.5.5 0 1 0 .95-.314zM9.3 13.7a.5.5 0 0 0 1 0zm1-1.306a.5.5 0 1 0-1 0zm1.4 1.306a.5.5 0 0 0 1 0zm-2.4-2.612a.5.5 0 1 0 1 0zM2 4.2a.5.5 0 0 0 0 1zm12 1a.5.5 0 0 0 0-1zM3.428 3.171a.5.5 0 0 0 .744.67zm.75.663a.5.5 0 1 0-.744-.67zm1.05-.663a.5.5 0 0 0 .744.67zm.75.663a.5.5 0 0 0-.744-.67zm1.05-.663a.5.5 0 0 0 .744.67zm.75.663a.5.5 0 0 0-.744-.67zM6.2 13.1v-.5h-3v1h3zm-3 0v-.5a.7.7 0 0 1-.7-.7h-1a1.7 1.7 0 0 0 1.7 1.7zM2 11.9h.5V3.5h-1v8.4zm0-8.4h.5a.7.7 0 0 1 .7-.7v-1a1.7 1.7 0 0 0-1.7 1.7zm1.2-1.2v.5h9.6v-1H3.2zm9.6 0v.5a.7.7 0 0 1 .7.7h1a1.7 1.7 0 0 0-1.7-1.7zM14 3.5h-.5v3.6h1V3.5zm-6 9.6h.5v-2.783h-1V13.1zm0-2.783h.5q.002-.361.134-.685l-.463-.187-.464-.188c-.134.33-.207.688-.207 1.06zm6 2.783h.5v-1.91h-1v1.91zM9.333 8.14l.252.432c.4-.233.886-.372 1.415-.372v-1c-.704 0-1.365.185-1.919.509zM11 7.7v.5c1.184 0 2.124.69 2.408 1.547l.475-.157.475-.157C13.919 8.108 12.55 7.2 11 7.2zm-1.2 6h.5v-1.306h-1V13.7zm2.4 0h.5v-3.088h-1V13.7zm0-3.088h.5C12.7 9.686 11.902 9 11 9v1c.423 0 .7.31.7.612zM11 9.5V9c-.902 0-1.7.686-1.7 1.612h1c0-.303.277-.612.7-.612zm-1.2 1.112h-.5v.476h1v-.476zM2 4.7v.5h12v-1H2zm1.8-1.194.372.334.006-.006-.372-.335-.372-.334-.006.006zm1.8 0 .372.334.006-.006-.372-.335-.372-.334-.006.006zm1.8 0 .372.334.006-.006-.372-.335-.372-.334-.006.006z"/></svg>