<svg xmlns="http://www.w3.org/2000/svg" fill="none" viewBox="0 0 16 16"><path stroke="currentColor" stroke-linecap="round" stroke-linejoin="round" d="M14 6.2v2.4M2 6.2v5.64c0 .199.161.36.36.36H8.6M2.36 2.6h3.707a.36.36 0 0 1 .234.087L8.2 4.313a.36.36 0 0 0 .234.087h5.207a.36.36 0 0 1 .36.36v1.68a.36.36 0 0 1-.36.36H2.36A.36.36 0 0 1 2 6.44V2.96a.36.36 0 0 1 .36-.36m10.938 8.9q0 .073-.011.146l.326.248a.074.074 0 0 1 .018.096l-.309.52a.08.08 0 0 1-.095.032l-.324-.127a.12.12 0 0 0-.109.012q-.075.05-.155.088a.11.11 0 0 0-.064.085l-.048.336a.08.08 0 0 1-.027.045.1.1 0 0 1-.05.019h-.617a.1.1 0 0 1-.05-.018.08.08 0 0 1-.027-.044l-.049-.335a.11.11 0 0 0-.065-.086 1 1 0 0 1-.154-.088.12.12 0 0 0-.11-.012l-.323.127a.1.1 0 0 1-.053 0 .08.08 0 0 1-.042-.033l-.308-.518a.074.074 0 0 1 .017-.097l.276-.21a.11.11 0 0 0 .043-.099 1 1 0 0 1 0-.174.11.11 0 0 0-.043-.098l-.276-.21a.074.074 0 0 1-.017-.096l.308-.518a.08.08 0 0 1 .095-.032l.324.126a.12.12 0 0 0 .11-.012q.073-.05.155-.088a.11.11 0 0 0 .063-.085l.049-.336a.08.08 0 0 1 .026-.045.1.1 0 0 1 .05-.019h.618q.027 0 .05.018a.08.08 0 0 1 .027.044l.048.335a.115.115 0 0 0 .065.086q.081.038.155.088a.12.12 0 0 0 .109.012l.323-.127a.1.1 0 0 1 .054 0 .08.08 0 0 1 .041.033l.309.518a.074.074 0 0 1-.018.097l-.276.21a.11.11 0 0 0-.044.099q.005.043.005.087"/></svg>