<svg xmlns="http://www.w3.org/2000/svg" fill="none" viewBox="0 0 16 16"><path fill="currentColor" d="M5.257 4.571a.5.5 0 0 0-.514.858zM8 6.8l-.257.429a.5.5 0 0 0 .514 0zm3.257-1.371a.5.5 0 0 0-.514-.858zM6.8 12.7a.5.5 0 0 0 0-1zm6.7-4.786a.5.5 0 0 0 1 0zm.5 2.553.351.355a.5.5 0 0 0 0-.711zM10.22 13.9a.5.5 0 0 0 0-1zm2.241-5.656a.5.5 0 0 0-.702.712zm-.702 3.734a.5.5 0 1 0 .702.711zM5 5l-.257.429 3 1.8L8 6.8l.257-.429-3-1.8zm3 1.8.257.429 3-1.8L11 5l-.257-.429-3 1.8zm-1.2 5.4v-.5H3.2v1h3.6zm-3.6 0v-.5a.7.7 0 0 1-.7-.7h-1a1.7 1.7 0 0 0 1.7 1.7zM2 11h.5V3.8h-1V11zm0-7.2h.5a.7.7 0 0 1 .7-.7v-1a1.7 1.7 0 0 0-1.7 1.7zm1.2-1.2v.5h9.6v-1H3.2zm9.6 0v.5a.7.7 0 0 1 .7.7h1a1.7 1.7 0 0 0-1.7-1.7zM14 3.8h-.5v4.114h1V3.8zm0 6.667v-.5h-3.78v1H14zm-3.78 0v-.5c-.66 0-1.198.227-1.572.608a1.94 1.94 0 0 0-.548 1.358c0 .488.18.983.548 1.359.374.38.913.608 1.572.608v-1c-.42 0-.692-.14-.858-.309a.94.94 0 0 1-.262-.658c0-.245.09-.483.262-.658.166-.169.437-.308.858-.308zm3.78 0 .351-.356-1.89-1.867-.351.356-.351.356 1.89 1.866zm0 0-.351-.356-1.89 1.867.351.355.351.356 1.89-1.867z"/></svg>