<svg xmlns="http://www.w3.org/2000/svg" fill="none" viewBox="0 0 16 16"><path fill="currentColor" d="M8 2a6 6 0 0 0-1.897 11.693c.3.056.41-.13.41-.289 0-.143-.005-.52-.008-1.02-1.669.362-2.021-.805-2.021-.805-.273-.693-.667-.878-.667-.878-.544-.372.041-.364.041-.364.603.042.92.618.92.618.535.918 1.404.652 1.747.499.054-.388.208-.652.38-.803-1.333-.15-2.733-.665-2.733-2.964 0-.655.232-1.19.618-1.61-.068-.152-.27-.762.052-1.588 0 0 .503-.162 1.65.615.48-.134.99-.2 1.5-.203.51.003 1.02.069 1.5.203 1.14-.777 1.642-.615 1.642-.615.323.826.12 1.436.06 1.588.383.42.615.955.615 1.61 0 2.305-1.402 2.812-2.737 2.96.21.18.405.547.405 1.11 0 .803-.008 1.447-.008 1.643 0 .157.106.345.413.284A5.98 5.98 0 0 0 14 8a6 6 0 0 0-6-6"/></svg>