<svg xmlns="http://www.w3.org/2000/svg" fill="none" viewBox="0 0 16 16"><path stroke="currentColor" stroke-linecap="round" stroke-linejoin="round" d="M6.082 2.002 9.347 2m-3.265.002L2 8.86m4.082-6.857 2.8 5.427M9.348 2 4.043 12.286M9.347 2l3.06 5.143M2 8.859l2.043 3.427M2 8.859h6m-3.957 3.427h3.673m6.093-1.905c-.353-.897-1.16-1.524-2.1-1.524-1.005 0-1.859.717-2.168 1.714m3.313-.13h.803c.19 0 .343-.153.343-.343v-.927m-4.38 2.734c.353.897 1.16 1.524 2.1 1.524 1.005 0 1.858-.717 2.168-1.715m-3.314.13h-.803a.343.343 0 0 0-.342.343v.927"/></svg>