<svg xmlns="http://www.w3.org/2000/svg" fill="none" viewBox="0 0 16 16"><path fill="currentColor" d="M1.5 12.273a.5.5 0 1 0 1 0zm7.636 0a.5.5 0 1 0 1 0zM8.046 9a.5.5 0 0 0 1 0zm5.454.273a.5.5 0 0 0 1 0zm-11.5 3h.5v-.546h-1v.546zm0-.546h.5A3.32 3.32 0 0 1 5.818 8.41v-1A4.32 4.32 0 0 0 1.5 11.727zM5.818 7.91v.5a3.32 3.32 0 0 1 3.318 3.318h1A4.32 4.32 0 0 0 5.818 7.41zm3.818 3.818h-.5v.546h1v-.546zM8.546 9h.5c0-1.23.997-2.227 2.227-2.227v-1A3.227 3.227 0 0 0 8.045 9zm2.727-2.727v.5c1.23 0 2.227.997 2.227 2.227h1a3.227 3.227 0 0 0-3.227-3.227zM14 9h-.5v.273h1V9zM5.818 7.91v.5C7.3 8.41 8.5 7.207 8.5 5.726h-1c0 .93-.753 1.682-1.682 1.682zM8 5.726h.5c0-1.48-1.2-2.682-2.682-2.682v1c.929 0 1.682.753 1.682 1.682zM5.818 3.545v-.5a2.68 2.68 0 0 0-2.682 2.682h1c0-.929.753-1.682 1.682-1.682zM3.636 5.727h-.5c0 1.481 1.201 2.682 2.682 2.682v-1a1.68 1.68 0 0 1-1.682-1.682zm7.637.546v.5c1.18 0 2.136-.957 2.136-2.137h-1c0 .628-.509 1.137-1.136 1.137zm1.636-1.637h.5c0-1.18-.956-2.136-2.136-2.136v1c.627 0 1.136.509 1.136 1.136zM11.273 3v-.5c-1.18 0-2.137.956-2.137 2.136h1c0-.627.51-1.136 1.137-1.136zM9.636 4.636h-.5c0 1.18.957 2.137 2.137 2.137v-1a1.136 1.136 0 0 1-1.137-1.137z"/></svg>