<svg xmlns="http://www.w3.org/2000/svg" fill="none" viewBox="0 0 16 16"><path stroke="currentColor" d="m3.2 7.4-.291.073A1.2 1.2 0 0 0 2 8.637v1.126c0 .55.375 1.03.909 1.164l1.044.261a.36.36 0 0 0 .447-.35V7.562a.36.36 0 0 0-.447-.35zm0 0v-.3a4.8 4.8 0 1 1 9.6 0v.3m0 0 .291.073A1.2 1.2 0 0 1 14 8.637v1.126a1.2 1.2 0 0 1-.909 1.164L12.8 11m0-3.6-.753-.188a.36.36 0 0 0-.447.349v3.278c0 .234.22.406.447.349L12.8 11m0 0v.6a1.2 1.2 0 0 1-1.2 1.2H9.8m0 0a.9.9 0 0 0-.9-.9H7.1a.9.9 0 1 0 0 1.8h1.8a.9.9 0 0 0 .9-.9Z"/></svg>