<svg xmlns="http://www.w3.org/2000/svg" fill="none" viewBox="0 0 16 16"><path fill="currentColor" fill-rule="evenodd" d="m8.13 2.02 4.655 1.486a.43.43 0 0 1 .299.408v4.828c0 1.89-1.315 3.209-2.516 4.023a10.6 10.6 0 0 1-2.376 1.194l-.044.015-.011.004-.005.001a.44.44 0 0 1-.262.001h-.002l-.003-.002-.012-.004-.044-.015-.157-.056a10.605 10.605 0 0 1-2.22-1.138c-1.2-.814-2.515-2.134-2.515-4.023V3.914c0-.186.12-.352.298-.408L7.87 2.02l.065-.015a.4.4 0 0 1 .196.015M7.26 5.257a.277.277 0 0 0-.277.277v.871a.277.277 0 0 1-.276.277h-.872a.276.276 0 0 0-.276.277V8.44c0 .153.123.277.276.277h.872c.153 0 .276.124.276.276v.873c0 .152.124.276.277.276h1.483a.276.276 0 0 0 .276-.276v-.873c0-.152.124-.276.277-.276h.871a.277.277 0 0 0 .278-.277V6.96a.277.277 0 0 0-.278-.277h-.87a.277.277 0 0 1-.278-.277v-.871a.277.277 0 0 0-.276-.277z" clip-rule="evenodd"/></svg>