<svg xmlns="http://www.w3.org/2000/svg" fill="none" viewBox="0 0 16 16"><path fill="currentColor" fill-rule="evenodd" d="M8 1.5a6.5 6.5 0 1 1 0 13 6.5 6.5 0 0 1 0-13m.441 9.616a.65.65 0 0 0-.918.048l-.005.007a.65.65 0 1 0 .965.87l.006-.007a.65.65 0 0 0-.048-.918m-.59-7.141a2.4 2.4 0 0 0-1.556.548c-.458.389-.745.965-.745 1.677a.65.65 0 0 0 1.3 0c0-.338.126-.549.287-.685.175-.149.432-.24.714-.24s.538.091.713.24c.161.136.287.348.287.685 0 .253-.06.388-.126.487-.085.128-.199.228-.41.417-.192.173-.45.411-.646.758-.203.359-.318.791-.318 1.338a.65.65 0 1 0 1.3 0c0-.353.07-.559.149-.697.084-.15.202-.268.385-.433.163-.147.425-.366.622-.66.215-.324.343-.713.343-1.21 0-.712-.287-1.288-.745-1.677a2.4 2.4 0 0 0-1.554-.548" clip-rule="evenodd"/></svg>