<svg xmlns="http://www.w3.org/2000/svg" fill="none" viewBox="0 0 16 16"><path fill="currentColor" fill-rule="evenodd" d="M8 2a6 6 0 1 1 0 12A6 6 0 0 1 8 2m.34 9.229a.5.5 0 0 0-.705.036l-.006.006a.5.5 0 0 0 .742.67l.007-.006a.5.5 0 0 0-.037-.707m-.49-7.104a2.26 2.26 0 0 0-1.457.513C5.969 4.997 5.7 5.53 5.7 6.2a.5.5 0 0 0 1 0c0-.38.144-.634.34-.8.205-.174.499-.275.81-.275s.605.1.811.275c.195.166.339.42.339.8 0 .281-.067.447-.15.571-.098.147-.229.26-.434.445-.191.172-.432.396-.616.72-.189.334-.3.74-.3 1.264a.5.5 0 0 0 1 0c0-.375.077-.608.17-.771.097-.172.231-.305.415-.47.17-.152.413-.358.597-.633C9.88 7.03 10 6.67 10 6.2c0-.669-.27-1.203-.692-1.562a2.26 2.26 0 0 0-1.457-.513" clip-rule="evenodd"/></svg>