<svg xmlns="http://www.w3.org/2000/svg" fill="none" viewBox="0 0 16 16"><path fill="currentColor" fill-rule="evenodd" d="M8 1a7 7 0 1 1 0 14A7 7 0 0 1 8 1m2.638 3.127a4.605 4.605 0 0 0-5.738.62.403.403 0 0 0 0 .565l2.542 2.542-.013.147.014.145A.725.725 0 1 0 8.3 7.29l-.145-.015a1 1 0 0 0-.145.014l-.74-.74a1.7 1.7 0 0 1 1.833.039 1.702 1.702 0 1 1-2.649 1.401.4.4 0 0 0-.8-.006 2.502 2.502 0 0 0 3.67 2.228 2.502 2.502 0 0 0 .224-4.287 2.5 2.5 0 0 0-2.856.048l-.926-.927a3.8 3.8 0 0 1 4.44-.245 3.804 3.804 0 0 1-.101 6.465 3.804 3.804 0 0 1-4.721-.662 3.8 3.8 0 0 1-.93-1.742.722.722 0 0 0-.484-1.26.726.726 0 0 0-.711.579l-.015.146.015.146c.046.224.198.409.4.506.175.81.568 1.563 1.14 2.173a4.603 4.603 0 0 0 7.72-4.611 4.6 4.6 0 0 0-1.88-2.413" clip-rule="evenodd"/></svg>