<svg xmlns="http://www.w3.org/2000/svg" fill="none" viewBox="0 0 16 16"><path fill="currentColor" d="M4.388 4.523a.376.376 0 1 1-.753 0 .376.376 0 0 1 .753 0M4.388 7.996a.376.376 0 1 1-.753 0 .376.376 0 0 1 .753 0"/><path stroke="currentColor" stroke-linecap="round" stroke-linejoin="round" d="M6.375 4.516h5.804M6.375 8h5.804m-5.804 3.485h5.804m-8.822-.23.459.46 1.146-1.148M3.357 14.5h9.286a1.857 1.857 0 0 0 1.857-1.857V3.357A1.857 1.857 0 0 0 12.643 1.5H3.357A1.857 1.857 0 0 0 1.5 3.357v9.286c0 1.025.831 1.857 1.857 1.857m1.03-9.977a.376.376 0 1 1-.752 0 .376.376 0 0 1 .753 0m0 3.473a.376.376 0 1 1-.752 0 .376.376 0 0 1 .753 0"/></svg>