<svg xmlns="http://www.w3.org/2000/svg" fill="none" viewBox="0 0 16 16"><path stroke="currentColor" d="M9.083 4.75h3.09a.3.3 0 0 1 .25.134l1.966 2.95a.3.3 0 0 1 0 .332l-1.967 2.95a.3.3 0 0 1-.25.134H9.245a.3.3 0 0 1-.25-.134L6.917 8m2.166-3.25L6.917 8m2.166-3.25L7.006 1.634a.3.3 0 0 0-.25-.134H3.827a.3.3 0 0 0-.25.134l-1.966 2.95a.3.3 0 0 0 0 .332l1.967 2.95a.3.3 0 0 0 .25.134h3.089m2.055 3.416-1.966 2.95a.3.3 0 0 1-.25.134H3.827a.3.3 0 0 1-.25-.134l-1.966-2.95a.3.3 0 0 1 0-.332l1.967-2.95A.3.3 0 0 1 3.828 8h2.928a.3.3 0 0 1 .25.134l1.966 2.95a.3.3 0 0 1 0 .332Z"/></svg>