<svg xmlns="http://www.w3.org/2000/svg" fill="none" viewBox="0 0 16 16"><path fill="currentColor" d="M13.362 8a.5.5 0 1 0 1 0zm-5.431 6.43a.5.5 0 1 0 0-1zm.991-12.634a.5.5 0 1 0-.796.605zM9.803 8a.5.5 0 1 0 1 0zM6.94 14.204a.5.5 0 0 0 .796-.605zm.796-11.803a.5.5 0 0 0-.796-.605zM2.373 9.576a.5.5 0 1 0 0 1zm5.558 1a.5.5 0 0 0 0-1zM2.373 5.424a.5.5 0 0 0 0 1zm11.116 1a.5.5 0 0 0 0-1zm.301 5.086-.262.425zm-.027.652.057.497zm-1.522.173-.056-.497-.27.03-.121.244zm-.683 1.371-.447-.223zm-.622-.198-.49.1zm-.745-3.627-.49.1zm.445-.312-.262.426zM13.862 8h.5a6.43 6.43 0 0 0-6.431-6.43v1c3 0 5.431 2.432 5.431 5.431zM7.931 2.07v-.5A6.43 6.43 0 0 0 1.5 8h1c0-3 2.432-5.431 5.431-5.431zM2 8h-.5a6.43 6.43 0 0 0 6.431 6.43v-1C4.931 13.43 2.5 11 2.5 8zm6.524-5.902-.398.302.002.003.06.085q.068.097.186.291c.157.259.369.642.58 1.134.425.984.85 2.391.85 4.087h1c0-1.863-.466-3.406-.931-4.484-.233-.539-.466-.963-.643-1.255a7 7 0 0 0-.307-.464zM7.338 13.902l.398-.302-.002-.003-.01-.015-.05-.07a6 6 0 0 1-.187-.291 9 9 0 0 1-.58-1.134A10.35 10.35 0 0 1 6.06 8h-1c0 1.863.465 3.406.93 4.483.233.54.466.964.643 1.256a7 7 0 0 0 .307.464zM5.558 8h.5c0-1.696.425-3.103.85-4.087a9 9 0 0 1 .58-1.134 6 6 0 0 1 .246-.376l.003-.003-.4-.302-.398-.302v.001l-.002.003-.024.033-.064.09a7 7 0 0 0-.217.338c-.177.292-.41.716-.643 1.255A11.35 11.35 0 0 0 5.06 8zm-3.185 2.076v.5h5.558v-1H2.373zm0-4.152v.5H13.49v-1H2.373zM13.79 11.51l-.262.425c-.014-.008-.03-.028-.028-.065 0-.02.008-.065.048-.114a.25.25 0 0 1 .159-.09l.056.496.057.497c.452-.051.666-.427.68-.748a.93.93 0 0 0-.448-.827zm-.027.652-.056-.496-1.522.172.056.497.056.497 1.523-.173zm-1.522.173-.447-.223-.683 1.371.447.223.448.223.683-1.371zm-.683 1.371-.447-.223a.25.25 0 0 1 .14-.118.2.2 0 0 1 .123-.006c.035.011.048.032.051.049l-.49.1-.49.1c.073.354.33.61.626.704.306.097.732.025.935-.383zm-.622-.198.49-.1-.745-3.628-.49.1-.49.101.745 3.628zm-.745-3.627.49-.1c.006.026.001.122-.095.19-.097.067-.189.038-.212.024l.262-.426.262-.426a.8.8 0 0 0-.886.009.8.8 0 0 0-.31.83zm.445-.312-.262.426 3.154 1.94.262-.425.262-.426-3.154-1.94z"/></svg>