<svg xmlns="http://www.w3.org/2000/svg" fill="none" viewBox="0 0 16 16"><path fill="currentColor" d="M8 3.5a.5.5 0 0 0 0 1zm2.667 1a.5.5 0 0 0 0-1zm-5.334 7a.5.5 0 0 0 0 1zM8 12.5a.5.5 0 0 0 0-1zM8 4v.5h1.333v-1H8zm2.667 0v-.5H9.333v1h1.334zM9.333 4l-.474-.158-2.667 8 .475.158.474.158 2.667-8zm-2.666 8v-.5H5.333v1h1.334zm0 0v.5H8v-1H6.667zM2 13.6h.5V2.4h-1v11.2zM2 2.4h.5a.1.1 0 0 1-.1.1v-1a.9.9 0 0 0-.9.9zm.4-.4v.5h11.2v-1H2.4zm11.2 0v.5a.1.1 0 0 1-.1-.1h1a.9.9 0 0 0-.9-.9zm.4.4h-.5v11.2h1V2.4zm0 11.2h-.5a.1.1 0 0 1 .1-.1v1a.9.9 0 0 0 .9-.9zm-.4.4v-.5H2.4v1h11.2zM2.4 14v-.5a.1.1 0 0 1 .1.1h-1a.9.9 0 0 0 .9.9z"/></svg>