<svg xmlns="http://www.w3.org/2000/svg" fill="none" viewBox="0 0 16 16"><path fill="currentColor" d="M7.999 5.706c.712 0 1.176.174 1.451.412.231.2.377.484.405.873l.005.174c-.007.446-.136.723-.444 1.031-.184.184-.395.389-.536.671-.085.17-.135.353-.165.56h-1.43c-.031-.207-.081-.39-.166-.56-.141-.282-.352-.487-.536-.67-.308-.308-.437-.586-.444-1.032-.008-.48.146-.819.41-1.047.275-.238.738-.412 1.45-.412"/><path fill="currentColor" fill-rule="evenodd" d="M8 1.5a6.5 6.5 0 1 1 0 13 6.5 6.5 0 0 1 0-13m-.787 9.817a.5.5 0 0 0 0 1h1.573a.5.5 0 0 0 0-1zM5.206 9.573a.5.5 0 0 0-.707 0l-.394.394a.5.5 0 0 0 .707.707l.394-.394a.5.5 0 0 0 0-.707m6.294 0a.5.5 0 0 0-.707.707l.394.394a.5.5 0 0 0 .707-.707zM7.999 4.706c-.86 0-1.588.21-2.103.655-.528.456-.768 1.1-.756 1.82.011.723.257 1.243.736 1.722.209.21.293.3.349.411.05.1.094.258.094.613a.5.5 0 0 0 .5.5h2.36a.5.5 0 0 0 .5-.5c0-.355.046-.514.095-.613.056-.11.14-.202.349-.41.479-.48.725-1 .736-1.723.012-.72-.228-1.364-.755-1.82-.516-.445-1.244-.655-2.105-.655M4.813 4.46a.5.5 0 0 0-.708.707l.394.394a.5.5 0 0 0 .707-.707zm7.08 0a.5.5 0 0 0-.707 0l-.393.394a.5.5 0 0 0 .707.707l.394-.394a.5.5 0 0 0 0-.707" clip-rule="evenodd"/></svg>