<svg xmlns="http://www.w3.org/2000/svg" fill="none" viewBox="0 0 16 16"><g clip-path="url(#a)"><path stroke="currentColor" stroke-linecap="round" stroke-linejoin="round" d="M14.501 14.501H2.655c-.405 0-.607 0-.762-.079a.72.72 0 0 1-.315-.315c-.08-.155-.08-.357-.08-.762V1.5m12.28 3.612-2.83 3.02c-.107.115-.16.173-.226.202a.36.36 0 0 1-.182.032c-.071-.007-.14-.043-.28-.115L7.907 7.028c-.14-.072-.209-.109-.28-.115a.36.36 0 0 0-.182.031c-.065.03-.119.087-.226.202l-2.83 3.021"/></g><defs><clipPath id="a"><path fill="currentColor" d="M0 0h16v16H0z"/></clipPath></defs></svg>