<svg xmlns="http://www.w3.org/2000/svg" fill="none" viewBox="0 0 16 16"><path fill="currentColor" d="M9.778 8v.5h.489v-1h-.49zm.489 0v.5a.1.1 0 0 1-.1-.1h1a.9.9 0 0 0-.9-.9zm.4.4h-.5v2.533h1V8.4zm0 2.533h-.5a.1.1 0 0 1 .1-.1v1a.9.9 0 0 0 .9-.9zm-.4.4v-.5H5.733v1h4.534zm-4.534 0v-.5a.1.1 0 0 1 .1.1h-1a.9.9 0 0 0 .9.9zm-.4-.4h.5V8.4h-1v2.533zm0-2.533h.5a.1.1 0 0 1-.1.1v-1a.9.9 0 0 0-.9.9zm.4-.4v.5h.49v-1h-.49zm4.045 0h.5V6.333h-1V8zm0-1.667h.5a2.28 2.28 0 0 0-.46-1.346c-.364-.475-.957-.82-1.818-.82v1c.561 0 .857.21 1.026.43.186.242.252.545.252.736zM8 4.667v-.5c-.86 0-1.454.345-1.819.82a2.28 2.28 0 0 0-.459 1.346h1c0-.19.066-.494.252-.737.169-.22.465-.43 1.026-.43zM6.222 6.333h-.5V8h1V6.333zM9.778 8v-.5H6.222v1h3.556zM2 12.667h.5V3.333h-1v9.334zm0-9.334h.5c0-.46.373-.833.833-.833v-1C2.321 1.5 1.5 2.32 1.5 3.333zM3.333 2v.5h9.334v-1H3.333zm9.334 0v.5c.46 0 .833.373.833.833h1c0-1.012-.82-1.833-1.833-1.833zM14 3.333h-.5v9.334h1V3.333zm0 9.334h-.5c0 .46-.373.833-.833.833v1c1.012 0 1.833-.82 1.833-1.833zM12.667 14v-.5H3.333v1h9.334zm-9.334 0v-.5a.833.833 0 0 1-.833-.833h-1c0 1.012.82 1.833 1.833 1.833z"/></svg>