<svg xmlns="http://www.w3.org/2000/svg" fill="none" viewBox="0 0 16 16"><path fill="currentColor" d="M4.46 5.948a.5.5 0 1 0-.556.832zM6.635 8l-.277.416a.5.5 0 0 0 .555 0zm2.732-1.22a.5.5 0 0 0-.554-.832zm1.36 5.538a.5.5 0 0 0 0-1zm.045-5.954a.5.5 0 0 0 1 0zM14 9.59a.5.5 0 0 0 0-1zm-3.273-.5-.353-.354a.5.5 0 0 0 0 .707zm1.99-1.283a.5.5 0 1 0-.707-.707zm-.707 3.273a.5.5 0 1 0 .707-.707zM4.182 6.364l-.278.416L6.36 8.416 6.636 8l.278-.416-2.455-1.636zM6.636 8l.278.416L9.368 6.78l-.277-.416-.277-.416-2.455 1.636zm4.091 3.818v-.5H3.091v1h7.636zm-7.636 0v-.5a.59.59 0 0 1-.591-.59h-1c0 .878.712 1.59 1.59 1.59zM2 10.728h.5V5.272h-1v5.454zm0-5.455h.5a.59.59 0 0 1 .59-.591v-1a1.59 1.59 0 0 0-1.59 1.59zm1.09-1.091v.5h7.092v-1H3.09zm7.092 0v.5a.59.59 0 0 1 .59.59h1a1.59 1.59 0 0 0-1.59-1.59zm1.09 1.09h-.5v1.092h1V5.273zM14 9.092v-.5h-3.273v1H14zm-3.273 0 .354.353 1.636-1.636-.353-.353-.354-.354-1.636 1.636zm0 0-.353.353 1.636 1.637.354-.354.353-.353-1.636-1.637z"/></svg>