<svg xmlns="http://www.w3.org/2000/svg" fill="none" viewBox="0 0 16 16"><path fill="currentColor" d="M5.287 5.79a.5.5 0 1 0-.574.82zM8 8.3l-.287.41a.5.5 0 0 0 .574 0zm3.287-1.69a.5.5 0 1 0-.574-.82zM5 6.2l-.287.41 3 2.1L8 8.3l.287-.41-3-2.1zm3 2.1.287.41 3-2.1L11 6.2l-.287-.41-3 2.1zM2 11h.5V5h-1v6zm0-6h.5a.7.7 0 0 1 .7-.7v-1A1.7 1.7 0 0 0 1.5 5zm1.2-1.2v.5h9.6v-1H3.2zm9.6 0v.5a.7.7 0 0 1 .7.7h1a1.7 1.7 0 0 0-1.7-1.7zM14 5h-.5v6h1V5zm0 6h-.5a.7.7 0 0 1-.7.7v1a1.7 1.7 0 0 0 1.7-1.7zm-1.2 1.2v-.5H3.2v1h9.6zm-9.6 0v-.5a.7.7 0 0 1-.7-.7h-1a1.7 1.7 0 0 0 1.7 1.7z"/></svg>