<svg xmlns="http://www.w3.org/2000/svg" fill="none" viewBox="0 0 16 16"><path fill="currentColor" d="M14 11.5a.5.5 0 0 0 0 1v-1m1.5 1a.5.5 0 0 0 0-1v1M2 8.5a.5.5 0 0 0 0-1v1m0 4a.5.5 0 0 0 0-1v1m12-5a.5.5 0 0 0 0 1v-1m1.25.5v-.5zm.25-.25h.5zm0-3.5H15zM15.25 4v.5zM14 3.5a.5.5 0 0 0 0 1v-1m-12 1a.5.5 0 0 0 0-1v1m-1.5-1a.5.5 0 0 0 0 1v-1M2 13.586h.5V2.414h-1v11.172zM2 2.414h.5a.1.1 0 0 1-.029.073q-.02.015-.027.013v-1c-.489 0-.944.378-.944.914zM2.444 2v.5h11.112v-1H2.444zm11.112 0v.5q-.008.002-.027-.013a.1.1 0 0 1-.029-.073h1c0-.536-.455-.914-.944-.914zm.444.414h-.5v11.172h1V2.414zm0 11.172h-.5a.1.1 0 0 1 .029-.073q.02-.015.027-.013v1c.489 0 .944-.378.944-.914zm-.444.414v-.5H2.444v1h11.112zM2.444 14v-.5q.008-.002.027.013a.1.1 0 0 1 .029.073h-1c0 .536.455.914.944.914zM14 6v-.5H2v1h12zm0 4v-.5H2v1h12zm0 2v.5h1.5v-1H14zM2 8v-.5H.75v1H2zm-1.5.25H0v3.5h1v-3.5zM.75 12v.5H2v-1H.75zm-.25-.25H0c0 .414.336.75.75.75v-1a.25.25 0 0 1 .25.25zM.75 8v-.5a.75.75 0 0 0-.75.75h1a.25.25 0 0 1-.25.25zM14 8v.5h1.25v-1H14zm1.5-.25h.5v-3.5h-1v3.5zM15.25 4v-.5H14v1h1.25zm.25.25h.5a.75.75 0 0 0-.75-.75v1a.25.25 0 0 1-.25-.25zM15.25 8v.5a.75.75 0 0 0 .75-.75h-1a.25.25 0 0 1 .25-.25zM2 4v-.5H.5v1H2zm10 0h-.5v1a1 1 0 0 0 1-1zm-.5.5V4h-1a1 1 0 0 0 1 1zM11 4h.5V3a1 1 0 0 0-1 1zm.5-.5V4h1a1 1 0 0 0-1-1zM12 8h-.5v1a1 1 0 0 0 1-1zm-.5.5V8h-1a1 1 0 0 0 1 1zM11 8h.5V7a1 1 0 0 0-1 1zm.5-.5V8h1a1 1 0 0 0-1-1zM12 12h-.5v1a1 1 0 0 0 1-1zm-.5.5V12h-1a1 1 0 0 0 1 1zM11 12h.5v-1a1 1 0 0 0-1 1zm.5-.5v.5h1a1 1 0 0 0-1-1z"/></svg>