<svg xmlns="http://www.w3.org/2000/svg" fill="none" viewBox="0 0 16 16"><path fill="currentColor" d="M7.848 7.847a.52.52 0 1 1-.737-.736.52.52 0 0 1 .737.736"/><path fill="currentColor" d="m11.46 11.6.347.36zm.859-2.134a.5.5 0 1 0 .924.38l-.462-.19zm1.578 5.138a.5.5 0 0 0 .707-.707l-.353.354zM7.48 3.796l.354-.354a.5.5 0 0 0-.707 0zm3.684 3.683.353.354a.5.5 0 0 0 0-.707zm-3.684 3.683-.353.354a.5.5 0 0 0 .707 0zM4.15 7.126a.5.5 0 0 0-.706.707l.353-.354zm1.489-1.488-.354-.354a.5.5 0 0 0 0 .707zm1.841 7.57v-.5A5.23 5.23 0 0 1 2.25 7.48h-1a6.23 6.23 0 0 0 6.23 6.23zM1.75 7.48h.5a5.23 5.23 0 0 1 5.23-5.23v-1a6.23 6.23 0 0 0-6.23 6.23zm5.73-5.73v.5a5.23 5.23 0 0 1 5.23 5.23h1a6.23 6.23 0 0 0-6.23-6.23zm3.98 9.852-.347-.36A5.2 5.2 0 0 1 7.48 12.71v1a6.2 6.2 0 0 0 4.328-1.749zm1.75-4.122h-.5c0 .704-.139 1.375-.39 1.987l.462.19.462.19c.3-.73.466-1.53.466-2.367zm-1.607 4.122-.354.354 2.65 2.65.353-.354.353-.354-2.649-2.65zm-.143 0 .348.36a.4.4 0 0 1-.56-.006l.354-.354.354-.353a.6.6 0 0 0-.843-.007zM7.48 3.796l-.353.354 3.683 3.683.354-.354.353-.353-3.683-3.684zm3.684 3.683-.354-.353-3.683 3.683.353.353.354.354 3.683-3.683zm-3.684 3.683.354-.353L4.15 7.126l-.354.353-.353.354 3.683 3.683zm0-7.366-.353-.354-1.842 1.842.354.354.353.353L7.833 4.15zM5.638 5.638l-.354.353 1.474 1.473.353-.353.354-.354L5.99 5.284zm2.21 2.21-.354-.354a.02.02 0 0 1-.03 0l-.353.353-.353.354a1.02 1.02 0 0 0 1.443 0zm-.737 0 .354-.354a.02.02 0 0 1 0-.03l-.354-.353-.353-.354a1.02 1.02 0 0 0 0 1.444zm0-.737.354.353a.02.02 0 0 1 .03 0l.353-.353.353-.354a1.02 1.02 0 0 0-1.443 0zm.737 0-.354.353a.02.02 0 0 1 0 .03l.354.353.353.354a1.02 1.02 0 0 0 0-1.444z"/></svg>