<svg xmlns="http://www.w3.org/2000/svg" fill="none" viewBox="0 0 16 16"><path fill="currentColor" d="M5 8.3a.3.3 0 1 0 0-.6.3.3 0 0 0 0 .6M8 8.3a.3.3 0 1 0 0-.6.3.3 0 0 0 0 .6M11 8.3a.3.3 0 1 0 0-.6.3.3 0 0 0 0 .6"/><path stroke="currentColor" stroke-linecap="round" stroke-linejoin="round" d="M5 8.3a.3.3 0 1 0 0-.6.3.3 0 0 0 0 .6M8 8.3a.3.3 0 1 0 0-.6.3.3 0 0 0 0 .6M11 8.3a.3.3 0 1 0 0-.6.3.3 0 0 0 0 .6"/><path stroke="currentColor" stroke-linecap="round" stroke-linejoin="round" d="M8 14A6 6 0 1 0 8 2a6 6 0 0 0 0 12"/></svg>