<svg xmlns="http://www.w3.org/2000/svg" fill="none" viewBox="0 0 16 16"><path fill="currentColor" d="M8.625 2.925a.625.625 0 1 1-1.25 0 .625.625 0 0 1 1.25 0M8.625 8.005a.625.625 0 1 1-1.25 0 .625.625 0 0 1 1.25 0M8.625 13.075a.625.625 0 1 1-1.25 0 .625.625 0 0 1 1.25 0"/><path stroke="currentColor" stroke-linecap="round" stroke-linejoin="round" d="M8.625 2.925a.625.625 0 1 1-1.25 0 .625.625 0 0 1 1.25 0M8.625 8.005a.625.625 0 1 1-1.25 0 .625.625 0 0 1 1.25 0M8.625 13.075a.625.625 0 1 1-1.25 0 .625.625 0 0 1 1.25 0"/></svg>