<svg xmlns="http://www.w3.org/2000/svg" fill="none" viewBox="0 0 16 16"><path fill="currentColor" d="M13.075 8.625a.625.625 0 1 1 0-1.25.625.625 0 0 1 0 1.25M7.995 8.625a.625.625 0 1 1 0-1.25.625.625 0 0 1 0 1.25M2.925 8.625a.625.625 0 1 1 0-1.25.625.625 0 0 1 0 1.25"/><path stroke="currentColor" stroke-linecap="round" stroke-linejoin="round" d="M13.075 8.625a.625.625 0 1 1 0-1.25.625.625 0 0 1 0 1.25M7.995 8.625a.625.625 0 1 1 0-1.25.625.625 0 0 1 0 1.25M2.925 8.625a.625.625 0 1 1 0-1.25.625.625 0 0 1 0 1.25"/></svg>