<svg xmlns="http://www.w3.org/2000/svg" fill="none" viewBox="0 0 16 16"><path fill="currentColor" fill-rule="evenodd" d="M2 2.83A.83.83 0 0 1 2.83 2h10.34a.83.83 0 0 1 .83.83v10.34a.83.83 0 0 1-.83.83H2.83a.83.83 0 0 1-.83-.83zM7.174 7.66c-.138-.096-.25-.253-.25-.582 0-.53.145-.761.283-.875C7.362 6.072 7.617 6 8 6s.638.072.793.202c.138.114.284.345.284.875 0 .33-.113.486-.251.582-.168.116-.444.187-.826.187s-.658-.071-.826-.187m-.524.76c.389.268.883.35 1.35.35.35 0 .713-.046 1.037-.181v.003c-.04.341-.114.59-.233.775-.214.332-.692.634-2.035.634a.462.462 0 1 0 0 .923c1.427 0 2.333-.314 2.812-1.058.226-.353.325-.759.373-1.168C10 8.296 10 7.85 10 7.402v-.017a.5.5 0 0 0-.01-.097q.01-.103.01-.211c0-.7-.199-1.24-.618-1.586-.4-.333-.916-.414-1.382-.414s-.981.081-1.382.414C6.198 5.838 6 6.376 6 7.077c0 .594.232 1.052.65 1.341" clip-rule="evenodd"/></svg>