<svg xmlns="http://www.w3.org/2000/svg" fill="none" viewBox="0 0 16 16"><path fill="currentColor" d="M8.5 10.667a.5.5 0 0 0 1 0zM9 5.333h.5a.5.5 0 0 0-.887-.316zM6 9l-.387-.317A.5.5 0 0 0 6 9.5zm4 .5a.5.5 0 0 0 0-1zm-8 4.1h.5V2.4h-1v11.2zM2 2.4h.5a.1.1 0 0 1-.1.1v-1a.9.9 0 0 0-.9.9zm.4-.4v.5h11.2v-1H2.4zm11.2 0v.5a.1.1 0 0 1-.1-.1h1a.9.9 0 0 0-.9-.9zm.4.4h-.5v11.2h1V2.4zm0 11.2h-.5a.1.1 0 0 1 .1-.1v1a.9.9 0 0 0 .9-.9zm-.4.4v-.5H2.4v1h11.2zM2.4 14v-.5a.1.1 0 0 1 .1.1h-1a.9.9 0 0 0 .9.9zM9 10.667h.5V5.333h-1v5.334zm0-5.334-.387-.316-3 3.666L6 9l.387.317 3-3.667zM6 9v.5h4v-1H6z"/></svg>