<svg xmlns="http://www.w3.org/2000/svg" fill="none" viewBox="0 0 16 16"><path fill="currentColor" fill-rule="evenodd" d="M2 2.83A.83.83 0 0 1 2.83 2h10.34a.83.83 0 0 1 .83.83v10.34a.83.83 0 0 1-.83.83H2.83a.83.83 0 0 1-.83-.83zm6.826 5.511c.138.096.25.253.25.582 0 .53-.145.761-.283.876-.155.129-.41.201-.793.201s-.638-.072-.793-.201c-.138-.115-.284-.346-.284-.876 0-.33.113-.486.251-.582.168-.116.444-.187.826-.187s.658.071.826.187m.524-.76c-.389-.268-.883-.35-1.35-.35-.35 0-.713.046-1.037.181v-.003c.04-.341.114-.59.233-.775C7.41 6.302 7.888 6 9.23 6a.462.462 0 0 0 0-.923c-1.427 0-2.333.314-2.812 1.058-.226.353-.325.759-.373 1.168C6 7.704 6 8.15 6 8.598v.017q0 .05.01.097-.01.103-.01.211c0 .7.199 1.24.618 1.586.4.333.916.414 1.382.414s.981-.081 1.382-.414c.42-.347.618-.885.618-1.586 0-.594-.232-1.052-.65-1.341" clip-rule="evenodd"/></svg>