<svg xmlns="http://www.w3.org/2000/svg" fill="none" viewBox="0 0 16 16"><path fill="currentColor" d="M8.167 10.667a.5.5 0 0 0 1 0zm.5-5.334h.5a.5.5 0 0 0-.854-.353zM6.313 6.98a.5.5 0 0 0 .707.707zM2 13.6h.5V2.4h-1v11.2zM2 2.4h.5a.1.1 0 0 1-.1.1v-1a.9.9 0 0 0-.9.9zm.4-.4v.5h11.2v-1H2.4zm11.2 0v.5a.1.1 0 0 1-.1-.1h1a.9.9 0 0 0-.9-.9zm.4.4h-.5v11.2h1V2.4zm0 11.2h-.5a.1.1 0 0 1 .1-.1v1a.9.9 0 0 0 .9-.9zm-.4.4v-.5H2.4v1h11.2zM2.4 14v-.5a.1.1 0 0 1 .1.1h-1a.9.9 0 0 0 .9.9zm6.267-3.333h.5V5.333h-1v5.334zm0-5.334-.354-.353-2 2 .354.353.353.354 2-2z"/></svg>