<svg xmlns="http://www.w3.org/2000/svg" fill="none" viewBox="0 0 16 16"><path fill="currentColor" d="M6.5 10.667a.5.5 0 0 0 1 0zm3.167-5.334.353.354a.5.5 0 0 0-.353-.854zm-3.334-.5a.5.5 0 0 0 0 1zM2 13.6h.5V2.4h-1v11.2zM2 2.4h.5a.1.1 0 0 1-.1.1v-1a.9.9 0 0 0-.9.9zm.4-.4v.5h11.2v-1H2.4zm11.2 0v.5a.1.1 0 0 1-.1-.1h1a.9.9 0 0 0-.9-.9zm.4.4h-.5v11.2h1V2.4zm0 11.2h-.5a.1.1 0 0 1 .1-.1v1a.9.9 0 0 0 .9-.9zm-.4.4v-.5H2.4v1h11.2zM2.4 14v-.5a.1.1 0 0 1 .1.1h-1a.9.9 0 0 0 .9.9zM7 10.667h.5c0-1.183.6-2.415 1.25-3.39a12 12 0 0 1 1.246-1.565l.02-.02.004-.005-.353-.354-.354-.353-.001.001-.002.002-.007.007-.116.122a13.246 13.246 0 0 0-1.27 1.61C7.234 7.749 6.5 9.184 6.5 10.668zm2.667-5.334v-.5H6.333v1h3.334z"/></svg>