<svg xmlns="http://www.w3.org/2000/svg" fill="none" viewBox="0 0 16 16"><path fill="currentColor" d="M5.833 8.667a.5.5 0 0 0 1 0zm3.5-2.834a.5.5 0 1 0 0-1zM2 13.6h.5V2.4h-1v11.2zM2 2.4h.5a.1.1 0 0 1-.1.1v-1a.9.9 0 0 0-.9.9zm.4-.4v.5h11.2v-1H2.4zm11.2 0v.5a.1.1 0 0 1-.1-.1h1a.9.9 0 0 0-.9-.9zm.4.4h-.5v11.2h1V2.4zm0 11.2h-.5a.1.1 0 0 1 .1-.1v1a.9.9 0 0 0 .9-.9zm-.4.4v-.5H2.4v1h11.2zM2.4 14v-.5a.1.1 0 0 1 .1.1h-1a.9.9 0 0 0 .9.9zM8 10.667v-.5c-.416 0-.69-.079-.86-.219-.15-.124-.307-.374-.307-.948h-1c0 .759.216 1.342.67 1.718.434.36.992.449 1.497.449zM6.333 9h.5c0-.357.122-.527.273-.63.181-.126.48-.203.894-.203v-1c-.506 0-1.041.089-1.463.38-.453.313-.704.81-.704 1.453zM8 7.667v.5c.414 0 .713.077.894.203.15.103.273.273.273.63h1c0-.643-.251-1.14-.704-1.453-.422-.291-.957-.38-1.463-.38zM9.667 9h-.5c0 .574-.158.824-.308.948-.168.14-.443.219-.859.219v1c.505 0 1.063-.089 1.498-.449.453-.376.669-.959.669-1.718zm-3.334-.333h.5c0-.508.001-.936.044-1.308.043-.369.123-.638.252-.839.231-.36.75-.687 2.204-.687v-1c-1.545 0-2.527.34-3.045 1.147-.246.382-.353.822-.405 1.265-.05.44-.05.93-.05 1.422z"/></svg>