<svg xmlns="http://www.w3.org/2000/svg" fill="none" viewBox="0 0 16 16"><path fill="currentColor" fill-rule="evenodd" d="M2 2.83A.83.83 0 0 1 2.83 2h10.34a.83.83 0 0 1 .83.83v10.34a.83.83 0 0 1-.83.83H2.83a.83.83 0 0 1-.83-.83zM8 6c.696 0 1.077.435 1.077.77 0 .257-.072.443-.178.56-.098.109-.272.208-.591.208a.462.462 0 0 0 0 .924c.32 0 .493.1.591.208.106.117.178.303.178.56 0 .335-.38.77-1.077.77-.696 0-1.077-.435-1.077-.77a.462.462 0 0 0-.923 0c0 1.026.997 1.693 2 1.693s2-.667 2-1.692c0-.422-.118-.851-.416-1.18L9.536 8l.048-.05c.298-.33.416-.759.416-1.18 0-1.026-.997-1.693-2-1.693s-2 .667-2 1.692a.462.462 0 0 0 .923 0C6.923 6.435 7.303 6 8 6" clip-rule="evenodd"/></svg>