<svg xmlns="http://www.w3.org/2000/svg" fill="none" viewBox="0 0 16 16"><path fill="currentColor" fill-rule="evenodd" d="M2.83 2a.83.83 0 0 0-.83.83v10.34c0 .458.372.83.83.83h10.34a.83.83 0 0 0 .83-.83V2.83a.83.83 0 0 0-.83-.83zm4.093 5.015c0-.578.446-1.015.959-1.015s.958.437.958 1.015c0 .198-.053.38-.143.535-.285.485-.895 1.114-1.474 1.646a22 22 0 0 1-1.028.888l-.016.012-.003.003h-.001a.462.462 0 0 0 .287.824h3.076a.462.462 0 0 0 0-.923H7.712q.067-.06.136-.125c.577-.53 1.283-1.241 1.645-1.858.172-.294.27-.637.27-1.002 0-1.053-.825-1.938-1.881-1.938S6 5.962 6 7.015v.247a.462.462 0 0 0 .923 0z" clip-rule="evenodd"/></svg>