<svg xmlns="http://www.w3.org/2000/svg" fill="none" viewBox="0 0 16 16"><path stroke="currentColor" stroke-linecap="round" stroke-linejoin="round" d="M12.53 7.988V4.245a.36.36 0 0 0-.105-.254L10.54 2.105A.36.36 0 0 0 10.286 2H3.309a.36.36 0 0 0-.36.36v11.257c0 .198.161.36.36.36H7.14M5.345 6.79h4.79m-4.79-2.395H7.74m-2.395 4.79H7.14m4.164 1.76.6-.598a.671.671 0 1 1 .949.95l-.6.598m-.949-.95-1.79 1.792a.6.6 0 0 0-.169.331L9.201 14l.932-.145a.6.6 0 0 0 .33-.168l1.792-1.792m-.95-.95.95.95M10.135 2v2.036c0 .198.161.36.36.36h2.035"/></svg>