<svg xmlns="http://www.w3.org/2000/svg" fill="none" viewBox="0 0 16 16"><path stroke="currentColor" stroke-linecap="round" d="M7.798 5.798V2.95a.95.95 0 1 1 1.9 0v3.453l.782-2.808a.934.934 0 1 1 1.794.52l-1.282 4.273m-2.727-.341c.121-.335.107-.703-.04-1.027l-.632-1.403a.933.933 0 1 0-1.688.796l.08.163m3.54 4.662.29-.58a.104.104 0 0 0-.064-.146L7.66 9.897A.905.905 0 0 1 8 8.127l2.82.262s2.245.345 1.468 2.59S11.251 14 9.525 14H6.59a2.503 2.503 0 0 1-2.504-2.503L4 6.662m1.85-.39.622 1.38a.95.95 0 0 1-1.732.78l-.622-1.38a.95.95 0 0 1 1.732-.78Z"/></svg>