<svg xmlns="http://www.w3.org/2000/svg" fill="none" viewBox="0 0 16 16"><path fill="currentColor" d="M7.005 6.506a.5.5 0 0 0 0-1v1m-.989-.5v-.5zm.003 4v-.5zm4.481.5a.5.5 0 0 0 0-1v1M15 8h-.5A6.5 6.5 0 0 1 8 14.5v1A7.5 7.5 0 0 0 15.5 8zm-7 7v-.5A6.5 6.5 0 0 1 1.5 8h-1A7.5 7.5 0 0 0 8 15.5zM1 8h.5A6.5 6.5 0 0 1 8 1.5v-1A7.5 7.5 0 0 0 .5 8zm7-7v.5A6.5 6.5 0 0 1 14.5 8h1A7.5 7.5 0 0 0 8 .5zm-.995 5.006v-.5h-.989v1h.989zm-.989 0v-.5c-.665 0-1.306.257-1.781.719l.348.358.349.359a1.56 1.56 0 0 1 1.084-.436zm-1.433.577-.348-.358A2.5 2.5 0 0 0 3.5 8.009h1c0-.4.158-.8.432-1.067zM4 8.01h-.5c0 .66.27 1.29.745 1.752l.349-.358.348-.359A1.44 1.44 0 0 1 4.5 8.01zm.594 1.394-.349.358c.461.449 1.09.745 1.774.745v-1c-.392 0-.778-.171-1.077-.462zm1.425.603v.5H10.5v-1H6.019zM7 6h-.5a1 1 0 0 0 1 1V6zm.5.5V7a1 1 0 0 0 1-1h-1zM8 6h.5a1 1 0 0 0-1-1v1zm-.5-.5V5a1 1 0 0 0-1 1h1zM10 6h-.5a1 1 0 0 0 1 1V6zm.5.5V7a1 1 0 0 0 1-1h-1zM11 6h.5a1 1 0 0 0-1-1v1zm-.5-.5V5a1 1 0 0 0-1 1h1zM10 10h-.5a1 1 0 0 0 1 1v-1zm.5.5v.5a1 1 0 0 0 1-1h-1zm.5-.5h.5a1 1 0 0 0-1-1v1zm-.5-.5V9a1 1 0 0 0-1 1h1z"/></svg>