<svg xmlns="http://www.w3.org/2000/svg" fill="none" viewBox="0 0 16 16"><path fill="currentColor" d="M3.1 3.5a.5.5 0 0 0 1 0h-1m8.308-1.395-.354.354zm1.889 1.89.354-.354zM4.1 13a.5.5 0 1 0-1 0h1m-.5.64h-.5zm0-10.14h.5V2.36h-1V3.5zm0-1.14h.5a.16.16 0 0 1-.047.123C4.045 2.49 4.03 2.5 4 2.5v-1c-.23 0-.444.09-.602.228a.84.84 0 0 0-.298.632zM4 2v.5h7.153v-1H4zm7.153 0v.5a.14.14 0 0 1-.099-.041l.354-.354.354-.353a.86.86 0 0 0-.609-.252zm.255.105-.354.354 1.89 1.89.353-.354.354-.354-1.89-1.89zm1.889 1.89-.354.353a.14.14 0 0 1-.04-.099h1a.86.86 0 0 0-.252-.608zm.105.254h-.5v9.391h1V4.25zm0 9.391h-.5a.14.14 0 0 1 .14-.14v1a.86.86 0 0 0 .86-.86zM11.002 2h-.5v2.04h1V2zm0 2.04h-.5c0 .475.385.86.86.86v-1a.14.14 0 0 1 .14.14zm.36.36v.5h2.04v-1h-2.04zM3.6 13.64h.5V13h-1v.64zm.36.36v-.5a.14.14 0 0 1 .14.14h-1c0 .475.385.86.86.86zm.54-7v.5h4v-1h-4zm.1 0h-.5a.5.5 0 0 1-.5.5v1A1.5 1.5 0 0 0 5.1 7zm-1 1v-.5a.5.5 0 0 1-.5-.5h-1a1.5 1.5 0 0 0 1.5 1.5zm-1-1h.5a.5.5 0 0 1 .5-.5v-1A1.5 1.5 0 0 0 2.1 7zm1-1v.5a.5.5 0 0 1 .5.5h1a1.5 1.5 0 0 0-1.5-1.5zM10 7h-.5a.5.5 0 0 1-.5.5v1A1.5 1.5 0 0 0 10.5 7zM9 8v-.5a.5.5 0 0 1-.5-.5h-1A1.5 1.5 0 0 0 9 8.5zM8 7h.5a.5.5 0 0 1 .5-.5v-1A1.5 1.5 0 0 0 7.5 7zm1-1v.5a.5.5 0 0 1 .5.5h1A1.5 1.5 0 0 0 9 5.5zm1 4.5h-.5a.5.5 0 0 1-.5.5v1a1.5 1.5 0 0 0 1.5-1.5zm-1 1V11a.5.5 0 0 1-.5-.5h-1A1.5 1.5 0 0 0 9 12zm-1-1h.5A.5.5 0 0 1 9 10V9a1.5 1.5 0 0 0-1.5 1.5zm1-1v.5a.5.5 0 0 1 .5.5h1A1.5 1.5 0 0 0 9 9zM3.6 8h-.5v2h1V8zm.5 2.5v.5H8v-1H4.1zm-.5-.5h-.5a1 1 0 0 0 1 1v-1zm9.442 4v-.5H3.96v1h9.082z"/></svg>