<svg xmlns="http://www.w3.org/2000/svg" fill="none" viewBox="0 0 16 16"><path stroke="currentColor" stroke-linecap="round" stroke-linejoin="round" d="M3.75 8.75V4.267c0-.535.224-1.048.622-1.426.399-.379.94-.591 1.503-.591.564 0 1.104.212 1.503.59.398.379.622.892.622 1.427v7.466c0 .785.224 1.048.622 1.426.399.378.94.591 1.503.591.564 0 1.104-.213 1.503-.59.398-.379.622-.892.622-1.427V7.25m-6.75 5a1.75 1.75 0 1 1-3.5 0 1.75 1.75 0 0 1 3.5 0m8.5-8.5a1.75 1.75 0 1 1-3.5 0 1.75 1.75 0 0 1 3.5 0"/></svg>