<svg xmlns="http://www.w3.org/2000/svg" fill="none" viewBox="0 0 16 16"><path stroke="currentColor" stroke-linecap="round" stroke-linejoin="round" d="M11.716 7.714V4.142a.34.34 0 0 0-.1-.242l-1.8-1.8a.34.34 0 0 0-.242-.1H2.916a.343.343 0 0 0-.343.343v10.743c0 .19.154.343.343.343h4.8M4.86 6.57H9.43M4.86 4.286h2.286M4.859 8.857h1.714M9.43 2v1.943c0 .19.154.343.343.343h1.943M11.712 9.5l1.46.37c.152.04.26.178.254.334C13.328 13.494 11.43 14 11.43 14s-1.898-.505-1.996-3.796a.336.336 0 0 1 .255-.333l1.46-.371c.185-.047.378-.047.563 0"/></svg>