<svg xmlns="http://www.w3.org/2000/svg" fill="none" viewBox="0 0 16 16"><path stroke="currentColor" stroke-linecap="round" d="M7 6.703H5.667A.667.667 0 0 1 5 6.036V5.37c0-.368.298-.667.667-.667h.666c.369 0 .667.299.667.667zm0 0c0 .667-.667 1.333-1.333 2m5.333-2H9.667A.667.667 0 0 1 9 6.036V5.37c0-.368.298-.667.667-.667h.666c.368 0 .667.299.667.667zm0 0c0 .667-.667 1.333-1.333 2M2 13.563V3.37c0-.737.597-1.334 1.333-1.334h9.334c.736 0 1.333.597 1.333 1.334v6.666c0 .737-.597 1.334-1.333 1.334h-7.36c-.405 0-.788.184-1.04.5l-1.555 1.943a.4.4 0 0 1-.712-.25Z"/></svg>