<svg xmlns="http://www.w3.org/2000/svg" fill="none" viewBox="0 0 16 16"><path fill="currentColor" fill-rule="evenodd" d="M8 2a6 6 0 1 1 0 12A6 6 0 0 1 8 2m.54 3.348 1.282 1.327H6.644l-.075.005a2.468 2.468 0 0 0-.966.28c-.271.145-.553.37-.765.71-.213.342-.338.774-.338 1.305 0 1.18.506 1.853 1.082 2.2a2.3 2.3 0 0 0 1.059.324l.024.001h.495l.1-.01a.5.5 0 0 0 0-.98l-.1-.01h-.478q-.01 0-.032-.002a1.325 1.325 0 0 1-.553-.18c-.263-.159-.597-.5-.597-1.343 0-.37.086-.613.188-.777s.24-.278.388-.357a1.5 1.5 0 0 1 .603-.166h3.083L8.552 8.84a.5.5 0 0 0 .695.72l2.1-2.025a.5.5 0 0 0 .012-.707l-2.1-2.176a.501.501 0 0 0-.72.695m.72-.696" clip-rule="evenodd"/></svg>