<svg xmlns="http://www.w3.org/2000/svg" fill="none" viewBox="0 0 16 16"><path fill="currentColor" d="M10.315 6.8a.5.5 0 0 0 .897-.441l-.448.22zm-5.827.528a.5.5 0 0 0 .993.112l-.497-.056zm5.016-1.215a.5.5 0 1 0 0 1v-1m2.011-.84a.5.5 0 0 0-1 0h1M5.701 8.81a.5.5 0 1 0-.93.367l.465-.184zm5.812-.777a.5.5 0 1 0-.996-.09l.498.045zM6.496 9.465a.5.5 0 0 0 0-1v1m-2.012 1.176a.5.5 0 1 0 1 0h-1m9.547-2.654h-.5A5.53 5.53 0 0 1 8 13.517v1a6.53 6.53 0 0 0 6.53-6.53zM8 14.017v-.5a5.53 5.53 0 0 1-5.531-5.53h-1a6.53 6.53 0 0 0 6.53 6.53zm-6.031-6.03h.5a5.53 5.53 0 0 1 5.53-5.531v-1a6.53 6.53 0 0 0-6.53 6.531zm6.03-6.03v.499a5.53 5.53 0 0 1 5.532 5.531h1A6.53 6.53 0 0 0 8 1.457zm2.765 4.623.448-.221c-.558-1.133-1.807-1.887-3.22-1.887v1c1.067 0 1.949.568 2.323 1.329zM7.992 4.972v-.5c-1.775 0-3.32 1.205-3.504 2.856l.496.056.497.056C5.6 6.38 6.633 5.472 7.992 5.472zm1.512 1.641v.5h1.15v-1h-1.15zm1.15 0v.5a.86.86 0 0 0 .861-.862h-1c0-.076.062-.138.139-.138zm.361-.362h.5v-.978h-1v.978zM5.236 8.992l-.465.184c.53 1.344 1.76 2.326 3.236 2.326v-1c-1.003 0-1.903-.67-2.306-1.693zm2.771 2.01v.5c1.87 0 3.336-1.565 3.506-3.47l-.498-.045-.498-.045c-.132 1.481-1.244 2.56-2.51 2.56zM6.496 8.965v-.5h-1.15v1h1.15zm-1.15 0v-.5a.86.86 0 0 0-.862.862h1a.14.14 0 0 1-.138.138zm-.362.362h-.5v1.314h1V9.327z"/></svg>