<svg xmlns="http://www.w3.org/2000/svg" fill="none" viewBox="0 0 16 16"><path fill="currentColor" fill-rule="evenodd" d="M8 2a6 6 0 1 1 0 12A6 6 0 0 1 8 2m3.045 5.502a.5.5 0 0 0-.543.453C10.37 9.427 9.265 10.5 8.008 10.5c-.762 0-1.462-.39-1.93-1.026h.426l.1-.011a.5.5 0 0 0 0-.98l-.1-.01H5.36a.86.86 0 0 0-.86.86v1.307a.5.5 0 1 0 1 0v-.295c.63.705 1.513 1.155 2.508 1.155 1.861 0 3.32-1.559 3.49-3.455a.5.5 0 0 0-.453-.543M7.992 4.5c-1.712 0-3.208 1.127-3.468 2.691l-.021.154a.5.5 0 0 0 .994.111l.032-.195C5.744 6.295 6.726 5.5 7.992 5.5c.701 0 1.321.248 1.769.634h-.265a.5.5 0 0 0 0 1h1.144a.86.86 0 0 0 .86-.86V5.3a.5.5 0 0 0-1 0v.151C9.857 4.858 8.963 4.5 7.992 4.5" clip-rule="evenodd"/></svg>