<svg xmlns="http://www.w3.org/2000/svg" fill="none" viewBox="0 0 16 16"><path fill="currentColor" d="M10.301 6.821a.5.5 0 0 0 .897-.442zm-5.798.523a.5.5 0 1 0 .994.112zm4.993-1.21a.5.5 0 0 0 0 1zM11.5 5.3a.5.5 0 0 0-1 0zM5.715 8.817a.5.5 0 0 0-.93.366zm5.783-.772a.5.5 0 1 0-.996-.09zM6.504 9.473a.5.5 0 0 0 0-1zM4.5 10.64a.5.5 0 0 0 1 0zM14 8h-.5A5.5 5.5 0 0 1 8 13.5v1A6.5 6.5 0 0 0 14.5 8zm-6 6v-.5A5.5 5.5 0 0 1 2.5 8h-1A6.5 6.5 0 0 0 8 14.5zM2 8h.5A5.5 5.5 0 0 1 8 2.5v-1A6.5 6.5 0 0 0 1.5 8zm6-6v.5A5.5 5.5 0 0 1 13.5 8h1A6.5 6.5 0 0 0 8 1.5zm2.75 4.6.448-.221C10.642 5.251 9.398 4.5 7.993 4.5v1c1.06 0 1.936.565 2.308 1.321zM7.993 5v-.5c-1.768 0-3.306 1.2-3.49 2.844L5 7.4l.497.056C5.615 6.405 6.642 5.5 7.993 5.5zm1.503 1.633v.5h1.144v-1H9.496zm1.144 0v.5a.86.86 0 0 0 .86-.86h-1a.14.14 0 0 1 .14-.14zm.36-.36h.5V5.3h-1v.973zM5.25 9l-.465.183c.528 1.338 1.753 2.317 3.222 2.317v-1c-.997 0-1.89-.667-2.292-1.683zm2.757 2v.5c1.862 0 3.321-1.559 3.491-3.455L11 8l-.498-.045C10.37 9.428 9.265 10.5 8.007 10.5zM6.504 8.973v-.5H5.36v1h1.144zm-1.144 0v-.5a.86.86 0 0 0-.86.86h1a.14.14 0 0 1-.14.14zm-.36.36h-.5v1.307h1V9.333z"/></svg>