<svg xmlns="http://www.w3.org/2000/svg" fill="none" viewBox="0 0 16 16"><path fill="currentColor" fill-rule="evenodd" d="M8 1.5a6.5 6.5 0 1 1 0 13 6.5 6.5 0 0 1 0-13m3.393 6.356a.6.6 0 0 0-.657.538 2.735 2.735 0 0 1-4.651 1.659h.266a.6.6 0 0 0 0-1.2H4.884a.8.8 0 0 0-.8.8v1.467a.6.6 0 0 0 1.2 0v-.176a3.92 3.92 0 0 0 2.733 1.109 3.934 3.934 0 0 0 3.914-3.54.6.6 0 0 0-.538-.657M8 3.953a3.933 3.933 0 0 0-3.913 3.54.6.6 0 0 0 1.193.12 2.735 2.735 0 0 1 4.65-1.66h-.263a.6.6 0 0 0 0 1.2h1.467a.8.8 0 0 0 .8-.8V4.886a.6.6 0 0 0-1.2 0v.175A3.92 3.92 0 0 0 8 3.953" clip-rule="evenodd"/></svg>