<svg xmlns="http://www.w3.org/2000/svg" fill="none" viewBox="0 0 16 16"><path fill="currentColor" fill-rule="evenodd" d="M8 1.47A6.53 6.53 0 1 1 8 14.53 6.53 6.53 0 0 1 8 1.47m3.063 6.007a.526.526 0 0 0-.57.477c-.132 1.47-1.235 2.537-2.485 2.537-.743 0-1.431-.373-1.897-.988h.386a.525.525 0 0 0 0-1.05h-1.15a.89.89 0 0 0-.888.887v1.314a.526.526 0 0 0 1.051 0v-.24c.635.688 1.511 1.127 2.498 1.127 1.885 0 3.359-1.578 3.53-3.494a.525.525 0 0 0-.475-.57M7.993 4.46c-1.786 0-3.343 1.214-3.53 2.88a.526.526 0 0 0 1.043.117C5.623 6.412 6.644 5.51 7.993 5.51c.675 0 1.275.23 1.716.592h-.205a.525.525 0 1 0 0 1.05h1.15c.49 0 .886-.397.886-.887v-.978a.525.525 0 1 0-1.05 0v.101a3.75 3.75 0 0 0-2.497-.929" clip-rule="evenodd"/></svg>