<svg xmlns="http://www.w3.org/2000/svg" fill="none" viewBox="0 0 16 16"><path fill="currentColor" d="M7.4 13.6a.5.5 0 1 0 0-1zm6.1-5.9a.5.5 0 1 0 1 0zM2 4.2a.5.5 0 0 0 0 1zm12 1a.5.5 0 0 0 0-1zM3.428 3.172a.5.5 0 0 0 .744.669zm.75.662a.5.5 0 1 0-.744-.67zm1.05-.662a.5.5 0 1 0 .744.669zm.75.662a.5.5 0 1 0-.744-.67zm1.05-.662a.5.5 0 0 0 .744.669zm.75.662a.5.5 0 1 0-.744-.67zm5.557 6.85a.5.5 0 0 0 .93-.367zm-4.495-.132a.5.5 0 0 0 .956.296zm3.957-.489a.5.5 0 0 0 0 1zM14.5 9.23a.5.5 0 0 0-1 0zm-4.635 2.687a.5.5 0 0 0-.93.366zm4.495.131a.5.5 0 0 0-.956-.296zm-3.957.489a.5.5 0 1 0 0-1zM8.7 13.37a.5.5 0 1 0 1 0zm-1.3-.27v-.5H3.2v1h4.2zm-4.2 0v-.5a.7.7 0 0 1-.7-.7h-1a1.7 1.7 0 0 0 1.7 1.7zM2 11.9h.5V3.5h-1v8.4zm0-8.4h.5a.7.7 0 0 1 .7-.7v-1a1.7 1.7 0 0 0-1.7 1.7zm1.2-1.2v.5h9.6v-1H3.2zm9.6 0v.5a.7.7 0 0 1 .7.7h1a1.7 1.7 0 0 0-1.7-1.7zM14 3.5h-.5v4.2h1V3.5zM2 4.7v.5h12v-1H2zm1.8-1.194.372.335.006-.007-.372-.335-.372-.334-.006.007zm1.8 0 .372.335.006-.007-.372-.335-.372-.334-.006.007zm1.8 0 .372.335.006-.007-.372-.335-.372-.334-.006.007zm6.4 6.994.465-.183C13.83 9.214 12.817 8.4 11.595 8.4v1c.75 0 1.432.502 1.74 1.283zm-2.206-1.6v-.5c-1.308 0-2.375.93-2.754 2.152l.478.148.478.148c.27-.873.996-1.448 1.798-1.448zm1.203 1.663v.5h.843v-1h-.843zm.843 0v.5a.86.86 0 0 0 .86-.86h-1a.14.14 0 0 1 .14-.14zm.36-.36h.5V9.23h-1v.973zM9.4 12.1l-.465.183c.435 1.103 1.448 1.917 2.67 1.917v-1c-.75 0-1.432-.502-1.74-1.283zm2.206 1.6v.5c1.308 0 2.375-.93 2.754-2.152l-.478-.148-.478-.148c-.27.872-.996 1.448-1.798 1.448zm-1.203-1.663v-.5H9.56v1h.843zm-.843 0v-.5a.86.86 0 0 0-.86.86h1a.14.14 0 0 1-.14.14zm-.36.36h-.5v.973h1v-.973z"/></svg>