<svg xmlns="http://www.w3.org/2000/svg" fill="none" viewBox="0 0 16 16"><path fill="currentColor" d="m11.403 9.603.4-.3zm-.076 1.531-.368-.338zm-2.27 2.477-.369-.338zM3.01 11.642l.483-.128zM4.3 6.8a.5.5 0 1 0 1 0zm1.8 0a.5.5 0 0 0 1 0zm1.8 0a.5.5 0 1 0 1 0zm1.8 3a.5.5 0 1 0 1 0zm.5-1.8-.4.3 1.202 1.603.4-.3.4-.3L10.6 7.7zm1.203 1.603-.4.3a.7.7 0 0 1-.044.893l.368.338.369.338a1.7 1.7 0 0 0 .107-2.169zm-.076 1.531-.368-.338-2.27 2.477.368.338.368.338 2.27-2.477zm-2.27 2.477-.369-.338a.7.7 0 0 1-.515.227v1c.476 0 .93-.2 1.252-.551zM8.173 14v-.5H5.4v1h2.773zM5.4 14v-.5c-.504 0-.918-.27-1.255-.688a3.7 3.7 0 0 1-.65-1.298l-.484.128-.483.129c.121.457.391 1.114.838 1.669.45.558 1.123 1.06 2.034 1.06zm-2.39-2.358.484-.128a.2.2 0 0 1 .006.042h-1q-.001.104.028.215zM3 11.556h.5V6.457h-1v5.099zm0-5.099h.5c0-.229.072-.354.138-.42a.37.37 0 0 1 .262-.108c.099 0 .193.037.262.107.066.067.138.192.138.421h1c0-.457-.153-.846-.425-1.122a1.37 1.37 0 0 0-.975-.406c-.351 0-.707.134-.975.406C2.653 5.61 2.5 6 2.5 6.457zm1.8 0h-.5V6.8h1v-.343zm1.8.343h.5V5.77h-1V6.8zm0-1.029h.5c0-.457-.153-.845-.425-1.122a1.37 1.37 0 0 0-.975-.406c-.351 0-.707.134-.975.406-.272.277-.425.665-.425 1.122h1c0-.228.072-.354.138-.42a.37.37 0 0 1 .262-.108c.099 0 .193.037.262.108.066.066.138.192.138.42zm-1.8 0h-.5v.686h1V5.77zm3.6 1.03h.5V5.3h-1v1.5zm0-1.501h.5c0-.457-.153-.846-.425-1.122A1.37 1.37 0 0 0 7.5 3.77c-.351 0-.707.135-.975.407-.272.276-.425.665-.425 1.122h1c0-.229.072-.354.138-.42A.37.37 0 0 1 7.5 4.77c.099 0 .193.038.262.108.066.067.138.192.138.421zm-1.8 0h-.5v.471h1V5.3zm1.8 0h.5V2.9h-1V5.3zm0-2.4h.5a.4.4 0 0 1 .4-.4v-1a1.4 1.4 0 0 0-1.4 1.4zm.9-.9v.5c.22 0 .4.18.4.4h1a1.4 1.4 0 0 0-1.4-1.4zm.9.9h-.5V8h1V2.9zm0 5.1h-.5v1.8h1V8zm.038-3.3v.5h1.237v-1h-1.237zm1.237 0v.5c.335 0 .678-.08.942-.315.274-.244.383-.583.383-.935h-1c0 .145-.04.181-.048.188-.018.016-.087.062-.277.062zm.825-.75h.5c0-.352-.11-.69-.383-.935-.264-.235-.607-.315-.942-.315v1c.19 0 .26.046.277.062.008.007.048.043.048.188zM7.05 3.2v-.5c-.69 0-1.25.56-1.25 1.25h1a.25.25 0 0 1 .25-.25zm-.75.75h-.5v.15h1v-.15zm0 .15h-.5a1.1 1.1 0 0 0 1.1 1.1v-1a.1.1 0 0 1-.1-.1zm5.175-.9v-.5H7.05v1h4.425z"/></svg>