<svg xmlns="http://www.w3.org/2000/svg" fill="none" viewBox="0 0 16 16"><path fill="currentColor" d="M10.635 4.204v5.519H4.97V4.802c0-.33.267-.598.597-.598z"/><path fill="currentColor" fill-rule="evenodd" d="M2.338 3.13A2.637 2.637 0 0 1 5.386.982l7.439 1.291a2.636 2.636 0 0 1 2.147 3.047l-1.31 7.551a2.636 2.636 0 0 1-3.048 2.146l-7.438-1.29a2.637 2.637 0 0 1-2.148-3.047zm3.23.272a1.4 1.4 0 0 0-1.398 1.4v5.953c0 .771.627 1.397 1.398 1.397H9.06a.4.4 0 0 0 0-.8H5.57a.6.6 0 0 1-.598-.597v-.232h5.664v.595a.793.793 0 0 0 .399 1.479.792.792 0 0 0 .4-1.479V4.103a.7.7 0 0 0-.699-.7z" clip-rule="evenodd"/></svg>