<svg xmlns="http://www.w3.org/2000/svg" fill="none" viewBox="0 0 16 16"><path fill="currentColor" d="M12.553 10.662a.5.5 0 0 0 1 0zm-2.158.18a.5.5 0 1 0-1 0zM9.895 14h-.5a.5.5 0 0 0 .77.421zm1.579-1.01.27-.422a.5.5 0 0 0-.54 0zM13.053 14l-.27.421a.5.5 0 0 0 .77-.421zm0-3.158h.5a.5.5 0 0 0-.5-.5zm-5.369 3.026a.5.5 0 1 0 0-1zm-4.737-1.763h.5V3.263h-1v8.842zm0-8.842h.5c0-.421.342-.763.763-.763v-1c-.973 0-1.763.79-1.763 1.763zM4.21 2v.5h8.464v-1H4.21zm8.464 0v.5a.12.12 0 0 1-.121-.121h1a.88.88 0 0 0-.88-.879zm.379.379h-.5v8.283h1V2.379zm-3.158 8.463h-.5V14h1v-3.158zm0 3.158.27.421 1.578-1.01-.27-.421-.269-.422-1.579 1.01zm1.579-1.01-.27.42 1.579 1.011.27-.421.27-.421-1.58-1.01zM13.053 14h.5v-3.158h-1V14zM4.21 10.842v.5h8.843v-1H4.21zm0 0v-.5c-.973 0-1.763.79-1.763 1.763h1c0-.421.342-.763.763-.763zm-1.263 1.263h-.5c0 .974.79 1.763 1.763 1.763v-1a.763.763 0 0 1-.763-.763zm1.263 1.263v.5h3.474v-1H4.21z"/></svg>