<svg xmlns="http://www.w3.org/2000/svg" fill="none" viewBox="0 0 16 16"><path stroke="currentColor" stroke-linecap="round" stroke-linejoin="round" d="m5.9 2-.7 3.611M10.8 2l-.7 3.611m4.9 0H1M4.36 15h7.28c1.176 0 1.764 0 2.213-.236.396-.208.717-.54.918-.947.229-.463.229-1.07.229-2.284V5.467c0-1.214 0-1.82-.229-2.284a2.13 2.13 0 0 0-.918-.947C13.404 2 12.816 2 11.64 2H4.36c-1.176 0-1.764 0-2.213.236-.396.208-.717.54-.918.947C1 3.647 1 4.253 1 5.467v6.066c0 1.214 0 1.82.229 2.284.201.408.522.74.918.947C2.596 15 3.184 15 4.36 15"/></svg>