<svg xmlns="http://www.w3.org/2000/svg" fill="none" viewBox="0 0 16 16"><g clip-path="url(#a)"><path stroke="currentColor" stroke-linecap="round" d="m4.916 10.545-.817 1.414a2.059 2.059 0 1 0 3.566 2.059l4.015-6.954.466-.77.662-1.184a.01.01 0 0 1 .011-.003l.35.202a.823.823 0 1 0 .823-1.427l-4.279-2.47a.824.824 0 0 0-.823 1.426l.356.206m0 0 1.783 1.03m-1.783-1.03L8.114 5.005l-.723 1.29M5.74 9.119l1.446.834M5.739 9.12l-.823 1.426m2.475-4.25-.828 1.397-.824 1.427m.622 2.26-1.445-.834m1.647-2.853 1.445.835m-.617-2.232h4.755"/></g><defs><clipPath id="a"><path fill="currentColor" d="M0 0h16v16H0z"/></clipPath></defs></svg>