<svg xmlns="http://www.w3.org/2000/svg" fill="none" viewBox="0 0 16 16"><path fill="currentColor" d="M11.315 2.764a.5.5 0 1 1-.866.5.5.5 0 0 1 .866-.5"/><path stroke="currentColor" stroke-linecap="round" d="M10.873 3.012 8.468 1.624a.94.94 0 0 0-.937 0L2.721 4.4a.94.94 0 0 0-.468.812v5.553c0 .335.179.644.469.811l4.81 2.777c.29.168.646.168.936 0l4.81-2.777a.94.94 0 0 0 .468-.81V5.5a.48.48 0 0 0-.718-.415L10.873 6.33l-1.437.877-1.387.755a.1.1 0 0 1-.098-.002L5.127 6.33m6.188-3.566a.5.5 0 1 1-.866.5.5.5 0 0 1 .866-.5Z"/></svg>