<svg xmlns="http://www.w3.org/2000/svg" fill="none" viewBox="0 0 16 16"><path stroke="currentColor" stroke-linecap="round" stroke-linejoin="round" d="M9.429 4.286a2.286 2.286 0 0 1 2.285 2.285M9.43 2.001A4.57 4.57 0 0 1 14 6.57m-4.666 4.706L7.98 9.924M6.077 8.02 4.724 6.666m4.1-.318.828.828a.76.76 0 0 1 0 1.077l-4.716 4.715c-.474.474-1.235.598-1.782.211a1.35 1.35 0 0 1-.181-2.057l4.774-4.774a.76.76 0 0 1 1.077 0m.795 4.6-.496.54a.76.76 0 0 0 0 1.077l1.212 1.212a.76.76 0 0 0 1.077 0l.497-.539a.763.763 0 0 0 0-1.078l-1.212-1.212a.76.76 0 0 0-1.078 0M5.052 5.304 3.84 4.092a.763.763 0 0 0-1.078 0l-.539.497a.76.76 0 0 0 0 1.077l1.212 1.212a.76.76 0 0 0 1.078 0l.54-.497a.76.76 0 0 0 0-1.077"/></svg>