<svg xmlns="http://www.w3.org/2000/svg" fill="none" viewBox="0 0 16 16"><path fill="currentColor" d="M10.313 11.02a.5.5 0 0 0 .708-.706zM2 12.667h.5V3.333h-1v9.334zm0-9.334h.5c0-.46.373-.833.833-.833v-1C2.321 1.5 1.5 2.32 1.5 3.333zM3.333 2v.5h9.334v-1H3.333zm9.334 0v.5c.46 0 .833.373.833.833h1c0-1.012-.82-1.833-1.833-1.833zM14 3.333h-.5v9.334h1V3.333zm0 9.334h-.5c0 .46-.373.833-.833.833v1c1.012 0 1.833-.82 1.833-1.833zM12.667 14v-.5H3.333v1h9.334zm-9.334 0v-.5a.833.833 0 0 1-.833-.833h-1c0 1.012.82 1.833 1.833 1.833zm5.904-4.767.355.353c.502-.503.813-1.2.813-1.967h-1c0 .492-.199.938-.522 1.261zm.668-1.614h.5a2.786 2.786 0 0 0-2.786-2.786v1c.986 0 1.786.8 1.786 1.786zM7.619 5.333v-.5A2.786 2.786 0 0 0 4.833 7.62h1c0-.986.8-1.786 1.786-1.786zM5.333 7.62h-.5a2.786 2.786 0 0 0 2.786 2.786v-1c-.986 0-1.786-.8-1.786-1.786zM7.62 9.905v.5c.77 0 1.469-.314 1.973-.819l-.355-.353-.354-.353c-.323.325-.77.525-1.264.525zm1.618-.672-.354.353 1.43 1.434.354-.353.354-.353L9.59 8.88z"/></svg>