<svg xmlns="http://www.w3.org/2000/svg" fill="none" viewBox="0 0 16 16"><path fill="currentColor" fill-rule="evenodd" d="m11.323 5.632-.276.276H9.723a.37.37 0 0 0-.369.37V7.6l-.98.98a.37.37 0 0 0-.093.366c.054.182.089.355.089.53A1.847 1.847 0 1 1 6.523 7.63c.175 0 .348.035.53.089a.37.37 0 0 0 .366-.093l2.95-2.949h.954zm-4.8 3.106a.74.74 0 1 0 0 1.479.74.74 0 0 0 0-1.479" clip-rule="evenodd"/><path fill="currentColor" fill-rule="evenodd" d="M12.308 2C13.242 2 14 2.758 14 3.692v8.616c0 .934-.758 1.692-1.692 1.692H3.692A1.69 1.69 0 0 1 2 12.308V3.692C2 2.758 2.758 2 3.692 2zm-2.092 1.938A.37.37 0 0 0 10.01 4l-.056.046-2.909 2.908a2.4 2.4 0 0 0-.522-.062 2.586 2.586 0 1 0 2.585 2.585c0-.185-.026-.36-.063-.523l.94-.939a.37.37 0 0 0 .107-.261V6.646H11.2a.37.37 0 0 0 .26-.108l.494-.492a.37.37 0 0 0 .108-.262V4.308a.37.37 0 0 0-.37-.37z" clip-rule="evenodd"/></svg>