<svg xmlns="http://www.w3.org/2000/svg" fill="none" viewBox="0 0 16 16"><path fill="currentColor" d="M5.525 9.317a.792.792 0 1 1 0 1.585.792.792 0 0 1 0-1.585"/><path fill="currentColor" fill-rule="evenodd" d="M13.501 2a.5.5 0 0 1 .5.5v11.001a.5.5 0 0 1-.5.5H2.5a.5.5 0 0 1-.5-.5V2.5a.5.5 0 0 1 .5-.5zM5.525 8.517a1.593 1.593 0 0 0 0 3.183c.74 0 1.362-.506 1.54-1.191h5.002V9.215a.4.4 0 0 0-.8 0v.494h-.654v-.494a.4.4 0 0 0-.8 0v.494H7.064a1.59 1.59 0 0 0-1.539-1.192m-.904-4.461a.4.4 0 1 0-.574.556l.885.913-.885.914a.4.4 0 0 0 .574.557l1.155-1.191a.4.4 0 0 0 0-.558zm1.446 2.261a.4.4 0 0 0 0 .8h1.445a.4.4 0 0 0 0-.8z" clip-rule="evenodd"/></svg>