<svg xmlns="http://www.w3.org/2000/svg" fill="none" viewBox="0 0 16 16"><path fill="currentColor" d="M6.849 5.87a.5.5 0 1 0-.555.832zM9.143 8l-.277.416a.5.5 0 0 0 .554 0zm2.849-1.298a.5.5 0 1 0-.555-.832zm-8.85 1.655a.5.5 0 1 0 0 1zm1.144 1a.5.5 0 1 0 0-1zM2 6.643a.5.5 0 0 0 0 1zm2.286 1a.5.5 0 1 0 0-1zm-.5-2.214a.5.5 0 0 0 1 0zm1 5.142a.5.5 0 0 0-1 0zM6.57 6.286l-.277.416 2.572 1.714L9.143 8l.277-.416L6.85 5.87zM9.143 8l.277.416 2.572-1.714-.278-.416-.277-.416-2.571 1.714zm-6 .857v.5h1.143v-1H3.143zM2 7.143v.5h2.286v-1H2zm2.286-1.714h.5v-.286h-1v.286zm0-.286h.5c0-.355.288-.643.643-.643v-1c-.908 0-1.643.736-1.643 1.643zM5.429 4v.5h7.428v-1H5.43zm7.428 0v.5c.355 0 .643.288.643.643h1c0-.907-.735-1.643-1.643-1.643zM14 5.143h-.5v5.714h1V5.143zm0 5.714h-.5a.643.643 0 0 1-.643.643v1c.908 0 1.643-.735 1.643-1.643zM12.857 12v-.5H5.43v1h7.428zM5.43 12v-.5a.643.643 0 0 1-.643-.643h-1c0 .908.735 1.643 1.643 1.643zm-1.143-1.143h.5v-.286h-1v.286z"/></svg>