<svg xmlns="http://www.w3.org/2000/svg" fill="none" viewBox="0 0 16 16"><path stroke="currentColor" stroke-linecap="round" stroke-linejoin="round" d="M12.36 8a4.3 4.3 0 0 0-.155-1.09l1.395-1.2-.817-1.42-1.721.607a4.35 4.35 0 0 0-1.906-1.09L8.817 2H7.182l-.339 1.81a4.35 4.35 0 0 0-1.905 1.092l-1.72-.611L2.4 5.709l1.395 1.2Q3.648 7.445 3.64 8q.008.555.155 1.09L2.4 10.29l.817 1.42 1.721-.606c.532.52 1.188.896 1.906 1.09L7.182 14h1.635l.34-1.81a4.35 4.35 0 0 0 1.905-1.092l1.72.606.818-1.418-1.395-1.195q.147-.536.155-1.091"/><path stroke="currentColor" stroke-linecap="round" stroke-linejoin="round" d="M8 9.8a1.8 1.8 0 1 0 0-3.6 1.8 1.8 0 0 0 0 3.6"/></svg>