<svg xmlns="http://www.w3.org/2000/svg" fill="none" viewBox="0 0 16 16"><path fill="currentColor" fill-rule="evenodd" d="M8.755 2c.222 0 .413.158.454.376l.26 1.394a4.5 4.5 0 0 1 1.465.838l1.328-.467.08-.02a.46.46 0 0 1 .473.224l.755 1.31a.46.46 0 0 1-.1.58l-1.074.924q.085.412.09.835l.001.012q-.006.421-.091.833l1.074.92c.169.144.21.388.1.58l-.755 1.31a.46.46 0 0 1-.553.205l-1.328-.468c-.43.37-.927.655-1.464.84l-.26 1.397a.46.46 0 0 1-.455.377H7.246a.46.46 0 0 1-.454-.377l-.261-1.393a4.5 4.5 0 0 1-1.465-.839l-1.327.468a.46.46 0 0 1-.553-.205l-.754-1.309a.46.46 0 0 1 .098-.58l1.075-.925a4.4 4.4 0 0 1-.09-.834v-.012q.005-.421.09-.835L2.53 6.235a.46.46 0 0 1-.098-.58l.754-1.31.048-.066a.46.46 0 0 1 .506-.138l1.328.471c.43-.37.926-.654 1.462-.838l.262-1.397A.46.46 0 0 1 7.246 2zm-.754 3.877a2.123 2.123 0 1 0 0 4.247 2.123 2.123 0 0 0 0-4.247" clip-rule="evenodd"/></svg>