<svg xmlns="http://www.w3.org/2000/svg" fill="none" viewBox="0 0 16 16"><path fill="currentColor" d="m4.854 5.53.275.419zm3.692-2.427-.275-.418zm0 9.794.275-.418zM4.854 10.47l.275-.418zm6.988-5.834a.5.5 0 1 0-.684.73L11.5 5zm-.684 5a.5.5 0 1 0 .684.73L11.5 10zm1.655-7.024a.5.5 0 1 0-.626.78L12.5 3zm-.626 8.999a.5.5 0 0 0 .626.78L12.5 12zM1.5 9.14H2V6.86H1v2.28zm0-2.28H2c0-.4.326-.728.731-.728v-1a1.73 1.73 0 0 0-1.73 1.728zm1.231-1.228v.5h1.785v-1H2.73zm1.785 0v.5c.218 0 .431-.064.613-.183l-.275-.418-.274-.418a.1.1 0 0 1-.064.02zm.338-.101.275.418L8.821 3.52l-.275-.418-.275-.418L4.58 5.113zm3.692-2.428.275.418A.115.115 0 0 1 9 3.615h1c0-.889-.99-1.417-1.729-.93zm.954.512H9v8.77h1v-8.77zm0 8.77H9c0 .088-.1.146-.18.095l-.274.417-.275.418a1.115 1.115 0 0 0 1.729-.93zm-.954.512.275-.418-3.692-2.428-.275.418-.274.418 3.691 2.428zM4.854 10.47l.275-.418a1.1 1.1 0 0 0-.613-.183v1q.034 0 .064.019zm-.338-.101v-.5H2.73v1h1.785zm-1.785 0v-.5a.73.73 0 0 1-.73-.728H1a1.73 1.73 0 0 0 1.73 1.728zM11.5 5l-.342.365-.001-.001h-.001l.003.003q.006.004.022.022.031.03.091.103A3.14 3.14 0 0 1 12 7.5h1a4.14 4.14 0 0 0-.568-2.088 4 4 0 0 0-.527-.714l-.042-.043-.014-.013-.004-.005-.002-.001v-.001zm1 2.5H12a3.14 3.14 0 0 1-.432 1.584 3 3 0 0 1-.387.528l-.022.022-.003.003v-.001h.001L11.5 10l.342.364h.001l.002-.002.004-.005.056-.055q.052-.055.135-.153c.109-.13.25-.319.392-.562A4.14 4.14 0 0 0 13 7.5zm0-4.5-.314.39.012.01.052.045c.046.043.116.109.201.197.17.178.4.446.63.797.46.704.919 1.735.919 3.061h1a6.54 6.54 0 0 0-1.082-3.608 6.6 6.6 0 0 0-.745-.941 5 5 0 0 0-.349-.331l-.007-.006-.002-.002h-.001V2.61zm2 4.5H14a5.54 5.54 0 0 1-.919 3.06c-.23.352-.46.62-.63.798a4 4 0 0 1-.266.253h.001L12.5 12l.313.39v-.001h.002q0-.002.002-.003l.007-.006.022-.018.075-.067c.063-.056.15-.139.252-.246.205-.214.475-.529.745-.94A6.54 6.54 0 0 0 15 7.5z"/></svg>