<svg xmlns="http://www.w3.org/2000/svg" fill="none" viewBox="0 0 16 16"><path stroke="currentColor" stroke-linecap="round" stroke-linejoin="round" d="M2.504 8V2.36a.36.36 0 0 1 .36-.36h5.243M5.952 14h5.792a.36.36 0 0 0 .36-.36V9.687m-9.607 2.38c.786.549 1.605-.086 1.605-.368s-.503-.568-.82-.754c-.28-.164-.785-.375-.785-.657s.61-.976 1.605-.368m5-.233v2.608h1.457m-3.536-.201s.37.191.503.319c.097.092.211.269.211.269M8.8 4.494h3.96s1.54 0 1.54 1.65C14.3 8 12.76 8 12.76 8h-.44M8.8 4.494l1.925 1.856M8.8 4.494 10.725 2.5m-3.207 8.482c0 .707-.44 1.28-.981 1.28-.542 0-.982-.573-.982-1.28s.44-1.28.982-1.28.981.573.981 1.28"/></svg>