<svg xmlns="http://www.w3.org/2000/svg" fill="none" viewBox="0 0 16 16"><path stroke="currentColor" stroke-linecap="round" stroke-linejoin="round" d="M3.204 8V2.36a.36.36 0 0 1 .36-.36h6.99a.36.36 0 0 1 .255.105l1.89 1.89a.36.36 0 0 1 .105.254v9.391a.36.36 0 0 1-.36.36H6.65m3.35-12v2.433c0 .199.161.36.36.36h2.443m-9.607 7.274c.785.549 1.605-.086 1.605-.368s-.503-.568-.82-.754c-.28-.164-.785-.375-.785-.657s.609-.976 1.604-.368m5-.233v2.608h1.458m-3.537-.201s.37.191.504.319c.097.092.211.269.211.269m-.22-1.7c0 .707-.439 1.28-.98 1.28-.543 0-.982-.573-.982-1.28s.44-1.28.981-1.28c.542 0 .982.573.982 1.28"/></svg>