<svg xmlns="http://www.w3.org/2000/svg" fill="none" viewBox="0 0 16 16"><path stroke="currentColor" stroke-linecap="round" stroke-linejoin="round" d="m9.084 3.8-.595-1.198a.547.547 0 0 0-.978 0l-.297.6m2.593 2.054.24.486.872.126m1.743.254.87.126a.541.541 0 0 1 .303.925l-.63.61m-1.262 1.222-.63.61.149.862m.297 1.725.15.863a.545.545 0 0 1-.792.571l-.78-.407m-3.28-.729L8 12.007l.78.407m-4.577.007-.111.644a.545.545 0 0 0 .791.572l.509-.266m-.84-2.971.135-.785-.417-.404M3.02 8l-.855-.827a.541.541 0 0 1 .302-.925l.667-.097M5 5.88l.952-.138.482-.971"/></svg>