<svg xmlns="http://www.w3.org/2000/svg" fill="none" viewBox="0 0 16 16"><path stroke="currentColor" stroke-linecap="round" stroke-linejoin="round" d="m8 12.007 3.117 1.63c.4.209.867-.13.791-.572l-.595-3.45 2.522-2.442a.541.541 0 0 0-.302-.925l-3.485-.506-1.559-3.14a.547.547 0 0 0-.978 0l-.297.6m1.275-.6A.54.54 0 0 0 8 2.3v9.707m0 0-.943.493m-2.854-.079-.111.644a.545.545 0 0 0 .791.572l.509-.266m-.84-2.971.135-.785-.417-.404M3.02 8l-.855-.827a.541.541 0 0 1 .302-.925l.667-.097M5 5.88l.952-.138.482-.971"/></svg>