<svg xmlns="http://www.w3.org/2000/svg" fill="none" viewBox="0 0 16 16"><path fill="currentColor" d="M6.794 6.657a.5.5 0 1 0 1 0 .5.5 0 0 0-1 0M6.96 9.736a.5.5 0 1 0 1 0 .5.5 0 0 0-1 0"/><path stroke="currentColor" stroke-linecap="round" d="m3.24 3.667-.326.155a.69.69 0 0 0-.388.709l.109.852c.109.851.305 1.689.585 2.5l.42 1.22 1.346 2.44.59.845c.39.56.857 1.063 1.388 1.493l.597.485c.262.212.64.203.89-.021l.441-.393a13 13 0 0 0 1.479-1.564 9.6 9.6 0 0 0 1.142-1.817l.709-1.468.42-1.22q.421-1.22.665-2.487l.16-.837a.69.69 0 0 0-.38-.751L8.308 1.547a.69.69 0 0 0-.588 0L5.575 2.562m-.589 8.981L7.46 9.737m-3.82-.634 3.647-2.44m-.493-.006a.5.5 0 1 0 1 0 .5.5 0 0 0-1 0Zm.166 3.08a.5.5 0 1 0 1 0 .5.5 0 0 0-1 0Z"/></svg>