<svg xmlns="http://www.w3.org/2000/svg" fill="none" viewBox="0 0 16 16"><path fill="currentColor" d="M2 1.925v-.5a.5.5 0 0 0-.5.5zm5.454 0 .354-.354a.5.5 0 0 0-.354-.146zm6.067 6.066-.354.354zM3.692 9.78A.5.5 0 0 0 4.4 9.07l-.353.354zM2 7.379h-.5a.5.5 0 0 0 .146.354zm11.52 2.926-.353-.354zm-.874.167a.5.5 0 0 0 .708.707L13 10.825zm-5.113.744a.5.5 0 1 0-.707.707l.354-.354zm.235.941-.354.354a.5.5 0 0 0 .707 0zm1.586-.879a.5.5 0 1 0-.708-.707l.354.354zM2 1.925v.5h5.454v-1H2zm5.454 0-.353.354 6.066 6.066.354-.354.353-.353L7.808 1.57zm-3.408 7.5.353-.354-2.045-2.045L2 7.379l-.354.354 2.046 2.046zM2 7.379h.5V1.925h-1v5.454zM5.25 4.8h-.5c0-.069.056-.125.125-.125v1A.875.875 0 0 0 5.75 4.8zm-.375.375v-.5c.069 0 .125.056.125.125H4c0 .483.392.875.875.875zM4.5 4.8H5a.125.125 0 0 1-.125.125v-1A.875.875 0 0 0 4 4.8zm.375-.375v.5A.125.125 0 0 1 4.75 4.8h1a.875.875 0 0 0-.875-.875zm8.646 3.566-.354.354a1.135 1.135 0 0 1 0 1.606l.354.354.353.354a2.135 2.135 0 0 0 0-3.021zm0 2.314-.354-.354-.52.521.353.354.354.353.52-.52zM7.18 11.569l-.354.354.588.588.354-.354.353-.353-.588-.588zm.588.588.353.354 1.233-1.232L9 10.925l-.354-.354-1.232 1.233zm.382 1.918v.5a3.15 3.15 0 0 0 3.15-3.15h-1a2.15 2.15 0 0 1-2.15 2.15zm2.65-2.65h.5a3.15 3.15 0 0 0-3.15-3.15v1a2.15 2.15 0 0 1 2.15 2.15zm-2.65-2.65v-.5A3.15 3.15 0 0 0 5 11.425h1a2.15 2.15 0 0 1 2.15-2.15zm-2.65 2.65H5a3.15 3.15 0 0 0 3.15 3.15v-1A2.15 2.15 0 0 1 6 11.425z"/></svg>