<svg xmlns="http://www.w3.org/2000/svg" fill="none" viewBox="0 0 16 16"><path fill="currentColor" d="M13.316 3.526C13.177 2.648 12.402 2 11.49 2H5v6.69s.14.05.239.266l2.165 4.751a.51.51 0 0 0 .462.293c.838 0 1.517-.662 1.517-1.48V10.4c0-.331.276-.6.615-.6h2.156c1.131 0 1.996-.983 1.824-2.074z"/><path stroke="currentColor" stroke-linecap="round" stroke-linejoin="round" d="m5.239 8.956 2.165 4.751a.51.51 0 0 0 .462.293c.838 0 1.517-.662 1.517-1.48V10.4c0-.331.276-.6.615-.6h2.156c1.131 0 1.996-.983 1.824-2.074l-.662-4.2C13.177 2.648 12.402 2 11.49 2M5.24 8.956a.62.62 0 0 0-.563-.356H3.231C2.55 8.6 2 8.063 2 7.4V3.2C2 2.537 2.55 2 3.23 2h8.261M5.24 8.956C5.14 8.74 5 8.69 5 8.69V2h6.491"/></svg>