<svg xmlns="http://www.w3.org/2000/svg" fill="none" viewBox="0 0 16 16"><path fill="currentColor" d="M13.316 12.474c-.139.878-.914 1.526-1.825 1.526H5V7.31s.14-.05.239-.266l2.165-4.751A.51.51 0 0 1 7.866 2c.838 0 1.517.662 1.517 1.48V5.6c0 .331.276.6.615.6h2.156c1.131 0 1.996.983 1.824 2.074z"/><path stroke="currentColor" stroke-linecap="round" stroke-linejoin="round" d="M11.491 14h-8.26C2.55 14 2 13.463 2 12.8V8.6c0-.663.55-1.2 1.23-1.2h1.446c.244 0 .464-.14.563-.356l2.165-4.751A.51.51 0 0 1 7.866 2c.838 0 1.517.662 1.517 1.48V5.6c0 .331.276.6.615.6h2.156c1.131 0 1.996.983 1.824 2.074l-.662 4.2c-.139.878-.914 1.526-1.825 1.526M5.24 7.044C5.14 7.26 5 7.31 5 7.31V14h6.491"/></svg>