<svg xmlns="http://www.w3.org/2000/svg" fill="none" viewBox="0 0 16 16"><path fill="currentColor" d="M13.316 3.526C13.177 2.648 12.402 2 11.49 2H5v6.69s.14.05.239.266l2.165 4.751a.51.51 0 0 0 .462.293c.838 0 1.517-.662 1.517-1.48V10.4c0-.331.276-.6.615-.6h2.156c1.131 0 1.996-.983 1.824-2.074z"/><path stroke="currentColor" stroke-linecap="round" stroke-linejoin="round" d="M11.491 2h-8.26C2.55 2 2 2.537 2 3.2v4.2c0 .663.55 1.2 1.23 1.2h1.446c.244 0 .464.14.563.356l2.165 4.751a.51.51 0 0 0 .462.293c.838 0 1.517-.662 1.517-1.48V10.4c0-.331.276-.6.615-.6h2.156c1.131 0 1.996-.983 1.824-2.074l-.662-4.2C13.177 2.648 12.402 2 11.49 2M5.24 8.956C5.14 8.74 5 8.69 5 8.69V2h6.491"/></svg>