<svg xmlns="http://www.w3.org/2000/svg" fill="none" viewBox="0 0 16 16"><path fill="currentColor" d="M11.167 4a.5.5 0 0 0-1 0zM5.833 4a.5.5 0 1 0-1 0zM4 11.5a.5.5 0 0 0 0 1zm8 1a.5.5 0 0 0 0-1zM2 13.6h.5V2.4h-1v11.2zM2 2.4h.5a.1.1 0 0 1-.1.1v-1a.9.9 0 0 0-.9.9zm.4-.4v.5h11.2v-1H2.4zm11.2 0v.5a.1.1 0 0 1-.1-.1h1a.9.9 0 0 0-.9-.9zm.4.4h-.5v11.2h1V2.4zm0 11.2h-.5a.1.1 0 0 1 .1-.1v1a.9.9 0 0 0 .9-.9zm-.4.4v-.5H2.4v1h11.2zM2.4 14v-.5a.1.1 0 0 1 .1.1h-1a.9.9 0 0 0 .9.9zm8.267-10h-.5v2.667h1V4zm0 2.667h-.5c0 1.196-.97 2.166-2.167 2.166v1a3.167 3.167 0 0 0 3.167-3.166zM8 9.333v-.5a2.167 2.167 0 0 1-2.167-2.166h-1A3.167 3.167 0 0 0 8 9.833zM5.333 6.667h.5V4h-1v2.667zM4 12v.5h8v-1H4z"/></svg>