<svg xmlns="http://www.w3.org/2000/svg" fill="none" viewBox="0 0 16 16"><path fill="currentColor" fill-rule="evenodd" d="M8 2a6 6 0 1 0 0 12A6 6 0 0 0 8 2m-.54 3.348L6.178 6.675h3.178l.075.005q.092.006.239.03c.193.035.457.105.726.249.272.146.554.37.766.71.213.343.338.775.338 1.306 0 1.18-.506 1.853-1.082 2.2a2.3 2.3 0 0 1-1.059.324l-.024.001H8.84l-.1-.01a.5.5 0 0 1 0-.98l.1-.01h.478q.01 0 .032-.002a1.325 1.325 0 0 0 .553-.18c.263-.159.597-.5.597-1.343 0-.37-.086-.613-.187-.777a1 1 0 0 0-.39-.357 1.5 1.5 0 0 0-.602-.166H6.238l1.21 1.165a.5.5 0 0 1-.695.72l-2.1-2.025a.5.5 0 0 1-.012-.707l2.1-2.176a.501.501 0 0 1 .72.695m-.72-.696" clip-rule="evenodd"/></svg>