<svg viewBox="0 0 12 12" fill="none" xmlns="http://www.w3.org/2000/svg">
<path fill-rule="evenodd" clip-rule="evenodd" d="M6 0C9.31368 0 12 2.68629 12 6C12 9.31368 9.31368 12 6 12C2.68629 12 0 9.31368 0 6C0 2.68629 2.68629 0 6 0ZM6.34082 8.62891C6.13575 8.44417 5.81963 8.46015 5.63477 8.66504L5.62891 8.67188C5.44449 8.87696 5.46025 9.19317 5.66504 9.37793C5.86995 9.56223 6.18626 9.54611 6.37109 9.3418L6.37793 9.33496C6.56253 9.12999 6.54542 8.81379 6.34082 8.62891ZM6 2.5C5.72401 2.50011 5.50011 2.72401 5.5 3V6.59961L5.50977 6.70117C5.55658 6.92869 5.75865 7.09951 6 7.09961C6.24138 7.09952 6.44345 6.92873 6.49023 6.70117L6.5 6.59961V3C6.49989 2.72401 6.27599 2.5001 6 2.5Z" fill="currentColor"/>
</svg>
