<svg viewBox="0 0 16 16" fill="none" xmlns="http://www.w3.org/2000/svg">
<path fill-rule="evenodd" clip-rule="evenodd" d="M6.96477 3.227C7.42416 2.42889 8.57569 2.42889 9.03508 3.227L13.8388 11.5815C14.2966 12.3778 13.7223 13.3715 12.8036 13.3715H3.19621C2.27761 13.3715 1.70316 12.3778 2.16106 11.5815L6.96477 3.227ZM8.34074 10.6108C8.13569 10.4263 7.8195 10.4422 7.63469 10.6469L7.62883 10.6538C7.44415 10.8588 7.46024 11.1749 7.66496 11.3598C7.84458 11.5215 8.10969 11.5293 8.2968 11.3911L8.37102 11.3227L8.37785 11.3168C8.56242 11.1118 8.54545 10.7956 8.34074 10.6108ZM7.99992 5.70454C7.72394 5.70465 7.50003 5.92856 7.49992 6.20454V8.59321C7.49996 8.86926 7.7239 9.09311 7.99992 9.09321C8.27595 9.09311 8.49988 8.86926 8.49992 8.59321V6.20454C8.49982 5.92856 8.27591 5.70465 7.99992 5.70454Z" fill="currentColor"/>
</svg>
