<svg xmlns="http://www.w3.org/2000/svg" fill="none" viewBox="0 0 16 16"><path stroke="currentColor" d="M7.804 5.125a.1.1 0 0 1 .024.001.1.1 0 0 1 .023.011l.016.018 1.956 3.261.21.351.385-.136a2.313 2.313 0 1 1-.388 4.185h.001a.063.063 0 0 1-.023-.086.07.07 0 0 1 .063-.031l.023.008a2.19 2.19 0 0 0 3.28-1.914 2.187 2.187 0 0 0-3.184-1.927l-.127.07h-.002a.1.1 0 0 1-.022.009.1.1 0 0 1-.024-.002.1.1 0 0 1-.023-.01l-.016-.018L7.759 5.22l-.008-.024a.06.06 0 0 1 .01-.046l.02-.016a.1.1 0 0 1 .023-.009Zm-4.1 3.677a.06.06 0 0 1 .037.03l.002.002q.011.022.005.045a.1.1 0 0 1-.01.022l-.02.015v.001a2.188 2.188 0 0 0-.121 3.712l.122.077A2.187 2.187 0 0 0 7 10.813v-.001q0-.013.005-.024l.014-.02a.06.06 0 0 1 .043-.019h4.126q.012 0 .024.005l.02.014a.06.06 0 0 1 .018.044.063.063 0 0 1-.062.063H7.16l-.08.4a2.314 2.314 0 0 1-4.581-.435l.003-.144c.017-.338.108-.667.266-.965l.07-.126c.177-.288.415-.534.695-.72l.123-.076a.06.06 0 0 1 .048-.007ZM7.958 2.88a2.31 2.31 0 0 1 2.162 2.163l.005.145v.001a.06.06 0 0 1-.019.044.06.06 0 0 1-.043.018.06.06 0 0 1-.044-.018.06.06 0 0 1-.019-.044 2.188 2.188 0 0 0-4.375 0l.005.147a2.19 2.19 0 0 0 1.024 1.708l.13.075q.01.006.018.015a.06.06 0 0 1 .014.046l-.007.023-1.94 3.64a.06.06 0 0 1-.038.03.063.063 0 0 1-.081-.066l.007-.023L6.46 7.589l.192-.36-.314-.26a2.314 2.314 0 0 1-.398-3.141c.2-.276.46-.504.757-.667l.13-.067c.309-.145.645-.22.984-.22z"/></svg>