<svg xmlns="http://www.w3.org/2000/svg" fill="none" viewBox="0 0 16 16"><path stroke="currentColor" d="M7.804 5.125a.1.1 0 0 1 .024.001.07.07 0 0 1 .04.029l1.955 3.261.21.351.385-.136a2.313 2.313 0 1 1-.387 4.185.063.063 0 0 1-.023-.086.07.07 0 0 1 .039-.03.06.06 0 0 1 .047.007 2.19 2.19 0 0 0 3.28-1.914 2.187 2.187 0 0 0-3.312-1.858v.001a.1.1 0 0 1-.023.009.1.1 0 0 1-.024-.002.1.1 0 0 1-.023-.01.1.1 0 0 1-.016-.018L7.759 5.22l-.008-.024a.06.06 0 0 1 .01-.046.1.1 0 0 1 .02-.016.1.1 0 0 1 .023-.009Zm-4.1 3.677a.06.06 0 0 1 .037.03l.002.002q.011.022.005.045a.06.06 0 0 1-.03.037v.001A2.188 2.188 0 1 0 7 10.813v-.001q0-.013.005-.024a.1.1 0 0 1 .014-.02.06.06 0 0 1 .043-.019h4.126q.025 0 .043.02a.06.06 0 0 1 .019.043.063.063 0 0 1-.062.063H7.16l-.08.4a2.314 2.314 0 1 1-3.547-2.39l.123-.076a.06.06 0 0 1 .048-.007ZM7.958 2.88a2.31 2.31 0 0 1 2.167 2.308v.001a.06.06 0 0 1-.019.044.06.06 0 0 1-.043.018.06.06 0 0 1-.044-.018.06.06 0 0 1-.019-.044 2.188 2.188 0 1 0-3.346 1.855l.13.075q.01.006.018.015a.06.06 0 0 1 .014.046.1.1 0 0 1-.007.023l-1.94 3.64a.06.06 0 0 1-.038.03.063.063 0 0 1-.074-.09L6.46 7.59l.192-.36-.314-.26a2.314 2.314 0 0 1 .49-3.875c.352-.166.74-.24 1.129-.215Z"/></svg>