<svg xmlns="http://www.w3.org/2000/svg" fill="none" viewBox="0 0 16 16"><path fill="currentColor" d="M8 4.885a.542.542 0 1 1 0-1.083.542.542 0 0 1 0 1.083M3.938 12.198a.542.542 0 1 1 0-1.083.542.542 0 0 1 0 1.083M12.063 12.198a.542.542 0 1 1 0-1.083.542.542 0 0 1 0 1.083"/><path stroke="currentColor" stroke-linecap="round" stroke-linejoin="round" d="M10.403 4.749a2.437 2.437 0 1 0-3.621 1.704l-2.597 4.721m6.383 2.403a2.437 2.437 0 1 0 .277-4.034L8.281 4.807M2.97 9.42a2.437 2.437 0 0 0 .966 4.673 2.44 2.44 0 0 0 2.435-2.442l5.15.004m0 0a.542.542 0 1 0 1.083 0 .542.542 0 0 0-1.083 0M8 4.886a.542.542 0 1 1 0-1.084.542.542 0 0 1 0 1.083m-4.062 7.312a.542.542 0 1 1 0-1.083.542.542 0 0 1 0 1.083"/></svg>