<svg xmlns="http://www.w3.org/2000/svg" fill="none" viewBox="0 0 16 16"><path stroke="currentColor" stroke-linecap="round" stroke-linejoin="round" d="M3.275 10.727A5.45 5.45 0 0 0 8 13.455a5.45 5.45 0 0 0 4.725-2.728m-9.45-5.454A5.45 5.45 0 0 1 8 2.545a5.45 5.45 0 0 1 4.725 2.728m-4.18 8.155s.768-1.012 1.252-2.7M8.545 2.571s.768 1.012 1.252 2.7m-2.342 8.156s-.768-1.012-1.252-2.7m1.252-8.156s-.768 1.012-1.252 2.7m.16 1.637.819 2.727L8 6.91l.818 2.727.818-2.727M2 6.91l.818 2.727.818-2.727.819 2.727.818-2.727m5.454 0 .819 2.727.818-2.727.818 2.727L14 6.91"/></svg>