<svg xmlns="http://www.w3.org/2000/svg" fill="none" viewBox="0 0 16 16"><path stroke="currentColor" stroke-linecap="round" stroke-linejoin="round" d="M2.999 5.712V2.36a.36.36 0 0 1 .36-.36h6.99a.36.36 0 0 1 .255.105l1.89 1.89a.36.36 0 0 1 .105.254v1.463m-9.6 6.722v1.206c0 .199.16.36.36.36h8.88a.36.36 0 0 0 .36-.36v-1.206M4.866 10.22l.228-.45m0 0 1.013-2m-1.013 2h2.039m.228.45-.228-.45m0 0-1.014-2m-4.177 0 1.057 1.057m0 0L4.056 7.77M2.999 8.828v1.357m5.83 0V7.742l1.096 1.086 1.112-1.086v2.443M12.6 7.742v2.443h1.458M9.796 2v2.445c0 .199.161.36.36.36H12.6"/></svg>