<svg xmlns="http://www.w3.org/2000/svg" fill="none" viewBox="0 0 20 20"><path fill="currentColor" fill-rule="evenodd" d="M9.946.004a6.9 6.9 0 0 0-4.064 1.141 6.7 6.7 0 0 0-2.593 3.27c-.037.336.052.944 1.06 1.248 1.105.333 1.512-.224 1.66-.591A4 4 0 0 1 7.54 3.12a4.14 4.14 0 0 1 2.407-.705c2.478 0 4.276 1.623 4.276 3.857v.958c0 .448-.611.74-1.188.866L8.115 9.354C4.435 10.174 3 11.571 3 14.334 3 17.564 5.986 20 9.946 20c4.219 0 6.945-2.525 6.945-6.432L17 6.235c0-3.61-2.967-6.23-7.054-6.23m0 17.582c-2.415 0-4.168-1.368-4.168-3.252 0-1.723.963-2.251 2.989-2.726l4.213-1.105a3.8 3.8 0 0 0 1.233-.443l-.1 3.387v.004c0 3.732-2.915 4.134-4.167 4.134" clip-rule="evenodd"/></svg>