<svg xmlns="http://www.w3.org/2000/svg" fill="none" viewBox="0 0 22 22"><g clip-path="url(#a)"><path fill="currentColor" d="M2.201 18.566c0 .665.558 1.232 1.28 1.232h2.13v-9.083h-2.13c-.722 0-1.28.566-1.28 1.23zm11.64-11.349c0 .142.122.286.309.286h3.398c2.169 0 3.865 1.893 3.528 4.031l-1.045 6.62c-.27 1.718-1.779 2.964-3.527 2.964H3.482c-1.42 0-2.6-1.127-2.6-2.552v-6.62c0-1.425 1.18-2.552 2.6-2.552h2.28c.13 0 .24-.075.285-.175L9.46 1.73a1.46 1.46 0 0 1 1.329-.847c1.67 0 3.052 1.324 3.052 2.992z"/></g><defs><clipPath id="a"><path fill="currentColor" d="M0 0h22v22H0z"/></clipPath></defs></svg>