<svg xmlns="http://www.w3.org/2000/svg" fill="none" viewBox="0 0 20 20"><g clip-path="url(#a)"><path fill="currentColor" d="M4.455 5.152a.655.655 0 0 0-1.118-.464L.339 7.685a.98.98 0 0 0-.288.695v6.312h4.404zm.699-.699h9.544V.051H8.383c-.26 0-.51.104-.695.288L4.69 3.335a.655.655 0 0 0 .464 1.118m9.452 10.845H.051v3.638c0 .422.342.764.765.764h10.56c.261 0 .511-.103.696-.287l2.997-2.997a.655.655 0 0 0-.463-1.118M18.944.051h-3.64V14.6c0 .584.706.876 1.119.463l2.998-2.996a.98.98 0 0 0 .287-.695V.815a.764.764 0 0 0-.764-.764"/></g><defs><clipPath id="a"><path fill="currentColor" d="M0 0h20v20H0z"/></clipPath></defs></svg>