<svg xmlns="http://www.w3.org/2000/svg" fill="none" viewBox="0 0 20 20"><path fill="currentColor" d="M10.485 0q.546.046 1.082.155c1.4.32 2.6 1.01 3.652 1.97.967.884 1.597 1.978 1.946 3.235.074.268.18.467.488.52.17.03.198.204.199.358q.003.81.002 1.617l-.002 1.008c0 .297-.097.4-.388.395-.176-.002-.244.1-.287.243a8 8 0 0 1-.46 1.188c-.682 1.402-1.737 2.448-3.073 3.225l-.194.11c-.21.114-.215.121-.13.345a.87.87 0 0 0 .554.521c.224.08.46.112.689.175q.105.02.196.078c-.055.069-.13.056-.192.069-.3.06-.594.153-.905.141a1.1 1.1 0 0 1-.365-.053c-.095-.038-.127-.005-.147.09a4.5 4.5 0 0 0-.07.767c-.012.515-.059 1.026-.093 1.537-.035.498-.015.543.465.702q.353.116.702.238c.057.02.125.032.16.098-.034.047-.082.029-.122.029q-.614.005-1.232 0c-.436-.003-.671-.234-.704-.668-.046-.636-.1-1.27-.152-1.905a1 1 0 0 0-.021-.1c-.066.379-.054.732-.07 1.081-.02.44-.007.881-.006 1.32 0 .225.072.323.28.403.298.112.592.245.927.218.118-.01.23.052.335.108.027.014.061.027.058.06-.003.036-.04.04-.07.038-.548-.016-1.098.054-1.643-.023-.27-.039-.444-.197-.526-.46-.079-.253-.095-.515-.114-.775-.039-.522-.065-1.045-.097-1.567a.18.18 0 0 0-.05-.143.24.24 0 0 0-.027.161v2.389c0 .323.102.479.411.59.401.143.814.248 1.225.352.092.023.188.04.202.16h-1.543q-.064-.013-.13-.025c-.584-.083-.834-.31-.952-.868l-.056-.276-.188-.92q-.088.151-.12.322c-.07.333-.126.669-.203 1-.094.411-.37.636-.776.715L8.675 20H7.132c.048-.142.18-.154.296-.184.397-.106.8-.186 1.18-.341a.5.5 0 0 0 .332-.434c.048-.363.001-.721-.011-1.08a1.3 1.3 0 0 0-.065-.263.34.34 0 0 0-.06.173q-.03.37-.062.738c-.032.36-.227.597-.566.675a1.4 1.4 0 0 1-.308.038q-.697.002-1.394-.005c-.04 0-.091.016-.124-.054a1.2 1.2 0 0 1 .485-.155q.398-.048.783-.161c.35-.095.435-.208.427-.573-.02-.776-.076-1.55-.058-2.326.003-.153 0-.306 0-.459a2 2 0 0 0-.04.321q-.043 1.096-.156 2.186c-.043.427-.246.623-.67.67-.371.043-.74.002-1.11-.016-.09-.005-.195.01-.282-.053.036-.055.088-.059.133-.073.302-.096.604-.186.905-.287.205-.067.292-.195.296-.41a2 2 0 0 0-.003-.193 38 38 0 0 1-.087-1.79 5 5 0 0 0-.03-.399c-.02-.157-.108-.24-.245-.215-.421.077-.825-.005-1.228-.116-.049-.013-.111-.006-.148-.073a.8.8 0 0 1 .238-.075q.319-.065.627-.174c.26-.093.47-.289.58-.542.073-.17.046-.264-.094-.332-1.182-.569-2.093-1.441-2.826-2.514a6.8 6.8 0 0 1-.936-2.039c-.056-.205-.13-.25-.319-.217-.255.045-.334.005-.446-.227V6.112c.12-.252.171-.284.445-.274.196.009.206-.003.258-.201.33-1.257.901-2.384 1.809-3.324C5.75 1.183 7.103.526 8.617.17 8.997.08 9.385.044 9.773 0zm6.645 7.457a6 6 0 0 0-.04-.782 7 7 0 0 0-.083-.542c-.498-2.47-1.953-4.183-4.21-5.223C11.505.314 10.124.214 8.734.484c-2.707.528-4.497 2.153-5.45 4.71-.363.978-.412 2.005-.308 3.042.073.779.283 1.538.621 2.245.488 1.01 1.204 1.839 2.064 2.548q.43.36.935.6c.195.092.205.087.204-.122a4 4 0 0 0-.008-.4c-.104-.85-.118-1.704-.14-2.558a.33.33 0 0 0-.154-.294c-.32-.223-.594-.493-.767-.85-.395-.807-.31-1.967.677-2.678.113-.081.18-.159.165-.311a1.4 1.4 0 0 1 .026-.369c.147-.989.623-1.781 1.435-2.366.567-.41 1.202-.643 1.905-.652.402-.006.794.092 1.178.204 1.341.389 2.372 1.724 2.371 3.08a.53.53 0 0 0 .223.471c.386.31.684.692.786 1.189.184.897-.069 1.651-.816 2.195a.61.61 0 0 0-.277.581q.002.06-.002.118l-.051 1.2c-.021.488-.115.97-.098 1.461.007.186.005.189.167.107a6.2 6.2 0 0 0 1.995-1.586c1.1-1.314 1.728-2.81 1.716-4.592m-9.532 2.628a1.612 1.612 0 1 0 .014-3.225c-.912-.003-1.628.685-1.632 1.568-.004.956.678 1.654 1.618 1.657m4.828 0c.918.002 1.613-.686 1.613-1.598 0-.909-.705-1.624-1.6-1.622-.887.002-1.617.722-1.62 1.596-.002.92.693 1.623 1.607 1.624M11.2 11.699c-.174.107-.34.231-.525.32-.447.214-.886.214-1.316-.04-.132-.078-.257-.167-.387-.248-.04-.024-.077-.086-.125-.052-.037.025-.008.083 0 .126q.045.226.068.453c.022.471.244.827.618 1.092a.82.82 0 0 0 .659.155c.47-.1.854-.512.937-1.015.036-.222.004-.453.09-.67a.11.11 0 0 0-.02-.12M3.883 7.6c-.01-.918.119-1.712.45-2.467C4.86 3.929 5.7 3.004 6.816 2.32a.315.315 0 0 1 .383.056c.05.05.03.098.008.148a.9.9 0 0 1-.4.425c-.9.533-1.524 1.31-1.964 2.24a5.3 5.3 0 0 0-.515 2.489c.046 1.09.366 2.096 1.01 2.99a.66.66 0 0 1 .145.304c.008.066.049.14-.026.19a.26.26 0 0 1-.24.034.4.4 0 0 1-.195-.154c-.6-.816-.994-1.714-1.11-2.728-.03-.271-.002-.544-.03-.715M7.45 1.95a.31.31 0 0 1 .315-.318c.176 0 .341.188.347.394.003.115-.257.325-.397.322-.157-.005-.265-.167-.265-.398m-.387 6.233a.507.507 0 0 1 .488-.526c.317-.002.56.226.563.528.003.297-.225.518-.533.518-.316-.002-.517-.201-.518-.52m5.413.52c-.317-.002-.52-.213-.517-.539a.53.53 0 0 1 .496-.51.547.547 0 0 1 .558.535c0 .295-.23.515-.537.514"/></svg>