<svg xmlns="http://www.w3.org/2000/svg" fill="none" viewBox="0 0 22 22"><path fill="currentColor" d="M7.669 8.839c-.116 1.476.418 2.95 1.565 4.078.244.24.427.414.743.662q0 .003-.003.004a5.4 5.4 0 0 1-5.244.399 5.15 5.15 0 0 1 .3-2.248 5.2 5.2 0 0 1 1.236-1.907c.418-.41.887-.74 1.387-.985zM11.005 3.162c1.282.825 2.14 2.182 2.235 3.742-1.748-.486-2.536-.681-4.48.063v-.009l.014-.15a4.94 4.94 0 0 1 2.231-3.646M14.516 8.74c.48.253.923.574 1.31.955a5.27 5.27 0 0 1 1.574 4.219 5.57 5.57 0 0 1-5.455-.32c.189-.102.334-.234.527-.399 1.383-1.182 1.95-2.792 2.044-4.456M11.012 12.978c1.662-1.154 2.365-2.669 2.365-4.91-1.706-.652-3.065-.719-4.743.054-.124 2.272.846 3.752 2.378 4.856"/><path fill="currentColor" fill-rule="evenodd" d="M11 2.423c2.741-1.826 6.51-1.546 8.936.84A6.83 6.83 0 0 1 22 8.167a6.84 6.84 0 0 1-2.064 4.904 7 7 0 0 1-1.841 1.303 6.83 6.83 0 0 1-2.042 4.363 7.1 7.1 0 0 1-4.985 2.028 7.1 7.1 0 0 1-4.984-2.028 6.813 6.813 0 0 1-2.037-4.295 7 7 0 0 1-1.984-1.371A6.83 6.83 0 0 1 0 8.167c0-1.854.733-3.594 2.063-4.904C4.49.877 8.26.597 11 2.423m0 11.487a7.1 7.1 0 0 1-3.952 1.189 7.1 7.1 0 0 1-2.647-.505 6.5 6.5 0 0 0 1.92 3.906 6.75 6.75 0 0 0 4.748 1.932 6.75 6.75 0 0 0 4.747-1.932 6.483 6.483 0 0 0 1.927-3.966 7.1 7.1 0 0 1-2.791.564A7.12 7.12 0 0 1 11 13.91M7.905 8.01a6.7 6.7 0 0 0-1.583 1.155 6.5 6.5 0 0 0-1.457 2.138 6.5 6.5 0 0 0-.496 2.916 6.8 6.8 0 0 0 2.679.546 6.8 6.8 0 0 0 3.658-1.063 7 7 0 0 1-.739-.632 6.83 6.83 0 0 1-2.062-5.06m6.188-.071q.004.113.004.227a6.84 6.84 0 0 1-2.064 4.904q-.35.343-.739.632a6.83 6.83 0 0 0 6.48.454q.007-.16.006-.323a6.5 6.5 0 0 0-1.964-4.668 6.7 6.7 0 0 0-1.723-1.226m-3.387-5.31C8.104.969 4.58 1.259 2.3 3.5A6.5 6.5 0 0 0 .337 8.168c0 1.763.697 3.42 1.964 4.667a6.7 6.7 0 0 0 1.723 1.226l-.004-.227c0-1.852.733-3.593 2.064-4.903a7 7 0 0 1 1.841-1.305 6.83 6.83 0 0 1 2.042-4.362q.351-.344.739-.632m4.246-1.061a6.77 6.77 0 0 0-3.656 1.063q.385.286.737.631a6.9 6.9 0 0 1 1.53 2.247c.275.654.446 1.345.507 2.048.718.332 1.39.789 1.983 1.372a6.9 6.9 0 0 1 1.53 2.246 6.8 6.8 0 0 1 .531 2.815c.57-.3 1.106-.685 1.586-1.157a6.5 6.5 0 0 0 1.964-4.667c0-1.763-.698-3.42-1.964-4.666a6.75 6.75 0 0 0-4.748-1.932m-4.05 5.667a6.8 6.8 0 0 0-2.654.607 6.505 6.505 0 0 0 1.957 4.991q.377.37.795.67.418-.3.796-.67a6.5 6.5 0 0 0 1.952-5.054 6.8 6.8 0 0 0-2.68-.545zm.1-4.405q-.423.302-.797.67a6.5 6.5 0 0 0-1.927 3.963 7.2 7.2 0 0 1 5.438-.059 6.5 6.5 0 0 0-1.92-3.904 7 7 0 0 0-.795-.67" clip-rule="evenodd"/></svg>