<svg xmlns="http://www.w3.org/2000/svg" fill="none" viewBox="0 0 22 22"><path fill="currentColor" d="m6.656 9.37.131.59c0 .197.066.329.197.525v.132l-.065.196-.46.263-.13.066-.198-.066-.262-.328-.197-.394c-.525.59-1.181.919-1.903.919-.59 0-1.05-.197-1.312-.525-.328-.263-.525-.722-.525-1.247s.197-.984.59-1.312c.394-.394.919-.525 1.64-.525.489-.003.975.064 1.444.197V7.4c0-.524-.13-.853-.328-1.05-.197-.262-.525-.328-1.05-.328l-.721.066a5.3 5.3 0 0 0-.919.328h-.131c-.066 0-.131-.065-.131-.197v-.328l.065-.197c0-.065.066-.13.197-.13l.787-.329 1.05-.131c.788 0 1.313.197 1.706.525.328.393.525.918.525 1.64zm-2.624 1.05.656-.131c.262-.066.459-.263.656-.46l.197-.393.065-.591v-.262A5.5 5.5 0 0 0 4.36 8.45c-.394 0-.722.066-.985.263-.196.131-.262.393-.262.722s.066.524.197.721c.197.132.393.263.722.263m5.249.656-.263-.066-.13-.197-1.51-5.118-.066-.262.132-.131H8.1l.262.065.131.263L9.61 9.96l.984-4.33.131-.263.263-.065h.525l.262.065.132.263 1.05 4.396L14.07 5.63l.131-.263.262-.065h.591c.131 0 .197.065.197.131v.131l-.066.131-1.575 5.118-.13.263-.263.066h-.59l-.263-.066-.066-.263-1.05-4.265-.984 4.2-.131.262-.263.066zm8.464.197a4.3 4.3 0 0 1-1.771-.394l-.197-.197-.066-.131v-.328c0-.131.066-.197.131-.197h.132l.197.066c.472.219.988.33 1.509.328.393 0 .721-.131.918-.263.263-.13.328-.328.328-.59l-.13-.46-.657-.328-.984-.328c-.46-.13-.853-.393-1.05-.656a1.575 1.575 0 0 1 .328-2.23l.656-.329c.422-.144.87-.19 1.313-.131q.398.075.787.197l.262.131.197.131.066.263v.262c0 .197-.066.263-.131.263l-.263-.132a3.8 3.8 0 0 0-1.247-.197c-.393 0-.721 0-.918.132-.197.131-.263.328-.263.59 0 .197.066.328.197.46.131.13.328.262.722.393l.919.263c.459.197.787.393.984.656.197.262.328.59.328.919l-.197.787-.46.525c-.196.197-.459.328-.721.394z"/><path fill="currentColor" fill-rule="evenodd" d="M18.992 14.489a14.436 14.436 0 0 1-17.716-1.313c-.263-.197-.066-.393.131-.262a19.68 19.68 0 0 0 17.257 1.05c.328-.132.656.262.328.524" clip-rule="evenodd"/><path fill="currentColor" fill-rule="evenodd" d="M19.847 13.439c-.263-.328-1.838-.197-2.494-.066-.262 0-.262-.197-.066-.328 1.247-.853 3.281-.59 3.478-.328.263.328-.066 2.362-1.18 3.346-.198.132-.395.066-.329-.13.328-.657.853-2.166.59-2.494" clip-rule="evenodd"/></svg>