<svg xmlns="http://www.w3.org/2000/svg" fill="none" viewBox="0 0 22 22"><g clip-path="url(#a)"><path fill="currentColor" d="M21.645 7.464 14.616 3.93V11l7.03-3.535m-14.16 7.072V7.464L.356 3.93V11zM.168 3.628a.35.35 0 0 1 .345-.015l6.973 3.456 6.973-3.456a.35.35 0 0 1 .317 0l7.029 3.535a.35.35 0 0 1 .195.316v7.068a.36.36 0 0 1-.195.317l-7.03 3.538a.357.357 0 0 1-.514-.316v-6.499l-6.618 3.282a.36.36 0 0 1-.315 0l-7.13-3.537A.36.36 0 0 1 0 11V3.93a.35.35 0 0 1 .168-.302"/></g><defs><clipPath id="a"><path fill="currentColor" d="M0 0h22v22H0z"/></clipPath></defs></svg>