<svg xmlns="http://www.w3.org/2000/svg" fill="none" viewBox="0 0 20 20"><g clip-path="url(#a)"><path fill="currentColor" d="M18.201.001a1.9 1.9 0 0 1 1.379.69c.304.37.453.842.414 1.332-.037.47-.244.914-.579 1.25l-9.177 8.471a.48.48 0 0 0 .01.656l5.01 4.31a2 2 0 0 1 .594 1.389 1.84 1.84 0 0 1-.584 1.393 1.9 1.9 0 0 1-2.006.37 1.9 1.9 0 0 1-.626-.416l-.022-.022-4.365-5.054c-.163-.157-.475-.157-.652.015l-4.361 5.05q-.285.284-.638.428c-.441.179-.95.183-1.396.011a1.9 1.9 0 0 1-.608-.38 1.84 1.84 0 0 1-.585-1.392 2 2 0 0 1 .581-1.378l.023-.022 5.014-4.315a.478.478 0 0 0-.014-.652L.597 7.421a2 2 0 0 1-.591-1.263c-.038-.489.11-.962.414-1.331a1.9 1.9 0 0 1 1.38-.69 1.88 1.88 0 0 1 1.425.553l.023.024L7.61 9.768c.164.157.486.153.66-.02L16.76.57c.37-.367.856-.57 1.354-.57z"/></g><defs><clipPath id="a"><path fill="currentColor" d="M0 0h20v20H0z"/></clipPath></defs></svg>