<svg xmlns="http://www.w3.org/2000/svg" fill="none" viewBox="0 0 22 22"><g clip-path="url(#a)"><path fill="currentColor" d="M20.022.001a2.1 2.1 0 0 1 1.516.76c.335.405.498.926.455 1.464a2.2 2.2 0 0 1-.636 1.375L11.262 12.92a.528.528 0 0 0 .012.722l5.51 4.74a2.2 2.2 0 0 1 .653 1.528c.008.595-.22 1.14-.643 1.532a2.09 2.09 0 0 1-2.894-.05l-.025-.025-4.801-5.56c-.18-.172-.522-.172-.717.017L3.56 21.378q-.315.314-.702.47a2.1 2.1 0 0 1-1.536.014 2.1 2.1 0 0 1-.669-.42 2.02 2.02 0 0 1-.643-1.53c.01-.564.24-1.12.64-1.515l.024-.025 5.516-4.746a.525.525 0 0 0-.016-.718L.657 8.164a2.2 2.2 0 0 1-.65-1.389A2.04 2.04 0 0 1 .461 5.31c.376-.455.93-.732 1.517-.758a2.07 2.07 0 0 1 1.569.608l.025.026 4.8 5.56c.18.173.533.168.725-.023L18.438.627A2.12 2.12 0 0 1 19.925 0z"/></g><defs><clipPath id="a"><path fill="currentColor" d="M0 0h22v22H0z"/></clipPath></defs></svg>