<svg xmlns="http://www.w3.org/2000/svg" fill="none" viewBox="0 0 22 22"><path fill="currentColor" fill-rule="evenodd" d="M16.026 7.401c-.342-.41-.683-.822-1.163-1.096-.41-.274-.888-.548-1.367-.685a5.7 5.7 0 0 0-1.504-.206c-.684 0-1.437.137-2.052.48A4.95 4.95 0 0 0 8.3 7.127c-.48.48-.89 1.166-1.164 1.851-.273.754-.41 1.645-.41 2.468q0 1.027.41 2.056c.274.616.616 1.164 1.095 1.644.478.48 1.025.89 1.64 1.097 1.095.48 2.394.548 3.557.205a5 5 0 0 0 1.367-.616c.41-.274.821-.617 1.095-.96.341-.411.615-.823.82-1.302l3.898 3.907a11 11 0 0 1-3.761 3.358 9.6 9.6 0 0 1-2.326.89c-.82.206-1.709.275-2.53.275q-2.154 0-4.102-.823c-2.53-1.096-4.582-3.083-5.676-5.62a10.5 10.5 0 0 1-.82-4.111c0-1.509.273-3.016.82-4.455.547-1.371 1.3-2.536 2.257-3.633C5.427 2.33 6.59 1.508 7.82.89 9.12.274 10.488 0 11.924 0c.89 0 1.71.137 2.53.343 1.71.41 3.214 1.302 4.445 2.535.616.617 1.231 1.303 1.641 2.125L16.642 8.91c0-.617-.274-1.097-.616-1.509" clip-rule="evenodd"/></svg>