<svg xmlns="http://www.w3.org/2000/svg" fill="none" viewBox="0 0 22 22"><path fill="currentColor" d="M1.624 11.313c0-5.09 4.218-9.263 9.397-9.263 2.506 0 4.845.96 6.599 2.712a9.08 9.08 0 0 1 2.756 6.55v.043l-1.587.918h-.041a4.5 4.5 0 0 0-2.715-.793h-.167a4.44 4.44 0 0 0-4.219 4.423c0 .667.168 1.377.502 2.003-.084.626-.752 1.669-1.045 2.003l-.041.041-.042-.041c-.71-.877-1.17-1.836-1.378-2.838 0-.083-.042-.209-.042-.292v-.793c0-.75.125-1.46.334-2.128v-.042c.083-.292.209-.584.334-.834v-.042c.042-.083.084-.208.167-.334l.042-.083c.083-.125.125-.25.209-.334.083-.083.167-.208.292-.375l.042-.084c.46-.584 1.044-1.043 1.67-1.418h.042c.126-.084.25-.167.376-.21.293-.124.543-.25.835-.333h.042l.501-.167c.168-.042.293-.042.46-.083.083 0 .209-.042.292-.042h.042c.292 0 .543-.042.793-.042h.126c.668 0 1.336.084 1.963.292A6.85 6.85 0 0 0 16.2 6.222a7.27 7.27 0 0 0-5.18-2.128c-3.466 0-6.39 2.337-7.141 5.633 1.002-.333 2.088-.375 3.174-.167a6.84 6.84 0 0 1 3.049 1.42l.209.166-.167.209c-.084.125-.167.208-.25.333-.168.293-.335.585-.502.918l-.167.334-.292-.25c-.627-.584-1.42-.96-2.256-1.127a4.7 4.7 0 0 0-3.425.71h-.041l-1.587-.918z"/></svg>