<svg xmlns="http://www.w3.org/2000/svg" fill="none" viewBox="0 0 22 22"><path fill="currentColor" d="M6.488 9.251a1.801 1.801 0 1 1-.001 3.602 1.801 1.801 0 0 1 .001-3.602"/><path fill="currentColor" fill-rule="evenodd" d="M11 .649C16.717.649 21.351 5.283 21.351 11S16.717 21.351 11 21.351.649 16.717.649 11 5.283.649 11 .649m-4.512 7.26a3.144 3.144 0 1 0 3.07 3.815h9.103V9.199a.671.671 0 1 0-1.341 0v1.182h-1.13V9.2a.672.672 0 0 0-1.343 0v1.182h-5.29A3.14 3.14 0 0 0 6.488 7.91" clip-rule="evenodd"/></svg>