<svg xmlns="http://www.w3.org/2000/svg" fill="none" viewBox="0 0 22 22"><path fill="currentColor" d="M19.274 17.797c0-.64-.148-1.076-.336-1.378a1.84 1.84 0 0 0-.71-.654 2.6 2.6 0 0 0-1.075-.295h-5.54l2.308 2.225a.66.66 0 0 1-.916.95l-3.484-3.36a.66.66 0 0 1-.017-.933l3.485-3.608a.66.66 0 1 1 .949.916l-2.405 2.49h5.613v.66-.66h.02a3 3 0 0 1 .15.008 3.926 3.926 0 0 1 1.535.444c.43.23.874.584 1.207 1.12s.535 1.221.535 2.075c0 1.901-.81 2.96-1.713 3.504a3.7 3.7 0 0 1-1.713.515h-.02l-.001-.66v.66h-.796a.66.66 0 0 1 0-1.32h.8l.06-.004a2.367 2.367 0 0 0 .99-.321c.49-.296 1.074-.917 1.074-2.374m-3.931-8.962V5.998c-1.083.813-2.98 1.478-6.309 1.478-3.327 0-5.224-.665-6.307-1.478V9.69l.12.268c.117.228.31.537.605.847.578.605 1.59 1.255 3.342 1.255a.66.66 0 0 1 0 1.32c-1.941 0-3.236-.674-4.067-1.44v3.816l.005.038c.007.041.022.114.058.208.072.183.228.465.577.764.703.603 2.263 1.334 5.667 1.334a.66.66 0 0 1 0 1.32c-3.562 0-5.487-.761-6.526-1.652-.522-.447-.801-.912-.947-1.288a2.4 2.4 0 0 1-.132-.469 2 2 0 0 1-.022-.204v-.031s0-.002.66-.002h-.66V3.797a1.3 1.3 0 0 1 .022-.204c.02-.121.06-.283.132-.47.146-.376.425-.84.947-1.287C3.548.945 5.472.183 9.034.183c3.563 0 5.489.762 6.528 1.653.521.447.8.912.947 1.288a2.4 2.4 0 0 1 .15.62l.003.053v.018l.001.008v5.012a.66.66 0 0 1-1.32 0"/></svg>