<svg xmlns="http://www.w3.org/2000/svg" fill="none" viewBox="0 0 22 22"><path fill="currentColor" d="M19.732 15.132a.66.66 0 0 1 .932.934l-5.109 5.11a.66.66 0 0 1-.934 0l-3.066-3.067a.66.66 0 0 1 .934-.933l2.6 2.6zM8.956.63c3.656 0 5.626.782 6.689 1.692.533.458.82.932.969 1.316.073.19.113.354.133.478a2 2 0 0 1 .022.206v6.2l-.003.051q-.004.062-.019.155a2.4 2.4 0 0 1-.133.478c-.15.384-.436.86-.97 1.316-1.062.91-3.032 1.692-6.688 1.692-3.443 0-5.391-.694-6.494-1.535v3.925l.005.04c.007.043.024.118.062.215.074.192.237.483.597.792.726.623 2.332 1.375 5.83 1.375a.66.66 0 1 1 0 1.32c-3.655 0-5.627-.781-6.69-1.692-.533-.457-.818-.932-.967-1.316a2.4 2.4 0 0 1-.153-.632l-.003-.053-.001-.018V4.323a1.3 1.3 0 0 1 .023-.206c.021-.124.06-.288.134-.478.15-.384.435-.858.968-1.316C3.329 1.413 5.3.631 8.957.631m6.494 5.917c-1.103.841-3.05 1.535-6.494 1.535s-5.391-.694-6.494-1.535v3.925l.005.04c.007.043.024.119.062.216.074.19.237.482.597.792.726.622 2.332 1.374 5.83 1.374s5.104-.752 5.83-1.374c.36-.31.523-.601.597-.793.038-.096.054-.172.062-.215l.005-.034z"/></svg>