<svg xmlns="http://www.w3.org/2000/svg" fill="none" viewBox="0 0 22 22"><g clip-path="url(#a)"><path fill="currentColor" d="M20.01 16.349a4.292 4.292 0 1 0-8.584 0 4.292 4.292 0 0 0 8.585 0M15.06 18.33v-2.368l-.607.607a.66.66 0 0 1-.932-.934l1.732-1.733a.66.66 0 0 1 .934 0l1.733 1.733a.66.66 0 0 1-.934.934l-.606-.607v2.368a.66.66 0 0 1-1.32 0m-.53-9.684V5.832c-1.078.808-2.966 1.466-6.27 1.466s-5.191-.658-6.27-1.466v3.76l.005.035c.007.041.023.113.059.206.07.182.225.462.572.76.698.597 2.248 1.325 5.634 1.325a.66.66 0 0 1 0 1.32c-3.304 0-5.191-.659-6.27-1.466v3.759l.005.037c.007.04.023.113.059.206.07.182.226.462.572.758.698.599 2.248 1.327 5.634 1.327a.66.66 0 0 1 0 1.319c-3.544 0-5.459-.757-6.493-1.643-.52-.446-.798-.909-.944-1.284a2.4 2.4 0 0 1-.13-.467 2 2 0 0 1-.022-.203l-.001-.018v-.013s0-.002.66-.002H.67V3.635l.004-.05q.004-.06.018-.153c.02-.121.06-.282.131-.467.146-.375.424-.838.944-1.283C2.8.795 4.716.038 8.259.038s5.458.757 6.493 1.644c.52.445.799.908.944 1.283a2.4 2.4 0 0 1 .15.62l.003.05v.032c-.005.001.004 0 0 0v4.979a.66.66 0 1 1-1.32 0m6.802 7.703a5.612 5.612 0 1 1-11.225 0 5.612 5.612 0 0 1 11.225 0"/></g><defs><clipPath id="a"><path fill="currentColor" d="M0 0h22v22H0z"/></clipPath></defs></svg>