<svg xmlns="http://www.w3.org/2000/svg" fill="none" viewBox="0 0 22 22"><path fill="currentColor" d="m8.724 9.518 4.666 2.126 4.706-4.125c.07-.341.102-.689.099-1.036A5.256 5.256 0 0 0 8.6 3.51l-.787 4.063zM3.895 14.455a5 5 0 0 0-.099 1.053 5.278 5.278 0 0 0 9.639 2.964l.772-4.045-1.031-1.98L8.49 10.31zM3.868 6.383l3.197.754.703-3.63a2.524 2.524 0 0 0-3.9 2.876M3.589 7.15a3.523 3.523 0 0 0-.153 6.638l4.486-4.052-.82-1.756zM14.246 18.472a2.52 2.52 0 0 0 3.892-2.874l-3.19-.748zM14.894 14.013l3.512.82a3.523 3.523 0 0 0 .155-6.642l-4.594 4.026z"/></svg>