<svg xmlns="http://www.w3.org/2000/svg" fill="none" viewBox="0 0 22 22"><path fill="currentColor" d="M11 0c3.626 0 6.795.733 8.266 1.785v18.426C17.795 21.268 14.626 22 11 22s-6.795-.732-8.266-1.79v-.937l3.783-.773a4.55 4.55 0 0 0 2.677-1.676c.664-.86.998-1.928.94-3.012l.219-.044c1.174-.243 2.22-.914 2.892-1.909.561-.816.835-1.796.78-2.784l.226-.045c1.2-.246 2.22-1.032 2.88-2.217.606-1.09.812-2.38.573-3.543l-.095-.465a.56.56 0 0 0-.659-.432L2.734 5.284V1.785C4.204.732 7.374 0 11 0"/><path fill="currentColor" d="M15.701 4.733c-.06.38-.185.745-.37 1.081-.211.375-.68 1.032-1.484 1.197l-4.12.843c-.56.116-.94.654-.828 1.213a1.027 1.027 0 0 0 1.22.81l1.845-.378A2.48 2.48 0 0 1 9.99 11.74l-4.17.856a1.035 1.035 0 0 0-.805 1.11 1.03 1.03 0 0 0 1.217.908l1.837-.378c-.026.417-.16.82-.39 1.168a2.54 2.54 0 0 1-1.611 1.081l-3.33.683V7.39z"/></svg>