<svg xmlns="http://www.w3.org/2000/svg" fill="none" viewBox="0 0 22 22"><g clip-path="url(#a)"><path fill="currentColor" fill-rule="evenodd" d="M12.788.793a1.766 1.766 0 0 1 2.336.899L16.832 5.5l.072.072c.059.06.108.114.158.18.044.023.066.067.087.089.638.73 2.111 1.417 3.694 1.683.088-.022.198-.022.308-.022a1 1 0 0 1 .242.022c.198.022.352.243.374.487.197 1.695-.368 1.814-.374 1.815-.264 1.24-.77 2.015-1.385 2.68l-.024.025.44.984.002.002c.392.896.002 1.954-.893 2.353L7.79 21.206l-.003.001a1.766 1.766 0 0 1-2.337-.901L.153 8.485v-.002c-.394-.897-.002-1.956.894-2.354l1.094-.485.115-.058.007-.055c.198-1.882 1.715-3.321 3.54-3.321.792 0 1.54.288 2.133.753l.02.017 4.83-2.186zm6.75 12.161q-.293.254-.63.504c-.264.177-.594.22-.902.177a18 18 0 0 0-2.66-.222c-4.889 0-8.516 2.6-9.086 7.052.338.311.845.41 1.296.21l11.738-5.334.003-.002c.598-.265.866-.977.6-1.587zm1.443-5.157c-.286 0-.386.07-.593.2l-.381.272c-.066.044-.096.155-.03.2.55.509 1.027 1.084 1.18 1.084.006-.001.417-.126.286-1.38-.022-.2-.154-.332-.286-.354a.5.5 0 0 0-.176-.022M15.5 6.46c-.33.022-.351.022-1.385.266-.066.022-.088.088-.022.132 1.122.798 1.144.798 1.495.775.352-.022.616-.265.616-.575.022-.355-.308-.62-.703-.598m-14.219.2c-.336.15-.569.44-.66.774l1.797-.398a4.3 4.3 0 0 1-.164-.808zm4.336-4.042c-1.83.088-2.862 1.49-2.862 3.643 0 .243.022.45.066.716 1.583-.244 3.423-.362 5.798-.406-.726-.465-.968-1.285-1.188-2.082-.24-.844-.479-1.48-1.277-1.79a1.3 1.3 0 0 0-.537-.081m8.982-.69a1.19 1.19 0 0 0-1.577-.605L8.417 3.41c.486.372 1.389.372 3.675.372a7.4 7.4 0 0 1 3.814 1.063l-1.306-2.914z" clip-rule="evenodd"/></g><defs><clipPath id="a"><path fill="currentColor" d="M0 0h22v22H0z"/></clipPath></defs></svg>