<svg xmlns="http://www.w3.org/2000/svg" fill="none" viewBox="0 0 22 22"><path fill="currentColor" d="m20.427 10.144-8.555-8.39a1.28 1.28 0 0 0-1.784 0L8.312 3.496l2.253 2.21a1.52 1.52 0 0 1 1.542.353 1.45 1.45 0 0 1 .356 1.521l2.171 2.13a1.52 1.52 0 0 1 1.552.35 1.45 1.45 0 0 1 0 2.082 1.52 1.52 0 0 1-2.124 0 1.45 1.45 0 0 1-.327-1.601L11.71 8.554v5.228c.142.07.277.162.397.278a1.453 1.453 0 0 1 0 2.083 1.52 1.52 0 0 1-2.123 0 1.453 1.453 0 0 1 0-2.083c.145-.142.312-.25.491-.321V8.463a1.5 1.5 0 0 1-.491-.322 1.45 1.45 0 0 1-.324-1.61L7.44 4.352l-5.866 5.753a1.22 1.22 0 0 0 0 1.75l8.555 8.39a1.28 1.28 0 0 0 1.784 0l8.515-8.35a1.22 1.22 0 0 0 0-1.751"/></svg>