<svg xmlns="http://www.w3.org/2000/svg" fill="none" viewBox="0 0 20 20"><g clip-path="url(#a)"><path fill="currentColor" d="M3.784 4.098c-.198 0-.42.016-.67.07-.266.056-1.022.226-1.64.82C.104 6.21.454 8.153.496 8.446c.052.356.21 1.346.966 2.208 1.395 1.709 4.399 1.67 4.399 1.67s.368.88.931 1.69c.762 1.008 1.545 1.794 2.306 1.889 1.92 0 5.755-.003 5.755-.003s.365.003.862-.315c.427-.258.808-.712.808-.712s.393-.42.942-1.38c.167-.296.307-.582.429-.853 0 0 1.68-3.567 1.68-7.04-.033-1.051-.292-1.236-.353-1.298-.124-.124-.292-.122-.292-.122s-3.57.201-5.419.244q-.608.016-1.206.022v3.57l-.506-.24c0-1.11-.004-3.328-.004-3.328-.883.013-2.716-.067-2.716-.067S4.77 4.166 4.3 4.123c-.15-.01-.32-.025-.517-.025m.282 1.462h.089s.216 1.81.478 2.87c.22.89.755 2.368.755 2.368s-.795-.095-1.31-.278c-.79-.258-1.123-.57-1.123-.57s-.583-.407-.875-1.212c-.503-1.347-.042-2.169-.042-2.169s.255-.685 1.173-.914a3.6 3.6 0 0 1 .855-.095m6.647 2.038c.207.002.406.1.406.1l.692.338-.422.857a.55.55 0 0 0-.552.597c.01.107.052.21.12.293l-.75 1.535a.55.55 0 0 0-.526.42.55.55 0 0 0 .277.61.55.55 0 0 0 .691-.165.55.55 0 0 0-.054-.704l.73-1.495q.096.008.19-.016a.5.5 0 0 0 .216-.11q.418.18.81.41c.095.052.174.13.229.224.058.168-.059.454-.059.454-.07.232-.56 1.237-.56 1.237a.55.55 0 0 0-.54.38.543.543 0 1 0 .924-.2c.058-.113.113-.225.17-.344.152-.317.412-.926.412-.926.028-.053.174-.314.082-.65-.076-.346-.383-.508-.383-.508-.373-.24-.89-.463-.89-.463s0-.125-.034-.216a.55.55 0 0 0-.118-.192l.412-.847 2.306 1.118s.382.173.465.493a.84.84 0 0 1-.055.525c-.192.468-1.676 3.444-1.676 3.444s-.185.442-.597.47a.9.9 0 0 1-.313-.037l-.162-.063-3.439-1.676s-.332-.174-.39-.476c-.067-.247.082-.55.082-.55l1.655-3.41s.146-.295.371-.396a.7.7 0 0 1 .28-.061"/></g><defs><clipPath id="a"><path fill="currentColor" d="M0 0h20v20H0z"/></clipPath></defs></svg>