<svg xmlns="http://www.w3.org/2000/svg" fill="none" viewBox="0 0 20 20"><path fill="currentColor" d="M18.5 6.548 13.46 1.503a5.7 5.7 0 0 0-2.084-1.26C9.655-.33 7.942.118 6.555 1.503l-5.05 5.045a5.7 5.7 0 0 0-1.26 2.084c-.576 1.722-.128 3.435 1.26 4.82l5.044 5.045a5.7 5.7 0 0 0 2.082 1.26c.47.159.963.24 1.46.243 1.21 0 2.368-.511 3.362-1.503l5.042-5.045a5.7 5.7 0 0 0 1.262-2.084c.573-1.722.126-3.433-1.262-4.82zm-8.11-3.581c.38.122.731.323 1.03.59l1.49 1.492-2.906 2.905-2.907-2.907 1.499-1.501c.402-.4.969-.825 1.797-.581zM2.971 9.609a2.85 2.85 0 0 1 .592-1.03l1.49-1.491 2.907 2.907-2.909 2.907L3.553 11.4c-.402-.4-.824-.967-.583-1.796zm6.642 7.418a2.8 2.8 0 0 1-1.03-.59l-1.487-1.474 2.907-2.909 2.907 2.907-1.5 1.501c-.401.4-.966.825-1.797.582zm7.422-6.628a2.9 2.9 0 0 1-.59 1.03l-1.49 1.473-2.907-2.907 2.907-2.907 1.498 1.499c.402.4.825.967.584 1.795"/></svg>