<svg xmlns="http://www.w3.org/2000/svg" fill="none" viewBox="0 0 20 20"><path fill="currentColor" d="M12.793 13.88c-.497.14-1.617.37-3.216.37-1.57 0-2.854-.27-2.859-.586 0-.208.253-.302.253-.302l-.046-.027c-.752.133-1.45.338-1.446.647.007.557 2.142.977 4.095.977 1.664 0 3.254-.28 3.974-.644zm-5.305 1.725c-.35.07-1.11.245-1.11.614 0 .513 1.627.904 3.198.904 2.16 0 3.044-.555 3.084-.585l-.898-.52c-.715.17-1.45.249-2.184.235-1.294 0-2.136-.222-2.136-.464a.2.2 0 0 1 .092-.157zm8.828-3.444c-.06 1.158-1.132 1.881-2.202 2.49l.098.057c1.144-.322 3.18-1.257 3.016-2.696-.083-.718-.74-1.23-1.595-1.23-.235 0-.47.035-.694.104l-.042.104c.765-.15 1.463.41 1.424 1.17m-6.77 6.804c3.005-.026 6.367-.615 6.36-1.603a.48.48 0 0 0-.22-.376l-.05.028c-.278.765-2.626 1.331-6.096 1.361-2.238.02-5.339-.52-5.344-1.136-.005-.617 1.469-.964 1.469-.964l-.104-.059c-.988.135-2.809.608-2.803 1.292.009.987 4.192 1.479 6.788 1.457m-.312.705c-1.3.009-2.598-.09-3.881-.294l-.115.066c1.224.358 2.924.575 4.794.558 3.672-.032 6.65-.942 6.708-2.039l-.042-.024c-.246.299-1.834 1.685-7.464 1.733m-4.602-7.775c0-.553 2.1-.864 3.079-.936l.093.054c-.376.068-1.883.334-1.883.681 0 .378 2.311.625 3.655.625 2.28 0 3.83-.346 4.247-.46l.583.34c-.4.196-2.113.707-4.83.707-3.017 0-4.944-.59-4.944-1.009"/><path fill="currentColor" d="m13.752 4.157-.051-.029c-.918.312-3.745 1.423-3.745 3.503 0 1.176 1.145 1.827 1.145 2.93 0 .393-.223.762-.403.982l.09.053c.478-.312 1.325-.983 1.325-1.853 0-.735-1.019-1.62-1.019-2.565 0-1.49 1.965-2.659 2.653-3.022m-1.383-2.725c0 3.078-4.216 4.254-4.216 6.443 0 1.536 1.017 2.496 1.58 3.109l-.045.026c-.712-.445-2.584-1.56-2.584-3.412 0-2.593 4.844-3.833 4.844-6.778a3.3 3.3 0 0 0-.09-.79L11.902 0c.31.411.474.916.462 1.431"/></svg>