<svg xmlns="http://www.w3.org/2000/svg" fill="none" viewBox="0 0 22 22"><path fill="currentColor" d="m18.499 19.513.047.028a.25.25 0 0 1 .124.229c-.022.41-.28.736-.652.986-.37.25-.887.447-1.507.603-1.245.313-2.982.473-5.01.49h-.034q-.617.03-1.302.037-.253 0-.506-.002c-.44.008-.876.015-1.294.012-1.008-.006-1.958-.064-2.668-.272a.25.25 0 0 1-.053-.456l.125-.072a.25.25 0 0 1 .164-.03c1.23.195 2.474.301 3.72.318.598-.012 1.204-.029 1.8-.034 5.11-.236 6.542-1.554 6.727-1.78a.25.25 0 0 1 .319-.057"/><path fill="currentColor" d="m8.36 16.948.051.03.078.043c.125.072.132.25.012.33.082.041.207.087.383.128.385.088.952.149 1.651.149h.006a9.3 9.3 0 0 0 2.34-.251.25.25 0 0 1 .182.027l.988.572a.25.25 0 0 1 .023.418c-.096.07-1.125.69-3.54.69-.882 0-1.783-.108-2.472-.293-.342-.092-.646-.206-.87-.344-.159-.098-.322-.236-.391-.42l-.507.118H6.29l-.012.003-.048.013a5 5 0 0 0-.703.244 2 2 0 0 0-.493.293c-.122.106-.16.19-.163.253.004.008.017.03.062.066q.106.091.359.199c.336.141.822.274 1.395.387 1.145.228 2.596.37 3.81.359 1.897-.017 3.478-.18 4.615-.44.57-.13 1.02-.282 1.338-.446.328-.169.475-.328.519-.447a.26.26 0 0 1 .112-.133l.056-.031a.25.25 0 0 1 .257.008.78.78 0 0 1 .345.52l.01.09.002.013h-.002c.003.424-.35.733-.755.952-.426.23-1.016.42-1.693.572-1.359.306-3.129.476-4.794.49-1.44.012-3.32-.117-4.846-.388-.76-.136-1.448-.309-1.951-.523-.25-.107-.47-.23-.632-.374a.8.8 0 0 1-.283-.48l-.007-.085c-.002-.307.199-.546.424-.719.231-.178.541-.329.869-.454a9.8 9.8 0 0 1 2.007-.498.25.25 0 0 1 .157.03l.114.066.413.235a1 1 0 0 1-.006-.08c0-.195.103-.346.218-.45a1.4 1.4 0 0 1 .4-.24c.283-.12.61-.19.803-.23a.25.25 0 0 1 .172.028M7.745 14.453l.05.03.453.267-.492.182h-.001l-.017.008a.4.4 0 0 0-.054.035q-.017.014-.026.025a1 1 0 0 0 .091.053c.133.064.342.128.618.185.549.113 1.316.186 2.167.186 1.737 0 2.945-.248 3.47-.397a.26.26 0 0 1 .193.024l.83.478a.25.25 0 0 1-.011.44c-.43.218-1.095.4-1.869.528-.779.13-1.687.207-2.616.207-1.089 0-2.232-.117-3.11-.313-.436-.098-.82-.219-1.103-.362a1.4 1.4 0 0 1-.363-.253.6.6 0 0 1-.163-.277l-.016-.116a.56.56 0 0 1 .22-.428c.114-.096.265-.172.423-.235.319-.127.737-.224 1.155-.298l.092-.016zM17.197 11.61c.97 0 1.785.553 1.973 1.4l.03.175.01.171c.019.849-.56 1.52-1.233 2.004-.725.522-1.63.877-2.277 1.059a.25.25 0 0 1-.191-.024l-.109-.061a.25.25 0 0 1 .001-.435c.587-.334 1.151-.687 1.576-1.104.422-.414.692-.876.721-1.432q.001-.018.005-.035c.011-.64-.583-1.127-1.268-.993a.25.25 0 0 1-.28-.339l.045-.114a.25.25 0 0 1 .16-.146c.27-.083.553-.126.837-.126"/><path fill="currentColor" d="m8.612 11.838.104.058a.25.25 0 0 1-.081.463c-.209.038-.715.128-1.168.254-.228.064-.43.133-.57.204l-.047.027q.064.03.165.063c.241.078.59.148.996.207.808.118 1.8.185 2.528.185 2.484 0 4.167-.376 4.607-.495a.25.25 0 0 1 .19.024l.643.373a.25.25 0 0 1-.016.441c-.486.238-2.414.803-5.424.803-1.674 0-3.053-.162-4.02-.387-.482-.113-.872-.242-1.147-.38a1.4 1.4 0 0 1-.347-.232.53.53 0 0 1-.17-.303l-.004-.057v-.002q0-.028.005-.054a.58.58 0 0 1 .166-.336c.093-.095.214-.174.343-.24.26-.132.605-.24.967-.327.729-.176 1.59-.282 2.138-.322q.077-.005.142.033"/><path fill="currentColor" d="m15.195 4.324.056.032a.25.25 0 0 1 .094.341.25.25 0 0 1-.131.109c-.376.2-1.068.604-1.667 1.148-.62.563-1.093 1.231-1.093 1.941 0 .441.24.887.525 1.37.137.232.285.475.396.71.11.233.2.485.2.742 0 .561-.274 1.041-.593 1.412-.32.372-.706.657-.978.835a.25.25 0 0 1-.26.008l-.1-.057a.25.25 0 0 1-.07-.375c.185-.226.387-.577.387-.924 0-.52-.267-.941-.59-1.446-.31-.486-.669-1.047-.669-1.777 0-1.266.861-2.209 1.787-2.859.932-.654 1.989-1.055 2.501-1.23l.108-.035z"/><path fill="currentColor" d="M13.033.114c.117-.04.249 0 .324.1.163.216.297.404.382.617.087.218.118.447.112.743 0 1.816-1.249 3.054-2.402 4.096-.59.532-1.15 1.01-1.571 1.506-.418.493-.665.969-.665 1.485 0 1.575 1.036 2.559 1.673 3.251a.25.25 0 0 1-.06.387l-.052.028a.25.25 0 0 1-.255-.006c-.388-.242-1.124-.686-1.76-1.333-.638-.647-1.2-1.523-1.2-2.632 0-.796.374-1.472.893-2.075.517-.599 1.202-1.154 1.861-1.7.669-.553 1.316-1.1 1.796-1.705.478-.6.779-1.24.779-1.976V.898c0-.156.004-.197 0-.242a1.4 1.4 0 0 0-.04-.203.29.29 0 0 1 .136-.316z"/></svg>