<svg xmlns="http://www.w3.org/2000/svg" fill="none" viewBox="0 0 22 22"><g fill="currentColor" clip-path="url(#a)"><path d="m15.868 13.479.233.19q.03.026.033.064a.1.1 0 0 1-.023.068c-.334.371-1.26 1.214-2.949 1.214H8.84c-1.693 0-2.62-.843-2.948-1.215a.1.1 0 0 1-.023-.068.1.1 0 0 1 .033-.063l.232-.19.032-.017c.033-.01.07 0 .095.028.27.304 1.07 1.046 2.579 1.046h4.323c1.51 0 2.311-.738 2.58-1.046l.028-.022a.09.09 0 0 1 .098.011M7.608 9.526a1.297 1.297 0 1 1-.002 2.594 1.297 1.297 0 0 1 .002-2.594"/><path fill-rule="evenodd" d="M7.608 8.934c.522 0 .994.212 1.333.55l.121.136a1.88 1.88 0 0 1 0 2.396l-.121.134a1.892 1.892 0 0 1-2.665.001l-.002-.001a1.891 1.891 0 0 1 0-2.666l.134-.12a1.88 1.88 0 0 1 1.2-.43m0 .42c-.402 0-.772.163-1.042.427l.002.001a1.47 1.47 0 0 0-.428 1.04c0 .402.163.771.426 1.04a1.476 1.476 0 0 0 2.081 0l.096-.103c.209-.253.338-.58.338-.936l-.01-.15a1.5 1.5 0 0 0-.33-.787l-.094-.104a1.47 1.47 0 0 0-1.039-.427" clip-rule="evenodd"/><path d="M14.394 9.526a1.297 1.297 0 1 1-1.29 1.429l-.007-.132c0-.716.58-1.297 1.297-1.297"/><path fill-rule="evenodd" d="M14.394 8.934c.457 0 .871.162 1.198.43l.134.12h.001l.122.135c.27.327.428.742.428 1.198 0 .457-.162.872-.429 1.199l-.121.134c-.339.339-.811.55-1.333.55a1.88 1.88 0 0 1-1.883-1.883c0-.522.211-.99.55-1.333l.133-.12a1.88 1.88 0 0 1 1.2-.43m-.006.42c-.407 0-.771.163-1.04.427v.001a1.47 1.47 0 0 0-.433 1.04c0 .403.165.771.434 1.04l.103.094c.253.208.579.334.936.334.403 0 .772-.164 1.04-.428l.095-.103a1.47 1.47 0 0 0 .334-.937l-.006-.151a1.4 1.4 0 0 0-.326-.784l-.096-.105a1.47 1.47 0 0 0-1.04-.427" clip-rule="evenodd"/><path fill-rule="evenodd" d="M11.489 3.117c.712.042 1.404.17 1.979.363.328.11.62.24.856.39.22.14.392.3.503.475a5.25 5.25 0 0 1 3.554 2.593l2.003-2.114.044-.026a.1.1 0 0 1 .053.003.09.09 0 0 1 .06.078l.082.99c.112-.178.264-.412.428-.662.262-.4.554-.848.759-1.187l.04-.034a.1.1 0 0 1 .05-.009.09.09 0 0 1 .076.067c.018.064.023.168.024.291 0 .127-.005.287-.014.466a39.783 39.783 0 0 1-.305 2.954l-.048.277c-.048.198-.235.984-.475 1.715-.12.364-.254.72-.391.982-.068.13-.14.244-.215.323-.071.077-.163.14-.268.13a.1.1 0 0 1-.03-.007.13.13 0 0 1-.047-.037l-.023-.037a1 1 0 0 1-.04-.088 4 4 0 0 1-.087-.258l-.158-.502-1.04 1.93a5.87 5.87 0 0 1-4.4 4.276c.035.245.039.49.026.701a3.1 3.1 0 0 1-.245 1.016c-.153.33-.397.625-.774.7h.002a.8.8 0 0 1-.395-.011c-.432-.117-.915-.36-1.351-.622a1 1 0 0 1-.367.075h-.693a1 1 0 0 1-.368-.075c-.433.267-.915.506-1.352.622H8.94a1 1 0 0 1-.385.013l-.003-.002c-.377-.074-.62-.37-.772-.7a3 3 0 0 1-.22-.778l-.027-.237a3.2 3.2 0 0 1 .02-.71 5.88 5.88 0 0 1-4.411-4.279L2.1 10.243c-.057.18-.11.356-.156.505a4 4 0 0 1-.088.258 1 1 0 0 1-.04.088.2.2 0 0 1-.026.037l-.05.035-.025.006c-.105.01-.196-.056-.268-.133a1.5 1.5 0 0 1-.214-.323 7 7 0 0 1-.39-.982c-.24-.73-.43-1.513-.477-1.712-.05-.209-.163-1.1-.25-1.981a30 30 0 0 1-.102-1.245A8 8 0 0 1 0 4.33c0-.124.007-.228.025-.292l.027-.044a.09.09 0 0 1 .138.021l.359.572c.131.204.27.416.401.616.164.25.314.486.426.662l.083-.99.019-.05a.092.092 0 0 1 .139-.006l2.001 2.12a5.25 5.25 0 0 1 3.554-2.594c.11-.176.285-.335.504-.474.236-.15.528-.281.856-.391.657-.22 1.468-.357 2.287-.376h.363zM8.828 15.928c-.133-.05-.235-.047-.314-.015a.43.43 0 0 0-.205.202c-.115.207-.164.532-.15.876s.09.69.207.934a.7.7 0 0 0 .195.264q.097.074.202.045l.28-.09c.256-.097.513-.232.746-.37a1 1 0 0 1-.094-.292 14 14 0 0 1-.737.261.092.092 0 0 1-.083-.16l.469-.355c.06-.043.11-.071.213-.132-.08-.04-.125-.06-.178-.093-.074-.045-.177-.115-.456-.29a.091.091 0 0 1 .069-.166q.414.097.69.176a1 1 0 0 1 .078-.323 12 12 0 0 0-.725-.383zm4.654-.008c-.078-.03-.18-.033-.312.019a7 7 0 0 0-.936.472 1 1 0 0 1 .078.305q.259-.072.63-.158a.09.09 0 0 1 .104.053c.017.041.002.09-.036.113-.27.17-.374.24-.45.285-.058.035-.103.055-.186.096.106.063.157.09.22.136.079.055.184.139.464.348a.09.09 0 0 1 .027.115.09.09 0 0 1-.078.049l-.032-.005a19 19 0 0 1-.674-.236 1 1 0 0 1-.09.268c.314.184.682.364 1.023.454l.052.008q.076.003.15-.053a.7.7 0 0 0 .194-.264c.118-.243.193-.589.207-.931.014-.344-.035-.669-.15-.875a.43.43 0 0 0-.205-.199M7.094 5.018a4.575 4.575 0 0 0-3.487 4.43v1.295c0 2.496 1.781 4.591 4.134 5.086a1.1 1.1 0 0 1 .463-.473l.107-.048a1.06 1.06 0 0 1 .762.023l.21.088c.207.094.41.206.602.312.114.062.233.129.347.195a1 1 0 0 1 .425-.1h.693a.95.95 0 0 1 .424.099l.346-.194c.253-.143.533-.292.814-.4l.107-.037c.25-.072.512-.067.758.06.214.109.366.283.47.483 2.348-.498 4.123-2.591 4.123-5.083V9.46c0-2.137-1.494-3.94-3.486-4.43l-1.209 3.257c-.157.422-.439.831-.99.831H9.293c-.481 0-.757-.313-.924-.674l-.064-.157zm-6.499.754c.22 1.487.502 2.643.974 4.057l.15-.975.025-.05a.09.09 0 0 1 .144.016l1.072 1.814V9.46c0-.668.127-1.307.361-1.895L2.015 6.07l-.21 1.572a.09.09 0 0 1-.074.078.09.09 0 0 1-.097-.046zm19.766 1.902a.09.09 0 0 1-.096.046.09.09 0 0 1-.074-.078l-.212-1.572-1.306 1.494c.234.588.362 1.227.362 1.895v1.175l1.073-1.814.04-.037a.092.092 0 0 1 .128.07l.149.977c.475-1.414.755-2.573.974-4.058zm-9.357-3.716a9.6 9.6 0 0 0-2.378.324c-.32.09-.577.19-.742.29a.6.6 0 0 0-.165.134c-.027.035-.024.054-.02.065l1.22 3.287.07.164q.039.075.085.13c.06.07.13.112.224.112h3.404a.28.28 0 0 0 .224-.112 1 1 0 0 0 .156-.294l1.22-3.287.002-.024a.1.1 0 0 0-.021-.043.6.6 0 0 0-.164-.133 3.2 3.2 0 0 0-.742-.29 9.5 9.5 0 0 0-2.373-.323" clip-rule="evenodd"/></g><defs><clipPath id="a"><path fill="currentColor" d="M0 0h22v22H0z"/></clipPath></defs></svg>