<svg xmlns="http://www.w3.org/2000/svg" fill="none" viewBox="0 0 22 22"><g clip-path="url(#a)"><path fill="currentColor" d="m9.767 14.328-1.162.324c.1.293.183.819.183 1.526v3.479h1.303v-3.68c.243-.294.506-.435.788-.435.143 0 .254.03.375.1l.354-1.202a.96.96 0 0 0-.486-.112q-.22 0-.425.083c-.242.12-.546.394-.737.655 0-.293-.071-.525-.193-.738M5.28 12.611h-.141v7.036h1.354v-3.115H8.2V15.37h-1.71v-1.617h2.135l.08-.617a21.7 21.7 0 0 1-3.426-.525m-3.164 7.975.627.73c.607-.244 1.366-.79 1.567-1.66.07-.282.092-.464.092-1.384V12.62h-1.37v5.802c0 .76-.029 1.042-.13 1.305-.132.293-.445.637-.788.86zm12.303-3.568c0 1.234-.242 1.76-.798 1.76a.72.72 0 0 1-.658-.425c-.1-.263-.16-.709-.16-1.315 0-.516.05-.88.13-1.162.101-.324.354-.526.668-.526.232 0 .434.1.555.273.182.243.263.696.263 1.395m.798 2.022c.426-.505.617-1.123.617-2.012 0-.84-.17-1.415-.565-1.9-.425-.526-.972-.78-1.678-.78-1.335 0-2.224 1.082-2.224 2.72s.88 2.69 2.223 2.69c.759.009 1.253-.272 1.627-.718m3.701-2.912c0 .477-.284.738-.788.738-.456 0-.76-.211-.76-.738 0-.485.285-.768.769-.768.486 0 .78.284.78.768m2.295-1.112-.537-.859c-.302.284-.666.445-1.02.445-.162 0-.253-.02-.607-.11a3 3 0 0 0-.889-.133c-1.265 0-2.083.687-2.083 1.76 0 .767.344 1.253 1.062 1.444-.293.07-.607.223-.748.395a.72.72 0 0 0-.152.476c0 .162.04.303.1.425.067.111.166.2.285.252.232.091.605.152 1.182.162.303 0 .485.01.546.01.354.02.535.082.677.151.131.082.232.263.232.466a.64.64 0 0 1-.313.525c-.172.121-.455.172-.82.172-.595 0-.929-.222-.929-.637 0-.183.02-.222.06-.333h-1.192c-.05.1-.111.243-.111.525 0 .354.131.657.405.92.444.435 1.172.556 1.87.556.768 0 1.516-.182 1.95-.667.273-.303.395-.637.395-1.072 0-.465-.132-.819-.425-1.111-.344-.334-.738-.456-1.496-.466l-.698-.009c-.13 0-.212-.051-.212-.122 0-.141.182-.264.516-.425.1.009.131.009.192.009 1.05 0 1.82-.646 1.82-1.546 0-.343-.102-.606-.294-.85.162.02.212.031.333.031.344 0 .617-.11.9-.384M4.935 6.495c-1.617.394-2.718 1.172-2.718 2.062 0 .556.424 1.06 1.122 1.455a1.98 1.98 0 0 1-.324-1.06c.01-.921.728-1.78 1.92-2.457M22 9.982c0-.587-.364-1.122-.97-1.567.05.183.09.364.09.546 0 1.669-2.335 3.103-5.65 3.7.374.04.758.06 1.162.06C19.592 12.713 22 11.49 22 9.982m-1.91-.91c0-.617-.526-1.182-1.426-1.648.211.253.324.526.324.81 0 1.485-3.153 2.688-7.057 2.688-3.892 0-7.056-1.203-7.056-2.688q0-.29.151-.547c-.626.414-.98.89-.98 1.395 0 1.607 3.589 2.912 8.017 2.912s8.027-1.325 8.027-2.922m-3.498-.08c-1.637 1.052-6.673 1.456-8.836.101-1.699-1.061-1.112-2.75-5.975-6.45-.636-.485.122-1 .597-.667.475.334.04.416 1 1.375 1.941 1.942 1.921.193 2.225.86.647 1.384 2.062 2.78 2.062 2.78 1.426.93 2.558 1.132 4.66-.294 1.335-.9.789 1.436 4.055-.252 1.192-.617 1.142-.202 2.355-1.891.504-.697 1.467.536.374.708-.435.071-1.174.546-1.486 1.294-.455 1.122-.263 1.95-1.031 2.437m-9.079-2.85C7.11 5.959 6.684 5.27 6.523 5c.455-.446.272-1.183.01-1.588-.253-.403-.566-.293-.9-.667-.344-.375.131-1.344.566-.596 1.628 2.8 2.7 1.637 4.025 1.465 1.274-.162 2.405.536 2.75-1.435.06-.324.373-.394.403.131.03.536.233 1.83.93 1.992.697.171 1.263-.162 1.426-.344.161-.183.252-.162.323.303.07.455.252 1.092 1.233.385 2.012-1.436 1.436-1.992 2.224-2.365.445-.213 1.152.474.132.99-1.456.738-1.608 1.647-2.527 2.224-1.547.97-1.073.04-3.559-.314-.96-.131-1.265.93-2.012.627-1.708-.708-2.913-.566-4.034.334m5.39-5.186c.06.425.13.414.282.445.152.04.344-.202.344-.425.01-.233-.1-.374-.323-.364-.233.01-.314.121-.304.344m7.48.758c.182.172.666.06.778-.071.294-.323.303-.516.151-.738-.15-.212-.464-.182-.779.051-.312.232-.253.667-.15.758m-.132 2.143c-.151.202-.161.354-.05.465.12.121.363.222.536.092.171-.142.171-.345.03-.516-.152-.184-.354-.184-.516-.04M4.906 1.33c.232.07.343.294.535.04.101-.121.11-.293-.02-.476C5.34.783 4.955.7 4.793.863s-.009.426.111.466zM.163 1.187c.425.263.697.657 1.021.303.111-.12.242-.333.01-.758C1.024.42.468.298.276.42c-.202.11-.445.566-.111.768zM4.076 3.2c.132.141.364.131.506.05.132-.08.11-.293-.02-.474-.081-.112-.324-.173-.486 0-.162.171-.09.322 0 .424"/></g><defs><clipPath id="a"><path fill="currentColor" d="M0 0h22v22H0z"/></clipPath></defs></svg>