<svg xmlns="http://www.w3.org/2000/svg" fill="none" viewBox="0 0 22 22"><path fill="currentColor" d="M12.748 12.332a.33.33 0 0 0-.378.214.34.34 0 0 0 .007.253l-.003.003.776 1.874a3.96 3.96 0 0 0 1.6-2.01l-1.999-.338zm-3.11.266a.34.34 0 0 0-.391-.258l-.004-.004-1.981.337a3.97 3.97 0 0 0 1.595 1.996l.768-1.856-.006-.007a.34.34 0 0 0 .019-.208m1.66.727a.34.34 0 0 0-.597.001h-.002l-.974 1.762a3.97 3.97 0 0 0 2.556.002l-.976-1.765zm3.084-4.092-1.5 1.341.001.005a.34.34 0 0 0 .133.581l.002.008 1.942.56a4.03 4.03 0 0 0-.578-2.495m-2.785.15a.338.338 0 0 0 .537.258l.006.003 1.64-1.163a4 4 0 0 0-2.3-1.11l.115 2.011zm-1.738.266a.338.338 0 0 0 .537-.26l.009-.004.114-2.013q-.206.025-.41.07A3.95 3.95 0 0 0 8.205 8.48l1.651 1.17zm-.88 1.521a.338.338 0 0 0 .133-.582l.002-.008-1.508-1.348a3.95 3.95 0 0 0-.56 2.502l1.932-.557zm1.464.592.556.268.555-.267.138-.599-.384-.48h-.618l-.384.48z"/><path fill="currentColor" fill-rule="evenodd" d="M10.999 1.237c.2 0 .4.045.58.131l6.998 3.34a1.35 1.35 0 0 1 .723.901l1.73 7.51a1.34 1.34 0 0 1-.26 1.122l-4.841 6.023a1.36 1.36 0 0 1-1.046.498l-7.765.001a1.36 1.36 0 0 1-1.046-.498l-4.844-6.023a1.33 1.33 0 0 1-.256-1.122l1.725-7.51a1.35 1.35 0 0 1 .724-.899l6.996-3.343A1.35 1.35 0 0 1 11 1.237m4.224 18.514q.084-.053.158-.118zM10.998 4.397a.387.387 0 0 0-.383.343v.19q.014.153.041.303l.012.062q.054.346.042.696a.4.4 0 0 1-.124.2l-.01.161q-.35.03-.694.108a4.94 4.94 0 0 0-2.507 1.432l-.14-.099a.3.3 0 0 1-.227-.022 3.6 3.6 0 0 1-.517-.467 3 3 0 0 0-.123-.138l-.13-.13-.086-.07a.46.46 0 0 0-.267-.1.38.38 0 0 0-.306.137.407.407 0 0 0 .094.565l.007.004c.025.02.056.047.079.064q.154.102.318.187.305.172.57.4a.43.43 0 0 1 .078.222l.122.11a5 5 0 0 0-.337.592 4.97 4.97 0 0 0-.446 2.87l-.16.048a.5.5 0 0 1-.166.166q-.337.09-.687.112a3 3 0 0 0-.369.03l-.102.024h-.004l-.005.002-.078.02a.4.4 0 0 0-.188.142.4.4 0 0 0-.06.306.4.4 0 0 0 .046.108q.01.02.022.037.044.058.106.096l.013.009a.4.4 0 0 0 .073.032l.079.015a.4.4 0 0 0 .158-.016l.005-.002.008-.002c.031-.007.072-.014.1-.022q.175-.056.343-.131l.03-.01q.31-.124.64-.188a.4.4 0 0 1 .116.024l.104.053.168-.028.075.216a5 5 0 0 0 2.138 2.549l-.07.167a.4.4 0 0 1 .035.217 3.8 3.8 0 0 1-.348.623 3 3 0 0 0-.205.307c-.016.029-.036.074-.05.105a.4.4 0 0 0-.026.055.4.4 0 0 0-.027.095.386.386 0 0 0 .294.423l.08.01a.4.4 0 0 0 .156-.029q.015-.007.029-.015a.4.4 0 0 0 .103-.074.4.4 0 0 0 .084-.137l.002-.001c.014-.03.035-.07.047-.099q.065-.172.11-.351.1-.366.297-.69a.3.3 0 0 1 .166-.08l.087-.157a4.97 4.97 0 0 0 3.542.009l.082.146a.3.3 0 0 1 .195.12q.164.31.265.646.045.179.11.35c.013.03.034.07.048.1a.39.39 0 0 0 .293.248l.08.007a.387.387 0 0 0 .32-.584c-.014-.03-.034-.074-.05-.102a3 3 0 0 0-.205-.307 3.6 3.6 0 0 1-.34-.61.3.3 0 0 1 .03-.225 1 1 0 0 1-.064-.156 5 5 0 0 0 2.212-2.783l.164.03a.3.3 0 0 1 .216-.081q.344.066.669.196.168.078.344.134c.027.008.068.014.1.02l.007.003.005.002a.4.4 0 0 0 .31-.03.4.4 0 0 0 .066-.048l.053-.059a.4.4 0 0 0 .07-.303.39.39 0 0 0-.328-.309l-.112-.027a3 3 0 0 0-.368-.029 3.6 3.6 0 0 1-.689-.112.43.43 0 0 1-.164-.168l-.155-.044a5 5 0 0 0-.8-3.454l.136-.123a.3.3 0 0 1 .071-.217 3.6 3.6 0 0 1 .571-.401q.165-.085.32-.187l.084-.067a.4.4 0 0 0 .174-.262.4.4 0 0 0-.004-.133l-.004-.028a.386.386 0 0 0-.644-.178c-.026.021-.062.048-.085.068q-.135.127-.253.268-.236.26-.518.47a.43.43 0 0 1-.233.023l-.146.105a5.03 5.03 0 0 0-3.186-1.54l-.01-.17a.3.3 0 0 1-.125-.193 3.6 3.6 0 0 1 .044-.696q.036-.18.052-.366V4.74a.39.39 0 0 0-.227-.31.4.4 0 0 0-.077-.026z" clip-rule="evenodd"/></svg>