<svg xmlns="http://www.w3.org/2000/svg" fill="none" viewBox="0 0 22 22"><path fill="currentColor" d="m4.799 10.976 5.518-5.517a.53.53 0 0 0 .168-.393V1.783a.58.58 0 0 0-.347-.515.56.56 0 0 0-.608.122L2.248 8.682C1.47 9.46 1.1 10.21 1.09 11c-.01.788.359 1.527 1.124 2.29l7.314 7.316a.53.53 0 0 0 .393.168.32.32 0 0 0 .215-.068.56.56 0 0 0 .346-.517v-3.303a.57.57 0 0 0-.168-.393zm-2.18 1.09c-.28-.372-.414-.72-.414-1.058.01-.47.28-.975.831-1.527l6.325-6.327v1.699l-5.83 5.83c-.407.383-.72.857-.912 1.382m6.743 6.775-5.327-5.326a.6.6 0 0 0-.077-.1c-.169-.17-.674-.676.077-1.619l5.326 5.325zm3.11-17.44a.55.55 0 0 0-.606-.123.56.56 0 0 0-.349.517V5.11a.57.57 0 0 0 .169.393l5.516 5.516-5.516 5.518a.53.53 0 0 0-.169.393v3.27a.563.563 0 0 0 .955.404l7.28-7.28c.776-.776 1.147-1.528 1.156-2.315.014-.787-.357-1.528-1.123-2.292zm.168 3.473V3.156l5.327 5.324c.021.036.05.07.078.1.168.17.673.675-.078 1.62l-5.325-5.327zm6.315 7.652-6.325 6.326v-1.684l5.83-5.844c.404-.386.716-.858.91-1.382.281.371.417.72.417 1.057-.012.47-.28.966-.832 1.527m-3.82-1.068H6.789a.426.426 0 0 1-.426-.426v-.045c0-.236.19-.428.426-.428h8.348a.43.43 0 0 1 .428.428v.045a.434.434 0 0 1-.428.426zm-1.19-2.101v.046a.427.427 0 0 1-.429.426H8.393a.426.426 0 0 1-.428-.426v-.046c0-.235.191-.427.428-.427h5.123c.236 0 .426.192.426.427zm-1.585-1.64v.044a.426.426 0 0 1-.427.428H9.9a.426.426 0 0 1-.426-.428v-.045c0-.236.191-.426.426-.426h2.034a.42.42 0 0 1 .426.426zm-.427 6.145c.235 0 .426.192.426.428v.045a.425.425 0 0 1-.426.426H9.9a.426.426 0 0 1-.426-.426v-.045c0-.236.191-.428.426-.428zm1.584-.753H8.393a.427.427 0 0 1-.427-.426v-.044a.43.43 0 0 1 .427-.428h5.124c.236 0 .426.191.426.428v.044a.426.426 0 0 1-.426.426"/></svg>