<svg xmlns="http://www.w3.org/2000/svg" fill="none" viewBox="0 0 22 22"><path fill="currentColor" d="M3.438 18.563h15.125v-4.125H3.438zm11-2.063a1.375 1.375 0 1 1 2.75 0 1.375 1.375 0 0 1-2.75 0m-13.063-.687h.688v-4.126h-.688zm2.063-2.75h15.125V8.936H3.438zm11-2.063a1.375 1.375 0 1 1 2.75 0 1.375 1.375 0 0 1-2.75 0m5.5-.687h.687V6.187h-.687zm-16.5-2.75h15.125V3.438H3.438zm11-2.063a1.375 1.375 0 1 1 2.75 0 1.375 1.375 0 0 1-2.75 0m5.5-.687h1.03c.57 0 1.032.461 1.032 1.03v4.813c0 .57-.462 1.031-1.031 1.031h-1.032v4.126h1.375a.687.687 0 1 1 0 1.374h-1.375v1.494c0 .737-.626 1.256-1.297 1.256H3.36c-.671 0-1.297-.519-1.297-1.256v-1.494H1.03c-.57 0-1.031-.461-1.031-1.03v-4.813c0-.57.462-1.031 1.031-1.031h1.032V6.187H.687a.687.687 0 1 1 0-1.375h1.376V3.32c0-.737.626-1.256 1.297-1.256h15.28c.671 0 1.297.519 1.297 1.256z"/></svg>