<svg xmlns="http://www.w3.org/2000/svg" fill="none" viewBox="0 0 22 22"><path fill="currentColor" d="M9.968 1.123a3.91 3.91 0 0 1 5.483 0l.137.143a3.8 3.8 0 0 1 .96 3.091 3.9 3.9 0 0 1 3.127.95l.145.137.044.044a3.805 3.805 0 0 1 0 5.423l-7.902 7.816a.24.24 0 0 0 0 .338l1.623 1.605a.773.773 0 0 1 0 1.102.794.794 0 0 1-1.114 0l-1.623-1.605a1.784 1.784 0 0 1 0-2.542l7.903-7.815a2.26 2.26 0 0 0 .158-3.047l-.158-.173-.045-.044-.175-.156a2.32 2.32 0 0 0-3.08.156l-6.599 6.526a.794.794 0 0 1-1.114 0 .773.773 0 0 1 0-1.102l6.599-6.526a2.26 2.26 0 0 0 .158-3.046l-.158-.173a2.32 2.32 0 0 0-3.255 0l-8.738 8.642a.794.794 0 0 1-1.113 0 .773.773 0 0 1 0-1.102zm2.184 2.16a.794.794 0 0 1 1.114 0 .773.773 0 0 1 0 1.102l-6.462 6.39a2.26 2.26 0 0 0 0 3.22 2.32 2.32 0 0 0 3.255 0l6.462-6.39a.794.794 0 0 1 1.114 0 .773.773 0 0 1 0 1.101l-6.462 6.391a3.91 3.91 0 0 1-5.483 0 3.805 3.805 0 0 1 0-5.423z"/></svg>