<svg xmlns="http://www.w3.org/2000/svg" fill="none" viewBox="0 0 20 20"><path fill="currentColor" d="M17.77 6.973c0 1.66-.013 3.32.008 4.98a2.8 2.8 0 0 1-.412 1.497 7.2 7.2 0 0 1-1.428 1.789 89 89 0 0 1-2.858 2.486c-.815.677-1.672 1.314-2.516 1.971-.118.088-.25.156-.376.244-.125.088-.237.075-.355-.013-.293-.217-.607-.413-.892-.637-1.415-1.118-2.837-2.229-4.238-3.374A9.3 9.3 0 0 1 2.69 13.66a3.03 3.03 0 0 1-.467-1.62c.014-3.468.007-6.936 0-10.405 0-.15.042-.224.188-.271A23.6 23.6 0 0 1 6.027.409C6.801.273 7.582.158 8.362.077a18 18 0 0 1 3.067-.02c2.111.169 4.16.616 6.153 1.3.14.047.175.115.175.25V6.98zm-7.805-.799-.118-.095C8.69 5.03 7.519 3.98 6.369 2.915c-.23-.217-.453-.318-.78-.305-.635.027-1.269.014-1.903 0-.147 0-.202.048-.188.183v7.466c0 .522.034 1.05.09 1.572.07.677.258 1.328.67 1.904.508.704 1.114 1.32 1.749 1.917.02.02.048.027.104.06V6.48l.132.101 2.321 2.033a.3.3 0 0 1 .112.25v3.55c0 .156.049.204.202.197.669-.007 1.331-.007 2-.014q.21 0 .21-.21V8.79c0-.075.034-.176.09-.217.829-.664 1.658-1.314 2.495-1.971.028-.02.062-.04.125-.075v9.18c.042-.034.07-.04.084-.06.439-.482.885-.95 1.31-1.444.328-.38.62-.786.787-1.267.238-.664.328-1.348.328-2.046.014-2.69 0-5.379.014-8.075 0-.122-.035-.163-.167-.163h-2.23c-.14 0-.237.04-.328.129-.794.745-1.589 1.483-2.383 2.229-.412.386-.823.772-1.255 1.165z"/></svg>