<svg xmlns="http://www.w3.org/2000/svg" fill="none" viewBox="0 0 22 22"><g fill="currentColor" clip-path="url(#a)"><path d="M20.048 19.25c.592.262.888.393 1.036.916v.262c-.148.524-.444.656-1.183.656H1.861c-.443 0-.739-.263-.887-.524-.147-.262.001-.786.297-1.048.295-.262.59-.262 1.034-.262zM1.027 16.003c.295-.257.738-.513 1.18-.385H20.2q.663 0 .885.77v.258c0 .514-.591.77-1.18.77H2.058c-.442 0-.737-.128-1.032-.513a.97.97 0 0 1 0-.9M19.902 11.916c.295 0 .738 0 1.033.262 0 .131.149.263.149.525 0 .392-.149.654-.444.916-.148.13-.443.131-.59.131H2.031C1.59 13.75 1 13.488 1 13.226c-.148-.524-.148-.917.443-1.179.147-.13.296-.13.443-.13.443.13.738 0 1.18 0zM19.904 8.31c.148-.001.443-.135.59 0 .442.267.59.535.59.937 0 .401-.443.803-1.033.803H2.361c-.296 0-.738.134-1.033-.134-.59-.268-.59-1.339.294-1.607zM4.965 4.584c4.88.13 9.908 0 14.788.13.443-.13.74-.13.887.132.296.262.444.523.444.916-.148.524-.444.654-1.036.654H2.155c-.296 0-.444 0-.74-.13-.443-.263-.59-.655-.443-1.048.148-.262.444-.523.74-.523.443 0 .887-.131 1.33-.131zM20.08.916q.669 0 .892.424c.148.282.148.564 0 .987l-.298.282c-.445.141-.742.141-1.04.141H1.957c-.742 0-1.04-.423-1.04-.987 0-.423.446-.847.892-.847z"/></g><defs><clipPath id="a"><path fill="currentColor" d="M0 0h22v22H0z"/></clipPath></defs></svg>