<svg xmlns="http://www.w3.org/2000/svg" fill="none" viewBox="0 0 22 22"><path fill="currentColor" fill-rule="evenodd" d="M14.22 14.759c.28.115.303-.006.534.094-.038 1.562-.857 3.037-.446 4.82.156-.382.259-.603.337-.832.232-.68.315-.975.58-1.659.333.338.627.625.92.965-.265 1.417-1.188 1.818-2.206 2.57-.12.089-.425-.048-.625-.13-.37-.151-.727-.34-1.13-.409.602.595 1.204 1.188 1.822 1.822-.736-.163-1.488-.366-2.24-.568l.036-.184c-.266.147-.529.302-.801.435-.06.029-.155-.025-.215-.12.07-.418.122-.758.18-1.135l-.954-.23.617 1.236-.64-.098.367.663c-.532-.266-1.136.208-1.353-.477l-1.32-.437c1.075-.983 1.408-2.114 1.266-3.544.823.469 1.588.895 2.344 1.335.68.395 1.346.816 2.03 1.202.172.098.391.108.558.15v-1.216c-.445-.247-.999-.664-1.617-.865-.598-.194-1.262-.165-1.934-.238-.03-.127.057-.14 0-.368.162-.226.425-.412.636-.523 1.174-.617 2.264-1.27 3.253-2.26m-4.105 4.26c.344.518.429 1.143 1.152.934-.118-.591-.482-.856-1.152-.934" clip-rule="evenodd"/><path fill="currentColor" fill-rule="evenodd" d="M19.467 7.505c.03 1.441.218 2.878-.084 4.325-.112.536.128 1.142.102 1.71-.018.404-.108.896-.348 1.18-.89 1.052-1.855 2.035-2.823 3.068a16 16 0 0 1-.95-1.047c.05-1.243.14-2.435.239-3.73l2.46.528.065-.102-2.438-2.222c.374-.472.708-.894 1.081-1.317.332-.25.631-.492.915-.75.598-.543 1.188-1.095 1.78-1.643M18 9.76c-.261.342-.451.594-.61.866l.037.017-.003.006 1.06.51-.44-1.459z" clip-rule="evenodd"/><path fill="currentColor" d="M3.876 7.76c.232-.247.437-.296.705-.103.195.14.427.227.653.39.072 1.71.866 2.961 2.036 4.006.472.422.982.704 1.625.771.419.044.855.198 1.222.414.755.444 1.531.546 2.362.368q.842-.18 1.687-.356c-.045.452-.086.862-.165 1.27-.954 1.017-2.114 1.649-3.288 2.265-.21.11-.354.358-.529.541l-2.256-1.872C7 14.002 6.13 12.596 5.24 11.163v2.07l-.12.07-1.123-1.51a43 43 0 0 1-.443-1.663c.093-.853.188-1.61.32-2.37"/><path fill="currentColor" d="M5.409 11.774c.889 1.434 1.418 2.348 2.308 3.788-.273.277-.39.397-.733.682.014.006-.063-.007-.113-.053-1.175-1.076-2.333-2.168-3.19-3.553-.075-.121-.09-.151-.14-.364-.006-.069.096-.085.1-.086.124-.066.085.003.243-.082.408.484.853.95 1.227 1.452.04-.023.257-.093.298-.116z"/><path fill="currentColor" fill-rule="evenodd" d="M6.206 3.916c.567.27 1.049.532 1.55.827.855.473 1.69.914 2.523 1.354.708.714 1.431 1.413 2.12 2.147.688.734 1.34 1.506 2.01 2.257.284.318.183.58-.062.864-.507.589-1.152.983-1.878 1.008-1.11.037-2.242.017-3.336-.165-1.874-.313-2.625-1.764-2.949-3.537-.16-.872-.29-1.75-.444-2.67.026-.576.044-1.11.111-1.637.021-.161.175-.305.355-.448m3.693 4.417c.134.145.269.29.444.457l.023.004.018.017 1.389.21.064-.31-1.833-.598z" clip-rule="evenodd"/><path fill="currentColor" d="M3.543 11.992c.011.04-.01.08-.001.103-.046.025-.143.046-.15.03q-.483-1.28-.945-2.567c-.005-.014.082-.065.12-.093.32.825.642 1.656.976 2.527M13.082 7.18c.406.32.774.634 1.18.963.495.483 1.054.453 1.707.378.54.171 1.076.276.693 1.004-.57.33-1.098.66-1.676 1.019-.269-1.179-.978-2.022-1.775-2.805-.177-.173-.316-.389-.472-.585.101.006.203.012.343.026M3.274 7.02c.151.353.175.416.329.833-.063.793-.222 1.083-.33 1.892-.623-.384-.439-.723-.37-1.385.063-.595.186-.73.37-1.34"/><path fill="currentColor" d="M17.302 5.678c.377.987.159 1.884.097 2.86l1.187-1.595c-.58-.334-.295-.753-.182-1.193.38.539.574.851.915 1.459-.618.575-.957.883-1.555 1.426-.284.258-.394.57-.741.776.341-.728-.34-.987-.835-1.18.017-1.134.38-1.713 1.114-2.553"/><path fill="currentColor" d="M14.506 1.087c1.29.98 2.542 1.982 3.38 3.414.207.352.206.488.37.947-.102.48-.58 1.09 0 1.423-.417.56-.158.279-.543.795.062-.975.053-1.51-.324-2.496-.733.84-1.57 1.936-1.671 3.06-.614.107-.854.138-1.31-.33.473-.845.851-1.423 1.31-2.276.585-1.088.196-1.987-.5-2.857-.353-.442-.603-.974-.919-1.502.045-.079.109-.12.207-.178M6.943 2.69c1.443-1.186 1.444-1.187 2.087-.217-.623.934-.618.99.156 1.67.13.114.275.211.403.327.626.56 1.25 1.124 1.826 1.673-.328-.07-.414-.2-.708-.295-.463-.41-.948-.78-1.411-1.191C8.133 3.7 6.633 3.184 5.882 3.283c.115.205-.061.328 0 .537-.144.162-.264.385-.284.547-.067.526-.118 1.003-.192 1.531-.123.151.026.352 0 .517-.083.523-.1.716-.158 1.243-.215-.111-.413-.158-.609-.299-.268-.193-.545-.148-.81.062-.191-.412-.299-.49-.42-.87.089-.961.54-1.696 1.23-2.329.424-.389.738-.906 1.137-1.329.329-.348.712-.63 1.167-.204"/><path fill="currentColor" d="M9.186 2.683c.829 1.717 2.234 2.476 3.57 3.629.201.173.13.28.205.584-.156.033-.178.018-.318 0-.439-.336-.536-.504-.935-.828-.623-.563-1.194-1.026-1.82-1.586-.129-.116-.25-.243-.38-.357-.774-.68-.964-.546-.322-1.442M7.998 4.637c.417-.016.585.09 1.074.11.5.375.955.724 1.418 1.135-.052.066-.045.023-.136.078-.86-.415-1.501-.85-2.356-1.323M12.42 0c.73.333 1.22.593 1.882.978-.08.093-.185.102-.25.143-1.66-1.147-3.245-.769-5.056-.498-.076.01-.155 0-.255-.102.212-.079.424-.16.637-.235.215-.074.433-.142.671-.25C10.836 0 11.601 0 12.42 0"/></svg>