<svg xmlns="http://www.w3.org/2000/svg" fill="none" viewBox="0 0 22 22"><path fill="currentColor" fill-rule="evenodd" d="M10.864 5.592c3.274-.187 6.43 1.76 8.774 3.502.414.307 1.073.765 1.558 1.266.242.25.446.518.554.789.109.273.121.555-.029.823l-.007.014-.001-.002c-.372.43-.912.533-1.601.663-.325.062-.69.13-1.097.238q-.009.01-.02.019l-.018.012a.1.1 0 0 1-.04.008v-.02a9 9 0 0 0-1.485.556c-.727.348-1.286.66-1.766.935-.479.274-.885.512-1.305.706-.845.39-1.746.606-3.432.618-1.745.013-2.646-.221-3.498-.634-.422-.205-.834-.455-1.325-.735a20 20 0 0 0-1.84-.938 10 10 0 0 0-1.903-.63v.003a.1.1 0 0 1-.042-.012l-.002-.002q-.147-.032-.285-.058v.014a.1.1 0 0 1-.049-.013q-.012-.007-.022-.015-.278-.053-.513-.093c-.335-.059-.616-.113-.83-.208-.22-.097-.377-.24-.457-.476L.15 11.81a1.23 1.23 0 0 1 .08-.787q-.004-.014-.005-.027h.016a2.6 2.6 0 0 1 .505-.714c.455-.478 1.067-.89 1.491-1.19C4.175 7.729 5.573 6.85 6.866 6.317c1.294-.535 2.482-.725 3.998-.724m3.434 9.357c-.46.217-.937.38-1.554.487.63-.102 1.11-.26 1.573-.474q.237-.112.476-.243l.008-.029q-.253.139-.503.26m-6.986-1.24a.97.97 0 0 0-.299.507c.252.14.486.268.725.38.775.363 1.598.567 3.2.555 1.548-.01 2.366-.194 3.131-.534.255-.113.504-.246.774-.394a.7.7 0 0 0-.094-.272.9.9 0 0 0-.215-.23q-.477.175-.957.325c-.761.251-1.666.465-2.64.465-.933-.11-1.806-.195-2.536-.408q-.359-.115-.734-.256-.174-.067-.355-.138m7.667.885-.005.028q.197-.11.41-.232l.007-.028zm-2.852-.297a8 8 0 0 1-.975.101q.046.002.091.003.411-.019.823-.085zm-2.564-.088c.424.071.872.11 1.38.105l.078-.003-.076.001a8.4 8.4 0 0 1-1.394-.116zm6.016.049-.014.007-.005.025.051-.028q.15-.087.315-.178l.006-.02q-.184.099-.353.194m-.774-.637-.11.04a.825.825 0 0 1 .29.485q.142-.079.292-.161l.118-.066a1.04 1.04 0 0 0-.224-.444q-.182.074-.366.146m-8.04-.126a1.06 1.06 0 0 0-.244.445l.354.198c.056-.203.159-.367.28-.49zm9.347.47-.004.016q.187-.101.39-.208l.001-.006q-.203.101-.387.198m-2.294-.095-.006.004q.16-.052.32-.107-.157.053-.314.103m-7.737-.505a.8.8 0 0 0-.125.268q.226.12.427.231c.053-.17.135-.314.231-.428l-.444-.177a1 1 0 0 0-.09.106m9.239.053q.049.06.092.132.078.133.122.293.186-.105.392-.216a1 1 0 0 0-.215-.363zm-4.66.379q.105.008.211.01v-.032a4 4 0 0 1-.207-.01zm.364-.022v.032q.108-.002.215-.01l-.004-.033q-.105.01-.21.011m-.717-.024q.098.017.2.03l.004-.03a4 4 0 0 1-.197-.03zm1.081-.003.005.033q.104-.014.206-.033l-.008-.03a4 4 0 0 1-.203.03m-3.651-.053.222.08-.006-.006-.206-.072q-.135-.05-.271-.103.132.052.261.1m2.215-.026q.101.03.205.051l.008-.03a4 4 0 0 1-.203-.05zm1.789.017.007.032q.102-.023.201-.051l-.01-.031a4 4 0 0 1-.198.05m2.278.018-.005.005.34-.116-.007-.005q-.164.06-.328.116m2.645-.021-.001.002.11-.057zm-7.046-.13q.093.038.189.07l.01-.03a4 4 0 0 1-.187-.067zm1.067.059q.092.007.186.01v-.056a4 4 0 0 1-.18-.009zm.34-.049v.059a4 4 0 0 0 .191-.011l-.007-.056q-.092.007-.185.008m1.058.024.012.034q.097-.033.191-.07l-.015-.031a4 4 0 0 1-.188.067m-1.732-.018q.09.016.18.027l.008-.056a3 3 0 0 1-.176-.026zm1.01-.03.008.055q.093-.011.185-.027l-.014-.054a3 3 0 0 1-.179.026m-5.742-.493a.84.84 0 0 0-.185.319q.2.099.382.193a1 1 0 0 1 .139-.281q.031-.041.064-.078zm10.24.159c.03.038.063.076.09.119q.068.106.112.23.192-.103.405-.21a.9.9 0 0 0-.188-.306q-.21.083-.42.167m-5.847.288q.093.026.188.047l.014-.057a3 3 0 0 1-.183-.045zm1.678-.012.013.053a4 4 0 0 0 .183-.045l-.02-.052a3 3 0 0 1-.176.044m2.985-.007q-.073.026-.148.052l.004.003.187-.066q.152-.059.305-.119l-.005-.003q-.17.067-.343.133m-7.214-5.12a.083.083 0 0 0-.112.035 4.34 4.34 0 0 0-.083 3.889c.219.459.507.863.847 1.204.032.032.086.03.118-.001a.083.083 0 0 0 0-.116 4.17 4.17 0 0 1-.735-4.898.083.083 0 0 0-.035-.112m6.955 0a.084.084 0 0 0-.034.112 4.17 4.17 0 0 1 .08 3.74 4.2 4.2 0 0 1-.815 1.159.083.083 0 0 0 .117.117 4.335 4.335 0 0 0 .764-5.093.083.083 0 0 0-.112-.034M9.29 13.403q.092.047.187.089l.012-.026q-.094-.04-.185-.086zm3.12.055.015.03q.1-.044.196-.093l-.017-.028q-.094.049-.193.091m-2.716-.07q.084.032.172.06l.02-.056a3 3 0 0 1-.166-.06zm2.318.002.019.053q.088-.029.174-.061l-.025-.05q-.083.031-.168.059m-1.3.012q.08.007.16.009v-.124q-.072 0-.143-.006zm.313-.112v.12q.083-.001.165-.008l-.015-.12q-.075.006-.15.008m3.562.119.056-.02q.133-.05.265-.103h-.004q-.157.061-.317.123m-4.187-.044q.079.014.159.023l.017-.124q-.074-.01-.147-.022zm.928-.097.015.12q.08-.01.16-.024l-.03-.117zm-1.247.025q.083.023.169.043l.03-.126q-.08-.017-.157-.039zm1.543-.075.028.116q.082-.019.162-.041l-.04-.113q-.075.02-.15.038M6.706 8.654c-.911.507-2.072 1.254-3.661 2.358a3 3 0 0 1-.385.204c-.15.07-.31.139-.452.208s-.263.136-.333.197q-.052.047-.058.074c-.004.014-.002.029.016.048a.2.2 0 0 0 .09.046q.067.021.17.034c.137.018.312.025.507.035l.206.01.008-.01.017.011c.336.02.708.056 1.032.157l.148.048.01-.006a.1.1 0 0 1 .05-.013v.038q.284.09.546.178a.2.2 0 0 1 .08-.018v.045q.295.1.567.197a1 1 0 0 1 .07-.019l.007.047q.27.095.516.187.017-.007.033-.011l.006.026q.27.098.52.192l.024-.01.008.023.582.22.03-.008.003.02q.226.088.438.167a4.42 4.42 0 0 1-.795-4.675m2.266 4.56q.091.059.186.112l.014-.024q-.094-.051-.184-.11zm.412.033q.083.041.17.08l.025-.058q-.082-.036-.163-.076zm2.936.021.024.05q.091-.04.18-.083l-.03-.048q-.085.043-.174.081m.418.02.017.027q.088-.05.175-.106l-.02-.027q-.085.056-.172.105m2.428-4.693a4.415 4.415 0 0 1-.747 4.706l.057-.019q.175-.068.35-.137v-.028q.027 0 .056.006l.518-.202.013-.048.058.02.533-.208.009-.02q.01.004.02.01c.16-.064.322-.122.481-.182l.012-.04.045.018q.292-.11.58-.212l.014-.053q.035.01.07.026.285-.097.57-.18l.021-.037q.015.008.031.021l.08-.023q.255-.068.47-.106l.006-.023q.018.006.036.016a5 5 0 0 1 .612-.067l.011-.008.004.008.202-.007a7 7 0 0 0 .303-.012l.007-.005.003.005a1.3 1.3 0 0 0 .478-.109c-.003-.008-.01-.018-.01-.03h.006q-.012-.015-.031-.032a2.6 2.6 0 0 0-.328-.199c-.138-.074-.29-.15-.43-.223a3 3 0 0 1-.34-.2c-1.26-.927-2.293-1.605-3.172-2.102l-.01.007-.012-.02q-.299-.168-.576-.31m-10.133 4.31q-.056.098-.095.224.186.085.358.167a1 1 0 0 1 .172-.307l-.393-.146q-.022.03-.042.062m10.151.37.006.005.382-.147-.006-.004q-.19.074-.382.147m1.243-.297q.03.033.056.068.073.103.12.23.155-.078.323-.16l.062-.028a.8.8 0 0 0-.162-.266zm-4.507.156.04.113q.077-.026.153-.055l-.051-.11zm-2.136.058q.075.03.152.054l.042-.124q-.071-.024-.139-.05zm5.313.017.004.002.375-.145-.004-.002zM9.08 13.07q.083.054.17.101l.034-.054q-.083-.048-.165-.1zm3.547.04.03.046q.081-.044.159-.095l-.035-.046q-.075.05-.154.094m-1.602-.116v.142q.065-.001.13-.006l-.017-.141zm-.276.135q.06.004.124.005v-.139q-.053-.001-.106-.005zm-1.254-.068q.073.037.148.07l.057-.123q-.069-.029-.136-.062zm2.706-.038.053.108q.08-.036.16-.077l-.063-.1q-.074.036-.15.07m-3.523-.03q.083.069.17.131l.017-.021a4 4 0 0 1-.169-.128zm4.355.1.02.026q.09-.065.174-.134l-.022-.024a4 4 0 0 1-.172.132m-1.742-.12.018.144q.064-.009.128-.02l-.036-.14zm-.827.119q.066.012.133.02l.018-.136-.118-.017zm5.262-.026.006.006q.206-.08.412-.158l-.01-.007zm-4.174-.142.035.144q.068-.014.134-.033l-.05-.14zm-7.097-.262a.7.7 0 0 0-.064.228q.19.075.389.164l.018.009a1.2 1.2 0 0 1 .102-.235q.012-.02.026-.039l-.451-.16q-.01.016-.02.033m5.717.363q.07.02.143.036l.031-.132-.129-.034zm6.804-.26c.063.074.118.16.156.258q.192-.085.375-.159a.8.8 0 0 0-.088-.265q-.22.08-.443.165m-1.332.232.004.003.393-.154-.003-.001q-.197.074-.394.152m-3.828-.151.052.145.127-.046-.066-.14q-.056.022-.113.041m-2.605.05q.074.047.151.09l.07-.119q-.07-.04-.136-.083zm-.41-.032q.076.061.155.117l.039-.052q-.075-.055-.148-.113zm1.102.069q.061.023.124.045l.044-.13-.11-.04zm2.581-.056.062.101q.073-.04.143-.085l-.073-.095q-.065.04-.132.08m.421.047.036.047q.08-.06.157-.123l-.04-.04q-.074.06-.153.116m-4.491-.177q.072.075.15.144l.016-.018a3 3 0 0 1-.15-.14zm3.653-.005.069.144q.068-.03.133-.064l-.084-.137q-.058.03-.118.057m1.253.117.021.024a4 4 0 0 0 .145-.14l-.025-.02a4 4 0 0 1-.141.136m-3.676-.045q.059.029.119.056l.058-.125q-.054-.024-.106-.052zm6.653.03.008.007.388-.147-.01-.006zm-5.51-.006.086.005v-.193l-.06-.003zm.24-.187-.002.19q.047 0 .094-.004l-.024-.19zm-7.085-.203a.8.8 0 0 0-.037.264q.165.056.339.122a1 1 0 0 1 .072-.236l.01-.02zm6.59.362.102.016.026-.193-.083-.011zm.717-.178.023.19q.046-.006.093-.014l-.048-.187zm6.317-.086a1 1 0 0 1 .085.261q.186-.069.365-.127a.7.7 0 0 0-.042-.25q-.004-.011-.01-.02-.198.066-.398.136m-8.613.16q.066.05.134.1l.085-.114q-.06-.044-.12-.092zm3.787.001.073.096q.072-.052.14-.107l-.082-.088q-.064.05-.131.1m-2.473.043q.057.017.115.03l.045-.19-.097-.024zm1.2-.159.047.186q.053-.012.104-.028l-.064-.18zm-2.919.042q.066.066.138.13l.046-.05a3 3 0 0 1-.131-.124zm4.626.072.04.043q.068-.06.131-.125l-.045-.04a3 3 0 0 1-.126.122m-.858-.1.087.141q.06-.034.12-.07l-.104-.136q-.05.034-.103.065m-2.929.056q.06.039.124.075l.073-.12q-.057-.033-.112-.069zm.638.008.096.034.064-.186-.077-.028zm1.674-.146.065.179.098-.035-.084-.173zm-8.315-.256a.8.8 0 0 0-.012.283q.184.05.379.112a1 1 0 0 1 .045-.26q-.2-.067-.412-.135m13.465.368.007.007q.234-.088.466-.17l-.006-.007q-.232.082-.467.17m-8.662-.143q.06.072.121.142l.018-.014a4 4 0 0 1-.12-.141zm9.924-.13.006.012q.047.116.054.26a10 10 0 0 1 .34-.096.7.7 0 0 0 .02-.301q-.21.058-.42.124m-4.544.249.023.02q.068-.076.13-.156l-.025-.017a4 4 0 0 1-.128.153m-3.774-.049q.045.023.091.044l.084-.181q-.037-.017-.072-.035zm2.125-.13.083.172q.052-.023.104-.05l-.101-.164q-.043.022-.086.041m-3.2.058q.059.058.12.112l.099-.104-.105-.103zm4.267.017.083.087a3 3 0 0 0 .116-.11l-.092-.08zm-.443-.059.105.138q.06-.043.118-.09l-.122-.13zm-3.384.041q.052.042.105.08l.086-.114q-.046-.035-.09-.07zm-.83-.1q.056.069.115.133l.053-.046a3 3 0 0 1-.11-.127zm5.078.082.044.039q.06-.068.118-.139l-.05-.034q-.054.068-.112.134M2.83 12.183a.6.6 0 0 0-.01.228q.188.043.392.094a1 1 0 0 1 .023-.276 3 3 0 0 0-.367-.044zm8.196.09v.224l.05-.002-.028-.224zm-.193.222h.038v-.225h-.008zm8.227-.37q-.17.024-.38.074.029.123-.001.296.208-.05.4-.09a.6.6 0 0 0-.019-.28m-9.496.3q.048.03.098.06l.102-.172-.08-.05zm1.05.046q.033.006.066.01l.03-.226-.044-.006zm.587-.213.028.222.052-.008-.055-.218zm.935.054.1.163q.046-.027.091-.057l-.117-.152zm-.758-.085.053.216.07-.018-.075-.21zm-.998.194.083.021.053-.224-.061-.017zm7.097-.011.005.005.279-.099q-.142.045-.284.094m-4.721-.146.123.13q.05-.044.096-.09l-.14-.12zm-3.807.033q.045.046.094.09l.101-.107-.08-.08zm-.439-.038q.05.06.104.12l.113-.097-.092-.112zm3.062-.089.075.209.065-.024-.096-.2q-.022.008-.044.015m-9.27-.017a.5.5 0 0 0-.01.15q.175.034.37.075a.8.8 0 0 1 .013-.204zm16.914-.046c.026.092.03.182.023.266l.277-.054q.049-.012.097-.02a.45.45 0 0 0-.027-.2 3 3 0 0 0-.37.008m-9.045.243q.031.012.064.022l.075-.219-.041-.015zm3.025-.058.093.08q.053-.06.103-.122l-.102-.07q-.045.057-.094.112m-5.228-.108q.06.095.126.185l.018-.012a3 3 0 0 1-.125-.183zm5.82.152.026.017q.056-.079.108-.161l-.027-.015q-.051.08-.107.159m-4.425-.063q.038.03.078.06l.121-.162q-.03-.023-.057-.047zm2.97-.098.117.152q.045-.034.088-.07l-.133-.141zM.329 11.872c.064.187.184.303.373.386q.049.022.104.039c-.212-.091-.367-.22-.447-.43l-.02-.06q-.015 0-.03-.002v-.001zm11.429.223.095.199.071-.035-.117-.189zm-1.782.164q.028.014.056.027l.098-.212q-.016-.008-.033-.017zm-8.06-.033q.072.016.148.032l.073.014q0-.063.013-.132a4 4 0 0 1-.234-.024 1 1 0 0 0 0 .11m6.207-.125q.054.086.113.167l.058-.04a3 3 0 0 1-.108-.16zm11.627.005q.021.084.018.161l.236-.048a.5.5 0 0 0 .002-.103q-.084 0-.174-.005zm-6.137.11.05.033q.05-.073.1-.148l-.053-.029a3 3 0 0 1-.097.143m-12.19-.108c.1.033.214.058.34.086q-.003-.052.001-.106c-.024-.005-.048-.006-.07-.012a1 1 0 0 1-.183-.066.7.7 0 0 0-.088.098m11.516-.039.142.123q.042-.049.083-.1l-.158-.108q-.033.044-.067.085m-4.178.013q.04.053.085.102l.114-.098-.075-.093zm3.18-.087.115.187q.031-.019.063-.039l-.134-.175q-.022.014-.044.027m-2.163.145q.033.021.067.041l.12-.202-.044-.029zm10.605-.115a.7.7 0 0 1-.162.067q-.03.007-.063.012a1 1 0 0 1 .003.077q.134-.032.253-.07.015-.005.029-.012a1 1 0 0 0-.06-.074m-11.202.078q.034.034.07.067l.14-.149-.051-.053zm12.385-.287a1 1 0 0 1-.045.096l-.004.007-.005.006a1.4 1.4 0 0 1-.28.244c.136-.073.256-.163.36-.281q.02-.038.035-.078zm-9.047.197.133.14q.036-.034.068-.07l-.147-.127q-.026.03-.054.057m-4.199-.018q.047.074.098.143l.125-.09q-.044-.062-.084-.128zm5.064.064.102.07.09-.13-.11-.062zm-2.357.06h.002v-.015zM.506 11.82c.051.13.143.222.279.295a.74.74 0 0 1-.233-.29zm10.676.285.006-.001-.012-.055zm-.48-.007.029.005.008-.066-.021-.002zm.62-.089.018.069.033-.009-.024-.067zM.728 11.835a.67.67 0 0 0 .288.243.7.7 0 0 1-.22-.242zm9.777.221q.024.007.049.012l.013-.063-.04-.012zm3.473-.01.026.015q.052-.093.099-.188l-.028-.012q-.045.094-.097.185m-6.195-.196q.05.104.105.204l.019-.01a3 3 0 0 1-.105-.201zm4.326.028.132.174.06-.047-.15-.158q-.021.015-.042.031M.984 11.84a.7.7 0 0 0 .287.212h.002a1 1 0 0 1 .102-.126.4.4 0 0 1-.058-.064l-.015-.03a6 6 0 0 1-.318.008m8.625.174.044.036.143-.191-.021-.019zm11.003-.156q-.053.048-.101.086a1 1 0 0 1 .078.1q.194-.083.34-.207a6 6 0 0 1-.298-.012c-.006.01-.01.024-.02.033m-9.117.1.025.07.03-.01-.033-.068zm-1.162.041q.013.005.026.009l.02-.061-.019-.008zm-1.325-.094.069.085.159-.134q-.03-.035-.057-.072zm-1.065-.118q.046.094.097.186l.064-.035a3 3 0 0 1-.093-.178zm5.154.077.16.109q.038-.054.073-.109l-.172-.097zm.692.08.053.029q.047-.085.09-.171l-.056-.023a3 3 0 0 1-.087.165m-1.114-.1.147.126q.03-.034.056-.07l-.16-.111zm-4.083.005q.035.057.074.112l.126-.09q-.033-.047-.062-.096zm12.557-.01q-.01.013-.02.025-.05.051-.106.096.078-.056.146-.122zm-9.492.05.033.07.037-.018-.041-.066zm-1.483.037.02.009.027-.06-.012-.007zm-.718-.054.04.04.166-.175-.022-.021zm2.808-.128.15.159.042-.045-.165-.142zm7.84.125.055-.018-.008-.004q-.024.012-.046.022m-6.559-.062.11.061q.042-.073.08-.148l-.119-.05q-.034.07-.07.137m-5.392-.104q.04.083.086.163l.138-.075q-.039-.073-.075-.148zm3.665.095.042.067.03-.018-.048-.063zm9.549.054.021-.021h-.013zm-11.355-.023.031.019.034-.057-.025-.016zm-8.525-.011h.001l.009.008.004-.003-.003-.006zm18.896-.016-.01.01.015.012.021-.022-.025-.004zm-8.637-1.266a.81.81 0 0 1-.722.699v.573a1.39 1.39 0 0 0 1.301-1.273zm-2.164.006a1.394 1.394 0 0 0 1.29 1.265v-.573a.81.81 0 0 1-.7-.693zm-.718 1.16q.025.04.051.08l.172-.122-.036-.06zm3.945-.036.162.111q.027-.041.052-.084l-.172-.095q-.02.034-.042.068m-3.506.028q.024.032.05.064l.185-.156-.037-.05zm2.663 0 .049.063q.015-.011.028-.022l-.056-.06zm.429-.092.165.142q.015-.021.031-.042l-.18-.124q-.008.013-.016.024m-2.514.128.008.006.04-.055h-.002zm4.26-.006.03.012q.036-.083.068-.168l-.03-.01a3 3 0 0 1-.067.166m-.905-.088.175.097q.034-.06.063-.121l-.188-.08q-.024.053-.05.104m-4.792-.05q.032.067.067.132l.14-.074q-.032-.058-.059-.118zm-.8-.055q.033.092.07.183l.02-.008a3 3 0 0 1-.071-.181zm-6.792-.085q.002.122.044.24l.001.004q.178.002.385-.01a.3.3 0 0 1 .044-.092l.039-.043a5 5 0 0 1-.513-.099m20.231-.042q-.247.103-.585.158.052.038.089.075.014.016.027.034c.133.01.289.015.46.015a.4.4 0 0 0 .063-.308q-.026.014-.054.026M.63 11.377q-.015.154.03.304.036.002.074.003a.9.9 0 0 1-.034-.282q-.036-.011-.07-.024m20.646-.067a.6.6 0 0 1 .02.202.6.6 0 0 1-.046.168h.021a.63.63 0 0 0 .008-.371zM1.4 11.643l-.02.031.005-.001.022-.038zm20.035-.374a.8.8 0 0 1 0 .405l.015-.001a.74.74 0 0 0-.015-.404m-20.97.039a.9.9 0 0 0-.004.355l.036.003a.9.9 0 0 1-.013-.35zm13.48.333.056.023q.032-.077.06-.155l-.057-.019q-.029.077-.06.15m7.603-.521c.072.178.099.359.065.538l.058-.004a.85.85 0 0 0-.062-.448 1 1 0 0 0-.046-.101zm-21.223.088q-.07.216-.047.437l.024.003a1.1 1.1 0 0 1 .03-.434zm7.488.272q.029.085.064.168l.067-.027c-.023-.053-.04-.108-.061-.163zm-6.076.156h.009l.006-.012zm10.362-.066.06.062.017-.017-.066-.057zm-2.34.046.01.01.047-.05-.005-.005zm3.926-.085.118.05q.029-.068.055-.138l-.124-.04q-.023.065-.05.128m-1.182-.076.18.123q.019-.027.035-.055l-.19-.107q-.012.02-.025.039m-3.767.013q.023.052.05.102l.188-.101q-.02-.04-.038-.08zm.451.059.026.043.2-.143-.01-.016zm-1.158-.112q.027.075.057.15l.151-.062q-.027-.067-.05-.135zm4.9.05.175.096q.022-.044.043-.089l-.184-.076q-.016.034-.033.068m-3.303-.002.03.04.053-.046-.027-.034zm2.585-.021.069.059.006-.01-.074-.05zm1.142-.05.191.08q.024-.057.044-.115l-.199-.064q-.017.05-.036.1m-5.021-.068.046.122.152-.06q-.022-.053-.041-.108zm12.535-.469a1.3 1.3 0 0 1-.214.175 4 4 0 0 1-.553.286l.209.118c.285-.028.525-.093.716-.172q.037-.017.07-.035l-.012-.033a1.6 1.6 0 0 0-.216-.339m-6.605.557.029.01q.039-.12.069-.244l-.032-.006a3 3 0 0 1-.066.24M.96 11.023q-.066.135-.09.269c.188.05.42.092.678.122l.05-.03q.078-.04.163-.08a3.3 3.3 0 0 1-.525-.274 1.4 1.4 0 0 1-.194-.154q-.046.073-.082.147m8.117.308.03.065.218-.117-.02-.04zm3.527-.047.192.106.025-.053-.202-.085zm-5.069-.12q.027.112.06.22l.018-.005a3 3 0 0 1-.059-.217zm4.766.153.075.052.017-.027-.08-.044zm1.756.03.056.018a3 3 0 0 0 .06-.22l-.058-.011q-.026.107-.058.212m-6.35-.213q.023.102.053.2l.07-.02q-.029-.095-.051-.193zm5.318.122.185.078q.018-.045.032-.089l-.19-.06q-.013.035-.027.071m-4.39-.022.034.095.202-.08-.028-.078zm5.152.025.123.04q.03-.095.053-.193l-.129-.023q-.02.09-.047.176m-5.858-.166q.02.09.046.178l.16-.048a3 3 0 0 1-.042-.16zm-7.012-.365a2 2 0 0 0-.193.319q-.041.09-.066.178l.061.023a1.2 1.2 0 0 1 .103-.293q.05-.1.115-.2zm19.47-.36c-.161.325-.444.535-.712.7.07.047.16.1.259.155.23-.104.453-.2.634-.32q.114-.076.197-.162a4 4 0 0 0-.248-.257q-.063-.06-.13-.116M1.49 10.35q-.206.196-.358.398.082.083.19.156c.18.122.4.219.62.312l.033-.015q.133-.064.25-.133c-.237-.18-.511-.428-.649-.798zm11.95.798.2.065q.024-.077.043-.158l-.21-.038q-.014.066-.033.13m-1.05.017.08.045.009-.017-.085-.036zm-2.943.017.012.025.062-.035-.008-.017zm3.237-.07.2.084.022-.058-.207-.067zm-3.694.015.023.065.23-.093-.015-.043zm-.747-.091q.017.073.038.144l.157-.047q-.017-.064-.03-.127zm-7.733.118.01.005q.024-.083.06-.166a1.4 1.4 0 0 0-.07.161m12.59-.115.193.061.029-.11-.2-.037q-.01.044-.021.086m-4.542-.061q.013.056.028.11l.21-.063-.022-.086zm3.898.039.086.036.01-.029-.087-.028zm-3.082-.005.01.03.066-.027-.01-.023zm4.986.01.03.005q.022-.11.036-.224l-.031-.001q-.014.111-.035.22m-6.89-.21q.014.104.033.204l.02-.004a3 3 0 0 1-.032-.2zm6.681.172.057.01a3 3 0 0 0 .032-.2l-.058-.003q-.012.098-.03.193m-1.404-.059.207.067.018-.066-.215-.04zm-1.523-.389a.31.31 0 0 1-.2.158v.291a.56.56 0 0 0 .474-.449zm-3.58.266q.01.091.029.182l.07-.012a3 3 0 0 1-.029-.175zm2.774-.263c.05.232.232.407.454.444v-.287a.31.31 0 0 1-.208-.157zm-1.494.372.018.071.24-.072-.012-.044zm-7.223-.752c.122.387.412.634.664.821q.163-.112.319-.22a1.8 1.8 0 0 1-.334-.325 1.7 1.7 0 0 1-.292-.56 8 8 0 0 0-.357.284m19.774.813.007-.006a3 3 0 0 0-.111-.164q.057.085.104.17m-1.66-1.066c-.122.371-.36.629-.609.828l.331.236c.29-.173.583-.376.73-.707-.145-.123-.3-.242-.451-.357m-5.946 1.027.13.023q.016-.086.027-.174l-.133-.006a3 3 0 0 1-.024.157m-5.999-.146q.01.079.025.156l.165-.03-.021-.137zm5.635.08.212.039q.013-.068.022-.138l-.216-.011q-.007.056-.018.11m-5.313-.1q.008.06.019.12l.164-.03-.015-.101zm4.321.083.088.028.004-.018-.09-.017zm-3.193-.01.007.027.065-.02-.005-.02zm3.833-.037.202.036q.009-.045.014-.09l-.205-.01zm-4.64-.057.012.083.219-.04-.01-.057zm4.276-.009.215.039.006-.045-.218-.012zm-3.902-.015.007.039.246-.045-.002-.01zM2.19 9.776c.055.217.157.407.281.565.106.135.228.245.347.329q.219-.151.427-.294a1.83 1.83 0 0 1-.63-.902c-.135.094-.28.195-.425.302m5.265.884.02-.001a3 3 0 0 1-.009-.205h-.02q.001.104.01.206m6.965-.198a3 3 0 0 1-.009.187l.031.002q.007-.093.01-.19zm-6.792.187.071-.005a3 3 0 0 1-.01-.183l-.07-.002q.001.097.01.19m6.571-.01.058.003a3 3 0 0 0 .009-.178h-.057a3 3 0 0 1-.01.174m5.091-1.122a1.6 1.6 0 0 1-.235.474 1.8 1.8 0 0 1-.374.371q.193.136.394.279c.26-.202.502-.455.611-.835q-.207-.154-.396-.289M7.852 10.634l.17-.01q-.005-.075-.008-.151l-.17-.006q.001.084.008.167m6.066-.165a3 3 0 0 1-.007.155l.133.007a3 3 0 0 0 .008-.164zm-12.682-.106a4 4 0 0 0-.22.238l.016.026c.102-.134.223-.264.353-.388q.07-.068.143-.132l-.002-.009q-.153.13-.29.265m12.311.111-.007.131.216.01q.006-.071.008-.144zm-5.373.14.169-.011-.007-.12-.168-.006q.001.07.006.137m5.013-.136q-.002.055-.006.109l.206.01q.005-.06.007-.12zm-4.693.115.225-.014-.004-.083-.226-.008zm4.317-.025.218.011q0-.022.002-.045h-.218zm-3.94.002.25-.016-.002-.012h-.2v-.04l-.052-.001zm3.696-.015.091.005.001-.026h-.09zm-3.295-.011.054-.003H9.27zm-.405-.197.052.001v-.05l-.049-.007q0 .029-.003.056m-.38-.013.228.008q0-.036.004-.072l-.227-.033zm-.32-.01.168.006q.002-.057.006-.115l-.168-.024q-.005.066-.006.134m5.014-.06.003.06.21-.001-.005-.084zm.361-.044q.004.05.005.1l.217-.003-.006-.124zm-5.7.094.172.005.008-.151-.171-.025a3 3 0 0 0-.009.171m6.069-.14q.005.07.007.141l.135-.001-.007-.157zm.29-.036q.006.086.008.174l.055-.001a3 3 0 0 0-.01-.18zm-6.582.168.069.003a3 3 0 0 1 .01-.188l-.068-.01q-.01.097-.011.195m6.788-.194q.008.097.01.197h.034a3 3 0 0 0-.012-.201zm-6.961.188.02.001q.003-.106.013-.212l-.021-.003a3 3 0 0 0-.012.214m3.427-1.31c-.687.042-1.243.6-1.293 1.306l.589-.001a.814.814 0 0 1 .704-.714zm0 .84a.57.57 0 0 0-.46.464h.236a.31.31 0 0 1 .224-.193zm.152.275a.31.31 0 0 1 .213.186h.263a.57.57 0 0 0-.476-.463zm0-.525c.376.033.67.333.722.71h.579c-.053-.708-.61-1.264-1.3-1.3zm1.962.71h.043v-.006zM2.95 9.238l-.205.144c.116.413.374.714.633.902q.206-.14.404-.27a2.1 2.1 0 0 1-.362-.358 1.6 1.6 0 0 1-.287-.547zm15.797-.116c-.056.18-.136.333-.236.467-.112.151-.25.275-.393.387q.21.141.428.293c.143-.104.277-.224.384-.37a1.4 1.4 0 0 0 .227-.479q-.142-.1-.253-.183zm-9.465 1.074.063.009.003-.028-.06-.014q-.005.016-.006.033m3.277-.01v.002l.087-.01-.002-.013zm-3.675-.048.247.037.008-.047-.244-.058zm3.91-.009q0 .015.004.03l.217-.027-.009-.054zm-4.288-.046.228.034q.005-.041.012-.081l-.225-.054zm4.65-.04.009.07.21-.027-.013-.093zm.356-.087.016.111.215-.028-.021-.133zm-5.323.08.167.025q.007-.057.017-.113l-.164-.039zm4.343-.007.001.005.082-.02-.003-.013zm-3.215-.018.058.014.002-.01-.056-.02q-.001.008-.004.016m4.554-.142q.014.075.023.152l.137-.017a3 3 0 0 0-.026-.167zm-6.004.12.17.025.023-.14-.168-.039q-.015.076-.025.155M1.66 9.987l.001.008q.177-.145.358-.28-.18.13-.359.272m12.497-.183q.016.09.027.182l.053-.007a3 3 0 0 0-.03-.188zm-1.401.147.007.029.213-.05-.014-.053zm-3.83-.03.243.058.009-.032-.237-.085zm-1.278.038.066.01q.011-.084.026-.167l-.063-.015q-.016.085-.03.172m6.708-.204q.021.102.035.206l.032-.005a3 3 0 0 0-.033-.21zm-6.88.18.02.002q.014-.094.032-.186l-.022-.004a3 3 0 0 0-.03.188m-4.21-.918c.05.209.15.391.273.546.115.146.25.266.38.361q.166-.112.327-.218a2.2 2.2 0 0 1-.301-.395 2 2 0 0 1-.234-.603zm9.84.808.017.069.21-.05-.024-.093zm-4.555.01.227.053.02-.078-.22-.078q-.015.052-.027.103m9.589-1.146a2.1 2.1 0 0 1-.183.58c-.08.162-.183.294-.294.407q.159.103.323.211c.15-.114.29-.237.402-.387.098-.132.177-.287.228-.473a27 27 0 0 0-.476-.338m-5.658 1.16.01.035.076-.027-.015-.041zm-3.117.002.053.018.004-.017-.048-.023zm4.089-.153q.015.054.028.11l.207-.05-.034-.132zm-.763.052.02.056.206-.075-.03-.077zm-4.45.012.162.037.031-.119-.157-.056zm.749-.046.233.083.013-.035-.225-.106zm-1.067-.028.17.04q.018-.079.04-.155l-.164-.06a3 3 0 0 0-.046.175m5.877-.114q.02.073.038.148l.135-.032a3 3 0 0 0-.043-.163zm-4.367.114.045.021.016-.032-.043-.026zm2.981-.005.012.024.066-.031-.015-.03zm.612-.095q.018.045.034.091l.204-.074-.041-.112zm-4.4-.002.22.08.026-.075-.212-.1q-.019.046-.035.095m5.449-.112q.026.09.047.18l.049-.011q-.022-.095-.049-.186zm-6.362.164.062.014q.022-.096.05-.19l-.06-.021q-.028.097-.052.197m1.36-.121.223.106.024-.052-.211-.13q-.019.038-.036.076M3.85 8.612c.035.227.12.437.228.62.09.152.195.283.294.384l.006.005q.209-.136.406-.263a2.3 2.3 0 0 1-.199-.365 2.8 2.8 0 0 1-.202-.737q-.258.17-.533.356m8.76.953q.011.022.021.043l.196-.094-.03-.06zm1.658-.16q.032.098.056.2l.033-.009a3 3 0 0 0-.057-.204zm-6.728.191.023.006q.027-.108.06-.214l-.023-.007q-.033.106-.06.215m10.036-1.29c-.044.461-.24.81-.421 1.038q.184.117.378.245c.11-.107.21-.233.288-.389a2 2 0 0 0 .178-.611q-.209-.143-.423-.284m-4.213 1.12.047.126.196-.072q-.025-.073-.054-.146zm-1.025.11.005.009.058-.034-.008-.016zm-2.81-.02.04.025.009-.014-.038-.03zm-1.2-.038.154.055.04-.11-.148-.07q-.024.063-.046.125m.395-.129.214.102q.02-.045.043-.09l-.202-.123q-.029.055-.055.111m4.206.026.035.073.198-.095-.044-.092zm-3.74-.066.21.127q.009-.016.02-.033l-.194-.15zm3.325.093.018.03.187-.112-.03-.049zm1.177-.134q.033.078.06.16l.132-.047q-.03-.09-.066-.174zm-5.672.1.165.059q.024-.072.051-.14l-.156-.074q-.031.076-.06.155m4.21.007.024.033.05-.037-.029-.038zm1.727-.235q.038.093.07.189l.044-.016q-.034-.098-.075-.192zm-6.135.157.056.02q.03-.085.063-.17l-.052-.024q-.037.085-.067.174m5.429-.115q.026.052.05.104l.185-.09q-.028-.06-.06-.12zm-4.81.033.146.069q.03-.064.06-.127l-.136-.083q-.037.07-.07.141m1.289.042.027.027.012-.012-.024-.031zm-.413-.127.192.15.01-.013-.178-.169q-.013.016-.024.032m3.071.1.038.048.173-.13-.05-.065zm-7.86-1.068c.03.294.107.556.199.77.057.135.123.25.186.343q.226-.142.436-.27a2.3 2.3 0 0 1-.385-1.122q-.213.133-.436.28M16.96 7.92a1.7 1.7 0 0 1-.106.502c-.08.209-.193.397-.296.555q.226.135.466.286c.18-.22.382-.574.407-1.05q-.233-.15-.47-.293m-2.826 1.135q.045.101.084.205l.033-.012a3 3 0 0 0-.084-.21zm-2.038.168.032.036.043-.039-.038-.035zm-4.446.014.024.008q.036-.095.077-.187l-.025-.012a3 3 0 0 0-.076.19m5.161-.057q.02.03.04.063l.19-.115q-.026-.043-.051-.084zm-3.955-.073.203.123.045-.07-.189-.147zm1 .029.02.027.035-.032-.02-.027zm-.412-.15.175.167q.014-.016.028-.031l-.15-.19zm-1.3.09.157.074q.037-.079.078-.155l-.147-.09q-.046.084-.088.17m5.413-.078q.036.066.068.133l.125-.061q-.034-.073-.072-.144zm-1.597.103.023.018.033-.034-.026-.02zm.277-.028.047.044.16-.147-.058-.056zm.422-.092.061.075.18-.135q-.036-.048-.073-.094zm.453-.03q.031.049.06.099l.172-.104-.075-.113zm-4.105-.06.189.147.034-.044-.174-.167q-.025.031-.05.064m1.008.121.018.025q.018-.014.038-.026l-.016-.024zM8.59 8.943l.135.083q.034-.055.069-.107l-.125-.097q-.04.059-.08.121m1.02-.116.149.188q.02-.019.042-.036l-.14-.191zm-1.655.158.05.025q.045-.094.096-.185l-.045-.028q-.055.092-.1.188m3.878.023zl.027-.032-.006-.004zm1.976-.162q.041.077.079.156l.039-.018q-.04-.08-.083-.16zm-1.725.098.036.027.151-.16-.05-.037zm-1.898-.035.015.023q.055-.03.112-.055l-.014-.022a2 2 0 0 0-.113.054m1.404-.034q.057.025.112.055l.021-.032a2 2 0 0 0-.116-.053zM5.113 7.79c.006.483.195.878.363 1.133q.233-.142.449-.267a1.98 1.98 0 0 1-.364-1.135q-.219.128-.448.269m2.68 1.118.025.01q.051-.102.108-.201l-.024-.015a3 3 0 0 0-.11.206m6.182-.163q.047.085.09.172L14.1 8.9q-.045-.088-.092-.175zm2.408-1.162c.003.481-.163.849-.35 1.086q.19.109.391.228c.101-.154.21-.333.286-.532.064-.168.103-.349.099-.538q-.21-.124-.426-.244M9.784 8.695l.14.192q.022-.014.044-.027l-.132-.197zm-.626.018.174.166.068-.068-.15-.189zm3.331.09q.034.03.066.063l.167-.154q-.036-.04-.075-.077zm.902-.064.085.127.12-.072a3 3 0 0 0-.093-.14zm-5.078.035.146.09a3 3 0 0 1 .09-.136l-.135-.104a3 3 0 0 0-.101.15m3.625.07.018.011.14-.172-.039-.023zm1.001-.122q.042.052.081.105l.156-.118a3 3 0 0 0-.098-.115zm-2.494.078.014.022.021-.006-.01-.024zm.949.005.051.015.016-.028-.055-.014zM8.763 8.7l.122.095.06-.074-.112-.106q-.036.041-.07.085m1.205-.116.132.196q.057-.03.115-.055l-.128-.198q-.06.026-.119.057m1.239.178.035.007.012-.025-.039-.007zm.476-.053q.063.028.123.06l.12-.188a2 2 0 0 0-.136-.065zm-.91.02.007.023h.009l-.005-.025zm2.853-.17q.053.077.1.156l.036-.022a3 3 0 0 0-.106-.156zm-4.263-.042.15.19.059-.045-.143-.197q-.034.025-.066.052m2.952.136.06.045.158-.167-.072-.06zm-4.177.013.045.027q.053-.084.11-.164l-.037-.03q-.061.082-.118.167m2.094-.198.13.2.041-.015-.102-.21q-.034.011-.069.025m1.236.168q.034.01.069.02l.11-.196-.089-.03zm1.723-.146q.055.062.106.126l.113-.085a3 3 0 0 0-.114-.138zm.587-.045q.06.083.115.17l.033-.02a3 3 0 0 0-.117-.174zm-3.328-.044.103.212.021-.006-.07-.22zm2.301.121q.044.042.084.086l.139-.128-.097-.09zm-3.814-.02.11.105q.052-.055.107-.106l-.094-.117a3 3 0 0 0-.123.118m-.43 0 .136.104.08-.097-.123-.117zm2.753.088q.03.004.057.009l.092-.208-.082-.016zm4.49-1.342a1.6 1.6 0 0 1-.11.643c-.067.17-.157.313-.246.435q.243.124.503.268c.182-.221.355-.592.33-1.099a16 16 0 0 0-.476-.247M7.985 8.573l.024.015q.06-.093.128-.18l-.024-.019q-.067.09-.128.184m2.673-.21.07.22q.015-.002.028-.005l-.041-.223zm-4.94-.931c-.028.506.168.903.34 1.147q.229-.132.44-.247a2.13 2.13 0 0 1-.325-1.147q-.222.116-.455.247m3.835.943.143.197.056-.035-.136-.202q-.031.02-.063.04m2.588.157.05.03.147-.182-.07-.045zm-2.394-.276.136.202q.06-.03.122-.06l-.133-.206q-.064.03-.125.064m2.12.128q.072.031.143.07l.127-.198a3 3 0 0 0-.156-.079zm-4.044-.03q-.03.043-.057.086h.002c.023-.034.05-.068.073-.103zm5.587-.064q.064.073.123.148l.03-.022q-.06-.075-.127-.148zm-2.258.137.022-.074-.011-.003zm1.406-.074q.042.032.082.067l.123-.132q-.046-.037-.095-.073zm-4.208.026.038.03q.05-.062.102-.12l-.031-.031q-.056.06-.109.121m.826-.096.093.116q.035-.029.072-.055l-.087-.12zm-.47-.002.122.117q.068-.069.139-.133l-.105-.132a3 3 0 0 0-.156.148m4.276-.002q.054.048.106.1l.105-.097-.112-.108zm-2.969-.151.136.21.087-.032-.108-.22q-.058.02-.115.042m1.607.162q.052.016.102.037l.118-.21-.124-.046zm1.928-.127q.072.079.138.16l.03-.023a4 4 0 0 0-.117-.138l-.031-.018zm-5.343.105.025.018q.058-.069.118-.134l-.022-.022q-.062.067-.12.138m2.07-.23.109.224.076-.02-.073-.232zm2.076.168.082.055.11-.137q-.05-.031-.1-.06zM6.33 7.101c-.027.514.15.915.303 1.158q.193-.104.372-.192l.034-.055a2 2 0 0 1-.145-.292 2.4 2.4 0 0 1-.162-.813q-.198.09-.401.194m8.833-.13a2.2 2.2 0 0 1-.112.621c-.052.157-.12.3-.194.419l.047.08q.171.078.348.167c.09-.118.18-.257.245-.422.073-.185.117-.405.098-.663q-.215-.105-.432-.202M9.377 8.133l.085.119.068-.043-.082-.12zm1.996.096q.05.01.097.021l.097-.222q-.06-.017-.122-.031zm-.835-.248.072.235q.038-.006.075-.01l-.047-.24zm.645.219.036.005.073-.233q-.037-.006-.073-.01zm-.39-.247.045.24h.017V7.95zm.216.237.02.001.036-.24-.057-.002zm2.176-.128q.06.057.12.116l.024-.022q-.06-.06-.122-.116zm-.423.034q.054.039.105.081l.098-.105-.113-.089zm-4.2.05.032.03q.083-.085.172-.162l-.025-.031a3 3 0 0 0-.179.162m.415-.114.104.131q.04-.031.083-.062l-.098-.134zm.603-.022.08.12q.063-.036.128-.066l-.079-.122zm2.475.034q.083.039.164.084l.09-.143a3 3 0 0 0-.174-.084zm-3.516-.13q-.056.051-.11.104l.023.022a3 3 0 0 1 .167-.154zm.651-.038.097.134q.037-.026.075-.048l-.091-.137q-.042.025-.08.05m3.335.059q.057.034.113.07l.09-.113q-.06-.04-.122-.078h-.004zm-2.675-.06.077.122q.067-.027.133-.05l-.062-.127q-.075.026-.148.056m1.926.055.14.05.077-.139a3 3 0 0 0-.154-.055zm1.294.032.02-.023-.012-.01-.075-.021q.034.027.067.053m-4.212-.078.023.03q.046-.037.096-.07l-.022-.03q-.05.034-.097.07m1.285-.115.064.13q.065-.02.133-.035l-.042-.133q-.078.017-.155.038m1.347.082q.07.016.139.035l.061-.141-.112-.028-.046-.003zm-2.059-.12-.028.016.091.136q.065-.037.131-.07l-.059-.091zm-.078-1.58a8.3 8.3 0 0 0-2.469.689c.002.33.068.607.153.823q.045.116.095.207a4.6 4.6 0 0 1 2.22-1.719m3.242.02c.886.335 1.642.93 2.166 1.696a1.94 1.94 0 0 0 .252-.96c-.78-.335-1.59-.596-2.418-.735m-.385 1.597q.094.041.184.088l.044-.07a6 6 0 0 0-.223-.03zm-1.719.066q.06-.011.12-.019l-.022-.11h-.139zm2.705-.007.002-.003-.01-.002zm-1.956-.016.097.014.034-.112h-.117zm-.477-.01.091-.004V7.71l-.11-.002zm.245-.005q.04.001.078.004l.013-.089h-.092zm.368-1.468a5.3 5.3 0 0 0-1.53.16c-.217.055-.423.089-.629.164-.283.104-.641.249-.884.432-.187.141-.382.371-.533.55a1 1 0 0 0-.07.103l.03-.013c1.18-.472 1.974-.472 3.128-.473 1.086 0 2.022.075 3.197.502a3 3 0 0 0-.264-.323 2.3 2.3 0 0 0-.465-.39c-.207-.138-.411-.301-.645-.415-.408-.198-.88-.28-1.335-.297M9.743 7.71l.023.036q.049-.021.099-.039zm3.01.016.077.018-.013-.01-.069-.01zm-3.615-.04-.036.022.082-.012-.01-.015q-.019.002-.036.006m.545-.068.015.022.206-.016-.011-.021zm.376-.023.009.019.085-.006.07-.018z" clip-rule="evenodd"/></svg>