<svg xmlns="http://www.w3.org/2000/svg" fill="none" viewBox="0 0 20 20"><path fill="currentColor" d="m6.195 9.15-2.914 1.06c.037.468.118.93.23 1.382l2.769-1.008a5.5 5.5 0 0 1-.085-1.434m12.88-3.223a8.3 8.3 0 0 0-.71-1.206l-2.915 1.06c.34.347.624.737.857 1.154z"/><path fill="currentColor" d="M13.905 5.91a5.3 5.3 0 0 0-1.241-.807 5.42 5.42 0 0 0-7.385 3.081c-.158.458-.25.926-.285 1.394l-.01.004v.01l-1.755.638-1.129.418v-.007l-.031.011A8.3 8.3 0 0 1 3.085 5.97C5.156 2.111 9.87.498 13.847 2.381c.803.38 1.539.887 2.18 1.503q.627.581 1.124 1.28l-2.913 1.06-.045-.046-.008.003a6 6 0 0 0-.28-.27M2.232 15.355l-.005.001a8.4 8.4 0 0 1-1.302-2.822l2.769-1.008.002.009.018-.007v.001a5.6 5.6 0 0 0 .87 2.104q.249.354.55.665l-.01.004.02.022-2.887 1.067z"/><path fill="currentColor" d="M13.229 14.61a5.42 5.42 0 0 1-5.143.307 5.4 5.4 0 0 1-1.577-1.12L3.6 14.858l.022.03-.001.001A8.24 8.24 0 0 0 6.85 17.62c2.886 1.367 6.16.892 8.532-.947a8.3 8.3 0 0 0 2.546-3.14 8.25 8.25 0 0 0 .75-4.163l-.08.03-.004-.045-2.888 1.067a5.5 5.5 0 0 1-.485 1.887 5.4 5.4 0 0 1-1.992 2.302"/><path fill="currentColor" d="m16.444 6.885.043-.016c.457.94.734 1.957.817 3l-2.907 1.057.001-.021-.055.02a5.55 5.55 0 0 0-.673-3.075l2.75-1.017q.011.027.024.052"/><path fill="currentColor" d="m6.199 9.133-2.894 1.07c.037.47.117.936.23 1.393l2.748-1.017A5.5 5.5 0 0 1 6.2 9.133zm12.79-3.25a8.4 8.4 0 0 0-.707-1.216l-2.893 1.07c.337.349.62.742.85 1.163z"/><path fill="currentColor" d="m3.305 10.203 2.887-1.058-.012.58-2.785 1.052zm12.084-4.476 2.932-1.006.305.46-2.849 1.007zM3.623 14.877l2.89-1.052.874.825-3.031 1.138zm15.02-5.515-2.937 1.059-.215 1.175 3.13-1.116z"/></svg>