<svg xmlns="http://www.w3.org/2000/svg" fill="none" viewBox="0 0 22 22"><path fill="currentColor" d="M14.98 4.256a.12.12 0 0 1 .169.031c.068.098.169.257.253.417a2 2 0 0 1 .11.239c.028.073.051.153.051.223s-.022.153-.049.232a3 3 0 0 1-.11.264 6 6 0 0 1-.18.358 1.75 1.75 0 0 1 .672.783c.108-.06.243-.13.377-.191.09-.042.182-.08.264-.11a.8.8 0 0 1 .232-.049c.07 0 .15.023.223.051.076.029.159.068.239.11.16.085.319.186.417.254a.122.122 0 0 1-.138.2 4 4 0 0 0-.393-.239 2 2 0 0 0-.211-.098.5.5 0 0 0-.137-.035.6.6 0 0 0-.153.036c-.072.025-.155.06-.241.1a6 6 0 0 0-.285.142c.099.012.193.06.263.14a.423.423 0 0 1-.408.686.9.9 0 0 1-.25.354c-.27.234-.65.28-1.022.164.097.265.124.536.078.78.172.16.55.498.652.498.128 0 1.073-.053 1.106-.053.025 0 .029.126.029.128-.007 0-1.116.164-1.173.158a6 6 0 0 1-.638-.231c.1.234.204.542.279.562l1.074.283c.024.007.048.138.048.14a42 42 0 0 1-1.122-.204c-.028-.01-.18-.152-.354-.314.028.22.06.403.09.434l.74.736c.018.018-.028.144-.028.145-.005-.003-.799-.638-.835-.682a8 8 0 0 1-.462-.84q-.076.03-.157.051c.174 1 .483 2.811.524 3.17.054.474.233 3.69.217 4.07-.015.38.024 1.677-.217 1.662s-1.453-2.213-1.763-2.944c-.311-.73-.257-2.19-.21-2.36.047-.171.598-.98.614-1.072.011-.072.108-1.655.162-2.554a1.7 1.7 0 0 1-.496-.244c.482 1.04-1.22 2.549-2.329 3.482-.997.839-3.04 1.817-3.937 2.202.423-.859.77-1.784 1.433-2.831.342-.54.533-.849.943-1.34.52-.622 1.328-1.304 1.491-1.444.147-.126 1.06-1.155 1.863-.65A1.8 1.8 0 0 1 12.1 8.6c-.879.052-2.568.155-2.642.168-.093.015-.9.567-1.072.613-.17.047-1.63.101-2.36-.21-.73-.31-2.929-1.522-2.944-1.763s1.281-.201 1.662-.217c.38-.016 3.596.163 4.07.217.37.043 2.28.37 3.259.54q.014-.068.035-.131a8 8 0 0 1-.867-.475c-.044-.036-.68-.831-.682-.834.001 0 .127-.046.145-.028l.736.74c.03.03.215.062.434.09-.163-.174-.304-.326-.314-.354-.02-.054-.203-1.12-.204-1.123.003 0 .133.024.14.049l.283 1.074c.02.075.328.179.562.278a6 6 0 0 1-.231-.638c-.006-.057.158-1.172.158-1.172.003 0 .127.003.128.029 0 .032-.053.978-.053 1.105 0 .093.281.418.452.604.246-.066.523-.046.792.053-.145-.456-.062-.922.258-1.198a.9.9 0 0 1 .258-.156.423.423 0 0 1 .738-.259c.069.08.102.179.1.277q.035.012.068.027c.056-.101.12-.225.175-.345q.061-.132.1-.242a.6.6 0 0 0 .037-.153q.001-.037-.035-.137a2 2 0 0 0-.099-.211c-.079-.15-.175-.3-.238-.393a.12.12 0 0 1 .031-.17"/><path fill="currentColor" fill-rule="evenodd" d="M11 0c6.075 0 11 4.925 11 11s-4.925 11-11 11S0 17.075 0 11 4.925 0 11 0m0 1.782a9.219 9.219 0 1 0 0 18.437 9.219 9.219 0 0 0 0-18.437" clip-rule="evenodd"/></svg>