<svg xmlns="http://www.w3.org/2000/svg" fill="none" viewBox="0 0 22 22"><path fill="currentColor" fill-rule="evenodd" d="M4.997 15.707c.668 0 1.21.541 1.21 1.21v2.2a1.21 1.21 0 0 1-1.21 1.209H2.2a1.21 1.21 0 0 1-1.21-1.21v-2.2c0-.668.541-1.21 1.21-1.21zm-2.687 3.3h2.576v-1.981H2.31z" clip-rule="evenodd"/><path fill="currentColor" d="M19.8 15.707c.669 0 1.211.541 1.211 1.21v2.2a1.21 1.21 0 0 1-1.21 1.209H9.213a1.21 1.21 0 0 1-1.21-1.21v-2.2c0-.668.542-1.21 1.21-1.21zM12.788 8.69c.668 0 1.21.542 1.21 1.21v2.2a1.21 1.21 0 0 1-1.21 1.21H2.201A1.21 1.21 0 0 1 .99 12.1V9.9c0-.668.542-1.21 1.21-1.21z"/><path fill="currentColor" fill-rule="evenodd" d="M19.802 8.69c.668 0 1.21.542 1.21 1.21v2.2a1.21 1.21 0 0 1-1.21 1.21h-2.796a1.21 1.21 0 0 1-1.21-1.21V9.9c0-.668.541-1.21 1.21-1.21zm-2.687 3.3h2.576v-1.98h-2.576zM4.997 1.674c.668 0 1.21.542 1.21 1.21v2.2a1.21 1.21 0 0 1-1.21 1.21H2.2a1.21 1.21 0 0 1-1.21-1.21v-2.2c0-.668.541-1.21 1.21-1.21zm-2.687 3.3h2.576v-1.98H2.31z" clip-rule="evenodd"/><path fill="currentColor" d="M19.8 1.674c.669 0 1.211.542 1.211 1.21v2.2a1.21 1.21 0 0 1-1.21 1.21H9.213a1.21 1.21 0 0 1-1.21-1.21v-2.2c0-.668.542-1.21 1.21-1.21z"/></svg>