<svg xmlns="http://www.w3.org/2000/svg" fill="none" viewBox="0 0 20 20"><path fill="currentColor" d="M9.894 1.053a12 12 0 0 0-2.04.174c-1.806.319-2.134.987-2.134 2.219v1.627h4.269v.542H4.118c-1.241 0-2.328.746-2.667 2.165-.392 1.626-.41 2.64 0 4.339.303 1.264 1.028 2.164 2.268 2.164h1.468v-1.95c0-1.41 1.22-2.652 2.667-2.652h4.264c1.187 0 2.135-.978 2.135-2.17V3.446c0-1.157-.976-2.026-2.135-2.22a13.3 13.3 0 0 0-2.224-.173M7.586 2.36a.81.81 0 0 1 .8.816c0 .449-.36.811-.8.811a.806.806 0 0 1-.802-.81c0-.45.359-.817.802-.817"/><path fill="currentColor" d="M14.786 5.616V7.51c0 1.47-1.246 2.707-2.667 2.707H7.855c-1.168 0-2.135 1-2.135 2.17v4.065c0 1.157 1.006 1.837 2.135 2.169 1.351.397 2.647.47 4.264 0 1.075-.311 2.135-.937 2.135-2.17v-1.627H9.989v-.542h6.4c1.24 0 1.702-.865 2.134-2.164.445-1.338.427-2.624 0-4.34-.307-1.234-.892-2.163-2.135-2.163zM12.388 15.91c.442 0 .8.363.8.811 0 .45-.358.816-.8.816a.81.81 0 0 1-.801-.816c0-.448.36-.81.8-.81"/></svg>