<svg xmlns="http://www.w3.org/2000/svg" fill="none" viewBox="0 0 22 22"><path fill="currentColor" d="M10.884 1.158c-.803.004-1.57.072-2.244.192-1.988.35-2.348 1.085-2.348 2.44v1.79h4.696v.597H4.529c-1.364 0-2.56.82-2.933 2.38-.432 1.79-.45 2.906 0 4.774.333 1.39 1.13 2.38 2.495 2.38h1.615v-2.145c0-1.55 1.341-2.917 2.934-2.917h4.69c1.306 0 2.348-1.075 2.348-2.387V3.791c0-1.273-1.073-2.23-2.348-2.441a14.7 14.7 0 0 0-2.446-.192m-2.54 1.44c.485 0 .881.402.881.897a.887.887 0 0 1-.88.892.886.886 0 0 1-.882-.892.89.89 0 0 1 .881-.898"/><path fill="currentColor" d="M16.265 6.177v2.085c0 1.617-1.371 2.978-2.934 2.978H8.64c-1.285 0-2.349 1.1-2.349 2.386v4.472c0 1.273 1.107 2.021 2.348 2.386 1.487.437 2.912.516 4.69 0 1.183-.342 2.349-1.031 2.349-2.386v-1.79h-4.69v-.597h7.038c1.365 0 1.873-.952 2.348-2.38.49-1.471.47-2.886 0-4.773-.337-1.359-.982-2.38-2.348-2.38zm-2.639 11.324c.487 0 .882.4.882.892a.89.89 0 0 1-.881.898.89.89 0 0 1-.882-.898c0-.493.396-.892.882-.892"/></svg>