<svg xmlns="http://www.w3.org/2000/svg" fill="none" viewBox="0 0 22 22"><path fill="currentColor" fill-rule="evenodd" d="M12.131 1.5c.256-.027.515-.009.764.054.306.076.58.237.872.398l5.705 3.17a.826.826 0 0 1-.105 1.491L15.554 8.08l3.92 2.178a.826.826 0 0 1-.105 1.49l-3.817 1.468 3.921 2.178a.826.826 0 0 1-.105 1.49l-8.578 3.3c-.312.12-.607.24-.92.273a2.2 2.2 0 0 1-.763-.053c-.306-.077-.582-.238-.873-.4L2.53 16.837a.826.826 0 0 1 .104-1.49l3.816-1.47-3.92-2.176a.825.825 0 0 1 .104-1.492l3.814-1.466L2.53 6.564a.826.826 0 0 1 .104-1.49l8.578-3.301c.312-.12.606-.24.92-.273M10.79 9.912c-.312.12-.607.24-.92.273a2.2 2.2 0 0 1-.763-.054c-.273-.068-.99-.405-1.247-.548l-3.798 1.524 5.045 2.77c.37.204.426.228.471.24q.094.023.191.013c.047-.005.107-.02.5-.172l7.568-3.03-3.881-2.186z" clip-rule="evenodd"/></svg>