<svg xmlns="http://www.w3.org/2000/svg" fill="none" viewBox="0 0 20 20"><path fill="currentColor" d="M12.42 8.27a.5.5 0 0 0 .152.093c.052.02.1.032.136.024.076-.012.104-.044.116-.072a.13.13 0 0 0-.008-.096c-.1-.26-.1-.5-.056-.696.072-.316.252-.556.292-.612q.007-.006.008-.012c.016-.024.012-.036.008-.044 0-.004-.012-.012-.028-.02a.1.1 0 0 0-.056 0c-.036.012-.172.06-.32.16s-.308.252-.396.468c-.124.32-.08.604.136.8l.012.008zm2.248.325a.4.4 0 0 1-.156.088 1 1 0 0 1-.229.036c-.396 0-.695-.228-.847-.636-.104-.272-.072-.556-.008-.784s.16-.396.184-.436q.025-.037.056-.044c.02-.008.04-.008.048-.004q.024-.001.032.052v.02c.004.092.02.448.228.86.111.228.335.448.656.604a.16.16 0 0 1 .087.084c.016.04.012.092-.051.164zm1.507-.88c.16-.112.244-.256.252-.368.012-.116-.024-.18-.072-.216a.22.22 0 0 0-.156-.028c-.428.108-.804.084-1.08-.036a2.3 2.3 0 0 1-.84-.604q-.01-.014-.015-.016c-.028-.028-.053-.028-.072-.02-.024.012-.037.032-.037.052 0 .056.025.276.125.528s.276.528.571.692c.444.244.956.264 1.316.016h.008m.548-2.232a.47.47 0 0 1 .22-.128c.032-.004.064 0 .088.02a.2.2 0 0 1 .064.096c.02.056.028.152.016.26a.9.9 0 0 1-.08.304v.008c-.244.46-.74.616-1.288.588-.368-.02-.668-.196-.884-.384a1.7 1.7 0 0 1-.371-.44.07.07 0 0 1 .011-.068c.016-.02.04-.028.08-.016q.007 0 .024.012c.108.044.516.216 1.096.172.476-.036.824-.232 1.024-.424m.16-1.696a.6.6 0 0 0-.1-.228c-.036-.044-.064-.064-.092-.072q-.042-.007-.072.016a.4.4 0 0 0-.096.12c-.256.472-.556.752-.992.968a2.5 2.5 0 0 1-.768.232q-.151.017-.248.016h-.112c-.043 0-.064.024-.072.044a.07.07 0 0 0 .017.072c.031.028.127.092.268.16.14.064.32.132.523.172.408.08.9.052 1.316-.316.292-.256.448-.536.464-.864a1 1 0 0 0-.036-.312zm-.752-1.463v.008c.12.3.076.62-.108.983-.272.524-.76.772-1.208.884a2.8 2.8 0 0 1-.604.08c-.168 0-.292-.012-.34-.024-.024-.008-.043-.028-.043-.056 0-.024.011-.052.056-.072.003 0 .015-.008.027-.012a2.9 2.9 0 0 0 1.02-.72c.352-.392.54-.776.604-1.323.004-.028.012-.1.048-.152a.13.13 0 0 1 .068-.052q.044-.012.124.024c.06.028.128.088.196.164a.9.9 0 0 1 .164.268zM14.54.848a1 1 0 0 0-.284-.204.7.7 0 0 0-.273-.084c-.068-.004-.112.008-.14.028a.14.14 0 0 0-.052.08c-.016.064.005.144.012.176.16.588.132 1.064-.072 1.615a3.16 3.16 0 0 1-.747 1.172q-.018.017-.024.028c-.036.044-.04.076-.028.1a.07.07 0 0 0 .072.036c.052-.004.188-.044.36-.12s.383-.188.591-.34c.416-.304.82-.768.88-1.423.044-.452-.048-.804-.296-1.064M11.836.024a.9.9 0 0 1 .3-.02c.12.012.248.044.36.096.348.164.616.5.696.952a2.68 2.68 0 0 1-.352 1.94c-.284.46-.632.723-.732.775-.028.012-.064.012-.088-.012-.024-.02-.032-.056-.012-.112 0-.008.008-.02.016-.036.068-.148.316-.696.308-1.451a3.07 3.07 0 0 0-.568-1.78.5.5 0 0 1-.08-.172.14.14 0 0 1 .02-.1c.02-.032.06-.06.128-.08zM9.868.148a1 1 0 0 0-.312.12c-.064.044-.096.088-.108.128a.15.15 0 0 0 .012.112.5.5 0 0 0 .14.152c.572.428.972 1.02 1.18 1.676.256.791.176 1.443.152 1.62q-.002.03-.004.043.002.097.052.116c.032.012.072.008.096-.016.044-.044.108-.132.172-.256.068-.124.14-.284.204-.464.128-.364.224-.816.192-1.267a3 3 0 0 0-.32-1.204C11.112.5 10.7.2 10.28.14a1.2 1.2 0 0 0-.408.016zM7.244 1.236a1 1 0 0 1 .284-.24c.124-.072.268-.136.412-.164h.012C8.416.74 8.96.9 9.336 1.252c.348.32.592.704.784 1.148.204.46.272.975.272 1.403 0 .216-.016.408-.04.564a1.3 1.3 0 0 1-.088.336c-.016.036-.056.056-.096.056s-.076-.032-.096-.104a.1.1 0 0 0-.012-.044c-.044-.196-.2-.908-.764-1.648A3.8 3.8 0 0 0 7.432 1.64a.5.5 0 0 1-.204-.108.18.18 0 0 1-.056-.116c0-.048.016-.104.068-.176zm-1.632 1.2a1.6 1.6 0 0 0-.372.351c-.1.132-.168.264-.196.368a.4.4 0 0 0-.008.22c.016.052.044.08.076.104.068.04.16.036.212.032.892-.06 1.86.172 2.6.628a4.8 4.8 0 0 1 1.528 1.472c.052.064.104.084.148.072a.11.11 0 0 0 .08-.1 1.6 1.6 0 0 0-.052-.392 4.4 4.4 0 0 0-.196-.612c-.184-.456-.472-.968-.88-1.376-.392-.388-.808-.696-1.308-.891-.54-.216-1.176-.164-1.624.127zM3.89 6.187a.44.44 0 0 1-.244.048.2.2 0 0 1-.124-.08.5.5 0 0 1-.072-.24 1.3 1.3 0 0 1 .072-.48c.056-.18.148-.368.268-.524h.004c.376-.496 1.051-.808 1.72-.784.615.02 1.187.188 1.76.456.595.28 1.107.704 1.483 1.1.188.2.344.392.452.556.112.164.184.304.208.392a.13.13 0 0 1-.048.14c-.04.032-.104.032-.188-.016-.004 0-.016-.012-.028-.02a6.4 6.4 0 0 0-2.204-.884c-.976-.2-2.116-.072-3.06.344zm-.924 1.944a2.1 2.1 0 0 0-.08.66c.008.212.048.404.108.528a.6.6 0 0 0 .168.224c.056.04.108.048.16.04.104-.016.188-.1.236-.144.827-.8 1.963-1.372 3.06-1.54 1.387-.212 2.427.024 2.643.072.016 0 .024.004.032.008.108.02.172-.004.204-.056a.16.16 0 0 0 0-.168c-.06-.084-.184-.2-.368-.328a5 5 0 0 0-.688-.408c-.544-.272-1.24-.516-1.968-.576-.7-.06-1.36-.016-2.008.204-.707.236-1.291.82-1.495 1.48zm.28 4.047c-.116-.763.188-1.635.788-2.223.551-.54 1.2-.908 1.935-1.192.768-.296 1.596-.392 2.284-.388.344 0 .652.032.896.072.248.044.432.096.536.152.06.032.096.1.088.168s-.064.128-.18.156q-.011.001-.04.008c-.248.056-1.412.328-2.712 1.22-1.028.708-1.9 1.84-2.344 3.047-.024.068-.072.196-.168.26a.24.24 0 0 1-.18.04.6.6 0 0 1-.28-.144c-.123-.096-.255-.268-.371-.48a2.1 2.1 0 0 1-.244-.703zm2.327 4.968c.2.26.456.492.712.668s.508.296.7.34c.176.04.304.036.392.004a.26.26 0 0 0 .168-.148.5.5 0 0 0 .036-.212c0-.072-.016-.136-.024-.18-.312-1.624-.124-3.4.5-4.776.788-1.743 1.84-2.7 2.064-2.903q.024-.022.036-.032c.104-.1.128-.204.088-.284a.25.25 0 0 0-.204-.148c-.144-.008-.372.036-.66.128a6 6 0 0 0-.988.42c-.724.376-1.532.948-2.152 1.716-.596.736-1.036 1.515-1.272 2.44-.252.987-.02 2.14.576 2.943l.028.032zm10.011 1.76h-.004c-.88.132-1.884-.248-2.56-.972-.62-.668-1.043-1.44-1.367-2.324-.34-.92-.448-1.904-.44-2.72.004-.408.036-.772.084-1.067.048-.296.112-.516.176-.636a.2.2 0 0 1 .196-.104c.076.012.148.08.184.22 0 .012.004.024.012.044.064.296.372 1.683 1.4 3.243a7.66 7.66 0 0 0 3.503 2.828c.076.028.224.088.3.208a.28.28 0 0 1 .044.22.75.75 0 0 1-.164.336 1.8 1.8 0 0 1-.556.436c-.24.132-.524.24-.804.28zm-3.347.996a.84.84 0 0 0 .348-.22.32.32 0 0 0 .076-.232.5.5 0 0 0-.076-.212 1 1 0 0 0-.112-.152c-1.088-1.284-1.804-2.996-1.944-4.596-.172-2.02.276-3.487.372-3.8q.011-.035.016-.047c.044-.152.012-.256-.064-.308a.23.23 0 0 0-.252-.016c-.128.076-.312.248-.52.492-.208.248-.44.568-.664.944-.452.755-.88 1.731-1.044 2.78-.156 1.003-.16 1.96.096 2.927.276 1.052 1.072 1.968 2.02 2.34.304.12.648.18.96.196.312.012.596-.024.788-.096"/></svg>