<svg xmlns="http://www.w3.org/2000/svg" fill="none" viewBox="0 0 22 22"><path fill="currentColor" d="M13.662 9.098c.048.04.105.08.167.101.057.022.11.035.15.027.083-.014.114-.049.127-.08a.14.14 0 0 0-.009-.105c-.11-.286-.11-.55-.061-.766.079-.347.277-.611.32-.673q.009-.007.01-.013c.017-.026.013-.04.008-.048 0-.005-.013-.014-.03-.022a.1.1 0 0 0-.062 0c-.04.013-.19.066-.352.176-.163.11-.339.277-.435.514-.137.352-.088.665.149.88l.013.009zm2.472.356a.4.4 0 0 1-.171.097 1 1 0 0 1-.251.04c-.436 0-.766-.251-.933-.7-.114-.299-.08-.611-.009-.862.07-.25.176-.436.203-.48.017-.026.04-.044.061-.048.022-.009.044-.009.053-.004q.027-.001.035.057v.022c.005.1.022.493.251.946.123.25.37.492.722.664a.18.18 0 0 1 .096.092c.018.044.014.102-.057.18zm1.659-.968c.176-.123.268-.281.277-.404.013-.128-.026-.198-.08-.238a.25.25 0 0 0-.17-.03c-.471.118-.885.092-1.189-.04a2.5 2.5 0 0 1-.924-.665c-.008-.008-.013-.017-.017-.017-.031-.031-.057-.031-.08-.022-.026.013-.039.035-.039.057 0 .062.027.304.136.58.11.278.304.581.63.762.488.268 1.051.29 1.447.017h.009m.603-2.454a.5.5 0 0 1 .241-.141q.055-.01.097.022a.2.2 0 0 1 .07.105.7.7 0 0 1 .018.286 1 1 0 0 1-.088.335v.008c-.268.506-.814.678-1.416.647-.405-.022-.735-.215-.973-.422a1.8 1.8 0 0 1-.409-.484.08.08 0 0 1 .013-.075c.018-.022.044-.03.088-.018q.007 0 .027.014c.119.048.567.237 1.205.189.524-.04.907-.255 1.127-.466m.176-1.866a.7.7 0 0 0-.11-.25c-.04-.05-.07-.071-.102-.08q-.045-.008-.079.018a.5.5 0 0 0-.105.132c-.282.519-.612.827-1.091 1.064-.326.159-.62.225-.845.256q-.167.018-.273.017h-.124c-.048 0-.07.027-.078.049-.01.03 0 .061.017.079.035.03.141.101.295.176.154.07.352.145.576.189.45.088.99.057 1.448-.348.321-.281.492-.59.51-.95a1.1 1.1 0 0 0-.04-.343zm-.828-1.61v.009c.132.33.084.682-.118 1.082-.3.576-.836.85-1.329.972a3 3 0 0 1-.664.088c-.185 0-.321-.013-.374-.026-.027-.009-.049-.03-.049-.062 0-.026.013-.057.062-.079.004 0 .018-.009.03-.013a3.2 3.2 0 0 0 1.123-.792c.387-.431.593-.854.664-1.456.004-.031.013-.11.053-.167a.14.14 0 0 1 .075-.058c.03-.008.079 0 .136.027.066.03.14.097.215.18.07.084.141.185.18.295zM15.994.932a1.1 1.1 0 0 0-.313-.224.8.8 0 0 0-.3-.092c-.074-.005-.122.008-.153.03a.15.15 0 0 0-.057.088.4.4 0 0 0 .013.194c.176.647.145 1.17-.08 1.777a3.5 3.5 0 0 1-.822 1.29.1.1 0 0 0-.026.03c-.04.049-.044.084-.031.11.017.031.048.044.079.04.057-.005.207-.048.396-.132s.422-.207.651-.374c.458-.334.902-.845.968-1.566.048-.497-.053-.885-.326-1.17M13.018.026a1 1 0 0 1 .33-.022c.132.013.273.049.396.106.383.18.678.55.766 1.047a2.95 2.95 0 0 1-.387 2.134c-.313.506-.696.796-.806.853-.03.013-.07.013-.096-.013-.027-.022-.035-.062-.013-.123q.002-.014.017-.04c.075-.163.348-.765.339-1.597A3.37 3.37 0 0 0 12.94.413a.5.5 0 0 1-.088-.189c-.004-.04 0-.08.022-.11q.031-.054.14-.088zm-2.164.137c-.141.03-.264.079-.343.131-.07.049-.106.097-.12.141a.17.17 0 0 0 .014.123c.04.08.119.141.154.168a3.68 3.68 0 0 1 1.298 1.843 4.1 4.1 0 0 1 .167 1.782c0 .022-.004.04-.004.048 0 .07.022.115.057.128s.079.009.105-.018c.049-.048.12-.145.19-.281a3.6 3.6 0 0 0 .224-.51c.14-.401.246-.898.211-1.395-.035-.475-.136-.911-.352-1.325C12.223.55 11.77.22 11.308.154a1.3 1.3 0 0 0-.449.017zM7.969 1.359c.061-.083.171-.18.312-.264.136-.079.295-.15.453-.18h.013c.51-.101 1.109.075 1.523.462.382.352.65.774.862 1.262.224.506.3 1.074.3 1.545 0 .237-.018.448-.045.62-.026.172-.062.3-.097.37-.017.04-.061.061-.105.061s-.084-.035-.106-.114a.2.2 0 0 0-.013-.049c-.049-.215-.22-.998-.84-1.812a4.16 4.16 0 0 0-2.05-1.456.53.53 0 0 1-.225-.12.2.2 0 0 1-.062-.127c0-.053.018-.114.075-.193zM6.174 2.68c-.159.106-.3.242-.41.387s-.184.29-.215.405a.46.46 0 0 0-.009.242.2.2 0 0 0 .084.114c.074.044.176.04.233.036.98-.066 2.046.189 2.86.69a5.3 5.3 0 0 1 1.645 1.57q.027.042.035.05c.057.07.115.092.163.078a.12.12 0 0 0 .088-.11 1.8 1.8 0 0 0-.057-.43 5 5 0 0 0-.216-.674c-.202-.501-.519-1.064-.968-1.513-.43-.427-.888-.766-1.438-.981-.594-.238-1.294-.18-1.787.14zM4.277 6.806a.5.5 0 0 1-.268.053.22.22 0 0 1-.136-.088.5.5 0 0 1-.08-.264 1.4 1.4 0 0 1 .08-.528c.061-.198.162-.405.294-.577h.005c.413-.545 1.157-.888 1.892-.862.677.022 1.306.207 1.935.502.656.308 1.22.774 1.633 1.21.206.22.378.43.497.611.123.18.202.334.229.431a.15.15 0 0 1-.053.154c-.044.035-.115.035-.207-.017-.004 0-.018-.014-.03-.022-.19-.124-1.07-.696-2.425-.973-1.073-.22-2.327-.079-3.366.379zM3.261 8.944c-.07.233-.097.493-.088.726s.053.444.119.58a.6.6 0 0 0 .185.247c.061.044.118.053.176.044.114-.018.206-.11.26-.158.91-.88 2.16-1.51 3.365-1.694 1.527-.233 2.67.026 2.908.079.018 0 .026.004.035.009.119.022.19-.005.225-.062a.18.18 0 0 0 0-.185 1.7 1.7 0 0 0-.405-.36c-.198-.141-.453-.3-.757-.45-.598-.298-1.364-.567-2.164-.633-.77-.066-1.496-.017-2.21.225-.778.26-1.42.902-1.645 1.628zm.308 4.452c-.128-.84.207-1.8.867-2.446.607-.594 1.32-.998 2.13-1.31.844-.326 1.755-.432 2.511-.428.379 0 .717.036.986.08.273.048.475.105.59.167.065.035.105.11.096.185-.009.074-.07.14-.198.171q-.012.002-.044.009c-.273.062-1.553.36-2.983 1.342-1.13.778-2.09 2.024-2.578 3.352-.026.075-.08.216-.185.286a.27.27 0 0 1-.198.044.66.66 0 0 1-.308-.158c-.136-.106-.281-.295-.409-.528a2.4 2.4 0 0 1-.268-.774zm2.56 5.465c.22.286.502.54.784.734.281.194.558.326.77.374.193.044.334.04.43.005a.29.29 0 0 0 .186-.163c.03-.07.04-.154.04-.233s-.018-.15-.027-.198c-.343-1.787-.137-3.74.55-5.253.866-1.918 2.024-2.97 2.27-3.194.018-.018.03-.027.04-.036.114-.11.14-.224.096-.312a.27.27 0 0 0-.224-.163c-.159-.008-.41.04-.726.141-.317.101-.69.25-1.087.462-.796.414-1.685 1.043-2.367 1.887-.655.81-1.14 1.668-1.399 2.684-.277 1.087-.022 2.354.634 3.238l.03.035zm11.013 1.935h-.005c-.968.146-2.072-.272-2.815-1.069-.682-.734-1.149-1.584-1.505-2.556-.374-1.012-.493-2.094-.484-2.991.004-.45.04-.85.092-1.175.053-.326.124-.568.194-.7a.22.22 0 0 1 .216-.114c.083.013.162.088.202.242 0 .013.004.026.013.048.07.326.41 1.853 1.54 3.568a8.4 8.4 0 0 0 3.854 3.11c.084.032.246.098.33.23.044.061.066.14.048.242-.013.1-.07.224-.18.37-.123.157-.343.333-.612.479a2.7 2.7 0 0 1-.884.308zm-3.683 1.096c.194-.075.313-.159.383-.242a.35.35 0 0 0 .084-.255.55.55 0 0 0-.084-.233 1 1 0 0 0-.123-.168c-1.197-1.412-1.984-3.295-2.138-5.055-.19-2.222.303-3.836.409-4.18q.012-.039.017-.052c.049-.167.014-.282-.07-.339a.26.26 0 0 0-.277-.017c-.14.083-.343.272-.572.54a8 8 0 0 0-.73 1.039c-.498.832-.968 1.905-1.149 3.058-.171 1.104-.176 2.156.106 3.22.303 1.157 1.179 2.165 2.222 2.574a3.4 3.4 0 0 0 1.056.215c.343.014.655-.026.866-.105"/></svg>