<svg xmlns="http://www.w3.org/2000/svg" fill="none" viewBox="0 0 22 22"><path fill="currentColor" d="M5.835 10.574c.183 0 .347.029.347.029v.58s-.162.033-.345.046c-.259.014-.372-.075-.372-.075a.3.3 0 0 1-.075-.075.3.3 0 0 1-.039-.166c0-.113.037-.192.114-.248.002-.002.113-.096.37-.091M8.691 9.835c.169 0 .277.065.359.185.053.08.074.183.084.301h-.912a.7.7 0 0 1 .103-.3.41.41 0 0 1 .366-.186M13.814 9.84c.168 0 .286.058.366.178q.12.18.12.51v.08a.87.87 0 0 1-.118.433q-.118.179-.366.178-.248.001-.365-.178-.12-.184-.12-.513 0-.33.117-.51c.08-.12.198-.178.366-.178M18.903 9.835a.39.39 0 0 1 .356.185c.053.08.075.183.084.301h-.909a.7.7 0 0 1 .104-.3c.076-.12.197-.186.365-.186"/><path fill="currentColor" fill-rule="evenodd" d="M5.758 3.3c1.386 0 2.618.66 3.398 1.68a3.86 3.86 0 0 1 2.788-1.199c1.454 0 2.72.811 3.396 2.012a4.7 4.7 0 0 1 1.917-.41c2.62 0 4.743 2.142 4.743 4.787s-2.125 4.786-4.743 4.786q-.482 0-.933-.094a3.47 3.47 0 0 1-4.543 1.427 3.96 3.96 0 0 1-3.64 2.41c-1.635 0-3.155-1.077-3.714-2.588a3.7 3.7 0 0 1-.755.08C1.643 16.19 0 14.53 0 12.48c0-1.374.739-2.573 1.836-3.215A4.27 4.27 0 0 1 5.758 3.3m7.055 5.378q-.346 0-.539.195-.192.192-.255.577l-.014.087h-.289s-.036 0-.043.036l-.048.265c-.003.026.007.04.04.04h.282l-.286 1.596a2 2 0 0 1-.077.315.7.7 0 0 1-.09.18.24.24 0 0 1-.115.09.5.5 0 0 1-.253.01c-.03-.006-.045-.013-.07-.023 0 0-.033-.011-.045.022-.01.027-.086.233-.094.26-.01.024.005.046.02.05a.9.9 0 0 0 .302.051 1 1 0 0 0 .313-.048.6.6 0 0 0 .236-.164.9.9 0 0 0 .166-.286q.066-.174.113-.428l.287-1.627h.42s.037-.001.044-.036l.048-.265c.002-.026-.007-.04-.04-.04h-.407s.021-.153.067-.29a.4.4 0 0 1 .089-.137.3.3 0 0 1 .106-.067.5.5 0 0 1 .243-.01.3.3 0 0 1 .065.017c.04.012.048 0 .055-.019l.099-.267c.01-.029-.014-.04-.024-.043l-.008.002a1 1 0 0 0-.125-.029 1 1 0 0 0-.173-.014m-8.872.816c-.413 0-.702.25-.702.606v.007c0 .378.318.498.616.585l.048.014c.216.068.404.125.404.277v.007c0 .14-.123.243-.317.243-.077 0-.32 0-.583-.168l-.074-.046c-.013-.007-.046-.021-.06.02l-.09.247h.005c-.014.036.005.044.01.05.04.03.084.051.125.078.224.117.436.154.657.154.452 0 .731-.241.731-.626v-.007c0-.356-.317-.486-.613-.58l-.039-.012c-.223-.072-.416-.135-.416-.284v-.007c0-.125.113-.22.289-.22.195 0 .426.066.572.148 0 0 .044.027.06-.015.01-.024.085-.226.092-.248.01-.024-.007-.04-.022-.05a1.3 1.3 0 0 0-.647-.173zm6.606 0c-.414 0-.703.25-.703.606v.007c0 .378.317.498.616.585l.048.014c.216.068.404.125.404.277v.007c0 .14-.123.243-.317.243-.077 0-.32 0-.583-.168l-.074-.046c-.008-.005-.046-.019-.06.02l-.09.247h.005c-.014.036.005.044.01.05.04.03.084.051.125.078.224.117.436.154.657.154.452 0 .731-.241.731-.626v-.007c0-.356-.315-.486-.613-.58l-.039-.012c-.223-.072-.416-.135-.416-.284v-.007c0-.125.113-.22.289-.22.195 0 .426.066.572.148 0 0 .044.027.06-.015.01-.024.085-.226.092-.248.01-.024-.007-.04-.022-.05a1.3 1.3 0 0 0-.647-.173zm6.749.004q-.238 0-.421.082a.9.9 0 0 0-.303.22.9.9 0 0 0-.183.326q-.062.188-.063.407 0 .471.25.75c.166.186.417.28.744.28.192 0 .39-.039.534-.096 0 0 .026-.013.015-.046l-.092-.255-.002-.005c-.012-.035-.048-.022-.048-.022a1 1 0 0 1-.176.05q-.094.015-.207.015a.58.58 0 0 1-.43-.16c-.104-.11-.164-.282-.162-.516 0-.214.053-.373.144-.495q.138-.184.42-.183c.155 0 .274.016.399.057 0 0 .029.01.043-.026l.094-.257c.01-.03-.015-.041-.024-.044a1.4 1.4 0 0 0-.25-.062 2 2 0 0 0-.282-.02M5.794 9.496c-.096 0-.25.012-.341.031 0 0-.28.053-.393.145 0 0-.023.015-.012.05l.092.243c.012.031.04.022.04.022l.022-.01c.243-.13.55-.13.556-.13a.53.53 0 0 1 .315.082c.07.053.106.135.106.303v.053c-.105-.016-.204-.024-.209-.024l.002-.002q-.078-.006-.2-.005-.163 0-.315.04a.8.8 0 0 0-.267.123.6.6 0 0 0-.185.21.6.6 0 0 0-.067.293c0 .111.019.212.057.291q.058.12.166.2c.07.05.16.09.26.113q.152.034.337.034c.13 0 .262-.012.387-.031.126-.022.28-.053.32-.063l.09-.021c.03-.008.029-.041.029-.041v-1.167q-.001-.384-.205-.563-.202-.177-.585-.176m2.924 0a1 1 0 0 0-.421.082.8.8 0 0 0-.294.223 1 1 0 0 0-.173.333 1.5 1.5 0 0 0-.055.406c0 .145.019.284.057.407a.829.829 0 0 0 .505.537c.128.05.285.074.463.074.368 0 .563-.084.642-.127.014-.008.026-.022.01-.06l-.085-.234c-.011-.033-.045-.022-.048-.022-.091.034-.221.094-.524.094-.198 0-.344-.058-.436-.149-.094-.094-.14-.231-.149-.424h1.275s.034 0 .036-.03c0-.015.044-.263-.038-.55l.007-.002a.77.77 0 0 0-.772-.558m5.099 0a.9.9 0 0 0-.405.082.8.8 0 0 0-.289.219.9.9 0 0 0-.17.327q-.055.188-.056.404.001.22.056.404a.844.844 0 0 0 .46.546q.173.08.403.08a1 1 0 0 0 .405-.08.8.8 0 0 0 .288-.218.9.9 0 0 0 .171-.328q.055-.188.056-.404-.001-.218-.056-.404a.9.9 0 0 0-.17-.327.8.8 0 0 0-.29-.22 1 1 0 0 0-.404-.081m5.113 0a1 1 0 0 0-.421.082.8.8 0 0 0-.294.223 1 1 0 0 0-.173.333 1.47 1.47 0 0 0 .002.813.84.84 0 0 0 .186.325.8.8 0 0 0 .32.211c.127.05.284.075.462.075.367 0 .563-.084.642-.127.014-.008.026-.022.012-.06l-.084-.234c-.012-.033-.048-.022-.048-.022-.092.034-.222.094-.525.094-.197 0-.344-.058-.435-.149-.094-.094-.14-.231-.15-.424H19.7s.034 0 .036-.03c0-.015.043-.263-.039-.55l.005-.002a.77.77 0 0 0-.406-.484.9.9 0 0 0-.366-.074M7.04 8.719c-.021 0-.035.017-.035.038v2.722c0 .021.014.038.036.038h.339c.021 0 .036-.017.036-.038V8.757c0-.021-.015-.038-.036-.038zm8.983.8a.63.63 0 0 0-.33.054.6.6 0 0 0-.216.159v-.157c0-.021-.015-.038-.036-.038h-.327c-.022 0-.037.017-.037.038v1.904c0 .021.017.038.039.038h.334a.04.04 0 0 0 .039-.038v-.95c0-.128.014-.256.043-.335a.5.5 0 0 1 .11-.188.36.36 0 0 1 .157-.094.6.6 0 0 1 .31-.007c.025.002.04-.012.046-.034l.097-.267.005-.002c.01-.029-.01-.043-.02-.046a1 1 0 0 0-.214-.036" clip-rule="evenodd"/></svg>