<svg xmlns="http://www.w3.org/2000/svg" fill="none" viewBox="0 0 20 20"><path fill="currentColor" fill-rule="evenodd" d="m14.984 6.448-.414.414h-1.986a.554.554 0 0 0-.553.554v1.985l-1.47 1.47a.56.56 0 0 0-.14.55c.082.272.133.532.133.794a2.77 2.77 0 1 1-2.769-2.77c.262 0 .522.052.794.133a.56.56 0 0 0 .55-.14l4.423-4.422h1.432zm-7.199 4.66a1.109 1.109 0 1 0 0 2.217 1.109 1.109 0 0 0 0-2.218" clip-rule="evenodd"/><path fill="currentColor" fill-rule="evenodd" d="M16.462 1A2.54 2.54 0 0 1 19 3.538v12.924A2.54 2.54 0 0 1 16.462 19H3.538A2.54 2.54 0 0 1 1 16.462V3.538A2.54 2.54 0 0 1 3.538 1zm-3.138 2.907a.56.56 0 0 0-.309.093l-.084.07L8.569 8.43a3.6 3.6 0 0 0-.783-.093 3.878 3.878 0 0 0 0 7.755 3.88 3.88 0 0 0 3.877-3.878c0-.277-.04-.54-.095-.784l1.41-1.408a.56.56 0 0 0 .161-.392V7.969H14.8a.55.55 0 0 0 .391-.162l.74-.738a.56.56 0 0 0 .162-.393V4.462a.555.555 0 0 0-.554-.555z" clip-rule="evenodd"/></svg>