<svg xmlns="http://www.w3.org/2000/svg" fill="none" viewBox="0 0 22 22"><path fill="currentColor" fill-rule="evenodd" d="m16.483 7.093-.456.455h-2.185a.61.61 0 0 0-.608.61v2.183l-1.617 1.617a.61.61 0 0 0-.153.605c.09.3.146.586.146.873a3.047 3.047 0 1 1-3.046-3.046c.287 0 .574.056.873.146a.61.61 0 0 0 .605-.153l4.865-4.865h1.576zm-7.92 5.125a1.22 1.22 0 1 0 0 2.44 1.22 1.22 0 0 0 0-2.44" clip-rule="evenodd"/><path fill="currentColor" fill-rule="evenodd" d="M18.108 1.1A2.79 2.79 0 0 1 20.9 3.892v14.216a2.79 2.79 0 0 1-2.792 2.792H3.892A2.79 2.79 0 0 1 1.1 18.108V3.892A2.79 2.79 0 0 1 3.892 1.1zm-3.452 3.198a.6.6 0 0 0-.34.103l-.091.075-4.8 4.799a4 4 0 0 0-.861-.103 4.266 4.266 0 0 0 0 8.53 4.266 4.266 0 0 0 4.264-4.266c0-.305-.043-.592-.104-.862l1.55-1.549a.6.6 0 0 0 .178-.431V8.766h1.828a.6.6 0 0 0 .43-.179l.814-.812a.61.61 0 0 0 .178-.431V4.908a.61.61 0 0 0-.61-.61z" clip-rule="evenodd"/></svg>