<svg xmlns="http://www.w3.org/2000/svg" fill="none" viewBox="0 0 22 22"><path fill="currentColor" d="M6.867 13.2a1.323 1.323 0 0 1 0 2.644 1.322 1.322 0 0 1 0-2.644"/><path fill="currentColor" fill-rule="evenodd" d="M20.187.98c.461 0 .835.373.835.834v18.373c0 .461-.374.835-.835.835H1.814a.835.835 0 0 1-.835-.835V1.814c0-.46.374-.835.835-.835zM6.867 11.862a2.659 2.659 0 0 0 0 5.317 2.66 2.66 0 0 0 2.57-1.99h8.356v-2.161a.669.669 0 0 0-1.336 0v.825h-1.093v-.825a.67.67 0 0 0-.667-.669.67.67 0 0 0-.668.669v.825H9.437a2.66 2.66 0 0 0-2.57-1.991m-1.51-7.45a.668.668 0 1 0-.96.929l1.478 1.525-1.477 1.527a.668.668 0 0 0 .959.93l1.93-1.99a.67.67 0 0 0 0-.932zM7.772 8.19a.669.669 0 0 0 0 1.336h2.412a.67.67 0 0 0 .67-.668.67.67 0 0 0-.67-.668z" clip-rule="evenodd"/></svg>