<svg xmlns="http://www.w3.org/2000/svg" fill="none" viewBox="0 0 20 20"><g fill="currentColor" clip-path="url(#a)"><path d="m16.118 11.51 2.6 3.524h-2.392l-1.396-1.891-1.395 1.89h-2.392l2.59-3.51-1.96-2.656h2.393l1.943 2.632V8.744l1.498-1.957H20z"/><path d="M12.874 6.835h-3.64V8.8h1.594l1.353 1.73H9.233v3.617H7.185V5.105h5.69zM3.427 4.967c1.673 0 2.384.756 2.952 1.134L5.331 7.368c-.598-.409-1.954-1.08-2.59-.498-.795.728.068 1.247.277 1.347.212.101 4.03 1.04 3.563 3.544-.373 2.003-2.116 2.424-2.941 2.383-.828-.03-2.715-.321-3.64-1.238l1.105-1.368c.446.385 1.578 1.1 2.535.881 1.196-.273 1.136-1.246.305-1.631C3.113 10.402.1 9.63.365 7.522S2.18 4.967 3.427 4.967"/></g><defs><clipPath id="a"><path fill="currentColor" d="M0 0h20v20H0z"/></clipPath></defs></svg>