<svg xmlns="http://www.w3.org/2000/svg" fill="none" viewBox="0 0 22 22"><path fill="currentColor" d="M5.26 13.611a2.086 2.086 0 0 1-2.08 2.082A2.086 2.086 0 0 1 1.1 13.61a2.085 2.085 0 0 1 2.08-2.079h2.08zm1.048 0a2.085 2.085 0 0 1 2.08-2.079 2.085 2.085 0 0 1 2.08 2.08v5.207a2.086 2.086 0 0 1-2.08 2.081 2.086 2.086 0 0 1-2.08-2.08zm2.08-8.351a2.086 2.086 0 0 1-2.08-2.08 2.086 2.086 0 0 1 2.08-2.08 2.086 2.086 0 0 1 2.08 2.08v2.08zm0 1.048a2.086 2.086 0 0 1 2.08 2.08 2.085 2.085 0 0 1-2.08 2.08H3.181A2.086 2.086 0 0 1 1.1 8.388a2.086 2.086 0 0 1 2.08-2.08zm8.35 2.08a2.085 2.085 0 0 1 2.081-2.08 2.086 2.086 0 0 1 2.081 2.08 2.086 2.086 0 0 1-2.08 2.08h-2.081zm-1.045 0a2.086 2.086 0 0 1-2.082 2.08 2.085 2.085 0 0 1-2.079-2.08V3.181a2.085 2.085 0 0 1 2.08-2.081 2.085 2.085 0 0 1 2.08 2.08zm-2.082 8.35a2.085 2.085 0 0 1 2.082 2.081A2.085 2.085 0 0 1 13.61 20.9a2.085 2.085 0 0 1-2.079-2.08v-2.081zm0-1.045a2.085 2.085 0 0 1-2.079-2.082 2.084 2.084 0 0 1 2.08-2.079h5.207a2.085 2.085 0 0 1 2.081 2.08 2.086 2.086 0 0 1-2.08 2.08z"/></svg>