<svg xmlns="http://www.w3.org/2000/svg" fill="none" viewBox="0 0 20 20"><path fill="currentColor" d="M9.232 16.55q.029.012.047.037a.89.89 0 0 0 .73.378.9.9 0 0 0 .731-.378.11.11 0 0 1 .107-.042q.107.027.216.026l.059-.003a.11.11 0 0 1 .098.05.11.11 0 0 1 .003.108 1.37 1.37 0 0 1-1.21.721 1.38 1.38 0 0 1-1.21-.72.11.11 0 0 1 .003-.11.11.11 0 0 1 .099-.05h.064a1 1 0 0 0 .203-.023.1.1 0 0 1 .06.006"/><path fill="currentColor" d="M10.427 16.415a.044.044 0 0 1 .028.077.75.75 0 0 1-.902-.001.043.043 0 0 1 .003-.069.04.04 0 0 1 .025-.007zM11.162 10.738q.031.009.054.033l.881 1q.02.023.05.032l.922.268a.108.108 0 0 1 .073.07.1.1 0 0 1-.017.098c-.18.234-.357.454-.504.635l-.056.07v.09c0 .054 0 1.36-.345 2.293-.277.75-.896.834-1.147.834-.59 0-.861-.49-.923-.606a.1.1 0 0 1-.01-.047v-.263a1.2 1.2 0 0 1 .025-.337c.065-.15.208-.115.323.08 0 .008.008.018.012.027.313-.224.63-.505.63-.72 0-.166-.176-.438-.237-.527a.1.1 0 0 1-.019-.067l.153-2.864a.107.107 0 0 1 .135-.099M8.923 10.738a.11.11 0 0 1 .072.095l.153 2.865a.1.1 0 0 1-.018.066c-.061.09-.238.361-.238.528 0 .215.323.495.63.72l.013-.028c.107-.194.252-.23.322-.08q.036.167.025.338h.006v.263a.1.1 0 0 1-.011.047c-.057.116-.333.605-.922.606-.252 0-.871-.082-1.148-.834-.342-.932-.345-2.237-.345-2.293v-.09l-.056-.07a25 25 0 0 1-.504-.643.107.107 0 0 1 .05-.16l.923-.268a.1.1 0 0 0 .05-.033l.882-.999a.11.11 0 0 1 .116-.03M8.013 9.724a.16.16 0 0 1 .047.143.16.16 0 0 1-.16.14.27.27 0 0 0 .507.058.267.267 0 0 0-.101-.341h.45q.006 0 .01.003a.01.01 0 0 1 .003.01.605.605 0 0 1-.604.637.61.61 0 0 1-.574-.388.6.6 0 0 1-.04-.24v-.022zM11.702 9.729a.27.27 0 0 0-.108.322.26.26 0 0 0 .216.165.27.27 0 0 0 .301-.208.165.165 0 0 1-.155-.215.2.2 0 0 1 .039-.064h.463v.023a.605.605 0 0 1-.614.601.61.61 0 0 1-.605-.61v-.014zM7.841 8.525c.523 0 .937.315 1.167.542a.107.107 0 0 1 .023.116.11.11 0 0 1-.1.066H7.764a.1.1 0 0 1-.082-.037c-.135-.158-.538-.687.16-.687M12.165 8.525c.696 0 .295.53.16.687a.11.11 0 0 1-.082.037h-1.168a.11.11 0 0 1-.1-.065.11.11 0 0 1 .022-.117c.23-.227.646-.542 1.168-.542M13.205 2.854q.024.014.037.038c.417.865.818 1.812.861 2.245a.1.1 0 0 1 0 .038l-.2.536a.087.087 0 0 1-.126.055.1.1 0 0 1-.037-.037c-.499-.783-.695-1.9-.742-2.219v-.024l.082-.568a.086.086 0 0 1 .124-.064M6.873 2.846a.09.09 0 0 1 .072.072l.083.568v.024c-.049.322-.243 1.436-.744 2.219a.086.086 0 0 1-.154-.016l-.2-.536a.1.1 0 0 1-.008-.04c.04-.429.442-1.38.86-2.245a.09.09 0 0 1 .091-.046"/><path fill="currentColor" fill-rule="evenodd" d="M12.694.003a.49.49 0 0 1 .431.254l.254.47c.244.451 1.245 2.342 1.678 3.709.369.08.671.16.898.224a.754.754 0 0 1 .545.721v9.877a.75.75 0 0 1-.314.61l-1.91 1.36v-.007l-.135.097-3.452 2.461a1.19 1.19 0 0 1-1.38 0l-2.926-2.088-.65-.463-.001.006-1.917-1.367a.75.75 0 0 1-.315-.61V5.383a.75.75 0 0 1 .546-.72c.232-.065.53-.142.894-.222C5.37 3.073 6.376 1.177 6.62.724l.253-.47A.48.48 0 0 1 7.304 0a.48.48 0 0 1 .48.414l.515 3.57a27 27 0 0 1 1.716-.056c.582 0 1.451.042 1.694.054l.514-3.568a.48.48 0 0 1 .48-.414zM7.306.426a.05.05 0 0 0-.046.028l-.255.47c-.68 1.255-1.83 3.617-1.83 4.5v.042l.754 2.022v.033c-.237 2.128-.305 3.581-.185 3.889.108.276.537.867.896 1.336l-.517 4.226.902.643 2.54 1.82a.755.755 0 0 0 .878 0l3.454-2.463-.521-4.235c.358-.468.78-1.05.888-1.325.12-.308.051-1.761-.185-3.889V7.49l.754-2.023v-.041c0-.88-1.15-3.243-1.83-4.5l-.254-.47a.1.1 0 0 0-.019-.02.1.1 0 0 0-.027-.007.053.053 0 0 0-.054.046l-.678 4.713-.414.687-.108-.034a4.8 4.8 0 0 0-1.444-.263c-.49.011-.975.1-1.438.261l-.107.036-.421-.689-.68-4.713a.053.053 0 0 0-.053-.047" clip-rule="evenodd"/></svg>