<svg xmlns="http://www.w3.org/2000/svg" fill="none" viewBox="0 0 20 20"><path fill="currentColor" d="M10 .782a.595.595 0 1 0 0 1.191c4.426 0 8.027 3.6 8.027 8.027a.593.593 0 0 0 1.017.421.6.6 0 0 0 .174-.421c0-5.082-4.136-9.218-9.218-9.218m0 3.02a.594.594 0 1 0 0 1.191A5.01 5.01 0 0 1 15.007 10c0 .33.266.595.595.595.33 0 .596-.266.596-.595A6.205 6.205 0 0 0 10 3.802m0 3.015a.595.595 0 1 0 0 1.192A1.995 1.995 0 0 1 11.991 10a.595.595 0 1 0 1.191 0A3.184 3.184 0 0 0 10 6.817M1.377 9.405A.595.595 0 0 0 .782 10c0 5.082 4.136 9.218 9.218 9.218a.594.594 0 0 0 .422-1.017.6.6 0 0 0-.422-.174c-4.426 0-8.027-3.6-8.027-8.027a.595.595 0 0 0-.596-.595m3.02 0a.595.595 0 0 0-.595.595A6.205 6.205 0 0 0 10 16.198a.594.594 0 0 0 .421-1.017.6.6 0 0 0-.421-.174A5.01 5.01 0 0 1 4.993 10a.594.594 0 0 0-.595-.595m3.017 0a.595.595 0 0 0-.597.595A3.184 3.184 0 0 0 10 13.182a.594.594 0 1 0 0-1.19A1.995 1.995 0 0 1 8.009 10a.595.595 0 0 0-.595-.595"/></svg>