<svg xmlns="http://www.w3.org/2000/svg" fill="none" viewBox="0 0 20 20"><path fill="currentColor" d="M15.622 8.26h-.113a5.581 5.581 0 0 1-.532 3.722 5.6 5.6 0 0 1-1.779 2.003c.388.4.87.695 1.401.86.53.162 1.092.194 1.636.091a3.34 3.34 0 0 0 1.493-.695 3.36 3.36 0 0 0 1.227-2.935 3.24 3.24 0 0 0-.552-1.544 3.4 3.4 0 0 0-1.217-1.104 3.3 3.3 0 0 0-1.595-.399z"/><path fill="currentColor" d="M15.51 8.26a5.63 5.63 0 0 0-1.494-2.813 5.53 5.53 0 0 0-2.78-1.544 5.6 5.6 0 0 0-3.17.215A5.6 5.6 0 0 0 5.518 6.02c-1.186 0-2.331.47-3.17 1.319a4.5 4.5 0 0 0-1.32 3.17c.001 1.186.471 2.331 1.32 3.17a4.5 4.5 0 0 0 3.17 1.319h4.489c1.145 0 2.26-.348 3.2-1.012a3.34 3.34 0 0 1-.889-1.698 3.4 3.4 0 0 1 .184-1.912 3.45 3.45 0 0 1 1.196-1.503 3.3 3.3 0 0 1 1.82-.604z"/></svg>