<svg xmlns="http://www.w3.org/2000/svg" fill="none" viewBox="0 0 22 22"><g fill="currentColor" fill-rule="evenodd" clip-path="url(#a)" clip-rule="evenodd"><path d="M11 5.626a3.88 3.88 0 1 1 0 7.76 3.88 3.88 0 0 1 0-7.76m0 1.417a.65.65 0 0 0-.65.65v1.162H9.189a.65.65 0 1 0 0 1.3h1.163v1.162a.65.65 0 0 0 1.3 0v-1.162h1.162a.65.65 0 0 0 0-1.3H11.65V7.693a.65.65 0 0 0-.65-.65"/><path d="M17.548.773a4.446 4.446 0 0 1 4.445 4.445.66.66 0 0 1-.527.646l-.133.013h-3.124v11.745a3.591 3.591 0 1 1-7.182-.027l.003-.364-9.64.106A3.126 3.126 0 0 0 4.446 19.8l2.835.093a.661.661 0 0 1 0 1.32l-2.835-.093A4.446 4.446 0 0 1 0 16.676c0-.319.227-.585.527-.647l.133-.012h3.124V4.379a3.5 3.5 0 0 1 3.5-3.5zM11 4.325a5.18 5.18 0 1 0 .001 10.361A5.18 5.18 0 0 0 11 4.326m8.795-1.28c-.602-.57-1.586.015-1.586 1.12v.392h2.393c-.136-.635-.537-1.254-.807-1.511"/></g><defs><clipPath id="a"><path fill="currentColor" d="M0 0h22v22H0z"/></clipPath></defs></svg>