<svg xmlns="http://www.w3.org/2000/svg" fill="none" viewBox="0 0 20 20"><path fill="currentColor" fill-rule="evenodd" d="M15.617 11.095c1.572 0 2.826.87 3.344 2.223v2.943c-.502 1.37-1.756 2.223-3.344 2.223s-2.86-.869-3.361-2.24v-2.909c.518-1.388 1.773-2.24 3.361-2.24m0 1.488c-.802 0-1.388.451-1.655 1.187v2.04c.284.735.886 1.17 1.655 1.17.786 0 1.37-.435 1.638-1.17v-2.04c-.284-.736-.852-1.187-1.638-1.187" clip-rule="evenodd"/><path fill="currentColor" d="M8.645 11.111c1.504 0 2.34.887 2.34 2.324v4.85H9.213V13.97c0-.82-.335-1.338-1.104-1.338-.768 0-1.22.569-1.22 1.37v4.265H5.118v-4.314c0-.886-.368-1.338-1.103-1.338-.786 0-1.221.569-1.221 1.371v4.264H1.037v-6.905h1.639v.768c.401-.668 1.07-1.003 1.973-1.003.886 0 1.554.368 1.922 1.02.468-.686 1.17-1.02 2.074-1.02M4.248 1.516c1.204 0 2.023.284 2.992 1.087l-.953 1.153c-.802-.652-1.32-.82-2.073-.82-.535 0-.919.168-1.086.418v.536c.1.117.284.217.518.284.2.033.535.134 1.02.234 1.42.318 2.19.669 2.524 1.32v1.756c-.384.87-1.387 1.405-2.792 1.405-1.32 0-2.257-.335-3.36-1.305l.986-1.153c.502.418.903.685 1.254.819.351.15.736.234 1.12.218.535 0 .953-.15 1.12-.418v-.603c-.116-.184-.351-.283-.602-.367-.2-.033-.518-.117-1.02-.234-1.37-.301-2.056-.636-2.357-1.221V2.887c.385-.803 1.338-1.371 2.71-1.371M14.613 6.104c0 .72.386 1.155 1.155 1.155.886 0 1.42-.503 1.42-1.439V1.64h1.773v6.94h-1.622v-.753c-.368.602-1.037.936-2.04.936-1.638 0-2.457-.852-2.457-2.206V1.64h1.771z"/></svg>