<svg xmlns="http://www.w3.org/2000/svg" fill="none" viewBox="0 0 22 22"><g clip-path="url(#a)"><path fill="currentColor" fill-rule="evenodd" d="m8.372 1.115.131.02 8.976 1.636q.278.05.527.169c.313.138.579.357.766.63q.154.212.245.461l2.877 7.973q.091.266.1.538.002.035.002.068.002.057 0 .114c-.01.207-.058.41-.144.6q-.105.254-.285.472l-.087.098-6.087 6.372a2 2 0 0 1-.326.274c-.323.231-.72.36-1.128.36l-.03-.002-.028.002q-.197-.001-.381-.034h-.002L4.52 19.228a2 2 0 0 1-.501-.158 1.8 1.8 0 0 1-.829-.697 2 2 0 0 1-.159-.284l-.048-.12L.106 9.994a1.8 1.8 0 0 1-.09-.852l.009-.055q.026-.175.09-.34c.087-.234.223-.454.405-.643l6.086-6.372q.112-.115.241-.21l.044-.032q.048-.036.098-.069a1.94 1.94 0 0 1 1.068-.319q.157-.005.315.012M9.94 19.182l3.753.686c.34.062.69-.052.916-.288l.617-.65zm-5.953-1.549.05.11c.132.247.38.429.677.48h.003l.942.172-2.981-4.392zm2.639.315-.149.1.15-.099c.144.215.41.345.695.333l2.265-.108-4.44-2.401zm6.05.081 2.564-.12.103-.012a.75.75 0 0 0 .538-.37l.002-.005.997-1.765zM11 4.317c-.102 0-.2.023-.281.07l-.004.002-5.71 3.085v.001a.51.51 0 0 0-.271.437v6.18c0 .175.098.342.27.437l5.711 3.088a.6.6 0 0 0 .57 0l5.711-3.088a.51.51 0 0 0 .27-.437v-6.18c0-.175-.1-.342-.272-.437l-5.71-3.086-.003-.002a.6.6 0 0 0-.281-.07m9.539 7.104h-.001l-2.681 4.758 2.839-2.97.078-.094a.84.84 0 0 0 .115-.774l-.34-.94zm-18.141-.354a.66.66 0 0 0 .029.698l1.24 1.826V8.813zM18.33 13.19l1.273-2.255a.66.66 0 0 0-.03-.699L18.33 8.403zM1.304 8.797a.84.84 0 0 0-.193.863l.34.94.01-.02 2.681-4.755zm18.017-.802-1.309-3.628a.94.94 0 0 0-.726-.59h-.003l-.943-.173zM6.76 4.095a.76.76 0 0 0-.641.381l-.002.004-.996 1.766L9.32 3.974zm5.652-.27 4.438 2.399-1.475-2.172a.8.8 0 0 0-.696-.334zM8.123 2.12a1.02 1.02 0 0 0-.73.304l-.618.647 5.284-.25-3.748-.685a1 1 0 0 0-.188-.016" clip-rule="evenodd"/></g><defs><clipPath id="a"><path fill="currentColor" d="M0 0h22v22H0z"/></clipPath></defs></svg>