<svg xmlns="http://www.w3.org/2000/svg" fill="none" viewBox="0 0 22 22"><path fill="currentColor" d="M21.797 4.644h-.21A1.995 1.995 0 0 0 19.59 6.64v4.462c0 .891-.737 1.613-1.613 1.613a1.67 1.67 0 0 1-1.35-.702L12.07 5.504a2.02 2.02 0 0 0-1.659-.863c-1.039 0-1.974.883-1.974 1.974v4.487c0 .891-.73 1.613-1.613 1.613a1.67 1.67 0 0 1-1.35-.702L.373 4.73A.205.205 0 0 0 0 4.847V8.74c0 .196.06.387.173.549l5.018 7.166c.297.424.734.738 1.239.853a1.983 1.983 0 0 0 2.424-1.923v-4.485c0-.891.722-1.613 1.613-1.613h.002c.537 0 1.041.262 1.35.702l4.557 6.508a1.99 1.99 0 0 0 3.63-1.111v-4.487c.001-.891.723-1.613 1.614-1.613h.178c.112 0 .202-.09.202-.202V4.846a.2.2 0 0 0-.202-.202"/></svg>