<svg xmlns="http://www.w3.org/2000/svg" fill="none" viewBox="0 0 22 22"><path fill="currentColor" d="M8.088 9.983a.66.66 0 0 1 .544.359l1.952 3.852a.66.66 0 0 1-1.178.596l-.175-.346H6.836l-.175.346a.66.66 0 1 1-1.178-.596l1.952-3.852a.66.66 0 0 1 .544-.359q.027-.001.055-.001zm-5.612 4.454v-1.862l-1.469-1.468a.66.66 0 0 1 .932-.934l1.196 1.195 1.196-1.195a.66.66 0 0 1 .933.934l-1.468 1.468v1.862a.66.66 0 0 1-1.32 0m12.64 0V12.16l-.627.613a.66.66 0 0 1-.927-.003l-.598-.594v2.26a.66.66 0 0 1-1.32 0v-3.844a.66.66 0 0 1 1.125-.468l1.262 1.25 1.284-1.253a.66.66 0 0 1 1.12.471v3.844a.66.66 0 1 1-1.32 0m2.459-3.844a.66.66 0 0 1 1.32 0v3.183h1.632a.66.66 0 0 1 0 1.32h-2.293a.66.66 0 0 1-.66-.66zm-10.07 2.531h1.057l-.53-1.043zm11.387 6.745c0 .677-.549 1.227-1.226 1.227H3.701c-.677 0-1.225-.55-1.225-1.227v-1.897a.66.66 0 1 1 1.32 0v1.804h13.777v-1.804a.66.66 0 1 1 1.319 0zm0-12.467a.66.66 0 1 1-1.32 0v-.767h-3.181a1.226 1.226 0 0 1-1.226-1.226V2.224h-9.37v5.178a.66.66 0 0 1-1.32 0V2.13c0-.678.55-1.226 1.226-1.226h10.994c.325 0 .637.129.867.359l2.97 2.97c.23.23.36.543.36.868z"/></svg>