<svg xmlns="http://www.w3.org/2000/svg" fill="none" viewBox="0 0 20 20"><g fill="currentColor" clip-path="url(#a)"><path d="m3.096 6.636-.05.023a.88.88 0 0 0-.447 1.157c.062.14.161.263.286.353l3.56 2.577-.315.121a.88.88 0 0 0-.45 1.221.9.9 0 0 0 .335.349l9.932 5.733a9.75 9.75 0 0 1-12.11-.594 9.74 9.74 0 0 1-2.151-11.93z"/><path d="M7.903 0a.13.13 0 0 1 .068.057l4.182 5.942a.14.14 0 0 1 .025.06.14.14 0 0 1-.093.154l-1.121.36a.14.14 0 0 0-.081.079.14.14 0 0 0-.01.056q0 .03.011.057l.018.03 3.318 4.155q.011.014.018.033a.2.2 0 0 1 0 .067.2.2 0 0 1-.02.062.1.1 0 0 1-.024.028.2.2 0 0 1-.06.034l-1.43.35a.14.14 0 0 0-.1.162.14.14 0 0 0 .028.062l4.857 6.157a.137.137 0 0 1-.165.204L6.386 11.795a.15.15 0 0 1-.055-.056.14.14 0 0 1-.005-.113.14.14 0 0 1 .077-.08l1.318-.516a.142.142 0 0 0 .089-.133.14.14 0 0 0-.055-.113L3.313 7.582a.15.15 0 0 1-.057-.129V7.42a.14.14 0 0 1 .03-.048.14.14 0 0 1 .045-.032l1.013-.443.033-.02a.1.1 0 0 0 .024-.029.1.1 0 0 0 .023-.067.13.13 0 0 0-.057-.126L.057 3.592a.14.14 0 0 1 .025-.242L7.814 0a.13.13 0 0 1 .089 0"/><path d="M10.274.515A9.74 9.74 0 0 1 19.17 6.28a9.73 9.73 0 0 1-1.64 10.47l-3.739-4.733.516-.129a.875.875 0 0 0 .472-1.395L12.01 7l.303-.098a.87.87 0 0 0 .556-.551.9.9 0 0 0-.113-.773L9.242.567c.346-.034.686-.052 1.032-.052"/></g><defs><clipPath id="a"><path fill="currentColor" d="M0 0h20v20H0z"/></clipPath></defs></svg>