<svg xmlns="http://www.w3.org/2000/svg" fill="none" viewBox="0 0 22 22"><g fill="currentColor" clip-path="url(#a)"><path d="m3.405 7.3-.055.024a.966.966 0 0 0-.491 1.273c.069.155.177.29.314.39L7.09 11.82l-.346.133a.966.966 0 0 0-.494 1.343c.084.16.212.293.367.384l10.926 6.306a10.72 10.72 0 0 1-13.322-.654A10.71 10.71 0 0 1 1.854 6.21z"/><path d="M8.693 0a.14.14 0 0 1 .075.063l4.6 6.536a.15.15 0 0 1 .022.137.156.156 0 0 1-.097.099l-1.233.396a.16.16 0 0 0-.088.21l.02.034 3.65 4.57a.1.1 0 0 1 .02.036.2.2 0 0 1 0 .074.2.2 0 0 1-.022.068.173.173 0 0 1-.091.069l-1.574.385a.16.16 0 0 0-.066.038.16.16 0 0 0-.014.208l5.343 6.772a.152.152 0 0 1-.008.18.15.15 0 0 1-.173.045L7.024 12.975a.16.16 0 0 1-.06-.062.16.16 0 0 1-.005-.124.16.16 0 0 1 .085-.09l1.449-.566a.158.158 0 0 0 .038-.27L3.644 8.34a.17.17 0 0 1-.062-.142V8.16a.2.2 0 0 1 .032-.052.2.2 0 0 1 .05-.036l1.114-.488.037-.022q.015-.015.026-.031a.13.13 0 0 0 .025-.074.15.15 0 0 0-.062-.139L.062 3.951a.156.156 0 0 1 .028-.266L8.595 0a.14.14 0 0 1 .098 0"/><path d="M11.3.567a10.72 10.72 0 0 1 9.788 6.34 10.71 10.71 0 0 1-1.805 11.518l-4.112-5.206.568-.142a.963.963 0 0 0 .518-1.534l-3.045-3.844.332-.108a.96.96 0 0 0 .612-.606.98.98 0 0 0-.124-.85L10.166.622c.38-.036.755-.056 1.135-.056"/></g><defs><clipPath id="a"><path fill="currentColor" d="M0 0h22v22H0z"/></clipPath></defs></svg>