<svg xmlns="http://www.w3.org/2000/svg" fill="none" viewBox="0 0 22 22" shape-rendering="geometricPrecision"><rect width="22" height="22" rx="3" ry="3" fill="#F6F6F7"/><g transform="translate(11, 11) scale(0.7) translate(-11, -11)"><path fill="#0F1013" fill-rule="evenodd" d="m10.617 1.133 3.646 1.147c.055.017.052.1-.002.119a1.895 1.895 0 0 0-1.278 1.773c0 1.011.82 1.832 1.832 1.832.466 0 .588.127.593.132.007.008.13.132.13.594.001 1.012.823 1.83 1.832 1.83l.164-.007a1.82 1.82 0 0 0 1.178-.582c.036-.038.104-.014.104.038v4.253c0 3.086-2.148 5.258-4.15 6.615a17.7 17.7 0 0 1-3.95 1.985l-.09.03a.6.6 0 0 1-.344.004l-.098-.034q-.094-.03-.261-.093a17.649 17.649 0 0 1-3.69-1.892c-2.002-1.358-4.15-3.529-4.15-6.615v-8.11c0-.238.155-.45.382-.523l7.817-2.496.083-.02a.55.55 0 0 1 .252.02m.011 4.36a.66.66 0 0 0-.742.293l-3.194 5.261a.66.66 0 0 0 .565 1.002H9.79v3.85a.661.661 0 0 0 1.2.382l3.192-4.51a.66.66 0 0 0-.538-1.04H11.11V6.127a.66.66 0 0 0-.482-.636" clip-rule="evenodd"/><path fill="#0F1013" d="M17.37 1.107a.51.51 0 0 1 .51.51c0 .727.205 1.221.52 1.534s.812.512 1.526.512a.51.51 0 0 1 0 1.022c-.71 0-1.206.202-1.524.518-.173.173-.312.4-.404.686a2.6 2.6 0 0 0-.108.582l-.01.259-.01.102a.51.51 0 0 1-.5.408l-.103-.01a.5.5 0 0 1-.093-.03h-.003l-.066-.034-.011-.007q-.019-.013-.035-.027l-.033-.026a.5.5 0 0 1-.112-.15q-.012-.021-.02-.042-.009-.024-.015-.048-.006-.02-.01-.042a.5.5 0 0 1-.01-.094q0-.135-.01-.259a2.5 2.5 0 0 0-.131-.655 1.8 1.8 0 0 0-.164-.343 1.5 1.5 0 0 0-.34-.383c-.316-.25-.773-.405-1.4-.405a.5.5 0 0 1-.327-.123.51.51 0 0 1-.169-.507q.005-.026.014-.051l.013-.03q.008-.02.018-.04l.02-.032.032-.047.009-.01.043-.046.021-.019.027-.02a.5.5 0 0 1 .196-.087l.104-.01.258-.009c.509-.037.887-.186 1.158-.406l.11-.097a2 2 0 0 0 .128-.15c.239-.312.39-.761.39-1.383 0-.282.23-.51.511-.51"/></g><rect x="0.3" y="0.3" width="21.4" height="21.4" rx="3" ry="3" fill="none" stroke="var(--cn-comp-avatar-shadow)" stroke-width="0.6"/></svg>