<svg xmlns="http://www.w3.org/2000/svg" fill="none" viewBox="0 0 20 20"><rect width="100%" height="100%" rx="2px" ry="2px" fill="#F6F6F7"/><g transform="translate(10, 10) scale(0.625) translate(-10, -10)"><path fill="#131314" fill-rule="evenodd" d="m9.651 1.03 3.316 1.042c.05.016.047.092-.002.108a1.72 1.72 0 0 0-1.162 1.613c0 .919.746 1.665 1.665 1.665.424 0 .534.116.539.12.007.007.119.12.119.54 0 .92.748 1.664 1.665 1.664l.15-.007a1.65 1.65 0 0 0 1.07-.529c.032-.035.095-.013.095.035v3.866c0 2.806-1.953 4.78-3.773 6.014a16 16 0 0 1-3.592 1.805l-.082.027a.53.53 0 0 1-.311.003l-.09-.03q-.085-.03-.237-.085a16.04 16.04 0 0 1-3.354-1.72c-1.82-1.234-3.773-3.208-3.773-6.014V3.775c0-.217.14-.41.347-.476L9.348 1.03l.075-.017a.5.5 0 0 1 .228.017m.011 3.963a.6.6 0 0 0-.675.267l-2.903 4.783a.6.6 0 0 0 .514.911H8.9v3.5a.6.6 0 0 0 1.09.347l2.903-4.1a.6.6 0 0 0-.49-.946H10.1V5.57a.6.6 0 0 0-.438-.578" clip-rule="evenodd"/><path fill="#131314" d="M15.791 1.007c.256 0 .464.208.464.464 0 .66.186 1.11.473 1.393.287.285.737.466 1.386.466a.464.464 0 0 1 0 .929c-.646 0-1.096.184-1.384.471a1.5 1.5 0 0 0-.368.623q-.075.235-.098.53l-.01.235-.009.093a.464.464 0 0 1-.454.371l-.094-.01a.5.5 0 0 1-.085-.027h-.002l-.06-.03-.01-.007-.032-.025-.03-.023a.5.5 0 0 1-.058-.066l-.024-.033-.02-.037-.019-.039q-.007-.02-.012-.043-.006-.018-.01-.038a.5.5 0 0 1-.009-.086q0-.122-.009-.235a2.3 2.3 0 0 0-.119-.596 1.6 1.6 0 0 0-.15-.311 1.4 1.4 0 0 0-.309-.35c-.287-.226-.702-.367-1.271-.367a.46.46 0 0 1-.298-.112.46.46 0 0 1-.153-.46q.005-.024.012-.047l.012-.027q.007-.018.017-.037l.017-.03.03-.041.007-.01.04-.04.019-.019a.5.5 0 0 1 .203-.097l.094-.009.235-.008c.462-.034.806-.17 1.053-.369l.1-.089q.061-.062.116-.136c.217-.284.354-.692.354-1.257 0-.257.209-.464.465-.464"/></g></svg>