<svg xmlns="http://www.w3.org/2000/svg" fill="none" viewBox="0 0 22 22" shape-rendering="geometricPrecision"><rect width="22" height="22" rx="3" ry="3" fill="#0E40C0"/><g transform="translate(11, 11) scale(0.7) translate(-11, -11)"><path fill="#fff" fill-rule="evenodd" d="M10.94.005A7.6 7.6 0 0 0 6.47 1.26a7.36 7.36 0 0 0-2.852 3.596c-.04.37.058 1.039 1.166 1.374 1.215.366 1.663-.247 1.826-.651a4.4 4.4 0 0 1 1.682-2.147 4.56 4.56 0 0 1 2.648-.775c2.726 0 4.704 1.784 4.704 4.243v1.053c0 .493-.672.815-1.307.952l-5.41 1.384c-4.05.903-5.627 2.439-5.627 5.479C3.3 19.32 6.584 22 10.94 22c4.64 0 7.64-2.777 7.64-7.075l.12-8.066c0-3.971-3.263-6.854-7.76-6.854m0 19.339c-2.656 0-4.584-1.504-4.584-3.577 0-1.894 1.059-2.476 3.288-2.998l4.634-1.216a4.1 4.1 0 0 0 1.356-.487l-.11 3.726v.005c0 4.104-3.206 4.547-4.584 4.547" clip-rule="evenodd"/></g><rect x="0.3" y="0.3" width="21.4" height="21.4" rx="3" ry="3" fill="none" stroke="var(--cn-comp-avatar-shadow)" stroke-width="0.6"/></svg>