<svg xmlns="http://www.w3.org/2000/svg" fill="none" viewBox="0 0 18 18"><rect width="100%" height="100%" fill="#3DDC84"/><g transform="translate(9, 9) scale(0.8) translate(-9, -9)"><g clip-path="url(#a)"><path fill="#fff" fill-rule="evenodd" d="M14.91 3.796a.466.466 0 1 1 .78.51l-1.704 2.602A8.99 8.99 0 0 1 18 14.4H0c0-2.99 1.46-5.639 3.703-7.275L1.86 4.305l-.043-.083a.466.466 0 0 1 .764-.5l.059.074 1.844 2.819A8.96 8.96 0 0 1 9 5.4c1.511 0 2.934.374 4.185 1.032zM4.5 9.9a.9.9 0 1 0 .001 1.8.9.9 0 0 0-.001-1.8m9 0a.9.9 0 1 0 .001 1.8.9.9 0 0 0-.001-1.8" clip-rule="evenodd"/></g><defs><clipPath id="a"><path fill="#fff" d="M0 0h18v18H0z"/></clipPath></defs></g></svg>