<svg xmlns="http://www.w3.org/2000/svg" fill="none" viewBox="0 0 20 20"><rect width="100%" height="100%" rx="2px" ry="2px" fill="#0D274D" stroke="var(--cn-comp-avatar-shadow)" stroke-width="0.6"/><g transform="translate(10, 10) scale(0.625) translate(-10, -10)"><path fill="#fff" d="M9.226 17.15 3.986 6.231a6.31 6.31 0 0 0-2.065 4.672 6.334 6.334 0 0 0 6.324 6.324c.335 0 .645-.025.98-.077M7.083 4.683a6 6 0 0 1 1.162-.104 6.334 6.334 0 0 1 6.324 6.324c0 1.91-.852 3.64-2.22 4.801l1.549 3.253a9.83 9.83 0 0 0 4.181-8.054c.026-5.446-4.388-9.86-9.834-9.86-.93 0-1.859.13-2.71.387z"/></g></svg>