<svg xmlns="http://www.w3.org/2000/svg" fill="none" viewBox="0 0 20 20"><rect width="100%" height="100%" rx="2px" ry="2px" fill="#F6F6F7"/><g transform="translate(10, 10) scale(0.625) translate(-10, -10)"><g clip-path="url(#a)"><path fill="#131314" d="M2.001 16.878c0 .605.508 1.12 1.164 1.12h1.936V9.741H3.165c-.656 0-1.164.515-1.164 1.119zM12.582 6.561c0 .13.112.26.282.26h3.089c1.971 0 3.513 1.72 3.207 3.665l-.95 6.018c-.246 1.561-1.617 2.694-3.207 2.695H3.165c-1.29 0-2.363-1.026-2.363-2.32v-6.02c0-1.294 1.072-2.319 2.363-2.319h2.073c.12 0 .218-.068.26-.159L8.6 1.573c.216-.475.693-.77 1.208-.77 1.518 0 2.774 1.202 2.774 2.719z"/></g><defs><clipPath id="a"><path fill="#fff" d="M0 0h20v20H0z"/></clipPath></defs></g></svg>