<svg xmlns="http://www.w3.org/2000/svg" fill="none" viewBox="0 0 22 22"><rect width="100%" height="100%" rx="2px" ry="2px" fill="#1904da"/><g transform="translate(11, 11) scale(0.625) translate(-11, -11)"><g clip-path="url(#a)"><path fill="#fff" d="M4.9 5.667a.72.72 0 0 0-1.23-.51L.373 8.453a1.08 1.08 0 0 0-.317.765v6.944h4.845zm.769-.768h10.5V.056H9.22c-.286 0-.561.114-.764.317L5.159 3.669a.72.72 0 0 0 .51 1.23m10.398 11.929H.057v4.002c0 .464.376.84.84.84h11.617c.287 0 .562-.114.765-.316l3.297-3.296a.72.72 0 0 0-.51-1.23M20.838.056h-4.003V16.06a.72.72 0 0 0 1.23.51l3.298-3.297a1.08 1.08 0 0 0 .316-.764V.897a.84.84 0 0 0-.84-.84"/></g><defs><clipPath id="a"><path fill="#fff" d="M0 0h22v22H0z"/></clipPath></defs></g></svg>