<svg xmlns="http://www.w3.org/2000/svg" fill="none" viewBox="0 0 22 22"><rect width="100%" height="100%" rx="2px" ry="2px" fill="#EF7B4D"/><g transform="translate(11, 11) scale(0.625) translate(-11, -11)"><path fill="#131314" d="M11.533 0q.601.052 1.19.17c1.54.352 2.862 1.112 4.018 2.168 1.064.972 1.757 2.175 2.14 3.558.082.294.198.513.537.572.188.032.218.225.22.394q.002.889.001 1.778l-.002 1.11c0 .326-.106.439-.427.434-.193-.003-.268.11-.315.267a9 9 0 0 1-.506 1.307c-.75 1.542-1.91 2.693-3.38 3.548l-.215.12c-.23.125-.236.133-.142.38a.96.96 0 0 0 .61.573c.246.088.506.123.757.192q.116.023.216.087c-.06.075-.142.061-.211.075-.33.067-.654.168-.996.156a1.2 1.2 0 0 1-.401-.059c-.105-.041-.14-.005-.162.1q-.074.418-.077.843c-.013.566-.065 1.128-.102 1.69-.039.549-.017.597.511.772q.387.128.772.263c.063.022.138.034.176.107-.037.052-.09.032-.134.032q-.677.006-1.355 0c-.48-.004-.738-.258-.774-.735-.05-.699-.11-1.397-.167-2.096a1 1 0 0 0-.024-.11c-.072.417-.06.806-.077 1.19-.02.484-.007.969-.006 1.452 0 .248.079.356.307.443.329.124.652.27 1.021.24.13-.011.253.057.369.118.029.016.066.03.063.067-.004.04-.045.043-.077.041-.602-.017-1.207.06-1.808-.025-.296-.042-.489-.217-.578-.506-.087-.278-.105-.566-.126-.853-.042-.574-.071-1.148-.106-1.723a.2.2 0 0 0-.056-.157.26.26 0 0 0-.029.177v2.627c0 .356.112.527.452.65.441.157.895.272 1.348.387.1.026.206.043.222.176h-1.698q-.07-.016-.142-.027c-.643-.092-.918-.341-1.048-.956l-.061-.303-.207-1.011q-.097.166-.132.354c-.077.365-.139.735-.223 1.1-.104.452-.407.7-.855.785L9.542 22H7.845c.052-.157.198-.17.326-.203.436-.116.88-.204 1.299-.375a.55.55 0 0 0 .363-.477c.054-.399.002-.793-.011-1.188a1.4 1.4 0 0 0-.072-.289.37.37 0 0 0-.065.19q-.035.407-.069.812c-.035.396-.25.656-.622.743q-.167.04-.34.04-.765.004-1.533-.004c-.044 0-.1.018-.136-.06.164-.094.346-.153.534-.17q.438-.053.86-.178c.386-.104.48-.228.47-.63-.021-.853-.083-1.704-.063-2.558.003-.168 0-.337 0-.505q-.037.174-.045.353-.046 1.205-.17 2.404c-.048.47-.272.686-.738.738-.409.047-.815.002-1.22-.018-.1-.006-.215.011-.311-.059.039-.06.097-.064.146-.08.332-.105.665-.205.996-.315.225-.074.32-.215.325-.45q.005-.108-.003-.213a42 42 0 0 1-.096-1.97 5 5 0 0 0-.032-.439c-.022-.172-.12-.263-.27-.236-.463.084-.908-.005-1.35-.127-.055-.015-.123-.007-.164-.081a1 1 0 0 1 .261-.083q.352-.07.69-.19c.287-.103.518-.318.638-.597.081-.186.051-.29-.103-.365-1.3-.626-2.303-1.586-3.108-2.765a7.5 7.5 0 0 1-1.03-2.243c-.061-.226-.143-.276-.35-.239-.281.049-.368.006-.491-.25v-3.2c.132-.277.188-.312.49-.3.215.008.226-.005.283-.223.363-1.382.991-2.622 1.99-3.655C6.325 1.302 7.814.578 9.479.186 9.897.087 10.324.05 10.75 0zm7.31 8.202a7 7 0 0 0-.044-.86 8 8 0 0 0-.091-.595C18.16 4.03 16.559 2.145 14.078 1 12.654.346 11.135.236 9.606.533 6.63 1.113 4.66 2.9 3.612 5.713c-.4 1.076-.454 2.206-.34 3.346.08.857.312 1.693.684 2.47.536 1.112 1.323 2.023 2.27 2.803q.474.395 1.028.66c.215.1.226.095.225-.135a4 4 0 0 0-.009-.44c-.114-.935-.13-1.874-.155-2.813a.36.36 0 0 0-.168-.323c-.353-.246-.654-.543-.845-.935-.434-.889-.34-2.164.746-2.947.124-.089.199-.174.181-.342a1.6 1.6 0 0 1 .029-.405c.162-1.088.685-1.96 1.578-2.603.623-.451 1.322-.708 2.096-.717.442-.006.873.1 1.296.224 1.475.428 2.609 1.897 2.608 3.389a.59.59 0 0 0 .245.518c.425.34.753.76.865 1.307.202.987-.076 1.817-.898 2.414-.243.178-.318.372-.305.64q.002.065-.002.13l-.056 1.32c-.023.537-.127 1.067-.108 1.607.008.205.006.207.184.117a6.8 6.8 0 0 0 2.194-1.744c1.21-1.445 1.901-3.09 1.888-5.052M8.358 11.094c1.365.019 2.24-1.447 1.573-2.64a1.78 1.78 0 0 0-1.558-.908c-1.003-.004-1.79.753-1.795 1.724-.004 1.053.746 1.82 1.78 1.824m5.31 0c1.01.001 1.775-.755 1.775-1.758 0-1-.776-1.786-1.76-1.785-.976.003-1.779.794-1.781 1.756-.003 1.013.761 1.786 1.767 1.787m-1.348 1.775c-.191.117-.374.254-.578.352-.491.236-.974.236-1.447-.044-.145-.086-.283-.184-.426-.273-.043-.026-.084-.095-.137-.057-.04.028-.01.092-.001.139q.05.247.075.498c.025.518.269.91.68 1.201a.9.9 0 0 0 .725.17c.518-.109.94-.562 1.03-1.116.04-.244.005-.499.1-.736a.12.12 0 0 0-.021-.134M4.27 8.36c-.01-1.01.131-1.884.495-2.714.58-1.323 1.505-2.34 2.732-3.093a.346.346 0 0 1 .42.061c.056.055.034.109.01.164a1 1 0 0 1-.44.467c-.99.586-1.677 1.44-2.16 2.464a5.8 5.8 0 0 0-.567 2.737c.05 1.2.402 2.307 1.112 3.29.08.095.135.21.158.334.01.073.054.154-.028.209a.29.29 0 0 1-.264.037.46.46 0 0 1-.215-.17c-.66-.897-1.093-1.884-1.22-3-.033-.298-.004-.598-.033-.786m3.924-6.214a.34.34 0 0 1 .347-.35c.193 0 .375.207.381.433.004.127-.283.358-.436.354-.173-.004-.292-.183-.292-.437M7.77 9.002a.56.56 0 0 1 .537-.579c.349-.002.615.249.62.58.003.327-.248.57-.587.57-.348-.002-.569-.221-.57-.571m5.955.57c-.35-.001-.573-.233-.57-.591a.58.58 0 0 1 .547-.562.6.6 0 0 1 .613.59c.001.324-.252.566-.59.564"/></g></svg>