<svg xmlns="http://www.w3.org/2000/svg" fill="none" viewBox="0 0 18 18"><rect width="100%" height="100%" rx="2px" ry="2px" fill="#EF7B4D"/><g transform="translate(9, 9) scale(0.5625) translate(-9, -9)"><path fill="#0F0F11" d="M9.436 0q.492.042.974.14c1.26.287 2.341.91 3.287 1.773.87.795 1.438 1.78 1.751 2.911.067.24.162.42.44.468.153.026.178.184.179.322q.002.728.001 1.455l-.001.908c0 .267-.087.36-.35.355-.158-.002-.22.09-.258.219q-.164.55-.414 1.07c-.613 1.26-1.563 2.203-2.766 2.902q-.086.05-.174.098c-.19.103-.194.11-.117.311a.78.78 0 0 0 .498.469c.202.072.415.1.62.158a.5.5 0 0 1 .178.07c-.05.062-.117.05-.174.062-.27.054-.534.137-.814.127a1 1 0 0 1-.329-.048c-.085-.034-.114-.005-.132.082q-.06.341-.063.69c-.01.463-.053.922-.084 1.383-.031.448-.013.488.419.631q.316.104.631.215c.052.018.113.028.144.087-.03.043-.073.027-.11.027q-.553.004-1.108 0c-.393-.003-.604-.211-.633-.602q-.065-.857-.137-1.714a1 1 0 0 0-.02-.09c-.059.341-.048.659-.062.973-.018.396-.006.793-.006 1.188 0 .203.065.291.252.363.269.1.533.22.835.196.106-.009.207.046.302.097.024.012.054.024.051.055-.003.032-.036.035-.063.033-.492-.014-.987.049-1.479-.02-.242-.035-.4-.178-.473-.415-.07-.227-.085-.463-.103-.697-.034-.47-.058-.94-.087-1.41a.17.17 0 0 0-.045-.129.2.2 0 0 0-.024.145v2.15c0 .29.092.431.37.53.36.13.732.224 1.103.318.082.021.168.035.181.144h-1.389q-.057-.013-.116-.023c-.526-.075-.75-.279-.857-.781l-.05-.248-.17-.828a1 1 0 0 0-.108.29c-.062.3-.113.602-.182.9-.085.37-.333.572-.7.643L7.808 18H6.42c.043-.128.162-.139.266-.166.357-.095.72-.167 1.063-.306a.45.45 0 0 0 .298-.391c.043-.326.001-.649-.01-.972q-.016-.121-.059-.236a.3.3 0 0 0-.053.155q-.029.333-.056.664c-.029.324-.205.537-.51.608a1.3 1.3 0 0 1-.277.034q-.627.002-1.255-.004c-.036 0-.081.014-.11-.049.133-.077.282-.126.436-.14q.358-.043.704-.145c.315-.085.392-.187.384-.515-.017-.698-.068-1.395-.052-2.093q.003-.208.001-.414-.03.143-.037.289a30 30 0 0 1-.14 1.967c-.039.385-.222.561-.603.604-.334.038-.667.002-.999-.015-.08-.005-.175.009-.254-.048.032-.05.08-.053.12-.065.271-.087.544-.168.814-.258.185-.061.263-.177.267-.37a2 2 0 0 0-.003-.173 34 34 0 0 1-.078-1.612 4 4 0 0 0-.027-.358c-.018-.141-.098-.216-.22-.194-.38.069-.743-.005-1.106-.104-.044-.012-.1-.005-.133-.066a.7.7 0 0 1 .214-.068q.287-.058.564-.156a.9.9 0 0 0 .522-.488c.066-.152.042-.238-.084-.298-1.064-.513-1.884-1.298-2.544-2.263a6.1 6.1 0 0 1-.842-1.835c-.05-.185-.117-.226-.287-.196-.23.04-.3.005-.401-.204V5.5c.108-.227.153-.256.4-.247.176.008.185-.002.232-.181.297-1.131.811-2.146 1.628-2.991.983-1.017 2.2-1.609 3.563-1.93.342-.08.692-.112 1.04-.152zm5.98 6.711a6 6 0 0 0-.035-.703 6 6 0 0 0-.075-.488c-.448-2.223-1.758-3.765-3.788-4.701C10.353.283 9.111.193 7.86.436 5.424.91 3.813 2.373 2.955 4.675c-.327.88-.37 1.804-.277 2.737.065.702.254 1.385.559 2.02.438.91 1.083 1.656 1.857 2.294q.388.323.841.54c.176.083.185.078.184-.11q.006-.18-.007-.36c-.094-.765-.106-1.534-.127-2.302a.3.3 0 0 0-.138-.264c-.288-.202-.534-.444-.69-.765-.356-.727-.28-1.77.61-2.411.101-.073.162-.143.148-.28a1.3 1.3 0 0 1 .023-.331c.133-.89.561-1.604 1.292-2.13a2.94 2.94 0 0 1 1.714-.587c.362-.005.715.083 1.06.183 1.207.35 2.135 1.553 2.134 2.773a.48.48 0 0 0 .201.424c.348.278.616.622.708 1.07.165.807-.063 1.486-.735 1.975a.55.55 0 0 0-.25.523q.002.054 0 .107l-.047 1.079c-.02.44-.104.874-.088 1.316.006.167.004.169.15.095a5.6 5.6 0 0 0 1.795-1.427c.99-1.182 1.556-2.529 1.545-4.133M6.839 9.076a1.451 1.451 0 1 0 .013-2.902c-.82-.003-1.466.616-1.469 1.41-.003.862.61 1.49 1.456 1.492m4.346 0c.825.002 1.45-.617 1.45-1.437 0-.819-.634-1.462-1.44-1.46-.797.002-1.454.649-1.456 1.436-.003.829.623 1.46 1.446 1.461M10.08 10.53c-.156.096-.306.208-.473.288-.402.193-.797.193-1.184-.036-.119-.07-.231-.15-.348-.223-.035-.021-.07-.078-.113-.047-.033.023-.007.075 0 .114q.041.202.061.408c.02.423.22.744.557.982a.74.74 0 0 0 .593.14c.424-.09.769-.461.843-.914.032-.2.004-.408.082-.602a.1.1 0 0 0-.018-.11M3.495 6.84c-.01-.826.107-1.541.405-2.22.474-1.083 1.231-1.915 2.235-2.531a.284.284 0 0 1 .344.05c.045.045.027.089.007.134a.8.8 0 0 1-.36.382c-.809.48-1.371 1.179-1.767 2.016a4.74 4.74 0 0 0-.464 2.24c.041.981.33 1.887.91 2.69a.6.6 0 0 1 .13.274c.007.06.044.127-.024.172a.23.23 0 0 1-.216.03.38.38 0 0 1-.175-.139c-.54-.734-.895-1.541-.998-2.454-.027-.245-.003-.49-.027-.644m3.21-5.084a.28.28 0 0 1 .284-.286c.158 0 .307.169.312.354.003.104-.232.293-.357.29-.142-.004-.239-.15-.239-.358m-.348 5.61a.457.457 0 0 1 .44-.473c.284-.003.502.203.505.474.003.268-.202.467-.479.466-.285-.001-.466-.18-.466-.467m4.872.467c-.286-.001-.47-.191-.466-.484a.477.477 0 0 1 .447-.46.493.493 0 0 1 .502.482c0 .266-.207.464-.483.462"/></g></svg>