<svg xmlns="http://www.w3.org/2000/svg" fill="none" viewBox="0 0 22 22" shape-rendering="geometricPrecision"><rect width="22" height="22" rx="3" ry="3" fill="#F6F6F7"/><g transform="translate(11, 11) scale(0.7) translate(-11, -11)"><path fill="#0F1013" fill-rule="evenodd" d="M10.99.64c5.716 0 10.35 4.634 10.35 10.35s-4.634 10.35-10.35 10.35S.64 16.706.64 10.99 5.275.64 10.99.64m0 5.025a.64.64 0 0 0-.356.108l-.099.08L6.438 9.95a.644.644 0 0 0 .912.91l2.997-2.997v7.809a.644.644 0 0 0 1.288 0V7.863l2.997 2.997a.643.643 0 0 0 .909-.91l-4.095-4.096a.65.65 0 0 0-.456-.189" clip-rule="evenodd"/></g><rect x="0.3" y="0.3" width="21.4" height="21.4" rx="3" ry="3" fill="none" stroke="var(--cn-comp-avatar-shadow)" stroke-width="0.6"/></svg>