<svg xmlns="http://www.w3.org/2000/svg" fill="none" viewBox="0 0 22 22" shape-rendering="geometricPrecision"><rect width="22" height="22" rx="3" ry="3" fill="#42A046"/><g transform="translate(11, 11) scale(0.7) translate(-11, -11)"><path fill="#fff" d="M11 17.029a8.534 8.534 0 0 1-8.533-8.533C2.467 3.784 6.288 0 11 0a8.534 8.534 0 0 1 8.533 8.533c0 4.712-3.859 8.496-8.533 8.496M11 1.52a7.006 7.006 0 0 0-7.012 7.012A7.006 7.006 0 0 0 11 15.545a7.006 7.006 0 0 0 7.012-7.012c0-3.858-3.154-7.012-7.012-7.012M2.578 20.48h16.955V22H2.578z"/></g><rect x="0.3" y="0.3" width="21.4" height="21.4" rx="3" ry="3" fill="none" stroke="var(--cn-comp-avatar-shadow)" stroke-width="0.6"/></svg>