<svg xmlns="http://www.w3.org/2000/svg" fill="none" viewBox="0 0 18 18"><rect width="100%" height="100%" rx="2px" ry="2px" fill="#42A046"/><g transform="translate(9, 9) scale(0.5625) translate(-9, -9)"><path fill="#fff" d="M9 13.933A6.98 6.98 0 0 1 2.019 6.95C2.019 3.096 5.145 0 9 0a6.98 6.98 0 0 1 6.981 6.981c0 3.855-3.156 6.951-6.981 6.951M9 1.244A5.73 5.73 0 0 0 3.263 6.98 5.73 5.73 0 0 0 9 12.718a5.73 5.73 0 0 0 5.737-5.737c0-3.156-2.58-5.736-5.737-5.736m-6.89 15.51H15.98V18H2.11z"/></g></svg>