<svg xmlns="http://www.w3.org/2000/svg" fill="none" viewBox="0 0 20 20"><rect width="100%" height="100%" rx="2px" ry="2px" fill="#42A046"/><g transform="translate(10, 10) scale(0.625) translate(-10, -10)"><path fill="#fff" d="M10 15.48a7.76 7.76 0 0 1-7.757-7.757C2.243 3.44 5.717 0 10 0a7.76 7.76 0 0 1 7.757 7.757c0 4.284-3.507 7.724-7.757 7.724m0-14.097a6.37 6.37 0 0 0-6.374 6.374A6.37 6.37 0 0 0 10 14.132a6.37 6.37 0 0 0 6.374-6.375c0-3.507-2.866-6.374-6.374-6.374M2.344 18.617h15.413V20H2.344z"/></g></svg>