<svg xmlns="http://www.w3.org/2000/svg" fill="none" viewBox="0 0 22 22"><rect width="100%" height="100%" rx="2px" ry="2px" fill="#42A046"/><g transform="translate(11, 11) scale(0.625) translate(-11, -11)"><path fill="#fff" d="M11 17.029a8.534 8.534 0 0 1-8.533-8.533C2.467 3.784 6.288 0 11 0a8.534 8.534 0 0 1 8.533 8.533c0 4.712-3.859 8.496-8.533 8.496M11 1.52a7.006 7.006 0 0 0-7.012 7.012A7.006 7.006 0 0 0 11 15.545a7.006 7.006 0 0 0 7.012-7.012c0-3.858-3.154-7.012-7.012-7.012M2.578 20.48h16.955V22H2.578z"/></g></svg>