<svg xmlns="http://www.w3.org/2000/svg" fill="none" viewBox="0 0 20 20"><rect width="100%" height="100%" rx="2px" ry="2px" fill="#F6F6F7"/><g transform="translate(10, 10) scale(0.625) translate(-10, -10)"><path fill="#131314" fill-rule="evenodd" d="M10 .59a9.41 9.41 0 1 1 0 18.82A9.41 9.41 0 0 1 10 .59m0 10.701a.6.6 0 0 0-.6.6v2.964l-.74-.742a.6.6 0 0 0-.85.849l1.766 1.765a.6.6 0 0 0 .848 0l1.766-1.765a.6.6 0 0 0-.85-.849l-.74.742V11.89a.6.6 0 0 0-.6-.6m-4.113-3.48a.6.6 0 0 0-.849 0L3.273 9.576a.6.6 0 0 0 0 .848l1.765 1.766a.6.6 0 0 0 .849-.85l-.741-.74h2.963a.6.6 0 1 0 0-1.2H5.146l.74-.74a.6.6 0 0 0 0-.85m9.075 0a.6.6 0 0 0-.849.848l.74.74h-2.962a.6.6 0 0 0 0 1.2h2.963l-.74.74a.6.6 0 0 0 .848.85l1.765-1.765a.6.6 0 0 0 0-.849zM10 3.098a.6.6 0 0 0-.425.175L7.811 5.038a.6.6 0 0 0 .848.849l.74-.741v2.963a.6.6 0 0 0 1.2 0V5.146l.74.74a.6.6 0 0 0 .85-.848l-1.765-1.765A.6.6 0 0 0 10 3.098" clip-rule="evenodd"/></g></svg>