<svg xmlns="http://www.w3.org/2000/svg" fill="none" viewBox="0 0 22 22" shape-rendering="geometricPrecision"><rect width="22" height="22" rx="3" ry="3" fill="#F6F6F7"/><g transform="translate(11, 11) scale(0.7) translate(-11, -11)"><path fill="#131314" fill-rule="evenodd" d="M11 .649C16.717.649 21.351 5.283 21.351 11S16.717 21.351 11 21.351.649 16.717.649 11 5.283.649 11 .649m0 11.771a.66.66 0 0 0-.66.66v3.26l-.815-.815a.66.66 0 0 0-.933.933l1.942 1.941a.66.66 0 0 0 .932 0l1.942-1.94a.66.66 0 0 0-.933-.934l-.815.815v-3.26a.66.66 0 0 0-.66-.66M6.475 8.592a.66.66 0 0 0-.933 0L3.6 10.534a.66.66 0 0 0 0 .932l1.94 1.942a.66.66 0 0 0 .934-.933l-.815-.815h3.26a.66.66 0 0 0 0-1.32H5.66l.815-.815a.66.66 0 0 0 0-.933m9.983 0a.66.66 0 0 0-.933.933l.814.814h-3.26a.66.66 0 0 0 0 1.32h3.26l-.814.815a.66.66 0 0 0 .933.933l1.941-1.94a.66.66 0 0 0 0-.934zM11 3.407a.66.66 0 0 0-.467.194L8.592 5.54a.66.66 0 0 0 .933.934l.814-.815v3.26a.66.66 0 0 0 1.32 0V5.66l.815.815a.66.66 0 0 0 .933-.933L11.467 3.6A.66.66 0 0 0 11 3.407" clip-rule="evenodd"/></g><rect x="0.3" y="0.3" width="21.4" height="21.4" rx="3" ry="3" fill="none" stroke="var(--cn-comp-avatar-shadow)" stroke-width="0.6"/></svg>