<svg xmlns="http://www.w3.org/2000/svg" fill="none" viewBox="0 0 20 20"><rect width="100%" height="100%" rx="2px" ry="2px" fill="#141F2E" stroke="var(--cn-comp-avatar-shadow)" stroke-width="0.6"/><g transform="translate(10, 10) scale(0.625) translate(-10, -10)"><path fill="#fff" d="m6.051 8.518.12.537c0 .179.06.298.178.477v.12l-.06.178-.417.239-.12.06-.178-.06-.239-.298-.179-.358c-.477.537-1.073.835-1.73.835-.536 0-.954-.179-1.193-.477-.298-.239-.477-.656-.477-1.134s.18-.894.537-1.193c.358-.358.835-.477 1.491-.477.444-.002.886.058 1.313.18v-.418c0-.478-.12-.776-.299-.955-.179-.238-.477-.298-.954-.298l-.656.06a5 5 0 0 0-.835.298h-.12c-.06 0-.119-.06-.119-.18v-.297l.06-.18c0-.059.06-.119.179-.119l.716-.298.954-.12c.716 0 1.193.18 1.55.478.3.358.478.835.478 1.491zm-2.386.955.597-.12c.238-.06.417-.238.596-.417l.179-.358.06-.537v-.239a5 5 0 0 0-1.134-.119c-.358 0-.656.06-.894.239-.18.119-.24.358-.24.656s.06.477.18.656c.179.12.358.239.656.239m4.772.596-.238-.06-.12-.179-1.372-4.652-.06-.239.12-.12h.596l.239.06.12.239 1.013 3.937.895-3.937.12-.239.238-.06h.477l.239.06.12.239.954 3.997 1.014-3.997.119-.239.239-.06h.536c.12 0 .18.06.18.12v.12l-.06.119-1.432 4.652-.12.239-.238.06h-.537l-.238-.06-.06-.239-.954-3.877-.895 3.818-.12.238-.238.06zm7.695.179a3.9 3.9 0 0 1-1.61-.358l-.18-.179-.06-.12v-.297c0-.12.06-.18.12-.18h.12l.178.06c.43.2.899.301 1.373.299.357 0 .656-.12.835-.24.238-.118.298-.297.298-.536l-.12-.417-.596-.299-.895-.298c-.417-.12-.775-.358-.954-.597a1.43 1.43 0 0 1 .298-2.028l.597-.298a2.6 2.6 0 0 1 1.193-.12q.362.07.715.18l.24.119.178.12.06.238v.239c0 .179-.06.238-.12.238l-.238-.12a3.5 3.5 0 0 0-1.134-.178c-.357 0-.656 0-.835.12-.179.119-.238.297-.238.536 0 .179.06.298.179.418.119.119.298.238.656.358l.835.238c.417.18.716.358.895.597.179.238.298.537.298.835l-.179.716-.418.477a1.4 1.4 0 0 1-.656.358z"/><path fill="#fff" fill-rule="evenodd" d="M17.266 13.171A13.124 13.124 0 0 1 1.16 11.978c-.239-.179-.06-.357.12-.238a17.9 17.9 0 0 0 15.687.954c.299-.12.597.239.299.477" clip-rule="evenodd"/><path fill="#fff" fill-rule="evenodd" d="M18.042 12.217c-.238-.298-1.67-.179-2.266-.06-.239 0-.239-.179-.06-.298 1.133-.775 2.983-.537 3.161-.298.239.298-.06 2.147-1.073 3.042-.18.12-.358.06-.299-.12.299-.596.776-1.968.537-2.266" clip-rule="evenodd"/></g></svg>