<svg xmlns="http://www.w3.org/2000/svg" fill="none" viewBox="0 0 18 18"><rect width="100%" height="100%" fill="#141F2E"/><g transform="translate(9, 9) scale(0.8) translate(-9, -9)"><path fill="#fff" d="m5.446 7.666.107.483c0 .162.054.269.161.43v.107l-.053.161-.376.215-.107.054-.162-.054-.214-.268-.161-.322c-.43.483-.967.751-1.557.751-.483 0-.86-.16-1.074-.43-.268-.214-.43-.59-.43-1.02 0-.429.162-.805.484-1.073.322-.322.751-.43 1.342-.43.4-.002.797.053 1.181.162v-.376c0-.43-.107-.698-.268-.86-.161-.214-.43-.268-.86-.268l-.59.054q-.388.1-.752.268H2.01c-.054 0-.107-.053-.107-.16v-.27l.053-.16c0-.054.054-.107.161-.107l.645-.269.859-.107c.644 0 1.073.16 1.395.43.269.321.43.75.43 1.341zm-2.147.86.536-.108c.215-.054.376-.215.537-.376l.161-.322.054-.483v-.215a4.5 4.5 0 0 0-1.02-.107c-.322 0-.59.053-.805.214-.161.108-.215.323-.215.591s.054.43.161.59c.161.108.322.215.59.215m4.294.536-.214-.054-.108-.16L6.037 4.66l-.054-.215.107-.107h.537l.215.053.107.215.913 3.543.805-3.543.108-.215.214-.053h.43l.214.053.108.215.859 3.597.912-3.597.108-.215.215-.053h.483c.107 0 .16.053.16.107v.108l-.053.107-1.288 4.187-.108.215-.214.054h-.484l-.214-.054-.054-.215-.859-3.49-.805 3.437-.108.214-.214.054zm6.926.161a3.5 3.5 0 0 1-1.45-.322l-.16-.161-.054-.107v-.269c0-.107.053-.16.107-.16h.107l.161.053a2.9 2.9 0 0 0 1.235.268c.322 0 .59-.107.752-.214.215-.108.268-.269.268-.484l-.107-.375-.537-.269-.805-.268c-.376-.108-.698-.322-.86-.537a1.287 1.287 0 0 1 .27-1.825l.536-.269a2.4 2.4 0 0 1 1.074-.107q.326.062.644.16l.215.108.16.108.055.214v.215c0 .161-.054.215-.108.215l-.215-.108a3.1 3.1 0 0 0-1.02-.16c-.322 0-.59 0-.751.107s-.215.268-.215.483c0 .16.054.268.161.376s.269.214.59.322l.752.215c.376.16.644.322.806.536.16.215.268.484.268.752l-.161.644-.376.43a1.3 1.3 0 0 1-.59.322z"/><path fill="#fff" fill-rule="evenodd" d="M15.54 11.854a11.81 11.81 0 0 1-14.496-1.073c-.215-.162-.054-.323.107-.215a16.1 16.1 0 0 0 14.12.859c.268-.108.537.214.268.43" clip-rule="evenodd"/><path fill="#fff" fill-rule="evenodd" d="M16.238 10.995c-.215-.268-1.503-.16-2.04-.053-.215 0-.215-.162-.054-.269 1.02-.698 2.685-.483 2.846-.268.214.268-.054 1.932-.967 2.738-.16.107-.322.053-.268-.108.268-.537.698-1.771.483-2.04" clip-rule="evenodd"/></g></svg>