<svg xmlns="http://www.w3.org/2000/svg" fill="none" viewBox="0 0 22 22" shape-rendering="geometricPrecision"><rect width="22" height="22" rx="3" ry="3" fill="#0078D4"/><g transform="translate(11, 11) scale(0.7) translate(-11, -11)"><path fill="#fff" fill-rule="evenodd" d="M14.362 1.5a.95.95 0 0 1 .9.646l5.77 17.1a.95.95 0 0 1-.465 1.15.95.95 0 0 1-.434.104h-6.854q-.015-.001-.03-.004a.95.95 0 0 1-.429-.118l-.019-.01a1 1 0 0 1-.094-.064q-.02-.014-.039-.027l-.023-.021q-.007-.007-.016-.012l-4.066-3.795-.786 2.319-.366 1.085a.95.95 0 0 1-.619.603 1 1 0 0 1-.158.044H1.867a.95.95 0 0 1-.901-1.254L6.737 2.147a1 1 0 0 1 .2-.337l.028-.03.006-.006q.026-.025.055-.049.026-.023.054-.044a.94.94 0 0 1 .41-.17l.15-.011zM9.45 13.81h3.098l-1.546-4.577z" clip-rule="evenodd"/></g><rect x="0.3" y="0.3" width="21.4" height="21.4" rx="3" ry="3" fill="none" stroke="var(--cn-comp-avatar-shadow)" stroke-width="0.6"/></svg>