<svg xmlns="http://www.w3.org/2000/svg" fill="none" viewBox="0 0 20 20"><rect width="100%" height="100%" rx="2px" ry="2px" fill="#0078D4"/><g transform="translate(10, 10) scale(0.625) translate(-10, -10)"><path fill="#fff" fill-rule="evenodd" d="M13.056 1.364a.86.86 0 0 1 .818.587l5.246 15.545a.87.87 0 0 1-.116.78.87.87 0 0 1-.702.36h-6.23q-.015-.001-.028-.003a.86.86 0 0 1-.39-.108l-.017-.008a1 1 0 0 1-.085-.059q-.017-.011-.035-.024l-.021-.02-.015-.01-3.696-3.45-.715 2.108-.332.986a.87.87 0 0 1-.563.548 1 1 0 0 1-.144.04H1.697a.865.865 0 0 1-.819-1.14L6.125 1.952a.9.9 0 0 1 .182-.306l.025-.029.005-.004q.024-.023.05-.044.024-.021.049-.04a.86.86 0 0 1 .372-.156l.137-.01zm-4.464 11.19h2.816l-1.405-4.16z" clip-rule="evenodd"/></g></svg>