<svg xmlns="http://www.w3.org/2000/svg" fill="none" viewBox="0 0 18 18"><rect width="100%" height="100%" fill="#0078D4"/><g transform="translate(9, 9) scale(0.8) translate(-9, -9)"><path fill="#fff" fill-rule="evenodd" d="M11.75 1.227a.78.78 0 0 1 .736.529l4.722 13.99a.778.778 0 0 1-.736 1.027h-5.607q-.013-.002-.025-.003a.8.8 0 0 1-.35-.097l-.016-.008a1 1 0 0 1-.077-.053q-.016-.01-.032-.021l-.019-.018-.013-.01-3.327-3.105-.643 1.898-.3.887a.78.78 0 0 1-.506.494 1 1 0 0 1-.13.036h-3.9a.778.778 0 0 1-.737-1.026l4.722-13.99a.8.8 0 0 1 .164-.276l.023-.025.004-.005.045-.04.044-.036a.8.8 0 0 1 .336-.139l.123-.009zM7.733 11.3h2.534L9.003 7.554z" clip-rule="evenodd"/></g></svg>