<svg xmlns="http://www.w3.org/2000/svg" fill="none" viewBox="0 0 20 20"><rect width="100%" height="100%" rx="2px" ry="2px" fill="#F6F6F7"/><g transform="translate(10, 10) scale(0.625) translate(-10, -10)"><path fill="#131314" fill-rule="evenodd" d="M18.019.882a1.1 1.1 0 0 1 1.1 1.1V9.5c0 .607-.493 1.1-1.1 1.1h-3.163v2.202q.002.018.003.038v.92a1.1 1.1 0 0 1-1.1 1.1H6.242a1.1 1.1 0 0 1-1.1-1.1v-.106l-.003-.05V10.6H2.08v7.319h15.838v-5.08a.6.6 0 1 1 1.2 0v5.18c0 .607-.493 1.1-1.1 1.1H1.98a1.1 1.1 0 0 1-1.1-1.1V10.5a1.1 1.1 0 0 1 1.1-1.1h3.157V6.396l.003-.055v-.1c0-.607.493-1.1 1.1-1.1h7.519a1.1 1.1 0 0 1 1.1 1.1v3.16h3.059V2.08H2.08v5.08a.6.6 0 1 1-1.2 0V1.98a1.1 1.1 0 0 1 1.1-1.1zM10 8.69a1.31 1.31 0 1 0 0 2.62 1.31 1.31 0 0 0 0-2.62" clip-rule="evenodd"/></g></svg>