<svg xmlns="http://www.w3.org/2000/svg" fill="none" viewBox="0 0 22 22" shape-rendering="geometricPrecision"><rect width="22" height="22" rx="3" ry="3" fill="#F6F6F7"/><g transform="translate(11, 11) scale(0.7) translate(-11, -11)"><path fill="#0F1013" fill-rule="evenodd" d="M19.82.97c.669 0 1.211.541 1.211 1.21v8.27c0 .668-.543 1.21-1.21 1.21h-3.48v2.422c0 .014.004.028.004.042v1.012a1.21 1.21 0 0 1-1.21 1.21h-8.27a1.21 1.21 0 0 1-1.21-1.21v-.116q-.003-.028-.004-.056V11.66H2.29v8.05h17.422v-5.586a.66.66 0 1 1 1.32 0v5.696c0 .669-.542 1.21-1.21 1.211H2.18a1.21 1.21 0 0 1-1.21-1.21V11.55c0-.668.541-1.21 1.21-1.21H5.65V7.036q.001-.03.004-.061v-.11c0-.668.542-1.21 1.21-1.21h8.27c.669 0 1.21.542 1.21 1.21v3.475h3.366V2.29H2.289v5.586a.66.66 0 1 1-1.319 0V2.18c0-.669.541-1.21 1.21-1.21zM11 9.56a1.44 1.44 0 1 0 0 2.88 1.44 1.44 0 0 0 0-2.88" clip-rule="evenodd"/></g><rect x="0.3" y="0.3" width="21.4" height="21.4" rx="3" ry="3" fill="none" stroke="var(--cn-comp-avatar-shadow)" stroke-width="0.6"/></svg>