<svg xmlns="http://www.w3.org/2000/svg" fill="none" viewBox="0 0 18 18"><rect width="100%" height="100%" rx="2px" ry="2px" fill="#2684FF"/><g transform="translate(9, 9) scale(0.5625) translate(-9, -9)"><path fill="#fff" d="M15.551 10.107h-3.364a.44.44 0 0 0-.44.374 2.765 2.765 0 0 1-2.74 2.382l.91 4.16a7 7 0 0 0 6.074-6.445.44.44 0 0 0-.44-.471M9.73 10.001l4.84-4.16a.44.44 0 0 0 0-.66L9.73 1.014a.44.44 0 0 0-.724.334v8.319A.44.44 0 0 0 9.73 10M2.074 11.015a7 7 0 0 0 6.932 6.075v-4.227a2.763 2.763 0 0 1-2.763-2.756zM2.008 10.04v.067h4.235A2.763 2.763 0 0 1 9.006 7.35l-.909-4.16a6.994 6.994 0 0 0-6.09 6.85"/></g></svg>