<svg xmlns="http://www.w3.org/2000/svg" fill="none" viewBox="0 0 22 22" shape-rendering="geometricPrecision"><rect width="22" height="22" rx="3" ry="3" fill="#2684FF"/><g transform="translate(11, 11) scale(0.7) translate(-11, -11)"><path fill="#fff" d="M19.007 12.353h-4.111a.54.54 0 0 0-.538.457 3.38 3.38 0 0 1-3.35 2.912l1.113 5.085a8.554 8.554 0 0 0 7.424-7.879.54.54 0 0 0-.538-.575M11.892 12.224l5.916-5.085a.538.538 0 0 0 0-.807L11.892 1.24a.538.538 0 0 0-.885.41v10.166a.538.538 0 0 0 .885.409M2.535 13.463a8.55 8.55 0 0 0 8.472 7.424v-5.165a3.377 3.377 0 0 1-3.377-3.37zM2.454 12.272v.08H7.63a3.377 3.377 0 0 1 3.377-3.369L9.897 3.9a8.55 8.55 0 0 0-7.443 8.373"/></g><rect x="0.3" y="0.3" width="21.4" height="21.4" rx="3" ry="3" fill="none" stroke="var(--cn-comp-avatar-shadow)" stroke-width="0.6"/></svg>