<svg xmlns="http://www.w3.org/2000/svg" fill="none" viewBox="0 0 20 20"><rect width="100%" height="100%" rx="2px" ry="2px" fill="#2684FF" stroke="var(--cn-comp-avatar-shadow)" stroke-width="0.6"/><g transform="translate(10, 10) scale(0.625) translate(-10, -10)"><path fill="#fff" d="M17.28 11.23H13.54a.49.49 0 0 0-.488.415 3.07 3.07 0 0 1-3.046 2.648l1.012 4.622a7.776 7.776 0 0 0 6.749-7.162.49.49 0 0 0-.489-.523M10.811 11.112l5.378-4.622a.49.49 0 0 0 0-.733l-5.378-4.63a.489.489 0 0 0-.804.371v9.243a.489.489 0 0 0 .804.371"/><path fill="#fff" d="M2.304 12.24a7.776 7.776 0 0 0 7.703 6.748v-4.695a3.07 3.07 0 0 1-3.07-3.063zM2.23 11.156v.074h4.706a3.07 3.07 0 0 1 3.07-3.063L8.998 3.544a7.77 7.77 0 0 0-6.766 7.612"/></g></svg>