<svg xmlns="http://www.w3.org/2000/svg" fill="none" viewBox="0 0 20 20"><rect width="100%" height="100%" rx="2px" ry="2px" fill="#F9D03A" stroke="var(--cn-comp-avatar-shadow)" stroke-width="0.6"/><g transform="translate(10, 10) scale(0.625) translate(-10, -10)"><path fill="#111112" fill-rule="evenodd" d="M10.652 2.912a3.256 3.256 0 1 1 0 6.511 3.256 3.256 0 0 1 0-6.51m-1.36 3.929a.865.865 0 1 0 0 1.73.865.865 0 0 0 0-1.73m2.28-3.05a1.607 1.607 0 1 0 0 3.215 1.607 1.607 0 0 0 0-3.215" clip-rule="evenodd"/><path fill="#111112" fill-rule="evenodd" d="M10.652 0a5.563 5.563 0 0 1 5.563 5.563v.072a6 6 0 0 1-.061.755c.345-.044.758-.05 1.107.043.227.06.431.164.57.331.1.12.163.272.179.457l.033-.023C17.48 12.55 15.85 15.35 10.652 20c-4.242-3.654-6.02-5.88-6.748-9.103a2.6 2.6 0 0 1-.443.188l-.311.099-.188-.268c-.357-.513-.518-1.02-.512-1.496a1.94 1.94 0 0 1 .503-1.282c-.957-.23-1.713-.795-2.148-1.226L.5 6.609l.292-.314c.465-.501.98-.77 1.515-.857.527-.084 1.035.015 1.485.187.51.195.977.498 1.354.78l.004-.016A5.563 5.563 0 0 1 10.652 0m6.249 8.95c-.31.176-.653.364-1.02.552-1.048.537-2.366 1.117-3.665 1.401a5.6 5.6 0 0 1-1.564.223h-.072a5.6 5.6 0 0 1-1.448-.21c-1.292-.247-2.574-.735-3.597-1.192-.25-.112-.44.101-.632.202q-.078.135-.17.258c.54 1.355 1.563 2.145 2.674 2.613 1.224.517 2.551.643 3.445.7l.012.086c-.791.296-1.383.45-1.934.49-.527.036-1.013-.033-1.598-.18.055.109.156.21.294.302.17.114.388.21.625.291a7 7 0 0 0 1.37.297l.01.086c-1.343.455-2.44.117-3.069-.261.913 1.247 2.21 2.562 4.078 4.205 2.244-2.056 3.702-3.708 4.677-5.395q.355-.615.636-1.256c-1.295.636-2.658.39-3.316-.038l.03-.08c.39.06 1.338.013 2.26-.437a3.7 3.7 0 0 0 1.817-1.89q.086-.375.157-.767M10.652.888a4.675 4.675 0 0 0-1.312 9.164c.42.078.836.128 1.239.139l.073.001c.423.006.874-.048 1.335-.147A4.677 4.677 0 0 0 10.652.888M4.32 8.371a.7.7 0 0 0-.226.04c-.183.06-.374.186-.518.365a1.06 1.06 0 0 0-.238.656 1.46 1.46 0 0 0 .17.67c.56-.315.933-.947.832-1.72zm-.846-1.917c-.352-.134-.698-.192-1.026-.139a1.56 1.56 0 0 0-.662.28c.673.526 1.725 1.008 2.944.61-.358-.279-.79-.573-1.256-.75" clip-rule="evenodd"/></g></svg>