<svg xmlns="http://www.w3.org/2000/svg" fill="none" viewBox="0 0 22 22" shape-rendering="geometricPrecision"><rect width="22" height="22" rx="3" ry="3" fill="#F9D03A"/><g transform="translate(11, 11) scale(0.7) translate(-11, -11)"><path fill="#0F1013" fill-rule="evenodd" d="M11.717 3.203a3.581 3.581 0 1 1 0 7.162 3.581 3.581 0 0 1 0-7.162m-1.496 4.322a.952.952 0 1 0 0 1.904.952.952 0 0 0 0-1.904m2.508-3.355a1.768 1.768 0 1 0 0 3.536 1.768 1.768 0 0 0 0-3.536" clip-rule="evenodd"/><path fill="#0F1013" fill-rule="evenodd" d="M11.717 0a6.12 6.12 0 0 1 6.12 6.12v.079q-.006.422-.068.83c.38-.048.834-.055 1.218.047.25.067.475.18.627.365.11.132.18.298.197.502l.037-.025c-.62 5.887-2.413 8.968-8.13 14.082-4.667-4.02-6.622-6.467-7.424-10.014a3 3 0 0 1-.487.207l-.342.11-.206-.296c-.394-.564-.57-1.122-.564-1.645a2.14 2.14 0 0 1 .553-1.41C2.195 8.698 1.364 8.078.885 7.603L.55 7.27l.321-.346c.512-.55 1.079-.847 1.667-.942.58-.093 1.138.016 1.633.205.561.215 1.075.548 1.49.859l.004-.018A6.12 6.12 0 0 1 11.717 0m6.874 9.845c-.341.194-.718.4-1.12.607-1.154.59-2.604 1.229-4.033 1.542a6.1 6.1 0 0 1-1.72.245h-.08a6.1 6.1 0 0 1-1.593-.231c-1.42-.272-2.831-.808-3.956-1.312-.275-.123-.484.112-.695.223q-.086.148-.189.284c.594 1.49 1.721 2.358 2.943 2.874 1.346.569 2.806.706 3.789.77l.014.095c-.87.325-1.522.495-2.128.537-.58.041-1.115-.035-1.758-.197.06.12.172.23.324.333.186.124.426.231.687.32a7.5 7.5 0 0 0 1.508.326l.01.095c-1.478.5-2.684.128-3.376-.288 1.004 1.372 2.431 2.82 4.486 4.626 2.468-2.261 4.072-4.079 5.145-5.934.261-.453.493-.91.699-1.382-1.424.7-2.924.43-3.648-.041l.034-.09c.43.068 1.472.015 2.486-.48a4.06 4.06 0 0 0 1.999-2.079q.094-.411.172-.843M11.717.977a5.143 5.143 0 0 0-1.443 10.08c.462.086.92.141 1.362.153l.081.002c.466.006.961-.054 1.47-.163A5.143 5.143 0 0 0 11.717.977M4.752 9.208a.8.8 0 0 0-.249.044 1.26 1.26 0 0 0-.57.402 1.16 1.16 0 0 0-.26.721c-.004.206.045.453.186.736.615-.346 1.027-1.04.915-1.892zM3.822 7.1c-.388-.148-.768-.211-1.13-.153a1.7 1.7 0 0 0-.728.306c.741.58 1.898 1.11 3.238.672-.393-.306-.868-.63-1.38-.825" clip-rule="evenodd"/></g><rect x="0.3" y="0.3" width="21.4" height="21.4" rx="3" ry="3" fill="none" stroke="var(--cn-comp-avatar-shadow)" stroke-width="0.6"/></svg>