<svg xmlns="http://www.w3.org/2000/svg" fill="none" viewBox="0 0 22 22" shape-rendering="geometricPrecision"><rect width="22" height="22" rx="3" ry="3" fill="#F6F6F7"/><g transform="translate(11, 11) scale(0.7) translate(-11, -11)"><path fill="#0F1013" fill-rule="evenodd" d="M15.584 1.1a5.243 5.243 0 0 1 .477 10.464v8.676a.661.661 0 0 1-1.32 0v-5.06H7.26v5.06a.661.661 0 0 1-1.32 0v-8.676A5.243 5.243 0 0 1 6.416 1.1zM7.26 11.587v2.273h7.48v-2.274zm-.845-6.82a1.576 1.576 0 1 0 .001 3.152 1.576 1.576 0 0 0 0-3.153m8.8 0a1.576 1.576 0 1 0 .001 3.152 1.576 1.576 0 0 0 0-3.153" clip-rule="evenodd"/></g><rect x="0.3" y="0.3" width="21.4" height="21.4" rx="3" ry="3" fill="none" stroke="var(--cn-comp-avatar-shadow)" stroke-width="0.6"/></svg>