<svg xmlns="http://www.w3.org/2000/svg" fill="none" viewBox="0 0 20 20"><rect width="100%" height="100%" rx="2px" ry="2px" fill="#F6F6F7"/><g transform="translate(10, 10) scale(0.625) translate(-10, -10)"><path fill="#131314" fill-rule="evenodd" d="M14.167 1a4.767 4.767 0 0 1 .434 9.513V18.4a.601.601 0 0 1-1.2 0v-4.6H6.6v4.6a.601.601 0 0 1-1.2 0v-7.887A4.766 4.766 0 0 1 5.833 1zm-7.566 9.533V12.6h6.8v-2.067zm-.768-6.2a1.433 1.433 0 1 0 0 2.866 1.433 1.433 0 0 0 0-2.866m8 0a1.433 1.433 0 1 0 0 2.866 1.433 1.433 0 0 0 0-2.866" clip-rule="evenodd"/></g></svg>