<svg xmlns="http://www.w3.org/2000/svg" fill="none" viewBox="0 0 22 22" shape-rendering="geometricPrecision"><rect width="22" height="22" rx="3" ry="3" fill="#A07DBC"/><g transform="translate(11, 11) scale(0.7) translate(-11, -11)"><g clip-path="url(#a)"><path fill="#0F1013" fill-rule="evenodd" d="M11 0c6.075 0 11 4.925 11 11 0 5.749-4.41 10.465-10.032 10.955l-.07.005c-.296.024-.595.04-.898.04l-.46-.01-.046-.003q-.102-.005-.203-.013a11 11 0 0 1-.825-.084q-.102-.013-.203-.029a11 11 0 0 1-.4-.07l-.095-.019a11 11 0 0 1-.456-.104l-.228-.062a11 11 0 0 1-.471-.14l-.275-.093-.196-.07a11 11 0 0 1-.326-.13q-.06-.023-.123-.05a11 11 0 0 1-.45-.204l-.075-.036q-.186-.091-.368-.19-.075-.04-.15-.083a11 11 0 0 1-.74-.45l-.091-.061q-.163-.111-.322-.228-.102-.075-.202-.154-.123-.092-.242-.189-.087-.072-.173-.146a11 11 0 0 1-.572-.522l-.125-.122a11 11 0 0 1-.648-.714q-.073-.09-.144-.18a11 11 0 0 1-.274-.357 11 11 0 0 1-.182-.259q-.046-.065-.09-.132-.091-.135-.178-.275-.048-.074-.094-.15a11 11 0 0 1-.238-.415L1.3 16.19a11 11 0 0 1-.198-.388l-.044-.093a11 11 0 0 1-.35-.822l-.053-.14A10.9 10.9 0 0 1 0 11C0 4.925 4.925 0 11 0m0 1.32a9.68 9.68 0 0 0-9.178 12.754h.017q.065-.009.13-.014.24-.022.485-.03h.005q.278-.007.554-.005l.187.003q.184.003.367.01.113.005.224.012.165.008.329.019l.24.02q.156.012.31.028l.25.028.302.037a18 18 0 0 1 .549.08q.126.019.252.041a19 19 0 0 1 .546.1q.04.008.083.015l.088.02q.144.029.288.059a.8.8 0 0 0 .267-.004 1 1 0 0 0 .07-.021l.015-.007a.47.47 0 0 0 .147-.092.4.4 0 0 0 .125-.317.5.5 0 0 0-.036-.16c-.04-.083-.096-.155-.15-.229q-.139-.187-.276-.376l-.354-.483-.348-.473-.251-.342a4.4 4.4 0 0 1-.553-1.027 4.6 4.6 0 0 1-.378-1.808c-.01-2.304 1.733-4.333 4.177-4.7a5.2 5.2 0 0 1 1.811.05q.395.083.767.225a3.4 3.4 0 0 1 .847.416l.033.021.03.02.03.02.005.003.048.031.182.128.048.037.016.012c.368.28.695.61.966.982.206.285.417.569.671.816.677.657 1.537 1.121 2.393 1.527.501.238 1.018.449 1.529.654l.01.005a1 1 0 0 1 .134.069q.022.013.043.027.045.032.09.07a.7.7 0 0 1 .163.201q.003.01.006.02a.4.4 0 0 1 .03.1v.014l-.001-.002q.002.006.004.011.002.03-.002.061v.013a.3.3 0 0 1-.015.071l-.003.005a.4.4 0 0 1-.047.09q-.016.02-.033.04a.5.5 0 0 1-.089.083.7.7 0 0 1-.13.079 1 1 0 0 1-.121.052l-.009.003a4.2 4.2 0 0 1-.806.141l-.025.001c-.782.064-1.569.05-2.352.032-.397-.009-.793-.02-1.19-.021l-.072-.001q-.186 0-.335.002l-.158.003-.163.006a2 2 0 0 0-.155.027l-.057.014-.074.025a1 1 0 0 0-.133.064l-.01.004a1 1 0 0 0-.11.078l-.002.001a1 1 0 0 0-.091.084l-.012.013a1 1 0 0 0-.107.14l-.013.024a1 1 0 0 0-.076.18c-.093.309.019.601.162.891.287.563 1.49 2.933 1.955 3.967.269.6.946 2.163 1.02 2.561q.06.26.093.528A9.67 9.67 0 0 0 20.68 11 9.68 9.68 0 0 0 11 1.32" clip-rule="evenodd"/></g><defs><clipPath id="a"><path fill="#fff" d="M0 0h22v22H0z"/></clipPath></defs></g><rect x="0.3" y="0.3" width="21.4" height="21.4" rx="3" ry="3" fill="none" stroke="var(--cn-comp-avatar-shadow)" stroke-width="0.6"/></svg>