<svg xmlns="http://www.w3.org/2000/svg" fill="none" viewBox="0 0 20 20"><rect width="100%" height="100%" rx="2px" ry="2px" fill="#A07DBC"/><g transform="translate(10, 10) scale(0.625) translate(-10, -10)"><g clip-path="url(#a)"><path fill="#111112" fill-rule="evenodd" d="M10 0c5.523 0 10 4.477 10 10 0 5.226-4.01 9.513-9.12 9.959l-.064.005q-.403.035-.816.036l-.418-.009-.042-.003-.185-.011a10 10 0 0 1-.75-.077q-.092-.011-.184-.026-.183-.029-.364-.064l-.086-.017a10 10 0 0 1-.414-.095q-.106-.026-.208-.056a10 10 0 0 1-.678-.212l-.178-.064a10 10 0 0 1-.297-.117l-.111-.046a10 10 0 0 1-.41-.185l-.068-.034a10 10 0 0 1-.335-.172q-.068-.037-.136-.076a10 10 0 0 1-.755-.465 10 10 0 0 1-.293-.207q-.093-.068-.184-.14-.11-.083-.22-.171-.079-.065-.157-.133a10 10 0 0 1-.52-.475l-.113-.11a10 10 0 0 1-.59-.65q-.066-.08-.13-.162a10 10 0 0 1-.25-.325 10 10 0 0 1-.165-.236l-.082-.12a10 10 0 0 1-.161-.25q-.044-.067-.086-.136a10 10 0 0 1-.216-.378l-.032-.06a10 10 0 0 1-.18-.353l-.04-.084a10 10 0 0 1-.318-.748q-.025-.062-.048-.126-.076-.209-.143-.422A10 10 0 0 1 0 10C0 4.477 4.477 0 10 0m0 1.2a8.8 8.8 0 0 0-8.344 11.595l.016-.001q.059-.007.118-.012.218-.02.44-.027h.005q.252-.007.504-.005l.17.003q.167.002.334.009.102.004.203.01l.3.018.218.018.282.026.227.025a17 17 0 0 1 .773.106l.23.038q.132.022.265.047l.23.044.076.013.08.018q.131.026.262.054a.7.7 0 0 0 .243-.003.4.4 0 0 0 .063-.02l.014-.006a.431.431 0 0 0 .134-.084.37.37 0 0 0 .113-.288.4.4 0 0 0-.032-.145c-.036-.076-.088-.14-.137-.208q-.126-.171-.25-.342l-.322-.44-.317-.43-.228-.31a4 4 0 0 1-.503-.934 4.2 4.2 0 0 1-.344-1.644C4.815 6.231 6.4 4.387 8.621 4.053a4.7 4.7 0 0 1 1.647.046q.357.075.697.204a3 3 0 0 1 .77.378q.015.008.03.02l.026.017.028.018.004.003.044.029.166.116q.022.016.043.033l.015.01c.334.256.632.556.878.894.188.259.38.517.61.742.616.597 1.398 1.019 2.176 1.388.455.217.925.408 1.39.595l.01.004a1 1 0 0 1 .12.062l.04.026q.042.028.08.063a.6.6 0 0 1 .15.183q.003.01.005.017.02.044.028.092v.013l-.002-.002q.002.005.004.01.002.028-.002.055v.012a.3.3 0 0 1-.014.065l-.003.004a.4.4 0 0 1-.041.081l-.03.037a.4.4 0 0 1-.082.076.7.7 0 0 1-.118.071 1 1 0 0 1-.11.048q-.005 0-.008.003a4 4 0 0 1-.733.128h-.023c-.71.06-1.426.047-2.138.03-.36-.008-.721-.018-1.082-.02h-.065l-.305.001-.292.008a1 1 0 0 0-.14.026q-.027.005-.052.012-.035.01-.068.023a1 1 0 0 0-.12.057l-.01.004a1 1 0 0 0-.1.072h-.001a1 1 0 0 0-.083.077l-.01.012a1 1 0 0 0-.098.127q-.007.011-.012.022a1 1 0 0 0-.07.163c-.084.28.018.547.148.81.26.512 1.355 2.666 1.777 3.607.245.544.86 1.966.928 2.328q.055.236.084.48A8.8 8.8 0 0 0 10 1.2" clip-rule="evenodd"/></g><defs><clipPath id="a"><path fill="#fff" d="M0 0h20v20H0z"/></clipPath></defs></g></svg>