<svg xmlns="http://www.w3.org/2000/svg" fill="none" viewBox="0 0 22 22" shape-rendering="geometricPrecision"><rect width="22" height="22" rx="3" ry="3" fill="#F83D02"/><g transform="translate(11, 11) scale(0.7) translate(-11, -11)"><path fill="#131314" d="M8.286 18.292c.083.028.154.1.154.205v1.98c0 .103-.07.174-.153.204l-.085.014c-.111 0-.239-.08-.24-.219v-1.979c0-.141.13-.22.24-.22zM9.364 18.292c.083.028.155.1.155.205v1.98c-.001.103-.071.174-.153.204l-.086.014c-.111 0-.238-.08-.24-.219v-1.979c0-.141.13-.22.24-.22zM10.442 18.292c.083.028.155.1.155.205v1.98c0 .104-.072.175-.155.204l-.085.014c-.111 0-.237-.08-.238-.219v-1.979c0-.14.127-.22.239-.22zM11.52 18.292c.083.028.155.1.155.205v1.98c0 .104-.072.175-.155.204l-.084.014c-.112 0-.237-.08-.238-.219v-1.979c0-.14.126-.22.238-.22zM12.599 18.292c.083.028.155.1.155.205v1.98c0 .104-.072.175-.155.204l-.085.014c-.112 0-.237-.08-.238-.219v-1.979c0-.14.127-.22.238-.22zM13.677 18.292c.083.028.155.1.155.205v1.98c0 .104-.072.175-.155.204l-.084.014c-.111 0-.239-.08-.24-.219v-1.979c0-.141.13-.22.24-.22zM9.875 7.705a.29.29 0 0 1 0 .578.29.29 0 0 1 0-.578M10.835 7.705a.29.29 0 0 1 0 .578.289.289 0 0 1 0-.578M11.796 7.705a.289.289 0 0 1 0 .578.29.29 0 0 1 0-.578"/><path fill="#131314" fill-rule="evenodd" d="M10.89 0c3.71 0 6.727 3.026 6.727 6.744a6.7 6.7 0 0 1-.455 2.423 1.854 1.854 0 0 1-.13 3.145 5 5 0 0 1-1.485 5.625q.057.18.059.373v2.3c0 .766-.687 1.39-1.53 1.39h-6.49c-.843 0-1.53-.624-1.53-1.39v-2.3q0-.174.045-.34a5 5 0 0 1-1.521-5.662 1.854 1.854 0 0 1 .006-3.219 6.7 6.7 0 0 1-.422-2.345C4.164 3.026 7.182 0 10.89 0M7.081 17.789c-.188.126-.306.317-.306.521v2.3c0 .368.364.669.811.67h6.49c.447 0 .811-.302.811-.67v-2.3c0-.205-.12-.396-.31-.521zM5.58 15.856c.245.512.601.978 1.064 1.362q.04-.03.083-.058a6.7 6.7 0 0 1-.547-1.303zm9.909 0c-.139.459-.32.898-.55 1.307q.026.017.051.036c.452-.38.8-.84 1.042-1.343zm-8.555 0c.121.355.276.692.456 1.007h6.887q.274-.477.456-1.006h-1.914c-.542.523-1.242.84-2.006.84-.765 0-1.465-.317-2.007-.84zm3.066 0q.318.134.668.16l-.121-.16zm1.018.156q.316-.034.607-.155h-.487zm-5.163-4.173a4.06 4.06 0 0 0-.59 3.09h.701a7.307 7.307 0 0 1 .13-3.016 1.4 1.4 0 0 1-.24-.073m1.056-.142a6.5 6.5 0 0 0-.215 3.233h1.43a3.9 3.9 0 0 1-.422-1.775c0-.591.13-1.15.355-1.64H6.97zm1.905-.182a3.2 3.2 0 0 0-.44 1.64c0 .67.197 1.286.526 1.775h.938l-1.024-1.343-.049-.063 1.008-1.751.036-.06h2.062l.035.06 1.008 1.751-.049.063-1.023 1.343h.88a3.2 3.2 0 0 0 .526-1.775c0-.61-.164-1.175-.44-1.64zm4.751 0c.226.49.355 1.048.355 1.64a3.9 3.9 0 0 1-.423 1.775h1.472c.069-.383.108-.78.108-1.185 0-.707-.11-1.396-.325-2.048l-.06-.182zm2 .4a7.3 7.3 0 0 1 .133 3.015h.648a4.06 4.06 0 0 0-.58-3.075 1.4 1.4 0 0 1-.2.06m-4.493 2.807v.208h.076l.936-1.23-.224-.013zm-1.477-1.021.937 1.229h.077v-.208l-.791-1.035zm.61-.27.635.833.635-.833-.297-.515h-.674zm-.64-.192.223-.014.312-.542-.107-.186zm2.002-.576.324.562.22.014-.432-.752zm-1.064-.21h.65l.12-.188h-.88zm6.168-2.266h-.007q.002.03.003.058v.31c0 .255-.07.494-.191.7q.075.11.144.223a.93.93 0 0 0 .43-.777.92.92 0 0 0-.293-.673q-.043.08-.086.16m-11.7-.246a.93.93 0 0 0-.4.76c.001.324.169.606.42.772q.08-.132.17-.26a1.4 1.4 0 0 1-.167-.659v-.31q0-.116.02-.227zm1.358.43v.211a.2.2 0 0 0 .051.006h8.9a.2.2 0 0 0 .052-.006v-.211a.2.2 0 0 0-.052-.006h-8.9a.2.2 0 0 0-.051.006m2.533-2.305h-.736a.67.67 0 0 0-.667.669v.703h6.743v-.703a.67.67 0 0 0-.667-.67H12.8v-1.27H8.863zM10.89.926c-3.199 0-5.802 2.61-5.802 5.818 0 .84.181 1.638.502 2.36.225-.157.498-.249.791-.249h.36v-.12c0-.766.622-1.39 1.386-1.39h.018v-1.27h5.373v1.27h.018a1.39 1.39 0 0 1 1.385 1.39v.12h.36c.332 0 .637.118.876.315.34-.74.536-1.56.536-2.426 0-3.208-2.603-5.817-5.803-5.817" clip-rule="evenodd"/></g><rect x="0.3" y="0.3" width="21.4" height="21.4" rx="3" ry="3" fill="none" stroke="var(--cn-comp-avatar-shadow)" stroke-width="0.6"/></svg>