<svg xmlns="http://www.w3.org/2000/svg" fill="none" viewBox="0 0 20 20"><rect width="100%" height="100%" rx="2px" ry="2px" fill="#F83D02"/><g transform="translate(10, 10) scale(0.625) translate(-10, -10)"><path fill="#111112" d="M7.533 16.629c.075.026.14.09.14.187v1.799c0 .094-.064.16-.14.186l-.077.013c-.101 0-.217-.072-.218-.2v-1.798c0-.129.118-.2.218-.2zM8.513 16.629c.075.026.14.09.14.187v1.799c0 .094-.064.16-.139.186l-.077.013c-.102 0-.217-.072-.218-.2v-1.798c0-.129.117-.2.218-.2zM9.492 16.629c.076.026.142.09.142.187v1.799c-.001.095-.066.16-.142.186l-.076.013c-.102 0-.216-.073-.217-.2v-1.798c0-.128.116-.2.217-.2zM10.473 16.629c.075.026.141.09.141.187v1.799c0 .095-.066.16-.141.186l-.077.013c-.102 0-.215-.073-.216-.2v-1.798c0-.128.115-.2.216-.2zM11.453 16.629c.076.026.142.09.142.187v1.799c-.001.095-.066.16-.142.186l-.076.013c-.103 0-.216-.073-.217-.2v-1.798c0-.128.115-.2.217-.2zM12.434 16.629c.075.026.14.09.14.187v1.799c0 .095-.065.16-.14.186l-.077.013c-.1 0-.217-.072-.218-.2v-1.798c0-.129.118-.2.218-.2zM8.977 7.004a.263.263 0 0 1 0 .526.263.263 0 0 1 0-.526M9.85 7.004a.263.263 0 0 1 0 .526.263.263 0 0 1 0-.526M10.724 7.004a.263.263 0 0 1 0 .526.263.263 0 0 1 0-.526"/><path fill="#111112" fill-rule="evenodd" d="M9.9 0c3.372 0 6.115 2.75 6.115 6.131 0 .777-.149 1.519-.413 2.203a1.685 1.685 0 0 1-.118 2.86 4.545 4.545 0 0 1-1.35 5.113q.051.164.053.339v2.09c0 .697-.624 1.264-1.391 1.264h-5.9c-.766 0-1.39-.567-1.391-1.264v-2.09q0-.16.041-.31a4.55 4.55 0 0 1-1.383-5.147 1.686 1.686 0 0 1 .006-2.926 6.1 6.1 0 0 1-.384-2.132C3.785 2.751 6.53.001 9.9 0M6.438 16.172a.58.58 0 0 0-.279.474v2.09c0 .335.33.608.737.609h5.9c.407 0 .738-.274.738-.609v-2.09c0-.187-.11-.36-.281-.474zm-1.366-1.757c.223.465.547.889.967 1.238q.037-.028.076-.053a6 6 0 0 1-.497-1.185zm9.008 0a6 6 0 0 1-.5 1.188q.023.016.046.033c.411-.346.728-.764.948-1.221zm-7.777 0q.167.485.414.915h6.262q.249-.434.414-.915h-1.74c-.493.476-1.129.765-1.824.765s-1.332-.289-1.825-.765zm2.787 0q.29.121.607.145l-.11-.145zm.925.141a2 2 0 0 0 .552-.141h-.443zm-4.693-3.793a3.7 3.7 0 0 0-.536 2.81h.637a6.643 6.643 0 0 1 .119-2.741 1.3 1.3 0 0 1-.22-.069m.96-.13a5.94 5.94 0 0 0-.196 2.94h1.301a3.55 3.55 0 0 1-.384-1.614c0-.538.117-1.045.323-1.491h-.99zm1.732-.165a2.9 2.9 0 0 0-.4 1.491c0 .61.18 1.17.477 1.614h.853l-.93-1.22-.045-.058.917-1.592.032-.054h1.875l.031.054.917 1.592-.044.057-.931 1.22h.8a2.9 2.9 0 0 0 .479-1.613c0-.554-.15-1.068-.4-1.491zm4.319 0c.205.446.323.953.323 1.491 0 .588-.142 1.139-.385 1.614h1.338q.096-.525.098-1.077c0-.644-.1-1.27-.295-1.862l-.054-.166zm1.818.363a6.6 6.6 0 0 1 .121 2.742h.589c.197-.94.03-1.95-.528-2.796a1 1 0 0 1-.182.054m-4.085 2.553v.189h.07l.85-1.118-.203-.012zm-1.343-.929.852 1.118h.07v-.19l-.719-.94zm.555-.245.578.757.576-.757-.27-.469H9.55zm-.581-.174.202-.013.283-.493-.096-.169zm1.82-.524.294.51.2.014-.393-.684zm-.968-.191h.591l.109-.171h-.8zm5.607-2.06h-.006l.003.052v.282c0 .232-.065.45-.174.637q.07.1.131.203a.84.84 0 0 0 .39-.706.84.84 0 0 0-.265-.612q-.039.073-.079.144M4.52 9.037a.84.84 0 0 0 .018 1.393q.074-.121.154-.236a1.26 1.26 0 0 1-.152-.6v-.28q0-.106.019-.208zm1.235.391v.192a.2.2 0 0 0 .046.006h8.091a.2.2 0 0 0 .047-.006v-.192a.2.2 0 0 0-.047-.005h-8.09a.2.2 0 0 0-.047.005m2.302-2.096h-.669a.61.61 0 0 0-.606.609v.64h6.13v-.64a.61.61 0 0 0-.607-.609h-.67V6.178H8.058zM9.9.842c-2.908 0-5.275 2.373-5.275 5.289 0 .764.165 1.49.457 2.146.204-.143.452-.227.72-.227h.325v-.11c0-.696.566-1.263 1.261-1.263h.016V5.522h4.885v1.155h.016c.695 0 1.26.567 1.26 1.264v.11h.327c.302 0 .58.107.797.285.309-.672.486-1.418.486-2.205C15.175 3.215 12.81.842 9.9.842" clip-rule="evenodd"/></g></svg>