<svg xmlns="http://www.w3.org/2000/svg" fill="none" viewBox="0 0 20 20"><rect width="100%" height="100%" rx="2px" ry="2px" fill="#14CC80"/><g transform="translate(10, 10) scale(0.625) translate(-10, -10)"><g clip-path="url(#a)"><path fill="#fff" d="m19.678 6.786-6.39-3.214V10zM6.804 13.214V6.786L.323 3.572V10zM.153 3.298a.32.32 0 0 1 .314-.014l6.338 3.143 6.34-3.143a.32.32 0 0 1 .287 0l6.39 3.214a.32.32 0 0 1 .178.288v6.425a.32.32 0 0 1-.177.288l-6.39 3.217a.323.323 0 0 1-.469-.288V10.52l-6.016 2.983a.33.33 0 0 1-.286 0L.179 10.288A.32.32 0 0 1 0 10V3.572a.32.32 0 0 1 .153-.274"/></g><defs><clipPath id="a"><path fill="#fff" d="M0 0h20v20H0z"/></clipPath></defs></g></svg>