<svg xmlns="http://www.w3.org/2000/svg" fill="none" viewBox="0 0 18 18"><rect width="100%" height="100%" fill="#14CC80"/><g transform="translate(9, 9) scale(0.8) translate(-9, -9)"><g clip-path="url(#a)"><path fill="#fff" d="m17.71 6.107-5.751-2.892V9zM6.125 11.893V6.107L.29 3.215V9zM.137 2.968a.29.29 0 0 1 .283-.012l5.705 2.828 5.705-2.828a.29.29 0 0 1 .26 0l5.75 2.892a.29.29 0 0 1 .16.26v5.782a.29.29 0 0 1-.16.26l-5.75 2.894a.292.292 0 0 1-.422-.258V9.468l-5.414 2.685a.3.3 0 0 1-.258 0L.16 9.259A.29.29 0 0 1 0 9V3.215a.29.29 0 0 1 .137-.247"/></g><defs><clipPath id="a"><path fill="#fff" d="M0 0h18v18H0z"/></clipPath></defs></g></svg>