<svg xmlns="http://www.w3.org/2000/svg" fill="none" viewBox="0 0 20 20"><rect width="100%" height="100%" rx="2px" ry="2px" fill="#052882" stroke="var(--cn-comp-avatar-shadow)" stroke-width="0.6"/><g transform="translate(10, 10) scale(0.625) translate(-10, -10)"><path fill="#fff" fill-rule="evenodd" d="M14.57 6.729c-.312-.374-.622-.748-1.058-.997-.373-.25-.808-.499-1.243-.623a5.2 5.2 0 0 0-1.367-.187c-.622 0-1.306.124-1.866.436-.56.25-1.118.686-1.491 1.121-.435.437-.808 1.06-1.058 1.683-.248.685-.373 1.495-.373 2.243q0 .934.373 1.87c.25.56.56 1.058.995 1.494.436.437.933.81 1.492.997.995.436 2.176.499 3.233.187.435-.125.87-.312 1.243-.56.373-.25.746-.561.995-.873.31-.374.56-.748.746-1.183l3.543 3.55a10 10 0 0 1-3.419 3.053 8.7 8.7 0 0 1-2.114.81c-.746.188-1.554.25-2.3.25a9.5 9.5 0 0 1-3.73-.748c-2.3-.996-4.165-2.803-5.16-5.109a9.6 9.6 0 0 1-.745-3.738c0-1.371.248-2.742.746-4.05.497-1.246 1.181-2.305 2.051-3.302C4.933 2.118 5.99 1.37 7.11.81 8.29.25 9.533 0 10.84 0c.807 0 1.553.125 2.3.312 1.554.373 2.921 1.183 4.04 2.304.56.561 1.12 1.185 1.492 1.932L15.13 8.1c0-.561-.249-.997-.56-1.371" clip-rule="evenodd"/></g></svg>