<svg xmlns="http://www.w3.org/2000/svg" fill="none" viewBox="0 0 20 20"><rect width="100%" height="100%" rx="2px" ry="2px" fill="#FF0077" stroke="var(--cn-comp-avatar-shadow)" stroke-width="0.6"/><g transform="translate(10, 10) scale(0.625) translate(-10, -10)"><path fill="#fff" d="M1.476 10.285c0-4.628 3.835-8.422 8.543-8.422 2.278 0 4.404.873 5.999 2.466a8.26 8.26 0 0 1 2.506 5.956v.037l-1.443.835h-.038a4.1 4.1 0 0 0-2.468-.72h-.152a4.04 4.04 0 0 0-3.835 4.02c0 .607.152 1.252.456 1.82-.076.57-.683 1.518-.95 1.822l-.037.038-.038-.038c-.646-.797-1.063-1.67-1.253-2.58 0-.076-.038-.19-.038-.265v-.721c0-.683.114-1.328.304-1.935v-.038c.076-.265.19-.53.304-.758v-.038c.037-.076.075-.19.151-.304l.038-.076c.076-.113.114-.227.19-.303s.152-.19.266-.341l.038-.076c.418-.531.95-.948 1.519-1.29h.038a1.5 1.5 0 0 1 .341-.19c.266-.113.494-.227.76-.303h.038l.455-.152c.152-.038.266-.038.418-.076.076 0 .19-.038.266-.038h.038c.266 0 .493-.037.721-.037h.114c.608 0 1.215.075 1.785.265a6.23 6.23 0 0 0-1.785-3.186 6.6 6.6 0 0 0-4.708-1.935c-3.151 0-5.81 2.124-6.493 5.121.912-.303 1.899-.341 2.886-.152a6.2 6.2 0 0 1 2.772 1.29l.19.152-.152.19c-.076.113-.152.19-.228.303a17 17 0 0 0-.456.834l-.152.304-.265-.228a4.2 4.2 0 0 0-2.05-1.024 4.27 4.27 0 0 0-3.114.645h-.038l-1.443-.835z"/></g></svg>