<svg xmlns="http://www.w3.org/2000/svg" fill="none" viewBox="0 0 18 18"><rect width="100%" height="100%" rx="2px" ry="2px" fill="#FF0077"/><g transform="translate(9, 9) scale(0.5625) translate(-9, -9)"><path fill="#fff" d="M1.328 9.256c0-4.165 3.452-7.579 7.69-7.579 2.05 0 3.963.785 5.398 2.22a7.43 7.43 0 0 1 2.256 5.359v.034l-1.299.751h-.034a3.7 3.7 0 0 0-2.221-.648h-.137A3.634 3.634 0 0 0 9.53 13.01c0 .547.136 1.127.41 1.64-.069.511-.615 1.365-.855 1.638l-.034.034-.034-.034a5.44 5.44 0 0 1-1.128-2.322c0-.068-.034-.17-.034-.239v-.648c0-.615.103-1.195.274-1.742v-.034c.068-.239.17-.478.273-.682v-.034c.034-.069.068-.171.137-.274l.034-.068c.068-.102.102-.205.17-.273s.137-.17.24-.307l.034-.069c.376-.478.854-.853 1.367-1.16h.034c.103-.069.205-.137.308-.171.239-.102.444-.205.683-.273h.034l.41-.137c.137-.034.24-.034.376-.068.069 0 .171-.034.24-.034h.034c.239 0 .444-.034.649-.034h.102c.547 0 1.094.068 1.607.239a5.6 5.6 0 0 0-1.607-2.868A5.95 5.95 0 0 0 9.017 3.35c-2.836 0-5.228 1.912-5.843 4.609.82-.273 1.708-.308 2.597-.137.922.17 1.777.58 2.494 1.16l.171.137-.137.171c-.068.103-.136.17-.205.273-.136.24-.273.478-.41.751l-.136.274-.24-.205a3.8 3.8 0 0 0-1.845-.922 3.84 3.84 0 0 0-2.802.58h-.034l-1.299-.75z"/></g></svg>