<svg xmlns="http://www.w3.org/2000/svg" fill="none" viewBox="0 0 22 22" shape-rendering="geometricPrecision"><rect width="22" height="22" rx="3" ry="3" fill="#0052CC"/><g transform="translate(11, 11) scale(0.7) translate(-11, -11)"><path fill="#fff" d="M1.304 16.45c-.216.334-.461.763-.664 1.085a.666.666 0 0 0 .222.907l4.325 2.66a.667.667 0 0 0 .922-.227c.173-.289.395-.664.638-1.063 1.714-2.829 3.437-2.486 6.541-.998l4.318 2.035a.667.667 0 0 0 .896-.332l2.06-4.658a.665.665 0 0 0-.333-.87 523 523 0 0 1-4.326-2.058c-5.851-2.828-10.806-2.641-14.599 3.52m19.393-10.9c.217-.354.463-.763.666-1.09a.666.666 0 0 0-.223-.9L16.815.897a.665.665 0 0 0-.921.226c-.17.292-.393.665-.64 1.068-1.712 2.827-3.436 2.482-6.54.998L4.412 1.15a.665.665 0 0 0-.895.333l-2.06 4.658a.666.666 0 0 0 .333.87c.906.428 2.705 1.279 4.326 2.058 5.835 2.827 10.795 2.638 14.581-3.52"/></g><rect x="0.3" y="0.3" width="21.4" height="21.4" rx="3" ry="3" fill="none" stroke="var(--cn-comp-avatar-shadow)" stroke-width="0.6"/></svg>