<svg xmlns="http://www.w3.org/2000/svg" fill="none" viewBox="0 0 20 20"><rect width="100%" height="100%" rx="2px" ry="2px" fill="#0052CC"/><g transform="translate(10, 10) scale(0.625) translate(-10, -10)"><g clip-path="url(#a)"><path fill="#fff" d="M1.186 14.955c-.197.303-.42.693-.605.986a.605.605 0 0 0 .202.824l3.933 2.419a.605.605 0 0 0 .837-.206c.158-.263.36-.605.58-.967 1.559-2.572 3.125-2.26 5.947-.908l3.926 1.851a.605.605 0 0 0 .814-.303l1.872-4.233a.605.605 0 0 0-.302-.792 473 473 0 0 1-3.933-1.87c-5.32-2.572-9.823-2.401-13.271 3.2m17.63-9.91c.197-.321.42-.693.605-.99a.605.605 0 0 0-.203-.82L15.287.817a.605.605 0 0 0-.838.206c-.155.266-.357.605-.582.97-1.557 2.571-3.124 2.258-5.946.908l-3.91-1.854a.605.605 0 0 0-.814.303L1.325 5.582a.605.605 0 0 0 .303.792c.822.388 2.459 1.162 3.932 1.87 5.304 2.57 9.814 2.4 13.256-3.2"/></g><defs><clipPath id="a"><path fill="#fff" d="M0 0h20v20H0z"/></clipPath></defs></g></svg>