<svg xmlns="http://www.w3.org/2000/svg" fill="none" viewBox="0 0 22 22"><rect width="100%" height="100%" rx="2px" ry="2px" fill="#F6F6F7"/><g transform="translate(11, 11) scale(0.625) translate(-11, -11)"><path fill="#131314" d="M8.67 9.895a.7.7 0 0 1 .99.988l-1.34 1.34 1.457 1.456 1.34-1.339a.7.7 0 0 1 .989.989l-1.34 1.338 1.31 1.31a.7.7 0 0 1 0 .99l-1.224 1.222a4.98 4.98 0 0 1-6.512.457l-2.015 2.017a.7.7 0 0 1-.989-.988l2.016-2.018a4.98 4.98 0 0 1 .448-6.496l1.192-1.254a.7.7 0 0 1 1-.012l1.339 1.338zM19.675 1.337a.7.7 0 0 1 .989.989l-2.017 2.017a4.976 4.976 0 0 1-.448 6.496l.001.002-1.192 1.253a.7.7 0 0 1-1 .012L9.924 6.024a.7.7 0 0 1 0-.99l1.224-1.222a4.98 4.98 0 0 1 6.51-.458z"/></g></svg>