<svg xmlns="http://www.w3.org/2000/svg" fill="none" viewBox="0 0 20 20"><rect width="100%" height="100%" rx="2px" ry="2px" fill="#FAFAFB"/><g transform="translate(10, 10) scale(0.625) translate(-10, -10)"><path fill="#131316" d="M7.882 8.995a.636.636 0 0 1 .899.899l-1.217 1.218 1.324 1.323 1.218-1.216a.636.636 0 0 1 .9.898l-1.219 1.217 1.19 1.19a.636.636 0 0 1 0 .9l-1.111 1.111a4.53 4.53 0 0 1-5.92.416l-1.832 1.834a.637.637 0 0 1-.9-.899l1.833-1.834a4.526 4.526 0 0 1 .407-5.906l1.084-1.14a.637.637 0 0 1 .91-.01l1.216 1.216zM17.886 1.215a.637.637 0 0 1 .9.9l-1.834 1.833a4.524 4.524 0 0 1-.407 5.906v.001l-1.083 1.14a.637.637 0 0 1-.91.01l-5.53-5.528a.637.637 0 0 1 0-.9l1.112-1.111a4.53 4.53 0 0 1 5.918-.417z"/></g></svg>