<svg xmlns="http://www.w3.org/2000/svg" fill="none" viewBox="0 0 22 22"><rect width="100%" height="100%" rx="2px" ry="2px" fill="#F6F6F7"/><g transform="translate(11, 11) scale(0.625) translate(-11, -11)"><path fill="#131314" fill-rule="evenodd" d="M5.625 14.029a.266.266 0 0 1 .262.217l.15.804a2.6 2.6 0 0 1 .845.483l.765-.269.047-.012a.27.27 0 0 1 .273.13l.436.755a.27.27 0 0 1-.057.336l-.62.533q.049.238.051.482v.006q-.003.244-.051.481l.619.53a.266.266 0 0 1 .058.335l-.436.756a.266.266 0 0 1-.319.118l-.766-.27a2.6 2.6 0 0 1-.845.484l-.15.807a.27.27 0 0 1-.262.218h-.87a.27.27 0 0 1-.263-.218l-.15-.803a2.6 2.6 0 0 1-.845-.485l-.767.27a.266.266 0 0 1-.318-.118l-.436-.755a.27.27 0 0 1 .057-.335l.62-.534a2.6 2.6 0 0 1-.052-.48v-.007q.003-.244.052-.482l-.62-.533a.27.27 0 0 1-.057-.336l.436-.755.027-.038a.27.27 0 0 1 .292-.08l.767.273q.238-.205.52-.346l.02-.01a3 3 0 0 1 .302-.129l.152-.806a.27.27 0 0 1 .261-.217zm-.436 2.237a1.225 1.225 0 1 0 0 2.45 1.225 1.225 0 0 0 0-2.45" clip-rule="evenodd"/><path fill="#131314" d="m11.845 1.073 7.832 2.5a.55.55 0 0 1 .383.525v8.124c0 .416-.041.816-.113 1.199l-4.317-2.492a4.151 4.151 0 1 0-.551.954l4.558 2.631c-.724 1.908-2.268 3.34-3.735 4.335a17.7 17.7 0 0 1-3.958 1.989l-.09.03a.6.6 0 0 1-.343.003l-.1-.033a17.067 17.067 0 0 1-1.178-.466c-.386-.17-.838-.385-1.324-.646l.257-.444v-.002a1.15 1.15 0 0 0-.248-1.444l-.266-.229q.004-.051.007-.102l-.001-.028-.001-.045-.001-.008q-.001-.027-.004-.054l.267-.229.001-.001c.417-.359.522-.963.247-1.442l-.001-.001-.435-.756a1.15 1.15 0 0 0-1.18-.56l-.075.017-.046.012-.075.022-.335.118a4 4 0 0 0-.201-.115l-.066-.351-.024-.101a1.15 1.15 0 0 0-1.105-.835h-.87c-.518 0-.968.345-1.106.836l-.022.1-.02.107a6.4 6.4 0 0 1-.31-1.969V4.098c0-.24.156-.452.383-.525l7.832-2.5.083-.02a.55.55 0 0 1 .251.02"/><path fill="#131314" d="M11.004 6.405a3.05 3.05 0 0 1 3.734 2.156 3.04 3.04 0 0 1-.286 2.275q-.013.017-.024.035l-.02.038a3.04 3.04 0 0 1-1.825 1.386 3.05 3.05 0 0 1-1.58-5.89"/></g></svg>