<svg xmlns="http://www.w3.org/2000/svg" fill="none" viewBox="0 0 20 20"><rect width="100%" height="100%" rx="2px" ry="2px" fill="#F6F6F7"/><g transform="translate(10, 10) scale(0.625) translate(-10, -10)"><path fill="#111112" d="M5.898 8.41a1.637 1.637 0 1 1 0 3.275 1.637 1.637 0 0 1 0-3.275"/><path fill="#111112" fill-rule="evenodd" d="M10 .59a9.41 9.41 0 1 1 0 18.82A9.41 9.41 0 0 1 10 .59m-4.102 6.6a2.858 2.858 0 1 0 2.79 3.468h8.277V8.362a.61.61 0 1 0-1.22 0v1.076h-1.027V8.362a.61.61 0 0 0-1.22 0v1.076h-4.81a2.86 2.86 0 0 0-2.79-2.248" clip-rule="evenodd"/></g></svg>