<svg xmlns="http://www.w3.org/2000/svg" fill="none" viewBox="0 0 20 20"><rect width="100%" height="100%" rx="2px" ry="2px" fill="#FAFAFB"/><g transform="translate(10, 10) scale(0.625) translate(-10, -10)"><path fill="#131316" d="M18.19 10A8.19 8.19 0 0 0 3.895 4.54a.61.61 0 1 1-.909-.814 9.41 9.41 0 1 1 0 12.547.61.61 0 0 1 .91-.813A8.19 8.19 0 0 0 18.19 10M3.448 7.19c1.368 0 2.51.963 2.79 2.247h4.809V8.362a.61.61 0 0 1 1.22 0v1.075h1.028V8.362a.61.61 0 0 1 1.22 0v2.296H6.237a2.857 2.857 0 1 1-2.79-3.468M1.81 10.048a1.638 1.638 0 1 0 3.276 0 1.638 1.638 0 0 0-3.276 0"/></g></svg>