<svg xmlns="http://www.w3.org/2000/svg" fill="none" viewBox="0 0 20 20"><rect width="100%" height="100%" rx="2px" ry="2px" fill="#F6F6F7"/><g transform="translate(10, 10) scale(0.625) translate(-10, -10)"><path fill="#111112" fill-rule="evenodd" d="M5.114 12.74c.117 0 .217.083.238.197l.137.727a2.4 2.4 0 0 1 .768.438l.695-.244.043-.01a.24.24 0 0 1 .248.116l.396.684c.058.1.036.228-.052.304l-.563.482q.045.216.047.436v.006a2.3 2.3 0 0 1-.047.435l.562.48a.24.24 0 0 1 .053.303l-.396.683a.24.24 0 0 1-.29.107l-.696-.244a2.4 2.4 0 0 1-.768.438l-.137.73a.24.24 0 0 1-.238.197h-.79a.24.24 0 0 1-.24-.197l-.137-.727a2.4 2.4 0 0 1-.767-.438l-.697.244a.24.24 0 0 1-.29-.107l-.396-.683a.24.24 0 0 1 .052-.303l.564-.483a2.3 2.3 0 0 1-.047-.435v-.006q.002-.221.047-.436l-.564-.482a.24.24 0 0 1-.052-.304l.397-.684.024-.034a.24.24 0 0 1 .266-.072l.697.246q.217-.184.472-.312l.019-.01a2 2 0 0 1 .274-.116l.138-.729a.24.24 0 0 1 .238-.197zm-.396 2.025a1.11 1.11 0 0 0-1.113 1.108 1.11 1.11 0 0 0 1.113 1.108 1.113 1.113 0 0 0 1.113-1.108 1.105 1.105 0 0 0-.68-1.02 1.1 1.1 0 0 0-.433-.088" clip-rule="evenodd"/><path fill="#111112" d="m10.768 1.018 7.119 2.262a.5.5 0 0 1 .348.475v7.35c0 2.798-1.956 4.766-3.779 5.997a16 16 0 0 1-3.598 1.799l-.082.027a.53.53 0 0 1-.312.003l-.09-.03-.238-.085a17.024 17.024 0 0 1-2.038-.921l.235-.402v-.001c.25-.433.155-.982-.225-1.307l-.242-.207c.001-.03.006-.062.006-.093l-.001-.025-.001-.04-.001-.008-.003-.048.243-.208c.38-.325.475-.872.225-1.305l-.001-.001-.396-.684a1.05 1.05 0 0 0-1.072-.506l-.068.014-.042.011-.069.02-.304.107a3 3 0 0 0-.183-.104l-.06-.318-.021-.091a1.044 1.044 0 0 0-1.005-.756h-.79c-.471 0-.88.312-1.006.757l-.02.09-.019.097a5.8 5.8 0 0 1-.28-1.781V9.549H13.1l-2.38 2.37a.497.497 0 0 0 0 .705.503.503 0 0 0 .708 0l3.236-3.221a.5.5 0 0 0 0-.705l-3.236-3.222a.503.503 0 0 0-.709 0 .497.497 0 0 0 0 .705L13.1 8.55H2.998V3.756a.5.5 0 0 1 .348-.475l7.118-2.262.075-.017a.5.5 0 0 1 .23.017"/></g></svg>