<svg xmlns="http://www.w3.org/2000/svg" fill="none" viewBox="0 0 22 22"><rect width="100%" height="100%" rx="2px" ry="2px" fill="#F6F6F7"/><g transform="translate(11, 11) scale(0.625) translate(-11, -11)"><path fill="#131314" fill-rule="evenodd" d="M5.626 14.014c.128 0 .238.092.261.217l.151.8a2.6 2.6 0 0 1 .845.48l.765-.267.046-.012a.27.27 0 0 1 .273.129l.436.752c.064.11.04.25-.057.334l-.62.53q.05.238.052.48v.006q-.003.242-.052.479l.619.528a.264.264 0 0 1 .058.333l-.436.752a.266.266 0 0 1-.318.118l-.766-.27a2.6 2.6 0 0 1-.845.483l-.15.803a.27.27 0 0 1-.262.216h-.87a.27.27 0 0 1-.263-.216l-.15-.8a2.6 2.6 0 0 1-.846-.482l-.766.269a.27.27 0 0 1-.318-.118l-.436-.752a.265.265 0 0 1 .057-.333l.62-.531a2.5 2.5 0 0 1-.052-.479v-.006q.003-.243.052-.48l-.62-.53a.266.266 0 0 1-.057-.334l.436-.752.027-.038a.27.27 0 0 1 .292-.079l.767.271a2.6 2.6 0 0 1 .52-.344l.02-.01a3 3 0 0 1 .302-.128l.152-.802a.27.27 0 0 1 .261-.217zm-.436 2.227q-.111 0-.218.02a1.22 1.22 0 0 0-1.006 1.199 1.224 1.224 0 0 0 2.449 0 1.22 1.22 0 0 0-.748-1.122 1.2 1.2 0 0 0-.477-.097" clip-rule="evenodd"/><path fill="#131314" d="m11.845 1.12 7.83 2.488a.55.55 0 0 1 .383.523v8.085c0 3.077-2.151 5.242-4.156 6.596a17.7 17.7 0 0 1-3.958 1.979l-.09.03a.6.6 0 0 1-.343.003l-.1-.033c-.06-.021-.15-.052-.26-.093a18.719 18.719 0 0 1-2.241-1.013l.256-.443h.001a1.14 1.14 0 0 0-.249-1.438l-.265-.228c.001-.034.006-.068.006-.102v-.028l-.002-.045-.001-.007-.003-.054.267-.228v-.001c.417-.357.522-.96.247-1.435l-.001-.001-.435-.752a1.15 1.15 0 0 0-1.18-.557l-.074.016-.047.012-.075.022-.335.117a4 4 0 0 0-.2-.115l-.066-.349-.024-.1a1.15 1.15 0 0 0-1.105-.832h-.87c-.518 0-.968.344-1.106.832l-.022.1-.02.107a6.4 6.4 0 0 1-.31-1.96v-1.712h11.114l-2.62 2.607a.547.547 0 0 0 0 .775.553.553 0 0 0 .78 0l3.559-3.543a.55.55 0 0 0 0-.775l-3.56-3.545a.553.553 0 0 0-.779 0 .547.547 0 0 0 0 .776l2.62 2.608H3.297V4.13a.55.55 0 0 1 .383-.523l7.83-2.488.084-.019a.56.56 0 0 1 .251.02"/></g></svg>