<svg xmlns="http://www.w3.org/2000/svg" fill="none" viewBox="0 0 22 22" shape-rendering="geometricPrecision"><rect width="22" height="22" rx="3" ry="3" fill="#F6F6F7"/><g transform="translate(11, 11) scale(0.7) translate(-11, -11)"><path fill="#0F1013" d="M5.518 11.006c0-2.004 2.453-3.21 4.16-1.896l2.98 2.296a.61.61 0 0 0 .744-.965l-1.365-1.052.355-.282a2.52 2.52 0 0 1 1.473-.542c1.36-.048 2.618.979 2.618 2.435 0 2.011-2.421 3.194-4.09 1.893l-1.027-.8-1.32-1.026c.002-.022.008-.044.008-.067a1.079 1.079 0 0 0-2.134-.217L7.899 11l.02.217c.101.491.536.861 1.057.861.11 0 .216-.022.316-.053l.823.64c-.327.305-.715.5-1.105.62-.527.16-1.023.17-1.291.136-1.206-.168-2.201-1.124-2.201-2.415"/><path fill="#0F1013" fill-rule="evenodd" d="M11 1.1c5.468 0 9.9 4.432 9.9 9.9s-4.432 9.9-9.9 9.9-9.9-4.432-9.9-9.9S5.532 1.1 11 1.1m2.822 6.247a3.74 3.74 0 0 0-2.178.799l-.006.004-.595.473-.622-.479c-2.437-1.876-6.123-.241-6.123 2.862 0 1.999 1.551 3.39 3.265 3.625h.009c.429.052 1.097.03 1.793-.182a4 4 0 0 0 1.717-1.032l.562.437c2.42 1.885 6.058.234 6.058-2.854 0-2.242-1.93-3.722-3.88-3.653" clip-rule="evenodd"/></g><rect x="0.3" y="0.3" width="21.4" height="21.4" rx="3" ry="3" fill="none" stroke="var(--cn-comp-avatar-shadow)" stroke-width="0.6"/></svg>