<svg xmlns="http://www.w3.org/2000/svg" fill="none" viewBox="0 0 20 20"><rect width="100%" height="100%" rx="2px" ry="2px" fill="#F6F6F7"/><g transform="translate(10, 10) scale(0.625) translate(-10, -10)"><path fill="#000" d="M5.016 10.005c0-1.822 2.23-2.918 3.782-1.724l2.71 2.088a.555.555 0 0 0 .676-.877l-1.241-.956.323-.257a2.3 2.3 0 0 1 1.338-.492c1.238-.044 2.38.89 2.38 2.213 0 1.828-2.2 2.903-3.718 1.721l-.933-.727-1.2-.933c.002-.02.007-.04.007-.061a.98.98 0 0 0-1.94-.197L7.18 10l.02.197a.98.98 0 0 0 .96.783c.1 0 .196-.02.288-.048l.747.582a2.56 2.56 0 0 1-1.004.563 3 3 0 0 1-1.174.124c-1.096-.153-2-1.022-2.001-2.196"/><path fill="#000" fill-rule="evenodd" d="M10 1a9 9 0 1 1 0 18 9 9 0 0 1 0-18m2.565 5.68a3.4 3.4 0 0 0-1.98.725l-.005.004-.54.43-.566-.435c-2.216-1.706-5.567-.22-5.567 2.601 0 1.817 1.41 3.083 2.968 3.296h.008c.39.047.998.028 1.631-.165.527-.16 1.09-.451 1.56-.939l.511.398c2.2 1.713 5.508.212 5.508-2.595 0-2.038-1.755-3.383-3.528-3.32" clip-rule="evenodd"/></g></svg>