<svg xmlns="http://www.w3.org/2000/svg" fill="none" viewBox="0 0 20 20"><rect width="100%" height="100%" rx="2px" ry="2px" fill="#F6F6F7"/><g transform="translate(10, 10) scale(0.625) translate(-10, -10)"><path fill="#111112" fill-rule="evenodd" d="M5.114 12.754a.24.24 0 0 1 .238.197l.136.73a2.4 2.4 0 0 1 .768.44l.696-.244.042-.011a.24.24 0 0 1 .249.117l.396.687a.24.24 0 0 1-.052.305l-.564.485q.045.216.047.438v.006a2.3 2.3 0 0 1-.047.437l.563.482c.088.076.11.204.053.305l-.396.686a.24.24 0 0 1-.29.108l-.697-.246a2.4 2.4 0 0 1-.768.44l-.136.734a.24.24 0 0 1-.238.198h-.792a.24.24 0 0 1-.238-.198l-.137-.73a2.4 2.4 0 0 1-.768-.44l-.697.245a.24.24 0 0 1-.29-.108l-.396-.686a.24.24 0 0 1 .052-.305l.564-.485a2.3 2.3 0 0 1-.047-.437v-.006q.002-.221.047-.438l-.564-.485a.24.24 0 0 1-.052-.305l.397-.687.024-.034a.24.24 0 0 1 .266-.072l.697.247q.217-.186.472-.314l.019-.01a2 2 0 0 1 .275-.116l.138-.733a.24.24 0 0 1 .237-.197zm-.396 2.033a1.115 1.115 0 0 0-1.114 1.114 1.113 1.113 0 1 0 1.114-1.114" clip-rule="evenodd"/><path fill="#111112" d="m10.769.975 7.119 2.273c.207.066.348.26.348.478v7.385q-.002.567-.103 1.09L14.21 9.935a3.774 3.774 0 1 0-.5.868l4.143 2.392c-.659 1.734-2.062 3.036-3.395 3.94a16 16 0 0 1-3.599 1.808l-.082.028a.53.53 0 0 1-.312.003l-.09-.03q-.084-.03-.238-.086a16.948 16.948 0 0 1-2.038-.925l.234-.404.001-.001c.25-.435.155-.987-.226-1.313l-.241-.209q.003-.045.006-.092l-.001-.026-.001-.041-.001-.007-.003-.049.242-.208.001-.001c.379-.326.475-.876.224-1.311v-.001l-.396-.687a1.05 1.05 0 0 0-1.072-.509l-.068.015-.043.01-.068.021-.304.107a3 3 0 0 0-.183-.105l-.06-.319-.021-.092a1.045 1.045 0 0 0-1.005-.759H4.32c-.47 0-.879.314-1.004.76l-.02.091-.02.098a5.8 5.8 0 0 1-.28-1.79V3.726c0-.218.14-.411.348-.478l7.12-2.273.075-.017a.5.5 0 0 1 .229.017"/><path fill="#111112" d="M10.004 5.823a2.77 2.77 0 0 1 3.394 1.96 2.76 2.76 0 0 1-.26 2.068q-.011.014-.021.032l-.018.034a2.76 2.76 0 0 1-1.66 1.26 2.773 2.773 0 0 1-1.435-5.354"/></g></svg>