<svg xmlns="http://www.w3.org/2000/svg" fill="none" viewBox="0 0 20 20"><rect width="100%" height="100%" rx="2px" ry="2px" fill="#5C2D90"/><g transform="translate(10, 10) scale(0.625) translate(-10, -10)"><path fill="#fff" d="m17.144 10.479.438 5.586-7.749 1.39-.667-5.586 1.107-.155c.18.078.309.103.515.155.335.077.72.18 1.287-.129.129-.077.412-.309.515-.463zM5.173 17.12c-.13-.206-.36-.438-.721-.72-.515-.413-.335-1.134-.026-1.571.389-.747 2.42-1.725 2.317-2.935-.051-.438-.103-1.004-.515-1.416-.026.154 0 .309 0 .309s-.18-.206-.257-.515c-.078-.103-.155-.155-.232-.31-.052.18-.052.361-.052.361s-.128-.334-.154-.592c-.077.129-.103.36-.103.36s-.18-.514-.129-.797c-.077-.232-.334-.72-.257-1.802.438.309 1.416.232 1.802-.335.129-.18.206-.695-.051-1.699-.18-.644-.618-1.596-.798-1.957l-.026.026c.103.284.284.901.36 1.21.206.901.284 1.21.18 1.622-.077.36-.283.592-.823.85-.515.257-1.236-.39-1.262-.412-.515-.412-.9-1.084-.952-1.39-.052-.36.205-.567.334-.85-.18.052-.389.155-.389.155s.232-.258.54-.464q.177-.102.335-.231h-.33s.308-.18.643-.284h-.463l1.235-.54c.39-.155.747-.103.953.18.283.389.566.592 1.158.746.36-.154.49-.257.953-.389.412-.463.746-.515.746-.515s-.232.206-.257.438c.232-.18.49-.335.49-.335s-.104.129-.181.31l.026.025c.283-.154.592-.283.592-.283s-.103.102-.206.257c.206 0 .618 0 .773.026.952.026 1.158-1.004 1.519-1.159.463-.154.669-.257 1.441.515.67.67 1.184 1.828.927 2.086-.205.205-.644-.077-1.133-.67q-.385-.463-.54-1.158c-.052-.389-.335-.618-.335-.618s.18.39.18.721c0 .18.026.85.31 1.236-.027.051-.052.283-.078.309-.335-.412-1.084-.695-1.184-.798.412.335 1.339 1.084 1.7 1.802.334.695.128 1.313.308 1.468.052.051.721.875.85 1.313a2.42 2.42 0 0 1-.283 1.982l-.824.129a1.1 1.1 0 0 1-.31-.103c.052-.103.18-.36.18-.412l-.05-.078c-.258.36-.695.721-1.056.927a1.7 1.7 0 0 1-1.362.103c-1.004-.309-1.957-.978-2.162-1.158 0 0 0 .128.025.18a7.8 7.8 0 0 0 1.39 1.158l-1.183.129.566 4.377c-.257.025-.283.05-.566.102-.232-.85-.695-1.39-1.21-1.724-.438-.284-1.056-.361-1.648-.232l-.026.051c.412-.051.901.026 1.39.335.49.309.876 1.107 1.03 1.57.18.618.31 1.262-.18 1.957-.36.489-1.39.772-2.214.18.232.36.515.643.927.695.592.077 1.158-.026 1.57-.412.335-.335.515-1.056.464-1.828l.54-.078.18 1.362 8.775-1.047-.772-7.002-.438.077-.875-8.834-14.623 1.7 1.802 14.571z"/><path fill="#fff" d="M12.13 9.462c.39.284.721.463 1.056.438.205-.026.412-.36.54-.67.103-.205.103-.437-.051-.514-.077-.026-.39-.026-.618 0-.438.051-.876.205-.978.283-.155.103-.078.36.051.463m.103-3.012v.025l.026.052c.103.206.205.412.412.515.051 0 .103-.026.154-.026.18 0 .284.026.36.051v-.154c-.025-.257.052-.721-.463-.978-.205-.103-.463-.052-.566.051h.051c.129.051.052.103.026.155-.026.102-.052.128 0 .309M9.916 6.501c.128-.103-.592-.257-1.159.103-.412.284-.412.876-.025 1.21q.058.03.102.078c.103-.052.258-.103.39-.155.257-.077.463-.129.643-.155a.71.71 0 0 0 .155-.54c-.026-.39-.335-.31-.103-.54zm4.2 6.254-1.237 2.056-1.441-.437-1.262 1.93.051.618 6.9-1.261-.412-4.3-1.133 2.368z"/></g></svg>