<svg xmlns="http://www.w3.org/2000/svg" fill="none" viewBox="0 0 22 22" shape-rendering="geometricPrecision"><rect width="22" height="22" rx="3" ry="3" fill="#5C2D90"/><g transform="translate(11, 11) scale(0.7) translate(-11, -11)"><path fill="#fff" d="m18.858 11.526.482 6.145-8.524 1.53-.734-6.145 1.218-.17c.198.085.34.113.567.17.368.085.793.198 1.415-.142.142-.085.453-.34.567-.51zM5.69 18.833c-.142-.226-.397-.481-.793-.793-.567-.453-.368-1.246-.029-1.727.428-.821 2.662-1.898 2.55-3.229-.057-.481-.114-1.104-.567-1.557-.029.17 0 .34 0 .34s-.198-.227-.283-.567c-.085-.113-.17-.17-.255-.34-.057.198-.057.397-.057.397s-.141-.368-.17-.652c-.085.142-.113.397-.113.397s-.198-.566-.142-.877c-.085-.255-.368-.794-.283-1.983.482.34 1.558.255 1.983-.368.141-.198.226-.764-.057-1.87-.198-.707-.68-1.755-.877-2.151l-.029.028c.113.312.312.991.397 1.331.226.991.312 1.331.198 1.784-.085.397-.312.652-.906.935-.567.283-1.36-.428-1.388-.453-.567-.453-.991-1.192-1.048-1.53-.057-.396.226-.622.368-.934-.198.057-.428.17-.428.17s.255-.283.595-.51q.194-.112.368-.255h-.365s.34-.198.708-.311h-.509l1.36-.595c.427-.17.82-.113 1.047.198.312.428.623.651 1.274.821.397-.17.538-.283 1.048-.428.453-.51.821-.566.821-.566s-.255.226-.283.481c.255-.198.538-.368.538-.368s-.113.142-.198.34l.029.029a8 8 0 0 1 .65-.312s-.112.113-.226.283c.227 0 .68 0 .85.028 1.048.029 1.275-1.104 1.671-1.274.51-.17.736-.283 1.586.567.736.736 1.302 2.01 1.02 2.293-.227.227-.708-.085-1.247-.736q-.425-.51-.594-1.274c-.057-.428-.368-.68-.368-.68s.198.428.198.793c0 .198.028.935.34 1.36-.029.056-.057.311-.085.34-.368-.454-1.193-.765-1.303-.878.454.368 1.473 1.192 1.87 1.982.368.765.141 1.445.34 1.615.056.056.793.963.934 1.444.255.821.029 1.67-.312 2.18l-.906.142a1.2 1.2 0 0 1-.34-.114c.057-.113.198-.396.198-.453l-.056-.085c-.283.397-.765.793-1.161 1.02-.51.283-1.105.255-1.498.113-1.105-.34-2.153-1.076-2.379-1.274 0 0 0 .141.028.198.459.483.972.91 1.53 1.274l-1.303.142.623 4.814c-.283.028-.311.056-.623.113-.255-.934-.764-1.53-1.33-1.897-.482-.312-1.162-.397-1.813-.255l-.029.056c.453-.056.992.029 1.53.368.538.34.963 1.218 1.132 1.728.198.68.34 1.388-.198 2.152-.396.538-1.529.85-2.435.198.255.397.566.708 1.02.765.65.084 1.274-.029 1.727-.454.368-.368.566-1.16.51-2.01l.594-.085.198 1.498 9.653-1.152-.85-7.703-.482.085-.962-9.717L1.81 3.088l1.983 16.028z"/><path fill="#fff" d="M13.343 10.408c.428.312.793.51 1.161.482.226-.029.453-.397.595-.736.113-.227.113-.482-.057-.567-.085-.028-.428-.028-.68 0-.48.057-.962.226-1.075.312-.17.113-.086.396.056.51m.113-3.313v.028l.029.057c.113.226.226.453.453.566.056 0 .113-.028.17-.028.198 0 .311.028.396.056v-.17c-.028-.283.057-.793-.51-1.076-.226-.113-.51-.057-.623.057h.057c.142.056.057.113.028.17-.028.113-.056.141 0 .34M10.907 7.151c.142-.113-.65-.283-1.274.114-.453.311-.453.963-.028 1.33q.063.033.113.086c.113-.057.283-.113.428-.17.283-.085.51-.142.708-.17a.78.78 0 0 0 .17-.595c-.029-.428-.368-.34-.113-.595zm4.62 6.88-1.36 2.262-1.585-.482-1.389 2.124.057.68 7.59-1.388-.453-4.73-1.247 2.605z"/></g><rect x="0.3" y="0.3" width="21.4" height="21.4" rx="3" ry="3" fill="none" stroke="var(--cn-comp-avatar-shadow)" stroke-width="0.6"/></svg>