<svg xmlns="http://www.w3.org/2000/svg" fill="none" viewBox="0 0 18 18"><rect width="100%" height="100%" fill="#5C2D90"/><g transform="translate(9, 9) scale(0.8) translate(-9, -9)"><path fill="#fff" d="m15.43 9.43.393 5.028L8.85 15.71l-.6-5.028.996-.139c.162.07.278.093.463.14.301.069.649.161 1.158-.117.116-.07.371-.278.464-.417zM4.655 15.41c-.115-.185-.324-.394-.649-.649-.463-.37-.3-1.02-.023-1.413.35-.672 2.178-1.553 2.086-2.642-.047-.394-.093-.903-.464-1.274a1 1 0 0 0 0 .278s-.162-.185-.232-.463c-.069-.093-.139-.14-.208-.279-.046.162-.046.325-.046.325s-.116-.301-.14-.533c-.069.116-.092.324-.092.324s-.162-.463-.116-.717c-.07-.21-.301-.65-.231-1.622.394.278 1.274.208 1.621-.302.116-.162.186-.625-.046-1.529-.162-.58-.556-1.436-.718-1.76l-.023.022c.093.256.255.811.324 1.09.186.81.256 1.089.163 1.46-.07.324-.256.532-.742.764-.463.232-1.112-.35-1.136-.37-.463-.371-.81-.976-.857-1.252-.046-.324.185-.51.301-.765-.162.047-.35.14-.35.14s.209-.232.487-.417a2.4 2.4 0 0 0 .3-.21h-.297s.278-.161.58-.254h-.418l1.112-.487c.35-.139.672-.092.858.162.255.35.51.533 1.042.672.325-.139.44-.231.857-.35.371-.417.672-.463.672-.463s-.208.185-.231.393c.208-.162.44-.3.44-.3s-.093.115-.162.277l.023.024c.255-.14.533-.255.533-.255s-.093.092-.185.231c.185 0 .556 0 .695.023.857.024 1.043-.903 1.367-1.042.417-.14.602-.232 1.298.463.602.603 1.065 1.646.834 1.877-.185.185-.58-.07-1.02-.602a2.4 2.4 0 0 1-.486-1.043.93.93 0 0 0-.301-.556s.162.35.162.65c0 .161.023.764.278 1.111-.023.046-.046.255-.07.278-.3-.37-.975-.625-1.065-.718.37.302 1.205.976 1.53 1.622.3.626.115 1.182.277 1.321.046.046.65.788.765 1.182a2.17 2.17 0 0 1-.255 1.784l-.742.116a1 1 0 0 1-.278-.093c.046-.093.162-.325.162-.371l-.046-.07c-.232.325-.625.65-.95.835a1.54 1.54 0 0 1-1.226.092c-.903-.278-1.76-.88-1.946-1.042 0 0 0 .115.024.162a7 7 0 0 0 1.25 1.042l-1.065.116.51 3.94c-.232.022-.255.045-.51.092-.208-.765-.625-1.252-1.089-1.553-.394-.255-.95-.324-1.483-.208l-.023.046c.37-.046.81.023 1.251.301s.788.996.927 1.413c.162.556.278 1.136-.162 1.761-.325.44-1.251.696-1.993.162.209.325.464.58.834.626.533.07 1.043-.023 1.414-.37.3-.302.463-.951.417-1.646l.486-.07.162 1.226 7.898-.942-.695-6.303-.394.07-.788-7.95-13.16 1.53L3.102 15.64z"/><path fill="#fff" d="M10.917 8.516c.35.255.649.417.95.394.185-.023.37-.325.487-.603.092-.185.092-.393-.047-.463-.07-.023-.35-.023-.556 0-.394.046-.788.185-.88.255-.14.093-.07.324.046.417m.093-2.711v.023l.023.046c.092.185.185.37.37.464.047 0 .093-.024.14-.024.162 0 .255.024.324.047v-.14c-.023-.231.046-.648-.417-.88-.185-.092-.417-.046-.51.046h.047c.115.047.046.093.023.14-.023.092-.047.115 0 .278M8.924 5.851c.116-.092-.533-.231-1.042.093-.371.255-.371.788-.024 1.089q.053.025.093.07c.092-.047.232-.093.35-.14a4 4 0 0 1 .58-.139.64.64 0 0 0 .139-.486c-.024-.35-.302-.278-.093-.487zm3.78 5.628L11.59 13.33l-1.297-.394-1.136 1.738.047.556 6.21-1.136-.371-3.87-1.02 2.133z"/></g></svg>