<svg xmlns="http://www.w3.org/2000/svg" fill="none" viewBox="0 0 20 20"><rect width="100%" height="100%" rx="2px" ry="2px" fill="#FAFAFB"/><g transform="translate(10, 10) scale(0.625) translate(-10, -10)"><path fill="#131316" fill-rule="evenodd" d="M9.999 4.499a2.507 2.507 0 0 1 .5 4.96v3.062h1.005a.5.5 0 0 1 0 1h-1.005v1.005h1.005a.501.501 0 0 1 0 1H9.999a.5.5 0 0 1-.5-.5V9.46a2.506 2.506 0 0 1 .5-4.961m0 1a1.506 1.506 0 1 0 .003 3.013A1.506 1.506 0 0 0 10 5.499" clip-rule="evenodd"/><path fill="#131316" fill-rule="evenodd" d="M17.258 3.299 10.15 1.03a.5.5 0 0 0-.228-.017l-.075.017L2.74 3.3a.5.5 0 0 0-.347.476v7.372c0 2.806 1.953 4.78 3.772 6.014a16 16 0 0 0 3.592 1.805l.09.03a.53.53 0 0 0 .311-.003l.082-.027.238-.085a16.037 16.037 0 0 0 3.355-1.72c1.819-1.234 3.771-3.208 3.771-6.014V3.775a.5.5 0 0 0-.347-.476M3.394 11.147V4.141l6.605-2.11 6.606 2.11v7.006c0 2.298-1.6 4.01-3.334 5.186a15 15 0 0 1-3.14 1.61q-.046.017-.086.03L10 17.99l-.044-.015-.087-.03a15.052 15.052 0 0 1-3.14-1.61c-1.734-1.177-3.334-2.889-3.334-5.187" clip-rule="evenodd"/></g></svg>