<svg xmlns="http://www.w3.org/2000/svg" fill="none" viewBox="0 0 22 22" shape-rendering="geometricPrecision"><rect width="22" height="22" rx="3" ry="3" fill="#F6F6F7"/><g transform="translate(11, 11) scale(0.7) translate(-11, -11)"><path fill="#131314" d="M10.999 6.049a1.657 1.657 0 0 1 0 3.313 1.657 1.657 0 0 1 0-3.313"/><path fill="#131314" fill-rule="evenodd" d="m11.167 1.133 7.817 2.496a.55.55 0 0 1 .382.524v8.11c0 3.085-2.148 5.257-4.15 6.614a17.6 17.6 0 0 1-3.95 1.985l-.09.03a.6.6 0 0 1-.344.004l-.098-.034q-.094-.03-.261-.093a17.649 17.649 0 0 1-3.69-1.892c-2.002-1.358-4.15-3.529-4.15-6.615v-8.11c0-.238.155-.45.382-.523l7.817-2.496.083-.02a.55.55 0 0 1 .252.02m-.168 3.816a2.757 2.757 0 0 0-.55 5.457v6.123c0 .303.247.55.55.55h1.655a.55.55 0 0 0 0-1.1H11.55v-1.105h1.105a.55.55 0 0 0 0-1.1H11.55v-3.368a2.756 2.756 0 0 0-.55-5.457" clip-rule="evenodd"/></g><rect x="0.3" y="0.3" width="21.4" height="21.4" rx="3" ry="3" fill="none" stroke="var(--cn-comp-avatar-shadow)" stroke-width="0.6"/></svg>