<svg xmlns="http://www.w3.org/2000/svg" fill="none" viewBox="0 0 20 20"><rect width="100%" height="100%" rx="2px" ry="2px" fill="#F6F6F7"/><g transform="translate(10, 10) scale(0.625) translate(-10, -10)"><path fill="#131314" d="M9.999 5.499a1.507 1.507 0 0 1 0 3.012 1.506 1.506 0 0 1 0-3.012"/><path fill="#131314" fill-rule="evenodd" d="M10.151 1.03 17.258 3.3a.5.5 0 0 1 .348.476v7.372c0 2.806-1.953 4.78-3.773 6.014a16 16 0 0 1-3.592 1.805l-.082.027a.53.53 0 0 1-.311.003l-.09-.03q-.085-.03-.237-.085a16.04 16.04 0 0 1-3.354-1.72c-1.82-1.234-3.773-3.208-3.773-6.014V3.775c0-.217.14-.41.347-.476L9.848 1.03l.075-.017a.5.5 0 0 1 .228.017M10 4.5a2.506 2.506 0 0 0-.5 4.96v5.567a.5.5 0 0 0 .5.5h1.505a.5.5 0 0 0 0-1h-1.005v-1.005h1.005a.5.5 0 0 0 0-1h-1.005V9.46a2.506 2.506 0 0 0-.5-4.961" clip-rule="evenodd"/></g></svg>