<svg xmlns="http://www.w3.org/2000/svg" fill="none" viewBox="0 0 18 18"><rect width="100%" height="100%" fill="#2496ED"/><g transform="translate(9, 9) scale(0.8) translate(-9, -9)"><path fill="#fff" d="M16.854 7.86c-.397-.267-1.44-.381-2.2-.177-.04-.755-.43-1.392-1.143-1.948l-.263-.177-.176.266c-.346.524-.492 1.223-.44 1.859.04.392.177.832.44 1.151-.988.573-1.898.443-5.929.443H.919c-.018.91.129 2.661 1.242 4.086q.185.237.404.457c.905.906 2.273 1.571 4.318 1.573 3.12.003 5.794-1.684 7.42-5.762.535.01 1.947.096 2.639-1.24.017-.022.176-.354.176-.354zM4.981 7.028h-1.75v1.75h1.75zm2.261 0h-1.75v1.75h1.75zm2.261 0h-1.75v1.75h1.75zm2.26 0h-1.75v1.75h1.75zm-9.043 0H.97v1.75h1.75zm2.261-2.21h-1.75v1.75h1.75zm2.261 0h-1.75v1.75h1.75zm2.261 0h-1.75v1.75h1.75zm0-2.211h-1.75v1.75h1.75z"/></g></svg>