<svg xmlns="http://www.w3.org/2000/svg" fill="none" viewBox="0 0 20 20"><rect width="100%" height="100%" rx="2px" ry="2px" fill="#2496ED" stroke="var(--cn-comp-avatar-shadow)" stroke-width="0.6"/><g transform="translate(10, 10) scale(0.625) translate(-10, -10)"><path fill="#fff" d="M18.727 8.734c-.441-.297-1.6-.424-2.444-.197-.045-.84-.478-1.547-1.27-2.165l-.293-.197-.196.296c-.384.583-.546 1.36-.489 2.066.046.435.197.924.49 1.279-1.098.636-2.11.492-6.588.492H1.022c-.02 1.011.142 2.957 1.38 4.54q.204.263.448.507c1.006 1.008 2.526 1.746 4.798 1.748 3.467.003 6.437-1.87 8.244-6.401.595.01 2.164.106 2.932-1.378.019-.025.196-.394.196-.394zM5.534 7.809H3.59v1.944h1.944zm2.513 0H6.102v1.944h1.945zm2.512 0H8.614v1.944h1.945zm2.512 0h-1.944v1.944h1.944zm-10.049 0H1.078v1.944h1.944zm2.512-2.456H3.59v1.944h1.944zm2.513 0H6.102v1.944h1.945zm2.512 0H8.614v1.944h1.945zm0-2.456H8.614V4.84h1.945z"/></g></svg>