<svg xmlns="http://www.w3.org/2000/svg" fill="none" viewBox="0 0 22 22"><rect width="100%" height="100%" rx="2px" ry="2px" fill="#2496ED"/><g transform="translate(11, 11) scale(0.625) translate(-11, -11)"><path fill="#fff" d="M20.6 9.607c-.486-.327-1.761-.466-2.689-.216-.05-.924-.526-1.702-1.397-2.381l-.322-.217-.216.325c-.422.641-.6 1.496-.537 2.272.05.479.216 1.017.537 1.407-1.206.7-2.319.541-7.246.541H1.124c-.022 1.113.156 3.253 1.517 4.995q.225.29.494.558c1.107 1.108 2.778 1.92 5.278 1.923 3.814.003 7.081-2.058 9.068-7.042.654.01 2.38.117 3.226-1.515.02-.028.215-.434.215-.434zM6.088 8.59H3.949v2.139h2.139zm2.763 0H6.712v2.139h2.14zm2.764 0h-2.14v2.139h2.14zm2.763 0H12.24v2.139h2.14zm-11.053 0h-2.14v2.139h2.14zm2.763-2.702H3.949v2.14h2.139zm2.763 0H6.712v2.14h2.14zm2.764 0h-2.14v2.14h2.14zm0-2.702h-2.14v2.14h2.14z"/></g></svg>