<svg xmlns="http://www.w3.org/2000/svg" fill="none" viewBox="0 0 18 18"><rect width="100%" height="100%" fill="#1496FF"/><g transform="translate(9, 9) scale(0.8) translate(-9, -9)"><path fill="#fff" d="M1.133 7.222c.196-.805 2.75-.708 4.016-.608l.702.067c-.237 2.844-.094 4.758-.092 4.786l-4.035 3.832s-.307-2.15-.467-4.57a65 65 0 0 1-.124-3.507"/><path fill="#fff" d="M1.133 6.965v.25c.045-.193.125-.33.284-.546.33-.42.864-.534 1.08-.557a43 43 0 0 1 4.332-.364c2.876-.09 4.775.148 4.775.148l4.036-3.831s-2.115-.398-4.525-.682a61 61 0 0 0-3.752-.341c-.057 0-.614-.069-1.137.432-.569.545-3.456 3.285-4.616 4.388-.523.5-.477 1.057-.477 1.103M6.374 12.104c.024.003 1.481.183 3.755.168l1.031-.02s.307 4.49-.773 4.684c.021 0 .126-.006.275-.034-.057.005-.142.045-.196.045a64 64 0 0 1-3.58-.307c-2.411-.273-4.549-.694-4.549-.694z"/><path fill="#fff" d="M10.626 16.958c-.08 0-.16-.01-.25-.01.204-.035.34-.103.557-.262.432-.307.568-.842.614-1.058.193-1.08.454-2.683.58-4.309.227-2.865.09-4.775.09-4.775l4.036-3.843s.296 2.138.467 4.56c.102 1.58.136 2.978.148 3.751 0 .057.045.614-.478 1.114-.569.546-3.456 3.298-4.605 4.4-.545.5-1.102.432-1.16.432"/></g></svg>