<svg xmlns="http://www.w3.org/2000/svg" fill="none" viewBox="0 0 22 22" shape-rendering="geometricPrecision"><rect width="22" height="22" rx="3" ry="3" fill="#1496FF"/><g transform="translate(11, 11) scale(0.7) translate(-11, -11)"><path fill="#fff" d="M1.385 8.827c.239-.984 3.36-.865 4.908-.744l.858.083c-.29 3.475-.114 5.815-.112 5.849l-4.932 4.683s-.376-2.626-.57-5.585a80 80 0 0 1-.152-4.286"/><path fill="#fff" d="M1.384 8.513v.305c.056-.236.153-.403.348-.667.403-.514 1.056-.653 1.32-.68 1.334-.181 3.307-.39 5.294-.445 3.516-.111 5.836.18 5.836.18l4.933-4.682s-2.584-.487-5.53-.834a75 75 0 0 0-4.586-.417c-.07 0-.75-.083-1.39.528-.694.667-4.224 4.016-5.641 5.364-.64.611-.584 1.292-.584 1.348M7.79 14.794c.03.003 1.81.223 4.59.205l1.26-.025s.375 5.488-.944 5.725c.025 0 .153-.007.336-.04-.07.005-.174.054-.24.054a78 78 0 0 1-4.377-.375c-2.946-.334-5.558-.848-5.558-.848z"/><path fill="#fff" d="M12.987 20.727c-.097 0-.194-.014-.306-.014.25-.042.417-.125.681-.32.528-.375.695-1.028.75-1.292.237-1.32.556-3.28.71-5.266.277-3.502.11-5.836.11-5.836l4.933-4.697s.362 2.612.57 5.572c.125 1.931.167 3.64.18 4.586 0 .069.056.75-.583 1.361-.695.667-4.224 4.03-5.628 5.378-.667.611-1.348.528-1.417.528"/></g><rect x="0.3" y="0.3" width="21.4" height="21.4" rx="3" ry="3" fill="none" stroke="var(--cn-comp-avatar-shadow)" stroke-width="0.6"/></svg>