<svg xmlns="http://www.w3.org/2000/svg" fill="none" viewBox="0 0 20 20"><rect width="100%" height="100%" rx="2px" ry="2px" fill="#1496FF"/><g transform="translate(10, 10) scale(0.625) translate(-10, -10)"><path fill="#fff" d="M1.26 8.025c.216-.895 3.054-.787 4.46-.677l.781.075c-.263 3.16-.104 5.287-.102 5.318l-4.484 4.258s-.341-2.388-.518-5.079a73 73 0 0 1-.138-3.895"/><path fill="#fff" d="M1.258 7.739v.278c.05-.215.14-.367.316-.607.367-.467.96-.593 1.2-.619a47 47 0 0 1 4.813-.404c3.196-.1 5.306.164 5.306.164l4.484-4.257s-2.35-.442-5.027-.758a68 68 0 0 0-4.17-.379c-.062 0-.681-.076-1.262.48-.632.607-3.84 3.651-5.13 4.876-.58.556-.53 1.175-.53 1.226M7.082 13.449c.027.003 1.646.203 4.172.186l1.146-.023s.341 4.99-.859 5.205c.024 0 .14-.006.306-.037-.063.005-.158.05-.218.05a71 71 0 0 1-3.979-.341 71 71 0 0 1-5.053-.77z"/><path fill="#fff" d="M11.806 18.843c-.088 0-.176-.013-.277-.013.227-.038.379-.114.619-.29.48-.341.631-.935.682-1.175.214-1.2.505-2.981.644-4.788.252-3.183.101-5.306.101-5.306l4.485-4.27s.328 2.376.517 5.066c.114 1.756.152 3.31.165 4.169 0 .063.05.682-.53 1.238-.633.606-3.841 3.663-5.117 4.889-.606.556-1.225.48-1.289.48"/></g></svg>