<svg xmlns="http://www.w3.org/2000/svg" fill="none" viewBox="0 0 20 20"><rect width="100%" height="100%" rx="2px" ry="2px" fill="#24BBB1"/><g transform="translate(10, 10) scale(0.625) translate(-10, -10)"><path fill="#fff" d="m7.93 8.653 4.243 1.932 4.278-3.75q.095-.466.09-.942a4.778 4.778 0 0 0-8.722-2.702l-.715 3.693zM3.541 13.14a4.6 4.6 0 0 0-.09.958 4.798 4.798 0 0 0 8.763 2.695l.702-3.677-.938-1.801-4.259-1.941zM3.517 5.803l2.906.685.639-3.3a2.295 2.295 0 0 0-3.545 2.615M3.263 6.5a3.203 3.203 0 0 0-.14 6.035l4.08-3.684-.746-1.596zM12.951 16.793a2.292 2.292 0 0 0 3.538-2.613l-2.9-.68zM13.54 12.74l3.193.744a3.202 3.202 0 0 0 .14-6.038l-4.176 3.66z"/></g></svg>