<svg xmlns="http://www.w3.org/2000/svg" fill="none" viewBox="0 0 18 18"><rect width="100%" height="100%" fill="#24BBB1"/><g transform="translate(9, 9) scale(0.8) translate(-9, -9)"><path fill="#fff" d="m7.138 7.788 3.817 1.739 3.85-3.375q.086-.42.082-.848a4.3 4.3 0 0 0-7.85-2.432l-.644 3.324zM3.187 11.827a4 4 0 0 0-.081.862 4.318 4.318 0 0 0 7.886 2.425l.632-3.31-.844-1.62-3.833-1.748zM3.165 5.222l2.616.618.574-2.97a2.065 2.065 0 0 0-3.19 2.352M2.936 5.85a2.882 2.882 0 0 0-.125 5.431l3.67-3.315-.67-1.437zM11.656 15.114a2.062 2.062 0 0 0 3.184-2.352l-2.61-.612zM12.186 11.465l2.873.67a2.883 2.883 0 0 0 .127-5.434l-3.758 3.295z"/></g></svg>