<svg xmlns="http://www.w3.org/2000/svg" fill="none" viewBox="0 0 20 20"><rect width="100%" height="100%" rx="2px" ry="2px" fill="#F6F6F7" stroke="var(--cn-comp-avatar-shadow)" stroke-width="0.6"/><g transform="translate(10, 10) scale(0.625) translate(-10, -10)"><path fill="#111112" d="M10 7.05a2.95 2.95 0 1 1 0 5.901 2.95 2.95 0 0 1 0-5.9"/><path fill="#111112" fill-rule="evenodd" d="M10 .7a.8.8 0 0 1 .8.8v2.303A6.25 6.25 0 0 1 16.197 9.2H18.5a.8.8 0 1 1 0 1.6h-2.303a6.25 6.25 0 0 1-5.397 5.396V18.5a.8.8 0 1 1-1.6 0v-2.304A6.25 6.25 0 0 1 3.803 10.8H1.5a.8.8 0 1 1 0-1.6h2.303A6.25 6.25 0 0 1 9.2 3.803V1.5a.8.8 0 0 1 .8-.8m0 4.55a4.75 4.75 0 1 0 .001 9.501A4.75 4.75 0 0 0 10 5.25" clip-rule="evenodd"/></g></svg>