<svg xmlns="http://www.w3.org/2000/svg" fill="none" viewBox="0 0 20 20"><g transform="translate(10, 10) scale(0.625) translate(-10, -10)"><path fill="#131316" d="M9.39 18.397v-.992a7.43 7.43 0 0 1-6.797-6.797H1.6a.61.61 0 1 1 0-1.22h.993A7.43 7.43 0 0 1 9.39 2.591V1.6a.61.61 0 0 1 1.22 0v.991a7.43 7.43 0 0 1 6.796 6.797h.992a.61.61 0 0 1 0 1.22h-.99a7.43 7.43 0 0 1-6.799 6.797v.992a.61.61 0 1 1-1.22 0m1.575-8.399a.965.965 0 1 0-1.93 0 .965.965 0 0 0 1.93 0M9.39 4.75v-.935a6.215 6.215 0 0 0-5.574 5.574h.935a.61.61 0 0 1 0 1.22h-.935A6.214 6.214 0 0 0 9.39 16.18v-.934a.61.61 0 0 1 1.22 0v.934a6.214 6.214 0 0 0 5.573-5.573h-.934a.61.61 0 1 1 0-1.22h.934a6.216 6.216 0 0 0-5.574-5.574v.935a.61.61 0 1 1-1.22 0M12.184 10a2.185 2.185 0 1 1-4.37-.001 2.185 2.185 0 0 1 4.37 0"/></g></svg>