<svg xmlns="http://www.w3.org/2000/svg" fill="none" viewBox="0 0 22 22" shape-rendering="geometricPrecision"><rect width="22" height="22" rx="3" ry="3" fill="#F6F6F7"/><g transform="translate(11, 11) scale(0.7) translate(-11, -11)"><g fill="#0F1013" clip-path="url(#a)"><path d="M11 7.756a3.246 3.246 0 0 1 0 6.49 3.246 3.246 0 0 1 0-6.49"/><path fill-rule="evenodd" d="M11.001.77a.66.66 0 0 1 .66.66v2.745a6.876 6.876 0 0 1 6.18 6.165h2.73a.66.66 0 0 1 0 1.32h-2.727a6.875 6.875 0 0 1-6.183 6.2v2.71a.66.66 0 0 1-1.32 0v-2.709a6.876 6.876 0 0 1-6.185-6.2H1.43a.66.66 0 0 1 0-1.32h2.73a6.876 6.876 0 0 1 6.18-6.167V1.43a.66.66 0 0 1 .661-.66M11 5.463a5.554 5.554 0 1 0 .001 11.11A5.554 5.554 0 0 0 11 5.462" clip-rule="evenodd"/></g><defs><clipPath id="a"><path fill="#fff" d="M0 0h22v22H0z"/></clipPath></defs></g><rect x="0.3" y="0.3" width="21.4" height="21.4" rx="3" ry="3" fill="none" stroke="var(--cn-comp-avatar-shadow)" stroke-width="0.6"/></svg>