<svg xmlns="http://www.w3.org/2000/svg" fill="none" viewBox="0 0 20 20"><rect width="100%" height="100%" rx="2px" ry="2px" fill="#F6F6F7"/><g transform="translate(10, 10) scale(0.625) translate(-10, -10)"><path fill="#131314" d="M10 7.05a2.95 2.95 0 1 1 0 5.902 2.95 2.95 0 0 1 0-5.901"/><path fill="#131314" fill-rule="evenodd" d="M10.001.7a.6.6 0 0 1 .6.6v2.496A6.25 6.25 0 0 1 16.219 9.4H18.7a.6.6 0 0 1 0 1.2h-2.478a6.25 6.25 0 0 1-5.621 5.636V18.7a.6.6 0 0 1-1.2 0v-2.463a6.25 6.25 0 0 1-5.623-5.636H1.3a.6.6 0 0 1 0-1.2H3.78a6.25 6.25 0 0 1 5.62-5.606V1.3a.6.6 0 0 1 .6-.6M10 4.967a5.05 5.05 0 1 0 .001 10.099A5.05 5.05 0 0 0 10 4.966" clip-rule="evenodd"/></g></svg>