<svg xmlns="http://www.w3.org/2000/svg" fill="none" viewBox="0 0 22 22"><rect width="100%" height="100%" rx="2px" ry="2px" fill="#FF5402"/><g transform="translate(11, 11) scale(0.625) translate(-11, -11)"><g clip-path="url(#a)"><path fill="#fff" d="m9.002 10.148 1.332 4.368c-2.397 3.516-3.942 5.06-6.126 5.646-1.225.373-2.503.48-4.208.426.852-.373 4.048-1.97 3.196-5.06L1.438 9.029C.586 5.567 3.676 1.412 12.625 1.412L4.954 9.349l1.172 3.782zM22 1.412c-.852.373-4.048 1.97-3.196 5.06l1.705 6.499c.852 3.462-2.291 7.617-11.187 7.617l7.67-7.99-1.171-3.729-2.877 3.037-1.331-4.422c2.45-3.515 3.942-5.06 6.232-5.646 1.172-.373 2.45-.48 4.155-.426"/></g><defs><clipPath id="a"><path fill="#fff" d="M0 0h22v22H0z"/></clipPath></defs></g></svg>