<svg xmlns="http://www.w3.org/2000/svg" fill="none" viewBox="0 0 20 20"><rect width="100%" height="100%" rx="2px" ry="2px" fill="#FF5402" stroke="var(--cn-comp-avatar-shadow)" stroke-width="0.6"/><g transform="translate(10, 10) scale(0.625) translate(-10, -10)"><g clip-path="url(#a)"><path fill="#fff" d="m8.184 9.225 1.21 3.971c-2.179 3.196-3.583 4.6-5.568 5.133-1.114.34-2.276.436-3.826.388.775-.34 3.68-1.792 2.906-4.6L1.308 8.207C.533 5.061 3.34 1.283 11.477 1.283L4.504 8.5l1.065 3.438zM20 1.283c-.775.34-3.68 1.792-2.906 4.6l1.55 5.909c.775 3.148-2.082 6.925-10.17 6.925l6.974-7.264-1.065-3.39-2.615 2.76-1.211-4.02c2.227-3.195 3.583-4.6 5.666-5.132 1.065-.34 2.227-.436 3.777-.388"/></g><defs><clipPath id="a"><path fill="#fff" d="M0 0h20v20H0z"/></clipPath></defs></g></svg>