<svg xmlns="http://www.w3.org/2000/svg" fill="none" viewBox="0 0 22 22" shape-rendering="geometricPrecision"><rect width="22" height="22" rx="3" ry="3" fill="#0066FF"/><g transform="translate(11, 11) scale(0.7) translate(-11, -11)"><path fill="#fff" d="M17.935 8.6c.001-.097.04-.19.107-.258a.36.36 0 0 1 .254-.108h1.897a.36.36 0 0 0 .304-.166l1.444-2.262a.367.367 0 0 0-.305-.565h-3.312a.36.36 0 0 1-.334-.226.4.4 0 0 1-.027-.14V2.57a.37.37 0 0 0-.105-.26.36.36 0 0 0-.256-.11h-3.456a.36.36 0 0 0-.334.226.4.4 0 0 0-.027.14V8.98a7.37 7.37 0 0 0-2.688-2.917 7.23 7.23 0 0 0-3.79-1.078c-1.298 0-2.571.35-3.69 1.014a7.36 7.36 0 0 0-2.68 2.764 7.49 7.49 0 0 0 .128 7.482 7.35 7.35 0 0 0 2.773 2.669 7.22 7.22 0 0 0 7.375-.262 7.37 7.37 0 0 0 2.582-2.86c.019 1.047.122 1.87.595 2.577.9 1.33 2.483 1.411 3.931 1.411.675 0 1.175-.062 1.901-.176a.36.36 0 0 0 .222-.124.37.37 0 0 0 .088-.242V16.61a.37.37 0 0 0-.11-.265.36.36 0 0 0-.265-.101l-1.125.043c-1.12 0-1.091-.746-1.091-1.635V8.6zm-10.63 7.117a3.24 3.24 0 0 1-2.32-.975 3.3 3.3 0 0 1-.71-1.08 3.37 3.37 0 0 1 .712-3.624 3.26 3.26 0 0 1 2.32-.974c.87 0 1.703.35 2.319.974s.96 1.47.96 2.352a3.35 3.35 0 0 1-.96 2.353 3.26 3.26 0 0 1-2.321.974"/></g><rect x="0.3" y="0.3" width="21.4" height="21.4" rx="3" ry="3" fill="none" stroke="var(--cn-comp-avatar-shadow)" stroke-width="0.6"/></svg>