<svg xmlns="http://www.w3.org/2000/svg" fill="none" viewBox="0 0 20 20"><rect width="100%" height="100%" rx="2px" ry="2px" fill="#0066FF"/><g transform="translate(10, 10) scale(0.625) translate(-10, -10)"><path fill="#fff" d="M16.305 7.818c0-.088.035-.172.097-.234a.33.33 0 0 1 .231-.099h1.725a.33.33 0 0 0 .276-.15l1.313-2.057a.337.337 0 0 0-.11-.468.3.3 0 0 0-.168-.045h-3.01a.32.32 0 0 1-.304-.206.3.3 0 0 1-.025-.128V2.337a.34.34 0 0 0-.095-.237.33.33 0 0 0-.233-.1H12.86a.32.32 0 0 0-.303.205.3.3 0 0 0-.025.128v5.83a6.7 6.7 0 0 0-2.444-2.652 6.57 6.57 0 0 0-3.446-.98 6.57 6.57 0 0 0-3.354.921A6.7 6.7 0 0 0 .852 7.966a6.81 6.81 0 0 0 .117 6.802 6.7 6.7 0 0 0 2.52 2.425 6.57 6.57 0 0 0 6.704-.238 6.7 6.7 0 0 0 2.348-2.599c.017.951.11 1.699.541 2.342.818 1.21 2.257 1.283 3.573 1.283.614 0 1.069-.056 1.729-.16a.33.33 0 0 0 .201-.113.34.34 0 0 0 .08-.22V15.1a.33.33 0 0 0-.21-.312.3.3 0 0 0-.13-.021l-1.023.04c-1.017 0-.992-.679-.992-1.487V7.818zm-9.664 6.47a2.95 2.95 0 0 1-2.108-.886 3.061 3.061 0 0 1 0-4.277 2.96 2.96 0 0 1 2.109-.885c.79 0 1.55.318 2.108.886.56.567.874 1.336.874 2.138s-.314 1.571-.874 2.138a2.96 2.96 0 0 1-2.109.886"/></g></svg>