<svg xmlns="http://www.w3.org/2000/svg" fill="none" viewBox="0 0 20 20"><rect width="100%" height="100%" rx="2px" ry="2px" fill="#289E6D" stroke="var(--cn-comp-avatar-shadow)" stroke-width="0.6"/><g transform="translate(10, 10) scale(0.625) translate(-10, -10)"><g clip-path="url(#a)"><path fill="#fff" fill-rule="evenodd" d="M11.626.72a1.605 1.605 0 0 1 2.124.818L15.3 5l.065.065c.054.055.099.104.144.164.04.02.06.06.08.081.58.664 1.918 1.288 3.358 1.53.08-.02.18-.02.28-.02.06 0 .14 0 .22.02.18.02.32.221.34.443.178 1.54-.335 1.649-.34 1.65-.24 1.127-.7 1.832-1.26 2.436l-.022.023.401.895.001.002c.357.814.002 1.776-.812 2.138L7.082 19.28H7.08a1.606 1.606 0 0 1-2.124-.82L.139 7.714v-.001c-.358-.815-.002-1.778.813-2.14l.995-.441.104-.053.006-.05c.18-1.71 1.56-3.02 3.219-3.02a3.16 3.16 0 0 1 1.957.701L11.624.721zm6.137 11.057q-.267.23-.575.457c-.24.161-.54.201-.819.161a16 16 0 0 0-2.418-.201c-4.444 0-7.742 2.364-8.26 6.41.307.284.768.374 1.178.192l10.672-4.85.002-.001c.543-.242.788-.889.545-1.443zm1.311-4.689c-.26 0-.351.064-.54.181l-.346.248c-.06.04-.087.141-.027.182.5.463.933.986 1.073.986.005-.002.379-.115.26-1.255-.02-.181-.14-.302-.26-.322a.5.5 0 0 0-.16-.02M14.09 5.874c-.3.02-.32.02-1.259.241-.06.02-.08.08-.02.12 1.02.726 1.04.726 1.36.705.32-.02.56-.241.56-.523.02-.322-.281-.563-.64-.543m-12.926.181c-.306.136-.517.4-.6.704l1.633-.362a4 4 0 0 1-.148-.734zm3.941-3.674c-1.663.08-2.601 1.355-2.601 3.312 0 .22.02.409.06.65 1.439-.221 3.111-.328 5.27-.369-.66-.422-.88-1.167-1.08-1.892-.217-.767-.435-1.346-1.16-1.628a1.2 1.2 0 0 0-.489-.073m8.165-.628a1.08 1.08 0 0 0-1.432-.549L7.65 3.1c.443.338 1.264.338 3.342.338 1.258 0 2.438.354 3.467.967l-1.188-2.65z" clip-rule="evenodd"/></g><defs><clipPath id="a"><path fill="#fff" d="M0 0h20v20H0z"/></clipPath></defs></g></svg>