<svg xmlns="http://www.w3.org/2000/svg" fill="none" viewBox="0 0 20 20"><rect width="100%" height="100%" rx="2px" ry="2px" fill="#DE4C36"/><g transform="translate(10, 10) scale(0.625) translate(-10, -10)"><path fill="#fff" d="m18.57 9.222-7.777-7.627a1.163 1.163 0 0 0-1.622 0L7.556 3.179l2.049 2.009a1.38 1.38 0 0 1 1.401.32c.381.375.488.915.324 1.383l1.974 1.936a1.38 1.38 0 0 1 1.41.318 1.32 1.32 0 0 1 0 1.893 1.384 1.384 0 0 1-1.93 0 1.32 1.32 0 0 1-.298-1.456l-1.84-1.806v4.753c.129.063.252.147.36.253a1.32 1.32 0 0 1 0 1.893 1.383 1.383 0 0 1-1.93 0 1.32 1.32 0 0 1 0-1.893c.132-.13.284-.227.447-.292V7.693a1.4 1.4 0 0 1-.447-.292 1.32 1.32 0 0 1-.294-1.463l-2.02-1.981-5.332 5.23a1.11 1.11 0 0 0 0 1.591l7.777 7.627c.448.44 1.174.44 1.622 0l7.74-7.592a1.11 1.11 0 0 0 0-1.591"/></g></svg>