<svg xmlns="http://www.w3.org/2000/svg" fill="none" viewBox="0 0 18 18"><rect width="100%" height="100%" fill="#609926"/><g transform="translate(9, 9) scale(0.8) translate(-9, -9)"><g clip-path="url(#a)"><path fill="#fff" d="M3.405 3.688c-.177 0-.377.014-.603.063-.24.05-.92.204-1.475.738C.093 5.589.407 7.338.447 7.6c.046.32.188 1.212.868 1.988 1.256 1.537 3.96 1.502 3.96 1.502s.331.792.838 1.522c.686.907 1.39 1.614 2.076 1.7 1.727 0 5.179-.003 5.179-.003s.329.003.775-.283c.384-.233.728-.641.728-.641s.353-.379.847-1.243a9 9 0 0 0 .386-.767s1.513-3.21 1.513-6.336c-.03-.946-.263-1.113-.318-1.168-.112-.112-.262-.11-.262-.11s-3.214.181-4.878.22q-.547.013-1.086.02v3.212l-.455-.216-.003-2.995c-.795.012-2.445-.06-2.445-.06s-3.877-.194-4.3-.233c-.134-.008-.287-.022-.465-.022m.254 1.316h.08s.195 1.63.431 2.583c.197.8.68 2.131.68 2.131s-.716-.085-1.18-.25c-.71-.232-1.01-.513-1.01-.513s-.525-.366-.788-1.091c-.452-1.212-.038-1.952-.038-1.952s.23-.617 1.056-.822a3.2 3.2 0 0 1 .77-.086m5.982 1.834a1 1 0 0 1 .366.091l.623.303-.38.772a.492.492 0 0 0-.389.8l-.674 1.382a.496.496 0 0 0-.474.379.49.49 0 0 0 .249.548.49.49 0 0 0 .623-.148.494.494 0 0 0-.05-.634l.658-1.345q.087.008.17-.015a.5.5 0 0 0 .195-.098q.375.16.73.368a.55.55 0 0 1 .205.202c.052.15-.053.409-.053.409-.062.208-.504 1.113-.504 1.113a.5.5 0 0 0-.485.342.49.49 0 1 0 .83-.18q.078-.151.154-.31c.137-.285.37-.833.37-.833.025-.048.157-.283.074-.585-.068-.312-.345-.458-.345-.458-.335-.216-.801-.416-.801-.416s0-.112-.03-.194a.5.5 0 0 0-.107-.173l.371-.763 2.075 1.006s.345.157.419.445a.75.75 0 0 1-.05.471c-.172.422-1.508 3.1-1.508 3.1s-.166.398-.537.423a.8.8 0 0 1-.282-.033l-.145-.057-3.095-1.508s-.3-.157-.352-.428c-.06-.223.075-.496.075-.496L9.055 7.25s.132-.266.335-.357a.6.6 0 0 1 .251-.055"/></g><defs><clipPath id="a"><path fill="#fff" d="M0 0h18v18H0z"/></clipPath></defs></g></svg>