<svg xmlns="http://www.w3.org/2000/svg" fill="none" viewBox="0 0 22 22" shape-rendering="geometricPrecision"><rect width="22" height="22" rx="3" ry="3" fill="#609926"/><g transform="translate(11, 11) scale(0.7) translate(-11, -11)"><g clip-path="url(#a)"><path fill="#fff" d="M4.162 4.508c-.217 0-.46.017-.737.077-.293.061-1.124.248-1.803.901C.114 6.831.498 8.968.546 9.29c.057.392.23 1.48 1.062 2.43 1.535 1.879 4.839 1.836 4.839 1.836s.405.968 1.025 1.86c.838 1.108 1.699 1.973 2.536 2.077 2.112 0 6.33-.003 6.33-.003s.402.003.948-.346c.47-.284.89-.784.89-.784s.431-.462 1.035-1.518c.184-.325.338-.64.472-.938 0 0 1.85-3.924 1.85-7.744-.037-1.156-.323-1.36-.39-1.428-.136-.137-.32-.134-.32-.134s-3.928.221-5.962.269q-.669.017-1.327.023v3.927l-.557-.264-.003-3.66c-.972.014-2.989-.074-2.989-.074s-4.738-.237-5.254-.284c-.164-.01-.352-.027-.57-.027m.31 1.608h.098s.238 1.991.527 3.157c.241.978.83 2.605.83 2.605s-.874-.105-1.44-.306c-.87-.284-1.237-.626-1.237-.626s-.64-.449-.962-1.335c-.553-1.481-.046-2.385-.046-2.385s.28-.754 1.29-1.005a4 4 0 0 1 .94-.105m7.312 2.241c.228.003.447.112.447.112l.761.37-.464.944a.6.6 0 0 0-.607.656c.01.118.057.23.131.322l-.824 1.689a.605.605 0 0 0-.579.463.6.6 0 0 0 .305.67.6.6 0 0 0 .76-.182.604.604 0 0 0-.06-.774l.804-1.645q.105.01.208-.017a.6.6 0 0 0 .238-.12q.46.195.892.449a.67.67 0 0 1 .25.247c.065.185-.063.5-.063.5-.077.255-.617 1.36-.617 1.36a.61.61 0 0 0-.593.419.6.6 0 0 0 .972.62.6.6 0 0 0 .044-.841c.064-.124.123-.248.187-.378.167-.349.452-1.019.452-1.019.031-.057.192-.345.09-.714-.083-.382-.42-.56-.42-.56-.41-.264-.98-.509-.98-.509s0-.137-.037-.237a.6.6 0 0 0-.13-.212l.453-.932 2.537 1.23s.42.191.511.543a.9.9 0 0 1-.06.577c-.21.515-1.843 3.789-1.843 3.789s-.204.486-.657.516a.9.9 0 0 1-.345-.04l-.177-.07-3.783-1.843s-.366-.191-.43-.523c-.073-.272.091-.606.091-.606l1.82-3.75s.16-.325.409-.436a.75.75 0 0 1 .307-.068"/></g><defs><clipPath id="a"><path fill="#fff" d="M0 0h22v22H0z"/></clipPath></defs></g><rect x="0.3" y="0.3" width="21.4" height="21.4" rx="3" ry="3" fill="none" stroke="var(--cn-comp-avatar-shadow)" stroke-width="0.6"/></svg>