<svg xmlns="http://www.w3.org/2000/svg" fill="none" viewBox="0 0 22 22" shape-rendering="geometricPrecision"><rect width="22" height="22" rx="3" ry="3" fill="#070709"/><g transform="translate(11, 11) scale(0.7) translate(-11, -11)"><path fill="#fff" fill-rule="evenodd" d="M11.041 1.237c-5.504 0-10.007 4.503-10.007 10.007a10 10 0 0 0 6.838 9.506c.5.083.667-.25.667-.5v-1.668c-2.751.584-3.335-1.334-3.335-1.334-.417-1.168-1.084-1.501-1.084-1.501-1-.584 0-.584 0-.584 1 .083 1.5 1 1.5 1 .918 1.502 2.336 1.085 2.92.834.083-.667.333-1.083.667-1.334-2.252-.25-4.587-1.084-4.587-4.92 0-1.084.417-2.001 1-2.668 0-.334-.416-1.334.168-2.669 0 0 .833-.25 2.751 1.001.834-.25 1.668-.334 2.502-.334s1.668.084 2.502.334c1.918-1.334 2.752-1 2.752-1 .583 1.417.166 2.418.083 2.668.667.667 1 1.584 1 2.668 0 3.836-2.334 4.67-4.586 4.92.334.334.667.918.667 1.835v2.752c0 .25.167.583.668.5a10 10 0 0 0 6.838-9.506c.083-5.504-4.42-10.007-9.924-10.007" clip-rule="evenodd"/></g><rect x="0.3" y="0.3" width="21.4" height="21.4" rx="3" ry="3" fill="none" stroke="var(--cn-comp-avatar-shadow)" stroke-width="0.6"/></svg>