<svg xmlns="http://www.w3.org/2000/svg" fill="none" viewBox="0 0 20 20"><rect width="100%" height="100%" rx="2px" ry="2px" fill="#070709"/><g transform="translate(10, 10) scale(0.625) translate(-10, -10)"><path fill="#fff" fill-rule="evenodd" d="M10.037 1.124C5.034 1.124.94 5.218.94 10.222a9.09 9.09 0 0 0 6.217 8.642c.455.075.606-.228.606-.455v-1.516c-2.502.53-3.032-1.213-3.032-1.213-.38-1.062-.986-1.365-.986-1.365-.91-.53 0-.53 0-.53.91.075 1.365.91 1.365.91.834 1.364 2.122.985 2.653.757.076-.606.303-.985.607-1.213-2.047-.227-4.17-.985-4.17-4.472 0-.986.38-1.82.91-2.426 0-.303-.38-1.213.151-2.426 0 0 .759-.228 2.502.91.758-.228 1.516-.304 2.274-.304s1.517.076 2.275.304c1.743-1.213 2.501-.91 2.501-.91.531 1.289.152 2.198.076 2.426.607.606.91 1.44.91 2.426 0 3.487-2.123 4.245-4.17 4.472.304.304.607.834.607 1.668v2.502c0 .227.151.53.606.455a9.09 9.09 0 0 0 6.217-8.642c.075-5.004-4.018-9.098-9.022-9.098" clip-rule="evenodd"/></g></svg>