<svg xmlns="http://www.w3.org/2000/svg" fill="none" viewBox="0 0 18 18"><rect width="100%" height="100%" rx="2px" ry="2px" fill="#070709"/><g transform="translate(9, 9) scale(0.5625) translate(-9, -9)"><path fill="#fff" fill-rule="evenodd" d="M9.034 1.012C4.53 1.012.846 4.696.846 9.199a8.18 8.18 0 0 0 5.595 7.778c.41.069.546-.204.546-.41v-1.364c-2.252.478-2.73-1.091-2.73-1.091-.34-.955-.886-1.228-.886-1.228-.819-.478 0-.478 0-.478.818.068 1.228.819 1.228.819.75 1.228 1.91.887 2.388.682.068-.546.273-.887.546-1.092C5.69 12.611 3.78 11.93 3.78 8.79c0-.887.341-1.637.819-2.183 0-.273-.341-1.092.136-2.184 0 0 .683-.204 2.252.82.682-.206 1.364-.274 2.047-.274.682 0 1.364.068 2.047.273 1.569-1.092 2.251-.819 2.251-.819.478 1.16.136 1.979.068 2.184.546.546.819 1.296.819 2.183 0 3.139-1.91 3.82-3.753 4.025.273.273.546.75.546 1.501v2.252c0 .205.137.477.546.41a8.18 8.18 0 0 0 5.595-7.779c.068-4.503-3.616-8.187-8.12-8.187" clip-rule="evenodd"/></g></svg>