<svg xmlns="http://www.w3.org/2000/svg" fill="none" viewBox="0 0 22 22" shape-rendering="geometricPrecision"><rect width="22" height="22" rx="3" ry="3" fill="#F6F6F7"/><g transform="translate(11, 11) scale(0.7) translate(-11, -11)"><path fill="#0F1013" fill-rule="evenodd" d="M5.156.99a4.166 4.166 0 0 1 .66 8.28v.171a.9.9 0 0 0 .899.9h1.362a2.997 2.997 0 0 1 5.846 0h1.166a2.997 2.997 0 1 1 0 1.319h-1.166a2.997 2.997 0 0 1-5.846 0H6.715c-.32 0-.624-.07-.9-.192v4.986a.9.9 0 0 0 .9.899h1.362a2.997 2.997 0 0 1 5.846 0h1.166a2.997 2.997 0 1 1 0 1.32h-1.166a2.997 2.997 0 0 1-5.846 0H6.715a2.22 2.22 0 0 1-2.218-2.22V9.27A4.166 4.166 0 0 1 5.157.99m12.857 15.345a1.678 1.678 0 1 0 0 3.356 1.678 1.678 0 0 0 0-3.356M11 9.322a1.678 1.678 0 1 0 0 3.356 1.678 1.678 0 0 0 0-3.356M4.881 3.397a.9.9 0 0 0-.834-.02.74.74 0 0 0-.423.651v2.196c0 .27.162.52.423.652a.9.9 0 0 0 .834-.02l1.94-1.098a.73.73 0 0 0 .386-.632.73.73 0 0 0-.387-.63z" clip-rule="evenodd"/></g><rect x="0.3" y="0.3" width="21.4" height="21.4" rx="3" ry="3" fill="none" stroke="var(--cn-comp-avatar-shadow)" stroke-width="0.6"/></svg>