<svg xmlns="http://www.w3.org/2000/svg" fill="none" viewBox="0 0 20 20"><rect width="100%" height="100%" rx="2px" ry="2px" fill="#F6F6F7"/><g transform="translate(10, 10) scale(0.625) translate(-10, -10)"><path fill="#131314" fill-rule="evenodd" d="M4.688.9a3.787 3.787 0 0 1 .6 7.527v.156c0 .451.365.817.816.817h1.239a2.724 2.724 0 0 1 5.314 0h1.06a2.724 2.724 0 1 1 0 1.2h-1.06a2.724 2.724 0 0 1-5.314 0H6.104c-.29 0-.567-.063-.817-.174v4.532c0 .451.366.817.817.817h1.239a2.724 2.724 0 0 1 5.314 0h1.06a2.724 2.724 0 1 1 0 1.2h-1.06a2.724 2.724 0 0 1-5.314 0H6.104a2.017 2.017 0 0 1-2.016-2.017V8.427A3.787 3.787 0 0 1 4.688.9m11.687 13.95a1.526 1.526 0 1 0 0 3.051 1.526 1.526 0 0 0 0-3.051M10 8.475a1.526 1.526 0 1 0 0 3.051 1.526 1.526 0 0 0 0-3.051M4.438 3.088a.82.82 0 0 0-.76-.018.67.67 0 0 0-.383.592v1.996a.67.67 0 0 0 .384.593c.237.12.528.112.759-.019L6.2 5.234a.67.67 0 0 0 .352-.574.67.67 0 0 0-.352-.573z" clip-rule="evenodd"/></g></svg>