<svg xmlns="http://www.w3.org/2000/svg" fill="none" viewBox="0 0 22 22" shape-rendering="geometricPrecision"><rect width="22" height="22" rx="3" ry="3" fill="#FFFFFF"/><g transform="translate(11, 11) scale(0.7) translate(-11, -11)"><path fill="#131314" fill-rule="evenodd" d="M12.779 13.448h.56v-.68h.68v.68h.514l.109.001v.898h-.622v.547h.622v.9h-.622v.545h.622v.899h-.683v-.681h-.56v.681h-.681v-.681h-.621v-.898h.62v-.547h-.62v-.899h.62v-.547h-.62v-.898h.682zm0 2.89h.56v-.545h-.56zm.62-.68h.56v-.546h-.56zm-.62-.764h.56v-.547h-.56zm.62-.681h.56v-.547h-.56zM8.582 13.521h.003a1.39 1.39 0 0 1 1.318 1.39v.07a1.39 1.39 0 0 1-1.39 1.32H8.51l-.066-.002h-.003a1.39 1.39 0 0 1-1.318-1.318v-.002l-.001-.066v-.003c0-.768.622-1.39 1.39-1.39h.003zm-.07.68a.709.709 0 1 0 .002 1.418.709.709 0 0 0-.002-1.418" clip-rule="evenodd"/><path fill="#131314" d="M8.854 12.652h-.681V3.148h.68z"/><path fill="#131314" fill-rule="evenodd" d="M13.438 9.022h.003a1.39 1.39 0 0 1 1.319 1.39v.002l-.002.066v.003a1.39 1.39 0 0 1-1.39 1.32h-.003l-.065-.002h-.002a1.39 1.39 0 0 1-1.318-1.318v-.003l-.003-.066v-.003c0-.767.624-1.39 1.392-1.39h.003zm-.07.68a.71.71 0 1 0 .002 1.42.71.71 0 0 0-.001-1.42" clip-rule="evenodd"/><path fill="#131314" d="m10.059 3.204 2.677 5.094h-.715l-.03-.058-2.678-5.094h.715z"/><path fill="#131314" fill-rule="evenodd" d="M8.582.001h.003A1.39 1.39 0 0 1 9.87 1.087h8.89v18.787H9.707v.681h-.621v.546h.511l.11.001V22h-.681v-.681h-.561V22h-.682v-.681h-.62v-.898h.62v-.546H3.24V1.086h3.916A1.39 1.39 0 0 1 8.512 0h.003zm-.737 21.1h.559v-.546h-.559zm.62-.68h.56v-.546h-.56zm-.62-.764h.559v-.547h-.559zm-3.923-.465h3.24v-.217l.11.001h.51v-.547h-.62v-.899h.683v.681h.559v-.68h.682v.68h.62v.9h-.62v.546h.627v-.465h8.366V1.769H9.851a1.39 1.39 0 0 1-1.339 1.012H8.51l-.066-.002h-.003a1.39 1.39 0 0 1-1.265-1.01H3.922zm4.543-.217.047.001h.514v-.547h-.561zM8.512.682a.708.708 0 1 0 0 1.417.708.708 0 0 0 0-1.417" clip-rule="evenodd"/></g><rect x="0.3" y="0.3" width="21.4" height="21.4" rx="3" ry="3" fill="none" stroke="var(--cn-comp-avatar-shadow)" stroke-width="0.6"/></svg>