<svg xmlns="http://www.w3.org/2000/svg" fill="none" viewBox="0 0 20 20"><rect width="100%" height="100%" rx="2px" ry="2px" fill="#FC6D26"/><g transform="translate(10, 10) scale(0.625) translate(-10, -10)"><path fill="#fff" d="m18.597 8.217-.026-.064-2.42-6.318a.63.63 0 0 0-.626-.396.65.65 0 0 0-.364.136.65.65 0 0 0-.215.326l-1.634 5H6.694l-1.635-5a.64.64 0 0 0-.215-.327.65.65 0 0 0-.74-.04.64.64 0 0 0-.25.3L1.43 8.15l-.024.064a4.495 4.495 0 0 0 1.491 5.195l.008.006.023.016 3.687 2.761 1.824 1.381 1.111.839a.75.75 0 0 0 .904 0l1.111-.839 1.825-1.38 3.71-2.779.009-.007a4.5 4.5 0 0 0 1.488-5.19"/></g></svg>