<svg xmlns="http://www.w3.org/2000/svg" fill="none" viewBox="0 0 22 22"><rect width="100%" height="100%" rx="2px" ry="2px" fill="#FC6D26"/><g transform="translate(11, 11) scale(0.625) translate(-11, -11)"><path fill="#fff" d="m20.456 9.038-.027-.07-2.663-6.95a.69.69 0 0 0-.688-.435.7.7 0 0 0-.401.15.7.7 0 0 0-.236.358l-1.798 5.5h-7.28l-1.798-5.5a.7.7 0 0 0-.236-.36.71.71 0 0 0-.815-.043.7.7 0 0 0-.274.33L1.572 8.964l-.026.07a4.944 4.944 0 0 0 1.64 5.714l.009.008.024.017 4.056 3.037 2.007 1.52 1.222.922a.82.82 0 0 0 .995 0l1.222-.923 2.007-1.519 4.08-3.055.01-.009a4.946 4.946 0 0 0 1.638-5.708"/></g></svg>