<svg xmlns="http://www.w3.org/2000/svg" fill="none" viewBox="0 0 20 20"><rect width="100%" height="100%" rx="2px" ry="2px" fill="#FFFFFF"/><g transform="translate(10, 10) scale(0.625) translate(-10, -10)"><path fill="#111112" fill-rule="evenodd" d="M11.617 12.226h.509v-.619h.62v.619h.5640000000000001v.817h-.565v.497h.566v.817h-.566v.497h.566v.817h-.62v-.62h-.51v.62h-.62v-.62h-.564v-.816h.565v-.497h-.565v-.817h.565v-.497h-.565v-.817h.62zm0 2.627h.509v-.496h-.509zm.565-.618h.508v-.497h-.508zm-.565-.695h.509v-.497h-.509zm.565-.62h.508v-.496h-.508zM7.802 12.292h.003a1.264 1.264 0 0 1 1.198 1.263v.003l-.001.06v.001a1.266 1.266 0 0 1-1.264 1.2h-.002l-.06-.002h-.002a1.265 1.265 0 0 1-1.198-1.198v-.002l-.001-.06v-.002c0-.698.565-1.264 1.263-1.264h.003zm-.064.618A.644.644 0 1 0 7.74 14.2a.644.644 0 0 0-.002-1.289" clip-rule="evenodd"/><path fill="#111112" d="m8.049 11.502-.099-.001h-.52V2.862h.619z"/><path fill="#111112" fill-rule="evenodd" d="M12.217 8.202h.002a1.265 1.265 0 0 1 1.199 1.263v.002l-.002.06v.003a1.265 1.265 0 0 1-1.263 1.2h-.003l-.06-.002h-.001A1.265 1.265 0 0 1 10.89 9.53v-.003l-.002-.06v-.002c0-.698.566-1.265 1.264-1.265h.003zm-.064.618a.645.645 0 1 0 .002 1.29.645.645 0 0 0-.002-1.29" clip-rule="evenodd"/><path fill="#111112" d="m9.144 2.913 2.434 4.631h-.65l-.028-.053-2.433-4.63h.65z"/><path fill="#111112" fill-rule="evenodd" d="M7.802.001h.003c.574.03 1.046.442 1.168.987h8.082v17.08h-8.23v.618H8.26v.497h.565V20h-.62v-.62h-.51V20h-.62v-.62h-.563v-.816h.563v-.496h-4.13V.987h3.56C6.633.423 7.136 0 7.739 0h.003zm-.67 19.182h.508v-.497h-.508zm.563-.619h.51v-.496h-.51zm-.563-.694h.508v-.497h-.508zm-3.567-.423h2.947v-.197l.098.001h.465v-.497h-.563v-.818h.62v.62h.508v-.62h.62v.62h.564v.817H8.26v.497h.57v-.423h7.606V1.608H8.955c-.15.531-.638.92-1.217.92h-.002l-.06-.002h-.002a1.26 1.26 0 0 1-1.15-.918H3.564zm4.13-.197.043.001h.467v-.497h-.51zM7.738.62a.644.644 0 1 0 0 1.288.644.644 0 0 0 0-1.288" clip-rule="evenodd"/></g></svg>