<svg xmlns="http://www.w3.org/2000/svg" fill="none" viewBox="0 0 22 22"><rect width="100%" height="100%" rx="2px" ry="2px" fill="#00ADD8"/><g transform="translate(11, 11) scale(0.625) translate(-11, -11)"><path fill="#fff" d="M2.131 9.458c-.04 0-.05-.02-.03-.052l.214-.274c.02-.03.07-.05.111-.05h3.632c.04 0 .05.03.03.06l-.173.264c-.02.032-.072.061-.102.061zm-1.535.935c-.041 0-.052-.02-.03-.05l.212-.275c.02-.03.072-.05.113-.05h4.637c.041 0 .061.03.05.06l-.08.244c-.01.041-.05.061-.091.061zm2.461.936c-.04 0-.051-.03-.03-.06l.142-.255c.02-.03.06-.06.101-.06h2.035c.04 0 .06.03.06.07l-.02.244c0 .041-.04.072-.07.072zm10.558-2.054c-.64.163-1.079.285-1.709.447-.153.04-.163.05-.296-.101-.151-.174-.264-.285-.477-.387-.641-.315-1.262-.224-1.84.152-.693.448-1.049 1.11-1.038 1.933.01.814.569 1.485 1.372 1.597.692.091 1.271-.152 1.73-.67.091-.113.172-.235.274-.378H9.668c-.213 0-.264-.132-.193-.305.132-.315.376-.844.519-1.109a.27.27 0 0 1 .254-.162h3.702c-.02.275-.02.549-.061.824a4.34 4.34 0 0 1-.834 1.993c-.732.966-1.689 1.567-2.899 1.729-.996.132-1.922-.06-2.735-.67-.753-.57-1.18-1.323-1.292-2.259-.132-1.109.193-2.106.864-2.98.723-.946 1.679-1.546 2.848-1.759.956-.174 1.872-.06 2.695.497.54.357.926.845 1.18 1.435.062.091.02.143-.101.174m3.367 5.624c-.927-.021-1.77-.286-2.483-.896a3.2 3.2 0 0 1-1.098-1.963c-.183-1.149.132-2.166.824-3.072.742-.976 1.637-1.484 2.848-1.697 1.038-.183 2.014-.083 2.899.518.803.548 1.302 1.292 1.434 2.267.172 1.374-.224 2.493-1.17 3.45-.67.68-1.495 1.107-2.441 1.3-.275.053-.549.061-.813.093m2.42-4.109c-.01-.133-.01-.235-.03-.337-.183-1.007-1.11-1.575-2.075-1.352-.946.213-1.557.814-1.78 1.77-.183.793.203 1.597.935 1.923.56.244 1.119.213 1.659-.06.803-.419 1.24-1.07 1.291-1.945z"/></g></svg>