<svg xmlns="http://www.w3.org/2000/svg" fill="none" viewBox="0 0 20 20"><rect width="100%" height="100%" rx="2px" ry="2px" fill="#00ADD8"/><g transform="translate(10, 10) scale(0.625) translate(-10, -10)"><path fill="#fff" d="M1.937 8.598q-.055-.002-.027-.047l.194-.249c.018-.028.064-.046.102-.046h3.3c.037 0 .047.028.029.056l-.158.24c-.018.028-.065.055-.092.055zm-1.396.85c-.037 0-.046-.018-.027-.045l.194-.25c.018-.028.064-.046.102-.046h4.216c.037 0 .055.028.046.055l-.074.222c-.01.037-.046.055-.083.055zm2.238.851c-.037 0-.046-.027-.027-.055l.129-.231c.018-.028.055-.056.092-.056h1.85c.037 0 .055.028.055.065l-.018.222c0 .037-.038.065-.065.065zm9.598-1.867c-.582.148-.98.259-1.553.407-.14.036-.148.045-.27-.093-.137-.157-.24-.259-.433-.351-.583-.287-1.147-.204-1.674.138-.629.407-.952 1.008-.943 1.757.009.74.518 1.35 1.248 1.452.63.083 1.155-.139 1.572-.61.084-.102.157-.213.25-.343H8.789c-.194 0-.24-.12-.175-.277.12-.286.341-.767.471-1.008a.25.25 0 0 1 .231-.148h3.366c-.018.25-.018.5-.056.75a3.94 3.94 0 0 1-.758 1.812c-.665.878-1.535 1.424-2.635 1.571-.906.12-1.748-.055-2.487-.61a2.9 2.9 0 0 1-1.174-2.053c-.12-1.008.175-1.914.786-2.71.656-.858 1.525-1.404 2.589-1.598.869-.158 1.701-.055 2.45.452.49.325.84.768 1.073 1.304.055.083.018.13-.093.159m3.06 5.112c-.841-.019-1.609-.26-2.256-.814a2.9 2.9 0 0 1-.999-1.784c-.166-1.045.12-1.97.75-2.793.675-.888 1.488-1.35 2.589-1.543.943-.166 1.831-.075 2.635.47.73.5 1.184 1.175 1.304 2.062.157 1.249-.203 2.266-1.063 3.135-.61.62-1.36 1.008-2.22 1.183-.25.048-.499.056-.74.084m2.2-3.735c-.008-.12-.008-.213-.026-.306-.166-.915-1.008-1.432-1.887-1.23-.86.194-1.415.74-1.618 1.61a1.525 1.525 0 0 0 .85 1.748c.51.222 1.018.193 1.508-.056.73-.38 1.128-.971 1.175-1.767z"/></g></svg>