<svg xmlns="http://www.w3.org/2000/svg" fill="none" viewBox="0 0 18 18"><rect width="100%" height="100%" fill="#00ADD8"/><g transform="translate(9, 9) scale(0.8) translate(-9, -9)"><g clip-path="url(#a)"><path fill="#fff" d="M1.744 7.738q-.05-.002-.025-.042l.175-.224c.016-.025.058-.041.091-.041h2.971c.033 0 .042.024.025.05l-.142.215c-.016.026-.058.05-.083.05zm-1.257.766c-.033 0-.042-.017-.025-.042l.175-.225c.016-.024.058-.04.092-.04h3.794c.034 0 .05.024.042.049l-.067.2c-.008.033-.041.05-.074.05zm2.014.765c-.033 0-.042-.025-.025-.05l.116-.207c.017-.025.05-.05.084-.05H4.34c.034 0 .05.025.05.058l-.016.2c0 .033-.034.058-.059.058zm8.638-1.68c-.524.133-.882.233-1.398.366-.125.032-.133.041-.242-.084a1.1 1.1 0 0 0-.39-.316c-.525-.258-1.033-.183-1.506.125-.566.366-.858.907-.85 1.58.009.667.467 1.216 1.124 1.308.566.075 1.04-.125 1.415-.549.075-.092.141-.192.224-.309H7.91c-.174 0-.216-.108-.158-.249.109-.258.308-.69.425-.907a.22.22 0 0 1 .208-.134h3.029c-.017.226-.017.45-.05.675a3.55 3.55 0 0 1-.683 1.63c-.598.791-1.381 1.283-2.371 1.415-.816.108-1.573-.05-2.238-.548a2.61 2.61 0 0 1-1.057-1.848c-.109-.908.158-1.723.707-2.439.59-.773 1.373-1.265 2.33-1.438.782-.143 1.531-.05 2.205.406.441.292.757.691.966 1.174.05.075.016.117-.084.142m2.755 4.602c-.758-.017-1.449-.234-2.031-.733a2.6 2.6 0 0 1-.899-1.606c-.15-.94.108-1.773.675-2.513.607-.8 1.34-1.215 2.33-1.39.849-.149 1.648-.067 2.371.425.658.448 1.066 1.057 1.174 1.855.141 1.124-.183 2.039-.957 2.822a3.8 3.8 0 0 1-1.998 1.064c-.224.043-.448.05-.665.076m1.98-3.362c-.008-.109-.008-.192-.024-.275-.15-.824-.908-1.29-1.698-1.107-.774.174-1.273.666-1.457 1.448-.15.65.167 1.307.766 1.574.458.2.915.174 1.357-.05.657-.342 1.015-.875 1.057-1.59z"/></g><defs><clipPath id="a"><path fill="#fff" d="M0 0h18v18H0z"/></clipPath></defs></g></svg>