<svg xmlns="http://www.w3.org/2000/svg" fill="none" viewBox="0 0 22 22"><rect width="100%" height="100%" rx="2px" ry="2px" fill="#4285F4"/><g transform="translate(11, 11) scale(0.625) translate(-11, -11)"><path fill="#fff" d="M11.416 9.454v2.84h6.787c-.208 1.592-.738 2.759-1.547 3.578-.993.993-2.54 2.077-5.24 2.077-4.18 0-7.446-3.37-7.446-7.549s3.267-7.55 7.446-7.55c2.25 0 3.901.89 5.113 2.033l1.998-1.997C16.84 1.246 14.578 0 11.416 0 5.69 0 .876 4.664.876 10.389s4.814 10.389 10.54 10.389c3.093 0 5.425-1.016 7.248-2.91 1.87-1.87 2.46-4.512 2.46-6.637 0-.658-.047-1.27-.15-1.777z"/></g></svg>