<svg xmlns="http://www.w3.org/2000/svg" fill="none" viewBox="0 0 20 20"><rect width="100%" height="100%" rx="2px" ry="2px" fill="#4285F4" stroke="var(--cn-comp-avatar-shadow)" stroke-width="0.6"/><g transform="translate(10, 10) scale(0.625) translate(-10, -10)"><path fill="#fff" d="M10.378 8.594v2.582h6.17c-.189 1.448-.671 2.508-1.406 3.253-.903.902-2.309 1.889-4.764 1.889-3.8 0-6.769-3.064-6.769-6.863s2.97-6.863 6.769-6.863c2.046 0 3.547.808 4.649 1.847l1.816-1.816C15.31 1.133 13.253 0 10.378 0 5.173 0 .798 4.24.798 9.444s4.375 9.445 9.58 9.445c2.812 0 4.932-.923 6.59-2.645 1.7-1.7 2.235-4.102 2.235-6.034 0-.598-.042-1.154-.136-1.616z"/></g></svg>