<svg xmlns="http://www.w3.org/2000/svg" fill="none" viewBox="0 0 22 22" shape-rendering="geometricPrecision"><rect width="22" height="22" rx="3" ry="3" fill="#FF671D"/><g transform="translate(11, 11) scale(0.7) translate(-11, -11)"><g clip-path="url(#a)"><path fill="#fff" d="M21.088 9.7a6.7 6.7 0 0 0-.213-1.254 8 8 0 0 0-.568-1.515A8.7 8.7 0 0 0 19.243 5.3c-.166-.213-.38-.426-.568-.615.308-1.23-.378-2.295-.378-2.295-1.184-.07-1.94.38-2.224.568a.34.34 0 0 0-.143-.047 2.7 2.7 0 0 0-.614-.213c-.213-.047-.426-.118-.663-.19a29 29 0 0 0-.686-.141c-.047 0-.07-.024-.118-.024C13.329.686 11.839 0 11.839 0c-1.657 1.04-1.964 2.507-1.964 2.507s0 .024-.024.095l-.284.07c-.118.048-.26.096-.379.143-.118.047-.26.095-.378.142-.236.095-.497.236-.733.355-.237.142-.474.284-.686.426-.024-.024-.048-.024-.048-.024-2.294-.875-4.329.19-4.329.19-.142 2.436.946 3.974 1.16 4.258-.048.142-.095.307-.142.45a13 13 0 0 0-.38 1.702c-.023.072-.023.166-.023.26-2.106 1.041-2.744 3.17-2.744 3.17 1.775 2.035 3.809 2.153 3.809 2.153.26.473.568.899.9 1.324a8 8 0 0 0 .448.497c-.638 1.845.095 3.36.095 3.36 1.964.07 3.265-.852 3.524-1.065.19.07.403.118.592.19.592.165 1.23.236 1.846.284h.78C13.801 21.81 15.434 22 15.434 22c1.16-1.23 1.23-2.437 1.23-2.697v-.118a6.949 6.949 0 0 0 1.892-1.964c.025-.047.072-.094.095-.141 1.302.07 2.224-.805 2.224-.805-.213-1.372-.994-2.034-1.16-2.152h-.047s-.023 0-.023-.024c0-.071.023-.166.023-.237 0-.142.024-.284.024-.45v-.567c0-.048 0-.07-.024-.118l-.023-.118-.024-.119c-.023-.142-.047-.308-.095-.45a6.7 6.7 0 0 0-.662-1.655 6 6 0 0 0-1.111-1.325 5.2 5.2 0 0 0-1.396-.9c-.497-.212-1.017-.378-1.538-.425a9 9 0 0 0-.78-.047h-.403c-.141 0-.26.023-.402.047a4.3 4.3 0 0 0-1.443.544 4.8 4.8 0 0 0-1.112.947c-.307.354-.544.78-.71 1.182-.164.408-.26.84-.284 1.278v.615c.024.213.048.426.119.615a3.2 3.2 0 0 0 .52 1.064c.237.308.497.544.781.758.284.19.591.33.899.426.308.094.591.118.899.118h.402c.047 0 .07-.024.095-.024s.07-.024.095-.024c.07-.023.118-.023.189-.047l.354-.142c.118-.047.213-.118.308-.19.023-.023.047-.046.07-.046a.224.224 0 0 0 .048-.308c-.07-.095-.19-.118-.284-.047-.024 0-.047.024-.071.047-.07.047-.165.07-.26.118l-.284.072c-.047 0-.095.023-.142.023h-.449a2.3 2.3 0 0 1-.663-.19 2.5 2.5 0 0 1-.615-.401 2.27 2.27 0 0 1-.733-1.349c-.024-.142-.024-.284-.024-.402v-.213c0-.07.024-.142.024-.213a2.84 2.84 0 0 1 .851-1.585q.18-.177.355-.284c.118-.095.26-.165.403-.237q.217-.104.45-.165c.165-.047.306-.07.473-.07h.496l.52.07c.331.07.663.19.994.379.623.354 1.132.88 1.467 1.514.165.33.284.662.331 1.017.023.094.023.19.023.26v.568c0 .095-.023.19-.023.284-.024.095-.024.19-.047.284l-.071.284c-.047.19-.119.378-.19.567a5 5 0 0 1-.567 1.04 4.83 4.83 0 0 1-1.822 1.491 4.9 4.9 0 0 1-1.136.355c-.189.024-.402.048-.59.048h-.308c-.118 0-.213 0-.308-.024a5.6 5.6 0 0 1-1.254-.213 7.3 7.3 0 0 1-1.183-.473 6.1 6.1 0 0 1-1.94-1.609 6.3 6.3 0 0 1-.686-1.063 7 7 0 0 1-.45-1.16 5.4 5.4 0 0 1-.212-1.23v-.663c0-.213.023-.402.047-.615.023-.213.07-.426.095-.639s.094-.425.141-.615a8.5 8.5 0 0 1 .426-1.159c.355-.733.805-1.396 1.325-1.916q.204-.2.426-.38c.142-.117.284-.235.45-.33.165-.095.307-.19.472-.284.071-.047.166-.094.237-.118.047-.024.094-.047.118-.047s.095-.048.119-.048c.165-.071.354-.142.52-.19.047-.022.095-.022.142-.046s.095-.024.142-.048l.284-.07c.047 0 .095-.025.142-.025s.095-.023.141-.023c.047 0 .095-.024.143-.024h.142c.047 0 .094-.023.142-.023s.095 0 .165-.024c.048 0 .118-.024.166-.024h1.183c.355.024.709.048 1.04.118a7 7 0 0 1 1.87.616 7.8 7.8 0 0 1 1.537.993l.071.072.07.07c.048.048.096.095.166.142.071.048.095.095.143.142l.142.142c.19.213.354.402.52.615.308.402.568.828.78 1.206.024.024.024.048.048.072.023.023.023.047.047.07l.071.143.07.142a.3.3 0 0 1 .048.141c.072.19.142.355.19.52q.142.392.213.71c.023.071.094.143.19.119.094 0 .165-.071.165-.166.047-.284.023-.543 0-.851"/></g><defs><clipPath id="a"><path fill="#fff" d="M0 0h22v22H0z"/></clipPath></defs></g><rect x="0.3" y="0.3" width="21.4" height="21.4" rx="3" ry="3" fill="none" stroke="var(--cn-comp-avatar-shadow)" stroke-width="0.6"/></svg>