<svg xmlns="http://www.w3.org/2000/svg" fill="none" viewBox="0 0 20 20"><rect width="100%" height="100%" rx="2px" ry="2px" fill="#FF671D"/><g transform="translate(10, 10) scale(0.625) translate(-10, -10)"><g clip-path="url(#a)"><path fill="#fff" d="M19.171 8.818a6 6 0 0 0-.193-1.14 7.3 7.3 0 0 0-.517-1.377 8 8 0 0 0-.968-1.484c-.15-.193-.344-.387-.516-.559.28-1.118-.344-2.086-.344-2.086-1.075-.064-1.763.345-2.02.516a.3.3 0 0 0-.13-.043 2.5 2.5 0 0 0-.56-.193c-.193-.043-.386-.108-.602-.172a27 27 0 0 0-.623-.13c-.043 0-.065-.02-.108-.02C12.117.623 10.762 0 10.762 0 9.257.946 8.977 2.28 8.977 2.28s0 .021-.022.086l-.258.064c-.107.043-.236.086-.344.13-.107.042-.236.085-.344.128-.215.086-.451.215-.666.323-.215.129-.43.258-.624.387-.021-.022-.043-.022-.043-.022-2.086-.795-3.936.172-3.936.172-.129 2.216.86 3.614 1.054 3.872-.043.129-.086.28-.129.408-.15.495-.258 1.011-.344 1.548-.022.065-.022.151-.022.238-1.914.945-2.494 2.88-2.494 2.88 1.613 1.85 3.462 1.958 3.462 1.958.237.43.517.817.818 1.204.128.15.257.301.408.452-.58 1.677.086 3.054.086 3.054 1.785.064 2.968-.775 3.204-.968.172.064.366.107.538.172.538.15 1.119.215 1.678.258h.71C12.546 19.828 14.03 20 14.03 20c1.054-1.118 1.118-2.215 1.118-2.452v-.107a6.319 6.319 0 0 0 1.72-1.785c.023-.043.065-.086.087-.129 1.183.064 2.021-.731 2.021-.731-.194-1.247-.903-1.85-1.054-1.957h-.043s-.02 0-.02-.022c0-.064.02-.15.02-.215 0-.129.022-.258.022-.409v-.516c0-.043 0-.064-.022-.107l-.02-.108-.023-.107c-.021-.13-.042-.28-.086-.409a6.1 6.1 0 0 0-.602-1.505 5.5 5.5 0 0 0-1.01-1.205 4.7 4.7 0 0 0-1.27-.817c-.451-.193-.924-.344-1.397-.387a8 8 0 0 0-.71-.043h-.366c-.128 0-.236.021-.365.043a3.9 3.9 0 0 0-1.312.494c-.379.234-.72.524-1.01.861-.28.322-.495.71-.646 1.075-.15.37-.237.763-.258 1.162v.559c.022.193.043.387.108.56.107.364.258.687.473.967s.451.494.71.688c.258.172.537.3.817.387.28.086.537.107.817.107h.365c.043 0 .065-.02.087-.02s.064-.023.086-.023c.064-.02.107-.02.172-.043l.322-.128c.107-.043.194-.108.28-.173.02-.021.043-.043.064-.043a.203.203 0 0 0 .043-.28c-.064-.085-.172-.107-.258-.042-.022 0-.043.021-.065.043-.064.043-.15.064-.236.107l-.258.065c-.043 0-.086.021-.13.021h-.407a2.1 2.1 0 0 1-.603-.172 2.3 2.3 0 0 1-.559-.365 2.07 2.07 0 0 1-.667-1.226c-.021-.13-.021-.258-.021-.366v-.193c0-.065.021-.13.021-.194a2.58 2.58 0 0 1 .774-1.441q.162-.16.323-.258c.107-.086.237-.15.366-.215q.197-.095.409-.15c.15-.044.279-.065.43-.065h.451l.473.064c.301.065.602.173.903.345.567.322 1.03.8 1.334 1.376.15.301.258.602.301.925a1 1 0 0 1 .021.236v.516c0 .087-.021.173-.021.259-.022.086-.022.172-.043.258l-.064.258c-.043.172-.108.344-.173.516a4.6 4.6 0 0 1-.516.946c-.432.581-1 1.047-1.656 1.355q-.497.225-1.032.323a5 5 0 0 1-.538.043h-.279c-.108 0-.194 0-.28-.022a5 5 0 0 1-1.14-.194 6.6 6.6 0 0 1-1.075-.43 5.5 5.5 0 0 1-1.763-1.462q-.361-.452-.624-.967a6.3 6.3 0 0 1-.41-1.054 5 5 0 0 1-.193-1.118V10.3c0-.194.021-.366.043-.56.022-.193.065-.386.086-.58.022-.193.087-.387.129-.56a8 8 0 0 1 .387-1.053c.323-.666.732-1.269 1.205-1.742a6 6 0 0 1 .387-.344c.129-.108.258-.215.408-.301s.28-.172.43-.259c.065-.042.151-.085.215-.107a.4.4 0 0 1 .108-.042c.022 0 .086-.044.108-.044.15-.064.322-.129.473-.172.043-.021.086-.021.129-.043s.086-.021.129-.043l.258-.064c.043 0 .086-.022.13-.022.042 0 .085-.021.128-.021s.086-.022.129-.022h.13c.042 0 .085-.021.128-.021s.086 0 .15-.022c.044 0 .108-.021.151-.021h1.076c.322.021.644.043.946.107a6.3 6.3 0 0 1 1.699.56c.516.258.99.558 1.397.902l.065.065.065.065a1 1 0 0 0 .15.129c.064.043.086.086.13.129l.128.129c.173.193.323.365.474.559.28.366.516.753.71 1.097.02.021.02.043.042.064s.022.043.043.065l.065.129.064.13a.3.3 0 0 1 .043.128c.065.172.13.322.172.473q.13.355.194.645c.021.065.086.13.172.108.086 0 .15-.065.15-.15.044-.26.022-.495 0-.775"/></g><defs><clipPath id="a"><path fill="#fff" d="M0 0h20v20H0z"/></clipPath></defs></g></svg>