<svg xmlns="http://www.w3.org/2000/svg" fill="none" viewBox="0 0 20 20"><rect width="100%" height="100%" rx="2px" ry="2px" fill="#F6F6F7"/><g transform="translate(10, 10) scale(0.625) translate(-10, -10)"><g clip-path="url(#a)"><path fill="#131314" fill-rule="evenodd" d="M18.31.89a.8.8 0 0 1 .8.8v10.947a.8.8 0 0 1-.8.8h-4.873v4.573a1.1 1.1 0 0 1-1.1 1.1H1.991a1.1 1.1 0 0 1-1.1-1.1V7.663a1.1 1.1 0 0 1 1.1-1.1h4.573V1.69a.8.8 0 0 1 .8-.8zM2.09 17.91h10.147v-4.473h-3.91a1.31 1.31 0 1 1 0-1.2h3.91V7.763H2.09z" clip-rule="evenodd"/></g><defs><clipPath id="a"><path fill="#fff" d="M0 0h20v20H0z"/></clipPath></defs></g></svg>