<svg xmlns="http://www.w3.org/2000/svg" fill="none" viewBox="0 0 22 22" shape-rendering="geometricPrecision"><rect width="22" height="22" rx="3" ry="3" fill="#F6F6F7"/><g transform="translate(11, 11) scale(0.7) translate(-11, -11)"><g clip-path="url(#a)"><path fill="#131314" fill-rule="evenodd" d="M20.141.98a.88.88 0 0 1 .88.88V13.9a.88.88 0 0 1-.88.88h-5.36v5.03a1.21 1.21 0 0 1-1.21 1.21H2.19a1.21 1.21 0 0 1-1.21-1.21V8.43c0-.669.542-1.21 1.21-1.21h5.03V1.86A.88.88 0 0 1 8.1.98zM2.3 19.7h11.162v-4.92H9.159a1.44 1.44 0 1 1 0-1.319h4.301V8.539H7.89l-.01.001-.01-.001H2.3z" clip-rule="evenodd"/></g><defs><clipPath id="a"><path fill="#fff" d="M0 0h22v22H0z"/></clipPath></defs></g><rect x="0.3" y="0.3" width="21.4" height="21.4" rx="3" ry="3" fill="none" stroke="var(--cn-comp-avatar-shadow)" stroke-width="0.6"/></svg>