<svg xmlns="http://www.w3.org/2000/svg" fill="none" viewBox="0 0 22 22" shape-rendering="geometricPrecision"><rect width="22" height="22" rx="3" ry="3" fill="#7CBCF8"/><g transform="translate(11, 11) scale(0.7) translate(-11, -11)"><path fill="#0F1013" d="M11.213 16.84c0 .463-.087.54-.627.54s-.628-.077-.628-.54v-.426h1.255zM10.363 8.919c.493-.155 1.14-.117 1.71.115l.405.164-.192.203c-.213.232-.272.725-.107 1.015.135.27.619.435.86.3.193-.097.203-.078.203.318 0 1.255-1.034 2.193-2.29 2.067-1.217-.125-1.96-.88-2.038-2.049C8.847 10 9.36 9.247 10.363 8.92"/><path fill="#0F1013" fill-rule="evenodd" d="M11.128 6.335c2.71 0 4.898 2.102 4.899 4.681 0 2.58-2.188 4.68-4.899 4.681-2.71 0-4.898-2.102-4.898-4.68 0-2.58 2.188-4.682 4.898-4.682m-.036.443a4.274 4.274 0 1 0 0 8.55 4.274 4.274 0 0 0 0-8.55" clip-rule="evenodd"/><path fill="#0F1013" fill-rule="evenodd" d="M9.97 2.612c.615-.072 1.013.243 1.086.435.109.29.626.19.363-.073-.264-.263.144-.199.253-.145.217.11.218.58.508.58.288 0 .033-.268.181-.253.362.036.434.399.796.688.185.148.482.174 1.025.34a1.231 1.231 0 1 0 1.802.78q.272.147.579.33c2.245 1.34 3.079 4.382 3.26 7.534.064 1.108-.006 2.49-.218 3.837a1.993 1.993 0 1 0-1.102 3.66c-.436.806-.981 1.374-1.65 1.523-2.282.507-3.043-.832-3.406-1.122-.362-.29-2.096-1.92-4.527-.4-1.371.859-3.366 2.948-4.927.581-.871-1.322-2.041-4.937-1.547-8.984h.024a1.305 1.305 0 0 0 .5-2.51l.008-.027c1.522-4.998 6.738-5.36 7.1-5.832.436-.567-.573-.887-.108-.942m3.097 13.919c-.205-.116-2.936-.213-3.438-.126-.251.038-.444.145-.57.318-.405.54.154 1.082 1.371 1.343 1.034.222 2.57-.174 2.821-.724.136-.29.048-.695-.184-.811M11.128 6.06c-2.85 0-5.172 2.213-5.172 4.955s2.321 4.956 5.172 4.956 5.173-2.213 5.173-4.956c0-2.742-2.322-4.955-5.173-4.955m6.341 8.108a.725.725 0 1 0 0 1.45.725.725 0 0 0 0-1.45M3.087 12.936c-.38 0-.69.277-.69.617s.31.616.69.616.688-.276.688-.616-.309-.617-.688-.617m9.274-8.259a.544.544 0 1 0 0 1.088.544.544 0 0 0 0-1.088" clip-rule="evenodd"/><path fill="#0F1013" d="M2.76.08c.097-.155.802-.05 1.41.211.792.348 1.44 1.228 1.44 1.981 0 .107-.088.521-.194.917-.28 1.043-.26 1.517.078 1.923l.06.105L5 5.64c-.328.3-1.012.93-1.225 1.23-.36.511-.292.687-.29.694 0 0-1.266-.53-1.469-.86-.386-.637-.164-1.496.696-2.655.521-.705.648-.966.783-1.69.145-.764.018-1.277-.417-1.75C2.858.369 2.723.147 2.76.08M18.275.176c.588-.203 1.013-.232 1.11-.078.03.058-.096.27-.289.463-.424.445-.58.928-.492 1.585.106.763.289 1.189.82 1.904 1.15 1.555 1.18 2.55.069 3.188-.715.405-.397.223-.89-.453-.405-.56-.734-.933-1.333-1.396l-.55-.392c.241-.406.242-.803-.01-1.808-.25-.995-.194-1.497.231-2.057.406-.522.706-.734 1.334-.956"/></g><rect x="0.3" y="0.3" width="21.4" height="21.4" rx="3" ry="3" fill="none" stroke="var(--cn-comp-avatar-shadow)" stroke-width="0.6"/></svg>