<svg xmlns="http://www.w3.org/2000/svg" fill="none" viewBox="0 0 20 20"><rect width="100%" height="100%" rx="2px" ry="2px" fill="#7CBCF8"/><g transform="translate(10, 10) scale(0.625) translate(-10, -10)"><path fill="#131314" d="M10.194 15.309c0 .421-.08.492-.57.492-.492 0-.572-.07-.572-.492v-.387h1.142zM9.421 8.108c.448-.14 1.036-.106 1.554.105l.369.149-.175.184c-.193.211-.247.66-.098.923.123.246.563.395.783.272.175-.087.184-.07.184.29 0 1.141-.94 1.993-2.081 1.88-1.107-.115-1.783-.8-1.853-1.863-.061-.957.404-1.641 1.317-1.94"/><path fill="#131314" fill-rule="evenodd" d="M10.117 5.76c2.464 0 4.452 1.91 4.453 4.255 0 2.345-1.989 4.255-4.453 4.255s-4.453-1.91-4.453-4.255 1.989-4.256 4.453-4.256m-.033.402a3.886 3.886 0 1 0 0 7.772 3.886 3.886 0 0 0 0-7.772" clip-rule="evenodd"/><path fill="#131314" fill-rule="evenodd" d="M9.063 2.374c.56-.065.922.221.988.396.099.263.569.174.33-.066-.24-.24.131-.181.23-.132.197.1.198.527.462.527.262 0 .03-.244.164-.23.329.033.395.363.724.626.168.134.438.158.932.309a1.12 1.12 0 1 0 1.638.709q.246.133.526.3c2.041 1.218 2.8 3.984 2.964 6.848.058 1.008-.005 2.264-.198 3.49a1.812 1.812 0 1 0-1.002 3.328c-.396.731-.892 1.248-1.5 1.383-2.074.461-2.767-.756-3.096-1.02s-1.906-1.745-4.116-.363c-1.246.78-3.06 2.68-4.479.527-.792-1.201-1.856-4.488-1.406-8.167h.022A1.187 1.187 0 0 0 2.7 8.557l.007-.024C4.09 3.989 8.833 3.659 9.162 3.23c.396-.515-.521-.807-.099-.857m2.816 12.654c-.186-.105-2.669-.194-3.126-.115-.228.035-.403.132-.517.29-.37.491.14.983 1.246 1.22.94.202 2.336-.157 2.565-.658.122-.263.043-.631-.168-.737M10.118 5.51c-2.592 0-4.702 2.012-4.702 4.505s2.11 4.505 4.702 4.505 4.702-2.012 4.702-4.505-2.11-4.505-4.702-4.505m5.764 7.37a.659.659 0 1 0 0 1.319.659.659 0 0 0 0-1.318M2.806 11.76c-.346 0-.626.252-.626.56 0 .31.28.56.626.56.345 0 .626-.25.626-.56 0-.308-.28-.56-.626-.56m8.431-7.508a.495.495 0 1 0 .001.99.495.495 0 0 0 0-.99" clip-rule="evenodd"/><path fill="#131314" d="M2.51.072c.087-.14.728-.044 1.281.193.72.316 1.309 1.116 1.309 1.8 0 .097-.08.474-.176.834-.255.949-.237 1.38.07 1.748l.054.096-.503.385c-.298.272-.92.846-1.113 1.118-.327.465-.266.625-.263.632 0 0-1.151-.483-1.336-.782-.351-.58-.149-1.36.632-2.414.475-.641.59-.879.712-1.537.132-.694.017-1.16-.378-1.59-.202-.22-.324-.421-.29-.483M16.613.16c.536-.184.922-.21 1.01-.07.026.052-.087.245-.263.42-.386.404-.526.844-.448 1.44.097.695.263 1.082.746 1.732C18.703 5.095 18.73 6 17.721 6.58c-.65.368-.36.203-.809-.412-.368-.51-.667-.848-1.212-1.27l-.5-.356c.22-.369.22-.73-.009-1.643-.228-.904-.176-1.36.21-1.87.369-.474.642-.667 1.212-.869"/></g></svg>