<svg xmlns="http://www.w3.org/2000/svg" fill="none" viewBox="0 0 18 18"><rect width="100%" height="100%" fill="#7CBCF8"/><g transform="translate(9, 9) scale(0.8) translate(-9, -9)"><path fill="#0F0F11" d="M9.174 13.778c0 .379-.07.443-.513.443-.442 0-.514-.064-.514-.443v-.348h1.027zM8.479 7.297c.403-.126.932-.095 1.398.095l.332.134-.157.166c-.174.19-.222.593-.088.83.11.221.507.356.704.245.158-.079.166-.063.166.26a1.677 1.677 0 0 1-1.873 1.692c-.996-.102-1.604-.72-1.668-1.676-.055-.861.364-1.477 1.186-1.746"/><path fill="#0F0F11" fill-rule="evenodd" d="M9.105 5.183c2.218 0 4.008 1.72 4.008 3.83s-1.79 3.83-4.008 3.83-4.008-1.72-4.008-3.83 1.79-3.83 4.008-3.83m-.03.363a3.497 3.497 0 1 0 .001 6.994 3.497 3.497 0 0 0 0-6.994" clip-rule="evenodd"/><path fill="#0F0F11" fill-rule="evenodd" d="M8.157 2.137c.503-.06.83.199.889.356.089.237.512.156.296-.06-.215-.215.119-.163.208-.118.178.089.178.474.415.474.236 0 .027-.22.149-.207.295.03.355.327.651.563.15.121.394.143.838.278a1.008 1.008 0 1 0 1.475.639q.222.12.473.269c1.838 1.097 2.52 3.586 2.668 6.164.052.907-.005 2.038-.178 3.14a1.63 1.63 0 1 0-.902 2.995c-.356.66-.803 1.124-1.35 1.246-1.867.415-2.49-.68-2.787-.919-.296-.237-1.715-1.57-3.704-.326-1.122.702-2.754 2.412-4.031.475-.713-1.082-1.67-4.04-1.266-7.351h.02A1.068 1.068 0 0 0 2.43 7.7l.006-.021c1.245-4.09 5.513-4.387 5.81-4.772.357-.464-.47-.726-.09-.771m2.534 11.388c-.167-.095-2.402-.174-2.813-.103-.205.032-.363.118-.466.26-.332.443.126.886 1.122 1.099.845.182 2.102-.142 2.308-.592.11-.237.039-.569-.15-.664M9.106 4.96c-2.332 0-4.232 1.81-4.232 4.054s1.9 4.055 4.232 4.055 4.232-1.81 4.232-4.055c0-2.243-1.9-4.054-4.232-4.054m5.188 6.634a.593.593 0 1 0 0 1.186.593.593 0 0 0 0-1.186M2.525 10.584c-.31 0-.563.226-.563.505 0 .278.252.504.563.504s.564-.226.564-.505c0-.278-.253-.504-.564-.504m7.589-6.757a.445.445 0 1 0 0 .89.445.445 0 0 0 0-.89" clip-rule="evenodd"/><path fill="#0F0F11" d="M2.258.065c.08-.127.656-.04 1.154.173C4.06.523 4.59 1.242 4.59 1.86c0 .087-.072.426-.159.75-.229.854-.212 1.242.064 1.574l.049.085-.453.347c-.269.245-.828.762-1.002 1.007-.294.418-.24.562-.237.568 0 0-1.036-.435-1.202-.703-.316-.522-.134-1.225.569-2.173.427-.577.53-.791.64-1.384.119-.624.015-1.044-.34-1.431-.182-.197-.292-.379-.26-.434M14.952.144c.482-.166.83-.19.909-.064.023.048-.079.221-.237.38-.347.363-.474.758-.403 1.296.087.624.237.973.671 1.558.94 1.272.965 2.086.056 2.608-.584.332-.324.183-.727-.37-.332-.459-.6-.764-1.09-1.143l-.451-.32c.197-.333.197-.658-.008-1.48-.205-.814-.159-1.224.189-1.683.332-.427.577-.6 1.09-.782"/></g></svg>