<svg xmlns="http://www.w3.org/2000/svg" fill="none" viewBox="0 0 19 18"><rect width="100%" height="100%" rx="2px" ry="2px" fill="#1CAAD6"/><g transform="translate(9, 9) scale(0.5625) translate(-9, -9)"><path fill="#fff" d="M16.55 5.837 12.043 1.34A5.1 5.1 0 0 0 10.178.217C8.638-.294 7.106.105 5.864 1.34L1.346 5.837A5.1 5.1 0 0 0 .219 7.695c-.515 1.534-.115 3.061 1.127 4.296l4.513 4.497a5.1 5.1 0 0 0 1.863 1.123c.42.142.861.215 1.305.217 1.083 0 2.12-.456 3.009-1.34l4.51-4.497a5.1 5.1 0 0 0 1.13-1.858c.512-1.534.112-3.06-1.13-4.296zM9.295 2.645c.34.108.655.288.922.525L11.55 4.5l-2.6 2.59L6.35 4.5 7.69 3.16c.36-.357.867-.735 1.608-.518zm-6.636 5.92c.11-.34.29-.652.53-.918l1.333-1.329 2.6 2.591-2.602 2.592-1.341-1.338c-.36-.357-.738-.862-.522-1.6zM8.6 15.179a2.5 2.5 0 0 1-.922-.526l-1.33-1.314 2.6-2.593 2.601 2.592-1.34 1.338c-.36.356-.865.735-1.609.518zm6.64-5.908c-.11.34-.29.652-.527.918l-1.334 1.313-2.6-2.592 2.6-2.59 1.34 1.335c.36.357.739.862.523 1.6"/></g></svg>