<svg xmlns="http://www.w3.org/2000/svg" fill="none" viewBox="0 0 21 20"><rect width="100%" height="100%" rx="2px" ry="2px" fill="#1CAAD6"/><g transform="translate(10.5, 10) scale(0.625) translate(-10.5, -10)"><path fill="#fff" d="M18.39 6.485 13.38 1.49A5.7 5.7 0 0 0 11.31.24C9.597-.327 7.894.116 6.515 1.489l-5.02 4.996A5.7 5.7 0 0 0 .242 8.55c-.572 1.705-.127 3.401 1.252 4.774L6.51 18.32a5.7 5.7 0 0 0 2.07 1.248c.467.157.957.239 1.45.241 1.203 0 2.355-.506 3.343-1.489l5.012-4.996c.562-.591.99-1.295 1.254-2.065.57-1.705.125-3.4-1.254-4.774zm-8.062-3.547c.378.121.727.32 1.024.584l1.482 1.479-2.89 2.877-2.89-2.88 1.49-1.486c.4-.396.964-.817 1.788-.576zm-7.374 6.58a2.8 2.8 0 0 1 .588-1.021L5.024 7.02l2.89 2.88-2.892 2.878-1.49-1.486c-.4-.396-.82-.958-.58-1.779zm6.603 7.346a2.8 2.8 0 0 1-1.025-.584l-1.477-1.46 2.89-2.88 2.889 2.878-1.49 1.487c-.4.396-.961.817-1.787.576zm7.377-6.564a2.8 2.8 0 0 1-.586 1.02l-1.481 1.458-2.89-2.879 2.89-2.879 1.49 1.485c.4.396.82.957.58 1.778"/></g></svg>