<svg xmlns="http://www.w3.org/2000/svg" fill="none" viewBox="0 0 18 18"><rect width="100%" height="100%" rx="2px" ry="2px" fill="#0F1689"/><g transform="translate(9, 9) scale(0.5625) translate(-9, -9)"><path fill="#fff" d="M9.62 2.286q.012.423-.092.832c-.02.074-.002.086.067.094.9.103 1.735.388 2.5.873.09.057.107.026.14-.055a3.5 3.5 0 0 1 1.004-1.393c.152-.127.315-.24.516-.277.203-.037.331.062.352.268.02.2-.025.392-.097.577a3.5 3.5 0 0 1-1.002 1.425c-.069.06-.08.088-.007.156.362.335.67.716.937 1.13.043.067.044.1-.03.143a18 18 0 0 0-.63.38c-.069.044-.104.044-.151-.031a4.7 4.7 0 0 0-1.146-1.257c-.742-.568-1.575-.918-2.508-1-1.835-.164-3.327.485-4.48 1.913l-.064.084c-.162.227-.162.227-.392.079q-.232-.152-.466-.298c-.068-.041-.09-.072-.037-.15.27-.392.576-.751.93-1.069.073-.065.08-.094.005-.167-.465-.449-.821-.966-.98-1.602a.9.9 0 0 1-.015-.352c.026-.17.151-.258.32-.233.214.031.384.149.543.281.425.355.74.793.963 1.297.041.094.071.1.157.05a5.7 5.7 0 0 1 2.462-.78c.116-.01.13-.047.108-.155-.12-.587-.117-1.173.06-1.75.042-.14.1-.271.192-.386.162-.203.352-.203.513.005.16.206.223.452.273.702q.064.33.055.666M8.446 15.72c.01-.223.006-.447.058-.666.02-.081.022-.129-.094-.139a5.8 5.8 0 0 1-2.508-.812c-.08-.048-.102-.03-.139.045-.224.468-.524.88-.926 1.214-.152.126-.314.24-.516.277-.203.037-.331-.06-.352-.267-.02-.2.026-.391.096-.577.182-.483.462-.904.829-1.265.088-.087.074-.125-.008-.199a5.5 5.5 0 0 1-.733-.825c-.05-.066-.055-.101.021-.151q.303-.198.596-.412c.073-.053.11-.049.164.026a4.8 4.8 0 0 0 1.641 1.434 4.87 4.87 0 0 0 3.15.532c1.343-.218 2.417-.883 3.227-1.97.051-.068.087-.089.164-.031q.292.214.596.411c.07.047.081.077.027.15a6 6 0 0 1-.683.781c-.064.06-.051.085.006.139.49.458.861.99 1.026 1.65a.9.9 0 0 1 .015.339c-.025.176-.15.266-.328.239-.208-.032-.375-.147-.53-.277a3.54 3.54 0 0 1-.978-1.318c-.037-.082-.06-.088-.134-.041a5.76 5.76 0 0 1-2.507.892c-.086.01-.08.039-.068.108a3.6 3.6 0 0 1-.046 1.6c-.048.178-.113.35-.235.494-.156.183-.337.185-.488-.004-.193-.241-.252-.534-.304-.828-.033-.182-.028-.366-.04-.55M13.626 8.534c.16.879.162 1.752.158 2.625-.001.12-.033.147-.147.143-.26-.009-.519-.006-.778-.001-.083.002-.102-.024-.102-.104q.003-2.049 0-4.098c0-.086.023-.111.11-.11q.494.009.989-.001c.099-.002.136.035.166.121.276.774.591 1.534.802 2.33.006.025.019.047.033.081.058-.076.067-.16.088-.238.21-.75.495-1.475.746-2.21.022-.067.058-.083.125-.083q.508.007 1.015 0c.086-.002.1.03.1.106a1556 1556 0 0 0 0 4.099c0 .074-.01.109-.098.107a20 20 0 0 0-.83 0c-.088.002-.1-.033-.1-.107-.004-.82-.014-1.638.12-2.45.01-.052.008-.105.01-.157 0-.01-.007-.022-.019-.06l-.114.34c-.222.668-.481 1.323-.72 1.985-.03.08-.07.107-.154.102a5 5 0 0 0-.409 0c-.063.002-.094-.02-.115-.079-.272-.747-.572-1.485-.796-2.25-.009-.03-.01-.07-.08-.091M4.63 9.145q-.002 1.012.002 2.023c0 .096-.015.137-.126.134a19 19 0 0 0-.897 0c-.09 0-.119-.022-.118-.116.005-.486 0-.972.005-1.458 0-.098-.02-.136-.13-.134q-.513.012-1.028 0c-.115-.002-.135.038-.134.142.005.481 0 .963.005 1.444.001.102-.03.123-.125.121a27 27 0 0 0-.91 0c-.077 0-.106-.015-.106-.1q.004-2.055 0-4.111c0-.084.028-.102.106-.1q.454.006.91-.001c.096-.002.126.02.125.121-.006.447 0 .893-.005 1.34-.001.104.02.144.134.141q.515-.012 1.029 0c.11.003.13-.035.129-.134-.005-.45 0-.902-.005-1.353 0-.093.027-.117.118-.115.299.005.598.008.897-.001.112-.003.126.039.126.135q-.004 1.011-.002 2.022M5.556 9.15q.001-1.018-.002-2.035c-.001-.094.015-.127.12-.127q1.266.007 2.532 0c.095 0 .13.018.127.121q-.01.361 0 .723c.002.089-.029.108-.112.108-.466-.004-.933 0-1.399-.004-.1-.001-.135.02-.133.128.006.233.007.188 0 .42-.002.102.023.135.13.133.382-.007.765.002 1.148-.005.108-.002.13.033.128.133q-.01.367 0 .735c.002.087-.025.111-.111.11-.387-.004-.774.001-1.161-.004-.098 0-.136.017-.134.127.003.178-.002.354 0 .526.002.094.029.115.12.115.487-.004.975 0 1.464-.005.101 0 .135.024.131.13-.008.236-.005.472 0 .709 0 .08-.016.113-.107.113q-1.32-.006-2.638 0c-.094 0-.105-.035-.105-.114q.003-1.018.002-2.036M9.25 9.141c0-.674.002-1.348-.003-2.023 0-.102.025-.132.13-.13q.442.012.884 0c.11-.003.127.036.127.133-.004 1.03 0 2.058-.005 3.087 0 .11.019.15.142.147.457-.008.914 0 1.371-.006.102-.001.125.03.122.126q-.008.36 0 .722c.002.08-.021.104-.103.104q-1.28-.004-2.559 0c-.088 0-.109-.026-.108-.11q.003-1.024.001-2.05"/></g></svg>