<svg xmlns="http://www.w3.org/2000/svg" fill="none" viewBox="0 0 22 22"><rect width="100%" height="100%" rx="2px" ry="2px" fill="#0F1689"/><g transform="translate(11, 11) scale(0.625) translate(-11, -11)"><path fill="#fff" d="M11.758 2.794c.008.344-.026.684-.113 1.017-.023.09-.002.105.082.115a7.14 7.14 0 0 1 3.055 1.067c.11.07.131.031.172-.067a4.3 4.3 0 0 1 1.227-1.703c.185-.155.384-.293.63-.338.25-.045.406.075.43.327.026.246-.03.48-.117.705a4.3 4.3 0 0 1-1.225 1.742c-.084.072-.1.107-.01.19.443.41.82.875 1.146 1.383.052.08.054.121-.035.173q-.39.225-.771.466c-.084.053-.127.053-.185-.04a5.8 5.8 0 0 0-1.401-1.535c-.906-.694-1.925-1.122-3.065-1.224-2.243-.199-4.067.594-5.475 2.34l-.078.102c-.199.278-.199.278-.48.097-.19-.122-.377-.247-.57-.364-.083-.051-.11-.088-.045-.183.33-.48.704-.919 1.137-1.307.089-.08.098-.115.006-.204-.568-.549-1.004-1.182-1.198-1.959a1.1 1.1 0 0 1-.018-.43c.032-.206.185-.315.392-.285.26.038.468.182.662.344.52.434.906.97 1.178 1.585.05.115.087.123.192.061a6.96 6.96 0 0 1 3.009-.953c.142-.011.158-.058.132-.19-.147-.717-.143-1.433.073-2.14.052-.169.123-.33.235-.47.198-.248.43-.248.627.005.196.253.273.554.333.86.054.268.073.54.068.813M10.323 19.213c.012-.273.008-.546.071-.814.024-.099.027-.157-.116-.17a7.1 7.1 0 0 1-3.064-.992c-.098-.059-.126-.037-.17.056a4.3 4.3 0 0 1-1.132 1.482c-.186.155-.384.294-.63.34-.25.045-.406-.075-.432-.327-.025-.245.032-.478.118-.705a4.3 4.3 0 0 1 1.013-1.546c.108-.107.091-.154-.01-.243a6.7 6.7 0 0 1-.895-1.008c-.06-.082-.067-.125.026-.185q.37-.243.728-.504c.089-.065.133-.06.2.032a5.86 5.86 0 0 0 2.006 1.752c1.21.645 2.494.872 3.85.651 1.642-.267 2.954-1.08 3.945-2.408.062-.083.105-.109.2-.039q.356.262.728.504c.086.057.1.093.033.182-.253.34-.524.665-.834.955-.079.074-.063.104.007.17.598.56 1.052 1.21 1.254 2.016q.05.206.018.415c-.031.215-.184.325-.4.292-.255-.04-.459-.18-.65-.338a4.3 4.3 0 0 1-1.195-1.611c-.044-.1-.073-.108-.163-.05a7.04 7.04 0 0 1-3.064 1.09c-.105.011-.099.047-.084.131.118.656.117 1.31-.056 1.956-.058.218-.137.429-.287.604-.19.224-.411.226-.596-.005-.236-.294-.308-.652-.372-1.012-.04-.222-.034-.447-.047-.671M16.654 10.43c.196 1.074.198 2.141.192 3.21 0 .144-.04.178-.179.173-.316-.01-.634-.007-.95 0-.102.001-.126-.03-.125-.127q.004-2.505 0-5.01c0-.105.027-.136.133-.134q.605.01 1.21-.001c.12-.003.166.043.203.148.337.946.723 1.875.98 2.848.008.03.023.058.04.099.072-.094.082-.197.108-.291.256-.917.605-1.803.912-2.702.027-.08.071-.101.152-.1q.621.006 1.242-.001c.105-.002.123.037.122.13q-.003 2.505 0 5.01c0 .09-.012.133-.12.13a25 25 0 0 0-1.016 0c-.106.003-.121-.04-.121-.131-.005-1-.017-2.001.147-2.994.01-.063.009-.128.011-.192 0-.013-.008-.026-.022-.073l-.14.415c-.27.817-.588 1.617-.88 2.426-.035.098-.086.13-.188.126a6 6 0 0 0-.5 0c-.077.002-.114-.026-.14-.097-.333-.913-.7-1.815-.973-2.75-.01-.037-.013-.085-.098-.112M5.659 11.178c0 .824-.002 1.648.002 2.472 0 .117-.018.168-.154.163a23 23 0 0 0-1.096 0c-.11.002-.145-.026-.144-.14.006-.595 0-1.189.005-1.783.001-.12-.023-.167-.157-.164q-.629.015-1.257 0c-.14-.003-.166.046-.164.173.006.589-.001 1.178.006 1.766.002.124-.037.15-.153.148a34 34 0 0 0-1.112-.001c-.095.001-.13-.018-.13-.122q.006-2.513 0-5.025c0-.103.034-.124.13-.123q.555.009 1.112 0c.118-.003.154.025.153.148-.007.546 0 1.092-.006 1.638-.002.127.024.175.164.172q.629-.015 1.257 0c.134.003.159-.043.157-.164-.006-.55.001-1.102-.005-1.653-.001-.114.032-.143.144-.141.366.007.731.01 1.096-.001.137-.004.155.047.154.164q-.004 1.237-.002 2.473M6.79 11.184q.002-1.245-.002-2.488c-.001-.114.02-.156.147-.155q1.547.008 3.095 0c.115 0 .16.022.155.148q-.013.442 0 .883c.002.109-.035.133-.138.132-.57-.004-1.139.002-1.708-.005-.123 0-.166.025-.163.157.006.285.008.23 0 .514-.003.124.027.165.158.162.468-.008.936.002 1.403-.007.132-.002.16.041.157.163q-.011.45 0 .899c.002.106-.03.136-.136.134-.473-.005-.946.002-1.419-.004-.12-.002-.166.02-.163.155.003.217-.003.432 0 .642.002.116.035.142.145.14.597-.005 1.193.002 1.79-.005.124-.001.165.029.16.158-.01.289-.006.578 0 .867.002.099-.019.139-.13.138a385 385 0 0 0-3.225 0c-.115.001-.128-.043-.128-.139q.003-1.245.002-2.489M11.305 11.173c0-.824.003-1.649-.003-2.473 0-.125.03-.162.159-.159q.54.015 1.08 0c.134-.004.155.043.155.163-.004 1.257 0 2.515-.005 3.773-.001.135.022.182.172.18.559-.011 1.118 0 1.677-.008.124-.001.153.036.15.153q-.013.443-.001.883c.002.099-.026.127-.126.127a435 435 0 0 0-3.128 0c-.107 0-.133-.031-.132-.134q.004-1.252.002-2.505"/></g></svg>