<svg xmlns="http://www.w3.org/2000/svg" fill="none" viewBox="0 0 20 20"><rect width="100%" height="100%" rx="2px" ry="2px" fill="#0F1689"/><g transform="translate(10, 10) scale(0.625) translate(-10, -10)"><path fill="#fff" d="M10.69 2.54c.006.313-.024.622-.104.925-.02.082-.001.095.075.104 1 .114 1.928.432 2.777.97.1.064.12.029.156-.061A3.9 3.9 0 0 1 14.71 2.93c.169-.141.35-.267.574-.307.225-.041.367.068.39.297.023.223-.028.436-.107.641q-.358.931-1.114 1.584c-.076.065-.09.097-.008.173.402.373.745.795 1.042 1.256.047.074.049.11-.033.158q-.355.205-.7.423c-.077.048-.116.048-.168-.035a5.3 5.3 0 0 0-1.274-1.396c-.824-.631-1.75-1.02-2.787-1.113-2.039-.18-3.697.54-4.977 2.127q-.037.045-.07.093c-.181.252-.181.253-.437.088-.173-.111-.343-.225-.518-.331-.076-.046-.1-.08-.04-.166.299-.436.64-.835 1.033-1.188.08-.073.089-.105.005-.186-.517-.499-.913-1.074-1.09-1.78a1 1 0 0 1-.016-.392c.03-.187.168-.286.357-.259.236.035.425.166.602.313.472.395.823.881 1.07 1.441.046.104.08.112.175.056a6.3 6.3 0 0 1 2.736-.867c.128-.01.143-.053.12-.172-.134-.653-.13-1.303.066-1.945.047-.155.112-.301.213-.429.18-.225.392-.225.57.005.179.23.248.504.304.781q.07.368.061.74M9.384 17.466c.011-.247.007-.496.065-.74.022-.09.024-.142-.105-.154a6.46 6.46 0 0 1-2.786-.902c-.09-.053-.114-.033-.154.05a3.9 3.9 0 0 1-1.03 1.348c-.169.141-.349.267-.573.308-.226.042-.368-.067-.391-.296-.023-.223.029-.435.106-.641a3.9 3.9 0 0 1 .921-1.406c.099-.096.083-.139-.008-.22a6 6 0 0 1-.814-.917c-.055-.074-.061-.113.023-.168q.336-.22.662-.458c.08-.059.121-.054.182.03a5.3 5.3 0 0 0 1.824 1.592c1.099.586 2.267.792 3.5.592 1.492-.243 2.685-.982 3.586-2.19.056-.075.095-.098.182-.035.215.16.437.31.661.458.079.052.09.085.03.166a6.4 6.4 0 0 1-.758.868c-.072.067-.057.095.007.154.543.51.956 1.101 1.14 1.833a1 1 0 0 1 .016.377c-.028.196-.168.296-.364.266-.232-.036-.417-.163-.59-.307a3.9 3.9 0 0 1-1.086-1.465c-.04-.091-.068-.098-.15-.046q-1.276.822-2.784.991c-.096.01-.09.044-.076.12.106.596.106 1.19-.052 1.778-.053.198-.125.39-.26.55-.173.203-.374.204-.542-.005-.215-.268-.28-.593-.339-.92-.036-.202-.03-.407-.043-.61M15.14 9.482c.178.976.18 1.946.175 2.917 0 .132-.036.163-.163.159-.288-.01-.576-.007-.864-.001-.093.002-.114-.027-.114-.115q.005-2.277 0-4.555c0-.095.025-.123.122-.122q.55.01 1.1 0c.11-.003.15.039.184.134.306.86.657 1.705.891 2.59.007.026.021.052.037.089.064-.085.074-.179.098-.265.232-.833.55-1.638.828-2.456.025-.073.065-.092.139-.091q.565.007 1.129 0c.095-.002.111.033.111.117q-.003 2.277 0 4.555c0 .082-.011.12-.11.119a22 22 0 0 0-.923 0c-.097.002-.11-.037-.11-.12-.004-.91-.015-1.82.134-2.722.01-.057.008-.116.01-.174 0-.012-.007-.024-.02-.067l-.127.378c-.247.742-.535 1.47-.8 2.205-.033.09-.079.12-.171.114a5 5 0 0 0-.455 0c-.07.003-.104-.023-.128-.087-.302-.83-.635-1.65-.884-2.5-.01-.034-.012-.078-.089-.102M5.144 10.162q-.002 1.124.002 2.247c.001.107-.016.152-.14.149q-.497-.013-.996-.001c-.1.002-.132-.023-.13-.128.005-.54-.001-1.08.004-1.62.001-.11-.021-.151-.143-.149q-.57.014-1.143 0c-.128-.003-.15.042-.149.158.006.534-.001 1.07.006 1.605 0 .113-.034.136-.14.134a30 30 0 0 0-1.01 0c-.087 0-.118-.017-.118-.112q.004-2.283 0-4.567c0-.094.03-.113.117-.112q.506.008 1.011 0c.107-.003.14.022.14.134-.007.496 0 .993-.006 1.489-.002.116.022.16.15.157q.57-.014 1.142 0c.122.002.144-.04.143-.15-.005-.5 0-1.001-.005-1.502 0-.104.03-.13.131-.129q.498.012.997 0c.124-.004.14.043.14.15-.005.748-.003 1.497-.003 2.247M6.173 10.168c0-.755.002-1.509-.002-2.263-.001-.103.017-.141.133-.14q1.407.007 2.814 0c.105 0 .145.02.141.134q-.012.402 0 .803c.002.099-.032.12-.125.12-.518-.004-1.036.001-1.553-.004-.112-.001-.151.022-.148.142.005.26.007.209 0 .467-.003.113.024.15.144.148.425-.008.85.001 1.275-.006.12-.003.145.036.142.147a16 16 0 0 0 0 .818c.002.096-.027.123-.123.122-.43-.005-.86.001-1.29-.005-.109 0-.15.02-.149.142.004.197-.002.392 0 .583.003.106.032.129.133.128.542-.005 1.084.001 1.627-.005.113 0 .15.026.146.144-.01.262-.006.525-.001.788.002.09-.017.126-.118.126q-1.466-.006-2.932 0c-.104 0-.116-.04-.116-.127q.003-1.131.002-2.262M10.277 10.157c0-.75.003-1.498-.002-2.248-.001-.114.028-.147.144-.144q.491.013.982 0c.122-.004.141.039.14.147-.003 1.144 0 2.287-.004 3.43 0 .123.02.166.157.164.508-.01 1.016 0 1.524-.007.113-.001.139.033.136.14q-.01.401 0 .802c.001.09-.024.116-.115.115q-1.422-.005-2.843 0c-.098 0-.121-.028-.12-.122q.003-1.139.001-2.277"/></g></svg>