<svg xmlns="http://www.w3.org/2000/svg" fill="none" viewBox="0 0 18 18"><rect width="100%" height="100%" fill="#FF5C35"/><g transform="translate(9, 9) scale(0.8) translate(-9, -9)"><path fill="#fff" d="M13.208 6.223V4.28a1.5 1.5 0 0 0 .864-1.35v-.045a1.5 1.5 0 0 0-1.496-1.497h-.046a1.5 1.5 0 0 0-1.497 1.496v.046a1.5 1.5 0 0 0 .855 1.346l.009.004v1.947a4.25 4.25 0 0 0-2.027.894l.009-.007-5.342-4.16a1.704 1.704 0 1 0-.79 1.034l-.009.004 5.253 4.089a4.2 4.2 0 0 0-.709 2.351c0 .917.29 1.766.783 2.462l-.009-.014-1.598 1.6a1.3 1.3 0 0 0-.396-.066h-.001a1.387 1.387 0 1 0 1.387 1.388 1.4 1.4 0 0 0-.068-.406l.003.01 1.582-1.582a4.264 4.264 0 1 0 3.263-7.598l-.025-.003zm-.658 6.4a2.188 2.188 0 1 1 2.194-2.19v.002a2.19 2.19 0 0 1-2.189 2.189z"/></g></svg>