<svg xmlns="http://www.w3.org/2000/svg" fill="none" viewBox="0 0 22 22"><rect width="100%" height="100%" rx="2px" ry="2px" fill="#FF5C35"/><g transform="translate(11, 11) scale(0.625) translate(-11, -11)"><path fill="#fff" d="M16.142 7.605V5.232a1.83 1.83 0 0 0 1.057-1.65v-.056a1.835 1.835 0 0 0-1.829-1.83h-.056a1.835 1.835 0 0 0-1.829 1.829v.056a1.83 1.83 0 0 0 1.044 1.645l.011.006V7.61a5.2 5.2 0 0 0-2.476 1.093l.01-.008-6.53-5.084a2.083 2.083 0 1 0-.965 1.264l-.01.005 6.42 4.996a5.15 5.15 0 0 0-.866 2.875c0 1.12.354 2.158.957 3.008l-.011-.016-1.954 1.954a1.6 1.6 0 0 0-.483-.08H8.63a1.696 1.696 0 1 0 1.696 1.696 1.7 1.7 0 0 0-.084-.496l.004.012 1.933-1.933a5.21 5.21 0 1 0 3.989-9.287l-.03-.004zm-.803 7.822a2.674 2.674 0 1 1 2.681-2.675v.002a2.674 2.674 0 0 1-2.675 2.675z"/></g></svg>