<svg xmlns="http://www.w3.org/2000/svg" fill="none" viewBox="0 0 20 20"><rect width="100%" height="100%" rx="2px" ry="2px" fill="#FF5C35" stroke="var(--cn-comp-avatar-shadow)" stroke-width="0.6"/><g transform="translate(10, 10) scale(0.625) translate(-10, -10)"><path fill="#fff" d="M14.675 6.914V4.756a1.67 1.67 0 0 0 .96-1.5v-.05a1.67 1.67 0 0 0-1.662-1.664h-.05a1.67 1.67 0 0 0-1.664 1.663v.05a1.67 1.67 0 0 0 .95 1.496l.01.005v2.162a4.7 4.7 0 0 0-2.252.994l.01-.008L5.04 3.283a1.893 1.893 0 1 0-.878 1.148l-.01.005L9.99 8.979a4.7 4.7 0 0 0-.787 2.613c0 1.018.322 1.962.87 2.735l-.01-.016-1.776 1.777a1.5 1.5 0 0 0-.44-.072h-.002a1.541 1.541 0 1 0 1.542 1.542 1.5 1.5 0 0 0-.076-.452l.004.01 1.757-1.756a4.737 4.737 0 1 0 3.626-8.442l-.027-.004zm-.73 7.11a2.432 2.432 0 1 1 2.437-2.43 2.43 2.43 0 0 1-2.432 2.432z"/></g></svg>