<svg xmlns="http://www.w3.org/2000/svg" fill="none" viewBox="0 0 20 20"><rect width="100%" height="100%" rx="2px" ry="2px" fill="#F6F6F7"/><g transform="translate(10, 10) scale(0.625) translate(-10, -10)"><path fill="#111112" fill-rule="evenodd" d="M7.42 1.375c.255 0 .497.112.662.303l.066.087 2.458 3.687a.88.88 0 0 1 0 .971L8.221 10l2.385 3.577a.88.88 0 0 1 0 .971l-2.458 3.687a.88.88 0 0 1-.729.39H3.76a.88.88 0 0 1-.728-.39L.572 14.548a.88.88 0 0 1 0-.971L2.956 10 .572 6.423a.88.88 0 0 1 0-.971l2.459-3.687.066-.087a.88.88 0 0 1 .661-.303zM1.45 14.063l2.374 3.562h3.53l2.373-3.562L7.353 10.5H3.824zm0-8.126L3.824 9.5h3.53l2.373-3.562-2.374-3.563H3.824z" clip-rule="evenodd"/><path fill="#111112" d="M16.242 5.437c.256 0 .498.113.663.304l.066.087 2.459 3.686a.88.88 0 0 1 0 .972l-2.459 3.686a.88.88 0 0 1-.729.391h-3.66a.88.88 0 0 1-.728-.39l-2.459-3.687a.88.88 0 0 1 0-.972l2.459-3.686.066-.087a.88.88 0 0 1 .662-.304z"/></g></svg>