<svg xmlns="http://www.w3.org/2000/svg" fill="none" viewBox="0 0 18 18"><rect width="100%" height="100%" fill="#00758F"/><g transform="translate(9, 9) scale(0.8) translate(-9, -9)"><path fill="#fff" d="M11.514 12.492c-.448.126-1.455.332-2.895.332-1.414 0-2.569-.241-2.572-.527 0-.187.227-.271.227-.271L6.233 12c-.677.12-1.305.305-1.302.583.006.501 1.928.879 3.685.879 1.498 0 2.93-.251 3.577-.58zm-4.775 1.553c-.314.063-.999.22-.999.552 0 .462 1.465.814 2.878.814 1.944 0 2.74-.5 2.776-.526l-.808-.468a7.8 7.8 0 0 1-1.966.21c-1.165 0-1.922-.2-1.922-.417a.19.19 0 0 1 .082-.142zm7.945-3.1c-.054 1.042-1.018 1.693-1.982 2.242l.088.05c1.03-.29 2.863-1.13 2.715-2.426-.075-.646-.665-1.107-1.435-1.107-.212 0-.423.032-.625.094l-.038.093c.688-.134 1.317.368 1.282 1.053m-6.093 6.124c2.704-.024 5.73-.553 5.723-1.443a.43.43 0 0 0-.197-.339l-.045.026c-.25.689-2.363 1.198-5.486 1.225-2.015.018-4.805-.468-4.81-1.023s1.322-.867 1.322-.867l-.094-.053c-.89.121-2.527.547-2.523 1.162.009.889 3.774 1.331 6.11 1.312m-.281.634a21.3 21.3 0 0 1-3.493-.265l-.103.06c1.101.323 2.632.517 4.315.502 3.304-.029 5.983-.848 6.037-1.835l-.039-.022c-.22.27-1.65 1.516-6.717 1.56m-4.142-6.997c0-.498 1.89-.778 2.771-.843l.085.049c-.34.06-1.696.3-1.696.613 0 .34 2.08.562 3.29.562 2.052 0 3.447-.31 3.822-.413l.525.305c-.36.176-1.902.637-4.347.637-2.715 0-4.45-.531-4.45-.908"/><path fill="#fff" d="m12.377 3.742-.046-.026c-.826.28-3.37 1.28-3.37 3.151 0 1.06 1.03 1.645 1.03 2.638 0 .353-.2.686-.363.884l.082.047c.43-.28 1.191-.885 1.191-1.667 0-.662-.916-1.458-.916-2.309 0-1.341 1.768-2.393 2.387-2.72m-1.244-2.452c0 2.77-3.795 3.829-3.795 5.799 0 1.382.915 2.246 1.423 2.798l-.041.023c-.64-.4-2.326-1.404-2.326-3.07 0-2.334 4.36-3.45 4.36-6.101a3 3 0 0 0-.082-.712L10.711 0c.28.37.427.824.417 1.288"/></g></svg>