<svg xmlns="http://www.w3.org/2000/svg" fill="none" viewBox="0 0 22 22"><rect width="100%" height="100%" rx="2px" ry="2px" fill="#D24939"/><g transform="translate(11, 11) scale(0.625) translate(-11, -11)"><path fill="#fff" d="M2.633 22h-.894a4 4 0 0 1-.064-.18c-.197-.611-.545-1.367-.635-1.975-.133-.902.715-.953 1.26-1.343.839-.605 1.499-.94 2.408-1.485.27-.164 1.084-.572 1.174-.76.184-.374-.316-.9-.449-1.192-.206-.464-.316-.858-.345-1.315-.755-.12-1.333-.575-1.69-1.086-.577-.848-.977-2.416-.481-3.608.041-.095.233-.28.261-.425.055-.282-.096-.66-.11-.96-.055-1.551.26-2.888 1.306-3.355.425-1.687 1.937-2.249 3.367-3.087C8.273.916 8.863.714 9.474.49c2.174-.803 5.525-.652 7.328.718.766.58 1.994 1.806 2.434 2.694 1.157 2.342 1.073 6.257.263 9.107-.11.385-.265.946-.488 1.405-.154.32-.632.962-.573 1.246.059.288 1.09 1.073 1.313 1.28.397.386 1.154.893 1.213 1.374.064.51-.227 1.225-.376 1.719-.199.66-.4 1.32-.6 1.953H2.632zm10.178-3.245a7 7 0 0 0-1.893-.694c-.797-.15-.715 1.089-.687 1.828.027.59.33 1.206.467 1.599.07.18.083.375.235.411.275.063 1.183-.299 1.444-.439.55-.3.975-.774 1.443-1.09.014-.156.014-.312.027-.466a2.4 2.4 0 0 0-1.004-.253c.288-.138.688-.138.95-.305l.014-.177c-.455-.027-.633-.233-.936-.4zm6.833 2.69q.255-.791.426-1.606c.055-.263.197-.841.164-1.078-.055-.42-.627-.732-.92-.995-.536-.481-.872-.894-1.43-1.347-.229.344-.716.564-.902.838 1.327-.632 1.568 2.406 1.046 3.383.083.301.359.412.471.673l-.079.152h1.183c.012 0 .027 0 .04.013zm-6.081-.01c-.046-.069-.092-.124-.138-.192l-.275.179h.412zm2.54 0c.006-.192.016-.371.027-.549-.486.027-.757-.44-1.097-.483-.297-.041-.55.331-.935.179-.087.096-.167.208-.26.29q.211.247.389.535h.747c.013-.15.123-.261.275-.261.151 0 .26.11.26.247h.605zm1.939 0c-.288-.44-.868-.824-1.54-.51l-.028.497h1.568zm-7.801 0-.095-.316c-.207-.66-.33-1.155-.372-1.54-.837-.4-1.718-.797-2.432-1.307-.138-.096-1.017-1.238-1.128-1.196-1.594.62-3.079 1.705-4.413 2.735.235.51.44 1.046.633 1.595h7.796zm7.576-1.937c-.026-.47-.15-1.43-.44-1.596-.605-.357-1.692.715-2.145.865.042.137.124.248.138.44.261-.068.591-.027.823.084-.274.028-.577.028-.755.15-.068.18.014.44-.027.7.633.182 1.375.279 2.186.305.15-.208.206-.591.194-.992zm-3.74-.33c-.04.343.042.467.11.864 1.155.358.948-1.595-.123-.88zM8.03 17.875c-.412.419 1.164.992 1.663 1.022 0-.266.151-.517.124-.706-.596-.108-1.377-.038-1.783-.318zm5.101.197c0 .04-.056.027-.062.059.532.413.93.5 1.652.467.324-.24.614-.516.956-.74-.784.068-1.77.557-2.543.211zm3.135-16.249c-1.472-.83-3.987-1.458-5.57-.67C9.433 1.787 7.7 2.84 7.124 4.171c.55 1.285-.153 2.462-.208 3.766-.016.694.33 1.302.359 2.056-.184.31-.756.348-1.155.326-.134-.668-.367-1.42-1.059-1.494-.975-.107-1.691.7-1.732 1.543-.055.99.763 2.625 1.91 2.516.448-.043.558-.495 1.045-.495.261.522-.408.687-.48 1.058-.014.096.055.468.096.646.213.865.682 1.98 1.141 2.64.582.825 1.727.963 2.96 1.046.22-.482 1.031-.44 1.564-.317-.634-.248-1.225-.867-1.719-1.402-.564-.62-1.128-1.292-1.156-2.09 1.059 1.47 1.925 2.75 3.85 3.395 1.458.482 3.163-.232 4.275-1.016.468-.33.744-.853 1.073-1.32 1.237-1.774 1.815-4.317 1.692-6.777-.055-1.019-.055-2.036-.4-2.709-.356-.716-1.553-1.348-2.268-.716-.138-.7.577-1.127 1.416-.88-.605-.783-1.225-1.703-2.077-2.185zm-3.818 11.832c.564 1.415 2.497 1.249 4.13 1.212-.077.178-.235.4-.426.472-.523.213-1.967.374-2.693-.01-.463-.248-.755-.8-1.01-1.125-.125-.158-.729-.558-.01-.559zm.15-.798c.82.426 2.31.474 3.42.44.061.245.061.544.063.837-1.42.073-3.104-.279-3.478-1.279H12.6zm6.12-.537c-.434.825-1.05 1.739-2.328 1.767-.021-.26-.041-.673 0-.828.975-.095 1.583-.593 2.331-.933zm-.596-.611c-.934.604-1.974 1.26-3.505 1.109-.322-.284-.444-.917-.128-1.337.166.287.055.812.522.89.866.15 1.869-.531 2.503-.77.385-.654-.042-.895-.385-1.314-.717-.853-1.678-1.925-1.652-3.218.288-.205.317.317.358.413.37.88 1.306 1.994 1.993 2.75.165.192.44.357.468.48.084.358-.233.783-.192 1.018zm-12.319-.62c-.287-.168-.36-.907-.704-.925-.49-.027-.401.963-.4 1.54-.338-.303-.398-1.251-.15-1.733-.282-.137-.408.15-.566.26.202-1.457 2.145-.672 1.824.88zM4.32 5.496c-.628.693-.495 1.993-.42 2.923 1.14-.72 2.656.055 2.642 1.278.546-.015.205-.682.106-1.114-.324-1.4.542-2.922.037-4.208-.975.077-1.777.477-2.363 1.114zm8.36 1.02c.282.516.37 1.053.77 1.44.179.174.526.388.355.87-.041.112-.335.359-.505.413-.618.179-2.066.028-1.578-.742.516.013 1.205.33 1.588-.042-.288-.48-.811-1.402-.618-1.952zm5.682-.011h.062c.303.612.55 1.26.92 1.801-.247.576-1.882 1.09-1.854.052.358-.156.963-.032 1.279-.229-.177-.51-.44-.922-.398-1.623zm-6.35-1.483c-1.303-.302-1.953.543-2.347 1.424-.352-.086-.211-.564-.123-.81.233-.642 1.173-1.496 1.942-1.38.33.052.777.354.528.765zm-3.174-3.56c-1.43.403-3.263 1.442-3.85 2.725.454-.064.77-.294 1.22-.321.17-.015.392.067.587.013.389-.095.715-.976 1.01-1.292.285-.316.628-.455.862-.743.153-.082.375-.067.385-.302-.067-.069-.137-.124-.213-.096z"/></g></svg>