<svg xmlns="http://www.w3.org/2000/svg" fill="none" viewBox="0 0 20 20"><rect width="100%" height="100%" rx="2px" ry="2px" fill="#73C3D5"/><g transform="translate(10, 10) scale(0.625) translate(-10, -10)"><g fill="#0F0F11" clip-path="url(#a)"><path d="m14.426 12.254.211.172a.09.09 0 0 1 .03.059.09.09 0 0 1-.02.061c-.304.338-1.146 1.104-2.681 1.104h-3.93c-1.54 0-2.382-.766-2.681-1.105a.08.08 0 0 1-.02-.061.08.08 0 0 1 .03-.058l.21-.172.03-.015c.03-.01.064 0 .086.024.245.277.973.952 2.344.952h3.93c1.373 0 2.101-.671 2.345-.952l.026-.02a.08.08 0 0 1 .09.01M6.916 8.66a1.179 1.179 0 1 1-.001 2.358 1.179 1.179 0 0 1 .001-2.358"/><path fill-rule="evenodd" d="M6.916 8.122c.475 0 .904.192 1.212.5l.11.123a1.71 1.71 0 0 1 0 2.178l-.11.122a1.72 1.72 0 0 1-2.423.001h-.001a1.72 1.72 0 0 1 0-2.423l.122-.111c.295-.243.676-.39 1.09-.39m0 .382c-.365 0-.702.148-.947.388l.002.001c-.24.24-.39.574-.39.945 0 .366.149.701.388.946a1.341 1.341 0 0 0 1.892 0l.087-.094c.19-.23.307-.527.307-.85l-.008-.138a1.36 1.36 0 0 0-.3-.715l-.086-.094a1.33 1.33 0 0 0-.945-.389" clip-rule="evenodd"/><path d="M13.086 8.66a1.179 1.179 0 1 1-1.173 1.299l-.007-.12c0-.651.528-1.18 1.18-1.18"/><path fill-rule="evenodd" d="M13.086 8.122c.415 0 .791.147 1.088.39l.122.109.001.001.111.122c.246.298.39.675.39 1.09s-.148.792-.39 1.09l-.11.121a1.7 1.7 0 0 1-1.212.5 1.71 1.71 0 0 1-1.712-1.711c0-.475.192-.9.499-1.212l.122-.11c.295-.243.676-.39 1.09-.39m-.006.382c-.37 0-.7.148-.946.388l.001.001a1.335 1.335 0 0 0 0 1.89l.094.086c.23.19.527.304.851.304.366 0 .701-.15.946-.39l.085-.093c.19-.23.304-.527.304-.852l-.005-.137a1.3 1.3 0 0 0-.296-.713l-.088-.095a1.33 1.33 0 0 0-.946-.389" clip-rule="evenodd"/><path fill-rule="evenodd" d="M10.444 2.834a7 7 0 0 1 1.8.33c.297.1.563.218.778.355.199.126.357.272.457.43a4.77 4.77 0 0 1 3.23 2.358l1.822-1.921.04-.024a.1.1 0 0 1 .048.002c.03.011.052.04.055.071l.074.9c.102-.16.24-.374.39-.601.237-.364.503-.77.69-1.08l.035-.03a.1.1 0 0 1 .046-.008c.033.004.06.029.07.06.015.058.02.153.021.265 0 .116-.004.26-.013.423a36.485 36.485 0 0 1-.277 2.686l-.044.251c-.043.18-.214.896-.432 1.56-.108.331-.23.654-.355.893a1.4 1.4 0 0 1-.195.293c-.065.07-.148.128-.244.12a.1.1 0 0 1-.027-.008.1.1 0 0 1-.043-.034l-.021-.033a1 1 0 0 1-.037-.08 4 4 0 0 1-.079-.234l-.143-.457-.946 1.755a5.34 5.34 0 0 1-4 3.887c.033.222.036.446.024.637-.02.268-.083.62-.223.923-.138.301-.36.568-.703.636l.001.002a.73.73 0 0 1-.358-.011c-.393-.106-.833-.327-1.229-.565a.9.9 0 0 1-.334.068h-.63a.9.9 0 0 1-.334-.068c-.393.243-.832.46-1.229.565h-.003a.9.9 0 0 1-.35.012l-.002-.002c-.343-.067-.564-.335-.702-.637a2.7 2.7 0 0 1-.2-.707l-.025-.215a3 3 0 0 1 .018-.646 5.35 5.35 0 0 1-4.01-3.89L1.91 9.313l-.141.459a4 4 0 0 1-.08.234 1 1 0 0 1-.037.08l-.023.034-.045.032-.023.005c-.096.009-.179-.05-.244-.12a1.4 1.4 0 0 1-.194-.294 6 6 0 0 1-.355-.893 21 21 0 0 1-.433-1.556c-.045-.19-.149-1-.228-1.801-.04-.403-.074-.806-.092-1.132A8 8 0 0 1 0 3.937c0-.113.007-.208.023-.266l.025-.04a.083.083 0 0 1 .125.02l.326.519c.12.186.246.378.365.56.149.228.285.442.387.602l.075-.9.017-.045a.084.084 0 0 1 .126-.005l1.82 1.926A4.77 4.77 0 0 1 6.52 3.95c.1-.16.259-.305.458-.431a3.6 3.6 0 0 1 .779-.356 7.3 7.3 0 0 1 2.078-.34h.33zM8.025 14.48c-.12-.046-.213-.043-.285-.014a.4.4 0 0 0-.186.184c-.105.188-.149.483-.136.797.012.312.08.627.187.849q.082.166.178.24.088.067.183.04l.255-.082c.232-.088.466-.21.678-.336a.9.9 0 0 1-.085-.265c-.177.068-.399.15-.67.237a.083.083 0 0 1-.076-.146l.426-.322c.054-.04.1-.065.195-.12-.074-.037-.114-.055-.162-.085-.068-.04-.162-.104-.415-.263a.083.083 0 0 1 .063-.151q.376.087.627.16a.9.9 0 0 1 .071-.294 11 11 0 0 0-.66-.348zm4.231-.007c-.07-.028-.163-.03-.284.017-.22.083-.506.232-.85.429a.9.9 0 0 1 .07.277q.236-.065.573-.143c.04-.01.08.011.095.048a.084.084 0 0 1-.032.103c-.245.154-.34.218-.41.259-.052.032-.093.05-.17.087.098.057.144.082.202.123.07.051.167.127.42.317a.083.083 0 0 1 .026.105.08.08 0 0 1-.072.044l-.029-.004q-.36-.12-.612-.215a1 1 0 0 1-.082.244c.286.167.62.33.93.412l.047.008a.2.2 0 0 0 .136-.049.7.7 0 0 0 .177-.24c.107-.22.176-.535.188-.846.013-.313-.032-.608-.136-.795a.4.4 0 0 0-.187-.181M6.45 4.562a4.16 4.16 0 0 0-3.17 4.028v1.177c0 2.269 1.62 4.173 3.758 4.623a1 1 0 0 1 .422-.43l.097-.043a.96.96 0 0 1 .692.02l.191.08c.189.086.372.188.548.284q.156.085.315.177a.9.9 0 0 1 .386-.09h.63c.135 0 .267.03.386.089l.314-.176c.23-.13.485-.266.74-.364l.098-.033a.91.91 0 0 1 .689.055 1 1 0 0 1 .427.438c2.135-.453 3.748-2.355 3.748-4.62V8.598c0-1.942-1.358-3.582-3.169-4.027l-1.1 2.96c-.142.385-.398.756-.899.756H8.448c-.438 0-.689-.285-.84-.613l-.059-.142zM.54 5.248c.2 1.352.456 2.402.886 3.687l.136-.886.022-.046a.1.1 0 0 1 .043-.023.08.08 0 0 1 .088.038l.975 1.65V8.598c0-.607.116-1.188.328-1.723L1.831 5.519l-.19 1.428a.084.084 0 0 1-.068.072.08.08 0 0 1-.087-.043zM18.51 6.976a.08.08 0 0 1-.088.043.08.08 0 0 1-.067-.072l-.192-1.428-1.188 1.357c.213.535.33 1.115.33 1.723v1.068l.975-1.649.037-.033a.084.084 0 0 1 .117.064l.134.887c.432-1.285.686-2.339.885-3.688zM10.004 3.6c-.785.007-1.58.13-2.162.293a3 3 0 0 0-.675.264.5.5 0 0 0-.15.122c-.024.032-.022.05-.018.06l1.109 2.987.064.15a.6.6 0 0 0 .077.118.26.26 0 0 0 .204.101h3.094c.086 0 .15-.037.204-.101a1 1 0 0 0 .141-.268l1.11-2.988.002-.021a.1.1 0 0 0-.02-.04.5.5 0 0 0-.149-.12 3 3 0 0 0-.674-.264 8.7 8.7 0 0 0-2.157-.293" clip-rule="evenodd"/></g><defs><clipPath id="a"><path fill="#fff" d="M0 0h20v20H0z"/></clipPath></defs></g></svg>