<svg xmlns="http://www.w3.org/2000/svg" fill="none" viewBox="0 0 18 18"><rect width="100%" height="100%" fill="#73C3D5"/><g transform="translate(9, 9) scale(0.8) translate(-9, -9)"><g fill="#0F0F11" clip-path="url(#a)"><path d="m12.983 11.028.19.156a.08.08 0 0 1 .028.052.08.08 0 0 1-.02.056c-.272.304-1.03.993-2.412.993H7.232c-1.386 0-2.144-.69-2.412-.994a.08.08 0 0 1-.019-.056.08.08 0 0 1 .027-.051l.19-.156.026-.013a.08.08 0 0 1 .078.022c.22.25.876.856 2.11.856h3.537c1.235 0 1.89-.603 2.11-.856l.024-.018a.08.08 0 0 1 .08.01M6.225 7.794a1.061 1.061 0 1 1-.002 2.122 1.061 1.061 0 0 1 .002-2.122"/><path fill-rule="evenodd" d="M6.225 7.31c.427 0 .813.173 1.09.45l.1.11a1.54 1.54 0 0 1 0 1.96l-.1.11a1.548 1.548 0 0 1-2.18.001h-.002a1.547 1.547 0 0 1 0-2.18l.11-.1a1.54 1.54 0 0 1 .982-.351m0 .344c-.33 0-.632.133-.852.349a1.2 1.2 0 0 0-.35.851c0 .33.134.631.35.852a1.207 1.207 0 0 0 1.703 0l.077-.085c.171-.207.277-.474.277-.766l-.008-.123a1.2 1.2 0 0 0-.27-.644l-.077-.084a1.2 1.2 0 0 0-.85-.35" clip-rule="evenodd"/><path d="M11.777 7.794a1.06 1.06 0 1 1-1.055 1.169l-.006-.108c0-.586.475-1.061 1.061-1.061"/><path fill-rule="evenodd" d="M11.777 7.31c.374 0 .713.132.98.35l.11.099.1.11c.222.268.35.608.35.981 0 .374-.132.714-.35.98l-.1.11a1.54 1.54 0 0 1-1.09.45 1.54 1.54 0 0 1-1.54-1.54c0-.427.172-.809.449-1.09l.11-.1a1.54 1.54 0 0 1 .981-.35m-.005.344a1.203 1.203 0 0 0-1.205 1.2c0 .33.135.631.355.852l.084.076a1.216 1.216 0 0 0 1.617-.077l.077-.084c.17-.207.274-.474.274-.767l-.005-.123a1.16 1.16 0 0 0-.267-.642l-.078-.085a1.2 1.2 0 0 0-.852-.35" clip-rule="evenodd"/><path fill-rule="evenodd" d="M9.4 2.55c.583.035 1.15.14 1.619.297.268.09.508.197.7.32.18.114.322.244.412.388a4.3 4.3 0 0 1 2.908 2.121l1.64-1.729.035-.021a.1.1 0 0 1 .043.002c.027.01.047.035.05.064l.067.81c.09-.145.216-.337.35-.542.214-.327.453-.693.62-.97l.032-.029a.1.1 0 0 1 .042-.007c.03.004.055.026.063.055.014.052.018.137.019.238 0 .104-.004.234-.012.38a32.673 32.673 0 0 1-.25 2.417l-.038.227c-.04.162-.193.806-.39 1.404-.097.298-.207.589-.319.803-.056.107-.115.2-.176.265-.058.062-.133.115-.22.107a.1.1 0 0 1-.024-.007.1.1 0 0 1-.038-.03l-.019-.03a1 1 0 0 1-.033-.072 3 3 0 0 1-.071-.211l-.13-.411-.85 1.579a4.81 4.81 0 0 1-3.6 3.499c.029.2.032.4.021.573a2.5 2.5 0 0 1-.2.831c-.125.27-.325.511-.633.572l.001.001a.66.66 0 0 1-.323-.01c-.353-.095-.749-.293-1.106-.508a.8.8 0 0 1-.3.062h-.566a.8.8 0 0 1-.302-.062c-.354.219-.748.414-1.106.509h-.003a.8.8 0 0 1-.315.01h-.002c-.308-.062-.507-.303-.631-.574a2.4 2.4 0 0 1-.18-.637l-.022-.193a2.6 2.6 0 0 1 .015-.581 4.81 4.81 0 0 1-3.608-3.5l-.852-1.58-.127.414c-.026.083-.05.156-.072.21a.6.6 0 0 1-.053.103l-.041.029-.02.005c-.087.007-.162-.046-.22-.109a1.2 1.2 0 0 1-.175-.264 6 6 0 0 1-.32-.804 19 19 0 0 1-.39-1.4c-.04-.171-.133-.9-.205-1.622a24 24 0 0 1-.082-1.018A7 7 0 0 1 0 3.543c0-.101.006-.187.02-.24l.023-.035a.075.075 0 0 1 .113.017l.293.468.329.504c.133.205.257.398.347.542l.068-.81.016-.04a.075.075 0 0 1 .114-.005L2.96 5.676a4.3 4.3 0 0 1 2.908-2.122c.09-.144.233-.274.412-.388a3.3 3.3 0 0 1 .7-.32c.538-.18 1.202-.292 1.872-.307h.297zM7.223 13.033c-.109-.041-.192-.038-.257-.012a.35.35 0 0 0-.168.165c-.094.17-.134.435-.122.717.011.281.072.565.169.764q.073.15.16.216.079.06.164.037l.23-.074c.209-.08.42-.19.61-.303a.8.8 0 0 1-.077-.239q-.238.094-.603.214a.075.075 0 0 1-.068-.131l.384-.29c.048-.036.09-.059.175-.108-.066-.034-.103-.05-.146-.076-.06-.037-.145-.095-.373-.237a.075.075 0 0 1 .056-.136q.339.079.565.143a.8.8 0 0 1 .064-.264 10 10 0 0 0-.594-.313zm3.808-.007c-.064-.025-.147-.026-.256.016a6 6 0 0 0-.766.386.8.8 0 0 1 .064.25q.212-.058.515-.13a.075.075 0 0 1 .086.044.076.076 0 0 1-.03.092l-.367.234c-.048.028-.085.044-.153.078.087.051.128.074.18.111.065.046.151.114.38.285.029.022.039.062.022.094a.08.08 0 0 1-.064.04l-.026-.004q-.324-.108-.551-.193a.8.8 0 0 1-.074.22c.257.15.558.297.837.37l.042.007a.2.2 0 0 0 .123-.043.6.6 0 0 0 .16-.216c.095-.199.157-.482.168-.762.012-.282-.028-.547-.122-.715a.35.35 0 0 0-.168-.164m-5.227-8.92a3.74 3.74 0 0 0-2.852 3.626v1.06a4.266 4.266 0 0 0 3.382 4.16.9.9 0 0 1 .379-.387l.087-.04a.87.87 0 0 1 .623.02l.172.071c.17.078.335.169.493.256q.141.076.284.16a.8.8 0 0 1 .348-.082h.566q.185 0 .347.08l.283-.158c.207-.117.437-.24.667-.328l.087-.03a.82.82 0 0 1 .62.05c.176.088.3.23.385.394A4.266 4.266 0 0 0 15.048 8.8v-1.06c0-1.748-1.222-3.224-2.852-3.625l-.99 2.665c-.128.346-.358.68-.809.68H7.603c-.394 0-.62-.256-.756-.551l-.053-.129zm-5.317.618c.18 1.217.41 2.162.797 3.319l.122-.798.02-.041a.075.075 0 0 1 .118.014L2.422 8.7v-.962c0-.547.104-1.07.295-1.55L1.648 4.966l-.172 1.286a.08.08 0 0 1-.06.064.075.075 0 0 1-.079-.038zm16.172 1.556a.075.075 0 0 1-.079.038.075.075 0 0 1-.06-.064l-.173-1.286-1.07 1.221c.192.482.297 1.004.297 1.551v.962l.878-1.484.033-.03a.075.075 0 0 1 .105.057l.121.799c.39-1.157.618-2.106.797-3.32zm-7.656-3.04a7.8 7.8 0 0 0-1.945.264 2.7 2.7 0 0 0-.608.237.5.5 0 0 0-.135.11c-.022.03-.02.045-.016.054l.998 2.689.058.134a.6.6 0 0 0 .07.107.23.23 0 0 0 .183.091h2.784a.23.23 0 0 0 .184-.091.8.8 0 0 0 .127-.241l1-2.69v-.019a.1.1 0 0 0-.017-.035.5.5 0 0 0-.134-.109 2.7 2.7 0 0 0-.607-.237 7.8 7.8 0 0 0-1.942-.264" clip-rule="evenodd"/></g><defs><clipPath id="a"><path fill="#fff" d="M0 0h18v18H0z"/></clipPath></defs></g></svg>