<svg xmlns="http://www.w3.org/2000/svg" fill="none" viewBox="0 0 20 20"><rect width="100%" height="100%" rx="2px" ry="2px" fill="#D24939"/><g transform="translate(10, 10) scale(0.625) translate(-10, -10)"><g clip-path="url(#a)"><path fill="#fff" d="M2.393 20h-.812a3 3 0 0 1-.058-.164c-.18-.555-.495-1.242-.577-1.795-.122-.82.65-.866 1.145-1.221.762-.55 1.362-.854 2.189-1.35.246-.15.985-.52 1.068-.69.167-.34-.288-.82-.409-1.084-.187-.423-.287-.781-.313-1.196-.687-.108-1.213-.523-1.537-.988-.525-.77-.888-2.195-.437-3.28.037-.085.211-.254.237-.385.05-.257-.087-.6-.1-.874-.05-1.41.237-2.625 1.188-3.05.385-1.533 1.76-2.044 3.06-2.806C7.522.832 8.057.65 8.614.445c1.976-.73 5.022-.593 6.661.652.697.528 1.813 1.642 2.214 2.45 1.051 2.129.974 5.687.239 8.278-.1.35-.242.86-.445 1.277-.14.292-.574.875-.52 1.134.053.261.991.975 1.193 1.162.362.352 1.05.813 1.103 1.25.059.465-.206 1.114-.341 1.563-.181.6-.364 1.2-.545 1.776H2.392zm9.254-2.95a6.4 6.4 0 0 0-1.721-.63c-.725-.138-.65.99-.625 1.66.025.537.3 1.098.425 1.454.063.164.075.342.213.374.25.057 1.075-.271 1.313-.399.5-.273.886-.703 1.311-.99.014-.142.014-.284.025-.424a2.2 2.2 0 0 0-.912-.23c.261-.126.625-.126.862-.277l.014-.161c-.414-.025-.575-.212-.851-.364zm6.211 2.446q.232-.72.388-1.46c.05-.24.179-.765.148-.98-.049-.383-.57-.666-.836-.905-.487-.438-.792-.813-1.3-1.224-.208.312-.65.512-.82.761 1.206-.574 1.425 2.188.951 3.075.075.274.326.375.428.613l-.071.138h1.075c.01 0 .025 0 .037.012zm-5.528-.01c-.042-.062-.083-.113-.125-.174l-.25.162h.374zm2.308 0c.007-.174.015-.337.025-.498-.441.024-.687-.4-.996-.44-.27-.037-.5.301-.85.163-.08.087-.153.189-.237.263q.192.225.353.487h.68a.25.25 0 0 1 .25-.238c.137 0 .236.101.236.225h.55zm1.764 0c-.262-.4-.79-.748-1.4-.463l-.025.451h1.425zm-7.092 0-.087-.287c-.187-.6-.3-1.05-.337-1.4-.762-.363-1.563-.725-2.212-1.188-.125-.088-.924-1.125-1.025-1.088-1.449.564-2.799 1.55-4.011 2.487.213.464.4.95.575 1.45H9.3zm6.888-1.761c-.025-.427-.137-1.3-.4-1.45-.55-.325-1.539.65-1.95.786.037.125.112.226.124.4.238-.062.538-.024.749.077-.25.024-.524.024-.687.136-.062.163.013.4-.024.637.575.164 1.25.252 1.988.276.136-.189.187-.537.175-.901zm-3.4-.3c-.037.313.038.425.1.786 1.05.326.861-1.45-.113-.8zM7.3 16.25c-.375.38 1.058.902 1.512.93 0-.242.137-.47.112-.642-.541-.099-1.251-.035-1.62-.29zm4.638.18c0 .035-.051.024-.057.053.483.375.845.454 1.502.424.295-.218.558-.469.869-.672-.713.062-1.61.506-2.312.192zm2.85-14.773C13.449.902 11.162.332 9.724 1.048 8.574 1.625 7 2.582 6.475 3.792c.5 1.168-.138 2.238-.188 3.424-.015.63.3 1.183.325 1.868-.166.282-.687.317-1.05.297-.121-.608-.333-1.291-.962-1.359-.887-.096-1.537.637-1.575 1.403-.05.9.694 2.387 1.738 2.287.406-.038.506-.45.949-.45.237.476-.371.625-.436.962-.013.088.05.426.087.588.194.786.62 1.8 1.037 2.4.53.75 1.57.875 2.69.95.2-.437.938-.4 1.422-.288-.575-.225-1.113-.787-1.562-1.274-.512-.563-1.025-1.175-1.05-1.9.962 1.337 1.75 2.5 3.5 3.087 1.324.437 2.874-.212 3.886-.925.425-.299.676-.774.975-1.199 1.125-1.613 1.65-3.925 1.538-6.161-.05-.926-.05-1.851-.363-2.463-.324-.65-1.413-1.226-2.063-.65-.125-.637.525-1.026 1.288-.8-.55-.712-1.114-1.549-1.889-1.987zm-3.471 10.756c.512 1.287 2.27 1.136 3.754 1.103-.07.162-.213.362-.388.429-.475.193-1.787.34-2.447-.01-.422-.225-.687-.728-.918-1.023-.115-.143-.663-.506-.01-.507zm.136-.725c.745.387 2.1.431 3.11.4.054.223.054.495.056.761-1.291.067-2.822-.253-3.161-1.162h-.005zm5.563-.488c-.394.75-.954 1.58-2.116 1.607-.02-.237-.037-.613 0-.754.887-.086 1.44-.538 2.12-.847zm-.541-.556c-.85.55-1.795 1.146-3.187 1.008-.292-.258-.404-.833-.116-1.214.15.26.05.737.475.808.786.137 1.698-.483 2.275-.7.35-.594-.039-.814-.35-1.194-.652-.775-1.525-1.75-1.502-2.925.262-.187.288.288.326.375.336.8 1.186 1.812 1.811 2.5.15.175.4.325.425.436.077.325-.211.712-.174.925zm-11.2-.562c-.26-.154-.327-.825-.64-.842-.445-.025-.364.875-.362 1.4-.309-.275-.363-1.138-.137-1.575-.257-.125-.371.137-.515.237.183-1.325 1.95-.612 1.658.8zM3.928 4.996c-.57.63-.45 1.811-.382 2.656 1.037-.654 2.415.05 2.403 1.162.495-.013.185-.62.095-1.012-.294-1.274.494-2.656.034-3.825-.886.07-1.615.433-2.148 1.012zm7.6.927c.256.469.337.957.7 1.309.163.158.479.353.323.791-.038.101-.304.326-.46.375-.56.163-1.877.025-1.433-.675.469.013 1.095.3 1.443-.037-.262-.437-.737-1.275-.562-1.775zm5.166-.01h.056c.275.556.5 1.145.837 1.637-.225.523-1.711.992-1.686.047.325-.141.875-.029 1.162-.208-.16-.463-.4-.838-.361-1.476zM10.92 4.564c-1.185-.275-1.776.493-2.133 1.294-.32-.078-.193-.512-.113-.736.213-.584 1.067-1.36 1.766-1.255.3.048.707.322.48.695zM8.035 1.327c-1.3.367-2.967 1.312-3.5 2.479.412-.059.7-.268 1.108-.293.155-.013.357.062.535.013.353-.087.65-.888.918-1.175.258-.288.57-.414.783-.675.14-.075.341-.062.35-.275-.06-.063-.125-.113-.193-.088z"/></g><defs><clipPath id="a"><path fill="#fff" d="M0 0h20v20H0z"/></clipPath></defs></g></svg>