<svg xmlns="http://www.w3.org/2000/svg" fill="none" viewBox="0 0 18 18"><rect width="100%" height="100%" fill="#D24939"/><g transform="translate(9, 9) scale(0.8) translate(-9, -9)"><path fill="#fff" d="M2.154 18h-.731a3 3 0 0 1-.053-.148c-.161-.5-.445-1.117-.519-1.615-.11-.738.585-.78 1.03-1.099.687-.495 1.227-.769 1.971-1.215.221-.134.887-.468.96-.622.151-.306-.258-.736-.367-.975a3 3 0 0 1-.282-1.076 2.1 2.1 0 0 1-1.383-.889c-.472-.694-.8-1.976-.393-2.952.033-.077.19-.229.213-.347.045-.231-.079-.54-.09-.786-.045-1.269.213-2.363 1.069-2.745.347-1.38 1.585-1.84 2.755-2.525C6.769.749 7.252.584 7.75.4c1.78-.657 4.52-.534 5.996.588.627.474 1.632 1.477 1.992 2.204.946 1.916.877 5.119.215 7.45-.09.316-.218.774-.4 1.15-.126.263-.517.788-.469 1.02.048.236.893.878 1.075 1.047.325.316.945.73.992 1.124.053.418-.186 1.002-.307 1.407-.163.54-.327 1.08-.49 1.598H2.153zm8.328-2.655a5.8 5.8 0 0 0-1.549-.568c-.652-.123-.585.891-.562 1.496.022.482.27.987.382 1.308.057.148.068.307.192.337.225.05.968-.245 1.181-.36.45-.246.799-.633 1.181-.892.012-.127.012-.255.022-.38a2 2 0 0 0-.82-.208c.235-.113.562-.113.775-.25l.012-.144c-.371-.022-.517-.19-.765-.327zm5.59 2.201q.208-.648.35-1.314c.044-.215.16-.688.133-.882-.044-.344-.513-.599-.753-.814-.438-.394-.713-.731-1.17-1.102-.187.281-.585.461-.737.686 1.085-.517 1.282 1.968.855 2.767.068.247.293.337.386.551l-.065.125h.968c.01 0 .022 0 .033.01zm-4.975-.009c-.037-.055-.075-.101-.112-.156l-.226.146h.337zm2.078 0q.008-.232.022-.448c-.397.021-.619-.36-.897-.395-.243-.034-.45.27-.765.146-.071.079-.137.17-.213.237q.173.203.318.438h.611a.223.223 0 0 1 .225-.214c.124 0 .213.09.213.203h.495zm1.586 0c-.235-.359-.71-.673-1.26-.416l-.022.406h1.283zm-6.382 0-.078-.258c-.169-.54-.27-.945-.304-1.26-.685-.327-1.406-.652-1.99-1.07-.113-.078-.832-1.012-.923-.978-1.304.507-2.519 1.395-3.61 2.238.192.418.36.856.517 1.305H8.37zm6.199-1.584c-.022-.384-.123-1.17-.36-1.305-.495-.293-1.385.585-1.755.707.034.112.101.203.112.36a1.06 1.06 0 0 1 .674.069c-.225.022-.472.022-.618.123-.056.146.012.36-.022.573.518.148 1.125.227 1.789.249.123-.17.168-.484.158-.812zm-3.06-.27c-.033.28.034.382.09.707.945.293.775-1.305-.101-.72zM6.57 14.625c-.338.343.952.812 1.36.836 0-.217.124-.423.102-.577-.488-.089-1.127-.032-1.459-.26zm4.174.161c0 .033-.046.023-.051.048.435.338.76.409 1.351.383.266-.197.503-.423.782-.606-.64.056-1.448.456-2.08.173zm2.565-13.294C12.104.812 10.046.298 8.752.943c-1.035.52-2.453 1.38-2.925 2.47.45 1.051-.124 2.014-.169 3.081-.014.568.27 1.065.293 1.682-.15.253-.618.285-.945.267-.11-.547-.3-1.162-.866-1.223-.798-.087-1.384.573-1.417 1.262-.045.81.624 2.149 1.563 2.06.366-.035.456-.406.855-.406.213.428-.334.563-.393.866-.012.079.045.383.078.528.175.709.558 1.62.934 2.16.476.676 1.413.789 2.422.856.18-.393.843-.36 1.28-.26-.519-.202-1.003-.708-1.407-1.146-.461-.507-.922-1.058-.946-1.71.867 1.203 1.575 2.25 3.15 2.778 1.193.394 2.588-.19 3.498-.832.383-.269.609-.697.878-1.079 1.012-1.452 1.485-3.533 1.384-5.546-.045-.833-.045-1.665-.327-2.216-.292-.586-1.271-1.103-1.856-.586-.113-.573.473-.922 1.159-.72-.495-.64-1.002-1.393-1.7-1.788zm-3.124 9.68c.461 1.158 2.043 1.022 3.379.992-.063.146-.192.327-.349.386-.428.175-1.609.306-2.203-.009-.38-.202-.618-.654-.826-.92-.103-.129-.597-.456-.01-.457zm.123-.652c.67.348 1.89.387 2.798.36.05.2.05.444.051.684-1.162.06-2.54-.228-2.845-1.046h-.004zm5.006-.44c-.354.675-.858 1.423-1.904 1.446-.017-.213-.034-.551 0-.678.798-.077 1.295-.485 1.907-.763zm-.486-.5c-.765.495-1.616 1.031-2.868.907-.264-.232-.364-.75-.106-1.093.136.234.046.663.428.727.708.124 1.528-.434 2.047-.63.316-.535-.034-.732-.315-1.075-.586-.697-1.372-1.575-1.351-2.632.236-.168.26.26.293.337.303.72 1.068 1.632 1.63 2.25.136.158.36.293.383.393.07.293-.19.641-.156.833zm-10.08-.507c-.235-.138-.295-.742-.576-.757-.401-.023-.328.787-.327 1.26-.277-.248-.326-1.024-.123-1.418-.23-.112-.333.123-.463.213.165-1.192 1.755-.55 1.492.72zM3.535 4.496c-.514.567-.405 1.63-.344 2.391.933-.589 2.173.045 2.162 1.046.446-.012.167-.558.086-.912-.265-1.146.444-2.39.03-3.442-.797.063-1.453.39-1.933.911zm6.84.835c.23.421.303.861.63 1.177.146.143.43.318.29.713-.034.09-.274.293-.413.337-.506.147-1.69.023-1.291-.607.422.011.986.27 1.299-.034-.236-.393-.664-1.147-.506-1.597zm4.648-.01h.051c.248.501.45 1.031.753 1.474-.202.471-1.54.892-1.517.043.292-.128.787-.027 1.046-.188-.145-.417-.36-.754-.325-1.328zM9.828 4.108c-1.066-.247-1.598.444-1.92 1.165-.288-.07-.173-.461-.101-.662.191-.526.96-1.225 1.589-1.13.27.043.636.29.432.626zM7.232 1.195c-1.17.33-2.67 1.18-3.15 2.23.37-.052.63-.24.997-.263.14-.012.321.055.48.011.319-.078.586-.799.827-1.057.233-.259.514-.372.705-.608.125-.067.307-.055.315-.247-.054-.057-.112-.102-.174-.079z"/></g></svg>