<svg xmlns="http://www.w3.org/2000/svg" fill="none" viewBox="0 0 20 20"><rect width="100%" height="100%" rx="2px" ry="2px" fill="#40BE46" stroke="var(--cn-comp-avatar-shadow)" stroke-width="0.6"/><g transform="translate(10, 10) scale(0.625) translate(-10, -10)"><g clip-path="url(#a)"><path fill="#fff" d="m8.88 13.026-1.058.294c.092.267.167.744.167 1.387v3.163h1.184v-3.346c.221-.266.46-.395.717-.395.13 0 .23.028.34.092l.322-1.094a.9.9 0 0 0-.441-.101q-.2 0-.386.075c-.22.109-.497.358-.67.596 0-.267-.065-.478-.176-.671M4.8 11.464h-.128v6.397h1.23v-2.832h1.554v-1.056H5.902v-1.47h1.94l.073-.561a20 20 0 0 1-3.115-.478m-2.877 7.25.57.664c.552-.221 1.242-.717 1.425-1.509.064-.256.084-.421.084-1.258v-5.138H2.757v5.275c0 .69-.027.947-.119 1.186-.12.267-.405.58-.716.782zm11.185-3.243c0 1.122-.22 1.6-.726 1.6a.65.65 0 0 1-.597-.387c-.092-.238-.147-.644-.147-1.195 0-.469.046-.8.12-1.057.091-.294.321-.478.606-.478.212 0 .395.092.505.248.166.221.24.634.24 1.269m.725 1.838c.388-.459.562-1.02.562-1.829 0-.763-.156-1.287-.514-1.728-.387-.478-.883-.708-1.526-.708-1.213 0-2.022.983-2.022 2.473s.8 2.445 2.022 2.445c.69.008 1.138-.248 1.478-.653m3.365-2.647c0 .433-.258.67-.716.67-.415 0-.69-.191-.69-.67 0-.441.258-.699.698-.699.442 0 .708.259.708.699m2.086-1.011-.487-.781c-.275.258-.606.404-.928.404-.147 0-.23-.018-.552-.1a2.7 2.7 0 0 0-.808-.12c-1.15 0-1.893.624-1.893 1.6 0 .697.312 1.139.965 1.313-.267.064-.552.202-.68.358a.66.66 0 0 0-.139.433c0 .147.037.275.092.386.06.102.15.182.259.23.21.083.55.138 1.075.147.274 0 .44.008.495.008.322.02.487.075.616.139.12.074.211.239.211.423 0 .183-.11.366-.284.477-.157.11-.414.157-.745.157-.542 0-.845-.203-.845-.58 0-.166.018-.202.055-.302h-1.084a.96.96 0 0 0-.102.477c0 .322.12.598.368.837.405.395 1.066.505 1.7.505.699 0 1.379-.165 1.774-.606.248-.276.358-.58.358-.975 0-.423-.12-.744-.386-1.01-.312-.304-.67-.414-1.36-.424l-.634-.008c-.12 0-.193-.046-.193-.11 0-.129.165-.24.469-.387.091.008.119.008.175.008.955 0 1.653-.587 1.653-1.405 0-.312-.091-.552-.266-.772.147.018.193.027.303.027.312 0 .56-.1.818-.35M4.487 5.904c-1.47.359-2.472 1.066-2.472 1.875 0 .505.386.964 1.02 1.323a1.8 1.8 0 0 1-.294-.965c.008-.836.661-1.617 1.746-2.233M20 9.074c0-.533-.33-1.02-.883-1.424.046.167.084.33.084.497 0 1.516-2.123 2.82-5.138 3.363q.508.055 1.057.055c2.692-.008 4.88-1.12 4.88-2.49m-1.737-.826c0-.561-.478-1.075-1.296-1.499.192.23.295.479.295.736 0 1.35-2.867 2.444-6.415 2.444-3.539 0-6.415-1.093-6.415-2.444q0-.262.137-.497c-.569.377-.891.809-.891 1.269 0 1.46 3.263 2.646 7.289 2.646s7.296-1.204 7.296-2.655m-3.18-.073c-1.488.956-6.065 1.323-8.032.092-1.544-.965-1.011-2.5-5.432-5.864-.578-.441.111-.91.543-.606.431.303.036.377.91 1.25 1.764 1.765 1.745.175 2.021.781.589 1.259 1.875 2.527 1.875 2.527 1.296.846 2.325 1.03 4.237-.267 1.213-.817.717 1.305 3.686-.229 1.083-.56 1.038-.183 2.14-1.719.459-.633 1.334.488.34.643-.394.065-1.066.497-1.35 1.177-.414 1.02-.24 1.773-.938 2.215M6.83 5.583c-.367-.165-.753-.791-.9-1.038.413-.405.248-1.075.008-1.443-.229-.367-.514-.267-.816-.606-.314-.342.118-1.223.514-.543C7.115 4.5 8.089 3.442 9.294 3.286c1.159-.148 2.187.486 2.5-1.305.054-.294.34-.359.367.119.027.487.212 1.663.846 1.81.633.157 1.148-.147 1.296-.312.146-.166.229-.147.294.275.064.414.229.994 1.12.35 1.83-1.305 1.306-1.81 2.022-2.15.404-.193 1.048.432.12.9-1.323.671-1.462 1.498-2.297 2.022-1.407.883-.975.037-3.235-.285-.874-.12-1.15.846-1.83.57-1.553-.643-2.648-.515-3.667.303M11.73.87c.054.386.118.377.257.404.137.037.312-.183.312-.385.008-.212-.091-.34-.294-.331-.212.008-.285.11-.276.312m6.8.69c.166.155.606.054.707-.066.267-.293.276-.468.138-.67-.137-.193-.422-.165-.708.046-.285.211-.23.606-.138.69m-.12 1.948c-.137.183-.147.321-.046.422.11.11.331.202.488.084.155-.13.155-.314.027-.47-.138-.166-.322-.166-.469-.036M4.46 1.208c.21.065.312.267.487.037.091-.11.1-.267-.02-.433-.073-.1-.422-.175-.569-.027-.147.147-.008.387.101.423zM.148 1.08c.386.24.634.598.929.275.1-.109.22-.302.008-.688C.931.38.425.27.251.38c-.184.1-.404.515-.101.698zm3.558 1.83c.119.128.33.119.459.045.12-.073.1-.267-.018-.432-.074-.101-.295-.156-.442 0s-.08.294 0 .386"/></g><defs><clipPath id="a"><path fill="#fff" d="M0 0h20v20H0z"/></clipPath></defs></g></svg>