<svg xmlns="http://www.w3.org/2000/svg" fill="none" viewBox="0 0 18 18"><rect width="100%" height="100%" fill="#40BE46"/><g transform="translate(9, 9) scale(0.8) translate(-9, -9)"><g clip-path="url(#a)"><path fill="#fff" d="m7.991 11.723-.95.265c.082.24.15.67.15 1.249v2.846h1.065v-3.011q.299-.358.645-.356c.117 0 .208.025.307.083l.29-.984a.8.8 0 0 0-.398-.092.9.9 0 0 0-.347.068c-.2.098-.447.322-.604.536 0-.24-.058-.43-.158-.604M4.32 10.318h-.115v5.757h1.107v-2.549H6.71v-.95H5.312v-1.324h1.746l.066-.505a18 18 0 0 1-2.804-.43m-2.589 6.525.513.597c.497-.199 1.118-.645 1.283-1.358.057-.23.075-.38.075-1.132v-4.624H2.48v4.747c0 .621-.024.852-.106 1.068-.108.24-.365.521-.645.703zm10.067-2.92c0 1.01-.198 1.44-.654 1.44a.59.59 0 0 1-.537-.347c-.083-.215-.132-.58-.132-1.076 0-.422.04-.72.107-.95.082-.265.29-.431.546-.431.19 0 .355.082.454.223.15.199.215.57.215 1.142m.652 1.655c.349-.413.506-.918.506-1.646 0-.687-.14-1.158-.463-1.555-.348-.43-.795-.637-1.373-.637-1.092 0-1.82.885-1.82 2.225s.72 2.2 1.82 2.2c.62.008 1.024-.222 1.33-.587m3.029-2.383c0 .39-.233.604-.645.604-.373 0-.621-.172-.621-.604 0-.396.232-.628.628-.628.398 0 .638.232.638.628m1.877-.91-.439-.702c-.248.232-.545.364-.835.364-.133 0-.207-.017-.496-.09a2.5 2.5 0 0 0-.728-.109c-1.035 0-1.704.563-1.704 1.44 0 .628.281 1.025.869 1.182-.24.058-.497.182-.612.323a.6.6 0 0 0-.125.39c0 .131.033.247.083.347a.5.5 0 0 0 .232.206c.19.075.495.125.968.133.247 0 .396.007.446.007.29.018.438.068.554.125.107.066.19.215.19.38 0 .166-.099.33-.256.43-.14.1-.373.142-.67.142-.488 0-.76-.183-.76-.522 0-.15.016-.182.049-.273h-.976a.9.9 0 0 0-.091.43c0 .29.107.538.331.753.364.355.96.454 1.53.454.628 0 1.24-.148 1.596-.545.223-.248.322-.521.322-.877 0-.38-.107-.67-.347-.91-.281-.272-.603-.372-1.224-.38l-.57-.008c-.108 0-.175-.042-.175-.1 0-.115.15-.216.423-.348.082.008.107.008.157.008.86 0 1.488-.529 1.488-1.264 0-.282-.082-.497-.24-.696.133.017.174.025.273.025.282 0 .505-.09.737-.314M4.038 5.315C2.715 5.636 1.814 6.273 1.814 7c0 .455.347.868.918 1.19a1.6 1.6 0 0 1-.265-.867c.007-.753.595-1.456 1.571-2.01M18 8.167c0-.48-.298-.918-.794-1.282.041.15.075.298.075.447 0 1.365-1.911 2.539-4.624 3.027.306.033.62.05.951.05C16.03 10.4 18 9.399 18 8.166m-1.563-.744c0-.505-.43-.968-1.166-1.349.172.207.264.43.264.663 0 1.215-2.58 2.2-5.773 2.2-3.184 0-5.773-.985-5.773-2.2a.87.87 0 0 1 .123-.447c-.512.338-.802.727-.802 1.141 0 1.315 2.937 2.382 6.56 2.382s6.567-1.084 6.567-2.39m-2.862-.066c-1.34.86-5.46 1.192-7.23.083-1.389-.868-.909-2.25-4.888-5.277-.52-.397.1-.819.489-.546.388.273.033.34.819 1.125 1.587 1.588 1.57.158 1.819.704.53 1.132 1.688 2.274 1.688 2.274 1.166.76 2.092.926 3.813-.24 1.092-.736.644 1.174 3.317-.207.975-.504.934-.165 1.927-1.547.412-.57 1.2.439.305.579-.355.059-.96.447-1.215 1.059-.372.918-.216 1.596-.844 1.994M6.147 5.026c-.33-.15-.678-.713-.81-.935.372-.364.223-.967.008-1.298-.207-.33-.463-.24-.735-.546-.282-.307.106-1.1.462-.488 1.332 2.291 2.208 1.34 3.293 1.2 1.042-.134 1.968.437 2.25-1.175.049-.265.305-.323.33.107.024.439.19 1.497.761 1.63.57.14 1.034-.133 1.166-.281.132-.15.207-.133.265.247.058.373.206.894 1.009.315 1.646-1.174 1.174-1.63 1.82-1.935.363-.174.942.389.107.81-1.19.604-1.315 1.348-2.068 1.82-1.266.794-.877.032-2.911-.257-.786-.107-1.035.761-1.646.513-1.398-.579-2.384-.463-3.301.273m4.41-4.243c.049.347.107.34.231.364.124.033.281-.165.281-.347.008-.19-.082-.306-.264-.298-.191.007-.257.099-.249.281m6.12.62c.15.14.545.05.637-.058.24-.264.247-.422.123-.604-.123-.173-.38-.148-.637.042-.256.19-.207.545-.124.62m-.108 1.754c-.124.165-.132.29-.041.38.099.1.298.182.439.075.14-.116.14-.282.024-.422-.124-.15-.29-.15-.422-.033M4.014 1.088c.19.057.28.24.438.032.083-.1.09-.24-.017-.39-.066-.09-.38-.157-.512-.023-.133.132-.008.348.09.38zM.134.97c.347.216.57.538.835.248.09-.099.198-.273.008-.62C.837.343.383.244.226.343.06.433-.138.806.135.97zm3.201 1.647c.108.115.298.107.414.04.108-.065.09-.24-.017-.388-.066-.091-.265-.14-.397 0s-.073.264 0 .348"/></g><defs><clipPath id="a"><path fill="#fff" d="M0 0h18v18H0z"/></clipPath></defs></g></svg>