<svg xmlns="http://www.w3.org/2000/svg" fill="none" viewBox="0 0 18 18"><rect width="100%" height="100%" fill="#0052CC"/><g transform="translate(9, 9) scale(0.8) translate(-9, -9)"><path fill="#fff" d="M6.11 11.92H4.66c-2.188 0-3.757-1.34-3.757-3.303h7.8c.404 0 .666.287.666.694v7.85c-1.95 0-3.258-1.58-3.258-3.782zm3.853-3.901h-1.45c-2.188 0-3.758-1.316-3.758-3.279h7.8c.405 0 .69.264.69.67v7.85c-1.95 0-3.282-1.58-3.282-3.781zm3.877-3.877h-1.451C10.2 4.142 8.63 2.802 8.63.84h7.8c.405 0 .666.287.666.67v7.849c-1.95 0-3.258-1.58-3.258-3.781z"/></g></svg>