<svg xmlns="http://www.w3.org/2000/svg" fill="none" viewBox="0 0 22 22" shape-rendering="geometricPrecision"><rect width="22" height="22" rx="3" ry="3" fill="#0052CC"/><g transform="translate(11, 11) scale(0.7) translate(-11, -11)"><path fill="#fff" d="M7.469 14.568H5.695c-2.674 0-4.592-1.638-4.592-4.036h9.534c.494 0 .813.351.813.848v9.594c-2.383 0-3.981-1.93-3.981-4.622zm4.708-4.767h-1.773c-2.674 0-4.592-1.609-4.592-4.007h9.533c.494 0 .843.322.843.819v9.593c-2.383 0-4.01-1.93-4.01-4.621zm4.738-4.738h-1.773c-2.674 0-4.592-1.638-4.592-4.037h9.533c.494 0 .814.351.814.82v9.593c-2.383 0-3.982-1.93-3.982-4.621z"/></g><rect x="0.3" y="0.3" width="21.4" height="21.4" rx="3" ry="3" fill="none" stroke="var(--cn-comp-avatar-shadow)" stroke-width="0.6"/></svg>