<svg xmlns="http://www.w3.org/2000/svg" fill="none" viewBox="0 0 20 20"><rect width="100%" height="100%" rx="2px" ry="2px" fill="#0052CC" stroke="var(--cn-comp-avatar-shadow)" stroke-width="0.6"/><g transform="translate(10, 10) scale(0.625) translate(-10, -10)"><path fill="#fff" d="M6.79 13.244H5.178c-2.431 0-4.175-1.49-4.175-3.67H9.67c.449 0 .74.32.74.772v8.721c-2.167 0-3.62-1.755-3.62-4.201zm4.28-4.334H9.458c-2.43 0-4.175-1.463-4.175-3.643h8.667c.45 0 .767.293.767.745v8.72c-2.167 0-3.647-1.754-3.647-4.2zm4.307-4.308h-1.612c-2.43 0-4.175-1.489-4.175-3.669h8.667c.45 0 .74.32.74.745v8.72c-2.166 0-3.62-1.754-3.62-4.2z"/></g></svg>