<svg xmlns="http://www.w3.org/2000/svg" fill="none" viewBox="0 0 20 20"><rect width="100%" height="100%" rx="2px" ry="2px" fill="#326CE5"/><g transform="translate(10, 10) scale(0.625) translate(-10, -10)"><path fill="#fff" d="M11.589 11.211a.3.3 0 0 0-.189.025.31.31 0 0 0-.149.4l-.002.002.705 1.704a3.6 3.6 0 0 0 1.455-1.828l-1.817-.307zm-2.827.242a.31.31 0 0 0-.356-.234l-.003-.004-1.801.306c.27.748.78 1.385 1.45 1.814l.698-1.687-.005-.006a.3.3 0 0 0 .017-.19m1.508.66a.308.308 0 0 0-.542.002h-.001l-.886 1.601a3.6 3.6 0 0 0 2.324.002l-.888-1.604zm2.804-3.72-1.363 1.22.001.004a.308.308 0 0 0 .12.529l.003.007 1.765.508a3.66 3.66 0 0 0-.526-2.268m-2.532.137a.308.308 0 0 0 .49.235l.005.002 1.49-1.057a3.63 3.63 0 0 0-2.09-1.008l.104 1.827zm-1.579.241a.308.308 0 0 0 .488-.235l.008-.004.103-1.83q-.187.022-.372.064a3.6 3.6 0 0 0-1.73.943l1.5 1.064zm-.8 1.384a.307.307 0 0 0 .12-.53l.002-.007-1.37-1.225a3.6 3.6 0 0 0-.51 2.274l1.757-.506zm1.33.538.506.243.505-.242.125-.545-.35-.436h-.56l-.35.436z"/><path fill="#fff" fill-rule="evenodd" d="M9.999 1.124c.182 0 .363.041.528.12l6.36 3.036a1.23 1.23 0 0 1 .658.82l1.572 6.826a1.22 1.22 0 0 1-.235 1.02l-4.401 5.476a1.24 1.24 0 0 1-.951.452l-7.06.002a1.24 1.24 0 0 1-.95-.453l-4.403-5.475a1.214 1.214 0 0 1-.233-1.02l1.568-6.828a1.23 1.23 0 0 1 .658-.817l6.36-3.04c.165-.078.346-.119.529-.119m3.84 16.832q.076-.049.144-.108zM9.999 3.997a.35.35 0 0 0-.349.312v.173q.012.14.037.276l.01.055q.05.316.04.633a.4.4 0 0 1-.113.181l-.009.148q-.32.026-.631.097a4.5 4.5 0 0 0-2.28 1.302l-.126-.09a.28.28 0 0 1-.207-.019 3.3 3.3 0 0 1-.582-.55l-.118-.119-.078-.063a.4.4 0 0 0-.243-.091.34.34 0 0 0-.278.124.37.37 0 0 0 .086.514l.005.004.072.058q.14.093.29.17.277.156.519.364.062.092.07.2l.11.1a4.6 4.6 0 0 0-.686 1.705c-.085.473-.095.96-.025 1.444l-.145.043a.5.5 0 0 1-.151.15 3.3 3.3 0 0 1-.625.103 3 3 0 0 0-.336.028l-.092.02-.004.002-.005.001-.07.017a.35.35 0 0 0-.228.264.4.4 0 0 0 .002.144.4.4 0 0 0 .042.099q.01.017.02.033.04.052.096.087l.012.009a.4.4 0 0 0 .066.029l.072.013q.074.008.144-.015h.005l.007-.003c.028-.007.065-.013.09-.02q.159-.051.313-.12.013-.004.026-.009.284-.112.582-.17.054.003.106.022l.095.049.152-.026.069.196a4.54 4.54 0 0 0 1.943 2.317l-.063.152c.029.061.04.13.03.197a3.4 3.4 0 0 1-.315.567q-.101.134-.187.279c-.014.026-.032.067-.045.095a.4.4 0 0 0-.023.05.4.4 0 0 0-.025.087.35.35 0 0 0 .267.384l.072.01a.4.4 0 0 0 .143-.027l.026-.014a.4.4 0 0 0 .094-.068.4.4 0 0 0 .076-.124h.002l.042-.09q.06-.157.1-.32.091-.332.27-.627a.3.3 0 0 1 .152-.073l.079-.143a4.52 4.52 0 0 0 3.22.008l.074.134a.28.28 0 0 1 .178.11q.149.28.24.585.042.164.101.32c.011.026.03.062.043.09a.36.36 0 0 0 .266.226l.073.005a.35.35 0 0 0 .326-.248.35.35 0 0 0-.034-.282c-.014-.028-.032-.067-.046-.093a3 3 0 0 0-.187-.279 3.3 3.3 0 0 1-.309-.554.27.27 0 0 1 .027-.205 1 1 0 0 1-.058-.142 4.54 4.54 0 0 0 2.011-2.53l.149.027a.28.28 0 0 1 .196-.074q.313.06.609.18.152.07.312.121c.025.007.062.012.09.019l.008.002.004.001a.36.36 0 0 0 .282-.028.4.4 0 0 0 .06-.043l.048-.053a.35.35 0 0 0 .064-.275.35.35 0 0 0-.298-.281c-.03-.007-.073-.02-.102-.024a3 3 0 0 0-.335-.027 3.3 3.3 0 0 1-.626-.102.4.4 0 0 1-.15-.152l-.14-.041c.15-1.1-.11-2.218-.728-3.14.036-.033.105-.093.124-.112a.28.28 0 0 1 .065-.197q.241-.207.52-.365.15-.075.29-.17c.022-.016.053-.042.076-.06a.36.36 0 0 0 .158-.239.4.4 0 0 0-.003-.12l-.004-.026a.35.35 0 0 0-.585-.161c-.024.018-.057.043-.078.061a3 3 0 0 0-.23.244q-.214.236-.47.426a.4.4 0 0 1-.213.022l-.132.095q-.074-.077-.152-.152a4.57 4.57 0 0 0-2.744-1.247l-.01-.155a.28.28 0 0 1-.113-.176 3.3 3.3 0 0 1 .04-.633q.033-.165.047-.332V4.31a.36.36 0 0 0-.276-.305z" clip-rule="evenodd"/></g></svg>