<svg xmlns="http://www.w3.org/2000/svg" fill="none" viewBox="0 0 18 18"><rect width="100%" height="100%" fill="#326CE5"/><g transform="translate(9, 9) scale(0.8) translate(-9, -9)"><path fill="#fff" d="M10.43 10.09a.27.27 0 0 0-.309.175.28.28 0 0 0 .005.207l-.002.002.635 1.534a3.24 3.24 0 0 0 1.31-1.645l-1.636-.277zm-2.544.217a.277.277 0 0 0-.32-.21l-.003-.004-1.621.275a3.25 3.25 0 0 0 1.305 1.634l.628-1.518-.005-.006a.27.27 0 0 0 .016-.17m1.357.595a.277.277 0 0 0-.488.001h-.001l-.797 1.442a3.25 3.25 0 0 0 2.091.002l-.799-1.445zm2.524-3.348L10.54 8.652l.001.003a.277.277 0 0 0 .109.476l.001.007 1.589.457a3.3 3.3 0 0 0-.473-2.041m-2.279.123a.277.277 0 0 0 .44.211l.005.002 1.342-.951c-.51-.5-1.172-.82-1.882-.907l.094 1.644zm-1.421.217a.277.277 0 0 0 .44-.212l.006-.003.093-1.647a3.235 3.235 0 0 0-1.893.907l1.351.957zm-.72 1.245a.277.277 0 0 0 .108-.476l.002-.006-1.234-1.103A3.23 3.23 0 0 0 5.764 9.6l1.581-.456zm1.198.485L9 9.843l.453-.219.113-.49-.314-.392h-.505l-.315.392z"/><path fill="#fff" fill-rule="evenodd" d="M8.999 1.012c.164 0 .327.037.475.108L15.2 3.852a1.1 1.1 0 0 1 .592.737l1.415 6.144a1.1 1.1 0 0 1-.212.919l-3.961 4.927a1.12 1.12 0 0 1-.856.408H5.824a1.12 1.12 0 0 1-.856-.407l-3.963-4.927a1.1 1.1 0 0 1-.22-.487 1.1 1.1 0 0 1 .01-.432L2.207 4.59a1.1 1.1 0 0 1 .592-.736L8.523 1.12c.149-.071.311-.108.476-.108m3.456 15.148a1 1 0 0 0 .13-.097zM8.999 3.597a.317.317 0 0 0-.314.282v.155q.011.125.034.248l.01.05q.044.283.034.57a.34.34 0 0 1-.102.163l-.007.132a4.04 4.04 0 0 0-2.62 1.26l-.114-.08a.25.25 0 0 1-.186-.019 3 3 0 0 1-.524-.495l-.106-.106-.07-.057a.38.38 0 0 0-.219-.082.3.3 0 0 0-.25.111.333.333 0 0 0 .077.463l.005.003c.02.017.046.039.065.053q.125.084.26.152.25.142.467.328a.35.35 0 0 1 .063.181l.1.09a4.1 4.1 0 0 0-.617 1.534 4 4 0 0 0-.023 1.3l-.131.038a.44.44 0 0 1-.136.136 3 3 0 0 1-.714.1q-.075.006-.15.017l-.084.019h-.003l-.004.002-.064.016a.32.32 0 0 0-.203.367.3.3 0 0 0 .038.088q.008.016.018.03a.3.3 0 0 0 .087.079l.01.007q.029.016.06.026l.064.013q.067.006.13-.014h.004l.006-.003c.026-.006.06-.012.082-.018q.144-.045.281-.107l.024-.009q.255-.1.524-.153a.4.4 0 0 1 .095.02l.085.043.137-.023.062.177c.327.873.944 1.61 1.75 2.085l-.058.137a.3.3 0 0 1 .028.178q-.117.268-.284.51-.09.12-.168.25c-.013.024-.03.061-.041.086l-.021.045a.3.3 0 0 0-.022.078.316.316 0 0 0 .24.346l.065.009a.3.3 0 0 0 .129-.024l.023-.013a.3.3 0 0 0 .084-.06.3.3 0 0 0 .07-.112v-.001l.04-.08a3 3 0 0 0 .089-.288 2.2 2.2 0 0 1 .244-.565.26.26 0 0 1 .135-.066l.071-.128a4.07 4.07 0 0 0 2.898.007l.067.12c.064.01.122.047.16.099q.135.253.216.527.038.147.091.288c.01.023.027.056.04.08a.32.32 0 0 0 .176.185q.03.013.062.02l.066.004a.317.317 0 0 0 .263-.477l-.041-.084a3 3 0 0 0-.168-.25 3 3 0 0 1-.278-.5.25.25 0 0 1 .024-.184 1 1 0 0 1-.053-.128 4.1 4.1 0 0 0 1.81-2.277l.134.024a.25.25 0 0 1 .177-.066q.281.054.547.161.138.064.282.11c.022.006.055.011.081.017l.006.002h.004a.33.33 0 0 0 .255-.024.3.3 0 0 0 .053-.039l.044-.048a.32.32 0 0 0 .057-.248.32.32 0 0 0-.268-.253c-.027-.006-.066-.017-.092-.021q-.15-.021-.301-.024a3 3 0 0 1-.564-.092.36.36 0 0 1-.134-.137l-.127-.037A4.08 4.08 0 0 0 12.386 7c.032-.03.094-.084.112-.1a.25.25 0 0 1 .058-.178q.218-.186.467-.328.136-.069.262-.153c.02-.014.047-.038.069-.055a.32.32 0 0 0 .142-.214.3.3 0 0 0-.004-.109q0-.01-.003-.023a.315.315 0 0 0-.526-.145l-.07.055a3 3 0 0 0-.207.22q-.193.212-.424.383a.35.35 0 0 1-.19.02l-.12.086a4.116 4.116 0 0 0-2.606-1.26l-.009-.14a.25.25 0 0 1-.102-.157q-.01-.287.035-.57.03-.148.043-.299V3.88a.32.32 0 0 0-.248-.275z" clip-rule="evenodd"/></g></svg>