<svg xmlns="http://www.w3.org/2000/svg" fill="none" viewBox="0 0 20 20"><rect width="100%" height="100%" rx="2px" ry="2px" fill="#3E5FA8"/><g transform="translate(10, 10) scale(0.625) translate(-10, -10)"><path fill="#fff" d="M14.312 1c.544 0 .985.447.985.998v.215H4.63c-.79 0-1.43.648-1.43 1.447v12.588h-.213A.99.99 0 0 1 2 15.251V1.998C2 1.447 2.441 1 2.986 1z"/><path fill="#fff" d="M15.955 2.663c.544 0 .985.447.986.997v.216H6.208a1.44 1.44 0 0 0-1.43 1.447v12.588h-.15a.99.99 0 0 1-.985-.998V3.66c0-.55.442-.997.986-.997z"/><path fill="#fff" fill-rule="evenodd" d="M17.014 4.326c.544 0 .986.447.986.997v12.68a.99.99 0 0 1-.986.997H6.208a.99.99 0 0 1-.986-.998V5.323c0-.55.442-.997.986-.997zm-8.32 3.17v7.915h1.041v-2.77l1.304-1.231 2.826 4.001h1.314l-3.428-4.722 3.296-3.193H13.7l-3.965 3.946V7.496z" clip-rule="evenodd"/></g></svg>