<svg xmlns="http://www.w3.org/2000/svg" fill="none" viewBox="0 0 22 22" shape-rendering="geometricPrecision"><rect width="22" height="22" rx="3" ry="3" fill="#3E5FA8"/><g transform="translate(11, 11) scale(0.7) translate(-11, -11)"><path fill="#fff" d="M15.743 1.1a1.09 1.09 0 0 1 1.084 1.097v.237H5.092c-.869 0-1.574.713-1.574 1.593v13.846h-.234A1.09 1.09 0 0 1 2.2 16.776V2.197c0-.606.486-1.097 1.084-1.097z"/><path fill="#fff" d="M17.55 2.93a1.09 1.09 0 0 1 1.085 1.097v.236H6.829c-.868 0-1.574.713-1.574 1.593v13.846h-.163a1.09 1.09 0 0 1-1.085-1.097V4.027c0-.606.486-1.098 1.085-1.098z"/><path fill="#fff" fill-rule="evenodd" d="M18.716 4.758c.598 0 1.084.492 1.084 1.098v13.947a1.09 1.09 0 0 1-1.084 1.097H6.829c-.599 0-1.085-.49-1.085-1.097V5.856c0-.606.486-1.098 1.085-1.098zM9.564 8.246v8.707h1.145v-3.049l1.434-1.353 3.108 4.402h1.446l-3.771-5.195 3.626-3.512H15.07l-4.361 4.34v-4.34z" clip-rule="evenodd"/></g><rect x="0.3" y="0.3" width="21.4" height="21.4" rx="3" ry="3" fill="none" stroke="var(--cn-comp-avatar-shadow)" stroke-width="0.6"/></svg>