<svg xmlns="http://www.w3.org/2000/svg" fill="none" viewBox="0 0 20 20"><rect width="100%" height="100%" rx="2px" ry="2px" fill="#FFFFFF"/><g transform="translate(10, 10) scale(0.625) translate(-10, -10)"><path fill="#111112" d="M10.42 0q-.194 0-.4.018C6.498.295 7.433 4.023 7.378 5.266c-.063.91-.25 1.627-.875 2.517-.737.875-1.772 2.291-2.263 3.767-.232.693-.342 1.403-.24 2.074a.4.4 0 0 0-.09.113c-.218.223-.376.5-.553.699-.166.166-.405.223-.665.333-.26.114-.548.224-.72.567a1.1 1.1 0 0 0-.11.502c0 .165.023.333.046.446.049.333.097.607.034.809-.208.566-.234.954-.089 1.236.145.279.446.392.784.501.675.167 1.591.113 2.311.5.772.389 1.555.559 2.18.392a1.48 1.48 0 0 0 1.007-.788c.49-.003 1.025-.225 1.883-.279.583-.048 1.312.223 2.148.167.02.112.052.165.095.277l.002.003c.326.648.928.943 1.57.892.643-.05 1.327-.446 1.881-1.088.526-.637 1.403-.903 1.982-1.252.29-.166.524-.391.54-.711.02-.334-.166-.676-.594-1.147v-.08l-.003-.003c-.141-.167-.208-.446-.281-.772-.071-.334-.152-.655-.41-.872h-.003c-.049-.045-.102-.056-.157-.112a.3.3 0 0 0-.158-.054c.36-1.065.22-2.125-.144-3.078-.444-1.175-1.22-2.198-1.812-2.902-.664-.838-1.314-1.631-1.3-2.807C13.394 3.323 13.57.005 10.42 0m.44 2.838h.012c.177 0 .33.051.486.165.159.112.275.276.365.444.088.216.132.382.139.603 0-.017.005-.033.005-.05v.088l-.004-.018-.003-.02a1.5 1.5 0 0 1-.125.588q-.06.159-.177.28a1 1 0 0 0-.074-.035c-.086-.038-.165-.054-.236-.111a1 1 0 0 0-.184-.055c.042-.05.122-.111.153-.165a1 1 0 0 0 .073-.335V4.2a1 1 0 0 0-.05-.333c-.038-.112-.085-.167-.153-.278-.07-.055-.14-.11-.223-.11h-.013c-.078 0-.147.025-.218.11a.67.67 0 0 0-.171.279 1 1 0 0 0-.075.333v.016q.001.112.016.222c-.16-.056-.365-.112-.505-.168a1 1 0 0 1-.015-.167v-.016c-.007-.22.036-.44.125-.64a.9.9 0 0 1 .358-.445.82.82 0 0 1 .495-.165m-2.467.049h.03c.118 0 .225.04.332.112.122.108.22.24.287.388.075.166.116.333.127.556v.003c.006.112.005.167-.001.222v.066q-.037.01-.07.02c-.126.046-.228.113-.327.167q.014-.113.002-.223v-.012c-.01-.11-.033-.167-.068-.278a.5.5 0 0 0-.138-.222.2.2 0 0 0-.153-.053h-.017c-.06.005-.109.033-.155.11a.46.46 0 0 0-.1.225.8.8 0 0 0-.02.275v.012c.01.113.031.167.067.278a.5.5 0 0 0 .139.224.1.1 0 0 0 .028.02c-.058.047-.098.058-.147.113a.25.25 0 0 1-.109.057 2 2 0 0 1-.23-.335 1.5 1.5 0 0 1-.128-.556 1.5 1.5 0 0 1 .066-.557c.046-.164.127-.316.236-.446.107-.11.217-.166.349-.166m1.141 1.421c.277 0 .611.055 1.014.333.244.167.435.224.876.39h.003c.212.113.337.222.398.332v-.109a.48.48 0 0 1 .013.392c-.102.258-.43.536-.885.702v.001c-.224.113-.418.278-.646.388-.23.112-.49.243-.844.222a1 1 0 0 1-.373-.056 3 3 0 0 1-.268-.165c-.163-.112-.303-.276-.51-.387v-.004h-.004c-.334-.205-.514-.427-.572-.592q-.086-.336.16-.5c.187-.112.317-.226.403-.28a2 2 0 0 0 .147-.11h.002v-.002c.14-.168.363-.391.699-.5.116-.03.245-.055.388-.055m2.334 1.785c.298 1.181.996 2.896 1.445 3.728.239.445.713 1.383.919 2.52.13-.004.275.015.427.053.539-1.392-.455-2.889-.907-3.305-.184-.166-.194-.279-.103-.279.492.445 1.138 1.31 1.372 2.298.108.445.133.92.018 1.391.055.024.112.05.17.056.86.445 1.178.782 1.025 1.281V13.8q-.075-.002-.15 0h-.013c.126-.389-.152-.687-.888-1.02-.762-.333-1.371-.28-1.475.388-.006.036-.01.055-.015.112-.056.02-.115.044-.174.054-.358.223-.551.557-.66.989-.109.444-.142.963-.171 1.557v.003c-.017.278-.142.698-.266 1.125-1.25.893-2.984 1.281-4.457.278a2.2 2.2 0 0 0-.335-.444 1.2 1.2 0 0 0-.23-.278c.153 0 .283-.025.388-.055a.51.51 0 0 0 .262-.279c.09-.222 0-.58-.287-.969-.288-.39-.776-.83-1.49-1.267-.525-.334-.822-.726-.959-1.164-.137-.445-.119-.904-.012-1.37.204-.892.727-1.76 1.061-2.303.09-.054.031.112-.34.811-.33.626-.95 2.081-.101 3.212a6.8 6.8 0 0 1 .539-2.396c.47-1.066 1.452-2.92 1.53-4.39.04.03.18.112.24.168.182.11.317.277.492.387a1 1 0 0 0 .73.28q.049.004.092.004c.343 0 .608-.111.83-.223.243-.112.434-.278.618-.333h.004c.389-.113.696-.335.87-.584m1.82 7.466c.031.5.286 1.037.736 1.147.49.112 1.194-.277 1.492-.637l.176-.009c.262-.006.48.008.706.223l.002.003c.174.166.254.442.326.73.07.333.128.65.34.888.406.44.538.755.53.95L18 16.85v.014l-.002-.009c-.013.219-.154.33-.415.495-.525.334-1.455.594-2.048 1.309-.515.614-1.141.95-1.696.992-.554.044-1.031-.166-1.312-.748l-.004-.003c-.175-.333-.1-.854.046-1.408.147-.557.357-1.12.386-1.58.031-.596.064-1.113.163-1.512.1-.388.256-.665.534-.82l.037-.019zm-9.011.04h.008q.067 0 .13.012c.314.046.59.277.853.627l.759 1.386.002.003c.203.444.629.886.991 1.364.362.498.642.942.608 1.308v.005c-.048.62-.4.957-.938 1.079-.537.112-1.267.001-1.996-.387-.807-.447-1.765-.39-2.38-.502q-.462-.083-.603-.333c-.092-.167-.094-.502.102-1.025v-.003l.002-.003c.097-.278.025-.626-.023-.931-.045-.335-.069-.592.036-.784.134-.278.33-.333.575-.444.245-.113.534-.168.763-.392h.001v-.001c.214-.224.371-.501.557-.699.159-.167.317-.28.553-.28m5.966-7.561c-.363.167-.788.445-1.24.445s-.809-.222-1.067-.388c-.128-.112-.233-.223-.311-.28-.137-.11-.12-.277-.062-.277.091.014.108.112.166.167.08.055.18.167.3.278.244.166.567.389.973.389.404 0 .877-.223 1.165-.389.162-.112.37-.278.54-.389.13-.113.124-.222.232-.222.107.013.029.111-.122.276a7 7 0 0 1-.575.39m-.902-1.32V4.7c-.005-.017.01-.035.024-.042.062-.035.15-.022.217.004.052 0 .133.056.125.112-.005.041-.071.055-.113.055-.046 0-.076-.036-.117-.056-.044-.015-.122-.007-.136-.055m-.46 0c-.016.049-.093.041-.138.055-.039.021-.071.057-.116.057-.042 0-.109-.017-.114-.057-.008-.055.074-.11.125-.11.067-.026.154-.04.216-.005.016.008.03.025.025.042v.017h.003z"/></g></svg>