<svg xmlns="http://www.w3.org/2000/svg" fill="none" viewBox="0 0 22 22" shape-rendering="geometricPrecision"><rect width="22" height="22" rx="3" ry="3" fill="#FFFFFF"/><g transform="translate(11, 11) scale(0.7) translate(-11, -11)"><path fill="#0F1013" d="M11.462 0a6 6 0 0 0-.44.02C7.148.324 8.176 4.425 8.116 5.791c-.07 1.002-.275 1.79-.962 2.769-.812.963-1.95 2.52-2.49 4.144-.255.763-.376 1.544-.263 2.282a.4.4 0 0 0-.1.123c-.24.246-.413.55-.609.77-.182.182-.444.244-.73.366-.287.125-.603.247-.792.624a1.2 1.2 0 0 0-.121.552c0 .182.024.366.05.49.053.367.106.668.037.89-.228.623-.257 1.05-.097 1.36.16.306.49.431.861.551.743.184 1.751.124 2.543.55.849.427 1.71.614 2.398.431.482-.106.89-.425 1.108-.867.538-.003 1.127-.247 2.071-.306.641-.053 1.443.244 2.363.183.022.123.057.182.104.305l.003.003c.358.713 1.02 1.038 1.727.982.707-.055 1.46-.491 2.069-1.197.578-.702 1.542-.994 2.18-1.378.319-.183.576-.43.595-.782.02-.367-.184-.744-.655-1.261v-.09l-.003-.002c-.156-.183-.229-.49-.31-.849-.078-.367-.166-.72-.45-.959h-.003c-.054-.05-.113-.061-.173-.124a.33.33 0 0 0-.174-.058c.395-1.172.242-2.338-.158-3.386-.489-1.293-1.343-2.419-1.994-3.193-.73-.921-1.445-1.794-1.43-3.088.024-1.972.216-5.621-3.249-5.627m.485 3.121h.012c.195 0 .363.057.535.182a1.4 1.4 0 0 1 .402.488c.096.238.145.421.152.664 0-.018.005-.037.005-.055v.096l-.003-.019-.004-.022a1.7 1.7 0 0 1-.137.647.9.9 0 0 1-.196.307 1 1 0 0 0-.08-.038c-.096-.041-.182-.059-.26-.122a1 1 0 0 0-.202-.06c.046-.056.134-.123.167-.182q.073-.177.081-.369V4.62a1.1 1.1 0 0 0-.056-.367c-.041-.122-.092-.183-.168-.305-.077-.06-.153-.12-.244-.12h-.015c-.085 0-.161.027-.24.12a.73.73 0 0 0-.188.306q-.074.176-.083.367v.017q.003.123.019.245c-.177-.061-.402-.124-.557-.185a2 2 0 0 1-.016-.183v-.019c-.007-.242.04-.482.137-.704a1 1 0 0 1 .395-.488.9.9 0 0 1 .544-.183m-2.715.054h.033a.64.64 0 0 1 .366.124c.133.118.242.264.315.426.082.183.128.367.14.612v.003c.007.123.006.184-.002.244v.074c-.027.006-.051.016-.076.022-.14.05-.25.123-.36.183a1 1 0 0 0 .003-.245v-.014c-.011-.121-.037-.183-.075-.305a.56.56 0 0 0-.153-.245.23.23 0 0 0-.167-.058h-.02c-.065.005-.119.036-.17.12a.5.5 0 0 0-.11.248.9.9 0 0 0-.021.303v.014c.01.123.034.183.073.306.042.123.09.183.152.245q.014.014.031.022c-.064.053-.107.065-.16.125a.3.3 0 0 1-.121.062 2.4 2.4 0 0 1-.252-.368 1.6 1.6 0 0 1-.142-.612c-.015-.206.01-.414.073-.612.05-.18.14-.347.26-.49.117-.122.238-.184.383-.184m1.256 1.564c.304 0 .672.06 1.114.366.269.183.48.247.965.429h.002c.234.125.372.244.439.366v-.12a.52.52 0 0 1 .014.43c-.113.285-.473.59-.974.772v.002c-.246.124-.46.305-.71.426-.254.124-.54.268-.928.245-.14.007-.28-.013-.41-.061a3 3 0 0 1-.296-.182c-.179-.123-.333-.304-.561-.426v-.005h-.005c-.366-.225-.564-.469-.629-.65q-.095-.37.177-.55c.206-.124.349-.249.443-.308.095-.068.131-.094.161-.12h.002V5.35c.155-.185.4-.431.77-.551.127-.033.269-.06.427-.06zm2.566 1.964c.329 1.299 1.097 3.185 1.59 4.1.263.49.784 1.52 1.011 2.772.143-.005.303.017.47.059.592-1.532-.5-3.178-.998-3.636-.202-.183-.213-.307-.113-.307.541.49 1.252 1.441 1.51 2.527.118.49.146 1.012.018 1.531.062.026.124.055.188.062.946.49 1.296.86 1.128 1.409v-.04c-.055-.003-.11 0-.165 0h-.015c.139-.428-.167-.756-.976-1.122-.839-.367-1.509-.308-1.623.426-.007.04-.012.06-.016.124-.062.021-.128.049-.192.059-.394.245-.607.613-.727 1.088-.119.489-.156 1.06-.188 1.713v.003c-.018.306-.155.768-.292 1.238-1.375.982-3.282 1.41-4.902.306a2.4 2.4 0 0 0-.369-.489 1.3 1.3 0 0 0-.252-.305c.167 0 .31-.028.426-.062a.56.56 0 0 0 .288-.306c.1-.245 0-.639-.316-1.066s-.854-.912-1.64-1.394c-.577-.367-.903-.798-1.053-1.28-.152-.49-.131-.994-.014-1.508.224-.98.8-1.934 1.168-2.533.098-.06.034.124-.374.893-.363.689-1.045 2.29-.112 3.533a7.5 7.5 0 0 1 .593-2.636c.517-1.172 1.598-3.212 1.683-4.83.044.034.199.125.265.186.2.122.348.305.54.426.193.184.438.307.804.307q.054.005.1.006c.378 0 .67-.123.915-.246.265-.123.476-.306.678-.367h.004c.428-.123.766-.368.957-.641zm2.003 8.211c.034.55.315 1.142.809 1.263.539.122 1.314-.306 1.642-.702l.193-.009c.289-.006.529.01.776.246l.003.003c.19.182.28.485.359.803.078.366.14.715.375.977.445.483.59.83.583 1.045l.002-.007v.017l-.002-.01c-.014.24-.17.362-.457.544-.578.368-1.6.653-2.252 1.44-.567.675-1.256 1.044-1.867 1.091-.608.049-1.134-.183-1.443-.823l-.004-.003c-.193-.366-.11-.94.051-1.549.162-.612.393-1.232.425-1.739.034-.654.07-1.224.178-1.663.11-.426.283-.73.588-.902l.041-.02zm-9.913.045h.01q.072 0 .143.013c.345.05.648.305.938.69l.834 1.525.003.002c.223.49.691.976 1.09 1.501.398.548.706 1.037.668 1.44v.005c-.052.682-.44 1.052-1.031 1.186-.591.124-1.393.002-2.195-.425-.888-.492-1.942-.43-2.62-.552q-.507-.091-.662-.367c-.101-.183-.104-.552.113-1.127v-.004l.001-.003c.108-.306.028-.69-.024-1.025-.05-.367-.076-.65.04-.861.146-.306.362-.367.632-.489.27-.124.586-.185.838-.43h.002v-.003c.235-.245.408-.55.613-.768.174-.184.348-.308.607-.308m6.563-8.318c-.399.185-.866.49-1.364.49-.497 0-.89-.244-1.174-.426-.14-.123-.256-.246-.341-.308-.15-.122-.132-.305-.068-.305.1.015.118.123.182.184.088.06.197.183.33.305.268.183.623.428 1.07.428.444 0 .965-.245 1.281-.427.18-.124.408-.306.594-.428.143-.125.137-.245.256-.245.117.015.031.123-.135.304a7 7 0 0 1-.632.43zm-.992-1.45v-.02c-.005-.02.012-.04.027-.047.067-.04.165-.025.238.004.058 0 .147.061.137.124-.005.045-.078.06-.123.06-.05 0-.085-.04-.13-.062-.047-.017-.133-.008-.149-.06m-.505 0c-.018.052-.104.044-.152.06-.043.023-.08.062-.129.062-.045 0-.119-.018-.124-.062-.01-.06.08-.122.137-.122.074-.029.169-.043.238-.005.017.008.033.028.027.046v.018h.003z"/></g><rect x="0.3" y="0.3" width="21.4" height="21.4" rx="3" ry="3" fill="none" stroke="var(--cn-comp-avatar-shadow)" stroke-width="0.6"/></svg>