<svg xmlns="http://www.w3.org/2000/svg" fill="none" viewBox="0 0 18 18"><rect width="100%" height="100%" fill="#FFFFFF"/><g transform="translate(9, 9) scale(0.8) translate(-9, -9)"><path fill="#0F0F11" d="M9.378 0q-.174 0-.36.016C5.848.266 6.69 3.62 6.641 4.739c-.057.82-.225 1.465-.788 2.265-.664.789-1.595 2.063-2.037 3.391-.208.624-.307 1.263-.215 1.867a.3.3 0 0 0-.083.101c-.195.201-.337.45-.497.63-.15.149-.364.2-.598.3-.235.101-.493.201-.648.51a1 1 0 0 0-.099.45c0 .15.02.3.041.403.044.3.087.546.03.727-.186.51-.21.86-.079 1.113.13.25.401.353.705.451.607.15 1.432.101 2.08.45.695.35 1.4.503 1.963.353a1.33 1.33 0 0 0 .906-.71c.44-.002.922-.202 1.695-.25.524-.044 1.18.2 1.932.15.02.1.048.148.086.25l.002.002c.293.583.835.849 1.413.803s1.194-.402 1.693-.98c.473-.573 1.262-.813 1.783-1.127.261-.15.472-.352.487-.64.017-.3-.15-.608-.535-1.032v-.072l-.003-.003c-.127-.15-.187-.4-.253-.694-.064-.3-.137-.59-.37-.785h-.001c-.045-.04-.093-.05-.141-.1a.27.27 0 0 0-.143-.049c.323-.958.198-1.912-.13-2.77-.4-1.058-1.098-1.979-1.63-2.613-.598-.753-1.183-1.467-1.17-2.526.019-1.614.176-4.6-2.659-4.604m.397 2.554h.01c.16 0 .297.046.438.148s.247.25.328.4c.079.194.119.344.125.543q.002-.022.004-.045v.079l-.003-.016-.003-.018c-.001.182-.04.362-.112.53a.7.7 0 0 1-.16.25 1 1 0 0 0-.066-.03c-.078-.034-.149-.049-.213-.1a1 1 0 0 0-.165-.05c.037-.045.11-.1.137-.148a.9.9 0 0 0 .066-.302V3.78a.9.9 0 0 0-.046-.3c-.033-.1-.075-.15-.137-.25-.063-.05-.125-.099-.2-.099h-.012c-.07 0-.132.023-.197.1a.6.6 0 0 0-.153.25.9.9 0 0 0-.068.3v.014q.002.1.015.2c-.145-.05-.328-.101-.455-.151q-.011-.075-.014-.15v-.015a1.3 1.3 0 0 1 .113-.576.8.8 0 0 1 .322-.4.74.74 0 0 1 .446-.15m-2.222.044h.027c.107 0 .203.036.3.101.109.097.198.216.258.349.067.15.105.3.114.5v.003c.006.1.005.15-.001.2v.06q-.033.009-.062.018c-.114.041-.206.101-.295.15a.8.8 0 0 0 .002-.2v-.012c-.009-.1-.03-.15-.061-.25a.46.46 0 0 0-.125-.2.19.19 0 0 0-.137-.048h-.016c-.053.005-.097.03-.14.1a.4.4 0 0 0-.09.202.7.7 0 0 0-.017.247v.012c.01.1.028.15.06.25.035.1.074.15.125.201a.1.1 0 0 0 .025.018c-.052.043-.087.053-.132.102a.2.2 0 0 1-.098.051 2 2 0 0 1-.206-.301 1.3 1.3 0 0 1-.116-.5 1.3 1.3 0 0 1 .06-.502c.04-.147.113-.284.212-.401.096-.1.195-.15.313-.15m1.028 1.28c.249 0 .55.048.912.299.22.15.392.202.789.35h.002c.191.103.304.2.359.3V4.73a.43.43 0 0 1 .012.352c-.093.233-.387.483-.798.632v.001c-.2.102-.375.25-.58.35-.208.1-.442.218-.76.2a.9.9 0 0 1-.336-.05 3 3 0 0 1-.241-.15c-.147-.1-.273-.248-.46-.348v-.004h-.003c-.3-.184-.462-.384-.515-.532q-.077-.303.145-.45c.168-.102.285-.204.362-.252.078-.056.108-.077.132-.099h.002v-.002c.127-.151.327-.352.629-.45a1.4 1.4 0 0 1 .35-.05zm2.1 1.606c.268 1.063.897 2.606 1.301 3.355.215.4.641 1.244.827 2.268q.177-.005.384.048c.485-1.253-.41-2.6-.816-2.975-.165-.15-.174-.25-.093-.25.443.4 1.024 1.178 1.235 2.067.097.401.12.828.016 1.252.05.021.1.045.153.05.774.401 1.06.704.923 1.153v-.032q-.067-.001-.135 0h-.012c.113-.35-.137-.619-.799-.918-.686-.3-1.234-.252-1.327.349-.006.032-.01.05-.014.101-.05.017-.104.04-.157.048-.322.201-.496.502-.594.89-.098.4-.128.867-.154 1.402v.002c-.015.25-.128.629-.24 1.013-1.124.804-2.684 1.153-4.01.25a2 2 0 0 0-.302-.4 1.1 1.1 0 0 0-.206-.25c.136 0 .253-.022.349-.05a.46.46 0 0 0 .235-.25c.081-.2 0-.523-.259-.872-.258-.35-.698-.746-1.34-1.14-.473-.3-.74-.653-.863-1.048-.124-.4-.107-.814-.011-1.234.183-.802.654-1.582.955-2.072.08-.049.028.101-.306.73-.297.564-.855 1.873-.091 2.891a6.1 6.1 0 0 1 .485-2.157c.423-.958 1.307-2.628 1.377-3.95.036.026.163.1.217.15.163.1.285.25.442.35.158.15.358.25.657.25q.044.005.083.005c.309 0 .547-.1.747-.2.218-.101.39-.251.555-.3h.004c.35-.102.626-.302.783-.526m1.639 6.719c.027.45.257.933.661 1.032.441.1 1.076-.25 1.343-.573l.159-.008c.236-.005.432.008.635.201l.002.002c.156.15.229.398.293.657.064.3.116.585.307.8.365.395.484.68.477.855l.002-.005v.013l-.002-.008c-.011.196-.139.296-.373.445-.473.301-1.31.534-1.843 1.178-.464.553-1.028.855-1.527.893-.498.04-.928-.15-1.18-.673l-.004-.003c-.158-.3-.09-.768.042-1.267.132-.501.32-1.008.347-1.423.028-.535.057-1.001.146-1.36.09-.35.231-.598.48-.738l.035-.017zm-8.111.036h.008q.06 0 .117.01c.282.042.53.25.768.565l.682 1.248.002.002c.183.4.566.798.892 1.228.326.448.578.848.547 1.177v.005c-.043.558-.36.861-.844.97-.484.102-1.14.002-1.796-.348-.726-.402-1.589-.351-2.143-.451q-.416-.075-.542-.3c-.083-.15-.085-.452.092-.923v-.003l.001-.002c.088-.25.023-.564-.02-.838-.041-.301-.062-.533.032-.705.12-.25.297-.3.518-.4.22-.101.48-.152.686-.353h.002v-.001c.192-.201.334-.45.5-.629.143-.15.286-.252.498-.252m5.37-6.805c-.327.15-.71.401-1.117.401-.406 0-.727-.2-.96-.35-.115-.1-.21-.2-.28-.25-.122-.101-.107-.25-.055-.25.082.012.097.1.15.15.071.05.16.15.27.25.218.15.51.35.875.35.363 0 .79-.2 1.048-.35.146-.101.334-.25.486-.35.117-.102.112-.2.21-.2.095.012.025.1-.11.249q-.25.189-.518.35m-.812-1.187V4.23c-.005-.015.01-.031.022-.037.055-.033.135-.02.195.003.047 0 .12.05.112.1-.004.038-.064.05-.101.05-.041 0-.07-.032-.106-.05-.039-.014-.11-.007-.122-.05m-.413 0c-.015.043-.085.036-.125.05-.035.018-.064.05-.105.05-.037 0-.097-.015-.102-.051-.007-.05.066-.1.113-.1.06-.023.138-.035.194-.003.014.006.027.022.022.037v.015h.003z"/></g></svg>