<svg xmlns="http://www.w3.org/2000/svg" fill="none" viewBox="0 0 22 22" shape-rendering="geometricPrecision"><rect width="22" height="22" rx="3" ry="3" fill="#2962ff"/><g transform="translate(11, 11) scale(0.7) translate(-11, -11)"><path fill="#fff" d="M19.314 18.666c0 1.593-3.466 3.334-8.31 3.334-2.129 0-3.978-.338-5.389-.842 1.56-.759 3.764-1.295 5.91-1.806 2.995-.718 6.064-1.453 7.789-2.913zM19.306 13.559c.007 2.475-4.126 3.465-8.112 4.422-2.657.636-5.389 1.295-7.138 2.45-.883-.544-1.37-1.17-1.37-1.765 0-2.64 4.407-3.64 8.665-4.597 3.07-.693 6.205-1.402 7.955-2.838zM19.306 8.45c.008 2.369-4.201 3.318-8.261 4.234-3.235.734-6.544 1.485-8.36 3.045v-.512c0-4.597 5.043-5.776 9.912-6.915 3.54-.825 5.265-1.263 6.709-2.427zM10.996 0c4.59 0 8.31 1.493 8.31 3.334s-3.72 3.334-8.31 3.334-8.31-1.493-8.31-3.334S6.406 0 10.996 0"/></g><rect x="0.3" y="0.3" width="21.4" height="21.4" rx="3" ry="3" fill="none" stroke="var(--cn-comp-avatar-shadow)" stroke-width="0.6"/></svg>