<svg xmlns="http://www.w3.org/2000/svg" fill="none" viewBox="0 0 18 18"><rect width="100%" height="100%" rx="2px" ry="2px" fill="#51BB7B"/><g transform="translate(9, 9) scale(0.5625) translate(-9, -9)"><path fill="#fff" d="M3.927 8.98 8.44 4.466a.43.43 0 0 0 .138-.321V1.459a.47.47 0 0 0-.284-.421.46.46 0 0 0-.497.1l-5.96 5.966c-.634.635-.937 1.25-.945 1.895s.293 1.25.919 1.874l5.984 5.986a.43.43 0 0 0 .322.137.26.26 0 0 0 .176-.055.46.46 0 0 0 .283-.423v-2.703a.47.47 0 0 0-.137-.321zm-1.784.892c-.23-.304-.34-.59-.34-.865.009-.385.23-.799.681-1.25L7.66 2.581v1.39L2.89 8.74c-.333.313-.589.7-.746 1.13m5.517 5.543-4.358-4.358a.5.5 0 0 0-.064-.08c-.138-.14-.551-.554.064-1.326l4.357 4.357zm2.544-14.268a.45.45 0 0 0-.496-.101.46.46 0 0 0-.285.423V4.18a.46.46 0 0 0 .138.322l4.514 4.513L9.56 13.53a.43.43 0 0 0-.138.322v2.675a.46.46 0 0 0 .781.331l5.957-5.957c.635-.635.938-1.25.946-1.894.011-.643-.293-1.25-.919-1.875zm.138 2.84V2.583L14.7 6.938q.028.045.064.083c.138.138.551.552-.064 1.324l-4.357-4.358zm5.166 6.262-5.175 5.176v-1.379l4.77-4.781c.331-.315.586-.702.746-1.13.23.303.34.588.34.864-.01.385-.23.79-.68 1.25m-3.125-.875H5.555a.35.35 0 0 1-.349-.348v-.037c0-.193.155-.35.349-.35h6.83a.35.35 0 0 1 .35.35v.037a.356.356 0 0 1-.35.348zm-.973-1.718v.038a.35.35 0 0 1-.351.348H6.867a.35.35 0 0 1-.35-.348v-.038a.35.35 0 0 1 .35-.35h4.192c.193 0 .348.157.348.35h.003m-1.297-1.343v.037a.35.35 0 0 1-.215.323.4.4 0 0 1-.134.027H8.099a.35.35 0 0 1-.349-.35v-.037c0-.193.157-.348.349-.348h1.665a.343.343 0 0 1 .348.348zm-.35 5.029a.35.35 0 0 1 .35.35v.036a.35.35 0 0 1-.35.349H8.1a.35.35 0 0 1-.349-.349v-.036a.35.35 0 0 1 .349-.35zm1.297-.616H6.867a.347.347 0 0 1-.35-.349v-.036a.35.35 0 0 1 .35-.35h4.193c.193 0 .348.156.348.35v.036a.35.35 0 0 1-.348.349"/></g></svg>