<svg xmlns="http://www.w3.org/2000/svg" fill="none" viewBox="0 0 20 20"><rect width="100%" height="100%" rx="2px" ry="2px" fill="#51BB7B"/><g transform="translate(10, 10) scale(0.625) translate(-10, -10)"><path fill="#fff" d="m4.363 9.978 5.016-5.015a.48.48 0 0 0 .153-.358V1.621a.53.53 0 0 0-.315-.468.51.51 0 0 0-.553.111l-6.62 6.63C1.337 8.598 1 9.281.991 9.998s.326 1.388 1.021 2.082l6.65 6.651a.48.48 0 0 0 .357.152c.07.004.14-.018.195-.061a.51.51 0 0 0 .315-.47V15.35a.52.52 0 0 0-.153-.357zm-1.982.99c-.255-.337-.377-.654-.377-.96.01-.428.255-.888.756-1.389l5.75-5.752v1.545l-5.3 5.3a3.3 3.3 0 0 0-.829 1.257m6.13 6.16-4.843-4.842a.6.6 0 0 0-.07-.09c-.153-.155-.613-.615.07-1.472l4.842 4.84zm2.827-15.854a.5.5 0 0 0-.551-.112.51.51 0 0 0-.317.47v3.014a.52.52 0 0 0 .153.357l5.016 5.015-5.016 5.015a.48.48 0 0 0-.153.358v2.972a.512.512 0 0 0 .868.368l6.619-6.618c.705-.706 1.042-1.39 1.05-2.105.013-.715-.325-1.389-1.02-2.083zm.153 3.157V2.869l4.843 4.84q.031.049.07.092c.153.153.613.613-.07 1.471L11.493 4.43zm5.74 6.956-5.75 5.751v-1.531l5.3-5.312c.368-.35.652-.78.829-1.257.255.338.378.654.378.96-.01.429-.255.879-.757 1.39m-3.472-.97H6.172a.387.387 0 0 1-.387-.388v-.04c0-.215.172-.39.387-.39h7.59a.39.39 0 0 1 .388.39v.04a.395.395 0 0 1-.389.387zm-1.081-1.91v.041a.386.386 0 0 1-.39.388H7.63a.387.387 0 0 1-.39-.388v-.042c0-.214.175-.388.39-.388h4.658c.214 0 .387.174.387.388h.003m-1.441-1.492v.04a.39.39 0 0 1-.389.39h-1.85a.387.387 0 0 1-.386-.39v-.04c0-.215.174-.388.387-.388h1.85a.38.38 0 0 1 .387.388m-.389 5.587c.214 0 .388.174.388.389v.04a.387.387 0 0 1-.388.388h-1.85a.39.39 0 0 1-.386-.388v-.04c0-.215.174-.389.387-.389zm1.44-.685H7.63a.39.39 0 0 1-.388-.387v-.04a.39.39 0 0 1 .388-.39h4.658c.215 0 .388.175.388.39v.04a.387.387 0 0 1-.388.387"/></g></svg>