<svg xmlns="http://www.w3.org/2000/svg" fill="none" viewBox="0 0 22 22" shape-rendering="geometricPrecision"><rect width="22" height="22" rx="3" ry="3" fill="#133C8C"/><g transform="translate(11, 11) scale(0.7) translate(-11, -11)"><path fill="#fff" d="M21.09 15.373c-.14.023-.284.039-.431.039a2.51 2.51 0 0 1-2.5-2.511V9.095c0-.758-.611-1.372-1.362-1.372-.75 0-1.36.618-1.36 1.372v3.806a2.51 2.51 0 0 1-2.5 2.51 2.51 2.51 0 0 1-2.5-2.51V9.099c0-.758-.611-1.372-1.362-1.372-.75 0-1.36.618-1.36 1.372v1.085q.002.011.003.023v2.698a2.51 2.51 0 0 1-2.5 2.51 2.51 2.51 0 0 1-2.5-2.51V9.099c0-.758-.61-1.372-1.361-1.372-.389 0-.735.167-.984.428-.24.91-.373 1.862-.373 2.849C0 17.075 4.926 22 11 22a11 11 0 0 0 10.09-6.627"/><path fill="#fff" d="M1.357 6.584a2.51 2.51 0 0 1 2.5 2.511v3.806c0 .758.61 1.372 1.361 1.372.75 0 1.361-.618 1.361-1.372V9.095a2.51 2.51 0 0 1 2.5-2.51 2.51 2.51 0 0 1 2.5 2.51v3.806c0 .758.61 1.372 1.361 1.372.75 0 1.361-.618 1.361-1.372v-.72q-.002-.01-.004-.023V9.095a2.51 2.51 0 0 1 2.5-2.51c1.38 0 2.5 1.127 2.5 2.51v3.806c0 .758.611 1.372 1.361 1.372.374 0 .712-.152.957-.397.249-.917.385-1.885.385-2.88C22 4.925 17.073 0 11 0 6.482 0 2.597 2.729.906 6.623c.148-.023.296-.039.451-.039"/></g><rect x="0.3" y="0.3" width="21.4" height="21.4" rx="3" ry="3" fill="none" stroke="var(--cn-comp-avatar-shadow)" stroke-width="0.6"/></svg>