<svg xmlns="http://www.w3.org/2000/svg" fill="none" viewBox="0 0 20 20"><rect width="100%" height="100%" rx="2px" ry="2px" fill="#133C8C"/><g transform="translate(10, 10) scale(0.625) translate(-10, -10)"><path fill="#fff" d="M19.173 13.975a2.4 2.4 0 0 1-.392.036 2.28 2.28 0 0 1-2.273-2.283V8.269c0-.69-.555-1.248-1.238-1.248s-1.237.562-1.237 1.248v3.459a2.28 2.28 0 0 1-2.273 2.283 2.28 2.28 0 0 1-2.273-2.283V8.272c0-.689-.555-1.247-1.237-1.247s-1.237.562-1.237 1.247v.986q.002.01.004.021v2.453a2.28 2.28 0 0 1-2.273 2.282 2.28 2.28 0 0 1-2.273-2.282v-3.46c0-.689-.555-1.247-1.237-1.247-.354 0-.668.152-.895.388C.12 8.24 0 9.106 0 10.003 0 15.524 4.479 20 10 20a10 10 0 0 0 9.173-6.025"/><path fill="#fff" d="M1.234 5.986a2.28 2.28 0 0 1 2.273 2.283v3.459c0 .689.555 1.247 1.237 1.247s1.237-.562 1.237-1.247V8.269a2.28 2.28 0 0 1 2.273-2.283 2.28 2.28 0 0 1 2.273 2.283v3.459c0 .689.555 1.247 1.237 1.247S13 12.413 13 11.728v-.654l-.003-.021V8.269a2.28 2.28 0 0 1 2.272-2.283 2.28 2.28 0 0 1 2.273 2.283v3.459c0 .689.555 1.247 1.238 1.247.339 0 .646-.138.87-.36.225-.834.349-1.714.349-2.619C20 4.477 15.521 0 10 0 5.893 0 2.361 2.48.824 6.021c.134-.021.268-.035.41-.035"/></g></svg>