<svg xmlns="http://www.w3.org/2000/svg" fill="none" viewBox="0 0 22 22" shape-rendering="geometricPrecision"><rect width="22" height="22" rx="3" ry="3" fill="#3258E2"/><g transform="translate(11, 11) scale(0.7) translate(-11, -11)"><path fill="#fff" d="M19.548 7.67c0 1.826-.016 3.652.007 5.478a3.1 3.1 0 0 1-.452 1.647 7.9 7.9 0 0 1-1.572 1.967 98 98 0 0 1-3.143 2.735c-.897.746-1.84 1.446-2.767 2.17-.13.096-.276.17-.414.267s-.26.082-.391-.015c-.322-.238-.667-.454-.981-.7-1.557-1.23-3.12-2.452-4.661-3.711a10.2 10.2 0 0 1-2.216-2.482 3.33 3.33 0 0 1-.514-1.781c.016-3.816.008-7.631 0-11.447 0-.164.046-.246.207-.298A26 26 0 0 1 6.631.45C7.48.3 8.34.173 9.197.083a19.6 19.6 0 0 1 3.373-.022c2.323.186 4.577.678 6.77 1.43.153.053.191.127.191.276v5.91zm-8.586-.879-.13-.104c-1.273-1.155-2.561-2.31-3.826-3.48-.253-.239-.499-.35-.859-.336-.697.03-1.395.015-2.093 0-.16 0-.222.053-.207.202v8.212c0 .574.039 1.155.1 1.729.077.745.284 1.46.736 2.094.56.775 1.227 1.453 1.924 2.11.023.021.054.029.115.066V7.127l.146.111Q8.144 8.356 9.42 9.474a.33.33 0 0 1 .122.276v3.905c0 .171.054.224.223.216.736-.008 1.464-.008 2.2-.015q.23 0 .23-.23V9.667c0-.082.038-.194.1-.239.912-.73 1.824-1.445 2.744-2.168.03-.023.069-.045.138-.082v10.098c.046-.038.077-.045.092-.067.483-.53.974-1.044 1.441-1.588.36-.417.682-.864.866-1.393.261-.73.36-1.483.36-2.25.016-2.96 0-5.918.016-8.884 0-.134-.038-.179-.184-.179h-2.453a.48.48 0 0 0-.36.142c-.874.82-1.748 1.632-2.622 2.452-.453.424-.905.85-1.38 1.281z"/></g><rect x="0.3" y="0.3" width="21.4" height="21.4" rx="3" ry="3" fill="none" stroke="var(--cn-comp-avatar-shadow)" stroke-width="0.6"/></svg>