<svg xmlns="http://www.w3.org/2000/svg" fill="none" viewBox="0 0 22 22" shape-rendering="geometricPrecision"><rect width="22" height="22" rx="3" ry="3" fill="#602fcd"/><g transform="translate(11, 11) scale(0.7) translate(-11, -11)"><g fill="#fff" clip-path="url(#a)"><path d="M21.697 6.358a.11.11 0 0 1 .155.1v10.61a.11.11 0 0 1-.065.1L11.045 21.99a.11.11 0 0 1-.09 0L.213 17.17a.11.11 0 0 1-.065-.101V6.458a.11.11 0 0 1 .155-.1l10.652 4.78a.11.11 0 0 0 .09 0z"/><path d="m10.843.009 9.438 4.035a.11.11 0 0 1 .004.2l-9.442 4.56a.11.11 0 0 1-.096 0L2.06 4.6a.11.11 0 0 1-.002-.198L10.75.012a.11.11 0 0 1 .094-.003"/></g><defs><clipPath id="a"><path fill="#fff" d="M0 0h22v22H0z"/></clipPath></defs></g><rect x="0.3" y="0.3" width="21.4" height="21.4" rx="3" ry="3" fill="none" stroke="var(--cn-comp-avatar-shadow)" stroke-width="0.6"/></svg>