<svg xmlns="http://www.w3.org/2000/svg" fill="none" viewBox="0 0 20 20"><rect width="100%" height="100%" rx="2px" ry="2px" fill="#602fcd"/><g transform="translate(10, 10) scale(0.625) translate(-10, -10)"><g fill="#fff" clip-path="url(#a)"><path d="M19.724 5.78a.1.1 0 0 1 .141.091v9.645a.1.1 0 0 1-.059.092l-9.765 4.383a.1.1 0 0 1-.082 0L.194 15.608a.1.1 0 0 1-.06-.092V5.871a.1.1 0 0 1 .142-.09l9.683 4.345a.1.1 0 0 0 .082 0z"/><path d="m9.857.008 8.58 3.669a.1.1 0 0 1 .004.181L9.857 8.004a.1.1 0 0 1-.087 0L1.873 4.181a.1.1 0 0 1-.002-.18L9.772.011a.1.1 0 0 1 .085-.003"/></g><defs><clipPath id="a"><path fill="#fff" d="M0 0h20v20H0z"/></clipPath></defs></g></svg>