<svg xmlns="http://www.w3.org/2000/svg" fill="none" viewBox="0 0 20 20"><rect width="100%" height="100%" rx="2px" ry="2px" fill="#5158BE"/><g transform="translate(10, 10) scale(0.625) translate(-10, -10)"><path fill="#fff" fill-rule="evenodd" d="M9.444 5.482c.422 0 .764.338.764.753v7.53a.76.76 0 0 1-.764.753H6.155a5 5 0 0 0 .253.82h3.871q.15 0 .288-.057a.76.76 0 0 0 .475-.694v-6.64h7.126c.437 0 .792.349.792.78v4.155c0 1.584-1.303 2.867-2.91 2.867h-.014c-.442 0-.86-.1-1.235-.273a4.7 4.7 0 0 1-4.176 2.738c-2.23-.054-4.058-1.63-4.488-3.696H1.804a.76.76 0 0 1-.764-.753v-7.53c0-.415.342-.753.764-.753zM3.614 8.35h1.52v4.098h.973V8.35h1.528v-.796H3.613z" clip-rule="evenodd"/><path fill="#fff" d="M16.668 3.43c1.036 0 1.875.827 1.875 1.847s-.84 1.848-1.875 1.848-1.875-.827-1.875-1.848c0-1.02.84-1.847 1.875-1.847M10.834 1.786c1.496 0 2.708 1.196 2.708 2.67 0 1.405-1.101 2.553-2.5 2.658v-1.29a.76.76 0 0 0-.763-.752H8.2a2.6 2.6 0 0 1-.075-.616c0-1.474 1.213-2.67 2.709-2.67"/></g></svg>