<svg xmlns="http://www.w3.org/2000/svg" fill="none" viewBox="0 0 22 22" shape-rendering="geometricPrecision"><rect width="22" height="22" rx="3" ry="3" fill="#5158BE"/><g transform="translate(11, 11) scale(0.7) translate(-11, -11)"><path fill="#fff" fill-rule="evenodd" d="M10.389 6.03c.464 0 .84.372.84.829v8.282a.834.834 0 0 1-.84.828H6.77a5.4 5.4 0 0 0 .278.904h4.258a.8.8 0 0 0 .317-.064.83.83 0 0 0 .522-.763V8.74h7.839c.48 0 .87.384.871.858v4.571c0 1.742-1.433 3.154-3.201 3.154h-.015a3.2 3.2 0 0 1-1.36-.3 5.17 5.17 0 0 1-4.593 3.011c-2.453-.06-4.464-1.793-4.937-4.066H1.984a.834.834 0 0 1-.84-.828V6.86c0-.457.376-.828.84-.828zM3.975 9.185h1.672v4.508h1.071V9.184h1.68v-.876H3.975z" clip-rule="evenodd"/><path fill="#fff" d="M18.335 3.773c1.14 0 2.062.91 2.062 2.032 0 1.123-.923 2.033-2.062 2.033-1.14 0-2.063-.91-2.063-2.033s.924-2.032 2.063-2.032M11.917 1.965c1.646 0 2.98 1.315 2.98 2.937 0 1.545-1.213 2.808-2.75 2.924v-1.42a.836.836 0 0 0-.84-.826H9.02a3 3 0 0 1-.082-.678c0-1.622 1.334-2.937 2.98-2.937"/></g><rect x="0.3" y="0.3" width="21.4" height="21.4" rx="3" ry="3" fill="none" stroke="var(--cn-comp-avatar-shadow)" stroke-width="0.6"/></svg>