<svg xmlns="http://www.w3.org/2000/svg" fill="none" viewBox="0 0 20 20"><rect width="100%" height="100%" rx="2px" ry="2px" fill="#346898"/><g transform="translate(10, 10) scale(0.625) translate(-10, -10)"><path fill="#fff" d="M18.226 17.5c.537.238.807.357.941.833v.238c-.134.476-.404.596-1.075.596h-16.4a.92.92 0 0 1-.806-.477c-.134-.238 0-.714.27-.952.268-.238.537-.238.94-.238zM.934 14.548c.268-.234.67-.467 1.073-.35h16.355q.603 0 .805.7v.235c0 .467-.537.7-1.073.7H1.872c-.402 0-.67-.116-.938-.467a.88.88 0 0 1 0-.818M18.093 10.833c.268 0 .67 0 .94.238 0 .12.134.239.134.477 0 .357-.135.595-.403.833-.135.119-.403.119-.537.119H1.847c-.402 0-.939-.239-.939-.477-.134-.476-.134-.833.403-1.07.134-.12.269-.12.403-.12.402.119.67 0 1.073 0zM18.095 7.554c.134 0 .402-.122.536 0 .402.243.536.487.536.852s-.402.73-.939.73H2.146c-.269 0-.67.122-.939-.121-.536-.244-.536-1.218.268-1.461zM4.514 4.167c4.436.119 9.007 0 13.443.12.403-.12.672-.12.807.118.268.238.403.476.403.833-.134.476-.404.595-.941.595H1.959c-.269 0-.403 0-.672-.12C.884 5.477.75 5.12.884 4.763c.134-.238.403-.476.672-.476.403 0 .806-.119 1.21-.119zM18.255.833q.608 0 .81.385c.136.256.135.513 0 .897l-.27.257c-.405.128-.675.128-.945.128H1.778c-.675 0-.945-.385-.945-.897 0-.385.405-.77.81-.77z"/></g></svg>