<svg xmlns="http://www.w3.org/2000/svg" fill="none" viewBox="0 0 18 18"><rect width="100%" height="100%" fill="#346898"/><g transform="translate(9, 9) scale(0.8) translate(-9, -9)"><path fill="#fff" d="M16.403 15.75c.484.214.726.321.847.75v.214c-.12.429-.363.536-.967.536H1.523a.82.82 0 0 1-.726-.429c-.12-.214 0-.642.243-.857.242-.214.483-.214.846-.214zM.84 13.093c.242-.21.604-.42.966-.315h14.72q.543 0 .724.63v.212c0 .42-.483.63-.966.63h-14.6c-.361 0-.602-.105-.844-.42a.8.8 0 0 1 0-.737M16.284 9.75c.241 0 .603 0 .845.214 0 .107.121.215.121.43 0 .32-.121.534-.363.749-.12.107-.362.107-.483.107H1.663c-.363 0-.846-.215-.846-.429-.12-.428-.12-.75.363-.964.12-.107.242-.107.362-.107.363.107.604 0 .966 0zM16.285 6.798c.12 0 .362-.109.483 0 .362.22.482.439.482.768 0 .328-.362.657-.844.657H1.93c-.241 0-.603.11-.845-.11-.482-.219-.482-1.095.241-1.315zM4.062 3.75c3.993.107 8.107 0 12.1.108.362-.108.604-.108.725.107.242.214.363.428.363.75-.12.428-.363.535-.847.535H1.763c-.242 0-.363 0-.605-.108-.362-.214-.484-.535-.363-.856.121-.215.363-.428.605-.428.363 0 .726-.108 1.09-.108zM16.43.75q.546 0 .729.346c.121.23.121.462 0 .808l-.244.23c-.364.116-.607.116-.85.116H1.6c-.607 0-.85-.346-.85-.808 0-.346.365-.692.73-.692z"/></g></svg>