<svg xmlns="http://www.w3.org/2000/svg" fill="none" viewBox="0 0 20 20"><rect width="100%" height="100%" rx="2px" ry="2px" fill="#F7F7F7"/><g transform="translate(10, 10) scale(0.625) translate(-10, -10)"><path fill="#131314" fill-rule="evenodd" d="M12.927 13.417c.254.105.276-.005.486.086-.035 1.42-.78 2.76-.406 4.38.142-.346.236-.546.307-.755.21-.617.286-.887.527-1.508.303.307.57.568.837.877-.242 1.289-1.08 1.653-2.006 2.337-.11.08-.386-.044-.569-.118-.336-.138-.66-.309-1.027-.372.547.54 1.095 1.08 1.656 1.656-.668-.148-1.352-.332-2.035-.516l.032-.168c-.242.134-.48.275-.728.396-.054.026-.141-.023-.196-.11.065-.38.111-.689.164-1.03l-.867-.21.561 1.124-.582-.09.334.603c-.484-.241-1.033.19-1.23-.434l-1.2-.397c.977-.893 1.28-1.922 1.15-3.221.749.425 1.444.813 2.132 1.213.617.36 1.223.741 1.844 1.092.158.09.357.099.508.137v-1.105c-.404-.224-.908-.604-1.47-.787-.543-.176-1.148-.15-1.758-.216-.028-.116.052-.128 0-.334.147-.206.387-.375.578-.476 1.067-.56 2.058-1.154 2.958-2.054M9.195 17.29c.313.471.39 1.039 1.047.849-.107-.538-.438-.779-1.047-.849" clip-rule="evenodd"/><path fill="#131314" fill-rule="evenodd" d="M17.697 6.823c.027 1.31.199 2.616-.076 3.932-.102.486.116 1.038.093 1.554-.017.367-.098.815-.317 1.074-.808.956-1.686 1.849-2.566 2.788a14 14 0 0 1-.864-.951c.045-1.13.127-2.215.217-3.392l2.237.48.06-.093-2.217-2.02c.34-.429.644-.813.983-1.197.3-.227.573-.447.832-.682.543-.493 1.08-.995 1.618-1.493m-1.333 2.05c-.237.31-.41.54-.554.787l.034.016-.003.005.964.464-.4-1.327z" clip-rule="evenodd"/><path fill="#131314" d="M3.523 7.054c.212-.224.398-.269.641-.094.178.128.389.208.594.355.065 1.555.788 2.692 1.851 3.643.429.383.893.64 1.478.7.38.04.776.18 1.11.376.687.404 1.392.497 2.148.335q.765-.164 1.533-.323c-.04.41-.078.783-.15 1.155-.867.923-1.921 1.498-2.989 2.058-.19.1-.322.325-.48.492L7.206 14.05c-.842-1.32-1.634-2.598-2.442-3.901v1.882l-.11.064-1.02-1.372c-.134-.475-.267-.95-.403-1.513.084-.775.17-1.463.291-2.155"/><path fill="#131314" d="M4.917 10.704c.808 1.303 1.29 2.134 2.098 3.443-.248.252-.355.361-.666.62.013.006-.057-.006-.103-.048-1.068-.978-2.12-1.971-2.9-3.23-.067-.11-.081-.137-.127-.33-.005-.063.088-.078.09-.079.114-.06.078.002.222-.075.37.44.776.863 1.116 1.32.036-.02.233-.084.27-.105z"/><path fill="#131314" fill-rule="evenodd" d="M5.642 3.56c.515.246.953.484 1.41.752.776.43 1.535.83 2.292 1.23.644.65 1.302 1.285 1.928 1.952.625.668 1.218 1.37 1.828 2.053.258.288.165.526-.058.785-.46.535-1.047.894-1.706.916-1.01.034-2.039.015-3.033-.15-1.704-.284-2.387-1.604-2.681-3.215-.145-.793-.264-1.59-.404-2.427.024-.524.04-1.01.102-1.489.018-.146.159-.277.322-.407m3.357 4.015c.122.132.244.265.404.416l.02.003.017.016 1.262.19.059-.28-1.666-.545z" clip-rule="evenodd"/><path fill="#131314" d="M3.221 10.901c.01.037-.009.074-.001.094-.041.023-.13.042-.137.028q-.438-1.163-.858-2.334c-.005-.013.074-.059.108-.085.291.75.584 1.506.888 2.297M11.893 6.527c.369.292.703.577 1.072.876.45.439.958.412 1.553.343.49.156.977.251.63.914-.519.3-1 .599-1.524.925-.245-1.071-.89-1.837-1.614-2.55-.16-.157-.287-.353-.43-.531.093.005.185.01.313.023M2.976 6.381c.138.322.16.38.3.758-.058.72-.202.984-.3 1.72-.567-.35-.4-.657-.336-1.259.057-.54.168-.663.336-1.219"/><path fill="#131314" d="M15.729 5.162c.342.897.145 1.712.088 2.6l1.08-1.45c-.528-.304-.269-.685-.166-1.085.346.49.521.774.831 1.326-.561.523-.87.803-1.413 1.297-.259.235-.358.519-.674.706.31-.662-.308-.898-.759-1.074.015-1.03.346-1.557 1.013-2.32"/><path fill="#131314" d="M13.187.989c1.173.89 2.311 1.8 3.074 3.103.187.32.186.444.335.86-.092.438-.526.99 0 1.295-.378.508-.144.253-.493.722.056-.886.048-1.373-.295-2.27-.666.764-1.428 1.76-1.519 2.782-.558.098-.776.126-1.191-.3.43-.767.774-1.293 1.191-2.068.532-.99.178-1.807-.454-2.598-.322-.401-.549-.885-.836-1.365.04-.071.099-.11.188-.161M6.311 2.445c1.313-1.078 1.314-1.079 1.898-.197-.566.85-.562.901.142 1.519.119.103.25.191.367.296.568.51 1.135 1.023 1.659 1.522-.298-.064-.376-.183-.643-.268-.421-.374-.862-.71-1.283-1.084-1.057-.869-2.42-1.338-3.104-1.249.105.187-.055.299 0 .49-.13.146-.24.349-.258.496-.061.478-.108.912-.174 1.392-.112.138.024.32 0 .47-.076.475-.091.65-.144 1.13-.196-.101-.376-.144-.554-.272-.243-.175-.495-.134-.735.056-.175-.374-.273-.445-.383-.79.08-.874.491-1.543 1.118-2.118.386-.353.671-.823 1.034-1.208.299-.316.647-.573 1.06-.185"/><path fill="#131314" d="M8.351 2.44c.753 1.56 2.03 2.25 3.246 3.298.183.157.118.254.186.53-.142.031-.162.017-.29 0-.398-.305-.486-.457-.85-.752-.566-.511-1.085-.932-1.654-1.442-.117-.105-.227-.22-.345-.324-.704-.617-.876-.497-.293-1.31M7.271 4.216c.379-.015.532.082.977.099.455.34.867.659 1.288 1.033-.047.06-.04.02-.123.07-.782-.377-1.365-.772-2.142-1.202M11.29 0c.664.303 1.11.54 1.712.89-.072.084-.168.092-.227.13-1.51-1.044-2.95-.7-4.597-.454-.069.01-.14 0-.232-.093.193-.07.386-.145.58-.213.195-.068.393-.13.61-.227C9.85 0 10.546 0 11.29 0"/></g></svg>