<svg xmlns="http://www.w3.org/2000/svg" fill="none" viewBox="0 0 20 20"><rect width="100%" height="100%" rx="2px" ry="2px" fill="#DDF2F7"/><g transform="translate(10, 10) scale(0.625) translate(-10, -10)"><path fill="#111112" fill-rule="evenodd" d="M9.876 5.083c2.977-.17 5.846 1.601 7.977 3.184.376.28.975.696 1.416 1.151.22.228.406.471.504.717.099.249.11.505-.026.748l-.007.013-.001-.001c-.338.39-.83.484-1.455.603-.296.055-.627.117-.997.215l-.018.018-.018.01a.1.1 0 0 1-.035.008v-.018c-.403.11-.852.267-1.35.506-.661.316-1.17.6-1.606.85-.435.248-.805.464-1.186.641-.769.355-1.588.552-3.12.563-1.587.01-2.406-.202-3.18-.578-.384-.186-.758-.413-1.205-.668a18 18 0 0 0-1.672-.852 9 9 0 0 0-1.73-.573v.003a.1.1 0 0 1-.039-.011l-.002-.002q-.133-.03-.258-.053v.013a.1.1 0 0 1-.045-.012q-.01-.006-.02-.014-.252-.047-.467-.084c-.304-.054-.56-.103-.755-.19a.7.7 0 0 1-.415-.432l-.03-.101a1.1 1.1 0 0 1 .072-.716l-.003-.024h.014c.103-.231.268-.45.46-.65.413-.434.969-.81 1.355-1.081 1.761-1.24 3.032-2.038 4.208-2.524s2.256-.66 3.634-.659M13 13.59a5.3 5.3 0 0 1-1.414.443 5.3 5.3 0 0 0 1.43-.431q.215-.102.434-.22l.007-.027a9 9 0 0 1-.457.235m-6.352-1.128a.9.9 0 0 0-.272.461c.23.128.443.245.66.346.704.33 1.453.515 2.908.505 1.408-.01 2.152-.177 2.848-.485.231-.103.457-.224.703-.359a.6.6 0 0 0-.085-.247.8.8 0 0 0-.197-.21q-.432.16-.869.296c-.692.228-1.515.423-2.4.423-.849-.1-1.642-.178-2.306-.371q-.325-.104-.667-.233-.159-.06-.323-.126m6.97.805q-.001.012-.004.025.18-.1.372-.21l.007-.026zm-2.592-.27q-.444.075-.887.092l.083.003q.375-.017.748-.078zm-2.331-.08c.385.065.793.1 1.255.096l.07-.003-.07.001a7.6 7.6 0 0 1-1.266-.105zm5.468.044-.012.007-.004.023.046-.026.286-.16.006-.02q-.168.09-.322.176m-.703-.579q-.049.019-.1.036a.75.75 0 0 1 .264.44q.128-.069.265-.145l.107-.06a.95.95 0 0 0-.204-.403q-.164.068-.332.132m-7.31-.114a.97.97 0 0 0-.22.404l.321.181c.05-.185.144-.333.254-.446q-.172-.067-.354-.139m8.498.428q0 .008-.003.014.169-.092.354-.19l.001-.005q-.184.092-.352.18m-2.085-.087-.006.004q.146-.047.292-.098zm-7.034-.46a.8.8 0 0 0-.114.245q.205.109.39.21c.047-.155.122-.286.21-.39l-.405-.16a1 1 0 0 0-.081.096m8.4.049q.045.056.083.12.072.121.11.266l.357-.196a.9.9 0 0 0-.195-.33zm-4.237.344q.095.008.192.01v-.03a3 3 0 0 1-.188-.008zm.33-.02v.03q.1-.001.196-.01l-.004-.029a3 3 0 0 1-.191.01M9.37 12.5q.09.017.181.029l.004-.029a3 3 0 0 1-.179-.027zm.983-.002.004.03a3 3 0 0 0 .187-.03l-.007-.028a3 3 0 0 1-.184.028m-3.32-.048.203.072-.006-.005-.188-.065-.246-.094q.12.047.238.092m2.014-.024q.092.027.187.047l.007-.027a3 3 0 0 1-.185-.046zm1.626.016.007.03q.092-.022.183-.048l-.01-.028q-.09.025-.18.046m2.072.016-.005.004.308-.105-.006-.004q-.148.054-.297.105m2.404-.02-.001.003.1-.052zm-6.405-.116q.085.033.171.062l.01-.027a3 3 0 0 1-.17-.06zm.97.052q.083.007.17.01v-.052a3 3 0 0 1-.165-.007zm.308-.043v.052q.088-.002.175-.01l-.007-.05a3 3 0 0 1-.168.008m.963.021.01.03q.09-.03.174-.063l-.013-.029a3 3 0 0 1-.171.062m-1.575-.017q.081.015.164.025l.007-.051a3 3 0 0 1-.16-.023zm.918-.027.007.05q.085-.01.168-.025l-.012-.048q-.081.014-.162.023m-5.22-.448a.8.8 0 0 0-.168.29q.181.09.348.176a.9.9 0 0 1 .126-.256q.027-.038.058-.07-.176-.07-.364-.14m9.308.144q.045.052.083.109.062.097.102.209.175-.093.368-.192a.8.8 0 0 0-.17-.277zm-5.314.262q.084.024.17.043l.014-.052a3 3 0 0 1-.166-.04zm1.525-.01.012.048q.084-.018.166-.04l-.018-.049a3 3 0 0 1-.16.04m2.714-.007q-.067.024-.134.047l.003.003.17-.06q.139-.054.278-.108l-.005-.003c-.104.04-.207.083-.312.121M6.783 7.595a.076.076 0 0 0-.102.031 3.94 3.94 0 0 0 .694 4.63c.03.03.079.028.108 0a.075.075 0 0 0-.001-.106 3.79 3.79 0 0 1-.668-4.453.076.076 0 0 0-.031-.102m6.323 0a.076.076 0 0 0-.031.102 3.79 3.79 0 0 1-.668 4.453.075.075 0 0 0 0 .105c.029.03.077.03.106.001a3.941 3.941 0 0 0 .694-4.63.076.076 0 0 0-.101-.03m-4.66 4.589q.084.042.17.08l.01-.023q-.085-.037-.168-.079zm2.837.05.012.027q.09-.04.18-.085l-.017-.025c-.056.03-.117.056-.175.083m-2.47-.065q.077.03.156.056l.018-.052a3 3 0 0 1-.15-.053zm2.107.003.017.048q.08-.026.158-.056l-.022-.045q-.076.029-.153.053m-1.181.011q.071.006.144.008v-.113q-.065 0-.13-.005zm.284-.102v.11q.075-.002.15-.008l-.014-.11q-.067.006-.136.008m3.238.108.05-.018q.123-.046.242-.093l-.004-.001q-.143.057-.288.112m-3.806-.04q.071.012.144.021l.016-.113q-.068-.008-.134-.02zm.843-.088.014.108q.072-.009.145-.021l-.027-.107zm-1.134.022q.075.022.154.04l.027-.115q-.073-.014-.142-.035zm1.403-.068.026.105q.075-.015.147-.037l-.037-.102q-.067.019-.136.034m-4.47-4.147c-.83.46-1.884 1.14-3.329 2.143-.087.06-.215.124-.35.186-.136.063-.281.126-.41.188-.13.063-.24.124-.303.18q-.047.042-.053.067c-.004.013-.002.026.014.043a.2.2 0 0 0 .081.042q.062.02.156.031c.124.016.283.023.46.032l.188.01.007-.01.016.01c.305.018.643.05.938.143l.134.043.009-.005a.1.1 0 0 1 .046-.012v.035q.257.081.497.162a.2.2 0 0 1 .072-.017v.041q.268.09.516.179a.4.4 0 0 1 .063-.017l.007.042.469.17.03-.01.005.024q.246.089.472.175l.023-.01.007.021.529.2.027-.006.003.018.398.152a4.02 4.02 0 0 1-.723-4.25m2.06 4.144q.082.055.169.103l.012-.022q-.085-.047-.167-.1zm.374.03q.076.039.154.073l.023-.052q-.075-.033-.148-.07zm2.669.02.022.046q.083-.036.163-.076l-.026-.044q-.079.04-.16.074m.38.018.015.025q.08-.046.16-.097l-.02-.024q-.076.05-.155.095m2.207-4.266a4.014 4.014 0 0 1-.679 4.278l.052-.017q.159-.062.318-.125v-.026q.026.002.05.006.237-.09.472-.184l.012-.043.053.018q.243-.095.484-.19l.008-.018.019.009q.219-.084.437-.165l.01-.035.042.015q.265-.1.527-.192l.013-.049q.031.009.062.024.261-.089.519-.163l.02-.035q.013.009.028.02l.073-.02q.231-.064.426-.097l.006-.02q.015.004.033.013a4 4 0 0 1 .556-.06l.01-.008.004.007.184-.006q.149-.003.275-.011l.006-.004.003.004a1.1 1.1 0 0 0 .435-.099c-.004-.008-.01-.016-.01-.027h.006q-.01-.013-.029-.03a2.3 2.3 0 0 0-.297-.18c-.126-.067-.265-.137-.391-.203a3 3 0 0 1-.31-.182c-1.145-.842-2.083-1.459-2.883-1.911l-.01.007-.01-.018a15 15 0 0 0-.524-.283m-9.211 3.918a1 1 0 0 0-.087.203q.17.077.326.152a.9.9 0 0 1 .156-.279l-.357-.133q-.02.027-.038.057m9.228.337.005.004.348-.134-.006-.004zm1.13-.27q.026.03.05.06.066.094.11.21l.293-.145.057-.026a.7.7 0 0 0-.148-.241zm-4.098.14.037.103.14-.05-.048-.099zm-1.941.054q.068.026.138.048l.038-.112-.126-.046zm4.83.015.003.002q.172-.065.34-.132l-.002-.002q-.17.067-.341.132m-5.47-.126q.075.048.155.092l.03-.05q-.076-.043-.15-.09zm3.224.035.027.043q.074-.041.145-.087l-.031-.041q-.07.045-.141.085m-1.456-.104v.129q.06-.002.118-.006l-.016-.128zm-.251.122q.056.004.112.005v-.126l-.095-.005zm-1.14-.062q.067.034.134.064l.052-.111c-.041-.02-.084-.036-.123-.057zm2.46-.034.048.098a3 3 0 0 0 .145-.07l-.057-.091q-.066.034-.136.063m-3.203-.027q.076.062.155.12l.015-.02a3 3 0 0 1-.153-.117zm3.96.09.018.024q.08-.06.158-.122l-.02-.021q-.076.062-.157.12m-1.585-.109.017.131q.058-.007.116-.017l-.032-.128q-.05.009-.1.014m-.75.109q.06.01.12.018l.016-.124-.108-.015zm4.782-.024.006.005.374-.143-.009-.006zm-3.795-.129.033.131q.061-.013.122-.03l-.046-.128q-.054.015-.109.027m-6.45-.238a.7.7 0 0 0-.06.207q.174.069.354.15l.017.007q.038-.118.093-.213.01-.019.023-.036l-.41-.145zm5.196.33q.065.018.13.033l.029-.12-.117-.03zm6.186-.237a.8.8 0 0 1 .142.235q.174-.078.34-.144a.7.7 0 0 0-.08-.242zm-1.21.212.002.002.357-.14h-.003zm-3.481-.138.047.132.116-.042-.06-.127q-.052.02-.103.037m-2.369.045q.068.043.138.082l.064-.107q-.063-.037-.124-.077zm-.372-.028q.069.055.141.106l.035-.048q-.068-.049-.135-.102zm1.001.062q.056.022.114.041l.04-.118q-.052-.018-.1-.037zm2.347-.05.057.091q.066-.037.13-.077l-.067-.087q-.059.038-.12.072m.383.042.032.042q.073-.053.144-.11l-.037-.038q-.067.055-.14.106m-4.083-.16q.067.067.136.13l.015-.016a3 3 0 0 1-.136-.128zm3.321-.006.063.131q.06-.027.12-.057l-.075-.125q-.053.026-.108.051m1.139.107.02.021q.067-.06.131-.127l-.022-.018a3 3 0 0 1-.13.124m-3.342-.041q.053.027.108.05l.053-.113-.097-.046zm6.049.028.007.006q.176-.069.352-.134l-.009-.006zm-5.009-.006q.039.004.077.004V11.5l-.054-.002zm.217-.17-.001.173q.043 0 .085-.004l-.022-.172zm-6.44-.184a.8.8 0 0 0-.034.24q.15.05.308.11a.8.8 0 0 1 .065-.214l.01-.018zm5.99.329.093.014.024-.175-.075-.01zm.652-.162.021.172q.043-.005.085-.012l-.043-.17zm5.743-.078q.053.103.077.237a8 8 0 0 1 .332-.115.6.6 0 0 0-.038-.229q-.004-.008-.009-.017-.18.059-.362.124m-7.83.144q.06.047.122.091l.077-.102q-.055-.041-.108-.085zm3.443.002.066.087q.066-.047.128-.098l-.075-.08q-.06.048-.12.091m-2.249.04.105.027.04-.173-.087-.023zm1.092-.145.042.169.095-.026-.059-.164zm-2.654.038q.06.06.125.117l.042-.044a3 3 0 0 1-.12-.113zm4.205.065.036.04q.062-.057.12-.115l-.04-.035a3 3 0 0 1-.116.11m-.78-.09.08.127q.055-.03.108-.064l-.094-.123zm-2.662.05q.054.035.112.069l.066-.11q-.052-.03-.101-.062zm.58.007.087.031.058-.169-.07-.025zm1.521-.133.06.163q.045-.014.089-.032l-.077-.157q-.035.014-.072.026m-7.558-.232a.7.7 0 0 0-.011.257q.165.045.344.102a1 1 0 0 1 .04-.237q-.18-.061-.373-.122m12.24.335.007.006q.212-.08.424-.156l-.006-.005q-.212.075-.425.155m-7.874-.131q.053.066.11.13l.016-.013a3 3 0 0 1-.11-.129zm9.021-.118q.004.005.006.011.042.106.049.237a9 9 0 0 1 .31-.088.6.6 0 0 0 .017-.274 12 12 0 0 0-.382.114m-4.13.226.02.019q.062-.07.12-.142l-.024-.015a3 3 0 0 1-.117.138m-3.431-.044q.04.022.083.04l.076-.165-.065-.03zm1.931-.119.076.157c.03-.014.064-.028.094-.044l-.091-.15zm-2.909.054q.054.052.11.101l.09-.094-.096-.094zm3.88.015.075.079q.054-.05.106-.1l-.084-.072zm-.403-.053.096.125q.053-.04.107-.081l-.111-.118zm-3.076.037q.046.039.095.073l.078-.104q-.041-.032-.083-.065zm-.754-.09q.05.06.103.12l.05-.042-.1-.116zm4.615.073.04.036q.056-.062.107-.127l-.044-.03a3 3 0 0 1-.103.121m-9.614-.261a.6.6 0 0 0-.01.207q.171.037.357.086a.9.9 0 0 1 .02-.251 3 3 0 0 0-.333-.04zm7.45.08v.205l.046-.002-.026-.203zm-.175.203h.035v-.204h-.008zm7.48-.336a3 3 0 0 0-.346.067.7.7 0 0 1-.001.269q.188-.045.363-.081a.54.54 0 0 0-.016-.255m-8.633.272q.043.029.089.055l.092-.156-.072-.046zm.954.042q.03.006.06.01l.028-.206-.04-.006zm.534-.193.025.201.047-.007-.05-.198zm.85.049.09.148q.043-.025.084-.051l-.107-.14zm-.69-.077.049.196.064-.017-.069-.19zm-.907.175q.037.011.076.02l.048-.204-.056-.015zm6.452-.01.005.006q.127-.046.253-.09zm-4.292-.132.112.119q.046-.04.087-.083l-.127-.11zm-3.46.03q.041.042.085.082l.092-.097-.073-.073zm-.4-.034q.046.056.095.108l.103-.088-.084-.101zm2.784-.081.068.19.059-.022-.087-.182zm-8.427-.016a.5.5 0 0 0-.01.137q.161.03.337.067a.7.7 0 0 1 .012-.185zm15.376-.042a.7.7 0 0 1 .02.242l.253-.05q.045-.008.087-.018a.4.4 0 0 0-.024-.181 3 3 0 0 0-.336.007m-8.222.221q.028.011.057.02l.068-.199-.037-.013zm2.75-.053.084.072.093-.11-.092-.063zm-4.753-.097q.054.085.114.168l.016-.011a3 3 0 0 1-.113-.167zm5.29.137.024.016q.051-.072.099-.147l-.025-.013a3 3 0 0 1-.097.144m-4.022-.056q.035.027.07.053l.11-.146-.051-.043zm2.7-.09.106.139.08-.065-.121-.128zM.298 10.792c.058.17.168.276.34.352q.044.019.094.035c-.193-.083-.334-.2-.406-.392l-.019-.053-.026-.002-.001-.001zm10.39.204.087.18.064-.031-.106-.172zm-1.62.149q.025.013.052.024l.088-.193-.03-.015zm-7.326-.03q.064.014.133.029l.067.013q0-.06.012-.12a4 4 0 0 1-.213-.023 1 1 0 0 0 0 .1M7.383 11q.05.078.104.152l.052-.037a3 3 0 0 1-.098-.146zm10.57.004q.02.076.017.147l.215-.044a.5.5 0 0 0 .001-.094q-.075.001-.158-.004zm-5.579.1.045.03q.048-.065.091-.134l-.048-.026a3 3 0 0 1-.088.13m-11.082-.098c.091.03.195.053.31.078q-.002-.047.001-.096c-.022-.005-.044-.006-.064-.011a1 1 0 0 1-.167-.06.6.6 0 0 0-.08.09m10.47-.035.129.111q.038-.044.075-.09l-.143-.098zm-3.799.012.077.093.105-.09q-.036-.041-.068-.084zm2.892-.08.104.17q.03-.016.057-.034l-.121-.16zm-1.967.133.06.037.11-.184-.04-.026zm9.64-.105a.7.7 0 0 1-.146.06q-.03.007-.057.011l.003.07q.12-.03.23-.063.012-.006.025-.01a1 1 0 0 0-.054-.068m-10.183.07q.03.032.064.062l.128-.136-.047-.048zm11.26-.26a1 1 0 0 1-.041.087l-.004.006-.005.006q-.115.13-.254.222a1.2 1.2 0 0 0 .327-.256q.018-.035.032-.07zm-8.225.18.121.126.062-.063-.134-.115q-.024.026-.049.051m-3.817-.017q.042.066.089.13l.113-.082q-.04-.056-.076-.117zm4.603.057.093.064q.042-.059.081-.118l-.1-.056zm-2.142.055h.002l-.001-.014zm-9.565-.27c.048.118.131.2.254.267a.7.7 0 0 1-.212-.264q-.021 0-.042-.004m9.707.258h.005l-.011-.05zM9.73 11l.025.004.008-.06-.02-.001zm.563-.08.016.062.03-.008-.022-.061zm-9.632-.16a.6.6 0 0 0 .261.22.7.7 0 0 1-.199-.219zm8.888.201.044.011.013-.057-.037-.011zm3.158-.01.023.014q.047-.084.09-.17l-.026-.011a3 3 0 0 1-.088.168m-5.632-.177q.044.095.095.185l.017-.01a3 3 0 0 1-.095-.182zm3.932.025.12.159.054-.043-.136-.144zM.895 10.763a.65.65 0 0 0 .26.193h.003a1 1 0 0 1 .092-.115.3.3 0 0 1-.052-.058q-.008-.014-.014-.028a6 6 0 0 1-.289.008m7.84.158.04.033.13-.174-.019-.017zm10.003-.142a1 1 0 0 1-.092.078q.04.044.071.092.176-.076.31-.189a6 6 0 0 1-.272-.01q-.006.014-.017.029m-8.288.091.023.064.026-.01-.029-.061zm-1.056.038.023.008.019-.056-.018-.007zm-1.205-.086q.03.04.062.077l.145-.121-.052-.067zm-.968-.108q.041.086.088.17l.059-.032a3 3 0 0 1-.085-.162zm4.686.07.144.1.068-.1-.158-.087q-.026.045-.054.088m.629.073.047.026q.044-.076.082-.155l-.05-.02q-.038.075-.08.149m-1.013-.091.134.115q.026-.031.05-.064l-.146-.1q-.019.024-.038.049m-3.712.005.067.101.115-.08-.057-.088zm11.415-.009q-.008.011-.018.023-.046.046-.096.086.07-.05.133-.11zm-8.629.045.03.063.034-.015-.037-.06zm-1.348.034.018.008.024-.055-.01-.005zm-.653-.05.036.037.152-.159-.02-.02zm2.553-.116.136.145.039-.041-.15-.13zm7.128.114.05-.016-.008-.004q-.021.01-.042.02m-5.963-.056.1.056q.038-.067.072-.135l-.108-.045q-.03.063-.064.124m-4.902-.095q.036.075.078.149l.126-.069q-.037-.066-.069-.135zm3.332.087.038.06.027-.016-.044-.058zm8.68.049.02-.02h-.012q-.003.01-.008.02m-10.322-.022.028.018.03-.052-.022-.014zm-7.75-.01.001.002.008.006.004-.002-.003-.006zm17.178-.014-.01.009q.008.005.015.011l.02-.02-.024-.003zm-7.852-1.15a.736.736 0 0 1-.656.634v.522a1.265 1.265 0 0 0 1.182-1.157zm-1.967.004c.061.625.56 1.113 1.172 1.15v-.52a.74.74 0 0 1-.636-.63zm-.653 1.055q.022.037.047.073l.156-.11-.033-.055zm3.587-.032.146.1q.025-.037.048-.076l-.156-.087zm-3.188.025.045.058.17-.142q-.018-.022-.035-.045zm2.421 0 .044.057.027-.02-.052-.054zm.39-.084.15.13.029-.039-.164-.112zm-2.285.117.007.005.036-.05h-.001zm3.873-.005.026.01q.033-.075.063-.153l-.028-.009q-.029.077-.061.152m-.823-.08.159.088q.03-.055.057-.11l-.17-.073zm-4.357-.046q.03.06.062.12l.126-.068q-.029-.052-.053-.107zm-.727-.05q.029.084.064.166l.018-.007a3 3 0 0 1-.065-.165zm-6.174-.077q0 .11.04.219v.002q.163.002.35-.008a.2.2 0 0 1 .04-.084l.036-.04a4 4 0 0 1-.466-.09m18.391-.038a2.4 2.4 0 0 1-.532.143q.048.035.081.069.014.014.025.03.183.014.419.014a.37.37 0 0 0 .056-.28q-.024.012-.049.024M.573 10.343q-.014.14.027.277.033 0 .067.002a.8.8 0 0 1-.03-.256q-.034-.01-.064-.023m18.77-.061a.6.6 0 0 1 .017.183.5.5 0 0 1-.042.154h.02a.57.57 0 0 0 .006-.338zm-18.071.302-.019.029.005-.001.02-.034zm18.214-.34a.7.7 0 0 1 0 .369l.013-.001a.67.67 0 0 0-.013-.367M.422 10.28a.8.8 0 0 0-.004.323l.033.003a.9.9 0 0 1-.012-.319zm12.254.302.051.022q.029-.07.055-.142l-.052-.016q-.025.069-.054.136m6.912-.473c.066.162.09.326.059.49l.053-.005a.8.8 0 0 0-.056-.407 1 1 0 0 0-.042-.092zm-19.294.08a1 1 0 0 0-.043.397l.023.003a1 1 0 0 1 .026-.394zm6.808.247q.027.077.058.153l.061-.024q-.029-.073-.056-.149zm-5.523.143.007-.001.006-.011zm9.42-.061.053.057.016-.016-.06-.052zm-2.128.042.008.009.043-.046-.004-.004zm3.569-.077.107.046q.027-.062.05-.126l-.112-.036q-.022.058-.045.116m-1.074-.07.164.113.031-.051-.173-.097zm-3.425.012q.021.047.045.093l.172-.092q-.019-.037-.036-.073zm.41.054.023.039.182-.13-.009-.014zm-1.053-.102q.025.07.052.136l.138-.056q-.024-.06-.046-.123zm4.455.045.159.088q.02-.04.039-.08l-.167-.07zm-3.003 0q.014.016.027.034l.049-.04-.025-.032zm2.35-.02.063.054.005-.01-.067-.045zm1.038-.045.174.072q.021-.052.04-.104l-.18-.059zm-4.564-.063q.019.056.042.112l.137-.055-.037-.099zm11.395-.425a1.2 1.2 0 0 1-.194.159c-.147.097-.325.18-.503.26q.099.053.19.107c.259-.026.477-.085.65-.157l.065-.031-.011-.03a1.5 1.5 0 0 0-.197-.308m-6.005.505.027.01q.035-.11.062-.222l-.028-.005a3 3 0 0 1-.06.217M.872 10.021a1 1 0 0 0-.082.244c.172.045.382.084.618.111l.046-.027q.069-.037.147-.072a3 3 0 0 1-.478-.25 1.3 1.3 0 0 1-.175-.14q-.043.068-.076.134m7.38.28.028.059.197-.107-.018-.036zm3.206-.043.174.097q.013-.024.024-.049l-.184-.077zM6.85 10.15q.024.1.055.2l.016-.006a3 3 0 0 1-.053-.197zm4.333.139.068.046q.008-.011.015-.024l-.072-.04zm1.596.026.052.017q.03-.1.054-.2l-.053-.01q-.024.097-.053.193m-5.773-.194q.022.093.048.183l.064-.018q-.026-.087-.046-.176zm4.835.112.168.07q.016-.04.03-.08l-.174-.056q-.011.034-.024.066m-3.991-.02.031.086.184-.073q-.014-.035-.026-.07zm4.684.023.112.036q.027-.087.048-.176l-.117-.02q-.02.08-.043.16m-5.326-.152q.02.083.042.162l.146-.043a3 3 0 0 1-.04-.146zM.833 9.752a1.7 1.7 0 0 0-.174.29 1 1 0 0 0-.06.162l.055.021q.028-.135.093-.266.045-.091.105-.181zm17.7-.327c-.146.296-.403.486-.647.636q.1.067.236.142c.21-.095.411-.182.577-.291q.102-.069.178-.148a4 4 0 0 0-.225-.233q-.058-.053-.118-.106M1.356 9.41q-.188.178-.326.362.075.075.173.142c.163.11.363.198.564.284l.03-.014q.121-.058.226-.121c-.215-.163-.464-.39-.589-.726zm10.863.725.183.06q.021-.071.038-.144l-.19-.035zm-.955.016.073.04.008-.015-.077-.032zm-2.675.015.011.023.057-.031-.008-.016zm2.943-.063.182.076.02-.053-.189-.06zm-3.359.014q.01.03.022.058l.209-.084-.014-.039zm-.678-.083q.014.066.034.13l.143-.043-.028-.115zm-7.03.107.008.005a1 1 0 0 1 .056-.151 1 1 0 0 0-.065.146m11.446-.104.174.055q.014-.05.027-.1l-.182-.034q-.008.04-.02.079M7.78 9.98q.011.05.025.1l.192-.057-.021-.078zm3.544.035.078.033.01-.026-.08-.025zm-2.802-.004.01.028.06-.025q-.006-.01-.01-.021zm4.532.009.028.005a3 3 0 0 0 .033-.204l-.029-.001q-.013.1-.032.2m-6.263-.19q.012.092.03.184l.017-.003a3 3 0 0 1-.028-.182zm6.074.156.051.009q.018-.09.03-.182l-.053-.003a3 3 0 0 1-.028.176m-1.277-.054.189.06.015-.059-.195-.036q-.004.017-.009.035m-1.384-.353a.28.28 0 0 1-.182.143v.265a.51.51 0 0 0 .43-.408zm-3.255.24q.01.084.026.167l.064-.012a3 3 0 0 1-.026-.158zM9.47 9.58c.046.212.211.37.412.405v-.26a.28.28 0 0 1-.188-.144zm-1.358.34.016.064.218-.066-.01-.04zm-6.567-.684c.111.351.375.576.604.746l.29-.2a1.7 1.7 0 0 1-.304-.295 1.5 1.5 0 0 1-.265-.509q-.166.124-.325.258m17.977.739.006-.006q-.046-.075-.1-.15.05.078.094.156m-1.509-.97c-.111.338-.327.572-.554.753l.301.215c.263-.157.53-.342.664-.643a10 10 0 0 0-.41-.325m-5.406.934.118.021a3 3 0 0 0 .025-.158l-.12-.006a3 3 0 0 1-.023.143m-5.453-.133q.009.072.022.143l.15-.028-.019-.125zm5.123.073.192.035q.011-.061.02-.125l-.197-.01zm-4.83-.091.016.109.15-.027q-.008-.046-.014-.092zm3.927.076.08.025.004-.017-.082-.015zm-2.902-.01.006.025.06-.018-.005-.019zm3.484-.033.184.033.013-.082-.187-.01zM7.74 9.769l.011.075.199-.036-.008-.052zm3.887-.008.196.035.006-.04-.199-.011zM8.08 9.747l.005.036.224-.041-.002-.01zm-6.09-.86c.05.198.143.37.256.514.096.122.207.223.315.299q.198-.137.388-.267a1.67 1.67 0 0 1-.573-.82 17 17 0 0 0-.386.274m4.787.804.018-.001a3 3 0 0 1-.008-.187h-.019q.002.095.009.188m6.33-.18a3 3 0 0 1-.007.17l.028.002q.007-.086.01-.173zm-6.173.17.064-.005a3 3 0 0 1-.008-.166l-.065-.002q.002.087.009.173m5.974-.01.052.003q.006-.08.008-.16h-.052a3 3 0 0 1-.008.157m4.628-1.02q-.078.247-.214.431a1.7 1.7 0 0 1-.34.338l.358.253c.236-.183.456-.413.556-.759zM7.138 9.668l.154-.01-.006-.136-.156-.006q.002.077.008.152m5.515-.15-.007.142.121.005q.006-.074.008-.149zm-11.53-.096q-.106.107-.199.216l.014.024a3 3 0 0 1 .321-.353l.13-.12-.002-.008q-.138.117-.264.241m11.193.1q-.002.06-.007.12l.196.01q.006-.066.008-.132zM7.43 9.65l.153-.01-.005-.108-.154-.006q.002.062.006.124m4.557-.123-.005.098.187.01q.005-.054.006-.11zm-4.266.104.204-.012-.004-.077-.205-.006zm3.924-.023.198.01.002-.04h-.198zm-3.582.002.227-.015v-.01h-.183v-.037H8.06zm3.36-.014.083.005.001-.023h-.08zm-2.995-.01.049-.003h-.05zm-.368-.178h.047v-.045l-.044-.006zm-.346-.012.207.007.004-.066-.206-.03zm-.29-.009.153.005q0-.053.004-.104l-.152-.023q-.004.06-.006.122m4.558-.055.003.055.19-.002q0-.037-.004-.076zm.328-.04.005.091.197-.003-.006-.113zm-5.182.085.157.005q0-.07.006-.137l-.155-.023a3 3 0 0 0-.008.155m5.517-.128q.005.064.007.13l.123-.002-.007-.142zm.264-.032q.006.079.007.158h.05a3 3 0 0 0-.009-.165zm-5.984.154.063.002q.002-.087.008-.171l-.061-.01a3 3 0 0 0-.01.179m6.171-.177q.007.089.01.179h.03a3 3 0 0 0-.01-.183zm-6.328.17.019.002q.002-.098.011-.193l-.02-.003q-.007.097-.01.195m3.115-1.19A1.27 1.27 0 0 0 8.71 9.36l.536-.001a.74.74 0 0 1 .64-.649zm0 .764a.52.52 0 0 0-.417.42h.214a.28.28 0 0 1 .203-.174zm.139.249c.088.023.16.086.193.17h.24a.515.515 0 0 0-.433-.421zm0-.477c.342.03.609.303.656.646l.527-.001a1.266 1.266 0 0 0-1.183-1.182zm1.783.645h.04v-.005zm-9.124-.955-.186.13c.105.376.34.65.575.821q.188-.127.367-.246a2 2 0 0 1-.33-.325 1.5 1.5 0 0 1-.26-.497zm14.36-.106q-.076.244-.214.425c-.102.137-.227.25-.357.352q.19.129.389.266c.13-.094.251-.203.35-.337a1.3 1.3 0 0 0 .206-.434q-.128-.091-.231-.167zm-8.604.977.058.008.002-.026-.055-.012zm2.98-.01v.003l.079-.01-.002-.011zm-3.341-.043.224.033.007-.042-.222-.052zm3.553-.008.004.027.197-.025-.007-.048zm-3.897-.042.207.03.01-.073-.203-.048q-.008.045-.014.091m4.226-.037.01.064.19-.024-.012-.085zm.325-.078.014.1.196-.025-.02-.12zm-4.84.072.152.023.016-.103-.15-.035zm3.949-.005.001.003.074-.017-.003-.012zM8.47 9.102l.053.013.002-.01-.05-.018zm4.14-.129q.012.068.021.138l.124-.016a3 3 0 0 0-.023-.151zm-5.458.11.155.022.02-.127-.153-.036zm-5.643-.004.001.006q.16-.132.325-.255c-.107.08-.219.162-.326.249m11.36-.167q.015.082.026.166l.048-.007a3 3 0 0 0-.027-.171zm-1.273.133.007.027.193-.046-.012-.048zM8.115 9.02l.22.052.008-.03-.215-.077zm-1.162.034.06.009a3 3 0 0 1 .024-.152l-.058-.014q-.015.079-.026.157m6.098-.185q.018.091.031.186l.03-.004a3 3 0 0 0-.03-.19zm-6.255.163.019.002q.012-.086.028-.17l-.02-.003a3 3 0 0 0-.027.17M2.97 8.197c.046.19.137.355.248.496.105.132.228.242.345.328l.298-.198a2 2 0 0 1-.274-.36 1.8 1.8 0 0 1-.213-.548q-.197.136-.404.282m8.946.734.015.063.19-.046-.02-.084zm-4.141.009.206.048.018-.07-.2-.072zm8.717-1.042a1.9 1.9 0 0 1-.166.528 1.4 1.4 0 0 1-.268.37q.145.092.294.192c.136-.104.263-.216.365-.353.09-.12.161-.26.207-.43a25 25 0 0 0-.432-.307m-5.144 1.055.01.032.068-.025-.013-.038zm-2.833.002.048.016.004-.015-.044-.021zm3.717-.14q.014.05.025.1l.189-.045-.031-.12zm-.694.048.02.05.186-.068-.027-.07zm-4.045.01.147.035.028-.109-.142-.05q-.018.061-.033.124m.68-.042.212.077.012-.033-.204-.096zm-.97-.025.155.036q.016-.07.037-.14l-.15-.054q-.023.078-.041.158m5.343-.103q.02.067.036.134l.122-.029q-.018-.075-.04-.148zm-3.97.103.042.02.014-.03-.039-.023zm2.71-.004.011.022.06-.029-.013-.027zm.557-.087q.016.041.03.083l.186-.067-.037-.102zm-4-.002.2.073q.01-.035.024-.068l-.194-.09zm4.953-.101q.024.081.043.164l.044-.01q-.019-.087-.044-.17zm-5.783.15.056.012q.02-.087.046-.173l-.055-.02q-.026.09-.047.18m1.236-.111.203.096.022-.047-.192-.118q-.017.034-.033.069M3.5 7.83c.032.205.11.397.207.562a1.8 1.8 0 0 0 .273.355l.37-.24a2 2 0 0 1-.182-.332 2.6 2.6 0 0 1-.183-.67q-.235.154-.485.325m7.964.866q.01.019.019.039l.178-.086-.028-.055zm1.507-.147q.03.09.05.183l.031-.008A3 3 0 0 0 13 8.54zm-6.116.175.02.005a3 3 0 0 1 .055-.194l-.02-.007q-.03.097-.055.196m9.123-1.174a1.8 1.8 0 0 1-.383.945q.169.107.344.222c.1-.097.19-.211.262-.353q.114-.226.162-.556a22 22 0 0 0-.385-.258m-3.83 1.019q.023.057.043.115l.179-.065q-.024-.068-.05-.133zm-.932.1.005.008.053-.031-.008-.014zm-2.553-.018.036.022.008-.012-.035-.027zM7.57 8.617l.14.05q.017-.051.037-.1l-.135-.064q-.023.056-.042.114m.36-.118.193.093q.02-.041.04-.082l-.184-.112q-.027.05-.05.101m3.822.024q.017.032.033.066l.18-.087-.04-.083zm-3.399-.06.19.116.018-.03-.176-.137zm3.022.084.017.028.17-.102-.027-.045zm1.07-.122q.03.072.055.146l.12-.043q-.028-.08-.06-.158zm-5.156.091.15.054q.022-.064.047-.127l-.143-.068q-.028.07-.054.141m3.827.007.022.03.046-.034-.026-.034zm1.57-.214q.035.085.064.172l.04-.015q-.031-.089-.068-.175zm-5.577.143.05.018q.028-.078.058-.154l-.047-.023q-.032.079-.061.159m4.935-.105q.024.047.046.095l.168-.081q-.026-.056-.054-.11zm-4.373.03.133.063q.026-.058.056-.115l-.124-.076q-.034.064-.065.128m1.172.038.026.025.01-.01-.022-.03zM8.468 8.3l.175.136.009-.012-.162-.153q-.011.014-.022.03m2.792.091.034.044.158-.12-.046-.058zm-7.145-.97c.028.267.097.504.18.7.053.122.113.226.17.311q.203-.128.396-.246a2.1 2.1 0 0 1-.35-1.02q-.193.122-.396.254m11.302-.222a1.5 1.5 0 0 1-.096.457c-.072.19-.175.36-.269.504q.206.124.423.26c.164-.2.348-.521.37-.955q-.21-.135-.428-.266M12.848 8.23q.041.091.076.186l.03-.01a3 3 0 0 0-.076-.19zm-1.853.152.03.033.039-.035-.035-.032zm-4.041.013.021.008q.033-.087.07-.17l-.022-.01a3 3 0 0 0-.07.172m4.692-.052.035.058.173-.105-.046-.076zM8.05 8.278l.185.112.04-.063-.171-.134q-.028.042-.054.085m.908.026.02.026.031-.03-.017-.024zm-.374-.136.16.152.025-.029-.137-.171zm-1.181.081.142.068q.034-.072.072-.14l-.134-.082q-.043.076-.08.154m4.92-.07q.033.06.062.121l.114-.055q-.03-.067-.065-.131zm-1.452.094.022.016.03-.03-.024-.02zm.252-.026.043.04.146-.133q-.026-.026-.053-.051zm.384-.083q.03.033.056.068l.163-.123q-.032-.044-.066-.085zm.412-.028q.029.045.055.09l.156-.094q-.033-.053-.068-.103zm-3.732-.055.172.134.031-.04-.158-.151zm.917.11.016.023.035-.023-.015-.022zm-1.295-.06.123.075q.03-.05.063-.098L7.88 8.02q-.038.053-.072.11m.927-.106.136.17.038-.032-.127-.174q-.024.017-.047.036m-1.504.143.046.023q.04-.086.087-.168l-.041-.026a3 3 0 0 0-.092.171m3.525.02.001.002.025-.03-.005-.003zm1.796-.147q.038.07.072.143l.036-.017q-.036-.073-.076-.145zm-1.567.09.032.025.138-.146-.046-.034zM9.26 8.1l.014.02.101-.05-.012-.019q-.053.023-.103.049m1.277-.031q.051.024.101.05l.02-.029a2 2 0 0 0-.106-.049zm-5.89-.986c.007.44.178.799.331 1.03q.21-.128.408-.242a1.8 1.8 0 0 1-.33-1.032q-.2.116-.408.244M7.085 8.1l.023.01q.046-.093.098-.184l-.021-.013q-.052.091-.1.187m5.62-.148q.044.076.083.156l.03-.015q-.04-.08-.083-.159zm2.19-1.056c.002.437-.148.771-.32.987q.175.099.357.207c.092-.14.191-.302.26-.483.058-.153.093-.318.09-.49q-.192-.113-.387-.221m-6 1.01.128.175q.02-.014.04-.026l-.12-.179zm-.568.016.158.15.061-.06-.136-.173zm3.028.081.06.058.152-.14-.069-.07zm.82-.057q.04.056.076.115l.11-.065q-.04-.066-.084-.128zm-4.617.031.133.082q.039-.062.082-.123l-.123-.095q-.048.066-.092.136m3.296.064.017.01.126-.156-.035-.022zm.91-.11q.039.046.073.095l.142-.108-.089-.104zM9.496 8l.012.02.02-.006-.01-.021zm.862.004.047.014.014-.025-.05-.013zM7.966 7.91l.112.087.053-.068-.101-.097q-.033.038-.064.078m1.096-.106.12.179q.052-.026.105-.05l-.117-.18q-.055.023-.108.051m1.126.162.032.007.01-.023-.034-.006zm.432-.048q.058.025.113.054l.11-.17a2 2 0 0 0-.125-.06zm-.827.018.007.021h.008l-.004-.022zm2.594-.153q.048.068.092.14l.032-.02a3 3 0 0 0-.096-.14zm-3.875-.04.137.173.053-.04-.13-.18zm2.684.125q.028.02.054.04l.144-.152-.066-.053zm-3.798.011.04.025q.049-.076.101-.15l-.034-.026q-.056.075-.107.151m1.904-.18.117.182q.02-.007.038-.013l-.092-.192zm1.123.153.063.018.1-.178q-.04-.016-.08-.028zm1.567-.133q.05.056.096.114l.103-.077a3 3 0 0 0-.104-.125zm.534-.04q.054.075.104.153l.03-.017a3 3 0 0 0-.106-.158zM9.5 7.638l.093.191q.01-.001.02-.004l-.064-.2zm2.092.11q.039.037.076.078l.126-.117q-.043-.042-.088-.083zm-3.468-.02.101.097q.047-.05.097-.097l-.085-.107a3 3 0 0 0-.113.108m-.39 0 .123.096q.035-.045.073-.088l-.112-.107zm2.503.081.052.008.082-.189-.074-.014zm4.082-1.22c.005.222-.035.416-.1.584a1.8 1.8 0 0 1-.224.396q.221.113.457.244c.166-.201.322-.539.3-1a15 15 0 0 0-.433-.224m-7.06 1.203.02.014q.056-.084.117-.164l-.022-.017q-.061.082-.116.167m2.429-.19.063.2.027-.005-.038-.203zm-4.49-.847c-.026.46.152.822.308 1.043q.209-.12.4-.224a1.94 1.94 0 0 1-.295-1.043q-.203.105-.413.224m3.486.858.13.178.05-.03-.123-.184q-.03.017-.057.036m2.353.142q.022.014.045.028l.133-.165q-.03-.022-.063-.041zm-2.177-.25.124.183q.053-.03.11-.054l-.12-.187q-.058.027-.114.057m1.927.116q.066.03.13.063l.116-.18a2 2 0 0 0-.142-.071zM7.11 7.595l-.052.077.002.001c.02-.031.045-.062.066-.093zm5.079-.058q.058.065.112.134l.027-.02a3 3 0 0 0-.116-.135zm-2.053.124.02-.068-.01-.002zm1.278-.068q.038.03.075.062l.112-.12q-.043-.034-.087-.067zm-3.825.025.034.026.093-.11-.028-.027zm.751-.088.084.105.066-.05-.08-.108q-.035.025-.07.053m-.427-.002.11.106q.062-.061.127-.12l-.096-.12a3 3 0 0 0-.141.134m3.887-.001q.049.044.096.09l.096-.088-.102-.098zm-2.699-.138.123.19.08-.028-.099-.2q-.052.018-.104.038m1.46.148q.048.016.094.033l.107-.192-.113-.04zm1.754-.116q.065.072.125.146l.027-.022a3 3 0 0 0-.106-.125l-.029-.016zm-4.858.095.023.017q.051-.063.107-.122l-.02-.02q-.056.06-.11.125m1.882-.208.099.203.07-.017-.067-.212zm1.887.152.075.05.1-.125q-.045-.028-.091-.054zM5.755 6.455a1.8 1.8 0 0 0 .275 1.053q.175-.093.339-.175l.03-.05a2 2 0 0 1-.132-.265 2.2 2.2 0 0 1-.147-.74q-.18.084-.365.178m8.03-.118c-.008.2-.045.393-.102.565a2 2 0 0 1-.177.38l.043.073q.155.071.317.152c.08-.107.163-.234.222-.384a1.35 1.35 0 0 0 .09-.602q-.195-.095-.393-.184m-5.26 1.057.077.107.062-.039-.075-.109zm1.814.087.088.02.088-.203q-.054-.015-.11-.028zm-.76-.226.067.214.067-.01-.042-.217zm.587.2q.017.001.033.004l.066-.212-.066-.01zm-.355-.225.042.219.016-.001v-.221q-.03 0-.058.003m.197.216h.019l.032-.218-.052-.002zm1.979-.116q.056.051.108.105l.023-.02-.112-.106zm-.385.03q.049.036.096.074l.089-.096-.103-.08zm-3.818.045.029.027q.076-.076.156-.146l-.022-.029a3 3 0 0 0-.163.148m.377-.103.094.12q.037-.03.075-.057l-.088-.122q-.042.029-.081.06m.548-.02.074.108q.056-.03.115-.06l-.071-.11q-.06.03-.118.062m2.25.03q.075.037.149.077l.083-.13q-.078-.04-.16-.076zm-3.196-.117q-.051.046-.1.094l.021.02q.073-.072.151-.14zm.592-.035.088.122.068-.044-.083-.124q-.037.022-.073.046m3.031.053q.052.03.103.064l.082-.103-.11-.07-.005-.001zM8.955 7.16l.07.11q.06-.024.12-.045l-.056-.116q-.068.024-.134.05m1.75.05q.065.021.127.045l.07-.127a3 3 0 0 0-.139-.05zm1.177.028.019-.02-.012-.01q-.034-.01-.068-.02zm-3.829-.07.02.026q.043-.033.088-.064l-.02-.026q-.045.03-.088.063m1.168-.105.058.118q.06-.018.12-.032l-.037-.121q-.072.015-.14.035m1.225.074.126.032.055-.129-.101-.025-.042-.002zM8.574 7.03l-.026.013.083.124q.06-.034.12-.064l-.054-.082q-.062.004-.123.009m-.072-1.437a7.5 7.5 0 0 0-2.244.626c.002.3.062.552.139.748q.041.105.087.189a4.18 4.18 0 0 1 2.018-1.563m2.948.019a4.17 4.17 0 0 1 1.97 1.54 1.76 1.76 0 0 0 .228-.871 9.6 9.6 0 0 0-2.198-.67m-.35 1.45q.085.039.167.081l.04-.064a5 5 0 0 0-.202-.027zm-1.562.06q.053-.01.108-.016l-.02-.1H9.5zm2.458-.005.002-.003-.008-.002zM10.218 7.1q.046.005.088.013l.031-.102h-.106zm-.433-.009.083-.004v-.08l-.1-.002zm.222-.005q.036.001.072.004l.011-.08-.084-.002zm.335-1.335a4.8 4.8 0 0 0-1.391.147c-.197.05-.384.08-.572.148-.257.095-.583.226-.803.393-.17.128-.347.337-.485.5a.6.6 0 0 0-.064.094l.028-.012c1.072-.429 1.794-.43 2.843-.43.987 0 1.839.068 2.906.456a3 3 0 0 0-.24-.294 2 2 0 0 0-.422-.354c-.188-.125-.374-.274-.587-.377-.37-.18-.8-.254-1.213-.27M8.857 7.01l.021.032.09-.035zm2.737.015.07.015-.012-.007-.063-.011zm-3.287-.036-.032.02.074-.012-.01-.013zm.496-.063.014.02.186-.014-.01-.02zm.342-.02.008.016.077-.005.064-.016z" clip-rule="evenodd"/></g></svg>