<svg xmlns="http://www.w3.org/2000/svg" fill="none" viewBox="0 0 20 20"><rect width="100%" height="100%" rx="2px" ry="2px" fill="#5FA04E" stroke="var(--cn-comp-avatar-shadow)" stroke-width="0.6"/><g transform="translate(10, 10) scale(0.625) translate(-10, -10)"><path fill="#fff" d="M9.999 18.925a1.37 1.37 0 0 1-.686-.184L7.13 17.449c-.326-.182-.167-.247-.06-.285.435-.15.523-.186.988-.449.048-.027.112-.017.162.013l1.678.996a.22.22 0 0 0 .202 0l6.541-3.776a.2.2 0 0 0 .1-.177V6.224a.21.21 0 0 0-.102-.18L10.1 2.27a.21.21 0 0 0-.202 0L3.363 6.044a.21.21 0 0 0-.104.179v7.549a.2.2 0 0 0 .104.174l1.791 1.036c.972.486 1.568-.087 1.568-.662V6.867c0-.106.085-.188.19-.188h.83a.19.19 0 0 1 .19.188v7.453c0 1.297-.707 2.041-1.937 2.041-.378 0-.676 0-1.507-.41l-1.717-.987a1.38 1.38 0 0 1-.685-1.193V6.224c0-.49.262-.948.685-1.192l6.541-3.78a1.43 1.43 0 0 1 1.375 0l6.54 3.78c.424.244.687.702.687 1.192v7.549c0 .49-.263.946-.687 1.192l-6.54 3.777a1.37 1.37 0 0 1-.688.184m5.281-7.443c0-1.413-.955-1.79-2.965-2.055-2.031-.268-2.238-.407-2.238-.882 0-.393.175-.917 1.68-.917 1.343 0 1.838.289 2.042 1.195a.19.19 0 0 0 .184.148h.849a.2.2 0 0 0 .138-.06.2.2 0 0 0 .05-.146c-.132-1.56-1.169-2.288-3.264-2.288-1.865 0-2.978.787-2.978 2.107 0 1.432 1.107 1.827 2.897 2.004 2.142.21 2.308.523 2.308.944 0 .731-.587 1.043-1.965 1.043-1.73 0-2.111-.434-2.24-1.296a.19.19 0 0 0-.187-.16h-.846a.19.19 0 0 0-.189.188c0 1.103.6 2.416 3.462 2.416 2.074 0 3.262-.815 3.262-2.24"/></g></svg>