<svg xmlns="http://www.w3.org/2000/svg" fill="none" viewBox="0 0 22 22" shape-rendering="geometricPrecision"><rect width="22" height="22" rx="3" ry="3" fill="#5FA04E"/><g transform="translate(11, 11) scale(0.7) translate(-11, -11)"><path fill="#fff" d="M10.999 20.817c-.263 0-.525-.069-.755-.202l-2.401-1.42c-.359-.201-.184-.273-.066-.314.479-.166.575-.205 1.087-.494.053-.03.123-.02.178.014l1.845 1.095a.24.24 0 0 0 .223 0l7.195-4.153a.23.23 0 0 0 .11-.194V6.845a.23.23 0 0 0-.112-.198l-7.192-4.15a.23.23 0 0 0-.222 0L3.7 6.648a.23.23 0 0 0-.114.198v8.304c0 .079.044.154.114.192l1.97 1.139c1.07.535 1.725-.095 1.725-.728V7.553c0-.116.094-.206.21-.206h.912c.114 0 .208.091.208.206v8.199c0 1.427-.777 2.245-2.13 2.245-.415 0-.743 0-1.657-.45L3.049 16.46a1.52 1.52 0 0 1-.755-1.312V6.845c0-.54.29-1.043.755-1.311l7.195-4.158a1.58 1.58 0 0 1 1.511 0l7.195 4.158c.466.269.756.772.756 1.311v8.304c0 .539-.29 1.041-.756 1.312l-7.194 4.154c-.23.133-.49.202-.757.202m5.809-8.187c0-1.554-1.05-1.968-3.262-2.26-2.234-.295-2.461-.448-2.461-.97 0-.433.192-1.01 1.847-1.01 1.478 0 2.023.319 2.247 1.315.02.094.106.163.202.163h.934a.21.21 0 0 0 .152-.066.2.2 0 0 0 .055-.16c-.145-1.717-1.285-2.517-3.59-2.517-2.052 0-3.276.865-3.276 2.317 0 1.575 1.218 2.01 3.187 2.205 2.356.23 2.538.575 2.538 1.038 0 .804-.645 1.147-2.161 1.147-1.904 0-2.323-.477-2.463-1.425a.21.21 0 0 0-.207-.176h-.93a.206.206 0 0 0-.208.207c0 1.213.66 2.657 3.808 2.657 2.28.001 3.588-.896 3.588-2.465"/></g><rect x="0.3" y="0.3" width="21.4" height="21.4" rx="3" ry="3" fill="none" stroke="var(--cn-comp-avatar-shadow)" stroke-width="0.6"/></svg>