<svg xmlns="http://www.w3.org/2000/svg" fill="none" viewBox="0 0 18 18"><path fill="#fff" d="M8.999 17.032c-.215 0-.43-.056-.617-.165l-1.965-1.163c-.294-.164-.15-.222-.054-.256.392-.136.47-.168.889-.404.044-.025.101-.016.146.011l1.51.896c.055.03.132.03.182 0l5.887-3.397a.19.19 0 0 0 .09-.16V5.6a.19.19 0 0 0-.092-.161L9.09 2.044a.19.19 0 0 0-.182 0L3.026 5.439a.19.19 0 0 0-.093.161v6.794a.18.18 0 0 0 .093.158l1.613.931c.875.438 1.41-.077 1.41-.595V6.18a.17.17 0 0 1 .172-.17h.747a.17.17 0 0 1 .17.17v6.708c0 1.168-.636 1.837-1.743 1.837-.34 0-.608 0-1.356-.369l-1.545-.888a1.24 1.24 0 0 1-.617-1.074V5.6c0-.44.236-.853.617-1.072l5.887-3.402c.373-.21.868-.21 1.237 0l5.886 3.402c.382.22.619.631.619 1.072v6.794c0 .441-.237.852-.619 1.074l-5.886 3.399c-.187.109-.4.165-.619.165m4.753-6.698c0-1.272-.86-1.61-2.669-1.85-1.828-.24-2.014-.366-2.014-.794 0-.353.158-.825 1.512-.825 1.21 0 1.655.26 1.838 1.076a.17.17 0 0 0 .166.133h.763c.048 0 .093-.021.125-.054a.17.17 0 0 0 .045-.132c-.119-1.404-1.052-2.059-2.937-2.059-1.68 0-2.68.709-2.68 1.897 0 1.288.996 1.644 2.607 1.804 1.927.188 2.077.47 2.077.849 0 .658-.528.938-1.769.938-1.557 0-1.9-.39-2.015-1.166a.17.17 0 0 0-.17-.143h-.76a.17.17 0 0 0-.17.169c0 .992.539 2.174 3.115 2.174 1.866 0 2.936-.734 2.936-2.017"/></svg>