<svg xmlns="http://www.w3.org/2000/svg" fill="none" viewBox="0 0 18 18"><rect width="100%" height="100%" fill="#DA2430"/><g transform="translate(9, 9) scale(0.8) translate(-9, -9)"><path fill="#fff" d="m5.576 8.235-2.623.955c.033.42.106.835.208 1.242l2.491-.907a5 5 0 0 1-.076-1.29m11.591-2.9a7.5 7.5 0 0 0-.64-1.086l-2.622.954c.306.313.562.663.771 1.039z"/><path fill="#fff" d="M12.515 5.32a4.8 4.8 0 0 0-1.118-.728 4.88 4.88 0 0 0-6.646 2.774 5 5 0 0 0-.256 1.254l-.01.004v.009l-1.579.574-1.016.376v-.006l-.028.01a7.46 7.46 0 0 1 .914-4.214C4.641 1.9 8.884.448 12.462 2.143a7.4 7.4 0 0 1 1.962 1.352q.565.524 1.012 1.152l-2.622.955-.04-.042-.008.003a5 5 0 0 0-.252-.244M2.009 13.82h-.005a7.6 7.6 0 0 1-1.171-2.54l2.491-.907.002.009.016-.006c.129.678.395 1.325.784 1.894q.223.319.495.598l-.01.004.02.02-2.6.96z"/><path fill="#fff" d="M11.906 13.149a4.87 4.87 0 0 1-4.629.276 4.8 4.8 0 0 1-1.42-1.007l-2.616.953.02.028H3.26a7.4 7.4 0 0 0 2.905 2.458c2.597 1.23 5.545.803 7.678-.852a7.46 7.46 0 0 0 2.293-2.826c.566-1.212.775-2.5.674-3.747l-.072.027-.003-.04-2.6.96a4.9 4.9 0 0 1-.436 1.698 4.86 4.86 0 0 1-1.793 2.072"/><path fill="#fff" d="m14.8 6.197.039-.015c.41.846.66 1.762.735 2.7l-2.617.952.001-.02-.05.018a5 5 0 0 0-.605-2.767l2.474-.915z"/><path fill="#fff" d="m5.579 8.22-2.605.962c.034.425.106.843.207 1.254l2.474-.915A5 5 0 0 1 5.58 8.22zm11.51-2.925a7.6 7.6 0 0 0-.635-1.095l-2.604.962c.303.315.557.67.765 1.048z"/><path fill="#fff" d="m2.974 9.182 2.599-.951-.011.522-2.507.946zm10.877-4.027 2.638-.906.275.414-2.564.906zM3.26 13.39l2.602-.947.786.742L3.92 14.21zm13.518-4.964-2.642.953-.194 1.057 2.817-1.004z"/></g></svg>