<svg xmlns="http://www.w3.org/2000/svg" fill="none" viewBox="0 0 20 20"><rect width="100%" height="100%" rx="2px" ry="2px" fill="#FFDA18" stroke="var(--cn-comp-avatar-shadow)" stroke-width="0.6"/><g transform="translate(10, 10) scale(0.625) translate(-10, -10)"><path fill="#111112" d="m8.625 18.517-.025-.013-6.356-3.494a1.28 1.28 0 0 1-.661-1.117V6.108c0-.465.254-.894.661-1.118l7.141-3.925a1.28 1.28 0 0 1 1.23 0l6.296 3.461.017.01h.005-.003l.826.454c.407.224.661.653.661 1.118v7.785c0 .465-.254.893-.662 1.117L11.4 18.504l-.023.012-.763.42c-.382.21-.846.21-1.229 0zm.452-.87.01.004a.294.294 0 0 0 .422-.256v-6.931a.3.3 0 0 0-.152-.258L3 6.712a.295.295 0 0 0-.437.259v6.922c0 .106.059.206.153.257zM7.578 13.76l-.004.002-1.484-.781-.002-.003v-.008c.018-.231.116-.398.263-.479s.34-.076.545.031c.206.109.385.301.509.524.123.222.19.476.173.708zm-2.344-1.354-.004.002-1.485-.781-.002-.003.001-.008c.017-.23.115-.397.262-.479.147-.08.34-.076.546.032.205.108.385.3.508.523s.191.476.174.708zm11.352-6.819-.003-.013a.29.29 0 0 0-.144-.19l-6.297-3.46a.3.3 0 0 0-.284 0l-6.297 3.46a.294.294 0 0 0-.007.513l6.304 3.464a.3.3 0 0 0 .284 0l6.305-3.465a.29.29 0 0 0 .139-.309m-13.164.123-.004-.004-.003-.003zM3.068 4.53l-.002.002.004.004zm.005.005-.002.001H3.07z"/></g></svg>