<svg xmlns="http://www.w3.org/2000/svg" fill="none" viewBox="0 0 22 22" shape-rendering="geometricPrecision"><rect width="22" height="22" rx="3" ry="3" fill="#FFDA18"/><g transform="translate(11, 11) scale(0.7) translate(-11, -11)"><path fill="#0F1013" d="m9.488 20.369-.028-.014L2.47 16.51a1.4 1.4 0 0 1-.728-1.23V6.72c0-.512.28-.984.728-1.23l7.855-4.318a1.4 1.4 0 0 1 1.352 0l6.926 3.808.019.01.005.001h-.004l.91.499c.448.246.727.718.727 1.23v8.563c0 .512-.28.983-.728 1.23l-6.991 3.843-.025.013-.839.46c-.421.232-.931.232-1.352 0zm.497-.958.01.005a.324.324 0 0 0 .465-.282V11.51a.32.32 0 0 0-.168-.283L3.301 7.383a.324.324 0 0 0-.48.285v7.614c0 .117.064.226.167.283zm-1.649-4.274-.004.002-1.633-.86-.002-.002v-.009c.02-.254.128-.437.289-.527.161-.089.375-.084.6.035.227.119.423.33.56.576.135.244.21.523.19.779zm-2.579-1.489-.004.002-1.634-.86-.001-.003v-.008c.019-.254.127-.437.289-.527s.374-.084.6.035.423.33.56.575c.134.245.21.524.19.78zm12.487-7.5-.002-.016a.32.32 0 0 0-.16-.208l-6.926-3.807a.32.32 0 0 0-.312 0L3.918 5.924a.323.323 0 0 0-.009.563l6.935 3.811a.32.32 0 0 0 .312 0l6.936-3.812a.32.32 0 0 0 .152-.339m-14.48.134-.004-.005-.003-.002zm-.39-1.3-.002.002.005.005zm.007.006h-.004z"/></g><rect x="0.3" y="0.3" width="21.4" height="21.4" rx="3" ry="3" fill="none" stroke="var(--cn-comp-avatar-shadow)" stroke-width="0.6"/></svg>