<svg xmlns="http://www.w3.org/2000/svg" fill="none" viewBox="0 0 22 22" shape-rendering="geometricPrecision"><rect width="22" height="22" rx="3" ry="3" fill="#DA2430"/><g transform="translate(11, 11) scale(0.7) translate(-11, -11)"><path fill="#fff" d="m6.815 10.065-3.206 1.167c.041.514.13 1.021.254 1.519l3.045-1.11a6 6 0 0 1-.093-1.576M20.982 6.52a9 9 0 0 0-.781-1.327L16.995 6.36c.373.381.686.81.942 1.269z"/><path fill="#fff" d="M15.296 6.501a5.9 5.9 0 0 0-1.366-.888 5.96 5.96 0 0 0-8.123 3.39 6.1 6.1 0 0 0-.313 1.533l-.012.004v.011l-1.93.702-1.241.46-.001-.008-.034.013a9.1 9.1 0 0 1 1.117-5.15c2.28-4.246 7.465-6.02 11.839-3.949a9 9 0 0 1 2.397 1.653q.691.64 1.238 1.408l-3.205 1.166-.05-.05-.009.003a6 6 0 0 0-.307-.298M2.455 16.89l-.005.002a9.3 9.3 0 0 1-1.432-3.104l3.045-1.11.002.01.02-.007v.001c.157.829.483 1.62.957 2.314q.274.39.606.732l-.012.004.023.024-3.176 1.175z"/><path fill="#fff" d="M14.552 16.07a5.96 5.96 0 0 1-5.657.339 5.9 5.9 0 0 1-1.735-1.231L3.96 16.342l.025.034h-.002a9.06 9.06 0 0 0 3.551 3.005c3.175 1.503 6.777.98 9.385-1.042a9.1 9.1 0 0 0 2.801-3.453 9.1 9.1 0 0 0 .825-4.58l-.089.033-.004-.05-3.176 1.174a6 6 0 0 1-.534 2.076 5.95 5.95 0 0 1-2.191 2.531"/><path fill="#fff" d="m18.088 7.574.048-.018a9.2 9.2 0 0 1 .899 3.3l-3.199 1.163.002-.024-.06.022a6.1 6.1 0 0 0-.74-3.383l3.023-1.117z"/><path fill="#fff" d="m6.819 10.046-3.184 1.177c.041.518.13 1.03.253 1.532l3.024-1.119a6 6 0 0 1-.092-1.59zm14.068-3.574a9.3 9.3 0 0 0-.777-1.339L16.929 6.31c.37.385.68.817.935 1.28z"/><path fill="#fff" d="m3.635 11.223 3.176-1.163-.013.638-3.064 1.157zM16.93 6.3l3.225-1.107.335.506-3.134 1.108zM3.985 16.365l3.18-1.157.96.907-3.333 1.252zm16.522-6.067-3.23 1.165-.237 1.292 3.443-1.227z"/></g><rect x="0.3" y="0.3" width="21.4" height="21.4" rx="3" ry="3" fill="none" stroke="var(--cn-comp-avatar-shadow)" stroke-width="0.6"/></svg>