<svg xmlns="http://www.w3.org/2000/svg" fill="none" viewBox="0 0 22 22" shape-rendering="geometricPrecision"><rect width="22" height="22" rx="3" ry="3" fill="#172B4D"/><g transform="translate(11, 11) scale(0.7) translate(-11, -11)"><g clip-path="url(#a)"><path fill="#fff" d="M11.002 0a5.489 5.489 0 1 1 .142 10.977A5.489 5.489 0 0 1 11.002 0m8.913 11.94h-.028l-4.15-2.055a.615.615 0 0 0-.803.246 20.5 20.5 0 0 1-3.947 4.782 20.5 20.5 0 0 1-3.929-4.767.615.615 0 0 0-.803-.246l-4.157 2.04h-.027a.615.615 0 0 0-.228.827 26.5 26.5 0 0 0 4.171 5.439h-.002q.034.035.07.067.459.462.94.899.114.1.227.199c.289.255.58.509.88.752.132.107.27.208.404.312.254.198.506.398.767.586q.605.438 1.234.84a.88.88 0 0 0 .923.016q.67-.43 1.31-.898c.062-.046.12-.095.183-.14q.493-.365.971-.752c.215-.174.422-.358.631-.54.156-.134.312-.266.464-.404q.403-.37.792-.756.086-.083.172-.165l-.003-.002a26.5 26.5 0 0 0 4.184-5.453.614.614 0 0 0-.246-.826"/></g><defs><clipPath id="a"><path fill="#fff" d="M0 0h22v22H0z"/></clipPath></defs></g><rect x="0.3" y="0.3" width="21.4" height="21.4" rx="3" ry="3" fill="none" stroke="var(--cn-comp-avatar-shadow)" stroke-width="0.6"/></svg>