<svg xmlns="http://www.w3.org/2000/svg" fill="none" viewBox="0 0 20 20"><rect width="100%" height="100%" rx="2px" ry="2px" fill="#172B4D" stroke="var(--cn-comp-avatar-shadow)" stroke-width="0.6"/><g transform="translate(10, 10) scale(0.625) translate(-10, -10)"><g clip-path="url(#a)"><path fill="#fff" d="M10.002 0a4.99 4.99 0 1 1 .129 9.98A4.99 4.99 0 0 1 10 0m8.102 10.855h-.025l-3.772-1.868a.56.56 0 0 0-.73.223 18.7 18.7 0 0 1-3.589 4.347 18.7 18.7 0 0 1-3.571-4.333.56.56 0 0 0-.73-.224l-3.78 1.855h-.024a.56.56 0 0 0-.207.752 24 24 0 0 0 3.792 4.944h-.002q.031.03.062.06.419.421.856.818.103.092.206.18.392.351.8.684c.12.098.246.19.368.284.23.18.46.362.697.533q.55.398 1.122.764a.8.8 0 0 0 .839.014q.608-.39 1.19-.816.083-.064.167-.128c.298-.222.594-.447.883-.683.195-.159.383-.325.573-.49.142-.123.284-.243.422-.369.246-.223.483-.454.72-.687.05-.05.106-.098.156-.15h-.003a24 24 0 0 0 3.804-4.958.56.56 0 0 0-.224-.752"/></g><defs><clipPath id="a"><path fill="#fff" d="M0 0h20v20H0z"/></clipPath></defs></g></svg>