<svg xmlns="http://www.w3.org/2000/svg" fill="none" viewBox="0 0 22 22" shape-rendering="geometricPrecision"><rect width="22" height="22" rx="3" ry="3" fill="#C5221F"/><g transform="translate(11, 11) scale(0.7) translate(-11, -11)"><path fill="#fff" d="M11.388 6.791c1.079-.096 2.371.393 2.896 1.732l-1.44.564c-.217-.554-.754-.807-1.318-.756-.607.054-.846.384-.846.653 0 .298.075.447.148.54.087.108.232.215.484.331.274.126.533.205.91.35.335.129.736.301 1.083.58 1.596 1.276 1.123 3.708-.54 4.276-.6.205-1.46.24-2.247-.05-.831-.308-1.59-.987-1.83-2.164l1.516-.309c.12.588.455.877.849 1.022.438.162.933.133 1.212.038.434-.149.78-1.042.075-1.606-.153-.123-.368-.227-.673-.344-.264-.101-.67-.237-1-.388-.352-.161-.748-.395-1.052-.779-.317-.4-.48-.9-.48-1.497 0-1.393 1.218-2.1 2.253-2.193M4.16 9.205a1.82 1.82 0 1 1 0 3.64 1.82 1.82 0 0 1 0-3.64"/><path fill="#fff" fill-rule="evenodd" d="M4.16 6.864a4.16 4.16 0 0 1 4.16 4.16v.108a4.16 4.16 0 0 1-4.16 4.053h-.107a4.16 4.16 0 0 1 .107-8.32m0 1.547a2.614 2.614 0 1 0 0 5.229 2.614 2.614 0 0 0 0-5.229" clip-rule="evenodd"/><path fill="#fff" d="m22 6.94-2.973 8.131h-1.569L14.595 6.94h1.596l2.036 5.687 2.185-5.704z"/></g><rect x="0.3" y="0.3" width="21.4" height="21.4" rx="3" ry="3" fill="none" stroke="var(--cn-comp-avatar-shadow)" stroke-width="0.6"/></svg>