<svg xmlns="http://www.w3.org/2000/svg" fill="none" viewBox="0 0 20 20"><rect width="100%" height="100%" rx="2px" ry="2px" fill="#C5221F"/><g transform="translate(10, 10) scale(0.625) translate(-10, -10)"><path fill="#fff" d="M10.353 6.174c.98-.088 2.155.357 2.632 1.574l-1.308.513c-.198-.504-.686-.733-1.198-.688-.553.05-.77.35-.77.594 0 .27.068.406.135.49.078.1.21.197.44.302.249.115.484.187.826.318.305.118.67.274.986.527 1.45 1.16 1.02 3.371-.492 3.887-.545.187-1.327.219-2.042-.045-.756-.28-1.446-.897-1.664-1.967l1.378-.28c.109.534.414.796.772.928.398.147.848.121 1.102.034.395-.134.71-.946.068-1.46-.14-.11-.334-.205-.612-.312-.24-.092-.61-.215-.909-.353-.32-.146-.68-.358-.956-.708-.288-.364-.437-.818-.437-1.36 0-1.267 1.107-1.91 2.048-1.994M3.782 8.368a1.655 1.655 0 1 1 0 3.31 1.655 1.655 0 0 1 0-3.31"/><path fill="#fff" fill-rule="evenodd" d="M3.782 6.24a3.783 3.783 0 0 1 3.782 3.783v.097a3.783 3.783 0 0 1-3.782 3.685l-.097-.001a3.782 3.782 0 0 1 .097-7.564m0 1.407a2.377 2.377 0 1 0 0 4.753 2.377 2.377 0 0 0 0-4.753" clip-rule="evenodd"/><path fill="#fff" d="M20 6.309 17.297 13.7H15.87L13.27 6.31h1.45l1.851 5.17 1.987-5.185z"/></g></svg>