<svg xmlns="http://www.w3.org/2000/svg" fill="none" viewBox="0 0 20 20"><rect width="100%" height="100%" rx="2px" ry="2px" fill="#FFFFFF" stroke="var(--cn-comp-avatar-shadow)" stroke-width="0.6"/><g transform="translate(10, 10) scale(0.625) translate(-10, -10)"><path fill="#111112" d="M13.618 3.869a.11.11 0 0 1 .154.028c.061.09.153.234.23.38.038.072.074.147.1.216a.6.6 0 0 1 .047.204c0 .062-.02.138-.045.21a3 3 0 0 1-.1.24c-.052.115-.112.23-.164.325a1.6 1.6 0 0 1 .61.713c.1-.055.222-.118.343-.174.083-.038.166-.074.24-.1a.7.7 0 0 1 .211-.045c.064 0 .137.021.204.047.069.026.144.062.216.1.146.077.29.169.38.23a.11.11 0 0 1-.126.182 4 4 0 0 0-.357-.217 2 2 0 0 0-.192-.089.4.4 0 0 0-.125-.032q-.035 0-.138.033a2 2 0 0 0-.22.091 5 5 0 0 0-.259.13c.09.01.176.053.24.126.136.159.118.4-.043.538a.38.38 0 0 1-.329.086.8.8 0 0 1-.227.321c-.246.213-.591.256-.93.15.09.24.114.487.072.71.156.145.5.452.593.452.116 0 .975-.048 1.005-.048.023 0 .027.114.027.115-.007.001-1.015.15-1.066.145a5 5 0 0 1-.58-.21c.09.212.185.492.253.51l.976.257c.022.007.044.126.044.127-.006 0-.972-.166-1.02-.184a4 4 0 0 1-.322-.286c.025.2.054.366.082.395l.672.669c.017.016-.025.13-.025.132-.004-.004-.726-.58-.759-.62a7 7 0 0 1-.42-.765 1 1 0 0 1-.143.047c.158.91.439 2.556.476 2.882.05.431.212 3.354.198 3.7s.021 1.525-.198 1.511c-.218-.014-1.32-2.012-1.602-2.676s-.233-1.991-.191-2.147.544-.89.558-.974c.01-.065.099-1.504.148-2.32a1.6 1.6 0 0 1-.451-.223c.438.946-1.109 2.317-2.118 3.165-.906.763-2.764 1.652-3.579 2.002.385-.78.7-1.622 1.303-2.574.31-.491.484-.771.857-1.217.473-.566 1.208-1.186 1.356-1.313.134-.115.964-1.05 1.693-.59A1.6 1.6 0 0 1 11 7.817c-.799.048-2.335.141-2.402.153-.084.014-.819.515-.974.557s-1.483.092-2.147-.19-2.661-1.384-2.676-1.603c-.014-.219 1.165-.184 1.511-.198.347-.014 3.27.149 3.7.198.336.039 2.074.335 2.963.49q.014-.06.032-.119a7 7 0 0 1-.788-.431c-.04-.033-.618-.756-.62-.759.001 0 .115-.042.132-.025l.669.672c.028.028.195.057.394.082a4 4 0 0 1-.285-.322c-.018-.049-.185-1.018-.185-1.02.002 0 .12.022.127.044l.257.976c.018.069.299.163.511.254a5 5 0 0 1-.21-.58c-.005-.052.144-1.066.144-1.066.002 0 .116.003.116.026 0 .03-.048.889-.048 1.005 0 .084.256.38.41.55.224-.061.476-.043.72.047-.13-.414-.055-.838.235-1.09a.8.8 0 0 1 .235-.141.385.385 0 0 1 .67-.235.38.38 0 0 1 .092.251l.062.025c.05-.092.108-.204.159-.314.036-.079.068-.155.09-.22a.5.5 0 0 0 .034-.138.4.4 0 0 0-.032-.125 2 2 0 0 0-.09-.192 4 4 0 0 0-.216-.358.11.11 0 0 1 .028-.153"/><path fill="#111112" fill-rule="evenodd" d="M10 0c5.523 0 10 4.477 10 10s-4.477 10-10 10S0 15.523 0 10 4.477 0 10 0m0 1.62a8.38 8.38 0 1 0 0 16.76 8.38 8.38 0 0 0 0-16.76" clip-rule="evenodd"/></g></svg>