<svg xmlns="http://www.w3.org/2000/svg" fill="none" viewBox="0 0 22 22" shape-rendering="geometricPrecision"><rect width="22" height="22" rx="3" ry="3" fill="#06AC38"/><g transform="translate(11, 11) scale(0.7) translate(-11, -11)"><path fill="#fff" d="M15.28 1.674C13.66.798 12.525.657 9.865.657H3.872v12.541h5.97c2.364 0 4.137-.141 5.697-1.18 1.702-1.124 2.59-3.004 2.59-5.179 0-2.34-1.088-4.219-2.85-5.165m-4.741 8.9H6.91V3.34l3.428-.023c3.12-.025 4.68 1.063 4.68 3.558 0 2.683-1.937 3.7-4.48 3.7m-6.667 5.262H6.91v5.507H3.872z"/></g><rect x="0.3" y="0.3" width="21.4" height="21.4" rx="3" ry="3" fill="none" stroke="var(--cn-comp-avatar-shadow)" stroke-width="0.6"/></svg>