<svg xmlns="http://www.w3.org/2000/svg" fill="none" viewBox="0 0 20 20"><rect width="100%" height="100%" rx="2px" ry="2px" fill="#06AC38"/><g transform="translate(10, 10) scale(0.625) translate(-10, -10)"><path fill="#fff" d="M13.89 1.522C12.417.725 11.387.597 8.968.597H3.52v11.401h5.427c2.15 0 3.761-.128 5.18-1.073 1.547-1.021 2.353-2.73 2.353-4.707 0-2.129-.989-3.836-2.59-4.696m-4.31 8.09H6.283V3.037l3.116-.021c2.837-.022 4.255.967 4.255 3.235 0 2.439-1.761 3.363-4.072 3.363m-6.06 4.784h2.762v5.007H3.52z"/></g></svg>