<svg xmlns="http://www.w3.org/2000/svg" fill="none" viewBox="0 0 20 20"><rect width="100%" height="100%" rx="2px" ry="2px" fill="#F6F6F7"/><g transform="translate(10, 10) scale(0.625) translate(-10, -10)"><path fill="#131314" fill-rule="evenodd" d="M4.543 14.279a1.1 1.1 0 0 1 1.1 1.1v2a1.1 1.1 0 0 1-1.1 1.1H2a1.1 1.1 0 0 1-1.1-1.1v-2a1.1 1.1 0 0 1 1.1-1.1zm-2.443 3h2.342v-1.8H2.1z" clip-rule="evenodd"/><path fill="#131314" d="M18 14.279a1.1 1.1 0 0 1 1.101 1.1v2a1.1 1.1 0 0 1-1.1 1.1H8.376a1.1 1.1 0 0 1-1.1-1.1v-2a1.1 1.1 0 0 1 1.1-1.1zM11.626 7.9a1.1 1.1 0 0 1 1.1 1.1v2a1.1 1.1 0 0 1-1.1 1.1H2A1.1 1.1 0 0 1 .9 11V9a1.1 1.1 0 0 1 1.1-1.1z"/><path fill="#131314" fill-rule="evenodd" d="M18.002 7.9a1.1 1.1 0 0 1 1.1 1.1v2a1.1 1.1 0 0 1-1.1 1.1H15.46a1.1 1.1 0 0 1-1.1-1.1V9a1.1 1.1 0 0 1 1.1-1.1zm-2.443 3h2.342V9.1h-2.342zM4.543 1.522a1.1 1.1 0 0 1 1.1 1.1v2a1.1 1.1 0 0 1-1.1 1.1H2a1.1 1.1 0 0 1-1.1-1.1v-2a1.1 1.1 0 0 1 1.1-1.1zm-2.443 3h2.342v-1.8H2.1z" clip-rule="evenodd"/><path fill="#131314" d="M18 1.522a1.1 1.1 0 0 1 1.101 1.1v2a1.1 1.1 0 0 1-1.1 1.1H8.376a1.1 1.1 0 0 1-1.1-1.1v-2a1.1 1.1 0 0 1 1.1-1.1z"/></g></svg>