<svg xmlns="http://www.w3.org/2000/svg" fill="none" viewBox="0 0 18 18"><rect width="100%" height="100%" rx="2px" ry="2px" fill="#E6522C"/><g transform="translate(9, 9) scale(0.5625) translate(-9, -9)"><g clip-path="url(#a)"><path fill="#fff" d="M9 .703a8.297 8.297 0 1 0 0 16.594A8.297 8.297 0 0 0 9 .703m0 15.53c-1.303 0-2.36-.872-2.36-1.946h4.72c0 1.073-1.056 1.945-2.36 1.945m3.9-2.59H5.1v-1.415h7.8zm-.028-2.142h-7.75l-.077-.09c-.799-.969-.987-1.475-1.168-1.99-.004-.018.968.198 1.655.353 0 0 .355.082.873.176-.498-.583-.793-1.324-.793-2.081 0-1.664 1.276-3.117.816-4.292.448.037.926.945.959 2.366.476-.657.675-1.86.675-2.596 0-.763.503-1.65 1.006-1.68-.448.74.116 1.372.618 2.943.188.59.164 1.583.309 2.213.048-1.308.273-3.216 1.103-3.875-.366.83.054 1.868.341 2.367.464.805.746 1.416.746 2.57a3.2 3.2 0 0 1-.768 2.071c.548-.103.927-.195.927-.195l1.779-.348s-.258 1.064-1.251 2.088"/></g><defs><clipPath id="a"><path fill="#fff" d="M0 0h18v18H0z"/></clipPath></defs></g></svg>