<svg xmlns="http://www.w3.org/2000/svg" fill="none" viewBox="0 0 22 22" shape-rendering="geometricPrecision"><rect width="22" height="22" rx="3" ry="3" fill="#E6522C"/><g transform="translate(11, 11) scale(0.7) translate(-11, -11)"><g clip-path="url(#a)"><path fill="#fff" d="M11 .86C5.4.86.859 5.398.859 11c0 5.6 4.54 10.141 10.141 10.141 5.6 0 10.14-4.54 10.14-10.141S16.6.86 11 .86m0 18.98c-1.593 0-2.885-1.065-2.885-2.378h5.77c0 1.312-1.291 2.378-2.885 2.378m4.766-3.165H6.234v-1.73h9.532zm-.034-2.618H6.26l-.094-.11c-.976-1.184-1.206-1.803-1.428-2.433-.004-.021 1.183.242 2.024.432 0 0 .433.1 1.066.215-.608-.712-.969-1.618-.969-2.544 0-2.033 1.56-3.81.997-5.245.548.045 1.133 1.155 1.172 2.892.583-.804.826-2.273.826-3.173 0-.932.614-2.016 1.229-2.053-.548.903.142 1.677.755 3.597.23.721.2 1.935.378 2.705.06-1.6.334-3.932 1.348-4.737-.447 1.014.067 2.283.417 2.894.568.983.911 1.73.911 3.14a3.92 3.92 0 0 1-.938 2.532c.67-.126 1.133-.24 1.133-.24l2.174-.424s-.315 1.3-1.529 2.552"/></g><defs><clipPath id="a"><path fill="#fff" d="M0 0h22v22H0z"/></clipPath></defs></g><rect x="0.3" y="0.3" width="21.4" height="21.4" rx="3" ry="3" fill="none" stroke="var(--cn-comp-avatar-shadow)" stroke-width="0.6"/></svg>