<svg xmlns="http://www.w3.org/2000/svg" fill="none" viewBox="0 0 20 20"><rect width="100%" height="100%" rx="2px" ry="2px" fill="#E6522C"/><g transform="translate(10, 10) scale(0.625) translate(-10, -10)"><path fill="#fff" d="M10 .781A9.219 9.219 0 1 0 19.219 10 9.22 9.22 0 0 0 10 .781m0 17.255c-1.448 0-2.623-.968-2.623-2.162h5.246c0 1.193-1.174 2.162-2.623 2.162m4.333-2.877H5.667v-1.572h8.666zm-.03-2.38H5.69q-.044-.05-.085-.1c-.888-1.076-1.097-1.639-1.299-2.212-.004-.02 1.076.22 1.84.393 0 0 .394.091.97.196-.553-.648-.881-1.472-.881-2.313 0-1.848 1.417-3.463.906-4.768.498.04 1.03 1.05 1.066 2.629.529-.731.75-2.067.75-2.885 0-.848.559-1.833 1.117-1.866-.498.82.13 1.524.687 3.27.21.655.182 1.759.343 2.459.054-1.454.304-3.574 1.226-4.307-.406.922.06 2.076.38 2.631.515.894.828 1.573.828 2.855a3.57 3.57 0 0 1-.853 2.302c.608-.115 1.03-.218 1.03-.218l1.976-.386s-.287 1.182-1.39 2.32"/></g></svg>