<svg xmlns="http://www.w3.org/2000/svg" fill="none" viewBox="0 0 22 22" shape-rendering="geometricPrecision"><rect width="22" height="22" rx="3" ry="3" fill="#10B981"/><g transform="translate(11, 11) scale(0.7) translate(-11, -11)"><path fill="#fff" d="M14.955.625C17.71.625 22 3.227 22 7.746c0 3.381-1.53 5.286-2.952 6.297-.824.585-1.857.739-2.867.739h-3.143c-.415 0-.824-.117-1.145-.379-.245-.2-.499-.435-.652-.649a.37.37 0 0 0-.288-.163h-.844v7.784H5.361V5.535L0 .625zm-4.8 5.48V9.64h5.092a1.768 1.768 0 0 0 0-3.535z"/></g><rect x="0.3" y="0.3" width="21.4" height="21.4" rx="3" ry="3" fill="none" stroke="var(--cn-comp-avatar-shadow)" stroke-width="0.6"/></svg>