<svg xmlns="http://www.w3.org/2000/svg" fill="none" viewBox="0 0 20 20"><rect width="100%" height="100%" rx="2px" ry="2px" fill="#10B981"/><g transform="translate(10, 10) scale(0.625) translate(-10, -10)"><path fill="#fff" d="M13.595.568C16.101.568 20 2.933 20 7.042c0 3.074-1.391 4.805-2.684 5.724-.749.533-1.687.672-2.606.672h-2.858c-.376 0-.748-.106-1.04-.344-.223-.182-.453-.396-.593-.59a.33.33 0 0 0-.262-.149H9.19v7.077H4.874v-14.4L0 .567zM9.232 5.55v3.214h4.629a1.607 1.607 0 0 0 0-3.214z"/></g></svg>