<svg xmlns="http://www.w3.org/2000/svg" fill="none" viewBox="0 0 18 18"><rect width="100%" height="100%" rx="2px" ry="2px" fill="#3776AB"/><g transform="translate(9, 9) scale(0.5625) translate(-9, -9)"><path fill="#fff" d="M8.905.947c-.657.003-1.284.06-1.836.157-1.626.287-1.921.889-1.921 1.997v1.465H8.99v.488H3.706c-1.117 0-2.095.671-2.4 1.948-.353 1.463-.369 2.377 0 3.905.273 1.137.925 1.948 2.042 1.948h1.32v-1.756c0-1.268 1.098-2.387 2.4-2.387h3.839c1.068 0 1.92-.88 1.92-1.952V3.101c0-1.04-.878-1.823-1.92-1.997-.66-.11-1.345-.16-2.002-.157M6.827 2.125c.397 0 .721.33.721.735 0 .403-.324.73-.721.73a.725.725 0 0 1-.72-.73c0-.405.322-.735.72-.735"/><path fill="#fff" d="M13.307 5.054V6.76c0 1.323-1.121 2.436-2.4 2.436H7.07c-1.05 0-1.92.9-1.92 1.953v3.658c0 1.042.905 1.654 1.92 1.953 1.217.357 2.383.422 3.838 0 .967-.28 1.921-.844 1.921-1.953v-1.464H8.99v-.488h5.76c1.116 0 1.532-.78 1.92-1.948.402-1.204.384-2.361 0-3.905-.276-1.112-.803-1.948-1.92-1.948zm-2.158 9.265c.398 0 .72.326.72.73a.73.73 0 0 1-.72.735.73.73 0 0 1-.721-.735c0-.403.324-.73.72-.73"/></g></svg>