<svg xmlns="http://www.w3.org/2000/svg" fill="none" viewBox="0 0 22 22" shape-rendering="geometricPrecision"><rect width="22" height="22" rx="3" ry="3" fill="#FF6C0E"/><g transform="translate(11, 11) scale(0.7) translate(-11, -11)"><path fill="#fff" d="M17.64 0A4.36 4.36 0 0 1 22 4.36v10.307h-3.964V5.35c0-.766-.621-1.387-1.387-1.387H5.35c-.766 0-1.387.621-1.387 1.387V16.65c0 .766.621 1.387 1.387 1.387h16.63A4.36 4.36 0 0 1 17.64 22H4.36A4.36 4.36 0 0 1 0 17.64V4.36A4.36 4.36 0 0 1 4.36 0z"/><path fill="#fff" d="M13.081 7.333c.876 0 1.586.71 1.586 1.586v4.162c0 .876-.71 1.586-1.586 1.586H8.92c-.876 0-1.586-.71-1.586-1.586V8.92c0-.876.71-1.586 1.586-1.586z"/></g><rect x="0.3" y="0.3" width="21.4" height="21.4" rx="3" ry="3" fill="none" stroke="var(--cn-comp-avatar-shadow)" stroke-width="0.6"/></svg>