<svg xmlns="http://www.w3.org/2000/svg" fill="none" viewBox="0 0 20 20"><rect width="100%" height="100%" rx="2px" ry="2px" fill="#ED2E26"/><g transform="translate(10, 10) scale(0.625) translate(-10, -10)"><path fill="#fff" fill-rule="evenodd" d="M9.998 0c5.47 0 8.219 2.927 8.219 2.927.004.03.313 2.196.114 6.527C18.03 16.027 10.038 19.981 10 20c0 0-8.029-3.957-8.332-10.546-.2-4.327.108-6.494.113-6.527C1.78 2.927 4.53 0 9.998 0M10 2.406A6.146 6.146 0 0 0 3.86 8.545c0 2.044.852 3.86 2.462 5.25 1.506 1.302 3.708 2.17 6.215 2.582.543-.3 1.472-1.187 1.82-1.706-2.093-.27-4.075-.78-5.404-1.477-2.03-1.065-3.06-2.59-3.06-4.533 0-2.33 1.842-4.225 4.106-4.225a4.114 4.114 0 0 1 4.108 4.109c0 1.809-1.554 3.297-2.752 4.061.464.266 1.491.544 2.473.634a5.93 5.93 0 0 0 2.309-4.695 6.145 6.145 0 0 0-6.138-6.139" clip-rule="evenodd"/></g></svg>