<svg xmlns="http://www.w3.org/2000/svg" fill="none" viewBox="0 0 22 22" shape-rendering="geometricPrecision"><rect width="22" height="22" rx="3" ry="3" fill="#ED2E26"/><g transform="translate(11, 11) scale(0.7) translate(-11, -11)"><path fill="#fff" fill-rule="evenodd" d="M10.998 0c6.016 0 9.04 3.22 9.04 3.22.005.032.345 2.415.126 7.18C19.831 17.63 11.042 21.979 11 22c0 0-8.832-4.353-9.165-11.6-.22-4.76.119-7.144.124-7.18 0 0 3.023-3.22 9.04-3.22m.001 2.647a6.76 6.76 0 0 0-6.753 6.752c0 2.249.937 4.246 2.709 5.777 1.656 1.43 4.078 2.386 6.836 2.839.597-.33 1.619-1.306 2.002-1.877-2.303-.296-4.483-.858-5.945-1.624-2.233-1.172-3.365-2.85-3.365-4.987 0-2.562 2.026-4.648 4.516-4.648a4.525 4.525 0 0 1 4.52 4.52c-.001 1.99-1.71 3.627-3.029 4.468.511.292 1.64.598 2.721.697a6.52 6.52 0 0 0 2.54-5.165 6.76 6.76 0 0 0-6.752-6.752" clip-rule="evenodd"/></g><rect x="0.3" y="0.3" width="21.4" height="21.4" rx="3" ry="3" fill="none" stroke="var(--cn-comp-avatar-shadow)" stroke-width="0.6"/></svg>