<svg xmlns="http://www.w3.org/2000/svg" fill="none" viewBox="0 0 20 20"><rect width="100%" height="100%" rx="2px" ry="2px" fill="#F6F6F7"/><g transform="translate(10, 10) scale(0.625) translate(-10, -10)"><path fill="#131314" fill-rule="evenodd" d="M11.028 1.364c.233-.025.468-.008.695.048.278.07.528.216.792.363l5.187 2.88a.75.75 0 0 1-.095 1.357l-3.468 1.333 3.563 1.98a.75.75 0 0 1-.095 1.355l-3.47 1.334 3.565 1.98a.75.75 0 0 1-.095 1.355l-7.8 3c-.282.11-.55.218-.835.248a2 2 0 0 1-.694-.048c-.278-.07-.528-.216-.793-.363l-5.186-2.88a.75.75 0 0 1 .094-1.356l3.47-1.335-3.564-1.979a.75.75 0 0 1 .094-1.356l3.468-1.333L2.3 5.967a.75.75 0 0 1 .094-1.355l7.8-3c.282-.11.55-.218.835-.248M9.808 9.01c-.283.109-.551.218-.836.248a2 2 0 0 1-.694-.049c-.248-.062-.9-.368-1.133-.498l-3.453 1.385 4.586 2.518c.336.186.387.208.429.218a.5.5 0 0 0 .173.012c.042-.004.097-.019.454-.156l6.88-2.754-3.528-1.988z" clip-rule="evenodd"/></g></svg>