<svg xmlns="http://www.w3.org/2000/svg" fill="none" viewBox="0 0 20 20"><rect width="100%" height="100%" rx="2px" ry="2px" fill="#0075A8" stroke="var(--cn-comp-avatar-shadow)" stroke-width="0.6"/><g transform="translate(10, 10) scale(0.625) translate(-10, -10)"><g clip-path="url(#a)"><path fill="#fff" d="M18.94 7.506a.594.594 0 0 1-.606.712H17.05v-.886h.39a.736.736 0 0 0 .73-.73V6.28c0-.397.1-.729.223-.729.116 0 .274.323.34.72zm-2.91-1.044c.406 0 .73.323.746.737v3.796a.736.736 0 0 1-.73.73h-1.963a.737.737 0 0 1-.73-.73V9.503a.73.73 0 0 0-.29.58v1.252c0 .397.331.73.73.73h1.275v1.938a.446.446 0 0 1-.447.449h-2.404a.447.447 0 0 1-.447-.449v-1.806a.446.446 0 0 0-.447-.448h-6a.446.446 0 0 0-.449.448v1.806a.446.446 0 0 1-.447.449H2.023a.447.447 0 0 1-.447-.449V8.817L.49 9.669c-.05.034-.117.034-.157-.017l-.307-.364a.11.11 0 0 1-.008-.133l1.591-2.428a.45.45 0 0 1 .406-.265h8.47a.45.45 0 0 1 .44.522L10.75 8.02a.45.45 0 0 0 .44.522h1.7a.446.446 0 0 0 .438-.364q-.162.05-.348.05h-1.21a.6.6 0 0 1-.613-.722l.207-1.235c.067-.398.215-.721.34-.721.124 0 .223.332.223.73v.19c.017-.008.042-.008.067-.008zm3.043-.448c0-.323.24-.464.463-.464s.464.142.464.464c0 .315-.24.456-.464.456s-.463-.142-.463-.456m.82 0c0-.256-.167-.365-.349-.365s-.357.109-.357.365c0 .248.175.365.357.365.183-.008.348-.116.348-.365m-.506-.232h.165c.084 0 .166.025.166.141 0 .067-.05.108-.108.125l.108.19h-.1l-.099-.182h-.041v.181h-.091zm.165.208c.042 0 .076-.025.076-.067 0-.05-.042-.058-.076-.058h-.083v.125z"/></g><defs><clipPath id="a"><path fill="#fff" d="M0 0h20v20H0z"/></clipPath></defs></g></svg>