<svg xmlns="http://www.w3.org/2000/svg" fill="none" viewBox="0 0 22 22"><rect width="100%" height="100%" rx="2px" ry="2px" fill="#0075A8"/><g transform="translate(11, 11) scale(0.625) translate(-11, -11)"><g clip-path="url(#a)"><path fill="#fff" d="M20.833 8.256a.653.653 0 0 1-.665.784h-1.414v-.975h.43a.81.81 0 0 0 .801-.802v-.356c0-.437.11-.802.247-.802.127 0 .3.356.373.793zm-3.2-1.148c.446 0 .802.356.82.811v4.176a.81.81 0 0 1-.802.802h-2.16a.81.81 0 0 1-.802-.803v-1.64a.8.8 0 0 0-.32.638v1.377c0 .437.365.802.803.802h1.403v2.133a.49.49 0 0 1-.492.493h-2.644a.49.49 0 0 1-.492-.493v-1.988a.49.49 0 0 0-.492-.492h-6.6a.49.49 0 0 0-.493.492v1.988a.49.49 0 0 1-.493.493H2.226a.49.49 0 0 1-.493-.493V9.698l-1.194.938c-.055.037-.128.037-.173-.018l-.338-.402a.12.12 0 0 1-.009-.146L1.77 7.4a.49.49 0 0 1 .446-.292h9.318a.495.495 0 0 1 .483.575l-.192 1.139a.495.495 0 0 0 .484.574h1.87a.49.49 0 0 0 .482-.4q-.178.054-.383.054h-1.331c-.446 0-.747-.355-.675-.794l.229-1.358c.073-.437.236-.793.373-.793s.246.365.246.802v.21c.019-.01.046-.01.074-.01zm3.347-.492c0-.356.264-.511.51-.511s.51.156.51.51c0 .347-.264.502-.51.502s-.51-.156-.51-.501m.902 0c0-.283-.184-.402-.383-.402-.201 0-.393.12-.393.402 0 .273.193.401.393.401.2-.01.383-.128.383-.401m-.557-.256h.183c.091 0 .182.027.182.156 0 .073-.055.118-.119.136l.12.21h-.11l-.11-.2h-.046v.2h-.1zm.183.229c.046 0 .082-.028.082-.073 0-.055-.046-.064-.082-.064h-.092v.137z"/></g><defs><clipPath id="a"><path fill="#fff" d="M0 0h22v22H0z"/></clipPath></defs></g></svg>