<svg xmlns="http://www.w3.org/2000/svg" fill="none" viewBox="0 0 22 22"><rect width="100%" height="100%" rx="2px" ry="2px" fill="#F6F6F7"/><g transform="translate(11, 11) scale(0.625) translate(-11, -11)"><g clip-path="url(#a)"><path fill="#131314" fill-rule="evenodd" d="M20.187.979c.46 0 .835.374.835.835v18.373a.837.837 0 0 1-.835.835H1.814a.837.837 0 0 1-.835-.835V1.814c0-.46.374-.835.835-.835zm-8.712 13.158a.66.66 0 0 0 0 1.32h4.745a.661.661 0 0 0 0-1.32zm-5.228-7.4a.659.659 0 1 0-.933.933L8.644 11l-3.33 3.33a.66.66 0 0 0 .933.934l3.797-3.797a.66.66 0 0 0 0-.933z" clip-rule="evenodd"/></g><defs><clipPath id="a"><path fill="#fff" d="M0 0h22v22H0z"/></clipPath></defs></g></svg>