<svg xmlns="http://www.w3.org/2000/svg" fill="none" viewBox="0 0 20 20"><rect width="100%" height="100%" rx="2px" ry="2px" fill="#F6F6F7"/><g transform="translate(10, 10) scale(0.625) translate(-10, -10)"><g clip-path="url(#a)"><path fill="#131314" fill-rule="evenodd" d="M18.352.89c.419 0 .76.34.76.76v16.702a.76.76 0 0 1-.76.76H1.649a.76.76 0 0 1-.76-.76V1.649c0-.419.341-.76.76-.76zm-7.92 11.962a.6.6 0 0 0 0 1.2h4.313a.601.601 0 0 0 0-1.2zM5.679 6.125a.599.599 0 1 0-.848.848L7.857 10l-3.026 3.027a.6.6 0 0 0 .848.849l3.452-3.451a.6.6 0 0 0 0-.849z" clip-rule="evenodd"/></g><defs><clipPath id="a"><path fill="#fff" d="M0 0h20v20H0z"/></clipPath></defs></g></svg>