<svg xmlns="http://www.w3.org/2000/svg" fill="none" viewBox="0 0 20 20"><rect width="100%" height="100%" rx="2px" ry="2px" fill="#0D9DDA"/><g transform="translate(10, 10) scale(0.625) translate(-10, -10)"><path fill="#fff" d="M5.305 9.613c.166 0 .315.026.315.026v.527s-.147.03-.313.042c-.236.013-.34-.068-.34-.068a.3.3 0 0 1-.067-.068.3.3 0 0 1-.035-.151c0-.103.033-.175.103-.225.002-.002.103-.088.337-.083M7.901 8.941c.153 0 .252.06.326.168a.6.6 0 0 1 .077.274h-.83a.65.65 0 0 1 .095-.274.37.37 0 0 1 .332-.168M12.558 8.945c.153 0 .26.053.333.162q.109.165.11.464v.073a.8.8 0 0 1-.108.393q-.107.164-.333.162-.224 0-.332-.162-.109-.168-.11-.466.002-.299.108-.464.106-.163.332-.162M17.185 8.941c.153 0 .251.06.324.168a.6.6 0 0 1 .076.274h-.827a.65.65 0 0 1 .094-.274c.07-.109.18-.168.333-.168"/><path fill="#fff" fill-rule="evenodd" d="M5.235 3c1.26 0 2.38.6 3.088 1.527a3.5 3.5 0 0 1 2.535-1.09c1.322 0 2.473.738 3.087 1.83a4.3 4.3 0 0 1 1.743-.373C18.072 4.894 20 6.841 20 9.245s-1.931 4.351-4.312 4.351q-.437 0-.848-.085a3.155 3.155 0 0 1-4.13 1.297A3.6 3.6 0 0 1 7.4 17c-1.485 0-2.868-.98-3.375-2.354q-.332.07-.687.072C1.494 14.718 0 13.208 0 11.345a3.38 3.38 0 0 1 1.669-2.922A3.882 3.882 0 0 1 5.235 3m6.413 4.889q-.315 0-.49.177-.175.175-.231.525l-.014.079h-.262s-.033 0-.04.033l-.043.24c-.002.024.006.037.037.037h.256l-.26 1.45a2 2 0 0 1-.07.287.6.6 0 0 1-.081.165.2.2 0 0 1-.105.08.43.43 0 0 1-.23.01c-.029-.005-.042-.012-.063-.02 0 0-.031-.011-.042.02-.01.024-.079.21-.085.235-.01.022.004.042.017.046a.8.8 0 0 0 .276.046.9.9 0 0 0 .284-.043.54.54 0 0 0 .214-.15.8.8 0 0 0 .151-.26q.06-.159.103-.389l.26-1.479h.383s.033 0 .04-.033l.043-.24c.002-.024-.006-.037-.037-.037h-.37s.02-.139.062-.263a.4.4 0 0 1 .08-.125.3.3 0 0 1 .097-.06.44.44 0 0 1 .22-.01c.036.007.051.011.06.016.037.01.044 0 .05-.018l.09-.242c.009-.027-.013-.038-.022-.04l-.006.002a1 1 0 0 0-.114-.026 1 1 0 0 0-.158-.013m-8.065.742c-.376 0-.639.227-.639.55v.007c0 .344.29.453.56.532l.044.013c.197.061.368.114.368.251v.007c0 .127-.112.22-.29.221-.07 0-.29 0-.528-.153l-.068-.042c-.011-.006-.042-.02-.055.018l-.08.225h.003c-.013.033.005.04.01.046.036.026.076.046.113.07.203.107.396.14.597.14.411 0 .665-.219.665-.569v-.006c0-.324-.289-.442-.558-.527l-.035-.011c-.203-.066-.378-.123-.378-.258v-.007c0-.114.103-.199.262-.199.177 0 .387.059.52.133 0 0 .04.026.056-.013l.083-.225c.008-.022-.007-.037-.02-.046a1.17 1.17 0 0 0-.588-.157zm6.005 0c-.377 0-.639.227-.639.55v.007c0 .344.289.453.56.532l.044.013c.196.061.367.114.367.251v.007c0 .127-.111.22-.288.221-.07 0-.291 0-.53-.153l-.068-.042c-.006-.004-.041-.017-.054.018l-.081.225h.004c-.013.033.004.04.009.046.037.026.076.046.113.07.204.107.397.14.598.14.41 0 .665-.219.665-.569v-.006c0-.324-.287-.442-.558-.527l-.035-.011c-.203-.066-.379-.123-.379-.258v-.007c0-.114.103-.199.263-.199.177 0 .387.059.52.133 0 0 .04.026.055-.013.009-.022.077-.205.083-.225.009-.022-.006-.037-.02-.046a1.17 1.17 0 0 0-.588-.157zm6.136.004a.9.9 0 0 0-.383.074.8.8 0 0 0-.442.497 1.2 1.2 0 0 0-.057.37q0 .427.227.682c.151.168.38.254.676.254.176 0 .355-.035.486-.088 0 0 .024-.012.013-.041l-.083-.232-.002-.005c-.01-.032-.044-.02-.044-.02a.8.8 0 0 1-.16.047q-.085.012-.188.013a.52.52 0 0 1-.391-.147c-.094-.098-.149-.256-.147-.468 0-.195.048-.339.131-.45q.125-.168.381-.167c.142 0 .25.016.363.053 0 0 .027.01.04-.024l.085-.234c.009-.027-.013-.038-.022-.04a1.2 1.2 0 0 0-.228-.057 2 2 0 0 0-.255-.017M5.266 8.633c-.087 0-.227.01-.31.028 0 0-.254.048-.357.131 0 0-.021.014-.01.046l.083.221c.01.029.037.02.037.02l.02-.009c.22-.119.499-.118.505-.118q.186.001.286.074c.064.048.096.123.096.276v.048a3 3 0 0 0-.19-.022l.002-.002q-.071-.005-.181-.004-.149 0-.287.037a.8.8 0 0 0-.243.111.6.6 0 0 0-.168.19.55.55 0 0 0-.061.268c0 .1.017.192.052.264a.5.5 0 0 0 .151.182q.098.069.236.103.138.03.307.03.179 0 .352-.028c.114-.02.254-.048.29-.057l.082-.02c.028-.006.026-.037.026-.037v-1.06q-.001-.35-.186-.513-.184-.16-.532-.16m2.658 0a.9.9 0 0 0-.382.074.76.76 0 0 0-.268.203.9.9 0 0 0-.157.302 1.34 1.34 0 0 0 .002.74.754.754 0 0 0 .46.488q.175.067.42.067c.334 0 .512-.076.584-.116.013-.006.024-.02.008-.054l-.076-.212c-.01-.03-.042-.02-.044-.02-.083.03-.201.085-.477.085-.18 0-.313-.052-.396-.135-.085-.086-.127-.21-.135-.385h1.159s.03-.001.033-.029c0-.013.04-.238-.035-.499l.006-.002a.7.7 0 0 0-.702-.507m4.635 0a.84.84 0 0 0-.367.074.75.75 0 0 0-.262.2.8.8 0 0 0-.156.297 1.3 1.3 0 0 0-.05.367q0 .198.05.368a.767.767 0 0 0 .418.497.9.9 0 0 0 .367.071q.21 0 .368-.072a.7.7 0 0 0 .262-.199.8.8 0 0 0 .156-.297 1.3 1.3 0 0 0 .05-.368q-.001-.199-.05-.367a.748.748 0 0 0-.418-.497.9.9 0 0 0-.367-.074m4.649 0a.9.9 0 0 0-.383.074.76.76 0 0 0-.267.203.9.9 0 0 0-.157.302 1.34 1.34 0 0 0 .002.74.8.8 0 0 0 .168.295.76.76 0 0 0 .291.193q.175.067.42.067c.335 0 .512-.076.584-.116.013-.006.024-.02.011-.054l-.076-.212c-.011-.03-.044-.02-.044-.02-.083.03-.201.085-.477.085-.18 0-.313-.052-.396-.135-.085-.086-.127-.21-.135-.385h1.159s.03-.001.033-.029c0-.013.04-.238-.035-.499l.004-.002a.7.7 0 0 0-.702-.507M6.4 7.926c-.02 0-.033.015-.033.035v2.474c0 .02.013.035.032.035h.309c.02 0 .033-.015.033-.035V7.961c0-.02-.013-.035-.033-.035zm8.165.728a.6.6 0 0 0-.3.049.55.55 0 0 0-.196.144v-.142c0-.02-.013-.035-.033-.035h-.297c-.02 0-.033.015-.033.035v1.73c0 .02.015.035.035.035h.304c.02 0 .035-.015.035-.035v-.864c0-.116.013-.232.04-.304a.4.4 0 0 1 .1-.17.33.33 0 0 1 .142-.086.53.53 0 0 1 .282-.006c.022.002.035-.012.042-.031l.087-.243.005-.002c.008-.026-.009-.04-.018-.042a1 1 0 0 0-.195-.033" clip-rule="evenodd"/></g></svg>