<svg xmlns="http://www.w3.org/2000/svg" fill="none" viewBox="0 0 20 20"><rect width="100%" height="100%" rx="2px" ry="2px" fill="#F6F6F7"/><g transform="translate(10, 10) scale(0.625) translate(-10, -10)"><path fill="#000" d="M6.243 12a1.203 1.203 0 0 1 0 2.403 1.202 1.202 0 0 1 0-2.403"/><path fill="#000" fill-rule="evenodd" d="M18.352.89a.76.76 0 0 1 .76.76v16.702a.76.76 0 0 1-.76.76H1.649a.76.76 0 0 1-.759-.76V1.649c0-.419.34-.759.76-.759zm-12.11 9.894a2.417 2.417 0 0 0 0 4.834 2.416 2.416 0 0 0 2.337-1.81h7.596v-1.964a.608.608 0 0 0-1.214 0v.75h-.993v-.75a.61.61 0 0 0-.607-.608.61.61 0 0 0-.608.608v.75H8.58a2.42 2.42 0 0 0-2.336-1.81M4.87 4.011a.607.607 0 1 0-.872.845L5.34 6.243 3.998 7.63a.607.607 0 0 0 .872.846l1.754-1.81a.61.61 0 0 0 0-.846zm2.196 3.434a.608.608 0 0 0 0 1.214h2.193a.61.61 0 0 0 .607-.606.61.61 0 0 0-.607-.608z" clip-rule="evenodd"/></g></svg>