<svg xmlns="http://www.w3.org/2000/svg" fill="none" viewBox="0 0 20 20"><rect width="100%" height="100%" rx="2px" ry="2px" fill="#2ACFA6"/><g transform="translate(10, 10) scale(0.625) translate(-10, -10)"><path fill="#131314" fill-rule="evenodd" d="M16.093 13.906a3.906 3.906 0 1 0-3.05-6.343l-.002-.002a4 4 0 0 0-.11.145 2.7 2.7 0 0 0-.355.593l-.063.139h-.13q.042-.175.116-.348c.11-.234.246-.483.384-.707l.006-.01a3.907 3.907 0 0 0-5.778 0l.006.01c.138.224.275.473.384.707q.074.173.116.348h-.13l-.064-.139a2.7 2.7 0 0 0-.355-.593 4 4 0 0 0-.11-.145v.002a3.907 3.907 0 1 0-.15 5.053c-.24-.387-.418-.677-.539-.975h.138c.179.292.27.452.4.623l.146.18A3.9 3.9 0 0 0 10 13.906c1.232 0 2.33-.57 3.046-1.462.226-.26.309-.414.547-.803h.138c-.121.298-.3.588-.538.975a3.9 3.9 0 0 0 2.9 1.29M3.906 12.188a2.187 2.187 0 1 1 0-4.375 2.187 2.187 0 0 1 0 4.375m6.094 0a2.188 2.188 0 1 1 0-4.377 2.188 2.188 0 0 1 0 4.377m6.093 0a2.187 2.187 0 1 1 0-4.375 2.187 2.187 0 0 1 0 4.375" clip-rule="evenodd"/></g></svg>