<svg xmlns="http://www.w3.org/2000/svg" fill="none" viewBox="0 0 22 22" shape-rendering="geometricPrecision"><rect width="22" height="22" rx="3" ry="3" fill="#2ACFA6"/><g transform="translate(11, 11) scale(0.7) translate(-11, -11)"><path fill="#131314" fill-rule="evenodd" d="M17.703 15.297a4.297 4.297 0 1 0-3.356-6.978l-.001-.002a4 4 0 0 0-.121.16c-.163.213-.28.397-.391.652q-.037.075-.07.153h-.143q.047-.192.128-.383c.12-.257.27-.531.422-.778l.007-.011a4.297 4.297 0 0 0-6.356 0l.007.011c.152.247.302.52.422.778q.081.19.128.383h-.143l-.07-.153a3 3 0 0 0-.39-.653 4 4 0 0 0-.122-.159v.002a4.297 4.297 0 1 0-.165 5.558c-.264-.425-.46-.744-.593-1.072h.151c.197.322.297.497.44.686l.162.198A4.29 4.29 0 0 0 11 15.297a4.29 4.29 0 0 0 3.35-1.608c.25-.286.34-.456.603-.884h.15c-.132.328-.328.647-.591 1.072a4.3 4.3 0 0 0 3.19 1.42m-13.406-1.89a2.406 2.406 0 1 1 0-4.812 2.406 2.406 0 0 1 0 4.811m6.703 0a2.407 2.407 0 1 1 0-4.815 2.407 2.407 0 0 1 0 4.814m6.703 0a2.406 2.406 0 1 1 0-4.812 2.406 2.406 0 0 1 0 4.811" clip-rule="evenodd"/></g><rect x="0.3" y="0.3" width="21.4" height="21.4" rx="3" ry="3" fill="none" stroke="var(--cn-comp-avatar-shadow)" stroke-width="0.6"/></svg>