<svg xmlns="http://www.w3.org/2000/svg" fill="none" viewBox="0 0 22 22"><rect width="100%" height="100%" rx="2px" ry="2px" fill="#62d84e"/><g transform="translate(11, 11) scale(0.625) translate(-11, -11)"><path fill="#131314" fill-rule="evenodd" d="M11.083 2.156c-5.44 0-9.917 4.41-9.983 9.85 0 2.885 1.16 5.506 3.118 7.33.696.663 1.79.73 2.553.132 1.128-.895 2.587-1.393 4.246-1.393 1.658 0 3.117.53 4.245 1.393.763.597 1.857.53 2.554-.166 1.923-1.824 3.084-4.377 3.084-7.23 0-5.472-4.411-9.916-9.85-9.95m-.067 14.925c-2.951 0-4.941-2.222-4.941-4.942s2.023-5.008 4.941-5.008c2.919 0 4.942 2.256 4.942 5.008s-2.023 4.942-4.942 4.942" clip-rule="evenodd"/></g></svg>