<svg xmlns="http://www.w3.org/2000/svg" fill="none" viewBox="0 0 20 20"><rect width="100%" height="100%" rx="2px" ry="2px" fill="#62d84e"/><g transform="translate(10, 10) scale(0.625) translate(-10, -10)"><path fill="#131314" fill-rule="evenodd" d="M10.075 1.96C5.131 1.96 1.06 5.97 1 10.915c0 2.623 1.055 5.005 2.834 6.663a1.785 1.785 0 0 0 2.322.12c1.025-.814 2.352-1.266 3.86-1.266 1.507 0 2.833.483 3.858 1.266a1.753 1.753 0 0 0 2.322-.15C17.945 15.889 19 13.568 19 10.975 19 6 14.99 1.96 10.045 1.93m-.06 13.567c-2.683 0-4.493-2.02-4.493-4.492s1.84-4.553 4.493-4.553 4.492 2.05 4.492 4.553c0 2.502-1.839 4.492-4.492 4.492" clip-rule="evenodd"/></g></svg>