<svg xmlns="http://www.w3.org/2000/svg" fill="none" viewBox="0 0 18 18"><rect width="100%" height="100%" fill="#5EA800"/><g transform="translate(9, 9) scale(0.8) translate(-9, -9)"><path fill="#fff" d="m14.506 10.36 2.34 3.17h-2.153l-1.256-1.701-1.255 1.701h-2.153l2.331-3.16-1.765-2.39h2.154l1.749 2.369v-2.48l1.348-1.76H18z"/><path fill="#fff" d="M11.587 6.152H8.31v1.767h1.435l1.218 1.557H8.31v3.256H6.466V4.595h5.12zM3.084 4.47c1.506 0 2.146.68 2.657 1.02l-.943 1.14c-.539-.367-1.758-.971-2.33-.447-.716.655.06 1.122.248 1.212.191.091 3.627.937 3.207 3.19-.336 1.803-1.905 2.181-2.647 2.145C2.53 12.702.832 12.44 0 11.616l.995-1.232c.401.347 1.42.99 2.28.793 1.078-.246 1.023-1.121.275-1.468S.091 8.668.328 6.769c.238-1.897 1.634-2.299 2.756-2.3"/></g></svg>