<svg xmlns="http://www.w3.org/2000/svg" fill="none" viewBox="0 0 22 22" shape-rendering="geometricPrecision"><rect width="22" height="22" rx="3" ry="3" fill="#5EA800"/><g transform="translate(11, 11) scale(0.7) translate(-11, -11)"><g fill="#fff" clip-path="url(#a)"><path d="m17.73 12.662 2.86 3.875h-2.632l-1.535-2.08-1.534 2.08h-2.632l2.85-3.861-2.157-2.923h2.632l2.138 2.895v-3.03l1.648-2.152H22z"/><path d="M14.162 7.519h-4.006v2.16h1.755l1.488 1.902h-3.242v3.98H7.903V5.616h6.259zM3.77 5.463c1.84 0 2.622.832 3.247 1.248L5.864 8.104c-.658-.449-2.149-1.188-2.848-.547-.875.8.074 1.371.304 1.482.233.11 4.432 1.144 3.92 3.898-.411 2.204-2.329 2.666-3.236 2.621-.911-.033-2.987-.353-4.004-1.361l1.216-1.506c.49.424 1.735 1.211 2.788.97 1.316-.3 1.25-1.37.335-1.795-.915-.423-4.228-1.272-3.938-3.592s1.997-2.81 3.368-2.81"/></g><defs><clipPath id="a"><path fill="#fff" d="M0 0h22v22H0z"/></clipPath></defs></g><rect x="0.3" y="0.3" width="21.4" height="21.4" rx="3" ry="3" fill="none" stroke="var(--cn-comp-avatar-shadow)" stroke-width="0.6"/></svg>