<svg xmlns="http://www.w3.org/2000/svg" fill="none" viewBox="0 0 18 18"><rect width="100%" height="100%" rx="2px" ry="2px" fill="#4A154B"/><g transform="translate(9, 9) scale(0.5625) translate(-9, -9)"><path fill="#fff" d="M4.303 11.136a1.706 1.706 0 0 1-1.7 1.703A1.707 1.707 0 0 1 .9 11.136a1.706 1.706 0 0 1 1.702-1.7h1.701zm.858 0a1.706 1.706 0 0 1 1.702-1.7 1.706 1.706 0 0 1 1.702 1.7v4.262A1.706 1.706 0 0 1 6.863 17.1a1.706 1.706 0 0 1-1.702-1.702zm1.702-6.833a1.706 1.706 0 0 1-1.702-1.7A1.706 1.706 0 0 1 6.863.9a1.706 1.706 0 0 1 1.702 1.702v1.701zm0 .858a1.706 1.706 0 0 1 1.702 1.702 1.706 1.706 0 0 1-1.702 1.702h-4.26A1.706 1.706 0 0 1 .9 6.863 1.706 1.706 0 0 1 2.602 5.16zm6.832 1.702a1.706 1.706 0 0 1 1.703-1.702A1.706 1.706 0 0 1 17.1 6.863a1.707 1.707 0 0 1-1.702 1.702h-1.703zm-.856 0a1.706 1.706 0 0 1-1.703 1.702 1.706 1.706 0 0 1-1.7-1.702v-4.26A1.706 1.706 0 0 1 11.135.9a1.707 1.707 0 0 1 1.703 1.702zm-1.703 6.832a1.706 1.706 0 0 1 1.703 1.703 1.707 1.707 0 0 1-1.703 1.702 1.705 1.705 0 0 1-1.7-1.702v-1.703zm0-.856a1.705 1.705 0 0 1-1.7-1.703 1.705 1.705 0 0 1 1.7-1.7h4.262a1.706 1.706 0 0 1 1.702 1.7 1.706 1.706 0 0 1-1.702 1.703z"/></g></svg>