<svg xmlns="http://www.w3.org/2000/svg" fill="none" viewBox="0 0 20 20"><rect width="100%" height="100%" rx="2px" ry="2px" fill="#4A154B"/><g transform="translate(10, 10) scale(0.625) translate(-10, -10)"><path fill="#fff" d="M4.782 12.374a1.896 1.896 0 0 1-1.89 1.892A1.896 1.896 0 0 1 1 12.374a1.895 1.895 0 0 1 1.892-1.89h1.89zm.953 0a1.895 1.895 0 0 1 1.89-1.89 1.895 1.895 0 0 1 1.891 1.89v4.734A1.896 1.896 0 0 1 7.626 19a1.896 1.896 0 0 1-1.891-1.892zm1.89-7.592a1.896 1.896 0 0 1-1.89-1.89A1.896 1.896 0 0 1 7.625 1a1.896 1.896 0 0 1 1.891 1.892v1.89zm0 .953a1.896 1.896 0 0 1 1.891 1.89 1.896 1.896 0 0 1-1.89 1.891H2.89A1.896 1.896 0 0 1 1 7.626a1.896 1.896 0 0 1 1.892-1.891zm7.592 1.89a1.896 1.896 0 0 1 1.891-1.89A1.896 1.896 0 0 1 19 7.625a1.896 1.896 0 0 1-1.892 1.891h-1.891zm-.951 0a1.896 1.896 0 0 1-1.892 1.891 1.895 1.895 0 0 1-1.89-1.89V2.89A1.895 1.895 0 0 1 12.374 1a1.896 1.896 0 0 1 1.892 1.892zm-1.892 7.592a1.896 1.896 0 0 1 1.892 1.891A1.896 1.896 0 0 1 12.374 19a1.896 1.896 0 0 1-1.89-1.892v-1.891zm0-.951a1.895 1.895 0 0 1-1.89-1.892 1.895 1.895 0 0 1 1.89-1.89h4.734A1.895 1.895 0 0 1 19 12.374a1.896 1.896 0 0 1-1.892 1.892z"/></g></svg>