<svg xmlns="http://www.w3.org/2000/svg" fill="none" viewBox="0 0 22 22" shape-rendering="geometricPrecision"><rect width="22" height="22" rx="3" ry="3" fill="#030328"/><g transform="translate(11, 11) scale(0.7) translate(-11, -11)"><path fill="#fff" d="M10.155 18.205q.033.013.052.04a.98.98 0 0 0 1.256.306 1 1 0 0 0 .351-.305.12.12 0 0 1 .118-.046 1 1 0 0 0 .237.028l.065-.004a.12.12 0 0 1 .108.055.12.12 0 0 1 .003.12 1.51 1.51 0 0 1-1.33.793 1.52 1.52 0 0 1-1.332-.793.12.12 0 0 1 .004-.12.119.119 0 0 1 .108-.054h.07q.114 0 .224-.027a.1.1 0 0 1 .066.007"/><path fill="#fff" d="M11.47 18.056a.05.05 0 0 1 .044.032q.005.015.001.029a.05.05 0 0 1-.015.024.82.82 0 0 1-.992-.001.047.047 0 0 1 .003-.076.05.05 0 0 1 .028-.008zM12.278 11.812a.12.12 0 0 1 .06.036l.969 1.1q.022.026.055.035l1.014.295a.12.12 0 0 1 .084.133.1.1 0 0 1-.023.052c-.197.257-.392.5-.554.699l-.061.076v.1c0 .06 0 1.496-.38 2.522-.304.825-.985.917-1.262.917-.649 0-.947-.539-1.015-.666a.1.1 0 0 1-.012-.052v-.29q-.011-.187.029-.37c.07-.166.228-.127.355.088 0 .009.008.02.013.029.344-.246.694-.555.694-.79 0-.184-.194-.484-.262-.582a.13.13 0 0 1-.02-.073l.168-3.15a.118.118 0 0 1 .08-.105.12.12 0 0 1 .068-.004M9.815 11.811a.12.12 0 0 1 .08.106l.168 3.15a.13.13 0 0 1-.02.074c-.067.098-.262.397-.262.58 0 .236.355.545.694.791l.013-.03c.118-.213.278-.252.355-.088q.04.184.027.372h.007v.29a.1.1 0 0 1-.013.052c-.062.127-.366.665-1.014.665-.277 0-.958-.09-1.262-.916-.376-1.026-.38-2.461-.38-2.523v-.1l-.062-.076c-.162-.2-.355-.445-.554-.707a.12.12 0 0 1-.015-.102.12.12 0 0 1 .07-.075l1.015-.294a.1.1 0 0 0 .056-.036l.97-1.1a.12.12 0 0 1 .127-.033M8.814 10.696a.18.18 0 0 1 .052.158.18.18 0 0 1-.176.155.297.297 0 0 0 .557.062.294.294 0 0 0-.11-.375h.495q.006 0 .01.004l.004.01a.665.665 0 0 1-.402.646.675.675 0 0 1-.894-.372.7.7 0 0 1-.045-.263v-.025zM12.873 10.702a.295.295 0 0 0-.12.354.29.29 0 0 0 .238.181.3.3 0 0 0 .331-.229.182.182 0 0 1-.17-.236.2.2 0 0 1 .042-.07h.51v.025a.666.666 0 0 1-.676.661.666.666 0 0 1-.664-.672v-.014zM8.626 9.377c.575 0 1.03.347 1.283.597a.117.117 0 0 1-.018.18.12.12 0 0 1-.066.02H8.539a.12.12 0 0 1-.09-.041c-.149-.173-.591-.756.177-.756M13.381 9.377c.766 0 .325.583.177.756a.12.12 0 0 1-.09.041h-1.286a.12.12 0 0 1-.11-.072.12.12 0 0 1 .025-.128c.253-.25.71-.597 1.284-.597M14.525 3.14q.027.014.041.042c.458.95.9 1.992.947 2.468a.1.1 0 0 1 0 .043l-.22.589a.096.096 0 0 1-.179.02c-.549-.862-.764-2.09-.817-2.44v-.027l.09-.625a.094.094 0 0 1 .08-.08q.03-.005.058.01M7.56 3.13a.095.095 0 0 1 .08.08l.09.625v.026c-.053.354-.267 1.58-.817 2.44a.094.094 0 0 1-.139.025.1.1 0 0 1-.03-.042l-.222-.589a.1.1 0 0 1-.008-.045c.045-.471.486-1.517.947-2.468a.094.094 0 0 1 .1-.052"/><path fill="#fff" fill-rule="evenodd" d="M13.964.004a.54.54 0 0 1 .473.279l.28.516c.268.497 1.37 2.577 1.845 4.08.406.09.739.176.989.247a.83.83 0 0 1 .599.793v10.865a.82.82 0 0 1-.346.67l-2.1 1.498-.001-.009-.148.106-3.797 2.708a1.31 1.31 0 0 1-1.517 0l-3.22-2.296-.715-.51v.007l-2.109-1.504a.83.83 0 0 1-.347-.67V5.92a.82.82 0 0 1 .6-.793c.256-.07.583-.155.984-.243.474-1.504 1.58-3.59 1.85-4.087L7.561.28A.53.53 0 0 1 8.035 0a.53.53 0 0 1 .528.455l.566 3.927q.879-.059 1.887-.061c.64 0 1.597.046 1.863.06l.566-3.926A.526.526 0 0 1 13.973 0zM8.036.469a.06.06 0 0 0-.05.03l-.28.518c-.75 1.38-2.013 3.978-2.013 4.95v.045l.83 2.225v.036c-.261 2.34-.337 3.94-.205 4.278.119.304.591.953.985 1.47l-.568 4.648.992.707 2.794 2.003a.83.83 0 0 0 .966 0l3.8-2.71-.574-4.658c.394-.515.859-1.156.977-1.458.133-.339.057-1.937-.203-4.277v-.037l.83-2.226v-.045C16.315 5 15.05 2.402 14.302 1.02l-.279-.518a.06.06 0 0 0-.05-.03.06.06 0 0 0-.06.05l-.746 5.185-.456.755-.118-.037a5.3 5.3 0 0 0-1.589-.29 5.2 5.2 0 0 0-1.581.288l-.119.04-.463-.758L8.096.52a.06.06 0 0 0-.06-.051" clip-rule="evenodd"/></g><rect x="0.3" y="0.3" width="21.4" height="21.4" rx="3" ry="3" fill="none" stroke="var(--cn-comp-avatar-shadow)" stroke-width="0.6"/></svg>