<svg xmlns="http://www.w3.org/2000/svg" fill="none" viewBox="0 0 22 22" shape-rendering="geometricPrecision"><rect width="22" height="22" rx="3" ry="3" fill="#126ED3"/><g transform="translate(11, 11) scale(0.7) translate(-11, -11)"><g clip-path="url(#a)"><path fill="#fff" d="M11 .86a.654.654 0 1 0 0 1.31c4.869 0 8.83 3.961 8.83 8.83a.653.653 0 0 0 1.118.463.65.65 0 0 0 .192-.463C21.14 5.41 16.59.86 11 .86m0 3.323a.654.654 0 1 0 0 1.31A5.513 5.513 0 0 1 16.508 11c0 .363.292.655.655.655a.653.653 0 0 0 .654-.655A6.826 6.826 0 0 0 11 4.183m0 3.316a.653.653 0 0 0-.655.656c0 .363.292.655.655.655A2.195 2.195 0 0 1 13.19 11c0 .363.293.655.655.655a.654.654 0 0 0 .656-.655A3.503 3.503 0 0 0 11 7.5m-9.485 2.846A.654.654 0 0 0 .86 11c0 5.59 4.55 10.14 10.14 10.14a.653.653 0 0 0 .605-.906.66.66 0 0 0-.605-.405C6.131 19.83 2.17 15.87 2.17 11a.654.654 0 0 0-.655-.655m3.323 0a.654.654 0 0 0-.655.655A6.826 6.826 0 0 0 11 17.817a.653.653 0 0 0 .463-1.118.65.65 0 0 0-.463-.191A5.51 5.51 0 0 1 5.492 11a.654.654 0 0 0-.654-.655m3.317 0a.655.655 0 0 0-.656.655A3.5 3.5 0 0 0 11 14.5a.654.654 0 0 0 .25-1.26.7.7 0 0 0-.25-.05A2.194 2.194 0 0 1 8.81 11a.654.654 0 0 0-.655-.655"/></g><defs><clipPath id="a"><path fill="#fff" d="M0 0h22v22H0z"/></clipPath></defs></g><rect x="0.3" y="0.3" width="21.4" height="21.4" rx="3" ry="3" fill="none" stroke="var(--cn-comp-avatar-shadow)" stroke-width="0.6"/></svg>