<svg xmlns="http://www.w3.org/2000/svg" fill="none" viewBox="0 0 18 18"><rect width="100%" height="100%" rx="2px" ry="2px" fill="#126ED3"/><g transform="translate(9, 9) scale(0.5625) translate(-9, -9)"><g clip-path="url(#a)"><path fill="#fff" d="M9 .704a.535.535 0 1 0 0 1.072c3.984 0 7.225 3.24 7.225 7.224a.534.534 0 0 0 .915.38.54.54 0 0 0 .156-.38C17.296 4.426 13.574.704 9 .704m0 2.718a.535.535 0 1 0 0 1.072A4.51 4.51 0 0 1 13.506 9c0 .297.24.536.536.536s.536-.24.536-.536A5.585 5.585 0 0 0 9 3.422m0 2.714a.535.535 0 1 0 0 1.072A1.795 1.795 0 0 1 10.792 9a.535.535 0 1 0 1.072 0A2.866 2.866 0 0 0 9 6.136M1.24 8.464A.535.535 0 0 0 .704 9c0 4.574 3.722 8.296 8.296 8.296a.534.534 0 0 0 .38-.915.54.54 0 0 0-.38-.157c-3.984 0-7.225-3.24-7.225-7.224a.535.535 0 0 0-.535-.536m2.718 0A.535.535 0 0 0 3.422 9 5.585 5.585 0 0 0 9 14.578a.534.534 0 0 0 .205-1.031.5.5 0 0 0-.205-.04A4.51 4.51 0 0 1 4.494 9a.535.535 0 0 0-.536-.536m2.714 0A.535.535 0 0 0 6.136 9 2.865 2.865 0 0 0 9 11.864a.535.535 0 1 0 0-1.072A1.795 1.795 0 0 1 7.208 9a.535.535 0 0 0-.536-.536"/></g><defs><clipPath id="a"><path fill="#fff" d="M0 0h18v18H0z"/></clipPath></defs></g></svg>