<svg xmlns="http://www.w3.org/2000/svg" fill="none" viewBox="0 0 20 20"><rect width="100%" height="100%" rx="2px" ry="2px" fill="#000000" stroke="var(--cn-comp-avatar-shadow)" stroke-width="0.6"/><g transform="translate(10, 10) scale(0.625) translate(-10, -10)"><g fill="#fff" clip-path="url(#a)"><path d="M2.44 10.509a.8.8 0 0 1-.311.631 1 1 0 0 1-.345.175 1.4 1.4 0 0 1-.438.063q-.284.002-.51-.078a1.5 1.5 0 0 1-.452-.257l.248-.403q.182.153.326.218a.65.65 0 0 0 .296.068.44.44 0 0 0 .297-.097.31.31 0 0 0 .111-.257.37.37 0 0 0-.092-.258 2 2 0 0 0-.15-.14 8 8 0 0 0-.248-.185q-.116-.082-.224-.17a2 2 0 0 1-.2-.185 1 1 0 0 1-.145-.219.64.64 0 0 1-.053-.277.71.71 0 0 1 .277-.578 1 1 0 0 1 .31-.16q.183-.06.394-.059.226 0 .437.059.212.058.394.174l-.228.365a.84.84 0 0 0-.486-.16q-.155.001-.258.082a.25.25 0 0 0-.102.204q0 .116.088.21.086.093.31.262a7 7 0 0 1 .365.286c.097.083.175.156.228.229a.6.6 0 0 1 .117.218c.034.068.044.151.044.239m2.566-.68q0-.477-.195-.754a.6.6 0 0 0-.525-.277.64.64 0 0 0-.554.292c-.136.194-.204.461-.204.792 0 .325.068.578.2.767a.65.65 0 0 0 .554.277q.211.001.345-.107a.8.8 0 0 0 .223-.272c.058-.111.097-.228.122-.36a2.4 2.4 0 0 0 .034-.359m.811-.035q.001.344-.107.627c-.068.19-.165.36-.291.5q-.19.211-.443.336a1.3 1.3 0 0 1-.801.092.8.8 0 0 1-.219-.078 1 1 0 0 1-.204-.14 2 2 0 0 1-.214-.214v1.837H2.79V8.409h.743l.005.423a1.3 1.3 0 0 1 .442-.374q.24-.117.554-.117a1.21 1.21 0 0 1 .928.404c.112.126.204.281.263.456.058.18.092.38.092.593m.33-2.74h.763v4.256h-.763zm3.266 4.256v-.389c-.146.16-.296.282-.452.35a1.26 1.26 0 0 1-.54.107 1.1 1.1 0 0 1-.578-.136.78.78 0 0 1-.34-.403.7.7 0 0 1-.043-.131 1 1 0 0 1-.025-.16 1.3 1.3 0 0 1-.014-.205c0-.078-.005-.17-.005-.287V8.405h.763v1.662q-.001.219.02.336a.7.7 0 0 0 .072.209c.087.165.248.242.471.242q.431 0 .593-.36a.7.7 0 0 0 .059-.203c.01-.078.019-.185.019-.32V8.403h.763v2.901h-.763zm3.3-1.657a2 2 0 0 0-.02-.335.7.7 0 0 0-.073-.209c-.087-.16-.248-.243-.471-.243a.73.73 0 0 0-.37.087.53.53 0 0 0-.228.263.8.8 0 0 0-.053.214q-.015.11-.015.316v1.564h-.773V8.414h.773v.389c.146-.16.297-.282.452-.35q.232-.108.54-.107.343.001.578.141a.8.8 0 0 1 .34.403q.022.066.039.131.015.067.029.156.014.087.014.204c0 .078.005.175.005.287v1.647h-.768zm3.216 1.716-1.156-1.604v1.545h-.768V7.053h.768v2.498h.082l1.026-1.185.578.247-.982 1.055 1.162 1.448zm1.376-.141v-.506l1.793-.889-1.793-.875v-.52l2.317 1.167v.471zM17.528 7.69a.26.26 0 0 1 .258.262.257.257 0 1 1-.516 0c0-.15.117-.262.258-.262m0 .039a.213.213 0 0 0-.209.219c0 .121.092.218.21.218a.213.213 0 0 0 .208-.218.213.213 0 0 0-.209-.22m-.048.37h-.05v-.292c.025-.005.05-.005.084-.005a.15.15 0 0 1 .092.024c.02.015.024.034.024.058 0 .04-.024.064-.058.073.024.005.044.03.048.073.005.044.015.063.02.073h-.049a.2.2 0 0 1-.02-.073c-.004-.039-.024-.048-.062-.048h-.034v.116zm0-.161h.034c.038 0 .072-.015.072-.049 0-.024-.02-.048-.072-.048h-.034z"/></g><defs><clipPath id="a"><path fill="#fff" d="M0 0h20v20H0z"/></clipPath></defs></g></svg>