<svg xmlns="http://www.w3.org/2000/svg" fill="none" viewBox="0 0 18 18"><rect width="100%" height="100%" rx="2px" ry="2px" fill="#000000"/><g transform="translate(9, 9) scale(0.5625) translate(-9, -9)"><g fill="#fff" clip-path="url(#a)"><path d="M2.196 9.458a.71.71 0 0 1-.28.568.9.9 0 0 1-.31.158 1.2 1.2 0 0 1-.394.056q-.255.002-.46-.07a1.4 1.4 0 0 1-.406-.231l.223-.363q.164.138.293.196a.6.6 0 0 0 .267.062.4.4 0 0 0 .267-.088c.07-.057.1-.135.1-.232a.34.34 0 0 0-.083-.231 1.3 1.3 0 0 0-.136-.127 8 8 0 0 0-.223-.166q-.104-.073-.2-.153a2 2 0 0 1-.18-.167 1 1 0 0 1-.131-.196.6.6 0 0 1-.048-.25.64.64 0 0 1 .249-.52.9.9 0 0 1 .28-.144q.164-.053.354-.053.204 0 .394.053.19.052.354.157l-.206.328a.76.76 0 0 0-.437-.144.37.37 0 0 0-.232.074.22.22 0 0 0-.092.184c0 .07.027.13.08.188q.077.085.279.236.196.146.328.258.131.109.206.206a.5.5 0 0 1 .104.196c.031.062.04.136.04.215m2.309-.613q.001-.427-.175-.678a.54.54 0 0 0-.472-.249.58.58 0 0 0-.499.263q-.183.264-.184.712c0 .293.062.52.18.691.122.167.284.25.498.25a.47.47 0 0 0 .31-.096.7.7 0 0 0 .202-.245c.053-.101.088-.206.11-.324.017-.114.03-.223.03-.324m.73-.03q.002.307-.096.564c-.061.17-.149.324-.262.45a1.3 1.3 0 0 1-.398.302 1.2 1.2 0 0 1-.722.083.8.8 0 0 1-.197-.07 1 1 0 0 1-.183-.127 2 2 0 0 1-.193-.192v1.653h-.673v-3.91h.669l.004.38a1.2 1.2 0 0 1 .398-.336q.217-.105.499-.105a1.1 1.1 0 0 1 .835.363c.1.114.184.254.236.411q.081.244.083.534m.298-2.467h.686v3.831h-.686zm2.939 3.831v-.35a1.25 1.25 0 0 1-.407.315q-.21.098-.485.096-.31.001-.52-.122a.7.7 0 0 1-.307-.363.6.6 0 0 1-.04-.118c-.008-.044-.017-.088-.021-.144a1 1 0 0 1-.013-.184c0-.07-.005-.153-.005-.258V7.564h.687V9.06q-.001.196.017.301.02.104.066.188c.079.15.223.22.424.22q.388-.001.534-.325a.6.6 0 0 0 .052-.183 2 2 0 0 0 .018-.289V7.564h.686v2.61h-.686zm2.97-1.491q0-.197-.018-.302a.6.6 0 0 0-.066-.188c-.079-.144-.223-.219-.424-.219a.66.66 0 0 0-.332.08.48.48 0 0 0-.206.235.7.7 0 0 0-.048.193 2 2 0 0 0-.013.284v1.408h-.696V7.573h.696v.35c.13-.145.266-.254.406-.315q.21-.098.486-.097.309.001.52.127c.14.083.245.206.306.363q.022.06.035.118.014.061.027.14t.013.184c0 .07.004.157.004.258v1.483h-.69zm2.894 1.544-1.04-1.444v1.391h-.691V6.35h.69v2.247h.075l.923-1.067.52.223-.883.949 1.045 1.303zm1.238-.127V9.65l1.614-.8-1.614-.787v-.468l2.086 1.05v.423zM15.775 6.921c.127 0 .232.105.232.236a.232.232 0 1 1-.464 0c0-.135.105-.236.232-.236m0 .035a.19.19 0 0 0-.188.197c0 .11.083.197.188.197a.19.19 0 0 0 .188-.197.19.19 0 0 0-.188-.197m-.043.332h-.044v-.262c.022-.004.043-.004.074-.004q.059 0 .083.021c.018.014.022.031.022.053 0 .035-.022.057-.052.066.021.004.039.026.043.065.005.04.013.057.018.066h-.044a.2.2 0 0 1-.017-.066c-.005-.035-.022-.044-.057-.044h-.03v.105zm0-.144h.03c.035 0 .066-.013.066-.044 0-.022-.018-.043-.066-.043h-.03z"/></g><defs><clipPath id="a"><path fill="#fff" d="M0 0h18v18H0z"/></clipPath></defs></g></svg>