<svg xmlns="http://www.w3.org/2000/svg" fill="none" viewBox="0 0 22 22" shape-rendering="geometricPrecision"><rect width="22" height="22" rx="3" ry="3" fill="#000000"/><g transform="translate(11, 11) scale(0.7) translate(-11, -11)"><path fill="#fff" d="M2.684 11.56a.87.87 0 0 1-.342.694q-.162.129-.38.193-.216.071-.48.07-.314 0-.562-.086a1.7 1.7 0 0 1-.497-.284l.272-.443q.2.168.359.24a.7.7 0 0 0 .326.075.5.5 0 0 0 .326-.107.34.34 0 0 0 .123-.283.4.4 0 0 0-.102-.284 2 2 0 0 0-.166-.155 9 9 0 0 0-.272-.203q-.127-.089-.246-.187a2 2 0 0 1-.22-.203 1.2 1.2 0 0 1-.16-.24.7.7 0 0 1-.058-.305.78.78 0 0 1 .304-.636q.143-.112.342-.177t.433-.064a1.8 1.8 0 0 1 .481.064q.233.064.433.193l-.25.4a.93.93 0 0 0-.535-.176.45.45 0 0 0-.284.091.27.27 0 0 0-.112.225q0 .126.096.23.095.104.342.288.24.178.401.316c.107.09.193.17.251.25q.097.121.129.241a.6.6 0 0 1 .048.262m2.822-.749q.001-.523-.214-.829a.66.66 0 0 0-.577-.304.7.7 0 0 0-.61.32c-.149.214-.224.508-.224.872 0 .358.075.636.22.844a.71.71 0 0 0 .609.305.57.57 0 0 0 .38-.118.9.9 0 0 0 .245-.299c.064-.123.107-.251.134-.396.021-.138.037-.272.037-.395m.893-.037q.001.375-.118.69a1.7 1.7 0 0 1-.32.55q-.208.232-.487.369a1.45 1.45 0 0 1-.882.101 1 1 0 0 1-.24-.085 1.2 1.2 0 0 1-.225-.155 2.4 2.4 0 0 1-.235-.236v2.02h-.823V9.25h.817l.006.465q.223-.282.486-.411a1.4 1.4 0 0 1 .61-.129 1.34 1.34 0 0 1 1.02.444c.124.139.225.31.29.502.063.198.1.417.1.652m.363-3.015h.84v4.682h-.84zm3.592 4.682v-.427c-.16.176-.326.31-.497.385q-.256.119-.593.117-.378.001-.636-.15a.85.85 0 0 1-.374-.443 1 1 0 0 1-.049-.145c-.01-.053-.02-.107-.026-.176a1.4 1.4 0 0 1-.016-.224c0-.086-.006-.187-.006-.316V9.245h.84v1.828q-.002.24.021.369.024.126.08.23c.096.181.273.267.519.267q.474-.002.652-.396a.8.8 0 0 0 .064-.224c.01-.086.021-.203.021-.353V9.245h.84v3.19h-.84zm3.63-1.823q.001-.24-.022-.368a.8.8 0 0 0-.08-.23c-.096-.177-.272-.267-.518-.267a.8.8 0 0 0-.407.096.58.58 0 0 0-.25.288.8.8 0 0 0-.06.236 3 3 0 0 0-.016.347v1.721h-.85V9.255h.85v.428c.16-.176.326-.31.497-.385q.258-.119.594-.117.378.001.636.155a.87.87 0 0 1 .417.588l.032.17q.015.098.016.225c0 .086.005.193.005.316v1.812h-.844zm3.538 1.887-1.272-1.764v1.7h-.844V7.76h.844v2.747h.09l1.129-1.304.636.273-1.08 1.16 1.278 1.592zm1.513-.155v-.556l1.972-.978-1.972-.962v-.572l2.55 1.283v.519zM19.28 8.459c.156 0 .284.128.284.289a.283.283 0 1 1-.566 0c0-.166.128-.289.283-.289m0 .043a.234.234 0 0 0-.229.24c0 .134.102.24.23.24s.23-.106.23-.24a.234.234 0 0 0-.23-.24m-.053.406h-.053v-.32c.027-.006.053-.006.09-.006q.072 0 .102.027c.022.016.027.037.027.064 0 .043-.027.07-.064.08.027.005.048.032.053.08.006.048.016.07.022.08h-.054a.3.3 0 0 1-.021-.08c-.005-.043-.027-.053-.07-.053h-.037v.128zm0-.176h.038c.043 0 .08-.016.08-.054 0-.027-.021-.053-.08-.053h-.038z"/></g><rect x="0.3" y="0.3" width="21.4" height="21.4" rx="3" ry="3" fill="none" stroke="var(--cn-comp-avatar-shadow)" stroke-width="0.6"/></svg>