<svg xmlns="http://www.w3.org/2000/svg" fill="none" viewBox="0 0 22 22" shape-rendering="geometricPrecision"><rect width="22" height="22" rx="3" ry="3" fill="#0086FF"/><g transform="translate(11, 11) scale(0.7) translate(-11, -11)"><path fill="#fff" d="M17.184 9.085h-.124a6.14 6.14 0 0 1-.585 4.094 6.15 6.15 0 0 1-1.957 2.205c.426.439.956.764 1.541.945.583.18 1.2.214 1.8.101a3.7 3.7 0 0 0 1.642-.765 3.69 3.69 0 0 0 1.35-3.228 3.56 3.56 0 0 0-.608-1.698 3.75 3.75 0 0 0-1.338-1.215 3.66 3.66 0 0 0-1.755-.439z"/><path fill="#fff" d="M17.06 9.085a6.2 6.2 0 0 0-1.642-3.093 6.1 6.1 0 0 0-3.06-1.699 6.15 6.15 0 0 0-3.486.236A6.16 6.16 0 0 0 6.07 6.622a4.9 4.9 0 0 0-3.487 1.45 4.95 4.95 0 0 0-1.451 3.488c0 1.304.517 2.564 1.451 3.486a4.95 4.95 0 0 0 3.487 1.452h4.938c1.26 0 2.486-.383 3.52-1.114a3.67 3.67 0 0 1-.978-1.867 3.73 3.73 0 0 1 .202-2.103A3.8 3.8 0 0 1 15.07 9.76a3.64 3.64 0 0 1 2.003-.664z"/></g><rect x="0.3" y="0.3" width="21.4" height="21.4" rx="3" ry="3" fill="none" stroke="var(--cn-comp-avatar-shadow)" stroke-width="0.6"/></svg>