<svg xmlns="http://www.w3.org/2000/svg" fill="none" viewBox="0 0 22 22" shape-rendering="geometricPrecision"><rect width="22" height="22" rx="3" ry="3" fill="#F6F6F7"/><g transform="translate(11, 11) scale(0.7) translate(-11, -11)"><path fill="#000" d="M9.941 15.722c0-.427-.133-.79-.318-1.032-.185-.24-.394-.335-.575-.335s-.39.095-.575.335c-.186.242-.319.605-.319 1.032 0 .426.133.788.319 1.03.184.24.394.335.575.335s.39-.094.575-.335.318-.604.318-1.03m2.508-2.051a.66.66 0 0 1 1.32 0v3.469h1.648a.66.66 0 0 1 0 1.32h-2.308a.66.66 0 0 1-.66-.66zm-9.403-.464c.667-.32 1.539-.312 2.49.27a.66.66 0 0 1-.687 1.127c-.624-.381-1.023-.307-1.233-.206a.75.75 0 0 0-.247.189q.041.034.106.078.152.1.354.209c.122.067.278.148.4.22.239.14.607.35.912.59.153.12.317.269.448.443.128.17.263.42.264.73 0 .206-.072.383-.141.508a1.7 1.7 0 0 1-.27.356c-.206.209-.483.398-.801.53-.652.27-1.53.314-2.368-.27a.66.66 0 0 1 .756-1.083c.407.285.8.26 1.108.133.133-.055.242-.128.32-.196a2 2 0 0 0-.133-.114c-.218-.172-.5-.334-.762-.489-.1-.058-.211-.116-.364-.199a6 6 0 0 1-.46-.272 2.2 2.2 0 0 1-.462-.402 1.2 1.2 0 0 1-.278-.62l-.007-.117.007-.116c.031-.268.163-.515.304-.7a2.06 2.06 0 0 1 .744-.599M2.003 11V2.07c0-.679.55-1.23 1.23-1.23h8.301a.66.66 0 0 1 0 1.32H3.322V11a.66.66 0 0 1-1.32 0M20.68 8.06c0-.546-.127-.911-.283-1.16a1.53 1.53 0 0 0-.588-.544 2.2 2.2 0 0 0-.905-.248h-4.638l1.87 1.804a.66.66 0 0 1-.915.95l-3.048-2.938a.66.66 0 0 1-.017-.934l3.048-3.157a.66.66 0 0 1 .95.917l-1.969 2.038h4.723l.01.001h.034l.104.007a3.514 3.514 0 0 1 1.376.397c.386.207.786.526 1.087 1.01S22 7.3 22 8.06c0 1.691-.723 2.646-1.538 3.137a3.3 3.3 0 0 1-1.54.462h-.717a.66.66 0 0 1 0-1.32h.697l.048-.003a1.98 1.98 0 0 0 .83-.27c.404-.243.9-.76.9-2.006m-2.158 11.87c0 .679-.55 1.23-1.23 1.23H8.121a.66.66 0 0 1 0-1.32h9.081v-6.17a.66.66 0 0 1 1.32 0zm-7.261-4.208c0 .586-.157 1.141-.433 1.596.087.061.173.126.241.192.122.115.234.261.302.355q.058.08.092.131l.027.04.008.013.003.004a.661.661 0 0 1-1.024.823l-.083-.105-.004-.006-.019-.028-.066-.093a2 2 0 0 0-.147-.18 2.5 2.5 0 0 0-.34-.226 1.9 1.9 0 0 1-.771.17c-.677 0-1.245-.36-1.622-.852s-.592-1.143-.592-1.834.215-1.343.592-1.834.945-.852 1.622-.852 1.244.36 1.622.852c.377.491.592 1.142.592 1.834"/></g><rect x="0.3" y="0.3" width="21.4" height="21.4" rx="3" ry="3" fill="none" stroke="var(--cn-comp-avatar-shadow)" stroke-width="0.6"/></svg>