<svg xmlns="http://www.w3.org/2000/svg" fill="none" viewBox="0 0 22 22" shape-rendering="geometricPrecision"><rect width="22" height="22" rx="3" ry="3" fill="#000099"/><g transform="translate(11, 11) scale(0.7) translate(-11, -11)"><path fill="#fff" fill-rule="evenodd" d="M17.179 12.204c1.729 0 3.108.957 3.678 2.446v3.237c-.552 1.508-1.931 2.446-3.678 2.446s-3.146-.956-3.698-2.464v-3.2c.57-1.527 1.95-2.465 3.698-2.465m0 1.637c-.883 0-1.527.497-1.82 1.306v2.243c.312.81.974 1.287 1.82 1.287.864 0 1.507-.477 1.801-1.287v-2.244c-.312-.808-.937-1.305-1.801-1.305" clip-rule="evenodd"/><path fill="#fff" d="M9.509 12.223c1.655 0 2.575.974 2.575 2.556v5.334h-1.95v-4.745c0-.901-.368-1.472-1.214-1.472-.845 0-1.341.626-1.341 1.508v4.69h-1.95V15.35c0-.975-.405-1.472-1.214-1.472-.864 0-1.343.625-1.343 1.508v4.69H1.141V12.48h1.802v.846c.442-.736 1.178-1.104 2.171-1.104.975 0 1.71.405 2.114 1.122.515-.754 1.288-1.121 2.281-1.121M4.673 1.667c1.324 0 2.225.313 3.291 1.196L6.916 4.13c-.883-.717-1.453-.9-2.28-.9-.589 0-1.011.183-1.195.459v.589c.11.128.312.239.57.312.22.037.588.148 1.122.258 1.563.35 2.409.735 2.776 1.452v1.932c-.423.956-1.526 1.544-3.07 1.545-1.454 0-2.484-.369-3.698-1.436l1.086-1.268c.552.46.993.754 1.38.901.385.165.808.258 1.231.24.589 0 1.048-.166 1.232-.46v-.663c-.128-.202-.387-.312-.662-.404-.221-.037-.57-.13-1.122-.258-1.508-.33-2.262-.699-2.593-1.342V3.175c.423-.882 1.472-1.508 2.98-1.508M16.075 6.715c0 .79.423 1.27 1.27 1.27.974 0 1.562-.553 1.562-1.583V1.805h1.95v7.632h-1.784V8.61c-.405.662-1.14 1.029-2.244 1.029-1.802 0-2.703-.937-2.703-2.427V1.805h1.949z"/></g><rect x="0.3" y="0.3" width="21.4" height="21.4" rx="3" ry="3" fill="none" stroke="var(--cn-comp-avatar-shadow)" stroke-width="0.6"/></svg>