<svg xmlns="http://www.w3.org/2000/svg" fill="none" viewBox="0 0 18 18"><rect width="100%" height="100%" rx="2px" ry="2px" fill="#000099"/><g transform="translate(9, 9) scale(0.5625) translate(-9, -9)"><path fill="#fff" fill-rule="evenodd" d="M14.056 9.985c1.414 0 2.542.783 3.009 2.002v2.648c-.452 1.233-1.58 2-3.01 2s-2.573-.781-3.025-2.015v-2.618c.467-1.25 1.596-2.017 3.026-2.017m0 1.34c-.723 0-1.25.406-1.49 1.068v1.836c.255.662.797 1.053 1.49 1.053.707 0 1.233-.392 1.473-1.053v-1.836c-.255-.662-.767-1.068-1.473-1.068" clip-rule="evenodd"/><path fill="#fff" d="M7.78 10c1.354 0 2.107.798 2.107 2.092v4.364H8.292v-3.882c0-.738-.301-1.204-.994-1.204-.692 0-1.097.511-1.097 1.234v3.837H4.605v-3.882c0-.798-.33-1.204-.993-1.204-.707 0-1.098.511-1.098 1.234v3.837H.934V10.21h1.474v.692C2.77 10.3 3.372 10 4.184 10c.798 0 1.4.331 1.73.918C6.335 10.3 6.968 10 7.78 10M3.823 1.364c1.083 0 1.82.256 2.693.978L5.658 3.38c-.722-.586-1.188-.737-1.866-.737-.48 0-.826.15-.977.376v.482c.09.105.256.195.466.255.18.03.482.121.918.211 1.28.286 1.971.602 2.272 1.189v1.58C6.125 7.518 5.222 8 3.96 8 2.769 8 1.927 7.698.933 6.826l.889-1.038c.451.376.813.617 1.128.737a2.3 2.3 0 0 0 1.009.196c.48 0 .857-.136 1.008-.376v-.542c-.106-.166-.317-.256-.543-.33-.18-.031-.466-.107-.917-.212-1.234-.27-1.851-.572-2.122-1.099V2.598c.346-.722 1.204-1.234 2.438-1.234M13.152 5.494c0 .647.347 1.039 1.039 1.039.797 0 1.279-.452 1.279-1.295V1.477h1.595V7.72h-1.46v-.677c-.331.542-.933.842-1.836.842-1.474 0-2.211-.766-2.211-1.985V1.477h1.594z"/></g></svg>