<svg xmlns="http://www.w3.org/2000/svg" fill="none" viewBox="0 0 22 22"><rect width="100%" height="100%" rx="2px" ry="2px" fill="#bdf78b"/><g transform="translate(11, 11) scale(0.625) translate(-11, -11)"><path fill="#131314" d="M3.235 11.896a1.15 1.15 0 0 1-.438.974c-.317.223-.7.333-1.086.312A2.7 2.7 0 0 1 0 12.58l.484-.744q.654.476 1.257.476.475 0 .476-.297V12q0-.164-.246-.276-.09-.036-.58-.185Q.2 11.189.2 10.34v-.015a1.15 1.15 0 0 1 .431-.937 1.57 1.57 0 0 1 1.027-.327 2.6 2.6 0 0 1 1.487.46l-.431.782q-.633-.372-1.079-.372-.416 0-.416.275v.015q0 .15.245.268.097.045.566.208c.288.086.562.216.81.387a.97.97 0 0 1 .394.796zm2.75 1.309q-.23.617-.514.862a1.2 1.2 0 0 1-.795.253c-.354.001-.701-.094-1.005-.275l.38-.818a.95.95 0 0 0 .483.156.42.42 0 0 0 .394-.26L3.367 9.12h1.197l.907 2.715.87-2.715h1.176zm4.717-1.31a1.15 1.15 0 0 1-.44.975c-.316.223-.698.333-1.085.312a2.7 2.7 0 0 1-1.71-.602l.483-.744q.654.476 1.257.476.476 0 .476-.297V12q0-.164-.246-.276-.09-.036-.58-.185-1.19-.35-1.19-1.198v-.015A1.15 1.15 0 0 1 8.1 9.39a1.57 1.57 0 0 1 1.026-.327 2.6 2.6 0 0 1 1.487.46l-.431.782q-.633-.372-1.078-.372-.417 0-.417.275v.015q0 .15.246.268.096.045.565.208c.289.086.562.216.81.387a.97.97 0 0 1 .395.796zm3.45 1.213v-.35a1.8 1.8 0 0 1-1.243.424 1.69 1.69 0 0 1-1.257-.528q-.557-.58-.557-1.532v-.015q0-.952.55-1.532a1.7 1.7 0 0 1 1.264-.528c.444-.016.88.115 1.242.372v-1.74h1.13v5.429zm.014-2a1.14 1.14 0 0 0-.282-.797.89.89 0 0 0-.685-.305.9.9 0 0 0-.684.298c-.197.22-.302.508-.29.803v.015c-.01.293.093.579.29.796a.92.92 0 0 0 1.369 0c.192-.22.293-.504.282-.796zm1.8-2.426V7.678h1.19v1.004zm.03 4.426V9.12h1.13v3.987zm6.004-.9q0 1.108-.558 1.614-.535.49-1.666.49a3.7 3.7 0 0 1-1.763-.416l.387-.922c.41.237.874.363 1.346.364q1.138 0 1.138-.937v-.044a2.03 2.03 0 0 1-1.301.424 1.71 1.71 0 0 1-1.647-1.116 1.8 1.8 0 0 1-.123-.744v-.015a1.82 1.82 0 0 1 .543-1.376 1.7 1.7 0 0 1 1.227-.483c.457-.012.906.118 1.287.372V9.12H22zm-1.116-1.302a.86.86 0 0 0-.282-.662 1.05 1.05 0 0 0-1.384 0 .87.87 0 0 0-.275.662v.015a.88.88 0 0 0 .275.67.98.98 0 0 0 .692.252.97.97 0 0 0 .692-.26.86.86 0 0 0 .282-.662z"/></g></svg>