<svg xmlns="http://www.w3.org/2000/svg" fill="none" viewBox="0 0 20 20"><rect width="100%" height="100%" rx="2px" ry="2px" fill="#bdf78b"/><g transform="translate(10, 10) scale(0.625) translate(-10, -10)"><path fill="#131314" d="M2.941 10.814a1.05 1.05 0 0 1-.399.886 1.57 1.57 0 0 1-.987.284A2.46 2.46 0 0 1 0 11.436l.44-.676q.594.433 1.142.433.433 0 .433-.27v-.014q0-.15-.223-.25a9 9 0 0 0-.528-.17Q.184 10.173.183 9.402v-.014a1.04 1.04 0 0 1 .392-.852 1.43 1.43 0 0 1 .933-.297c.483-.001.955.145 1.352.42l-.392.71q-.575-.339-.98-.339-.38 0-.38.25v.014q0 .135.224.243.088.04.514.19c.262.077.511.196.737.351a.89.89 0 0 1 .358.724zm2.5 1.19q-.21.561-.467.785a1.08 1.08 0 0 1-.723.23 1.77 1.77 0 0 1-.913-.25l.345-.745c.13.087.282.136.439.142a.38.38 0 0 0 .358-.236L3.06 8.292h1.09l.824 2.468.791-2.468h1.068zm4.288-1.19a1.05 1.05 0 0 1-.4.886 1.57 1.57 0 0 1-.986.284 2.46 2.46 0 0 1-1.555-.548l.439-.676q.596.433 1.143.433.432 0 .432-.27v-.014q0-.15-.223-.25a9 9 0 0 0-.527-.17Q6.97 10.173 6.97 9.402v-.014a1.04 1.04 0 0 1 .392-.852 1.43 1.43 0 0 1 .933-.297c.483-.001.955.145 1.353.42l-.393.71q-.575-.339-.98-.339-.379 0-.379.25v.014q0 .135.224.243.088.04.513.19c.263.077.512.196.737.351a.89.89 0 0 1 .359.724zm3.136 1.102v-.318a1.64 1.64 0 0 1-1.13.386 1.53 1.53 0 0 1-1.142-.48q-.507-.528-.507-1.393v-.014q0-.865.5-1.392a1.54 1.54 0 0 1 1.15-.48c.403-.015.8.104 1.129.338V6.98h1.028v4.936zm.013-1.819a1.04 1.04 0 0 0-.257-.723.8.8 0 0 0-.622-.277.81.81 0 0 0-.622.27c-.18.2-.274.462-.263.73v.014c-.01.266.084.526.263.723a.835.835 0 0 0 1.244 0c.175-.199.267-.458.257-.723zm1.637-2.204V6.98h1.082v.913zm.027 4.023V8.292h1.028v3.624zM20 11.098q0 1.007-.507 1.467-.487.447-1.515.447a3.4 3.4 0 0 1-1.602-.379l.351-.838c.372.215.794.33 1.224.33q1.035 0 1.035-.851v-.04a1.85 1.85 0 0 1-1.184.385 1.55 1.55 0 0 1-1.497-1.014 1.7 1.7 0 0 1-.112-.677v-.013a1.65 1.65 0 0 1 .494-1.251 1.54 1.54 0 0 1 1.115-.44 2 2 0 0 1 1.17.339v-.27H20zm-1.014-1.183a.78.78 0 0 0-.257-.602.96.96 0 0 0-1.258 0 .8.8 0 0 0-.25.602v.013a.8.8 0 0 0 .25.609.9.9 0 0 0 .629.23.88.88 0 0 0 .823-.51.8.8 0 0 0 .063-.329z"/></g></svg>