<svg xmlns="http://www.w3.org/2000/svg" fill="none" viewBox="0 0 18 18"><rect width="100%" height="100%" rx="2px" ry="2px" fill="#238FCF"/><g transform="translate(9, 9) scale(0.5625) translate(-9, -9)"><g fill="#fff" clip-path="url(#a)"><path d="M11.79 15.972H6.3a.7.7 0 0 1-.558-.267l-3.486-4.362a.71.71 0 0 1-.135-.618l1.326-5.34a.73.73 0 0 1 .375-.468l4.914-2.463a.72.72 0 0 1 .636 0l4.977 2.466a.7.7 0 0 1 .378.474l1.266 5.34a.71.71 0 0 1-.138.6l-3.51 4.374a.71.71 0 0 1-.555.264m-5.49-.735h5.478l3.495-4.347-1.26-5.319-4.956-2.454-4.896 2.454-1.323 5.322zM15.366 3.936l.624-.513L9.423.171v.822zM.96 11.577l-.801.177 4.581 5.748.36-.729zM8.685.996V.174l-6.48 3.249.606.522zM2.373 4.539l-.624-.537L0 11.034l.804-.177zM17.313 10.86l.801.177-1.665-7.035-.636.522zM17.148 11.577l-4.185 5.205.357.729 4.629-5.757zM5.763 17.091l-.36.738h7.251l-.36-.738z"/></g><defs><clipPath id="a"><path fill="#fff" d="M0 0h18v18H0z"/></clipPath></defs></g></svg>