<svg xmlns="http://www.w3.org/2000/svg" fill="none" viewBox="0 0 20 20"><rect width="100%" height="100%" rx="2px" ry="2px" fill="#238FCF" stroke="var(--cn-comp-avatar-shadow)" stroke-width="0.6"/><g transform="translate(10, 10) scale(0.625) translate(-10, -10)"><g fill="#fff" clip-path="url(#a)"><path d="M13.1 17.747H7a.78.78 0 0 1-.62-.297l-3.873-4.847a.8.8 0 0 1-.15-.686L3.83 5.983a.8.8 0 0 1 .417-.52l5.46-2.736a.8.8 0 0 1 .706 0l5.53 2.74a.78.78 0 0 1 .42.526l1.407 5.934a.8.8 0 0 1-.153.666l-3.9 4.86a.79.79 0 0 1-.617.294M7 16.93h6.087l3.883-4.83-1.4-5.91-5.507-2.727-5.44 2.727-1.47 5.913zM17.073 4.373l.694-.57L10.47.19v.913zM1.067 12.863l-.89.197 5.09 6.387.4-.81zM9.65 1.107V.193l-7.2 3.61.673.58zM2.637 5.043l-.694-.596L0 12.26l.893-.197zM19.237 12.067l.89.196-1.85-7.816-.707.58zM19.053 12.863l-4.65 5.784.397.81 5.143-6.397zM6.403 18.99l-.4.82h8.057l-.4-.82z"/></g><defs><clipPath id="a"><path fill="#fff" d="M0 0h20v20H0z"/></clipPath></defs></g></svg>