<svg xmlns="http://www.w3.org/2000/svg" fill="none" viewBox="0 0 22 22" shape-rendering="geometricPrecision"><rect width="22" height="22" rx="3" ry="3" fill="#238FCF"/><g transform="translate(11, 11) scale(0.7) translate(-11, -11)"><g fill="#fff" clip-path="url(#a)"><path d="M14.41 19.521H7.7a.86.86 0 0 1-.682-.326l-4.26-5.331a.87.87 0 0 1-.166-.756l1.621-6.526a.89.89 0 0 1 .458-.572L10.677 3a.88.88 0 0 1 .778 0l6.083 3.013a.86.86 0 0 1 .462.58l1.547 6.526a.87.87 0 0 1-.169.734l-4.29 5.346a.87.87 0 0 1-.678.322m-6.71-.898h6.695l4.272-5.313-1.54-6.501-6.057-3-5.984 3-1.617 6.505zM18.78 4.81l.763-.626L11.517.209v1.005zM1.173 14.15l-.979.216 5.6 7.025.44-.89zM10.615 1.217V.213l-7.92 3.97.74.639zM2.9 5.548l-.762-.657L0 13.486l.983-.216zM21.16 13.273l.98.217-2.036-8.599-.777.638zM20.959 14.15l-5.115 6.361.436.891 5.658-7.036zM7.044 20.889l-.44.902h8.862l-.44-.902z"/></g><defs><clipPath id="a"><path fill="#fff" d="M0 0h22v22H0z"/></clipPath></defs></g><rect x="0.3" y="0.3" width="21.4" height="21.4" rx="3" ry="3" fill="none" stroke="var(--cn-comp-avatar-shadow)" stroke-width="0.6"/></svg>