<svg xmlns="http://www.w3.org/2000/svg" fill="none" viewBox="0 0 20 20"><rect width="100%" height="100%" rx="2px" ry="2px" fill="#F6F6F7"/><g transform="translate(10, 10) scale(0.625) translate(-10, -10)"><path fill="#131314" d="M6.852 13.688a.601.601 0 0 1 0 1.2c-.329 0-.645.16-1 .514-.31.31-.599.716-.91 1.179.153.448.295.82.48 1.098.198.295.398.421.696.421a.6.6 0 1 1 0 1.2c-.805 0-1.34-.425-1.695-.956a4 4 0 0 1-.306-.567c-.177.234-.364.46-.563.658-.472.472-1.075.866-1.848.866a.6.6 0 0 1 0-1.2c.329 0 .645-.16 1-.514.31-.31.598-.718.91-1.182-.153-.447-.294-.816-.479-1.094-.197-.296-.398-.422-.696-.422a.6.6 0 0 1 0-1.2c.805 0 1.34.425 1.694.956.117.175.217.367.307.566.177-.234.363-.46.562-.658.471-.471 1.075-.865 1.848-.865m10.325 4.375c0 .616-.498 1.114-1.114 1.115h-5.422a.6.6 0 1 1 0-1.2h5.336V6.031h-2.891c-.616 0-1.115-.5-1.115-1.115V2.02H3.453V10a.6.6 0 0 1-1.2 0V1.936c0-.615.5-1.114 1.115-1.114h9.994c.296 0 .579.117.788.326l2.701 2.701.074.081c.163.199.252.449.252.708z"/></g></svg>