<svg xmlns="http://www.w3.org/2000/svg" fill="none" viewBox="0 0 22 22" shape-rendering="geometricPrecision"><rect width="22" height="22" rx="3" ry="3" fill="#F6F6F7"/><g transform="translate(11, 11) scale(0.7) translate(-11, -11)"><path fill="#0F1013" d="M7.537 15.057a.661.661 0 0 1 0 1.32c-.362 0-.71.175-1.1.565-.34.34-.658.788-1 1.297.168.493.324.902.528 1.207.217.326.437.464.765.464a.66.66 0 1 1 0 1.32c-.886 0-1.475-.468-1.864-1.052a4.4 4.4 0 0 1-.338-.623c-.194.258-.4.505-.618.724-.52.519-1.183.952-2.034.952a.66.66 0 0 1 0-1.32c.362 0 .71-.175 1.1-.566.341-.34.658-.79 1.001-1.3-.167-.49-.323-.898-.526-1.203-.217-.325-.438-.465-.766-.465a.66.66 0 0 1 0-1.32c.886 0 1.474.469 1.864 1.053.128.192.238.403.337.622.195-.257.4-.505.618-.723.519-.52 1.183-.952 2.033-.952m11.358 4.813c0 .677-.549 1.225-1.226 1.225h-5.964a.66.66 0 1 1 0-1.32h5.87V6.635h-3.18c-.678 0-1.227-.55-1.227-1.227V2.223h-9.37V11a.66.66 0 0 1-1.32 0V2.13c0-.677.55-1.226 1.227-1.226h10.993c.325 0 .637.13.867.36l2.971 2.97.082.09c.179.218.277.493.277.777z"/></g><rect x="0.3" y="0.3" width="21.4" height="21.4" rx="3" ry="3" fill="none" stroke="var(--cn-comp-avatar-shadow)" stroke-width="0.6"/></svg>