<svg xmlns="http://www.w3.org/2000/svg" fill="none" viewBox="0 0 22 22"><rect width="100%" height="100%" rx="2px" ry="2px" fill="#F6F6F7"/><g transform="translate(11, 11) scale(0.625) translate(-11, -11)"><path fill="#131314" d="M12.097 13.19c.664-.318 1.532-.31 2.48.268a.66.66 0 0 1-.69 1.127c-.618-.379-1.013-.304-1.22-.205a.7.7 0 0 0-.241.183q.04.033.102.075c.1.068.22.135.352.207.121.067.275.148.398.22.236.138.602.348.905.586.153.12.316.268.446.442.127.17.263.418.263.727 0 .206-.07.382-.14.507-.072.131-.167.25-.27.354-.204.209-.48.398-.796.529a2.42 2.42 0 0 1-2.357-.27.66.66 0 0 1 .756-1.082c.403.281.79.258 1.096.132a1.2 1.2 0 0 0 .313-.192 2 2 0 0 0-.127-.11c-.217-.17-.496-.331-.758-.485-.098-.057-.21-.115-.36-.197a6 6 0 0 1-.457-.272c-.15-.1-.322-.232-.46-.399a1.18 1.18 0 0 1-.278-.62l-.007-.115.007-.117c.03-.267.163-.513.303-.697.175-.229.424-.444.74-.596m-9.613 4.442V14.45h-.86a.66.66 0 0 1 0-1.32H4.55a.66.66 0 1 1 0 1.32h-.747v3.182a.66.66 0 1 1-1.32 0m5.236-4.526a.66.66 0 0 1 .545.36l1.953 3.853a.66.66 0 1 1-1.177.597l-.175-.346H6.469l-.175.346a.66.66 0 0 1-1.177-.597l1.953-3.854a.66.66 0 0 1 .544-.359h.106m-.582 3.144h1.059l-.53-1.046zm11.798 3.624c0 .677-.549 1.227-1.226 1.227H8.596a.661.661 0 0 1 0-1.32h9.02V6.614h-3.184a1.226 1.226 0 0 1-1.225-1.226V2.22H3.83V11a.66.66 0 1 1-1.32 0V2.127c0-.677.55-1.226 1.226-1.226h11c.285 0 .559.099.777.277l.09.082 2.973 2.972.081.09c.179.219.277.493.277.777z"/></g></svg>