<svg xmlns="http://www.w3.org/2000/svg" fill="none" viewBox="0 0 20 20"><rect width="100%" height="100%" rx="2px" ry="2px" fill="#F6F6F7"/><g transform="translate(10, 10) scale(0.625) translate(-10, -10)"><path fill="#131314" d="M10.997 11.991c.604-.29 1.393-.282 2.254.243a.6.6 0 0 1-.626 1.025c-.563-.344-.921-.276-1.11-.186a.7.7 0 0 0-.219.166q.037.03.093.068.138.091.32.189c.11.06.25.134.361.2.216.125.548.316.824.532.138.11.287.244.405.402.116.154.24.38.24.66a.96.96 0 0 1-.128.462c-.066.119-.152.227-.245.322-.186.19-.436.361-.724.48a2.2 2.2 0 0 1-2.143-.245.6.6 0 0 1 .688-.984 1 1 0 0 0 .996.12c.118-.049.215-.114.284-.174a2 2 0 0 0-.115-.1c-.198-.154-.45-.301-.689-.44-.09-.053-.19-.105-.328-.18a5 5 0 0 1-.415-.248 2 2 0 0 1-.419-.362 1.07 1.07 0 0 1-.252-.563l-.006-.106.006-.105c.028-.243.148-.467.275-.634.16-.208.386-.404.673-.542m-8.739 4.038v-2.892h-.781a.6.6 0 0 1 0-1.2h2.659a.6.6 0 0 1 0 1.2h-.679v2.892a.6.6 0 1 1-1.199 0m4.76-4.114c.204.013.397.13.496.326l1.775 3.504a.6.6 0 1 1-1.07.542l-.16-.314H5.882l-.16.314a.6.6 0 0 1-1.07-.542l1.776-3.504c.1-.196.29-.312.495-.326q.024-.001.048-.001zm-.529 2.857h.962l-.481-.95zm10.725 3.295c0 .616-.499 1.115-1.114 1.115H7.815a.601.601 0 0 1 0-1.2h8.2V6.012H13.12a1.114 1.114 0 0 1-1.114-1.114v-2.88H3.483V10a.6.6 0 1 1-1.2 0V1.932c0-.615.5-1.114 1.115-1.114h10c.258 0 .507.09.706.252l.082.074 2.702 2.702.074.083c.163.198.252.447.252.706z"/></g></svg>