<svg xmlns="http://www.w3.org/2000/svg" fill="none" viewBox="0 0 20 20"><rect width="100%" height="100%" rx="2px" ry="2px" fill="#01A6B4" stroke="var(--cn-comp-avatar-shadow)" stroke-width="0.6"/><g transform="translate(10, 10) scale(0.625) translate(-10, -10)"><g clip-path="url(#a)"><path fill="#fff" fill-rule="evenodd" d="m7.611 1.014.12.018L15.89 2.52q.254.046.48.154c.284.126.525.324.695.572q.14.193.223.42l2.615 7.248q.084.241.092.49l.001.06q.002.053 0 .104a1.5 1.5 0 0 1-.13.546c-.065.152-.15.298-.26.429l-.079.089-5.533 5.793a1.8 1.8 0 0 1-.297.249c-.293.21-.654.327-1.025.327l-.027-.002-.026.002q-.18-.001-.347-.031h-.002L4.11 17.48a2 2 0 0 1-.456-.143 1.64 1.64 0 0 1-.753-.634 1.7 1.7 0 0 1-.144-.259l-.044-.11L.097 9.088a1.64 1.64 0 0 1-.082-.776l.007-.05q.024-.157.082-.308c.08-.213.204-.413.369-.585l5.533-5.793q.101-.104.219-.19l.04-.03q.044-.032.088-.062c.284-.188.623-.29.971-.29q.144-.005.287.01m1.425 16.424 3.412.623a.93.93 0 0 0 .833-.261l.56-.59zM3.625 16.03l.045.1c.12.224.345.39.615.436h.003l.856.157-2.71-3.993zm2.398.286-.134.091.135-.09a.72.72 0 0 0 .632.303l2.06-.098L4.68 14.34zm5.501.075 2.33-.11.094-.01a.68.68 0 0 0 .49-.338l.001-.003.907-1.606zM10 3.923a.5.5 0 0 0-.256.063l-.003.002L4.55 6.794a.46.46 0 0 0-.246.398v5.618c0 .16.089.31.245.397l5.192 2.808a.55.55 0 0 0 .518 0l5.192-2.808a.46.46 0 0 0 .245-.397V7.192c0-.159-.09-.311-.247-.397l-5.19-2.806-.003-.002A.5.5 0 0 0 10 3.924m8.672 6.458h-.001l-2.438 4.325 2.581-2.7.072-.085a.76.76 0 0 0 .104-.703l-.31-.856zM2.18 10.06a.6.6 0 0 0 .026.634l1.127 1.66V8.012zm14.484 1.93 1.157-2.05a.6.6 0 0 0-.027-.635l-1.13-1.665zM1.185 7.997a.76.76 0 0 0-.175.785l.308.855.01-.018.001-.001 2.437-4.322zm16.38-.729-1.19-3.298a.85.85 0 0 0-.66-.536h-.003l-.858-.158zM6.144 3.723a.69.69 0 0 0-.583.346l-.002.004-.905 1.606 3.818-2.066zm5.138-.246 4.035 2.181-1.34-1.975a.73.73 0 0 0-.633-.303zm-3.898-1.55a.93.93 0 0 0-.663.277l-.563.588 4.804-.227-3.407-.623a1 1 0 0 0-.171-.014" clip-rule="evenodd"/></g><defs><clipPath id="a"><path fill="#fff" d="M0 0h20v20H0z"/></clipPath></defs></g></svg>