<svg xmlns="http://www.w3.org/2000/svg" fill="none" viewBox="0 0 22 22" shape-rendering="geometricPrecision"><rect width="22" height="22" rx="3" ry="3" fill="#7d5dff"/><g transform="translate(11, 11) scale(0.7) translate(-11, -11)"><path fill="#fff" d="m18.704 15.683-7.49 4.312v-4.188l3.853-2.218zM10.785 11.124v8.87L3.081 15.56v-8.87zM14.637 13.342l-3.422 1.97v-3.94zM18.704 11l-3.637 2.094L11.431 11l3.636-2.094zM14.637 8.658 11 10.752 7.363 8.658 11 6.565z"/><path fill="#fff" d="M18.704 6.317 15.067 8.41l-3.96-2.28a.22.22 0 0 0-.201-.006l-.013.007-3.96 2.28-3.637-2.094L11 1.88z"/><path fill="#fff" fill-rule="evenodd" d="M20.553 5.5v11L11 22l-9.553-5.5v-11L11 0zm-18.074.594v9.812L11 20.813l8.522-4.907V6.094L11 1.188z" clip-rule="evenodd"/></g><rect x="0.3" y="0.3" width="21.4" height="21.4" rx="3" ry="3" fill="none" stroke="var(--cn-comp-avatar-shadow)" stroke-width="0.6"/></svg>