<svg xmlns="http://www.w3.org/2000/svg" fill="none" viewBox="0 0 22 22"><rect width="100%" height="100%" rx="2px" ry="2px" fill="#B2A4FB"/><g transform="translate(11, 11) scale(0.625) translate(-11, -11)"><path fill="#131314" d="M7.547 10.865c-.02.148.1.528.477.75.098-.08.371-.259.666-.259.424 0 1.276.401 1.45.567l.02.2c-.304-.199-1.06-.649-1.533-.62a1 1 0 0 0-.505.192c.05.037.237.142.592.279.356.136.839.14 1.036.125l-.166.166c.382.02 1.261.023 1.724-.117-.299-.057-.938-.202-1.1-.327v-.234c.24.141.843.426 1.342.438.063 0 .198-.007.236-.024v.067c.133.018.433.043.57 0l-.11-.132.5.03-.02-.04c.25.008.797-.005.977-.114l.133-.072c.25-.129.62-.32.772-.796-.022.25-.222.816-.842 1.081.047.017.168.102.281.308s.178.373.196.43c-.113-.259-.472-.76-1.008-.695-.297-.001-.992.086-1.395.444v-.182l.05-.065h-.104v-.07c-.785.196-2.502.422-3.296-.022-1.043-.585-.99-1.023-.943-1.308M9.065 9.13c.074-.044.087-.04.223.054.324.22.87.446 1.28.523.873.167 1.666.024 2.492-.448.24-.137.297-.158.348-.132.1.054.073.167-.067.271-.166.122-.578.327-.848.425a3.86 3.86 0 0 1-2.424.027c-.27-.086-.743-.315-.93-.452-.14-.1-.169-.214-.074-.267M9.231 8.073c.262-.184.559.206.313.413-.104.09-.173.096-.291.034a.247.247 0 0 1-.122-.313.34.34 0 0 1 .1-.134M12.956 8.03c.234 0 .335.302.15.456-.145.122-.314.087-.397-.088-.042-.086-.04-.11-.002-.203.023-.053.064-.116.097-.133a.4.4 0 0 1 .152-.032"/><path fill="#131314" fill-rule="evenodd" d="M11.166 4.924a1.035 1.035 0 1 1-.001 2.07 1.035 1.035 0 0 1 0-2.07m.035.372c-.169.008-.535.097-.647.39-.113.293.019.604.094.71z" clip-rule="evenodd"/><path fill="#131314" fill-rule="evenodd" d="M9.755 1.198c.594-.08 1.858-.08 2.47 0a9.8 9.8 0 0 1 5.73 2.792 9.4 9.4 0 0 1 1.852 2.54 9.5 9.5 0 0 1 .995 3.246c.044.347.06.632.06 1.223 0 .983-.078 1.642-.295 2.486a10.5 10.5 0 0 1-1.22 2.8 9.88 9.88 0 0 1-7.122 4.514c-.638.083-1.808.083-2.447 0a9.8 9.8 0 0 1-5.729-2.791 9.4 9.4 0 0 1-1.853-2.54 9.5 9.5 0 0 1-.995-3.246c-.083-.638-.083-1.808 0-2.446a9.4 9.4 0 0 1 .615-2.415c.181-.46.564-1.214.84-1.648a9.9 9.9 0 0 1 7.099-4.515m-.982 4.836c.003.027-.022.051-.102.11-.149.103-.343.273-.343.297.001.008.057.015.122.015h.125l-.115.124c-.066.07-.2.235-.298.366-.507.67-.763 1.258-.888 2.042-.044.274-.056.304-.216.535-.472.674-.817 1.292-.96 1.713-.24.719.045 1.494.74 2.008l.234.175.01.113-.009-.11c.885.325 1.66.382 1.939.37a4.16 4.16 0 0 1-1.91-.07c.06.625.195 1.547.237 1.621.01.012.066-.044.131-.13l.117-.158v.238c.003.44.136 1.514.204 1.64.015.026.048.017.122-.04.095-.07.103-.07.124-.023.012.03.063.32.114.647.1.677.16.832.376 1.022a.915.915 0 0 0 1.271-.038c.182-.181.211-.253.398-.969.122-.477.15-.55.2-.546.03.003.175.026.32.053.333.06.565.06.897 0 .146-.027.292-.05.321-.053.048-.003.077.078.208.59.086.327.184.649.217.714.214.4.722.59 1.15.43.21-.08.436-.29.52-.487.032-.07.097-.395.15-.719.05-.326.102-.614.114-.644.02-.047.029-.047.124.024.098.07.104.071.122.018.074-.2.205-1.253.205-1.666v-.194l.11.157q.109.155.13.12c.057-.106.217-1.26.255-1.789l.002-.018c-.334.271-1.258.434-1.721.484.628-.095 1.387-.529 1.745-.77q-.005.013-.007.027c.015-.062.06-.113.196-.248.326-.327.534-.804.537-1.232 0-.407-.27-1.128-.772-2.06l-.199-.372-.065-.448c-.074-.544-.179-.957-.313-1.248a4.5 4.5 0 0 0-.677-.98l-.207-.22h.107c.058 0 .106-.012.107-.026a.8.8 0 0 0-.176-.182l-.087-.077-.047-.054c-.126.316-.566.726-.79.934l-.103.099c-.153.153-.734.382-1.017.39-.283.007-.863-.047-1.245-.1a1.78 1.78 0 0 1-1.093-.58c-.223-.258-.505-.63-.64-.814zm2.208-2.674h-.005a.26.26 0 0 0-.112.1l-.004.008v-.013l-.008.05a.18.18 0 0 1-.082.087.8.8 0 0 1-.158.057 2 2 0 0 0-.867.51v.001a2.2 2.2 0 0 0-.473.679l-.115.293c-.049.143-.082.236-.114.294a.3.3 0 0 1-.064.08.2.2 0 0 1-.043.026l-.04.014a.2.2 0 0 0-.059.029v.001l-.007.01q.005-.009-.001.005l-.01.042a.8.8 0 0 0 .012.294l.003.01.001.002.027.046q.004.01.005.02c.14.189.407.543.621.79l.11.114c.267.25.605.39.923.434.38.053.955.105 1.23.098l.105-.012a2.3 2.3 0 0 0 .417-.122c.097-.037.19-.079.266-.12a.8.8 0 0 0 .16-.107l.107-.101.198-.189a6 6 0 0 0 .228-.232c.14-.152.258-.308.321-.44l-.01-.026a.2.2 0 0 1 0-.086l-.003-.03a.16.16 0 0 0-.052-.082l-.028-.016a.166.166 0 0 1-.124-.095.6.6 0 0 1-.035-.173l-.02-.147c-.123-.731-.555-1.355-1.15-1.654a1.5 1.5 0 0 1-.222-.128.3.3 0 0 1-.062-.069.2.2 0 0 1-.022-.088l-.01-.027-.03-.044a.1.1 0 0 0-.063-.034l-.212-.027-.152-.012-.246-.021a1 1 0 0 0-.097-.002q-.022 0-.034.003m2.658 2.71q.003.009.01.019-.007-.012-.01-.022zm-.155-.286a.2.2 0 0 1 .066.035zm-4.237-1.12.07-.124zm2.927-.941-.126-.069zm-1.714-.126a2 2 0 0 0 .126-.04z" clip-rule="evenodd"/></g></svg>