<svg xmlns="http://www.w3.org/2000/svg" fill="none" viewBox="0 0 18 18"><rect width="100%" height="100%" fill="#B2A4FB"/><g transform="translate(9, 9) scale(0.8) translate(-9, -9)"><path fill="#0F0F11" d="M6.175 8.89c-.017.12.082.431.39.613.08-.065.304-.212.545-.212.347 0 1.044.329 1.187.464l.016.163c-.25-.162-.868-.53-1.255-.506a.83.83 0 0 0-.413.157c.04.03.194.116.485.228.29.111.686.114.847.102l-.135.136c.312.016 1.031.019 1.41-.096-.245-.046-.768-.165-.9-.268v-.19c.196.115.69.348 1.098.358a.8.8 0 0 0 .193-.02v.055c.109.014.354.035.467 0l-.09-.108.408.024-.016-.032c.205.006.652-.005.8-.094l.108-.058c.204-.106.508-.263.632-.652a1.14 1.14 0 0 1-.689.885c.038.013.137.083.23.252s.146.305.16.352c-.092-.212-.386-.622-.824-.57-.243 0-.812.071-1.142.364v-.149l.04-.053h-.084v-.058c-.642.161-2.047.346-2.697-.018-.853-.478-.81-.836-.771-1.07M7.417 7.47c.06-.036.07-.033.182.044.265.18.712.365 1.047.428.715.136 1.364.02 2.04-.366.196-.112.242-.13.284-.108.082.044.06.136-.054.221-.137.1-.474.268-.695.348a3.16 3.16 0 0 1-1.983.022 3.6 3.6 0 0 1-.76-.37c-.115-.082-.139-.175-.06-.218M7.553 6.606c.214-.151.457.167.255.337-.084.073-.14.078-.238.028a.2.2 0 0 1-.1-.256.3.3 0 0 1 .083-.11M10.6 6.57c.192 0 .274.247.124.373-.12.1-.258.071-.326-.072-.034-.07-.033-.09-.002-.166.02-.043.053-.095.08-.11a.3.3 0 0 1 .124-.025"/><path fill="#0F0F11" fill-rule="evenodd" d="M9.136 4.029a.847.847 0 1 1-.001 1.694.847.847 0 0 1 0-1.694m.029.304c-.139.006-.438.08-.53.32-.092.239.015.493.077.58z" clip-rule="evenodd"/><path fill="#0F0F11" fill-rule="evenodd" d="M7.981.98c.486-.065 1.521-.065 2.021 0a8.03 8.03 0 0 1 4.688 2.285 7.7 7.7 0 0 1 1.516 2.077c.44.865.69 1.68.813 2.656.037.285.05.518.05 1.001 0 .804-.064 1.344-.241 2.034a8.6 8.6 0 0 1-.998 2.29 8.08 8.08 0 0 1-5.828 3.695 10 10 0 0 1-2.002 0 8.03 8.03 0 0 1-4.687-2.285 7.7 7.7 0 0 1-1.516-2.077A7.8 7.8 0 0 1 .982 10a10 10 0 0 1 0-2.002 7.7 7.7 0 0 1 .504-1.976c.148-.376.461-.993.687-1.348A8.1 8.1 0 0 1 7.981.981m-.803 3.957c.003.022-.018.042-.084.09-.121.084-.28.223-.28.243 0 .007.047.012.1.012h.102l-.094.101a5 5 0 0 0-.244.3c-.415.549-.624 1.03-.726 1.671-.037.224-.046.248-.177.438-.387.551-.669 1.056-.786 1.401-.196.588.037 1.223.605 1.643l.192.143.009.092-.008-.089c.724.266 1.358.312 1.586.302a3.4 3.4 0 0 1-1.562-.057c.05.511.159 1.266.194 1.326.007.01.053-.036.107-.106l.095-.129v.194c.003.36.112 1.239.167 1.342.013.022.04.014.1-.032.078-.058.085-.058.102-.02.01.025.051.263.093.53.082.554.13.681.308.837a.75.75 0 0 0 1.04-.032c.148-.148.173-.207.326-.792.099-.39.121-.45.162-.448.025.003.144.022.263.044.272.049.462.049.734 0a6 6 0 0 1 .262-.044c.04-.002.063.064.17.484.07.267.151.53.178.584.175.327.59.483.94.351a.83.83 0 0 0 .426-.398c.026-.058.08-.323.123-.588.041-.267.083-.503.093-.527.017-.039.024-.04.101.02.08.057.086.057.1.014.061-.163.168-1.025.168-1.363v-.159l.09.13q.089.126.106.096c.047-.086.178-1.03.21-1.463v-.014c-.273.221-1.028.354-1.407.395.513-.077 1.135-.432 1.428-.63q-.005.01-.007.023c.013-.052.05-.093.16-.203.268-.268.438-.658.44-1.008 0-.333-.22-.924-.631-1.686l-.163-.304-.053-.367q-.092-.666-.256-1.02a3.7 3.7 0 0 0-.554-.803l-.17-.18h.088c.048 0 .087-.01.087-.021a.7.7 0 0 0-.143-.149l-.071-.063-.039-.044c-.103.259-.463.594-.646.765l-.085.08c-.125.125-.6.313-.832.319a8 8 0 0 1-1.019-.082 1.46 1.46 0 0 1-.893-.474 12 12 0 0 1-.524-.666zm1.806-2.188h-.003a.2.2 0 0 0-.092.081l-.004.007.001-.01-.007.04a.14.14 0 0 1-.067.072.6.6 0 0 1-.13.046l.001.001a1.65 1.65 0 0 0-.71.417h.001c-.173.174-.29.337-.388.556l-.094.24c-.04.117-.067.193-.093.24a.2.2 0 0 1-.053.066.2.2 0 0 1-.035.021l-.033.012a.1.1 0 0 0-.047.023l-.001.001-.005.008q.003-.007-.001.004l-.008.035a.7.7 0 0 0 .01.24l.002.008v.002l.023.038.004.016c.114.155.333.445.508.646l.09.094c.219.205.495.318.755.355.311.043.781.086 1.006.08l.086-.01a2 2 0 0 0 .342-.1c.079-.03.155-.064.217-.097a.6.6 0 0 0 .131-.088l.088-.083.162-.154c.06-.059.125-.123.186-.19.114-.125.211-.252.263-.36l-.008-.022a.2.2 0 0 1 0-.07l-.003-.025a.13.13 0 0 0-.042-.067l-.023-.013a.136.136 0 0 1-.102-.078.5.5 0 0 1-.029-.14l-.016-.122c-.1-.598-.454-1.108-.94-1.352a1.2 1.2 0 0 1-.182-.105.2.2 0 0 1-.05-.056.14.14 0 0 1-.019-.073l-.009-.022-.024-.036a.1.1 0 0 0-.051-.028l-.173-.022-.125-.01-.201-.017a1 1 0 0 0-.08-.002q-.016 0-.028.003m2.175 2.217q.003.007.008.016-.006-.01-.008-.018zm-.127-.234a.14.14 0 0 1 .054.029zm-3.466-.916.058-.101zm2.394-.77-.103-.056zm-1.402-.103.103-.033z" clip-rule="evenodd"/></g></svg>