<svg xmlns="http://www.w3.org/2000/svg" fill="none" viewBox="0 0 20 20"><rect width="100%" height="100%" rx="2px" ry="2px" fill="#B2A4FB"/><g transform="translate(10, 10) scale(0.625) translate(-10, -10)"><path fill="#131316" d="M6.86 9.877c-.018.135.092.48.435.682.089-.073.337-.235.605-.235.386 0 1.16.365 1.319.515l.017.181c-.276-.18-.964-.59-1.394-.562a.9.9 0 0 0-.459.174c.045.033.216.13.54.253.322.124.761.127.94.114l-.15.15c.347.018 1.146.022 1.567-.105-.272-.052-.853-.184-1-.298v-.212c.218.128.766.387 1.22.398.057 0 .18-.006.215-.021v.06c.12.016.393.039.518 0l-.1-.12.454.026-.018-.035c.228.007.724-.005.888-.104l.12-.065c.228-.118.565-.292.703-.724-.02.228-.202.742-.765.983.042.015.152.092.255.28s.162.339.178.391c-.102-.235-.43-.691-.916-.632-.27-.001-.902.078-1.268.403v-.165l.044-.06h-.093v-.063c-.714.179-2.275.384-2.997-.02-.948-.531-.9-.93-.857-1.189M8.241 8.3c.068-.04.079-.037.203.05.294.199.79.405 1.163.475.794.151 1.515.022 2.266-.408.218-.124.27-.144.316-.12.091.05.066.152-.06.247-.152.11-.527.297-.772.386a3.5 3.5 0 0 1-2.203.024 4 4 0 0 1-.846-.41c-.126-.092-.153-.195-.067-.243M8.392 7.34c.238-.168.508.186.284.375-.094.08-.157.087-.264.03a.224.224 0 0 1-.111-.284c.019-.046.059-.1.091-.122M11.778 7.3c.213 0 .305.275.137.415-.132.11-.286.078-.361-.08-.038-.08-.037-.1-.002-.185.021-.048.058-.105.088-.121a.3.3 0 0 1 .138-.03"/><path fill="#131316" fill-rule="evenodd" d="M10.15 4.477a.941.941 0 1 1 0 1.882.941.941 0 0 1 0-1.882m.033.337c-.154.008-.486.09-.589.355-.102.267.018.549.086.645z" clip-rule="evenodd"/><path fill="#131316" fill-rule="evenodd" d="M8.868 1.09c.54-.073 1.69-.073 2.246 0a8.92 8.92 0 0 1 5.208 2.537 8.5 8.5 0 0 1 1.685 2.309c.488.96.766 1.866.903 2.951.04.316.055.575.055 1.112 0 .894-.07 1.493-.268 2.26a9.6 9.6 0 0 1-1.108 2.545 8.98 8.98 0 0 1-6.475 4.104 11 11 0 0 1-2.225 0 8.92 8.92 0 0 1-5.208-2.538 8.5 8.5 0 0 1-1.685-2.308 8.6 8.6 0 0 1-.904-2.951 11 11 0 0 1 0-2.224 8.6 8.6 0 0 1 .559-2.195c.165-.419.512-1.104.763-1.498A9 9 0 0 1 8.868 1.09m-.892 4.395c.002.025-.02.047-.094.1-.135.094-.311.248-.311.27 0 .008.052.014.11.014h.115l-.105.113c-.06.064-.182.213-.27.332-.462.61-.695 1.145-.808 1.857-.04.249-.05.276-.197.487-.429.612-.743 1.174-.872 1.557-.219.653.04 1.358.672 1.825l.213.16.01.102-.009-.1c.804.296 1.509.347 1.763.336a3.8 3.8 0 0 1-1.737-.063c.056.568.177 1.406.216 1.473.008.011.06-.04.119-.118l.106-.143v.216c.003.399.124 1.376.186 1.49.013.024.043.016.11-.035.087-.065.095-.065.113-.022.011.027.058.292.104.589.091.615.145.756.342.929a.83.83 0 0 0 1.156-.035c.164-.165.191-.23.361-.88.111-.434.136-.5.181-.498.027.003.16.025.292.05.303.053.513.053.815 0 .133-.025.265-.047.292-.05.043-.002.07.071.189.537.078.298.168.59.197.65a.86.86 0 0 0 1.045.39.92.92 0 0 0 .473-.442c.03-.065.088-.36.137-.654.046-.297.092-.559.103-.586.019-.043.027-.043.113.022.089.065.095.065.11.016.068-.18.188-1.139.188-1.514v-.176l.099.143q.1.141.119.108c.052-.096.197-1.145.232-1.626l.001-.016c-.303.246-1.143.394-1.564.44.57-.086 1.26-.48 1.586-.701q-.004.012-.006.025c.014-.057.054-.102.178-.225.296-.297.485-.731.488-1.12 0-.37-.245-1.026-.701-1.874l-.181-.337-.06-.408q-.1-.74-.284-1.134a4 4 0 0 0-.616-.89l-.188-.2h.097c.054 0 .097-.011.097-.025a.7.7 0 0 0-.16-.165l-.078-.07-.043-.049c-.115.287-.514.66-.718.85l-.094.089c-.139.139-.667.347-.924.354s-.785-.042-1.132-.09a1.62 1.62 0 0 1-.994-.528 14 14 0 0 1-.581-.74zm2.007-2.43h-.004a.24.24 0 0 0-.103.09l-.003.008V3.14l-.007.045a.16.16 0 0 1-.075.08.7.7 0 0 1-.144.051v.001a1.8 1.8 0 0 0-.788.463v.001a2 2 0 0 0-.43.617l-.104.266c-.045.13-.075.215-.104.268a.2.2 0 0 1-.059.073.2.2 0 0 1-.038.023l-.037.013a.2.2 0 0 0-.053.026v.001l-.007.009c.004-.004.002-.005 0 .005l-.01.038a.8.8 0 0 0 .011.267l.003.009.001.002.024.042q.004.008.005.018c.127.172.37.494.565.718l.1.104c.242.228.55.354.838.394a9 9 0 0 0 1.118.09l.096-.011c.108-.018.245-.06.38-.111.088-.034.172-.072.24-.109a.7.7 0 0 0 .147-.097q.035-.035.097-.093l.18-.17c.067-.066.139-.137.207-.212.127-.138.235-.28.292-.4l-.009-.024a.2.2 0 0 1 0-.078l-.003-.028a.14.14 0 0 0-.047-.074l-.026-.015a.152.152 0 0 1-.113-.087.5.5 0 0 1-.032-.156l-.018-.134c-.112-.664-.504-1.231-1.045-1.503a1.4 1.4 0 0 1-.201-.117.2.2 0 0 1-.057-.062.16.16 0 0 1-.02-.08l-.01-.025-.027-.04a.1.1 0 0 0-.056-.031l-.193-.024-.138-.011-.224-.02a1 1 0 0 0-.088-.001zm2.416 2.463q.003.008.009.017-.006-.01-.01-.02zm-.141-.26a.2.2 0 0 1 .06.032zM8.407 4.24l.064-.113zm2.66-.856-.115-.062zM9.51 3.27l.115-.037z" clip-rule="evenodd"/></g></svg>