<svg xmlns="http://www.w3.org/2000/svg" fill="none" viewBox="0 0 22 22"><rect width="100%" height="100%" rx="2px" ry="2px" fill="#009AE7"/><g transform="translate(11, 11) scale(0.625) translate(-11, -11)"><path fill="#fff" d="M19.245 14.017v.994l-.305.297h-3.307a5.75 5.75 0 0 0-4.02 1.629L6.83 21.616h-.43l-.716-.703v-.42l5.006-4.897a6.62 6.62 0 0 1 4.626-1.874h3.625z"/><path fill="#fff" d="M22 10.477v.994l-.3.285h-6.235a10.1 10.1 0 0 0-3.803.74 9.9 9.9 0 0 0-3.22 2.112l-6.56 6.406h-.43l-.72-.702v-.421l7.036-6.88a10.05 10.05 0 0 1 7.02-2.847h6.907zM4.068 8.462c.338.33.607.724.79 1.156a3.5 3.5 0 0 1-.001 2.726 3.6 3.6 0 0 1-.791 1.155L1.352 16.15H.925l-.719-.703v-.418l2.576-2.524a2.12 2.12 0 0 0 0-3.053L0 6.729v-.417l.719-.703h.427zM8.462 7.361a10.2 10.2 0 0 0 4.107 2.378 10 10 0 0 0-4.444 2.135q.108-.432.112-.883A3.76 3.76 0 0 0 7.12 8.305L.8 2.123v-.42l.717-.705h.43zM11.613 5.063a5.75 5.75 0 0 0 4.02 1.629h3.307l.305.295v.997l-.305.296h-3.625c-1.735 0-3.4-.675-4.626-1.875l-5.006-4.9v-.42l.716-.701h.43z"/></g></svg>