<svg xmlns="http://www.w3.org/2000/svg" fill="none" viewBox="0 0 20 20"><rect width="100%" height="100%" rx="2px" ry="2px" fill="#009AE7"/><g transform="translate(10, 10) scale(0.625) translate(-10, -10)"><path fill="#fff" d="M17.495 12.743v.903l-.277.27h-3.006c-1.37 0-2.685.533-3.654 1.481l-4.35 4.254h-.39l-.652-.639v-.383l4.55-4.45a6.02 6.02 0 0 1 4.207-1.705h3.295z"/><path fill="#fff" d="M20 9.525v.903l-.273.259H14.06a9.2 9.2 0 0 0-3.457.674 9 9 0 0 0-2.928 1.919L1.71 19.104h-.392l-.653-.639v-.383l6.396-6.254a9.14 9.14 0 0 1 6.382-2.588h6.279zM3.698 7.693c.308.3.552.658.718 1.05a3.17 3.17 0 0 1-.001 2.48c-.167.392-.411.749-.719 1.049l-2.467 2.41H.841l-.653-.64v-.38l2.341-2.293a1.927 1.927 0 0 0 0-2.775L0 6.116v-.38l.653-.639h.389zM7.692 6.692a9.26 9.26 0 0 0 3.735 2.162 9.1 9.1 0 0 0-4.04 1.94c.065-.26.1-.53.101-.802A3.42 3.42 0 0 0 6.473 7.55L.729 1.93v-.383l.65-.64h.392zM10.558 4.603a5.23 5.23 0 0 0 3.654 1.48h3.006l.277.269v.906l-.277.269h-3.295a6.02 6.02 0 0 1-4.206-1.704L5.166 1.369V.987l.651-.638h.391z"/></g></svg>