<svg xmlns="http://www.w3.org/2000/svg" fill="none" viewBox="0 0 22 22" shape-rendering="geometricPrecision"><rect width="22" height="22" rx="3" ry="3" fill="#F6F6F7"/><g transform="translate(11, 11) scale(0.7) translate(-11, -11)"><path fill="#0F1013" fill-rule="evenodd" d="M10.99.64c5.716 0 10.35 4.634 10.35 10.35s-4.634 10.35-10.35 10.35S.64 16.706.64 10.99 5.275.64 10.99.64M9.938 5.526a.66.66 0 0 0-.932.017l-3.5 3.625a.66.66 0 0 0 .016.933l3.5 3.375a.66.66 0 0 0 .916-.95l-2.323-2.24h5.573l.062.004a2.624 2.624 0 0 1 1.019.293c.268.144.523.352.713.657.19.304.338.743.338 1.386 0 1.465-.586 2.09-1.08 2.388a2.4 2.4 0 0 1-1.055.327h-.804a.66.66 0 0 0 0 1.32h.8V16v.66h.02l.037-.002q.045 0 .12-.007a3.7 3.7 0 0 0 1.563-.508c.906-.545 1.72-1.608 1.72-3.518 0-.856-.202-1.543-.537-2.083a3.2 3.2 0 0 0-1.211-1.124 3.94 3.94 0 0 0-1.693-.453H7.535l2.42-2.507a.66.66 0 0 0-.017-.933" clip-rule="evenodd"/></g><rect x="0.3" y="0.3" width="21.4" height="21.4" rx="3" ry="3" fill="none" stroke="var(--cn-comp-avatar-shadow)" stroke-width="0.6"/></svg>