<svg xmlns="http://www.w3.org/2000/svg" fill="none" viewBox="0 0 22 22" shape-rendering="geometricPrecision"><rect width="22" height="22" rx="3" ry="3" fill="#00B2E5"/><g transform="translate(11, 11) scale(0.7) translate(-11, -11)"><path fill="#fff" d="M8.482 3.267a7.764 7.764 0 1 0 7.781 7.805 7.784 7.784 0 0 0-7.782-7.805m0 12.537c-3.18 0-4.625-2.793-4.625-4.773S5.302 6.26 8.482 6.26c3.361 0 4.625 2.963 4.625 4.83-.006 1.946-1.44 4.715-4.625 4.715m9.556 2.723V6.525h-2.362V3.53H21.2v14.997z"/></g><rect x="0.3" y="0.3" width="21.4" height="21.4" rx="3" ry="3" fill="none" stroke="var(--cn-comp-avatar-shadow)" stroke-width="0.6"/></svg>