<svg xmlns="http://www.w3.org/2000/svg" fill="none" viewBox="0 0 22 22"><rect width="100%" height="100%" rx="2px" ry="2px" fill="#0254EC"/><g transform="translate(11, 11) scale(0.625) translate(-11, -11)"><path fill="#fff" d="M1.895 8.627c.026 0 .05.016.062.04l1.416 2.958a.069.069 0 0 0 .123.002l1.336-2.96a.069.069 0 0 1 .123.002l1.296 2.951c.026.052.1.05.124-.002L7.658 8.67a.07.07 0 0 1 .063-.042h1.946c.05 0 .083.05.064.095l-.001-.001-2.958 7.135a.07.07 0 0 1-.058.042.07.07 0 0 1-.064-.032l-1.67-2.812a.068.068 0 0 0-.114 0l-1.74 2.823c-.029.047-.099.04-.12-.01l-3-7.146a.07.07 0 0 1 .063-.096zM18.992 8.63c.05 0 .083.055.059.1l-2.799 5.188-.069.12c-.025.045.007.1.059.1v.001h2.707c.036 0 .066.03.066.067v1.626c0 .037-.03.067-.066.067h-5.8c-.05 0-.083-.048-.06-.092l2.72-5.179.055-.118a.067.067 0 0 0-.06-.095h-2.692a.067.067 0 0 1-.067-.067l-.006-1.653c0-.037.03-.065.067-.065zM12.195 8.641c.036 0 .066.03.066.067v7.12c0 .038-.03.068-.066.068h-1.796a.067.067 0 0 1-.066-.067V8.708c0-.037.03-.067.066-.067zM20.458 6.09q.015 0 .026.008a.04.04 0 0 1 .014.022c.076.332.225.835.43 1.04s.708.354 1.04.43q.015.003.023.014a.04.04 0 0 1 .009.025q0 .014-.009.026a.04.04 0 0 1-.022.014c-.332.076-.835.225-1.04.43s-.354.708-.43 1.04a.04.04 0 0 1-.014.022.04.04 0 0 1-.05 0 .04.04 0 0 1-.015-.022c-.077-.332-.225-.835-.43-1.04s-.708-.353-1.04-.43a.04.04 0 0 1-.023-.014.04.04 0 0 1-.009-.025q0-.014.009-.026a.04.04 0 0 1 .022-.014c.332-.076.835-.225 1.04-.43.206-.204.354-.707.43-1.04a.04.04 0 0 1 .039-.031"/></g></svg>