<svg xmlns="http://www.w3.org/2000/svg" fill="none" viewBox="0 0 20 20"><rect width="100%" height="100%" rx="2px" ry="2px" fill="#0254EC" stroke="var(--cn-comp-avatar-shadow)" stroke-width="0.6"/><g transform="translate(10, 10) scale(0.625) translate(-10, -10)"><path fill="#fff" d="M1.723 7.843c.023 0 .046.014.056.036l1.287 2.69a.063.063 0 0 0 .112 0l1.215-2.69a.063.063 0 0 1 .112.002l1.178 2.683a.062.062 0 0 0 .112-.002l1.167-2.68a.06.06 0 0 1 .057-.037h1.77c.045 0 .074.045.057.086V7.93l-2.69 6.486a.062.062 0 0 1-.11.009L4.528 11.87a.062.062 0 0 0-.105 0l-1.58 2.567a.062.062 0 0 1-.11-.01L.005 7.93a.062.062 0 0 1 .058-.087zM17.266 7.845c.046 0 .075.05.053.09l-2.544 4.718-.063.109a.06.06 0 0 0 .053.091v.001h2.461a.06.06 0 0 1 .06.06v1.479a.06.06 0 0 1-.06.06h-5.272c-.046 0-.076-.043-.054-.083l2.472-4.708.05-.108a.06.06 0 0 0-.055-.086H11.92a.06.06 0 0 1-.06-.061l-.006-1.502a.06.06 0 0 1 .06-.06zM11.086 7.856a.06.06 0 0 1 .06.06v6.474a.06.06 0 0 1-.06.06H9.454a.06.06 0 0 1-.06-.06V7.916a.06.06 0 0 1 .06-.06zM18.599 5.536q.012 0 .023.007a.04.04 0 0 1 .012.021c.07.302.205.759.391.946s.644.32.946.39a.04.04 0 0 1 .021.013.038.038 0 0 1 0 .046.04.04 0 0 1-.02.012c-.302.07-.76.205-.946.391-.187.187-.321.644-.39.946a.04.04 0 0 1-.014.02.04.04 0 0 1-.046 0 .04.04 0 0 1-.012-.02c-.07-.302-.205-.759-.391-.946s-.644-.32-.946-.39a.04.04 0 0 1-.02-.013.04.04 0 0 1-.009-.023q0-.012.008-.023a.04.04 0 0 1 .02-.013c.302-.07.76-.204.946-.39.187-.187.321-.644.391-.946a.036.036 0 0 1 .035-.029"/></g></svg>