<svg xmlns="http://www.w3.org/2000/svg" fill="none" viewBox="0 0 20 20"><rect width="100%" height="100%" rx="2px" ry="2px" fill="#F6F6F7"/><g transform="translate(10, 10) scale(0.625) translate(-10, -10)"><path fill="#131314" d="M7.353 9.076a.6.6 0 0 1 .494.326l1.775 3.502a.6.6 0 0 1-1.07.542l-.16-.315H6.214l-.159.315a.6.6 0 1 1-1.07-.542l1.774-3.502a.6.6 0 0 1 .494-.326q.026-.002.05-.001zM2.25 13.124v-1.692L.916 10.097a.6.6 0 0 1 .847-.849l1.087 1.086 1.087-1.086a.6.6 0 0 1 .849.849L3.45 11.432v1.692a.6.6 0 0 1-1.2 0m11.492 0v-2.069l-.57.558a.6.6 0 0 1-.842-.003l-.544-.54v2.054a.6.6 0 0 1-1.2 0V9.63a.6.6 0 0 1 1.022-.426l1.147 1.137 1.167-1.14a.6.6 0 0 1 1.019.43v3.493a.6.6 0 1 1-1.2 0m2.235-3.494a.6.6 0 0 1 1.2 0v2.894h1.484a.6.6 0 0 1 0 1.2h-2.084a.6.6 0 0 1-.6-.6zm-9.154 2.301h.96l-.48-.948zm10.351 6.132c0 .616-.498 1.115-1.114 1.115H3.365c-.616 0-1.115-.5-1.115-1.115v-1.725a.6.6 0 0 1 1.2 0v1.64h12.525v-1.64a.6.6 0 1 1 1.2 0zm0-11.334a.6.6 0 1 1-1.199 0v-.697h-2.892a1.114 1.114 0 0 1-1.115-1.115V2.022H3.451v4.707a.6.6 0 0 1-1.2 0V1.937c0-.616.498-1.114 1.114-1.114h9.994c.295 0 .579.117.788.326l2.701 2.7c.209.209.326.494.326.789z"/></g></svg>