<svg xmlns="http://www.w3.org/2000/svg" fill="none" viewBox="0 0 20 20"><rect width="100%" height="100%" rx="2px" ry="2px" fill="#0B5CFF" stroke="var(--cn-comp-avatar-shadow)" stroke-width="0.6"/><g transform="translate(10, 10) scale(0.625) translate(-10, -10)"><g clip-path="url(#a)"><path fill="#fff" d="M4.194 12.208H.62a.616.616 0 0 1-.438-1.056l2.477-2.477H.883A.883.883 0 0 1 0 7.792h3.298a.618.618 0 0 1 .437 1.055l-2.477 2.478h2.054c.487 0 .883.396.883.883M20 9.448a1.723 1.723 0 0 0-3.003-1.15 1.72 1.72 0 0 0-1.28-.571c-.95 0-1.721.771-1.721 1.721v2.76a.883.883 0 0 0 .883-.884V9.448a.839.839 0 1 1 1.678 0v1.876c0 .489.395.883.883.883V9.449a.838.838 0 1 1 1.677 0v1.876c0 .489.395.883.883.883zM13.554 10a2.273 2.273 0 1 1-4.545 0 2.273 2.273 0 0 1 4.545 0m-.883 0a1.39 1.39 0 1 0-2.782 0 1.39 1.39 0 0 0 2.782 0m-4.017 0a2.275 2.275 0 1 1-4.547 0 2.275 2.275 0 0 1 4.546 0zm-.883 0a1.39 1.39 0 1 0-2.782 0 1.39 1.39 0 0 0 2.782 0"/></g><defs><clipPath id="a"><path fill="#fff" d="M0 0h20v20H0z"/></clipPath></defs></g></svg>