<svg xmlns="http://www.w3.org/2000/svg" fill="none" viewBox="0 0 18 18"><rect width="100%" height="100%" rx="2px" ry="2px" fill="#0B5CFF"/><g transform="translate(9, 9) scale(0.5625) translate(-9, -9)"><g clip-path="url(#a)"><path fill="#fff" d="M3.775 10.987H.557a.555.555 0 0 1-.394-.95l2.23-2.23H.795A.795.795 0 0 1 0 7.013h2.968a.556.556 0 0 1 .393.95l-2.229 2.23h1.849c.438 0 .795.357.795.796zM18 8.504a1.55 1.55 0 0 0-2.702-1.035 1.55 1.55 0 0 0-1.152-.515 1.55 1.55 0 0 0-1.55 1.55v2.483a.795.795 0 0 0 .795-.795V8.504a.755.755 0 0 1 1.51 0v1.688c0 .44.356.795.795.795V8.504a.754.754 0 0 1 1.509 0v1.688c0 .44.356.795.795.795zM12.199 9a2.047 2.047 0 1 1-4.094 0 2.047 2.047 0 0 1 4.094 0m-.795 0A1.252 1.252 0 1 0 8.9 9a1.252 1.252 0 0 0 2.503 0M7.789 9a2.047 2.047 0 1 1-4.092 0 2.047 2.047 0 0 1 4.091 0m-.795 0A1.252 1.252 0 1 0 4.49 9a1.252 1.252 0 0 0 2.504 0"/></g><defs><clipPath id="a"><path fill="#fff" d="M0 0h18v18H0z"/></clipPath></defs></g></svg>