<svg xmlns="http://www.w3.org/2000/svg" fill="none" viewBox="0 0 22 22" shape-rendering="geometricPrecision"><rect width="22" height="22" rx="3" ry="3" fill="#0B5CFF"/><g transform="translate(11, 11) scale(0.7) translate(-11, -11)"><g clip-path="url(#a)"><path fill="#fff" d="M4.614 13.428H.68a.678.678 0 0 1-.482-1.16l2.725-2.726H.972A.97.97 0 0 1 0 8.572h3.627a.68.68 0 0 1 .482 1.16l-2.725 2.726h2.259c.536 0 .971.436.971.972M22 10.393a1.896 1.896 0 0 0-3.303-1.265A1.9 1.9 0 0 0 17.29 8.5a1.895 1.895 0 0 0-1.894 1.894v3.035a.97.97 0 0 0 .972-.971v-2.064a.923.923 0 0 1 1.845 0v2.064c0 .537.435.971.972.971v-3.035a.922.922 0 0 1 1.844 0v2.064c0 .537.436.971.972.971zM14.91 11a2.5 2.5 0 1 1-5.001 0 2.5 2.5 0 0 1 5 0m-.972 0a1.53 1.53 0 1 0-3.06 0 1.53 1.53 0 0 0 3.06 0M9.52 11a2.501 2.501 0 1 1-5.002 0 2.501 2.501 0 0 1 5 0zm-.972 0a1.53 1.53 0 1 0-3.06 0 1.53 1.53 0 0 0 3.06 0"/></g><defs><clipPath id="a"><path fill="#fff" d="M0 0h22v22H0z"/></clipPath></defs></g><rect x="0.3" y="0.3" width="21.4" height="21.4" rx="3" ry="3" fill="none" stroke="var(--cn-comp-avatar-shadow)" stroke-width="0.6"/></svg>