<svg xmlns="http://www.w3.org/2000/svg" fill="none" viewBox="0 0 16 16"><path fill="currentColor" d="M8.5 6.8V2.3l3.1 1.4z"/><path fill="currentColor" d="m8.5 2.3.206-.456A.5.5 0 0 0 8 2.3zm0 4.5H8v1.207l.854-.853zm3.1-3.1.354.354a.5.5 0 0 0-.148-.81zM8 14v.5A6.5 6.5 0 0 0 14.5 8h-1A5.5 5.5 0 0 1 8 13.5zm6-6h.5A6.5 6.5 0 0 0 8 1.5v1A5.5 5.5 0 0 1 13.5 8zM8 2v-.5A6.5 6.5 0 0 0 1.5 8h1A5.5 5.5 0 0 1 8 2.5zM2 8h-.5A6.5 6.5 0 0 0 8 14.5v-1A5.5 5.5 0 0 1 2.5 8zm6.5-5.7H8v4.5h1V2.3zm0 4.5.354.354 3.1-3.1L11.6 3.7l-.354-.354-3.1 3.1zm3.1-3.1.206-.456-3.1-1.4L8.5 2.3l-.206.456 3.1 1.4z"/></svg>