<svg xmlns="http://www.w3.org/2000/svg" fill="none" viewBox="0 0 16 16"><path stroke="currentColor" stroke-width="1.2" d="M9.28 1.64a.2.2 0 0 0-.219.198v3.749c0 .11.09.22.178.286.056.042.114.094.164.145.073.074.188.1.279.049l3.255-1.854a.2.2 0 0 0 .062-.29c-.497-.675-.968-1.184-1.719-1.616-.75-.432-1.204-.578-2-.667Zm4.782 4.142a.2.2 0 0 0-.281-.09l-3.258 1.88c-.097.056-.14.213-.135.325.004.098.05.209.135.258l3.29 1.9a.2.2 0 0 0 .282-.092c.326-.734.476-1.208.476-2.07 0-.863-.178-1.371-.509-2.11ZM7.924 10.35a2.366 2.366 0 0 1-.746-4.631.21.21 0 0 0 .154-.2v-3.79a.195.195 0 0 0-.218-.196 6.504 6.504 0 1 0 6.002 10.383.195.195 0 0 0-.06-.287L9.743 9.718a.21.21 0 0 0-.246.03 2.36 2.36 0 0 1-1.573.603Z"/></svg>