<svg xmlns="http://www.w3.org/2000/svg" fill="none" viewBox="0 0 16 16"><path fill="currentColor" d="M10.793 6.786c.158 0 .298.132.299.31v3.202c0 .178-.141.311-.299.311H5.206a.305.305 0 0 1-.298-.311V7.096c0-.178.14-.31.298-.31zM8.647 5.008v.977H7.353v-.977z"/><path fill="currentColor" fill-rule="evenodd" d="M8 .948a7 7 0 1 1 0 14 7 7 0 0 1 0-14m-.838 3.259a.613.613 0 0 0-.61.614v1.164H5.206c-.613 0-1.098.505-1.099 1.111v3.202c0 .606.486 1.11 1.099 1.11h5.587c.614 0 1.099-.504 1.099-1.11V7.096c0-.606-.486-1.11-1.099-1.11H9.447V4.82a.61.61 0 0 0-.61-.614z" clip-rule="evenodd"/></svg>