<svg xmlns="http://www.w3.org/2000/svg" fill="none" viewBox="0 0 16 16"><path fill="currentColor" d="M7.997 7.043c.224.402.556.734.958.959a2.5 2.5 0 0 0-.958.958 2.5 2.5 0 0 0-.957-.958c.402-.225.733-.557.957-.959"/><path fill="currentColor" fill-rule="evenodd" d="M8 1a7 7 0 1 1 0 14A7 7 0 0 1 8 1M3.556 7.879a.766.766 0 0 0-.762.687l-.004.079.004.078a.76.76 0 0 0 .413.6 4.49 4.49 0 0 0 4.435 3.807.4.4 0 0 0 0-.8 3.686 3.686 0 0 1-3.634-3.07.762.762 0 0 0-.452-1.381m4.841-2.103a.445.445 0 0 0-.798 0l-.029.078-.116.423a1.69 1.69 0 0 1-1.18 1.181l-.425.116c-.435.12-.434.735 0 .855l.424.116a1.69 1.69 0 0 1 1.181 1.18l.116.425c.12.435.736.435.855 0l.116-.424a1.69 1.69 0 0 1 1.18-1.181l.425-.116c.435-.12.435-.736 0-.855l-.424-.116a1.69 1.69 0 0 1-1.181-1.18l-.116-.424zm4.047 3.008a.766.766 0 1 0 .079.004zM8.36 2.87a.4.4 0 0 0 0 .8 3.685 3.685 0 0 1 3.633 3.07.763.763 0 0 0 .452 1.381.763.763 0 0 0 .349-1.443A4.49 4.49 0 0 0 8.359 2.87M3.556 5.685a.766.766 0 0 0-.762.687l-.004.078.004.078a.766.766 0 1 0 .762-.843" clip-rule="evenodd"/></svg>