<svg xmlns="http://www.w3.org/2000/svg" fill="none" viewBox="0 0 16 16"><path stroke="currentColor" stroke-linecap="round" d="M8.49 1.531a5.59 5.59 0 0 1 5.589 5.588m-6.57 7.35a5.59 5.59 0 0 1-5.588-5.588M14.58 7.12a.5.5 0 1 1-1 0 .5.5 0 0 1 1 0ZM1.42 8.88a.5.5 0 1 1 1 0 .5.5 0 0 1-1 0ZM14.58 10.12a.5.5 0 1 1-1 0 .5.5 0 0 1 1 0ZM1.42 5.88a.5.5 0 1 1 1 0 .5.5 0 0 1-1 0Zm6.791-.091-.159-.581c-.016-.058-.097-.058-.113 0l-.16.58a2.85 2.85 0 0 1-1.997 1.999l-.58.159c-.058.015-.058.097 0 .113l.58.159a2.85 2.85 0 0 1 1.998 1.998l.159.58c.016.058.097.058.113 0l.16-.58a2.85 2.85 0 0 1 1.997-1.998l.581-.16c.058-.015.058-.097 0-.112l-.58-.16A2.85 2.85 0 0 1 8.211 5.79Z"/></svg>