<svg xmlns="http://www.w3.org/2000/svg" fill="none" viewBox="0 0 16 16"><path fill="currentColor" d="M8 8.256V4.673L5.826 8.256zM8 8.256v3.07l2.174-3.07zM14.529 3.75c-1.422 0-2.25-.801-2.25-2.25 0 1.449-.82 2.25-2.25 2.25 1.43 0 2.25.819 2.25 2.25 0-1.431.828-2.25 2.25-2.25"/><path stroke="currentColor" stroke-linecap="round" stroke-linejoin="round" d="M9.358 1.933 8 1.5 2.57 3.233v5.634c0 .733.192 1.39.504 1.973.738 1.379 2.144 2.345 3.266 2.937.927.49 1.66.723 1.66.723s5.43-1.733 5.43-5.633V7.458M8 8.256V4.673L5.826 8.256zm0 0v3.07l2.174-3.07zM14.53 3.75c-1.422 0-2.25-.801-2.25-2.25 0 1.449-.82 2.25-2.25 2.25 1.43 0 2.25.819 2.25 2.25 0-1.431.828-2.25 2.25-2.25"/></svg>