<svg xmlns="http://www.w3.org/2000/svg" fill="none" viewBox="0 0 16 16"><path fill="currentColor" d="M10.363 13.71a.5.5 0 1 1-.707-.707.5.5 0 0 1 .707.707M5.661 3.73a.5.5 0 1 1-.707-.707.5.5 0 0 1 .707.708"/><path stroke="currentColor" stroke-linecap="round" stroke-linejoin="round" d="M13.458 13.458 9.889 9.889a.1.1 0 0 1-.001-.141 2.375 2.375 0 1 0-1.377.738m3.547 1.572A5.542 5.542 0 0 0 5.31 3.374m-3.888.288 1.842 1.841a5.544 5.544 0 0 0 6.738 7.858m.36.35a.5.5 0 1 1-.706-.708.5.5 0 0 1 .707.707m-4.7-9.98a.5.5 0 1 1-.708-.708.5.5 0 0 1 .707.708"/></svg>