<svg xmlns="http://www.w3.org/2000/svg" fill="none" viewBox="0 0 16 16"><path fill="currentColor" d="M11.425 6.752a.5.5 0 1 1-.999 0 .5.5 0 0 1 1 0"/><path stroke="currentColor" stroke-linecap="round" d="M8 8.272v5.188a.937.937 0 0 0 1.409.809l3.97-2.316a.94.94 0 0 0 .465-.81V5.401a.94.94 0 0 0-.464-.809L8.472 1.73a.94.94 0 0 0-.944 0l-2.45 1.429M8 8.272l2.922-1.515M8 8.272 3.565 5.685a.937.937 0 0 0-1.409.81v4.648c0 .334.177.642.465.81l2.37 1.382m6.434-6.583a.5.5 0 1 1-.999 0 .5.5 0 0 1 1 0Z"/></svg>