<svg xmlns="http://www.w3.org/2000/svg" fill="none" viewBox="0 0 16 16"><path stroke="currentColor" stroke-linecap="round" stroke-linejoin="round" d="M2.514 9.163C1.872 8.827 1.5 8.428 1.5 8c0-1.197 2.91-2.167 6.5-2.167s6.5.97 6.5 2.167c0 .516-.541.99-1.444 1.362M8 7.285l.007-.008m3.52-3.61c-.004-.74-.19-1.262-.576-1.459-1.067-.543-3.252 1.61-4.882 4.808-1.63 3.199-2.086 6.232-1.02 6.776.38.194.905.044 1.495-.375M6.267 2.404c-.477-.279-.898-.359-1.218-.196-1.066.544-.61 3.577 1.02 6.776s3.815 5.35 4.882 4.808c.947-.483.692-2.934-.521-5.719"/></svg>