<svg xmlns="http://www.w3.org/2000/svg" fill="none" viewBox="0 0 16 16"><path stroke="currentColor" stroke-linecap="round" stroke-linejoin="round" d="M6 4.39H3.067c-.374 0-.56 0-.703.078a.7.7 0 0 0-.291.316C2 4.938 2 5.14 2 5.545v7.798c0 .405 0 .607.073.761a.7.7 0 0 0 .291.316c.143.079.33.079.703.079H6m0 0h4m-4 0V2.657c0-.405 0-.607.073-.761a.7.7 0 0 1 .291-.316c.143-.079.33-.079.703-.079h1.866c.374 0 .56 0 .703.08.125.068.227.179.291.315.073.154.073.356.073.76V14.5m0-7.221h2.933c.374 0 .56 0 .703.079.125.069.227.18.291.315.073.155.073.357.073.761v4.91c0 .405 0 .607-.073.761a.7.7 0 0 1-.291.316c-.143.079-.33.079-.703.079H10"/></svg>