<svg xmlns="http://www.w3.org/2000/svg" fill="none" viewBox="0 0 16 16"><path stroke="currentColor" stroke-linecap="round" stroke-linejoin="round" d="M11.61 6.376v-2.21c0-.364 0-.546-.079-.685a.7.7 0 0 0-.315-.284c-.155-.07-.357-.07-.761-.07H1.502m7.22 6.498v2.209c0 .364 0 .546-.079.685a.7.7 0 0 1-.315.284c-.155.07-.357.07-.761.07H1.502m0-11.371v12.996m0-4.873h11.84c.405 0 .607 0 .762-.071a.7.7 0 0 0 .315-.284c.079-.14.079-.321.079-.685v-1.17c0-.364 0-.546-.079-.685a.7.7 0 0 0-.315-.284c-.155-.07-.357-.07-.761-.07H1.502z"/></svg>