<svg xmlns="http://www.w3.org/2000/svg" fill="none" viewBox="0 0 16 16"><path fill="currentColor" d="M6.147 8.891a.5.5 0 1 0 0 1zm3.696 1a.5.5 0 0 0 0-1zM8.495 7.543a.5.5 0 1 0-1 0zm-1 3.696a.5.5 0 0 0 1 0zM2.481 3.413l.495-.066zm.118-.295-.29-.407zm10.802 0 .29-.407zm.118.295-.495-.066zm-1.046 7.85-.496-.067zm-1.22 1.813-.248-.434zm-.197.112-.248-.434zm-6.112 0-.248.435zm-.197-.112.248-.434zm-1.22-1.814.496-.066zm2.62-1.87v.5h1.848v-1H6.147zm3.696 0v-.5H7.995v1h1.848zm-1.848 0h.5V7.542h-1v1.848zm0 0h-.5v1.847h1V9.391zm-5.514-5.98.495-.065a.2.2 0 0 1-.087.178l-.29-.407-.29-.407a.8.8 0 0 0-.324.768zm.118-.294.29.407C3.214 3.294 4.576 2.5 8 2.5v-1c-3.58 0-5.159.832-5.691 1.21zM8 2v.5c3.424 0 4.786.794 5.111 1.025l.29-.407.29-.407C13.159 2.33 11.58 1.5 8 1.5zm5.4 1.118-.29.407a.2.2 0 0 1-.086-.178l.495.066.496.066a.81.81 0 0 0-.324-.768zm.12.295-.496-.066-1.047 7.85.496.065.495.066 1.047-7.849zm-1.047 7.85-.496-.067a1.96 1.96 0 0 1-.972 1.446l.248.434.248.434a2.96 2.96 0 0 0 1.467-2.182zm-1.22 1.813-.248-.434-.197.112.248.434.248.435.197-.113zm-.197.112-.248-.434a5.66 5.66 0 0 1-5.616 0l-.248.434-.248.435a6.66 6.66 0 0 0 6.608 0zm-6.112 0 .248-.434-.197-.112-.248.434-.248.434.197.113zm-.197-.112.248-.434a1.96 1.96 0 0 1-.972-1.446l-.496.066-.495.066a2.96 2.96 0 0 0 1.467 2.182zm-1.22-1.814.496-.066-1.047-7.85-.495.067-.496.066 1.047 7.85zm-1.07-7.414-.36.347c.264.274.63.486 1.034.654.409.17.886.305 1.402.412 1.03.214 2.254.319 3.467.319s2.436-.105 3.467-.319a8 8 0 0 0 1.402-.412c.403-.168.77-.38 1.034-.654l-.36-.347-.36-.347c-.13.136-.358.283-.697.424a7 7 0 0 1-1.222.357c-.949.197-2.101.298-3.264.298s-2.315-.101-3.264-.298a7 7 0 0 1-1.222-.357c-.339-.14-.566-.288-.698-.424z"/></svg>