<svg xmlns="http://www.w3.org/2000/svg" fill="none" viewBox="0 0 16 16"><g clip-path="url(#a)"><path fill="currentColor" d="M1.455 1.552v2.715c0 .053.043.097.097.097h2.715a.097.097 0 0 0 .097-.097V1.55a.097.097 0 0 0-.097-.096H1.552a.097.097 0 0 0-.097.097M6.546 1.552v2.715c0 .053.043.097.096.097h2.716a.097.097 0 0 0 .097-.097V1.55a.097.097 0 0 0-.097-.096H6.642a.097.097 0 0 0-.097.097M1.455 6.642v2.716c0 .053.043.097.097.097h2.715a.097.097 0 0 0 .097-.097V6.642a.097.097 0 0 0-.097-.097H1.552a.097.097 0 0 0-.097.097"/><path stroke="currentColor" d="M1.455 1.552v2.715c0 .053.043.097.097.097h2.715a.097.097 0 0 0 .097-.097V1.55a.097.097 0 0 0-.097-.096H1.552a.097.097 0 0 0-.097.097ZM6.546 1.552v2.715c0 .053.043.097.096.097h2.716a.097.097 0 0 0 .097-.097V1.55a.097.097 0 0 0-.097-.096H6.642a.097.097 0 0 0-.097.097ZM11.636 6.642v2.716c0 .053.044.097.097.097h2.715a.097.097 0 0 0 .098-.097V6.642a.097.097 0 0 0-.098-.097h-2.715a.097.097 0 0 0-.097.097ZM11.636 11.733v2.715c0 .054.044.097.097.097h2.715a.097.097 0 0 0 .098-.097v-2.715a.097.097 0 0 0-.098-.097h-2.715a.097.097 0 0 0-.097.097ZM6.546 11.733v2.715c0 .054.043.097.096.097h2.716a.097.097 0 0 0 .097-.097v-2.715a.097.097 0 0 0-.097-.097H6.642a.097.097 0 0 0-.097.097ZM1.455 6.642v2.716c0 .053.043.097.097.097h2.715a.097.097 0 0 0 .097-.097V6.642a.097.097 0 0 0-.097-.097H1.552a.097.097 0 0 0-.097.097Z"/></g><defs><clipPath id="a"><path fill="currentColor" d="M0 0h16v16H0z"/></clipPath></defs></svg>