<svg xmlns="http://www.w3.org/2000/svg" fill="none" viewBox="0 0 16 16"><path fill="currentColor" d="M7.55 9.452a.5.5 0 1 1-1 0 .5.5 0 0 1 1 0"/><path fill="currentColor" d="m6.742 9.053-.413.282zm.247.327.383-.322zm-.314.402a.5.5 0 1 0 .752-.66l-.376.33zm5.953-.724a.5.5 0 0 0 .766.643l-.383-.321zM10 9.452h-.5a3.5 3.5 0 0 1-3.5 3.5v1a4.5 4.5 0 0 0 4.5-4.5zm-4 4v-.5a3.5 3.5 0 0 1-3.5-3.5h-1a4.5 4.5 0 0 0 4.5 4.5zm-4-4h.5a3.5 3.5 0 0 1 3.5-3.5v-1a4.5 4.5 0 0 0-4.5 4.5zm4-4v.5a3.5 3.5 0 0 1 3.5 3.5h1a4.5 4.5 0 0 0-4.5-4.5zm0 1.177h.5c0-2.052 1.587-3.677 3.5-3.677v-1c-2.506 0-4.5 2.115-4.5 4.677zm4-4.177v.5c1.913 0 3.5 1.625 3.5 3.677h1c0-2.562-1.995-4.677-4.5-4.677zM6.742 9.053l.413-.282A3.8 3.8 0 0 1 6.5 6.629h-1c0 1.006.306 1.941.829 2.706zm.247.327.383-.322a4 4 0 0 1-.217-.287l-.413.282-.413.282q.13.19.277.366zm.062.072.376-.33-.055-.064-.383.322-.383.32.07.082zM14 6.629h-.5a3.77 3.77 0 0 1-.872 2.43l.383.32.383.322A4.77 4.77 0 0 0 14.5 6.629zM7.55 9.452h-.5v1a1 1 0 0 0 1-1zm-.5.5v-.5h-1a1 1 0 0 0 1 1zm-.5-.5h.5v-1a1 1 0 0 0-1 1zm.5-.5v.5h1a1 1 0 0 0-1-1z"/></svg>