<svg xmlns="http://www.w3.org/2000/svg" fill="none" viewBox="0 0 16 16"><g clip-path="url(#a)"><path stroke="currentColor" stroke-linecap="round" stroke-linejoin="round" d="M1.266 9.204A7 7 0 0 1 1.167 7.8C1.277 3.936 4.46.893 8.278 1.003c3.819.11 6.828 3.522 6.72 7.386-.11 3.864-3.296 6.718-7.115 6.608a6.8 6.8 0 0 1-2.974-.775c3.749.422 5.71-2.584 6.248-4.216.302-.914.385-2.27.408-2.95l1.494-.897-1.494-.82c-.842-3.275-5.197-2.028-4.573 1.716L1 12.778c1.585.225 6.291-1.531 7.488-4.105"/></g><defs><clipPath id="a"><path fill="currentColor" d="M0 0h16v16H0z"/></clipPath></defs></svg>