<svg xmlns="http://www.w3.org/2000/svg" fill="none" viewBox="0 0 16 16"><path fill="currentColor" d="M7.302 14.22a.5.5 0 1 0 0-1zm3.965-4.406a.5.5 0 1 0 1 0zm-5.61-6.416.492.085zm3.291 0 .493-.086zm.661 9.132a.5.5 0 1 0-.707.707zm.763 1.47-.354.354a.5.5 0 0 0 .708 0zm3.144-2.437a.5.5 0 0 0-.707-.707zM5.35 3.674v-.5H3.953v1H5.35zm-1.396 0v-.5c-.892 0-1.616.724-1.616 1.617h1c0-.34.276-.617.616-.617zM2.837 4.791h-.5v7.814h1V4.79zm0 7.814h-.5c0 .892.724 1.616 1.616 1.616v-1a.616.616 0 0 1-.616-.616zm1.116 1.116v.5h3.35v-1h-3.35zM9.256 3.674v.5h1.395v-1H9.256zm1.395 0v.5c.34 0 .616.276.616.617h1c0-.893-.723-1.617-1.616-1.617zm1.116 1.117h-.5v5.023h1V4.791zm-6.697.223h.5v-1.06h-1v1.06zm0-1.06h.5a.22.22 0 0 1-.221.22v-1a.78.78 0 0 0-.78.78zm.279-.28v.5c.436 0 .74-.34.8-.69l-.492-.086-.493-.086a.15.15 0 0 1 .047-.086.2.2 0 0 1 .138-.052zm.308-.276.492.085c.034-.194.112-.445.277-.64.148-.174.397-.343.876-.343v-1c-.763 0-1.295.292-1.639.697-.327.385-.45.833-.499 1.115zM7.302 2v.5c.48 0 .729.17.877.344.165.194.243.445.276.64l.493-.086.493-.086c-.05-.282-.173-.73-.5-1.115-.343-.405-.875-.697-1.639-.697zm1.646 1.398-.493.085c.061.35.364.691.8.691v-1c.063 0 .11.026.138.052a.15.15 0 0 1 .048.086zm.308.276v.5a.22.22 0 0 1-.221-.22h1a.78.78 0 0 0-.78-.78zm.279.28h-.5v1.06h1v-1.06zm0 1.06h-.5c0-.091.074-.165.165-.165v1a.835.835 0 0 0 .835-.835zm-.335.335v-.5H5.405v1H9.2zm-3.795 0v-.5c.09 0 .165.074.165.165h-1c0 .461.374.835.835.835zm3.85 7.535-.353.353 1.117 1.117.353-.354.354-.354-1.117-1.116zM10.373 14l.354.354 2.79-2.791-.353-.354-.354-.353-2.79 2.79z"/></svg>