<svg xmlns="http://www.w3.org/2000/svg" fill="none" viewBox="0 0 16 16"><path fill="currentColor" d="M5.188 12.195a.5.5 0 1 1-1-.001.5.5 0 0 1 1 0"/><path fill="currentColor" d="m11.687 6.19.498-.051-.008-.052zm-8.63.417a.5.5 0 1 0 .996.096l-.498-.048zm8.154-.161a.5.5 0 1 0 .995-.101l-.498.05zm-4.744.772-.294.405zm2.327 2.309a.5.5 0 1 0 .588-.809l-.294.405zm-4.108 3.165a.5.5 0 0 0-.032-.999l.016.5zm4.662-5.474.287.41zm0 4.36.287-.41-.005-.003zM6.106 8.766a.5.5 0 1 0-.562.826l.281-.413zm5.106 3.427-.016.5zM8.558 7.162a.5.5 0 1 0 .574.818l-.287-.409zm-3.37 5.033h-.5v1a1 1 0 0 0 1-1zm-.5.5v-.5H3.687a1 1 0 0 0 1 1zm-.501-.5h.5v-1a1 1 0 0 0-1 1zm.5-.5v.5h1.001a1 1 0 0 0-1-1zm2.97-8.822v.5c1.733 0 3.19 1.244 3.54 2.919l.49-.103.49-.102c-.443-2.116-2.293-3.714-4.52-3.714zM3.555 6.655l.498.048c.18-1.876 1.732-3.33 3.604-3.33v-1c-2.407 0-4.372 1.864-4.6 4.234zm8.132-.466-.497.05.02.207.498-.05.498-.051-.021-.206zm-5.22 1.03.294-.405c-1.164-.847-2.603-.889-3.745-.39C1.874 6.922.975 7.992.975 9.398h1c0-.935.59-1.686 1.442-2.058s1.909-.333 2.756.283zm2.62 1.904.295-.405-2.62-1.904-.295.404-.294.405 2.62 1.904zm-7.612.275h-.5c0 2.057 1.885 3.355 3.711 3.294l-.016-.5-.016-.499c-1.418.047-2.68-.948-2.68-2.295zm7.873-2.18.287.41c.887-.622 1.997-.662 2.89-.285.894.376 1.5 1.13 1.5 2.055h1c0-1.417-.938-2.483-2.111-2.977s-2.653-.453-3.853.388zm0 4.36.282-.413-3.524-2.4-.281.414-.281.413 3.523 2.4zm1.864.615.016-.5a2.92 2.92 0 0 1-1.593-.524l-.287.41-.287.409c.655.459 1.402.681 2.135.704zm3.314-2.795h-.5c0 1.331-1.301 2.342-2.798 2.295l-.016.5-.016.5c1.868.059 3.83-1.223 3.83-3.295zM8.845 7.571l.287.41.503-.353-.287-.41-.287-.41-.503.354z"/></svg>