<svg xmlns="http://www.w3.org/2000/svg" fill="none" viewBox="0 0 16 16"><path fill="currentColor" fill-rule="evenodd" d="M7.632 2.753c2.123 0 3.896 1.6 4.321 3.733a.26.26 0 0 0 .23.213c1.575.138 2.813 1.549 2.813 3.269s-1.308 3.207-2.945 3.276h-.11l-.002.003H3.705c-1.491 0-2.7-1.29-2.7-2.885 0-1.397.93-2.564 2.164-2.83a.06.06 0 0 0 .045-.057c0-2.608 1.979-4.722 4.419-4.722m.143 2.28c-1.55 0-2.825 1.155-3.057 2.654q-.005.001-.009.004c-.769.336-1.38 1.06-1.38 2.014 0 1.152.869 1.945 1.86 2.166a.726.726 0 0 0 1.37-.336.73.73 0 0 0-.58-.712l-.147-.014a.72.72 0 0 0-.558.263c-.652-.176-1.145-.707-1.145-1.367 0-.577.364-1.046.9-1.28a1.75 1.75 0 0 1 1.733.177l1.715 1.247a.4.4 0 0 0 .47-.647L7.232 7.953a2.5 2.5 0 0 0-1.65-.474c.292-.957 1.167-1.646 2.193-1.646s1.903.69 2.195 1.648a2.6 2.6 0 0 0-1.317.468.4.4 0 0 0 .46.655 1.9 1.9 0 0 1 1.822-.178c.564.238.937.71.937 1.278 0 .818-.804 1.46-1.757 1.43a1.84 1.84 0 0 1-1.003-.33l-.005-.003-2.305-1.57a.4.4 0 1 0-.45.66l2.305 1.57c.44.307.941.457 1.433.473 1.249.04 2.582-.82 2.582-2.23 0-.963-.64-1.683-1.428-2.016a3 3 0 0 0-.435-.14l-.003-.027-.068-.261c-.386-1.286-1.562-2.228-2.963-2.228" clip-rule="evenodd"/></svg>