<svg xmlns="http://www.w3.org/2000/svg" fill="none" viewBox="0 0 16 16"><path fill="currentColor" d="M9.349 11.169a.5.5 0 1 0 0 1v-1m4.662 1a.5.5 0 1 0 0-1v1m-1.83-2.831a.5.5 0 1 0-1 0h1m-1 4.662a.5.5 0 0 0 1 0h-1M2 13.6h.5V9.733h-1V13.6zm0-3.867h.5a.1.1 0 0 1-.1.1v-1a.9.9 0 0 0-.9.9zm.4-.4v.5h3.867v-1H2.4zm3.867 0v.5a.1.1 0 0 1-.1-.1h1a.9.9 0 0 0-.9-.9zm.4.4h-.5V13.6h1V9.733zm0 3.867h-.5a.1.1 0 0 1 .1-.1v1a.9.9 0 0 0 .9-.9zm-.4.4v-.5H2.4v1h3.867zM2.4 14v-.5a.1.1 0 0 1 .1.1h-1a.9.9 0 0 0 .9.9zm6.933-7.733h.5V2.4h-1v3.867zm0-3.867h.5a.1.1 0 0 1-.1.1v-1a.9.9 0 0 0-.9.9zm.4-.4v.5H13.6v-1H9.733zM13.6 2v.5a.1.1 0 0 1-.1-.1h1a.9.9 0 0 0-.9-.9zm.4.4h-.5v3.867h1V2.4zm0 3.867h-.5a.1.1 0 0 1 .1-.1v1a.9.9 0 0 0 .9-.9zm-.4.4v-.5H9.733v1H13.6zm-3.867 0v-.5a.1.1 0 0 1 .1.1h-1a.9.9 0 0 0 .9.9zM2 6.267h.5V2.4h-1v3.867zM2 2.4h.5a.1.1 0 0 1-.1.1v-1a.9.9 0 0 0-.9.9zm.4-.4v.5h3.867v-1H2.4zm3.867 0v.5a.1.1 0 0 1-.1-.1h1a.9.9 0 0 0-.9-.9zm.4.4h-.5v3.867h1V2.4zm0 3.867h-.5a.1.1 0 0 1 .1-.1v1a.9.9 0 0 0 .9-.9zm-.4.4v-.5H2.4v1h3.867zm-3.867 0v-.5a.1.1 0 0 1 .1.1h-1a.9.9 0 0 0 .9.9zm6.949 5.002v.5h2.331v-1H9.35zm4.662 0v-.5h-2.33v1h2.33zm-2.33 0h.5V9.338h-1v2.33zm0 0h-.5V14h1v-2.331z"/></svg>