<svg xmlns="http://www.w3.org/2000/svg" fill="none" viewBox="0 0 16 16"><path fill="currentColor" fill-rule="evenodd" d="M7.312 1.144c.426-.244.95-.244 1.376 0l5.319 3.04c.432.246.698.705.698 1.203v5.176c0 .498-.266.958-.698 1.204l-5.32 3.04c-.426.243-.95.243-1.375 0l-5.32-3.04a1.39 1.39 0 0 1-.698-1.204V5.387c0-.497.267-.957.698-1.203zm5.11 4.587a.4.4 0 0 0-.54-.163L8 7.658l-3.88-2.09a.401.401 0 0 0-.38.705L7.6 8.352v3.832a.4.4 0 0 0 .8 0V8.352l3.86-2.079a.4.4 0 0 0 .163-.542" clip-rule="evenodd"/><path fill="currentColor" d="M1.216 1.108a.5.5 0 1 1 .723.69l-.006.007a.5.5 0 0 1-.725-.689zM1.216 14.096a.5.5 0 0 1 .723.69l-.007.007a.5.5 0 1 1-.723-.69zM14.214 1.108a.5.5 0 1 1 .723.69l-.006.007a.5.5 0 0 1-.725-.689zM14.215 14.096a.5.5 0 0 1 .723.69l-.008.007a.5.5 0 1 1-.722-.69z"/></svg>