<svg xmlns="http://www.w3.org/2000/svg" fill="none" viewBox="0 0 16 16"><path fill="currentColor" d="M4.4 8.004c0-1.316 1.611-2.108 2.732-1.245l1.957 1.508a.4.4 0 0 0 .488-.634l-.896-.69.233-.186c.3-.234.636-.344.967-.356C10.774 6.37 11.6 7.044 11.6 8c0 1.32-1.59 2.097-2.686 1.243l-.674-.525-.866-.674c0-.015.005-.03.005-.044a.708.708 0 0 0-1.401-.143L5.964 8l.014.143a.71.71 0 0 0 .693.565.7.7 0 0 0 .208-.035l.54.42c-.215.2-.47.329-.726.407a2.2 2.2 0 0 1-.847.09C5.054 9.48 4.4 8.85 4.4 8.004"/><path fill="currentColor" fill-rule="evenodd" d="M8 1.5a6.5 6.5 0 1 1 0 13 6.5 6.5 0 0 1 0-13m1.853 4.102a2.45 2.45 0 0 0-1.43.524l-.004.003-.39.31-.409-.314C6.02 4.893 3.6 5.966 3.6 8.004c0 1.312 1.018 2.226 2.143 2.38h.006c.282.034.72.02 1.178-.12.38-.115.786-.325 1.127-.677l.369.287C10.012 11.112 12.4 10.027 12.4 8c0-1.472-1.267-2.444-2.547-2.398" clip-rule="evenodd"/></svg>