<svg xmlns="http://www.w3.org/2000/svg" fill="none" viewBox="0 0 16 16"><path stroke="currentColor" stroke-linecap="round" stroke-linejoin="round" d="M2.3 3.8v3.6m0-3.6s0 1.8 4.2 1.8 4.2-1.8 4.2-1.8m-8.4 0S2.3 2 6.5 2s4.2 1.8 4.2 1.8M2.3 7.4s0 1.8 4.2 1.8q.533 0 .979-.036M2.3 7.4V11s0 1.8 4.2 1.8m4.2-9v3.6m2.8 3.4c-.371-.942-1.22-1.6-2.206-1.6-1.055 0-1.951.753-2.276 1.8m4.482-.2h-1.003m1.003 0a.2.2 0 0 0 .2-.2V9.467M9.1 12.4c.371.942 1.22 1.6 2.206 1.6 1.055 0 1.951-.753 2.276-1.8m-4.482.2h1.003m-1.003 0a.2.2 0 0 0-.2.2v1.133"/></svg>