<svg xmlns="http://www.w3.org/2000/svg" fill="none" viewBox="0 0 16 16"><path fill="currentColor" d="m1.855 6.489-.244.436zm0-.413.243.436zm6.223 3.757.244.437zm-.23 0-.244.437zm6.224-3.757.243-.437zm0 .413.243.436zM8.078 2.73l-.243.437zm-.23 0-.244-.436zM1.855 9.457l-.244-.436zm12.217 0 .243-.436zM6.343 6.952l.244.437.01-.006.01-.006zm1.782-.52a.5.5 0 1 0-.529-.849l.265.425zM4.48 11.908a.5.5 0 0 0 .488-.873l-.244.436zM1.855 9.87l-.244.437zm8.538 2.053.223.447.01-.005.01-.005zM14.07 9.87l.244.437zM8.079 2.731l-.243.437 5.993 3.344.244-.436.243-.437-5.993-3.344zm5.994 3.758-.244-.437-5.993 3.345.243.436.244.437 5.993-3.345zM7.848 9.833l.244-.436-5.994-3.345-.243.437-.244.436 5.993 3.345zM1.855 6.076l.243.436 5.994-3.344-.244-.437-.244-.436-5.993 3.344zm0 .413.243-.437c.18.1.18.36 0 .46l-.243-.436-.244-.437a.736.736 0 0 0 0 1.286zm6.223 3.344-.243-.436a.26.26 0 0 1 .257 0l-.244.436-.244.437a.74.74 0 0 0 .718 0zm5.994-3.757-.244.436a.264.264 0 0 1 0-.46l.244.437.243.436a.736.736 0 0 0 0-1.286zM8.078 2.73l.244-.436a.74.74 0 0 0-.718 0l.244.436.244.437a.26.26 0 0 1-.257 0zm3.124 5.125-.243.437 2.869 1.6.244-.436.243-.436-2.87-1.602zm-4.859-.904.265.425 1.517-.945-.264-.424-.265-.425-1.517.945zm-1.62 4.52.245-.437-2.87-1.602-.243.437-.244.437 2.87 1.6zM1.856 9.456l-.244-.436a.736.736 0 0 0 0 1.286l.244-.437.243-.437c.18.101.18.36 0 .46zm12.217 0-.244.437a.264.264 0 0 1 0-.46l.244.436.243.437a.736.736 0 0 0 0-1.286zM8.345 5.985h-.5v1a1 1 0 0 0 1-1zm-.5.5v-.5h-1a1 1 0 0 0 1 1zm-.5-.5h.5v-1a1 1 0 0 0-1 1zm.5-.5v.5h1a1 1 0 0 0-1-1zM8.85 12.94h-.5v1a1 1 0 0 0 1-1zm-.5.5v-.5h-1a1 1 0 0 0 1 1zm-.5-.5h.5v-1a1 1 0 0 0-1 1zm.5-.5v.5h1a1 1 0 0 0-1-1zM1.855 9.457l.243.437 4.49-2.505-.245-.437-.243-.437L1.61 9.021zm12.217.413-.244-.437-3.68 2.053.245.437.243.437 3.68-2.053zm-3.68 2.053-.223-.447-2.037 1.019.224.447.223.447 2.037-1.019z"/></svg>