<svg xmlns="http://www.w3.org/2000/svg" fill="none" viewBox="0 0 16 16"><path fill="currentColor" d="M11.58 6.786 7.998 8.783l-1.521-.85.617-.344.009-.004.007-.005.512-.32a.74.74 0 1 0 .372-1.412l-.075-.004a.74.74 0 0 0-.74.74v.01l-.485.302-1.039.58-1.236-.69 3.579-1.998z"/><path fill="currentColor" fill-rule="evenodd" d="M7.053 1.234a2.04 2.04 0 0 1 1.894 0l4.203 2.201a2.19 2.19 0 0 1 1.154 1.944v5.242a2.19 2.19 0 0 1-1.154 1.945l-4.203 2.2a2.04 2.04 0 0 1-1.894 0l-4.203-2.2a2.19 2.19 0 0 1-1.154-1.945V5.379c0-.822.446-1.573 1.154-1.944zm1.155 2.759a.56.56 0 0 0-.416 0l-.065.03-4.07 2.272a.561.561 0 0 0 0 .98l1.179.658-1.18.66a.561.561 0 0 0 0 .979l1.948 1.087a.4.4 0 0 0 .39-.698l-1.573-.88 1.236-.69 2.07 1.155c.17.095.377.095.546 0l2.086-1.165 1.223.699-2.127 1.187-.815.407a.7.7 0 0 0-.302-.102l-.075-.004a.74.74 0 0 0 0 1.48.74.74 0 0 0 .733-.658l.849-.424 2.499-1.394a.561.561 0 0 0-.001-.98l-1.167-.666 1.168-.651a.561.561 0 0 0 0-.98l-4.07-2.271z" clip-rule="evenodd"/></svg>