<svg xmlns="http://www.w3.org/2000/svg" fill="none" viewBox="0 0 16 16"><path fill="currentColor" d="M2.09 14.5a.59.59 0 1 1 .001-1.182.59.59 0 0 1 0 1.182M8 14.5a.59.59 0 1 1 0-1.182.59.59 0 0 1 0 1.182M13.91 14.5a.59.59 0 1 1 0-1.182.59.59 0 0 1 0 1.182"/><path stroke="currentColor" d="M2.09 13.91V9.772a.59.59 0 0 1 .592-.591h10.636a.59.59 0 0 1 .591.59v4.137M8 9.182v4.136m0 0A.59.59 0 1 0 8 14.5a.59.59 0 0 0 0-1.182ZM2.09 14.5a.59.59 0 1 1 .001-1.182.59.59 0 0 1 0 1.182Zm11.82 0a.59.59 0 1 1 0-1.182.59.59 0 0 1 0 1.182ZM5.872 6.227h4.254c.13 0 .237-.106.237-.236V1.736a.236.236 0 0 0-.237-.236H5.873a.236.236 0 0 0-.237.236v4.255c0 .13.106.236.237.236Z"/></svg>