<svg xmlns="http://www.w3.org/2000/svg" fill="none" viewBox="0 0 16 16"><path fill="currentColor" d="M3.956 8.004c0-1.502 1.835-2.397 3.106-1.418l2.176 1.675a.4.4 0 0 0 .488-.634l-1.041-.801.304-.242a1.9 1.9 0 0 1 1.1-.405c1.013-.035 1.955.73 1.955 1.821 0 1.506-1.81 2.386-3.055 1.416L7.262 8.072 7.265 8c0-.384-.291-.7-.665-.738l-.076-.004c-.384 0-.7.292-.738.666L5.782 8l.004.076a.742.742 0 0 0 .981.624l.655.51a2.1 2.1 0 0 1-.86.499 2.5 2.5 0 0 1-.955.102c-.9-.123-1.65-.838-1.65-1.807"/><path fill="currentColor" fill-rule="evenodd" d="M6.796 1.319a2.59 2.59 0 0 1 2.542-.01l3.924 2.2a2.53 2.53 0 0 1 1.299 2.227l-.04 4.463a2.53 2.53 0 0 1-1.28 2.175L9.202 14.68a2.58 2.58 0 0 1-2.54.01l-3.924-2.2a2.53 2.53 0 0 1-1.299-2.227L1.48 5.8a2.53 2.53 0 0 1 1.28-2.174zm3.264 4.06c-.539.02-1.084.201-1.563.574l-.004.003-.461.367-.482-.37C5.8 4.604 3.156 5.78 3.156 8.003c0 1.433 1.111 2.433 2.343 2.602h.006c.307.037.787.021 1.29-.132.426-.13.884-.366 1.261-.769l.441.343c1.738 1.353 4.346.166 4.347-2.047 0-1.606-1.383-2.67-2.784-2.62" clip-rule="evenodd"/></svg>