<svg xmlns="http://www.w3.org/2000/svg" fill="none" viewBox="0 0 16 16"><path fill="currentColor" d="m11.476 8.818.398.38zm2.496-6.79.546-.065a.55.55 0 0 0-.481-.48zm-6.79 2.497-.379-.399zM4.56 8.865l-.53-.145a.55.55 0 0 0 .141.534zm2.576 2.576-.389.39a.55.55 0 0 0 .535.14zm-1.403 1.383a.55.55 0 1 0-1.002-.453l.5.226zm-3.142.586h-.55c0 .304.246.55.55.55zm1.039-2.139a.55.55 0 1 0-.453-1.002l.227.501zm8.34-2.498a.55.55 0 1 0-1.083.193l.541-.097zm-.348 1.18-.541.097zm-1.05 2.566-.318-.449zm-2.09 1.48-.514-.196a.55.55 0 0 0 .832.646zm.763-3.238a.55.55 0 1 0-1.087.17l.544-.084zm-2.21-5.645a.55.55 0 0 0 .194-1.083l-.097.541zm-.985-.735-.097.541zm-2.57 1.052.449.318zM2 7.521l-.449-.318a.55.55 0 0 0 .646.831zm3.069.323a.55.55 0 0 0 .17-1.086l-.085.543zm6.407.974.398.38c3.048-3.198 2.68-6.926 2.644-7.235l-.546.066-.546.065c.023.192.36 3.503-2.348 6.345zm2.496-6.79.065-.546c-.31-.036-4.036-.403-7.234 2.644l.38.399.379.398c2.841-2.708 6.151-2.371 6.345-2.348zm-6.79 2.497-.379-.399A10.14 10.14 0 0 0 4.029 8.72l.53.145.53.146a9.04 9.04 0 0 1 2.473-4.088zM4.56 8.865l-.389.39 2.576 2.575.39-.389.388-.388-2.576-2.577zm2.576 2.576.146.53a10.14 10.14 0 0 0 4.593-2.774l-.398-.379-.398-.38a9.04 9.04 0 0 1-4.088 2.473zm3.686-5.511h-.55a.2.2 0 0 1-.2.2v1.1a1.3 1.3 0 0 0 1.3-1.3zm-.75.75v-.55a.2.2 0 0 1-.2-.2h-1.1a1.3 1.3 0 0 0 1.3 1.3zm-.75-.75h.55c0-.11.09-.2.2-.2v-1.1a1.3 1.3 0 0 0-1.3 1.3zm.75-.75v.55c.11 0 .2.09.2.2h1.1a1.3 1.3 0 0 0-1.3-1.3zm-4.84 7.417-.501-.226a.83.83 0 0 1-.758.489v1.1c.784 0 1.458-.468 1.76-1.136zm-1.26.813v-.55h-1.38v1.1h1.38zm-1.38 0h.55v-1.381h-1.1v1.381zm0-1.381h.55c0-.336.199-.627.488-.758l-.226-.501-.227-.501a1.93 1.93 0 0 0-1.136 1.76zm8.836-3.16-.541.097.194 1.084.541-.096.541-.097-.193-1.084zm.194 1.085-.541.096a2.04 2.04 0 0 1-.827 2.02l.318.449.318.449a3.14 3.14 0 0 0 1.273-3.111zm-1.05 2.565-.318-.449-2.09 1.481.318.449.318.449 2.09-1.481zm-2.09 1.48.514.197v-.001l.001-.002.002-.006.006-.017a3 3 0 0 0 .081-.256c.048-.17.107-.414.156-.716a7.8 7.8 0 0 0 .003-2.437l-.543.086-.544.085a6.7 6.7 0 0 1-.002 2.09 5.4 5.4 0 0 1-.174.743l-.012.034-.002.006v-.001zm-1.35-9.425.097-.541-1.082-.194-.097.542-.097.541 1.082.194zm-1.082-.193.097-.542A3.14 3.14 0 0 0 3.03 5.116l.449.317.449.318a2.04 2.04 0 0 1 2.024-.829zm-2.57 1.052-.449-.318-1.479 2.088.45.318.448.318L3.928 5.75zM2 7.521c.197.513.197.513.196.514q-.001 0 0 0l.005-.002.034-.012q.048-.016.15-.046a5 5 0 0 1 .594-.129 6.7 6.7 0 0 1 2.09-.002l.085-.543.085-.543a7.8 7.8 0 0 0-2.436.002 6.5 6.5 0 0 0-.917.218l-.073.026-.006.002h-.002c-.001 0-.001.001.195.515"/></svg>