<svg xmlns="http://www.w3.org/2000/svg" fill="none" viewBox="0 0 16 16"><path stroke="currentColor" stroke-linecap="round" stroke-linejoin="round" d="M10.4 2v2.04c0 .199.161.36.36.36h2.04m-9.6 9.24V2.36A.36.36 0 0 1 3.56 2h6.99a.36.36 0 0 1 .255.105l1.89 1.89a.36.36 0 0 1 .105.254v9.391a.36.36 0 0 1-.36.36H3.56a.36.36 0 0 1-.36-.36m3.98-6.59.624-1.323c.08-.17.312-.17.392 0l.623 1.322 1.394.213c.179.028.25.258.12.39L9.326 8.68l.238 1.453c.03.186-.156.328-.316.24L8 9.687l-1.247.686c-.16.088-.347-.054-.316-.24l.238-1.453-1.009-1.028c-.13-.132-.058-.362.12-.39z"/></svg>