<svg xmlns="http://www.w3.org/2000/svg" fill="none" viewBox="0 0 16 16"><path stroke="currentColor" stroke-linecap="round" stroke-linejoin="round" d="M10 2.012v2.445c0 .199.16.36.36.36h2.442M3.198 13.64V2.36a.36.36 0 0 1 .36-.36h6.99a.36.36 0 0 1 .255.105l1.89 1.89a.36.36 0 0 1 .105.254v9.391a.36.36 0 0 1-.36.36h-8.88a.36.36 0 0 1-.36-.36m3.98-6.59.624-1.323c.08-.17.311-.17.391 0l.624 1.322 1.394.213c.179.028.25.258.12.39L9.324 8.68l.238 1.453c.03.186-.156.328-.317.24l-1.246-.686-1.247.686c-.16.088-.347-.054-.317-.24l.239-1.453-1.01-1.028c-.129-.132-.057-.362.122-.39z"/></svg>