<svg xmlns="http://www.w3.org/2000/svg" fill="none" viewBox="0 0 16 16"><path fill="currentColor" d="M9.2 13.6a.5.5 0 0 0 0-1zm4.3-4.7a.5.5 0 0 0 1 0zM2 4.2a.5.5 0 0 0 0 1zm12 1a.5.5 0 0 0 0-1zM3.428 3.171a.5.5 0 0 0 .744.67zm.75.663a.5.5 0 1 0-.744-.67zm1.05-.663a.5.5 0 0 0 .744.67zm.75.663a.5.5 0 0 0-.744-.67zm1.05-.663a.5.5 0 0 0 .744.67zm.75.663a.5.5 0 0 0-.744-.67zM13 10.1a.5.5 0 0 0-1 0zm-.5 3.6-.354.354a.5.5 0 0 0 .708 0zm-1.146-1.854a.5.5 0 0 0-.708.707zm3 .707a.5.5 0 0 0-.708-.707zM9.2 13.1v-.5h-6v1h6zm-6 0v-.5a.7.7 0 0 1-.7-.7h-1a1.7 1.7 0 0 0 1.7 1.7zM2 11.9h.5V3.5h-1v8.4zm0-8.4h.5a.7.7 0 0 1 .7-.7v-1a1.7 1.7 0 0 0-1.7 1.7zm1.2-1.2v.5h9.6v-1H3.2zm9.6 0v.5a.7.7 0 0 1 .7.7h1a1.7 1.7 0 0 0-1.7-1.7zM14 3.5h-.5v5.4h1V3.5zM2 4.7v.5h12v-1H2zm1.8-1.194.372.334.006-.006-.372-.335-.372-.334-.006.006zm1.8 0 .372.334.006-.006-.372-.335-.372-.334-.006.006zm1.8 0 .372.334.006-.006-.372-.335-.372-.334-.006.006zm5.1 6.594H12v3.6h1v-3.6zm0 3.6.354-.354-1.5-1.5L11 12.2l-.354.354 1.5 1.5zm0 0 .354.354 1.5-1.5L14 12.2l-.354-.354-1.5 1.5z"/></svg>