<svg xmlns="http://www.w3.org/2000/svg" fill="none" viewBox="0 0 16 16"><path fill="currentColor" d="M8.6 13.6a.5.5 0 0 0 0-1zm4.9-5.3a.5.5 0 0 0 1 0zm.103 3.532-.355-.353zm-1.762 1.775.34.367.002-.002zm-.493-.01-.355.351zm-1.751-1.765-.355.352zm0-1.928-.355-.352zm1.94 0-.356.352zm.063.064-.355.352a.5.5 0 0 0 .71 0zm.064-.064-.355-.352zm1.939 0-.355.352zM2 4.2a.5.5 0 0 0 0 1zm12 1a.5.5 0 0 0 0-1zM3.428 3.171a.5.5 0 0 0 .744.67zm.75.663a.5.5 0 1 0-.744-.67zm1.05-.663a.5.5 0 0 0 .744.67zm.75.663a.5.5 0 0 0-.744-.67zm1.05-.663a.5.5 0 0 0 .744.67zm.75.663a.5.5 0 0 0-.744-.67zM8.6 13.1v-.5H3.2v1h5.4zm-5.4 0v-.5a.7.7 0 0 1-.7-.7h-1a1.7 1.7 0 0 0 1.7 1.7zM2 11.9h.5V3.5h-1v8.4zm0-8.4h.5a.7.7 0 0 1 .7-.7v-1a1.7 1.7 0 0 0-1.7 1.7zm1.2-1.2v.5h9.6v-1H3.2zm9.6 0v.5a.7.7 0 0 1 .7.7h1a1.7 1.7 0 0 0-1.7-1.7zM14 3.5h-.5v4.8h1V3.5zm0 7.368h-.5c0 .229-.09.449-.252.611l.355.353.355.352c.348-.35.542-.823.542-1.316zm-.397.964-.355-.353c-.604.61-1.149 1.201-1.748 1.763l.341.365.342.365c.616-.577 1.207-1.216 1.775-1.788zm-1.762 1.775-.339-.368a.14.14 0 0 1 .2.005l-.354.352-.355.352a.86.86 0 0 0 1.187.026zm-.493-.01.355-.353-1.751-1.764-.355.352-.355.352 1.75 1.764zm-1.751-1.765.355-.353a.87.87 0 0 1 0-1.223l-.355-.352-.355-.352a1.87 1.87 0 0 0 0 2.632zm0-1.928.355.352a.866.866 0 0 1 1.23 0l.354-.352.355-.352a1.866 1.866 0 0 0-2.649 0zm1.94 0-.356.352.064.064.355-.352.355-.352-.064-.064zm.063.064.355.352.064-.064-.355-.352-.355-.352-.064.064zm.064-.064.354.352a.87.87 0 0 1 .615-.256V9c-.498 0-.974.2-1.324.552zm.97-.404v.5c.23 0 .451.092.614.256l.355-.352.355-.352A1.87 1.87 0 0 0 12.633 9zm.969.404-.355.352a.87.87 0 0 1 .252.612h1c0-.493-.194-.966-.542-1.316zM2 4.7v.5h12v-1H2zm1.8-1.194.372.334.006-.006-.372-.335-.372-.334-.006.006zm1.8 0 .372.334.006-.006-.372-.335-.372-.334-.006.006zm1.8 0 .372.334.006-.006-.372-.335-.372-.334-.006.006z"/></svg>