<svg xmlns="http://www.w3.org/2000/svg" fill="none" viewBox="0 0 16 16"><path fill="currentColor" d="m11.436 7.358-.502 2.824-4.398-.834.127-.63.002-.008.368-2.098z"/><path fill="currentColor" fill-rule="evenodd" d="M2.342 3.133A2.635 2.635 0 0 1 5.388.987l7.433 1.29a2.635 2.635 0 0 1 2.146 3.045l-1.309 7.545a2.635 2.635 0 0 1-3.046 2.146l-7.433-1.29a2.635 2.635 0 0 1-2.146-3.045zm9.88 2.3a.4.4 0 0 0-.471.313l-.166.825-4.754-.804-.092-.006a.46.46 0 0 0-.409.289l-.024.089-.427 2.422-.58 2.892a.76.76 0 0 0-.486.63l-.004.077.004.077a.757.757 0 0 0 1.51-.077.75.75 0 0 0-.24-.55l.296-1.478 4.748.901c.25.047.49-.118.535-.368l.634-3.564h-.001l.24-1.198a.4.4 0 0 0-.313-.47m-7.107-2.35a.46.46 0 0 0-.411.287l-.025.089-1.215 6.719a.4.4 0 0 0 .787.142l1.153-6.383 6.025 1.076a.401.401 0 0 0 .14-.788L5.208 3.09z" clip-rule="evenodd"/></svg>