<svg xmlns="http://www.w3.org/2000/svg" fill="none" viewBox="0 0 16 16"><path fill="currentColor" d="m5.949 9.753.433.25.007-.013zm4.245.124.454-.211zm.186 1.419.492.088zm4.138-.801-.5.035zM13.5 7.422l-.42.27zM7.997 4.415v-.5zm-6.515 6.087.498.034zm4.177.791.494-.074zm-.008-.651.496.062zm-4.17.735.498-.033zm3.95.199v.5zm-3.735 0v.5zm12.823-.19.499.034zm-3.912.2v-.5zm3.697 0v.5zm-6.648-.766-.353-.354a.5.5 0 0 0 .353.854zm.388-.388.354-.353a.5.5 0 0 0-.707 0zm.388.388v.5a.5.5 0 0 0 .353-.854zM5.949 9.753l.44.237c.22-.41.587-.724 1.027-.88l-.167-.47-.167-.472a2.88 2.88 0 0 0-1.574 1.348zm1.3-1.114.167.472c.44-.156.921-.142 1.351.04l.194-.462.193-.46a2.88 2.88 0 0 0-2.072-.061zm1.712.05-.194.461c.43.18.777.515.974.938l.453-.211.454-.211a2.88 2.88 0 0 0-1.494-1.438zm1.233 1.188-.453.21c.164.352.214.743.146 1.121l.493.088.492.088c.103-.58.026-1.18-.224-1.718zm4.324.618.498-.035a7.03 7.03 0 0 0-1.095-3.308l-.42.27-.422.27c.547.852.87 1.828.94 2.838zM13.5 7.422l.421-.27a7.03 7.03 0 0 0-2.548-2.376l-.24.439-.24.439a6.03 6.03 0 0 1 2.186 2.038zm-2.367-2.207.24-.439a7.03 7.03 0 0 0-3.377-.861v1c1.013 0 2.009.253 2.897.739zm-3.136-.8v-.5c-1.18 0-2.341.298-3.376.865l.24.438.24.439a6.03 6.03 0 0 1 2.896-.742zm-3.136.803-.24-.438a7.03 7.03 0 0 0-2.546 2.378l.421.27.421.27a6.03 6.03 0 0 1 2.184-2.041zm-2.365 2.21-.421-.27a7.03 7.03 0 0 0-1.092 3.31l.499.034.498.034c.07-1.01.392-1.986.937-2.839zm3.163 3.866.494-.075a1.9 1.9 0 0 1-.006-.515l-.496-.062-.496-.063q-.05.396.01.79zm-.008-.652.496.062c.03-.247.11-.486.235-.701l-.433-.25-.434-.249c-.19.33-.313.696-.36 1.075zm-4.17-.14-.498-.035q-.032.473-.002.943l.5-.033.498-.033a6 6 0 0 1 .001-.808zm3.95 1.074v-.5H1.696v1H5.43zm9.088-.19.499.034q.031-.479-.002-.96l-.498.035-.5.035q.03.413.002.823zm-3.912.2v.5h3.697v-1h-3.697zm3.912-.2-.5-.033a.286.286 0 0 1 .284-.268v1c.367 0 .689-.28.715-.665zm-8.86-.092-.494.074a.25.25 0 0 1 .05-.19.28.28 0 0 1 .216-.102v1c.491 0 .784-.453.722-.857zm-4.179.083-.499.033a.714.714 0 0 0 .715.666v-1c.14 0 .273.109.283.268zm8.9-.081-.493-.088c-.072.409.218.877.72.877v-1c.097 0 .175.05.218.105.04.053.06.123.047.194zM6.15 9.439l.352-.356-2.955-2.919-.352.356-.351.355L5.8 9.795zm3.779 0 .356.35 2.874-2.918-.357-.351-.356-.351-2.873 2.92zm-2.274 1.38.354.354.388-.387-.354-.354-.353-.353-.388.387zm.388-.387-.353.354.387.388.354-.354.353-.354-.387-.387zm.388.388v-.5h-.776v1h.776z"/></svg>