<svg xmlns="http://www.w3.org/2000/svg" fill="none" viewBox="0 0 16 16"><path fill="currentColor" d="m13.773 7.465-5.24-5.239a.775.775 0 0 0-1.093 0L6.354 3.314l1.38 1.38a.92.92 0 0 1 1.164 1.17l1.329 1.33a.918.918 0 0 1 .95 1.52.918.918 0 0 1-1.502-.998L8.43 6.478V9.74a.924.924 0 0 1 .244 1.474.92.92 0 0 1-1.304 0 .917.917 0 0 1 0-1.299.9.9 0 0 1 .302-.203V6.418a.917.917 0 0 1-.498-1.205L5.818 3.85 2.225 7.44c-.3.303-.3.793 0 1.095l5.24 5.239a.773.773 0 0 0 1.093 0l5.215-5.215a.77.77 0 0 0 0-1.094"/></svg>