<svg xmlns="http://www.w3.org/2000/svg" fill="none" viewBox="0 0 16 16"><path fill="currentColor" fill-rule="evenodd" d="M8 1.5a6.5 6.5 0 1 1 0 13 6.5 6.5 0 0 1 0-13m.523 9.165a.575.575 0 0 0-.811.042l-.006.006a.576.576 0 0 0 .855.77l.005-.006a.575.575 0 0 0-.043-.812M8 4.327c-.481 0-.985.153-1.378.486-.406.345-.661.855-.661 1.487a.575.575 0 0 0 1.15 0c0-.3.112-.488.255-.61A1 1 0 0 1 8 5.478c.25 0 .479.08.635.212.143.122.255.31.255.61 0 .224-.053.346-.112.434-.075.114-.177.202-.364.37-.17.154-.399.365-.573.672-.18.318-.282.702-.282 1.187a.575.575 0 0 0 1.15 0c0-.314.063-.497.133-.62.075-.133.18-.238.342-.384.145-.13.377-.326.551-.587.191-.286.305-.632.305-1.072 0-.631-.256-1.142-.661-1.487A2.14 2.14 0 0 0 8 4.327" clip-rule="evenodd"/></svg>