<svg xmlns="http://www.w3.org/2000/svg" fill="none" viewBox="0 0 16 16"><path fill="currentColor" fill-rule="evenodd" d="M2.338 3.13A2.637 2.637 0 0 1 5.386.982l7.44 1.291a2.636 2.636 0 0 1 2.146 3.047l-1.31 7.55a2.636 2.636 0 0 1-3.048 2.147l-7.438-1.29a2.637 2.637 0 0 1-2.148-3.047zM4.43 7.556a.52.52 0 0 0-.471.322l-.03.1-.175.952-.348 1.787a.517.517 0 0 0 .413.606l6.903 1.272c.28.051.55-.134.601-.415l.636-3.45a.4.4 0 0 0-.787-.146l-.585 3.173-6.341-1.17.294-1.505v-.004l.123-.674 4.477.858-.222 1.098a.4.4 0 0 0 .784.16l.28-1.38a.517.517 0 0 0-.409-.61l-5.039-.965zm.744-4.16a.52.52 0 0 0-.498.422l-.472 2.56a.4.4 0 0 0 .787.145l.42-2.281 6.345 1.169-.25 1.354-2.467-.456a.73.73 0 0 0-.52-.423l-.146-.015a.725.725 0 0 0-.71.578l-.015.147.015.146a.725.725 0 0 0 1.231.355l2.748.505c.28.052.55-.133.601-.414l.352-1.91a.516.516 0 0 0-.415-.601L5.278 3.404z" clip-rule="evenodd"/></svg>