<svg xmlns="http://www.w3.org/2000/svg" fill="none" viewBox="0 0 16 16"><path fill="currentColor" d="M14 1.333 13.333 2zM2 1.333 2.667 2zM14 10.667 13.333 10zM2 10.667 2.667 10zM6 12h4zM6.667 14h2.666zM8 2C5.333 2 3.968 3.3 4 5.333c.015.992.333 1.667 1 2.334.667.666 1 1 1 2.333h4c0-1.333.333-1.667 1-2.333.666-.667.984-1.342 1-2.334C12.032 3.3 10.667 2 8 2"/><path stroke="currentColor" stroke-linecap="round" stroke-linejoin="round" d="M14 1.333 13.333 2M2 1.333 2.667 2M14 10.667 13.333 10M2 10.667 2.667 10M6 12h4m-3.333 2h2.666M8 2C5.333 2 3.968 3.3 4 5.333c.015.992.333 1.667 1 2.334.667.666 1 1 1 2.333h4c0-1.333.333-1.667 1-2.333.666-.667.984-1.342 1-2.334C12.032 3.3 10.667 2 8 2"/></svg>