<svg xmlns="http://www.w3.org/2000/svg" fill="none" viewBox="0 0 16 16"><path fill="currentColor" d="M2 12.553a.5.5 0 1 0 0 1zm12 1a.5.5 0 0 0 0-1zm-9.088-3.364A.5.5 0 0 0 5.72 9.6zm2.496-1.195a.5.5 0 0 0 .962.272zm2.872.606a.5.5 0 0 0 .808.59zm-2.65-.334a.5.5 0 0 0 .962-.272zM6.92 8a.5.5 0 1 0-1 0zm-1 1.263a.5.5 0 0 0 1 0zM10.08 8a.5.5 0 1 0-1 0zm-1 1.263a.5.5 0 1 0 1 0zM2 13.053v.5c.875 0 1.763-.698 1.763-1.764h-1c0 .45-.375.764-.763.764zm1.263-1.264h.5V7.369h-1v4.422zm0-4.42h.5c0-1.93 1.73-3.922 4.237-3.922v-1c-3.05 0-5.237 2.43-5.237 4.921zM14 13.052v-.5a.766.766 0 0 1-.763-.764h-1c0 1.066.888 1.764 1.763 1.764zm-1.263-1.264h.5V7.37h-1v4.42zm0-4.42h.5c0-2.492-2.186-4.922-5.237-4.922v1c2.507 0 4.237 1.992 4.237 3.921zM8 12.42v.5c.933 0 1.802-.188 2.457-.515.624-.312 1.2-.836 1.2-1.564h-1c0 .145-.13.41-.648.67-.488.244-1.198.41-2.009.41zm3.158-1.579h.5c0-.727-.577-1.251-1.201-1.564-.655-.327-1.524-.515-2.457-.515v1c.811 0 1.52.166 2.01.41.518.259.648.524.648.67zM8 9.263v-.5c-.933 0-1.802.188-2.457.515-.624.313-1.2.837-1.2 1.564h1c0-.145.13-.41.648-.67.488-.243 1.198-.409 2.009-.409zm-3.158 1.58h-.5c0 .726.577 1.25 1.201 1.563.655.327 1.524.515 2.457.515v-1c-.811 0-1.521-.165-2.01-.41-.518-.259-.648-.524-.648-.669zm.474-.948L5.72 9.6c-.223-.306-.378-.759-.378-1.284h-1c0 .712.208 1.377.57 1.873zm-.474-1.58h.5c0-.517.15-.966.37-1.272.219-.307.476-.438.71-.438v-1c-.64 0-1.172.364-1.524.857-.353.494-.556 1.151-.556 1.854zm1.58-2.21v.5c.232 0 .49.131.709.438.218.306.369.755.369 1.273h1c0-.703-.203-1.36-.556-1.854-.352-.493-.884-.857-1.523-.857zM8 8.315h-.5q-.002.367-.092.679l.481.136.481.136c.085-.297.13-.617.13-.95zm2.684 1.58.404.294c.362-.496.57-1.161.57-1.873h-1c0 .525-.155.978-.378 1.284zm.474-1.58h.5c0-.702-.203-1.359-.556-1.853-.352-.493-.884-.857-1.523-.857v1c.233 0 .49.131.71.438.218.306.369.755.369 1.273zm-1.579-2.21v-.5c-.64 0-1.171.364-1.523.857-.353.494-.556 1.151-.556 1.854h1c0-.518.15-.967.37-1.273.219-.307.476-.438.709-.438zM8 8.315h-.5c0 .334.045.654.13.951l.48-.136.482-.136a2.5 2.5 0 0 1-.092-.678zM6.421 8h-.5v1.263h1V8zM9.58 8h-.5v1.263h1V8z"/></svg>