<svg xmlns="http://www.w3.org/2000/svg" fill="none" viewBox="0 0 16 16"><path stroke="currentColor" stroke-linecap="round" stroke-linejoin="round" d="M14 7.49v5.177c0 .736-.597 1.333-1.333 1.333H3.333A1.333 1.333 0 0 1 2 12.667V3.333C2 2.597 2.597 2 3.333 2h5.178m2.287 1.048.752-.75a1.015 1.015 0 0 1 1.435 0l.718.717c.396.396.396 1.04 0 1.436l-.751.75m-2.154-2.153-4.88 4.88a1 1 0 0 0-.293.629l-.123 1.39a.508.508 0 0 0 .55.551l1.391-.123c.237-.02.46-.125.628-.293l4.88-4.88m-2.153-2.154 2.154 2.154"/></svg>