<svg xmlns="http://www.w3.org/2000/svg" fill="none" viewBox="0 0 16 16"><path fill="currentColor" d="M5.833 7.2a.5.5 0 0 0 1 0zm3.353.565-.431-.253zm-2.853 2.902-.31-.392a.5.5 0 0 0 .31.892zm3.334.5a.5.5 0 0 0 0-1zM2 13.6h.5V2.4h-1v11.2zM2 2.4h.5a.1.1 0 0 1-.1.1v-1a.9.9 0 0 0-.9.9zm.4-.4v.5h11.2v-1H2.4zm11.2 0v.5a.1.1 0 0 1-.1-.1h1a.9.9 0 0 0-.9-.9zm.4.4h-.5v11.2h1V2.4zm0 11.2h-.5a.1.1 0 0 1 .1-.1v1a.9.9 0 0 0 .9-.9zm-.4.4v-.5H2.4v1h11.2zM2.4 14v-.5a.1.1 0 0 1 .1.1h-1a.9.9 0 0 0 .9.9zm3.933-6.8h.5v-.267h-1V7.2zm0-.267h.5c0-.626.484-1.1 1.039-1.1v-1c-1.144 0-2.039.96-2.039 2.1zm1.539-1.6v.5c.555 0 1.038.474 1.038 1.1h1c0-1.14-.894-2.1-2.038-2.1zm1.538 1.6h-.5c0 .215-.057.412-.155.58l.431.252.432.253a2.14 2.14 0 0 0 .292-1.085zm-.224.832-.431-.253c-.308.526-.97 1.207-1.596 1.784a24 24 0 0 1-1.114.961q-.012.009-.017.014l-.004.003h-.001l.31.393.311.391.002-.001.025-.02.072-.058.26-.215c.216-.182.513-.438.833-.732.624-.575 1.39-1.345 1.782-2.014zm-2.853 2.902v.5h3.334v-1H6.333z"/></svg>