<svg xmlns="http://www.w3.org/2000/svg" fill="none" viewBox="0 0 16 16"><path fill="currentColor" fill-rule="evenodd" d="M2 2.83A.83.83 0 0 1 2.83 2h10.34a.83.83 0 0 1 .83.83v10.34a.83.83 0 0 1-.83.83H2.83a.83.83 0 0 1-.83-.83zM8.826 8.65c.138.096.25.253.25.582s-.112.486-.25.582C8.658 9.928 8.382 10 8 10s-.658-.072-.826-.187c-.138-.096-.25-.253-.25-.582 0-.33.112-.486.25-.582.168-.116.444-.187.826-.187s.658.071.826.187M6.508 8C6.18 8.29 6 8.708 6 9.23c0 .595.232 1.053.65 1.342.389.269.883.351 1.35.351s.961-.082 1.35-.35c.418-.29.65-.748.65-1.342 0-.523-.18-.941-.508-1.231.328-.29.508-.708.508-1.23 0-.595-.232-1.053-.65-1.342-.389-.269-.883-.351-1.35-.351s-.961.082-1.35.35c-.418.29-.65.748-.65 1.342 0 .523.18.941.508 1.231M8 7.538c.382 0 .658-.071.826-.187.138-.096.25-.253.25-.582s-.112-.486-.25-.582C8.658 6.072 8.382 6 8 6s-.658.072-.826.187c-.138.096-.25.253-.25.582 0 .33.112.486.25.582.168.116.444.187.826.187" clip-rule="evenodd"/></svg>