<svg xmlns="http://www.w3.org/2000/svg" fill="none" viewBox="0 0 16 16"><path fill="currentColor" d="M6.833 9.333a.5.5 0 1 0-1 0zm-.5-2-.493-.082a.5.5 0 0 0 .493.582zm.334-2v-.5a.5.5 0 0 0-.494.418zm2.666.5a.5.5 0 1 0 0-1zM2 13.6h.5V2.4h-1v11.2zM2 2.4h.5a.1.1 0 0 1-.1.1v-1a.9.9 0 0 0-.9.9zm.4-.4v.5h11.2v-1H2.4zm11.2 0v.5a.1.1 0 0 1-.1-.1h1a.9.9 0 0 0-.9-.9zm.4.4h-.5v11.2h1V2.4zm0 11.2h-.5a.1.1 0 0 1 .1-.1v1a.9.9 0 0 0 .9-.9zm-.4.4v-.5H2.4v1h11.2zM2.4 14v-.5a.1.1 0 0 1 .1.1h-1a.9.9 0 0 0 .9.9zm3.933-4.667h-.5c0 1.111 1.08 1.834 2.167 1.834v-1c-.754 0-1.167-.472-1.167-.834zM8 10.667v.5c1.18 0 2.167-.875 2.167-2.167h-1c0 .708-.507 1.167-1.167 1.167zM9.667 9h.5c0-.557-.114-1.097-.422-1.508-.325-.435-.816-.659-1.412-.659v1c.325 0 .5.11.612.258.129.172.222.466.222.909zM8.333 7.333v-.5h-2v1h2zm-2 0 .494.083.333-2-.493-.083-.494-.082-.333 2zm.334-2v.5h2.666v-1H6.667z"/></svg>