<svg xmlns="http://www.w3.org/2000/svg" fill="none" viewBox="0 0 16 16"><path fill="currentColor" d="M2 13.6h.5V2.4h-1v11.2zM2 2.4h.5a.1.1 0 0 1-.1.1v-1a.9.9 0 0 0-.9.9zm.4-.4v.5h11.2v-1H2.4zm11.2 0v.5a.1.1 0 0 1-.1-.1h1a.9.9 0 0 0-.9-.9zm.4.4h-.5v11.2h1V2.4zm0 11.2h-.5a.1.1 0 0 1 .1-.1v1a.9.9 0 0 0 .9-.9zm-.4.4v-.5H2.4v1h11.2zM2.4 14v-.5a.1.1 0 0 1 .1.1h-1a.9.9 0 0 0 .9.9zM8 10.667v-.5c-.414 0-.713-.078-.894-.203-.15-.104-.273-.274-.273-.63h-1c0 .643.251 1.14.704 1.452.422.292.957.38 1.463.38zM6.333 9.333h.5c0-.356.122-.526.273-.63.181-.126.48-.203.894-.203v-1c-.506 0-1.041.09-1.463.38-.453.313-.704.81-.704 1.453zM8 8v.5c.414 0 .713.077.894.203.15.104.273.274.273.63h1c0-.643-.251-1.14-.704-1.453C9.04 7.59 8.506 7.5 8 7.5zm1.667 1.333h-.5c0 .357-.122.527-.273.63-.181.126-.48.204-.894.204v1c.506 0 1.041-.09 1.463-.38.453-.314.704-.81.704-1.454zM8 5.333v-.5c-.506 0-1.041.09-1.463.38-.453.314-.704.81-.704 1.454h1c0-.357.122-.527.273-.63.181-.126.48-.204.894-.204zM6.333 6.667h-.5c0 .643.251 1.14.704 1.453.422.29.957.38 1.463.38v-1c-.414 0-.713-.077-.894-.203-.15-.104-.273-.274-.273-.63zM8 8v.5c.506 0 1.041-.09 1.463-.38.453-.313.704-.81.704-1.453h-1c0 .356-.122.526-.273.63-.181.126-.48.203-.894.203zm1.667-1.333h.5c0-.644-.251-1.14-.704-1.453-.422-.291-.957-.38-1.463-.38v1c.414 0 .713.077.894.202.15.104.273.274.273.63z"/></svg>