<svg xmlns="http://www.w3.org/2000/svg" fill="none" viewBox="0 0 16 16"><path fill="currentColor" d="M5.833 6.667a.5.5 0 0 0 1 0zm2.5.833a.5.5 0 0 0 0 1zm-1.5 1.833a.5.5 0 1 0-1 0zM2 13.6h.5V2.4h-1v11.2zM2 2.4h.5a.1.1 0 0 1-.1.1v-1a.9.9 0 0 0-.9.9zm.4-.4v.5h11.2v-1H2.4zm11.2 0v.5a.1.1 0 0 1-.1-.1h1a.9.9 0 0 0-.9-.9zm.4.4h-.5v11.2h1V2.4zm0 11.2h-.5a.1.1 0 0 1 .1-.1v1a.9.9 0 0 0 .9-.9zm-.4.4v-.5H2.4v1h11.2zM2.4 14v-.5a.1.1 0 0 1 .1.1h-1a.9.9 0 0 0 .9.9zm3.933-7.333h.5c0-.362.413-.834 1.167-.834v-1c-1.087 0-2.167.723-2.167 1.834zM8 5.333v.5c.754 0 1.167.472 1.167.834h1c0-1.111-1.08-1.834-2.167-1.834zm1.667 1.334h-.5c0 .279-.078.48-.193.607-.106.118-.294.226-.64.226v1c.573 0 1.052-.19 1.382-.555.322-.356.45-.821.45-1.278zM6.333 9.333h-.5c0 1.111 1.08 1.834 2.167 1.834v-1c-.754 0-1.167-.472-1.167-.834zM8 10.667v.5c1.087 0 2.167-.723 2.167-1.834h-1c0 .362-.413.834-1.167.834zm1.667-1.334h.5c0-.457-.129-.922-.451-1.278-.33-.365-.809-.555-1.383-.555v1c.347 0 .535.108.641.226.115.126.193.328.193.607z"/></svg>