<svg xmlns="http://www.w3.org/2000/svg" fill="none" viewBox="0 0 16 16"><path fill="currentColor" fill-rule="evenodd" d="M2.83 2a.83.83 0 0 0-.83.83v10.34c0 .458.372.83.83.83h10.34a.83.83 0 0 0 .83-.83V2.83a.83.83 0 0 0-.83-.83zm6.247 6.923C9.077 9.577 8.609 10 8 10c-.696 0-1.077-.435-1.077-.77a.462.462 0 0 0-.923 0c0 1.026.997 1.693 2 1.693 1.09 0 2-.807 2-2 0-.514-.105-1.012-.389-1.392-.3-.401-.754-.608-1.303-.608H7.006L7.16 6h2.07a.462.462 0 0 0 0-.923H6.77a.46.46 0 0 0-.456.386l-.308 1.846a.462.462 0 0 0 .456.537h1.846c.3 0 .462.101.564.238.119.159.205.43.205.84" clip-rule="evenodd"/></svg>