<svg xmlns="http://www.w3.org/2000/svg" fill="none" viewBox="0 0 16 16"><path fill="currentColor" d="M14 2h.5a.5.5 0 0 0-.5-.5zm-4-.5a.5.5 0 0 0 0 1zM7.646 7.646a.5.5 0 1 0 .708.708zM13.5 6a.5.5 0 0 0 1 0zm1 2.667a.5.5 0 0 0-1 0zM7.333 2.5a.5.5 0 1 0 0-1zM14 2v-.5h-4v1h4zm0 0-.354-.354-6 6L8 8l.354.354 6-6zm0 0h-.5v4h1V2zm0 6.667h-.5v4h1v-4zm0 4h-.5c0 .46-.373.833-.833.833v1c1.012 0 1.833-.82 1.833-1.833zM12.667 14v-.5H3.333v1h9.334zm-9.334 0v-.5a.833.833 0 0 1-.833-.833h-1c0 1.012.82 1.833 1.833 1.833zM2 12.667h.5V3.333h-1v9.334zm0-9.334h.5c0-.46.373-.833.833-.833v-1C2.321 1.5 1.5 2.32 1.5 3.333zM3.333 2v.5h4v-1h-4z"/></svg>