<svg xmlns="http://www.w3.org/2000/svg" fill="none" viewBox="0 0 16 16"><path fill="currentColor" d="M8.86 4.708v4.746a.66.66 0 0 0-.308.491l-.003.068.003.068a.66.66 0 1 0 1.02-.618V7.14h1.72v4.152H4.708V9.88h2.076a.356.356 0 1 0 0-.71H4.708V7.63h2.076a.356.356 0 1 0 0-.71H4.708V5.517h2.076a.356.356 0 0 0 .356-.355v-.455z"/><path fill="currentColor" fill-rule="evenodd" d="M2.338 3.13A2.637 2.637 0 0 1 5.385.983l7.44 1.29a2.636 2.636 0 0 1 2.146 3.047l-1.309 7.551a2.636 2.636 0 0 1-3.047 2.146l-7.44-1.29A2.637 2.637 0 0 1 1.03 10.68zm4.689.866a.6.6 0 0 0-.598.6v.211H4.596a.6.6 0 0 0-.6.6v5.997a.6.6 0 0 0 .6.598h6.808c.33 0 .599-.268.599-.598V7.027a.6.6 0 0 0-.6-.598H9.572V4.595a.6.6 0 0 0-.599-.599z" clip-rule="evenodd"/></svg>