<svg xmlns="http://www.w3.org/2000/svg" fill="none" viewBox="0 0 16 16"><path stroke="currentColor" stroke-linecap="round" stroke-linejoin="round" d="m5.224 10.896.007-.008m-1.398-2.88.006-.009m1.385-2.88.007-.009m2.775-1.436.007-.008m2.775 1.452.007-.008m3.13 1.113c-.06.173-.152.332-.272.467s-.264.244-.424.32a4.92 4.92 0 0 0-2.093 1.86 5.2 5.2 0 0 0-.69 3.752 1.62 1.62 0 0 1-.215 1.192 1.3 1.3 0 0 1-.362.381 1.2 1.2 0 0 1-.48.197 6 6 0 0 1-1.126.108 6.1 6.1 0 0 1-2.442-.513 6.3 6.3 0 0 1-2.055-1.462 6.5 6.5 0 0 1-1.344-2.178 6.7 6.7 0 0 1-.419-2.55 6.66 6.66 0 0 1 1.778-4.33A6.2 6.2 0 0 1 7.901 1.5h.355c1.165 0 2.308.339 3.298.976.99.638 1.79 1.551 2.308 2.635.16.343.182.738.062 1.098z"/></svg>