<svg xmlns="http://www.w3.org/2000/svg" fill="none" viewBox="0 0 16 16"><path fill="currentColor" fill-rule="evenodd" d="M8 1a7 7 0 1 1 0 14A7 7 0 0 1 8 1M6.473 3.467c-.505 0-.993.19-1.356.535a1.81 1.81 0 0 0-.572 1.314V7.9a.76.76 0 0 0-.356.567l-.003.077.003.078a.76.76 0 0 0 1.516-.078.76.76 0 0 0-.36-.644V5.316c0-.27.114-.535.323-.734.21-.2.5-.314.805-.314s.594.115.804.314.323.463.323.734v5.368c0 .319.046.575.159.8.11.22.269.377.413.514.363.344.85.534 1.355.534s.993-.19 1.356-.534.572-.817.572-1.314V8.106a.76.76 0 0 0-.323-1.398l-.077-.004a.76.76 0 0 0-.756.682l-.004.078.004.077c.024.24.161.444.355.565v2.578c0 .27-.113.535-.322.734-.21.2-.5.314-.805.314a1.17 1.17 0 0 1-.804-.314c-.142-.135-.208-.209-.25-.292-.038-.078-.073-.198-.073-.442V5.316c0-.497-.209-.97-.572-1.314a1.97 1.97 0 0 0-1.355-.535m-1.528 6.546a.76.76 0 0 0-.756.681l-.003.077.003.079a.76.76 0 1 0 .833-.833zm6.11-5.47a.76.76 0 0 0-.756.683l-.004.078.004.077a.76.76 0 1 0 .833-.833z" clip-rule="evenodd"/></svg>