<svg xmlns="http://www.w3.org/2000/svg" fill="none" viewBox="0 0 16 16"><path fill="currentColor" fill-rule="evenodd" d="M12.724 1.082a.697.697 0 0 1 .82.696v12.444a.697.697 0 0 1-.82.695L3.02 13.061a.705.705 0 0 1-.565-.696v-8.73c0-.34.238-.632.565-.695zm-1.451 1.965L4.528 4.545a.46.46 0 0 0-.357.446V9.08c0 .251.205.455.457.456h2.554a.456.456 0 0 0 .456-.456v-.808a.75.75 0 0 0-.33-1.378l-.077-.004a.75.75 0 0 0-.394 1.389v.457H4.973v-3.47l4.151-.923v7.337l-4.462-1.03a.4.4 0 0 0-.18.78l4.883 1.127a.456.456 0 0 0 .559-.444V4.165l1.104-.245v8.644a.401.401 0 0 0 .8 0V3.493a.457.457 0 0 0-.554-.446" clip-rule="evenodd"/></svg>