<svg xmlns="http://www.w3.org/2000/svg" fill="none" viewBox="0 0 16 16"><g clip-path="url(#a)"><path stroke="currentColor" stroke-linecap="round" d="M10.634 5.87 10 3.75m.634 2.12c-.502-.414-1.295-.77-1.796-.878-.693-.148-1.308-.08-1.618.003-1.845.43-2.988 2.347-2.58 4.27.346 1.63 1.697 2.763 3.224 2.818v.002a1 1 0 0 0 .072.004h.157l4.354-.032a.66.66 0 0 0 .566-.343L14.81 8.47a1.54 1.54 0 0 0 .006-1.473l-2.863-4.561c-.253-.465-.652-.687-1.165-.687H5.213c-.513 0-.914.222-1.166.687l-2.862 4.56a1.54 1.54 0 0 0 .006 1.474l2.79 5.037c.254.46.724.742 1.232.742h5.574m-.153-8.38L8.75 6.5"/></g><defs><clipPath id="a"><path fill="currentColor" d="M0 0h16v16H0z"/></clipPath></defs></svg>