<svg xmlns="http://www.w3.org/2000/svg" fill="none" viewBox="0 0 16 16"><path fill="currentColor" fill-rule="evenodd" d="M7.023 1.234a2.16 2.16 0 0 1 1.954 0l4.333 2.201a2.18 2.18 0 0 1 1.19 1.944v5.242a2.18 2.18 0 0 1-1.19 1.945l-4.333 2.2a2.16 2.16 0 0 1-1.954 0l-4.334-2.2A2.18 2.18 0 0 1 1.5 10.62V5.379c0-.821.46-1.573 1.19-1.944zM8.49 3.72a.98.98 0 0 0-.978 0L4.539 5.436a.98.98 0 0 0-.49.848v3.431c0 .35.188.673.49.848l2.972 1.716a.98.98 0 0 0 .978 0l2.972-1.716a.98.98 0 0 0 .49-.848V6.461c-.002-.535-.581-.87-1.045-.602l-1.33.768-.01.006-.884.54-.676.367-1.581-.913a.401.401 0 0 0-.4.693L7.77 8.33c.139.08.31.082.452.005l.857-.466.009-.005.008-.005.88-.537 1.174-.679v3.073a.18.18 0 0 1-.088.155l-2.973 1.715a.18.18 0 0 1-.179 0L4.938 9.87a.18.18 0 0 1-.088-.155V6.284a.18.18 0 0 1 .088-.156L7.91 4.413a.18.18 0 0 1 .179 0l.987.57a.707.707 0 0 0 1.06.557.71.71 0 0 0 .318-.838l-.059-.131-.083-.116a.71.71 0 0 0-.837-.166z" clip-rule="evenodd"/></svg>