<svg xmlns="http://www.w3.org/2000/svg" fill="none" viewBox="0 0 16 16"><path fill="currentColor" d="M8.6 13.6a.5.5 0 0 0 0-1zm4.9-4.7a.5.5 0 0 0 1 0zM2 4.2a.5.5 0 0 0 0 1zm12 1a.5.5 0 0 0 0-1zM3.428 3.171a.5.5 0 0 0 .744.67zm.75.663a.5.5 0 1 0-.744-.67zm1.05-.663a.5.5 0 0 0 .744.67zm.75.663a.5.5 0 0 0-.744-.67zm1.05-.663a.5.5 0 0 0 .744.67zm.75.663a.5.5 0 0 0-.744-.67zm5.868 10.219a.5.5 0 0 0 .708-.706zM8.6 13.1v-.5H3.2v1h5.4zm-5.4 0v-.5a.7.7 0 0 1-.7-.7h-1a1.7 1.7 0 0 0 1.7 1.7zM2 11.9h.5V3.5h-1v8.4zm0-8.4h.5a.7.7 0 0 1 .7-.7v-1a1.7 1.7 0 0 0-1.7 1.7zm1.2-1.2v.5h9.6v-1H3.2zm9.6 0v.5a.7.7 0 0 1 .7.7h1a1.7 1.7 0 0 0-1.7-1.7zM14 3.5h-.5v5.4h1V3.5zM2 4.7v.5h12v-1H2zm1.8-1.194.372.334.006-.006-.372-.335-.372-.334-.006.006zm1.8 0 .372.334.006-.006-.372-.335-.372-.334-.006.006zm1.8 0 .372.334.006-.006-.372-.335-.372-.334-.006.006zm5.474 9.065.354.353c.415-.415.672-.99.672-1.624h-1c0 .358-.144.682-.38.918zM13.4 11.3h.5A2.3 2.3 0 0 0 11.6 9v1a1.3 1.3 0 0 1 1.3 1.3zm-1.8-1.8V9a2.3 2.3 0 0 0-2.3 2.3h1a1.3 1.3 0 0 1 1.3-1.3zm-1.8 1.8h-.5a2.3 2.3 0 0 0 2.3 2.3v-1a1.3 1.3 0 0 1-1.3-1.3zm1.8 1.8v.5c.636 0 1.213-.259 1.629-.676l-.354-.353-.354-.353c-.237.236-.561.382-.921.382zm1.274-.529-.354.353 1.126 1.129L14 13.7l.354-.353-1.125-1.129z"/></svg>