<svg xmlns="http://www.w3.org/2000/svg" fill="none" viewBox="0 0 16 16"><path fill="currentColor" d="M2 2v-.5a.5.5 0 0 0-.5.5zm12 0h.5a.5.5 0 0 0-.5-.5zm0 12v.5a.5.5 0 0 0 .5-.5zM2 14h-.5a.5.5 0 0 0 .5.5zm4.6-3.7h-.5zm-2.6 0h-.5zm7.348 0v.5h.5v-.5zm.5-.975a.5.5 0 0 0-1 0h1m-2.3.975a.5.5 0 0 0 1 0h-1m1-.975a.5.5 0 0 0-1 0h1M5.891 6.1a.5.5 0 1 0 0 1v-1m1.576 1a.5.5 0 0 0 0-1v1M4.359 3.652a.5.5 0 0 0-.718.696L4 4zM5.26 5.3l.359.348a.5.5 0 0 0 0-.696zm-1.62.952a.5.5 0 0 0 .718.696L4 6.6zM2 2v.5h12v-1H2zm12 0h-.5v12h1V2zm0 12v-.5H2v1h12zM2 14h.5V2h-1v12zm4.6-3.7h.5a1.8 1.8 0 0 0-1.8-1.8v1a.8.8 0 0 1 .8.8zM5.3 9v-.5a1.8 1.8 0 0 0-1.8 1.8h1a.8.8 0 0 1 .8-.8zM4 10.3h-.5a1.8 1.8 0 0 0 1.8 1.8v-1a.8.8 0 0 1-.8-.8zm1.3 1.3v.5a1.8 1.8 0 0 0 1.8-1.8h-1a.8.8 0 0 1-.8.8zm1.3-1.3v.5h4.748v-1H6.6zm4.748 0h.5v-.975h-1v.975zm-1.3 0h.5v-.975h-1v.975zM5.891 6.6v.5h1.576v-1H5.89zM4 4l-.359.348 1.26 1.3.36-.348.359-.348-1.261-1.3zm1.26 1.3-.358-.348-1.26 1.3L4 6.6l.359.348 1.26-1.3z"/></svg>