<svg xmlns="http://www.w3.org/2000/svg" fill="none" viewBox="0 0 16 16"><path fill="currentColor" d="M12.845 4.635a.5.5 0 0 0-.684.73L12.503 5zm-.684 5a.5.5 0 0 0 .684.73L12.503 10zM4.857 5.531l.275.417zm3.692-2.429-.275-.417zm0 9.796.274-.418zm-3.692-2.429.275-.417zM12.503 5c-.342.365-.342.365-.343.364l-.001-.001.003.003.022.022q.031.033.091.103c.079.095.187.238.295.425.218.373.433.912.433 1.584h1a4.14 4.14 0 0 0-.568-2.087 4 4 0 0 0-.527-.715l-.042-.042-.014-.013-.004-.005-.002-.001v-.001h-.001zm1 2.5h-.5a3.14 3.14 0 0 1-.433 1.584 3 3 0 0 1-.386.528l-.022.022-.003.003.001-.001.343.364.342.364h.001l.002-.002.004-.005.014-.012.042-.043a4.1 4.1 0 0 0 .527-.714 4.14 4.14 0 0 0 .568-2.088zm-12 1.64h.5V6.86h-1v2.28zm0-2.28h.5c0-.4.326-.728.73-.728v-1a1.73 1.73 0 0 0-1.73 1.728zm1.23-1.228v.5h1.785v-1H2.733zm1.785 0v.5c.218 0 .431-.064.614-.184l-.275-.417-.275-.418a.1.1 0 0 1-.064.02zm.339-.101.275.417L8.823 3.52l-.274-.418-.275-.417-3.692 2.428zm3.692-2.429.274.418a.115.115 0 0 1 .18.095h1c0-.89-.99-1.417-1.73-.93zm.954.513h-.5v8.77h1v-8.77zm0 8.77h-.5c0 .089-.101.146-.18.095l-.274.418-.275.417a1.115 1.115 0 0 0 1.729-.93zm-.954.513.274-.418-3.691-2.428-.275.417-.275.418 3.692 2.428zm-3.692-2.429.275-.417a1.1 1.1 0 0 0-.614-.184v1q.035 0 .064.02zm-.339-.101v-.5H2.733v1h1.785zm-1.785 0v-.5a.73.73 0 0 1-.73-.728h-1a1.73 1.73 0 0 0 1.73 1.728z"/></svg>