<svg xmlns="http://www.w3.org/2000/svg" fill="none" viewBox="0 0 16 16"><path fill="currentColor" d="M11.155 8.646a.5.5 0 0 0 .707.708L11.508 9zm2.707-1.292a.5.5 0 0 0-.707-.708l.353.354zm-2-.708a.5.5 0 0 0-.707.708L11.508 7zm1.293 2.708a.5.5 0 1 0 .707-.708L13.508 9zM4.862 5.53l.275.417zm3.692-2.429-.275-.417zm0 9.796.275-.418zm-3.692-2.429.275-.417zM11.508 9l.354.354 1-1L12.508 8l-.353-.354-1 1zm2-2-.353-.354-1 1 .353.354.354.354 1-1zm-1 1 .354-.354-1-1-.354.354-.353.354 1 1zm0 0-.353.354 1 1L13.508 9l.354-.354-1-1zm-11 1.14h.5V6.86h-1v2.28zm0-2.28h.5c0-.4.326-.728.73-.728v-1a1.73 1.73 0 0 0-1.73 1.728zm1.23-1.228v.5h1.785v-1H2.74zm1.785 0v.5c.218 0 .432-.064.614-.184l-.275-.417-.275-.418a.1.1 0 0 1-.064.02zm.34-.101.274.417L8.829 3.52l-.275-.418-.275-.417-3.692 2.428zm3.69-2.429.276.418a.115.115 0 0 1 .18.095h1c0-.89-.99-1.417-1.73-.93zm.955.513h-.5v8.77h1v-8.77zm0 8.77h-.5c0 .089-.1.146-.18.095l-.274.418-.275.417a1.115 1.115 0 0 0 1.73-.93zm-.954.513.275-.418-3.692-2.428-.275.417-.275.418 3.692 2.428zm-3.692-2.429.275-.417a1.1 1.1 0 0 0-.614-.184v1q.035 0 .064.02zm-.339-.101v-.5H2.74v1h1.784zm-1.784 0v-.5a.73.73 0 0 1-.73-.728h-1a1.73 1.73 0 0 0 1.73 1.728z"/></svg>