<svg xmlns="http://www.w3.org/2000/svg" fill="none" viewBox="0 0 16 16"><path fill="currentColor" d="M6.667 6.5a.5.5 0 0 0 0-1zM4 5.5a.5.5 0 0 0 0 1zm0-2a.5.5 0 0 0 0 1zm2 1a.5.5 0 0 0 0-1zm5.723 7.916a.5.5 0 0 0 .554-.832zM9 10l.277-.416a.5.5 0 0 0-.59.026zm-1.667 1.333-.312.39a.5.5 0 0 0 .625 0zm-3.02-3.057a.5.5 0 0 0-.625.781zM6.666 6v-.5H4v1h2.667zm3.666 1.333v-.5a1.167 1.167 0 0 1-1.166-1.166h-1c0 1.196.97 2.166 2.166 2.166zM8.667 5.667h.5c0-.645.522-1.167 1.166-1.167v-1c-1.196 0-2.166.97-2.166 2.167zM10.333 4v.5c.645 0 1.167.522 1.167 1.167h1c0-1.197-.97-2.167-2.167-2.167zM12 5.667h-.5c0 .644-.522 1.166-1.167 1.166v1c1.197 0 2.167-.97 2.167-2.166zM4 4v.5h2v-1H4zm8 8 .277-.416-3-2L9 10l-.277.416 3 2zm-3-2-.312-.39-1.667 1.333.312.39.313.39 1.666-1.333zm-1.667 1.333.313-.39-3.334-2.667-.312.39-.312.391 3.333 2.667zM2 13.6h.5V2.4h-1v11.2zM2 2.4h.5a.1.1 0 0 1-.1.1v-1a.9.9 0 0 0-.9.9zm.4-.4v.5h11.2v-1H2.4zm11.2 0v.5a.1.1 0 0 1-.1-.1h1a.9.9 0 0 0-.9-.9zm.4.4h-.5v11.2h1V2.4zm0 11.2h-.5a.1.1 0 0 1 .1-.1v1a.9.9 0 0 0 .9-.9zm-.4.4v-.5H2.4v1h11.2zM2.4 14v-.5a.1.1 0 0 1 .1.1h-1a.9.9 0 0 0 .9.9z"/></svg>