<svg xmlns="http://www.w3.org/2000/svg" fill="none" viewBox="0 0 16 16"><path fill="currentColor" fill-rule="evenodd" d="M8 1a7 7 0 1 1 0 14A7 7 0 0 1 8 1m.354 2.805a.81.81 0 0 0-.69 0l-1.275.603a.4.4 0 0 0 .341.723l1.275-.604h.008L10.85 5.87q.005.004.005.01l-.096.497q-.14.724-.38 1.423l-.244.705-.408.848a5.3 5.3 0 0 1-.631 1.003q-.38.474-.832.88l-.262.233q-.006.004-.01 0l-.355-.287a4 4 0 0 1-.75-.805l-.125-.182.695-.508c.07.024.144.04.222.04a.698.698 0 0 0 .14-1.38l-.14-.013a.7.7 0 0 0-.683.556l-.014.14.001.013-.642.47-.404-.73 1.394-.932q.117.046.25.047a.697.697 0 0 0 .14-1.38l-.14-.013a.697.697 0 0 0-.696.682l-1.266.846-.08-.233a7 7 0 0 1-.329-1.406l-.064-.506q0-.006.004-.01l.194-.09a.4.4 0 0 0-.342-.724l-.194.092a.81.81 0 0 0-.456.833l.065.507c.068.532.19 1.057.365 1.565l.25.724.012.032.017.03.798 1.45.011.018.012.018.35.501c.253.363.557.69.9.969l.355.288c.308.25.751.24 1.047-.025l.262-.233q.504-.45.925-.979.428-.536.726-1.154l.421-.872.01-.021.008-.022.25-.724q.26-.751.409-1.533l.096-.498a.81.81 0 0 0-.449-.883z" clip-rule="evenodd"/></svg>