<svg xmlns="http://www.w3.org/2000/svg" fill="none" viewBox="0 0 16 16"><path fill="currentColor" d="M5.25 4.875a.375.375 0 1 1-.75 0 .375.375 0 0 1 .75 0"/><path fill="currentColor" d="M2 2v-.5a.5.5 0 0 0-.5.5zm5.454 0 .354-.354a.5.5 0 0 0-.354-.146zm6.067 6.066-.354.354zm0 2.314-.354-.354zm-5.455 3.14.354-.353zM2 7.455h-.5a.5.5 0 0 0 .146.354zM2 2v.5h5.454v-1H2zm5.454 0-.353.354 6.066 6.066.354-.354.353-.353-6.066-6.067zm6.067 6.066-.354.354a1.135 1.135 0 0 1 0 1.606l.354.354.353.354a2.135 2.135 0 0 0 0-3.021zm0 2.314-.354-.354-3.14 3.141.353.354.353.353 3.141-3.14zm-3.141 3.14-.354-.353a1.135 1.135 0 0 1-1.606 0l-.354.354-.354.353a2.135 2.135 0 0 0 3.021 0zm-2.314 0 .354-.353-6.066-6.066L2 7.454l-.354.354 6.067 6.066zM2 7.455h.5V2h-1v5.454zm3.25-2.579h-.5c0-.069.056-.125.125-.125v1a.875.875 0 0 0 .875-.875zm-.375.375v-.5c.069 0 .125.056.125.125H4c0 .483.392.875.875.875zM4.5 4.875H5A.125.125 0 0 1 4.875 5V4A.875.875 0 0 0 4 4.875zm.375-.375V5a.125.125 0 0 1-.125-.125h1A.875.875 0 0 0 4.875 4z"/></svg>