<svg xmlns="http://www.w3.org/2000/svg" fill="none" viewBox="0 0 16 16"><path stroke="currentColor" stroke-linecap="round" stroke-linejoin="round" d="M3.692 8V2.36a.36.36 0 0 1 .36-.36h6.99a.36.36 0 0 1 .255.105l1.89 1.89a.36.36 0 0 1 .105.254v9.391a.36.36 0 0 1-.36.36H7.139m3.35-12v2.433c0 .199.161.36.36.36h2.443m-9.618 7.422V9.773m1.628 2.433 1.241-2.45m1.253 2.45-1.24-2.45m-1.989.017H2.709m4.86 1.983H5.53m3.587.31c.785.55 1.605-.085 1.605-.367s-.503-.568-.82-.754c-.28-.164-.785-.375-.785-.657s.61-.976 1.604-.368"/></svg>