<svg xmlns="http://www.w3.org/2000/svg" fill="none" viewBox="0 0 16 16"><path fill="currentColor" d="m11.024 6.332-.3-.4zm-1.84 1.38.3.4zm0 .576.3-.4zm1.84 1.38-.3.4zM2 10.4h.5V5.6h-1v4.8zm0-4.8h.5a3.1 3.1 0 0 1 3.1-3.1v-1a4.1 4.1 0 0 0-4.1 4.1zM5.6 2v.5h4.8v-1H5.6zm4.8 0v.5a3.1 3.1 0 0 1 3.1 3.1h1a4.1 4.1 0 0 0-4.1-4.1zM14 5.6h-.5v4.8h1V5.6zm0 4.8h-.5a3.1 3.1 0 0 1-3.1 3.1v1a4.1 4.1 0 0 0 4.1-4.1zM10.4 14v-.5H5.6v1h4.8zm-4.8 0v-.5a3.1 3.1 0 0 1-3.1-3.1h-1a4.1 4.1 0 0 0 4.1 4.1zM4.4 8.6h.5V7.4h-1v1.2zm0-1.2h.5a.7.7 0 0 1 .7-.7v-1a1.7 1.7 0 0 0-1.7 1.7zm1.2-1.2v.5h1.8v-1H5.6zm1.8 0v.5a.7.7 0 0 1 .7.7h1a1.7 1.7 0 0 0-1.7-1.7zm1.2 1.2h-.5v1.2h1V7.4zm0 1.2h-.5a.7.7 0 0 1-.7.7v1a1.7 1.7 0 0 0 1.7-1.7zM7.4 9.8v-.5H5.6v1h1.8zm-1.8 0v-.5a.7.7 0 0 1-.7-.7h-1a1.7 1.7 0 0 0 1.7 1.7zm5.424-3.468-.3-.4-1.84 1.38.3.4.3.4 1.84-1.38zm-1.84 1.38-.3-.4a.86.86 0 0 0 0 1.376l.3-.4.3-.4a.14.14 0 0 1 0 .224zm0 .576-.3.4 1.84 1.38.3-.4.3-.4-1.84-1.38zm1.84 1.38-.3.4A.86.86 0 0 0 12.1 9.38h-1a.14.14 0 0 1 .224-.112zm.576-.288h.5V6.62h-1v2.76zm0-2.76h.5a.86.86 0 0 0-1.376-.688l.3.4.3.4a.14.14 0 0 1-.224-.112z"/></svg>