<svg xmlns="http://www.w3.org/2000/svg" fill="none" viewBox="0 0 16 16"><path fill="currentColor" fill-rule="evenodd" d="M7.632 2.753c2.123 0 3.896 1.6 4.321 3.733a.26.26 0 0 0 .23.213c1.575.138 2.813 1.549 2.813 3.269s-1.308 3.207-2.945 3.276h-.11l-.002.003H3.705c-1.491 0-2.7-1.29-2.7-2.885 0-1.397.93-2.564 2.164-2.83a.06.06 0 0 0 .045-.057c0-2.608 1.979-4.722 4.419-4.722m.136 1.996c-1.697 0-3.047 1.39-3.177 3.107-.83.309-1.405 1.141-1.405 2.094 0 1.201.918 2.22 2.104 2.22h1.623a.4.4 0 1 0 0-.8H5.29c-.696.001-1.304-.61-1.304-1.42 0-.707.47-1.27 1.05-1.394h.002a.44.44 0 0 0 .342-.427c0-1.45 1.094-2.579 2.388-2.58 1.126 0 2.098.853 2.334 2.034v.001c.048.233.24.432.502.454.768.068 1.41.766 1.41 1.664s-.682 1.634-1.475 1.667h-.053l-.028.002h-.757L8.862 8.29a.74.74 0 0 0 .197-.497.743.743 0 0 0-1.482-.076l-.004.076.004.076a.74.74 0 0 0 .513.627l.92 3.381a.4.4 0 0 0 .386.295h1.09l.028-.002h.06c1.271-.054 2.24-1.194 2.24-2.467 0-1.211-.834-2.248-1.967-2.437-.357-1.431-1.584-2.516-3.08-2.516m-2.43 4.636a.4.4 0 0 0 .026.799l1.83-.061.418 1.738a.4.4 0 0 0 .779-.186l-.495-2.056a.4.4 0 0 0-.332-.303l-.069-.004z" clip-rule="evenodd"/></svg>